ISO-10303-21;
HEADER;
/* Generated by software containing ST-Developer
 * from STEP Tools, Inc. (www.steptools.com) 
 */
/* OPTION: strings as raw bytes, not using required /X/ escapes */

FILE_DESCRIPTION(
/* description */ ('Unknown'),
/* implementation_level */ '2;1');

FILE_NAME(
/* name */ '504102B00000G',
/* time_stamp */ '2024-05-06T09:33:21+02:00',
/* author */ ('Unknown'),
/* organization */ ('Unknown'),
/* preprocessor_version */ 'ST-DEVELOPER v18.102',
/* originating_system */ 'Solid Edge',
/* authorisation */ 'Unknown');

FILE_SCHEMA (('AUTOMOTIVE_DESIGN {1 0 10303 214 3 1 1}'));
ENDSEC;

DATA;
#10=PROPERTY_DEFINITION_REPRESENTATION(#14,#12);
#11=PROPERTY_DEFINITION_REPRESENTATION(#15,#13);
#12=REPRESENTATION('',(#16),#1491);
#13=REPRESENTATION('',(#17),#1491);
#14=PROPERTY_DEFINITION('pmi validation property','',#1496);
#15=PROPERTY_DEFINITION('pmi validation property','',#1496);
#16=VALUE_REPRESENTATION_ITEM('number of annotations',COUNT_MEASURE(0.));
#17=VALUE_REPRESENTATION_ITEM('number of views',COUNT_MEASURE(0.));
#18=SHAPE_REPRESENTATION_RELATIONSHIP('','',#911,#19);
#19=ADVANCED_BREP_SHAPE_REPRESENTATION('',(#909),#1491);
#20=CYLINDRICAL_SURFACE('',#930,0.5);
#21=CYLINDRICAL_SURFACE('',#933,0.5);
#22=CYLINDRICAL_SURFACE('',#936,0.5);
#23=CYLINDRICAL_SURFACE('',#939,0.5);
#24=CYLINDRICAL_SURFACE('',#942,0.5);
#25=CYLINDRICAL_SURFACE('',#945,0.5);
#26=CYLINDRICAL_SURFACE('',#951,1.4);
#27=CYLINDRICAL_SURFACE('',#954,1.4);
#28=CYLINDRICAL_SURFACE('',#957,1.4);
#29=CYLINDRICAL_SURFACE('',#960,1.4);
#30=CYLINDRICAL_SURFACE('',#963,1.4);
#31=CYLINDRICAL_SURFACE('',#966,1.4);
#32=CYLINDRICAL_SURFACE('',#985,1.83);
#33=CIRCLE('',#926,1.83);
#34=CIRCLE('',#931,0.5);
#35=CIRCLE('',#932,0.5);
#36=CIRCLE('',#934,0.5);
#37=CIRCLE('',#935,0.5);
#38=CIRCLE('',#937,0.5);
#39=CIRCLE('',#938,0.5);
#40=CIRCLE('',#940,0.5);
#41=CIRCLE('',#941,0.5);
#42=CIRCLE('',#943,0.5);
#43=CIRCLE('',#944,0.5);
#44=CIRCLE('',#946,0.5);
#45=CIRCLE('',#947,0.5);
#46=CIRCLE('',#952,1.4);
#47=CIRCLE('',#953,1.4);
#48=CIRCLE('',#955,1.4);
#49=CIRCLE('',#956,1.4);
#50=CIRCLE('',#958,1.4);
#51=CIRCLE('',#959,1.4);
#52=CIRCLE('',#961,1.4);
#53=CIRCLE('',#962,1.4);
#54=CIRCLE('',#964,1.4);
#55=CIRCLE('',#965,1.4);
#56=CIRCLE('',#967,1.4);
#57=CIRCLE('',#968,1.4);
#58=CIRCLE('',#972,1.83);
#59=ORIENTED_EDGE('',*,*,#311,.F.);
#60=ORIENTED_EDGE('',*,*,#312,.T.);
#61=ORIENTED_EDGE('',*,*,#313,.T.);
#62=ORIENTED_EDGE('',*,*,#314,.T.);
#63=ORIENTED_EDGE('',*,*,#315,.T.);
#64=ORIENTED_EDGE('',*,*,#316,.T.);
#65=ORIENTED_EDGE('',*,*,#317,.T.);
#66=ORIENTED_EDGE('',*,*,#318,.T.);
#67=ORIENTED_EDGE('',*,*,#319,.F.);
#68=ORIENTED_EDGE('',*,*,#320,.T.);
#69=ORIENTED_EDGE('',*,*,#321,.T.);
#70=ORIENTED_EDGE('',*,*,#322,.T.);
#71=ORIENTED_EDGE('',*,*,#312,.F.);
#72=ORIENTED_EDGE('',*,*,#323,.T.);
#73=ORIENTED_EDGE('',*,*,#324,.T.);
#74=ORIENTED_EDGE('',*,*,#325,.F.);
#75=ORIENTED_EDGE('',*,*,#326,.F.);
#76=ORIENTED_EDGE('',*,*,#327,.T.);
#77=ORIENTED_EDGE('',*,*,#328,.F.);
#78=ORIENTED_EDGE('',*,*,#317,.F.);
#79=ORIENTED_EDGE('',*,*,#329,.T.);
#80=ORIENTED_EDGE('',*,*,#330,.T.);
#81=ORIENTED_EDGE('',*,*,#322,.F.);
#82=ORIENTED_EDGE('',*,*,#331,.T.);
#83=ORIENTED_EDGE('',*,*,#332,.F.);
#84=ORIENTED_EDGE('',*,*,#333,.T.);
#85=ORIENTED_EDGE('',*,*,#334,.T.);
#86=ORIENTED_EDGE('',*,*,#335,.F.);
#87=ORIENTED_EDGE('',*,*,#336,.F.);
#88=ORIENTED_EDGE('',*,*,#337,.T.);
#89=ORIENTED_EDGE('',*,*,#338,.F.);
#90=ORIENTED_EDGE('',*,*,#339,.F.);
#91=ORIENTED_EDGE('',*,*,#340,.T.);
#92=ORIENTED_EDGE('',*,*,#341,.T.);
#93=ORIENTED_EDGE('',*,*,#342,.F.);
#94=ORIENTED_EDGE('',*,*,#343,.T.);
#95=ORIENTED_EDGE('',*,*,#344,.F.);
#96=ORIENTED_EDGE('',*,*,#332,.T.);
#97=ORIENTED_EDGE('',*,*,#345,.T.);
#98=ORIENTED_EDGE('',*,*,#346,.F.);
#99=ORIENTED_EDGE('',*,*,#347,.F.);
#100=ORIENTED_EDGE('',*,*,#348,.T.);
#101=ORIENTED_EDGE('',*,*,#339,.T.);
#102=ORIENTED_EDGE('',*,*,#349,.T.);
#103=ORIENTED_EDGE('',*,*,#350,.F.);
#104=ORIENTED_EDGE('',*,*,#351,.F.);
#105=ORIENTED_EDGE('',*,*,#352,.T.);
#106=ORIENTED_EDGE('',*,*,#342,.T.);
#107=ORIENTED_EDGE('',*,*,#353,.T.);
#108=ORIENTED_EDGE('',*,*,#354,.F.);
#109=ORIENTED_EDGE('',*,*,#355,.F.);
#110=ORIENTED_EDGE('',*,*,#356,.F.);
#111=ORIENTED_EDGE('',*,*,#357,.T.);
#112=ORIENTED_EDGE('',*,*,#358,.F.);
#113=ORIENTED_EDGE('',*,*,#359,.T.);
#114=ORIENTED_EDGE('',*,*,#360,.T.);
#115=ORIENTED_EDGE('',*,*,#361,.T.);
#116=ORIENTED_EDGE('',*,*,#362,.T.);
#117=ORIENTED_EDGE('',*,*,#363,.T.);
#118=ORIENTED_EDGE('',*,*,#364,.F.);
#119=ORIENTED_EDGE('',*,*,#365,.F.);
#120=ORIENTED_EDGE('',*,*,#366,.F.);
#121=ORIENTED_EDGE('',*,*,#367,.T.);
#122=ORIENTED_EDGE('',*,*,#368,.F.);
#123=ORIENTED_EDGE('',*,*,#369,.T.);
#124=ORIENTED_EDGE('',*,*,#370,.T.);
#125=ORIENTED_EDGE('',*,*,#371,.T.);
#126=ORIENTED_EDGE('',*,*,#372,.T.);
#127=ORIENTED_EDGE('',*,*,#373,.T.);
#128=ORIENTED_EDGE('',*,*,#374,.F.);
#129=ORIENTED_EDGE('',*,*,#314,.F.);
#130=ORIENTED_EDGE('',*,*,#375,.T.);
#131=ORIENTED_EDGE('',*,*,#376,.T.);
#132=ORIENTED_EDGE('',*,*,#377,.T.);
#133=ORIENTED_EDGE('',*,*,#378,.T.);
#134=ORIENTED_EDGE('',*,*,#315,.F.);
#135=ORIENTED_EDGE('',*,*,#379,.T.);
#136=ORIENTED_EDGE('',*,*,#380,.F.);
#137=ORIENTED_EDGE('',*,*,#381,.T.);
#138=ORIENTED_EDGE('',*,*,#382,.F.);
#139=ORIENTED_EDGE('',*,*,#320,.F.);
#140=ORIENTED_EDGE('',*,*,#383,.F.);
#141=ORIENTED_EDGE('',*,*,#376,.F.);
#142=ORIENTED_EDGE('',*,*,#384,.T.);
#143=ORIENTED_EDGE('',*,*,#385,.T.);
#144=ORIENTED_EDGE('',*,*,#386,.T.);
#145=ORIENTED_EDGE('',*,*,#387,.T.);
#146=ORIENTED_EDGE('',*,*,#377,.F.);
#147=ORIENTED_EDGE('',*,*,#388,.T.);
#148=ORIENTED_EDGE('',*,*,#389,.F.);
#149=ORIENTED_EDGE('',*,*,#390,.T.);
#150=ORIENTED_EDGE('',*,*,#391,.F.);
#151=ORIENTED_EDGE('',*,*,#381,.F.);
#152=ORIENTED_EDGE('',*,*,#392,.F.);
#153=ORIENTED_EDGE('',*,*,#393,.T.);
#154=ORIENTED_EDGE('',*,*,#394,.T.);
#155=ORIENTED_EDGE('',*,*,#395,.F.);
#156=ORIENTED_EDGE('',*,*,#396,.F.);
#157=ORIENTED_EDGE('',*,*,#397,.T.);
#158=ORIENTED_EDGE('',*,*,#398,.T.);
#159=ORIENTED_EDGE('',*,*,#399,.F.);
#160=ORIENTED_EDGE('',*,*,#400,.F.);
#161=ORIENTED_EDGE('',*,*,#401,.F.);
#162=ORIENTED_EDGE('',*,*,#402,.T.);
#163=ORIENTED_EDGE('',*,*,#403,.T.);
#164=ORIENTED_EDGE('',*,*,#404,.F.);
#165=ORIENTED_EDGE('',*,*,#346,.T.);
#166=ORIENTED_EDGE('',*,*,#405,.T.);
#167=ORIENTED_EDGE('',*,*,#393,.F.);
#168=ORIENTED_EDGE('',*,*,#398,.F.);
#169=ORIENTED_EDGE('',*,*,#406,.T.);
#170=ORIENTED_EDGE('',*,*,#347,.T.);
#171=ORIENTED_EDGE('',*,*,#407,.F.);
#172=ORIENTED_EDGE('',*,*,#408,.F.);
#173=ORIENTED_EDGE('',*,*,#403,.F.);
#174=ORIENTED_EDGE('',*,*,#409,.T.);
#175=ORIENTED_EDGE('',*,*,#351,.T.);
#176=ORIENTED_EDGE('',*,*,#410,.F.);
#177=ORIENTED_EDGE('',*,*,#373,.F.);
#178=ORIENTED_EDGE('',*,*,#411,.T.);
#179=ORIENTED_EDGE('',*,*,#324,.F.);
#180=ORIENTED_EDGE('',*,*,#327,.F.);
#181=ORIENTED_EDGE('',*,*,#412,.T.);
#182=ORIENTED_EDGE('',*,*,#369,.F.);
#183=ORIENTED_EDGE('',*,*,#413,.F.);
#184=ORIENTED_EDGE('',*,*,#414,.F.);
#185=ORIENTED_EDGE('',*,*,#329,.F.);
#186=ORIENTED_EDGE('',*,*,#415,.F.);
#187=ORIENTED_EDGE('',*,*,#357,.F.);
#188=ORIENTED_EDGE('',*,*,#416,.F.);
#189=ORIENTED_EDGE('',*,*,#363,.F.);
#190=ORIENTED_EDGE('',*,*,#417,.T.);
#191=ORIENTED_EDGE('',*,*,#334,.F.);
#192=ORIENTED_EDGE('',*,*,#337,.F.);
#193=ORIENTED_EDGE('',*,*,#418,.T.);
#194=ORIENTED_EDGE('',*,*,#359,.F.);
#195=ORIENTED_EDGE('',*,*,#419,.F.);
#196=ORIENTED_EDGE('',*,*,#420,.F.);
#197=ORIENTED_EDGE('',*,*,#340,.F.);
#198=ORIENTED_EDGE('',*,*,#421,.F.);
#199=ORIENTED_EDGE('',*,*,#367,.F.);
#200=ORIENTED_EDGE('',*,*,#338,.T.);
#201=ORIENTED_EDGE('',*,*,#419,.T.);
#202=ORIENTED_EDGE('',*,*,#358,.T.);
#203=ORIENTED_EDGE('',*,*,#415,.T.);
#204=ORIENTED_EDGE('',*,*,#331,.F.);
#205=ORIENTED_EDGE('',*,*,#321,.F.);
#206=ORIENTED_EDGE('',*,*,#382,.T.);
#207=ORIENTED_EDGE('',*,*,#391,.T.);
#208=ORIENTED_EDGE('',*,*,#422,.T.);
#209=ORIENTED_EDGE('',*,*,#399,.T.);
#210=ORIENTED_EDGE('',*,*,#407,.T.);
#211=ORIENTED_EDGE('',*,*,#349,.F.);
#212=ORIENTED_EDGE('',*,*,#368,.T.);
#213=ORIENTED_EDGE('',*,*,#421,.T.);
#214=ORIENTED_EDGE('',*,*,#343,.F.);
#215=ORIENTED_EDGE('',*,*,#352,.F.);
#216=ORIENTED_EDGE('',*,*,#409,.F.);
#217=ORIENTED_EDGE('',*,*,#402,.F.);
#218=ORIENTED_EDGE('',*,*,#423,.F.);
#219=ORIENTED_EDGE('',*,*,#388,.F.);
#220=ORIENTED_EDGE('',*,*,#379,.F.);
#221=ORIENTED_EDGE('',*,*,#318,.F.);
#222=ORIENTED_EDGE('',*,*,#328,.T.);
#223=ORIENTED_EDGE('',*,*,#413,.T.);
#224=ORIENTED_EDGE('',*,*,#424,.T.);
#225=ORIENTED_EDGE('',*,*,#423,.T.);
#226=ORIENTED_EDGE('',*,*,#401,.T.);
#227=ORIENTED_EDGE('',*,*,#425,.T.);
#228=ORIENTED_EDGE('',*,*,#395,.T.);
#229=ORIENTED_EDGE('',*,*,#426,.T.);
#230=ORIENTED_EDGE('',*,*,#396,.T.);
#231=ORIENTED_EDGE('',*,*,#422,.F.);
#232=ORIENTED_EDGE('',*,*,#390,.F.);
#233=ORIENTED_EDGE('',*,*,#427,.F.);
#234=ORIENTED_EDGE('',*,*,#385,.F.);
#235=ORIENTED_EDGE('',*,*,#428,.F.);
#236=ORIENTED_EDGE('',*,*,#386,.F.);
#237=ORIENTED_EDGE('',*,*,#429,.T.);
#238=ORIENTED_EDGE('',*,*,#360,.F.);
#239=ORIENTED_EDGE('',*,*,#418,.F.);
#240=ORIENTED_EDGE('',*,*,#336,.T.);
#241=ORIENTED_EDGE('',*,*,#348,.F.);
#242=ORIENTED_EDGE('',*,*,#406,.F.);
#243=ORIENTED_EDGE('',*,*,#397,.F.);
#244=ORIENTED_EDGE('',*,*,#430,.T.);
#245=ORIENTED_EDGE('',*,*,#361,.F.);
#246=ORIENTED_EDGE('',*,*,#429,.F.);
#247=ORIENTED_EDGE('',*,*,#426,.F.);
#248=ORIENTED_EDGE('',*,*,#405,.F.);
#249=ORIENTED_EDGE('',*,*,#345,.F.);
#250=ORIENTED_EDGE('',*,*,#335,.T.);
#251=ORIENTED_EDGE('',*,*,#417,.F.);
#252=ORIENTED_EDGE('',*,*,#362,.F.);
#253=ORIENTED_EDGE('',*,*,#430,.F.);
#254=ORIENTED_EDGE('',*,*,#394,.F.);
#255=ORIENTED_EDGE('',*,*,#392,.T.);
#256=ORIENTED_EDGE('',*,*,#431,.T.);
#257=ORIENTED_EDGE('',*,*,#364,.T.);
#258=ORIENTED_EDGE('',*,*,#416,.T.);
#259=ORIENTED_EDGE('',*,*,#333,.F.);
#260=ORIENTED_EDGE('',*,*,#344,.T.);
#261=ORIENTED_EDGE('',*,*,#404,.T.);
#262=ORIENTED_EDGE('',*,*,#400,.T.);
#263=ORIENTED_EDGE('',*,*,#408,.T.);
#264=ORIENTED_EDGE('',*,*,#350,.T.);
#265=ORIENTED_EDGE('',*,*,#341,.F.);
#266=ORIENTED_EDGE('',*,*,#420,.T.);
#267=ORIENTED_EDGE('',*,*,#366,.T.);
#268=ORIENTED_EDGE('',*,*,#432,.F.);
#269=ORIENTED_EDGE('',*,*,#425,.F.);
#270=ORIENTED_EDGE('',*,*,#432,.T.);
#271=ORIENTED_EDGE('',*,*,#365,.T.);
#272=ORIENTED_EDGE('',*,*,#431,.F.);
#273=ORIENTED_EDGE('',*,*,#433,.T.);
#274=ORIENTED_EDGE('',*,*,#370,.F.);
#275=ORIENTED_EDGE('',*,*,#412,.F.);
#276=ORIENTED_EDGE('',*,*,#326,.T.);
#277=ORIENTED_EDGE('',*,*,#316,.F.);
#278=ORIENTED_EDGE('',*,*,#378,.F.);
#279=ORIENTED_EDGE('',*,*,#387,.F.);
#280=ORIENTED_EDGE('',*,*,#434,.T.);
#281=ORIENTED_EDGE('',*,*,#371,.F.);
#282=ORIENTED_EDGE('',*,*,#433,.F.);
#283=ORIENTED_EDGE('',*,*,#428,.T.);
#284=ORIENTED_EDGE('',*,*,#375,.F.);
#285=ORIENTED_EDGE('',*,*,#313,.F.);
#286=ORIENTED_EDGE('',*,*,#325,.T.);
#287=ORIENTED_EDGE('',*,*,#411,.F.);
#288=ORIENTED_EDGE('',*,*,#372,.F.);
#289=ORIENTED_EDGE('',*,*,#434,.F.);
#290=ORIENTED_EDGE('',*,*,#384,.F.);
#291=ORIENTED_EDGE('',*,*,#383,.T.);
#292=ORIENTED_EDGE('',*,*,#435,.T.);
#293=ORIENTED_EDGE('',*,*,#354,.T.);
#294=ORIENTED_EDGE('',*,*,#410,.T.);
#295=ORIENTED_EDGE('',*,*,#323,.F.);
#296=ORIENTED_EDGE('',*,*,#311,.T.);
#297=ORIENTED_EDGE('',*,*,#374,.T.);
#298=ORIENTED_EDGE('',*,*,#389,.T.);
#299=ORIENTED_EDGE('',*,*,#380,.T.);
#300=ORIENTED_EDGE('',*,*,#319,.T.);
#301=ORIENTED_EDGE('',*,*,#330,.F.);
#302=ORIENTED_EDGE('',*,*,#414,.T.);
#303=ORIENTED_EDGE('',*,*,#356,.T.);
#304=ORIENTED_EDGE('',*,*,#436,.F.);
#305=ORIENTED_EDGE('',*,*,#427,.T.);
#306=ORIENTED_EDGE('',*,*,#436,.T.);
#307=ORIENTED_EDGE('',*,*,#355,.T.);
#308=ORIENTED_EDGE('',*,*,#435,.F.);
#309=ORIENTED_EDGE('',*,*,#424,.F.);
#310=ORIENTED_EDGE('',*,*,#353,.F.);
#311=EDGE_CURVE('',#437,#438,#519,.T.);
#312=EDGE_CURVE('',#437,#439,#520,.T.);
#313=EDGE_CURVE('',#439,#440,#521,.T.);
#314=EDGE_CURVE('',#440,#438,#522,.T.);
#315=EDGE_CURVE('',#441,#442,#523,.T.);
#316=EDGE_CURVE('',#442,#443,#524,.T.);
#317=EDGE_CURVE('',#443,#444,#525,.T.);
#318=EDGE_CURVE('',#444,#441,#526,.T.);
#319=EDGE_CURVE('',#445,#446,#527,.T.);
#320=EDGE_CURVE('',#445,#447,#528,.T.);
#321=EDGE_CURVE('',#447,#448,#529,.T.);
#322=EDGE_CURVE('',#448,#446,#530,.T.);
#323=EDGE_CURVE('',#437,#449,#531,.T.);
#324=EDGE_CURVE('',#449,#450,#532,.T.);
#325=EDGE_CURVE('',#439,#450,#533,.T.);
#326=EDGE_CURVE('',#451,#443,#534,.T.);
#327=EDGE_CURVE('',#451,#452,#535,.T.);
#328=EDGE_CURVE('',#444,#452,#536,.T.);
#329=EDGE_CURVE('',#453,#454,#537,.T.);
#330=EDGE_CURVE('',#454,#446,#538,.T.);
#331=EDGE_CURVE('',#448,#453,#539,.T.);
#332=EDGE_CURVE('',#455,#456,#540,.T.);
#333=EDGE_CURVE('',#455,#457,#541,.T.);
#334=EDGE_CURVE('',#457,#458,#542,.T.);
#335=EDGE_CURVE('',#456,#458,#543,.T.);
#336=EDGE_CURVE('',#459,#460,#544,.T.);
#337=EDGE_CURVE('',#459,#461,#545,.T.);
#338=EDGE_CURVE('',#462,#461,#546,.T.);
#339=EDGE_CURVE('',#460,#462,#547,.T.);
#340=EDGE_CURVE('',#463,#464,#548,.T.);
#341=EDGE_CURVE('',#464,#465,#549,.T.);
#342=EDGE_CURVE('',#466,#465,#550,.T.);
#343=EDGE_CURVE('',#466,#463,#551,.T.);
#344=EDGE_CURVE('',#455,#467,#552,.T.);
#345=EDGE_CURVE('',#456,#468,#553,.T.);
#346=EDGE_CURVE('',#467,#468,#554,.T.);
#347=EDGE_CURVE('',#469,#470,#555,.T.);
#348=EDGE_CURVE('',#469,#460,#556,.T.);
#349=EDGE_CURVE('',#462,#470,#557,.T.);
#350=EDGE_CURVE('',#471,#465,#558,.T.);
#351=EDGE_CURVE('',#472,#471,#559,.T.);
#352=EDGE_CURVE('',#472,#466,#560,.T.);
#353=EDGE_CURVE('',#473,#473,#33,.T.);
#354=EDGE_CURVE('',#474,#475,#561,.T.);
#355=EDGE_CURVE('',#476,#474,#562,.T.);
#356=EDGE_CURVE('',#477,#476,#563,.T.);
#357=EDGE_CURVE('',#477,#478,#564,.F.);
#358=EDGE_CURVE('',#479,#478,#565,.T.);
#359=EDGE_CURVE('',#479,#480,#566,.F.);
#360=EDGE_CURVE('',#480,#481,#567,.T.);
#361=EDGE_CURVE('',#481,#482,#568,.T.);
#362=EDGE_CURVE('',#482,#483,#569,.T.);
#363=EDGE_CURVE('',#483,#484,#570,.F.);
#364=EDGE_CURVE('',#485,#484,#571,.T.);
#365=EDGE_CURVE('',#486,#485,#572,.T.);
#366=EDGE_CURVE('',#487,#486,#573,.T.);
#367=EDGE_CURVE('',#487,#488,#574,.F.);
#368=EDGE_CURVE('',#489,#488,#575,.T.);
#369=EDGE_CURVE('',#489,#490,#576,.F.);
#370=EDGE_CURVE('',#490,#491,#577,.T.);
#371=EDGE_CURVE('',#491,#492,#578,.T.);
#372=EDGE_CURVE('',#492,#493,#579,.T.);
#373=EDGE_CURVE('',#493,#475,#580,.F.);
#374=EDGE_CURVE('',#438,#494,#581,.T.);
#375=EDGE_CURVE('',#440,#495,#582,.T.);
#376=EDGE_CURVE('',#495,#494,#583,.T.);
#377=EDGE_CURVE('',#496,#497,#584,.T.);
#378=EDGE_CURVE('',#497,#442,#585,.T.);
#379=EDGE_CURVE('',#441,#496,#586,.T.);
#380=EDGE_CURVE('',#498,#445,#587,.T.);
#381=EDGE_CURVE('',#498,#499,#588,.T.);
#382=EDGE_CURVE('',#447,#499,#589,.T.);
#383=EDGE_CURVE('',#494,#500,#34,.T.);
#384=EDGE_CURVE('',#495,#501,#35,.T.);
#385=EDGE_CURVE('',#501,#500,#590,.T.);
#386=EDGE_CURVE('',#502,#503,#591,.T.);
#387=EDGE_CURVE('',#503,#497,#36,.T.);
#388=EDGE_CURVE('',#496,#502,#37,.F.);
#389=EDGE_CURVE('',#504,#498,#38,.T.);
#390=EDGE_CURVE('',#504,#505,#592,.T.);
#391=EDGE_CURVE('',#499,#505,#39,.T.);
#392=EDGE_CURVE('',#506,#507,#40,.T.);
#393=EDGE_CURVE('',#506,#508,#593,.T.);
#394=EDGE_CURVE('',#508,#509,#41,.T.);
#395=EDGE_CURVE('',#507,#509,#594,.T.);
#396=EDGE_CURVE('',#510,#511,#595,.T.);
#397=EDGE_CURVE('',#510,#512,#42,.T.);
#398=EDGE_CURVE('',#512,#513,#596,.T.);
#399=EDGE_CURVE('',#511,#513,#43,.T.);
#400=EDGE_CURVE('',#514,#515,#44,.T.);
#401=EDGE_CURVE('',#516,#514,#597,.T.);
#402=EDGE_CURVE('',#516,#517,#45,.F.);
#403=EDGE_CURVE('',#517,#515,#598,.T.);
#404=EDGE_CURVE('',#467,#506,#599,.T.);
#405=EDGE_CURVE('',#468,#508,#600,.T.);
#406=EDGE_CURVE('',#512,#469,#601,.T.);
#407=EDGE_CURVE('',#513,#470,#602,.T.);
#408=EDGE_CURVE('',#515,#471,#603,.T.);
#409=EDGE_CURVE('',#517,#472,#604,.T.);
#410=EDGE_CURVE('',#475,#449,#46,.F.);
#411=EDGE_CURVE('',#493,#450,#47,.F.);
#412=EDGE_CURVE('',#451,#490,#48,.F.);
#413=EDGE_CURVE('',#452,#489,#49,.F.);
#414=EDGE_CURVE('',#454,#477,#50,.F.);
#415=EDGE_CURVE('',#478,#453,#51,.F.);
#416=EDGE_CURVE('',#484,#457,#52,.F.);
#417=EDGE_CURVE('',#483,#458,#53,.F.);
#418=EDGE_CURVE('',#459,#480,#54,.F.);
#419=EDGE_CURVE('',#461,#479,#55,.F.);
#420=EDGE_CURVE('',#464,#487,#56,.F.);
#421=EDGE_CURVE('',#488,#463,#57,.F.);
#422=EDGE_CURVE('',#505,#511,#605,.T.);
#423=EDGE_CURVE('',#502,#516,#606,.T.);
#424=EDGE_CURVE('',#518,#518,#58,.F.);
#425=EDGE_CURVE('',#514,#507,#607,.T.);
#426=EDGE_CURVE('',#509,#510,#608,.T.);
#427=EDGE_CURVE('',#500,#504,#609,.T.);
#428=EDGE_CURVE('',#503,#501,#610,.T.);
#429=EDGE_CURVE('',#510,#481,#611,.T.);
#430=EDGE_CURVE('',#509,#482,#612,.T.);
#431=EDGE_CURVE('',#507,#485,#613,.T.);
#432=EDGE_CURVE('',#514,#486,#614,.T.);
#433=EDGE_CURVE('',#503,#491,#615,.T.);
#434=EDGE_CURVE('',#501,#492,#616,.T.);
#435=EDGE_CURVE('',#500,#474,#617,.T.);
#436=EDGE_CURVE('',#504,#476,#618,.T.);
#437=VERTEX_POINT('',#1237);
#438=VERTEX_POINT('',#1238);
#439=VERTEX_POINT('',#1240);
#440=VERTEX_POINT('',#1242);
#441=VERTEX_POINT('',#1246);
#442=VERTEX_POINT('',#1247);
#443=VERTEX_POINT('',#1249);
#444=VERTEX_POINT('',#1251);
#445=VERTEX_POINT('',#1255);
#446=VERTEX_POINT('',#1256);
#447=VERTEX_POINT('',#1258);
#448=VERTEX_POINT('',#1260);
#449=VERTEX_POINT('',#1264);
#450=VERTEX_POINT('',#1266);
#451=VERTEX_POINT('',#1270);
#452=VERTEX_POINT('',#1272);
#453=VERTEX_POINT('',#1276);
#454=VERTEX_POINT('',#1277);
#455=VERTEX_POINT('',#1282);
#456=VERTEX_POINT('',#1283);
#457=VERTEX_POINT('',#1285);
#458=VERTEX_POINT('',#1287);
#459=VERTEX_POINT('',#1291);
#460=VERTEX_POINT('',#1292);
#461=VERTEX_POINT('',#1294);
#462=VERTEX_POINT('',#1296);
#463=VERTEX_POINT('',#1300);
#464=VERTEX_POINT('',#1301);
#465=VERTEX_POINT('',#1303);
#466=VERTEX_POINT('',#1305);
#467=VERTEX_POINT('',#1309);
#468=VERTEX_POINT('',#1311);
#469=VERTEX_POINT('',#1315);
#470=VERTEX_POINT('',#1316);
#471=VERTEX_POINT('',#1321);
#472=VERTEX_POINT('',#1323);
#473=VERTEX_POINT('',#1327);
#474=VERTEX_POINT('',#1329);
#475=VERTEX_POINT('',#1330);
#476=VERTEX_POINT('',#1332);
#477=VERTEX_POINT('',#1334);
#478=VERTEX_POINT('',#1336);
#479=VERTEX_POINT('',#1338);
#480=VERTEX_POINT('',#1340);
#481=VERTEX_POINT('',#1342);
#482=VERTEX_POINT('',#1344);
#483=VERTEX_POINT('',#1346);
#484=VERTEX_POINT('',#1348);
#485=VERTEX_POINT('',#1350);
#486=VERTEX_POINT('',#1352);
#487=VERTEX_POINT('',#1354);
#488=VERTEX_POINT('',#1356);
#489=VERTEX_POINT('',#1358);
#490=VERTEX_POINT('',#1360);
#491=VERTEX_POINT('',#1362);
#492=VERTEX_POINT('',#1364);
#493=VERTEX_POINT('',#1366);
#494=VERTEX_POINT('',#1370);
#495=VERTEX_POINT('',#1372);
#496=VERTEX_POINT('',#1376);
#497=VERTEX_POINT('',#1377);
#498=VERTEX_POINT('',#1382);
#499=VERTEX_POINT('',#1384);
#500=VERTEX_POINT('',#1388);
#501=VERTEX_POINT('',#1390);
#502=VERTEX_POINT('',#1394);
#503=VERTEX_POINT('',#1395);
#504=VERTEX_POINT('',#1400);
#505=VERTEX_POINT('',#1402);
#506=VERTEX_POINT('',#1406);
#507=VERTEX_POINT('',#1407);
#508=VERTEX_POINT('',#1409);
#509=VERTEX_POINT('',#1411);
#510=VERTEX_POINT('',#1415);
#511=VERTEX_POINT('',#1416);
#512=VERTEX_POINT('',#1418);
#513=VERTEX_POINT('',#1420);
#514=VERTEX_POINT('',#1424);
#515=VERTEX_POINT('',#1425);
#516=VERTEX_POINT('',#1427);
#517=VERTEX_POINT('',#1429);
#518=VERTEX_POINT('',#1464);
#519=LINE('',#1236,#619);
#520=LINE('',#1239,#620);
#521=LINE('',#1241,#621);
#522=LINE('',#1243,#622);
#523=LINE('',#1245,#623);
#524=LINE('',#1248,#624);
#525=LINE('',#1250,#625);
#526=LINE('',#1252,#626);
#527=LINE('',#1254,#627);
#528=LINE('',#1257,#628);
#529=LINE('',#1259,#629);
#530=LINE('',#1261,#630);
#531=LINE('',#1263,#631);
#532=LINE('',#1265,#632);
#533=LINE('',#1267,#633);
#534=LINE('',#1269,#634);
#535=LINE('',#1271,#635);
#536=LINE('',#1273,#636);
#537=LINE('',#1275,#637);
#538=LINE('',#1278,#638);
#539=LINE('',#1279,#639);
#540=LINE('',#1281,#640);
#541=LINE('',#1284,#641);
#542=LINE('',#1286,#642);
#543=LINE('',#1288,#643);
#544=LINE('',#1290,#644);
#545=LINE('',#1293,#645);
#546=LINE('',#1295,#646);
#547=LINE('',#1297,#647);
#548=LINE('',#1299,#648);
#549=LINE('',#1302,#649);
#550=LINE('',#1304,#650);
#551=LINE('',#1306,#651);
#552=LINE('',#1308,#652);
#553=LINE('',#1310,#653);
#554=LINE('',#1312,#654);
#555=LINE('',#1314,#655);
#556=LINE('',#1317,#656);
#557=LINE('',#1318,#657);
#558=LINE('',#1320,#658);
#559=LINE('',#1322,#659);
#560=LINE('',#1324,#660);
#561=LINE('',#1328,#661);
#562=LINE('',#1331,#662);
#563=LINE('',#1333,#663);
#564=LINE('',#1335,#664);
#565=LINE('',#1337,#665);
#566=LINE('',#1339,#666);
#567=LINE('',#1341,#667);
#568=LINE('',#1343,#668);
#569=LINE('',#1345,#669);
#570=LINE('',#1347,#670);
#571=LINE('',#1349,#671);
#572=LINE('',#1351,#672);
#573=LINE('',#1353,#673);
#574=LINE('',#1355,#674);
#575=LINE('',#1357,#675);
#576=LINE('',#1359,#676);
#577=LINE('',#1361,#677);
#578=LINE('',#1363,#678);
#579=LINE('',#1365,#679);
#580=LINE('',#1367,#680);
#581=LINE('',#1369,#681);
#582=LINE('',#1371,#682);
#583=LINE('',#1373,#683);
#584=LINE('',#1375,#684);
#585=LINE('',#1378,#685);
#586=LINE('',#1379,#686);
#587=LINE('',#1381,#687);
#588=LINE('',#1383,#688);
#589=LINE('',#1385,#689);
#590=LINE('',#1391,#690);
#591=LINE('',#1393,#691);
#592=LINE('',#1401,#692);
#593=LINE('',#1408,#693);
#594=LINE('',#1412,#694);
#595=LINE('',#1414,#695);
#596=LINE('',#1419,#696);
#597=LINE('',#1426,#697);
#598=LINE('',#1430,#698);
#599=LINE('',#1432,#699);
#600=LINE('',#1433,#700);
#601=LINE('',#1435,#701);
#602=LINE('',#1436,#702);
#603=LINE('',#1438,#703);
#604=LINE('',#1439,#704);
#605=LINE('',#1459,#705);
#606=LINE('',#1461,#706);
#607=LINE('',#1465,#707);
#608=LINE('',#1466,#708);
#609=LINE('',#1467,#709);
#610=LINE('',#1468,#710);
#611=LINE('',#1470,#711);
#612=LINE('',#1472,#712);
#613=LINE('',#1475,#713);
#614=LINE('',#1477,#714);
#615=LINE('',#1480,#715);
#616=LINE('',#1482,#716);
#617=LINE('',#1485,#717);
#618=LINE('',#1487,#718);
#619=VECTOR('',#990,1000.);
#620=VECTOR('',#991,1000.);
#621=VECTOR('',#992,1000.);
#622=VECTOR('',#993,1000.);
#623=VECTOR('',#996,1000.);
#624=VECTOR('',#997,1000.);
#625=VECTOR('',#998,1000.);
#626=VECTOR('',#999,1000.);
#627=VECTOR('',#1002,1000.);
#628=VECTOR('',#1003,1000.);
#629=VECTOR('',#1004,1000.);
#630=VECTOR('',#1005,1000.);
#631=VECTOR('',#1008,1000.);
#632=VECTOR('',#1009,1000.);
#633=VECTOR('',#1010,1000.);
#634=VECTOR('',#1013,1000.);
#635=VECTOR('',#1014,1000.);
#636=VECTOR('',#1015,1000.);
#637=VECTOR('',#1018,1000.);
#638=VECTOR('',#1019,1000.);
#639=VECTOR('',#1020,1000.);
#640=VECTOR('',#1023,1000.);
#641=VECTOR('',#1024,1000.);
#642=VECTOR('',#1025,1000.);
#643=VECTOR('',#1026,1000.);
#644=VECTOR('',#1029,1000.);
#645=VECTOR('',#1030,1000.);
#646=VECTOR('',#1031,1000.);
#647=VECTOR('',#1032,1000.);
#648=VECTOR('',#1035,1000.);
#649=VECTOR('',#1036,1000.);
#650=VECTOR('',#1037,1000.);
#651=VECTOR('',#1038,1000.);
#652=VECTOR('',#1041,1000.);
#653=VECTOR('',#1042,1000.);
#654=VECTOR('',#1043,1000.);
#655=VECTOR('',#1046,1000.);
#656=VECTOR('',#1047,1000.);
#657=VECTOR('',#1048,1000.);
#658=VECTOR('',#1051,1000.);
#659=VECTOR('',#1052,1000.);
#660=VECTOR('',#1053,1000.);
#661=VECTOR('',#1058,1000.);
#662=VECTOR('',#1059,1000.);
#663=VECTOR('',#1060,1000.);
#664=VECTOR('',#1061,1000.);
#665=VECTOR('',#1062,1000.);
#666=VECTOR('',#1063,1000.);
#667=VECTOR('',#1064,1000.);
#668=VECTOR('',#1065,1000.);
#669=VECTOR('',#1066,1000.);
#670=VECTOR('',#1067,1000.);
#671=VECTOR('',#1068,1000.);
#672=VECTOR('',#1069,1000.);
#673=VECTOR('',#1070,1000.);
#674=VECTOR('',#1071,1000.);
#675=VECTOR('',#1072,1000.);
#676=VECTOR('',#1073,1000.);
#677=VECTOR('',#1074,1000.);
#678=VECTOR('',#1075,1000.);
#679=VECTOR('',#1076,1000.);
#680=VECTOR('',#1077,1000.);
#681=VECTOR('',#1080,1000.);
#682=VECTOR('',#1081,1000.);
#683=VECTOR('',#1082,1000.);
#684=VECTOR('',#1085,1000.);
#685=VECTOR('',#1086,1000.);
#686=VECTOR('',#1087,1000.);
#687=VECTOR('',#1090,1000.);
#688=VECTOR('',#1091,1000.);
#689=VECTOR('',#1092,1000.);
#690=VECTOR('',#1099,1000.);
#691=VECTOR('',#1102,1000.);
#692=VECTOR('',#1111,1000.);
#693=VECTOR('',#1118,1000.);
#694=VECTOR('',#1121,1000.);
#695=VECTOR('',#1124,1000.);
#696=VECTOR('',#1127,1000.);
#697=VECTOR('',#1134,1000.);
#698=VECTOR('',#1137,1000.);
#699=VECTOR('',#1140,1000.);
#700=VECTOR('',#1141,1000.);
#701=VECTOR('',#1144,1000.);
#702=VECTOR('',#1145,1000.);
#703=VECTOR('',#1148,1000.);
#704=VECTOR('',#1149,1000.);
#705=VECTOR('',#1188,1000.);
#706=VECTOR('',#1191,1000.);
#707=VECTOR('',#1196,1000.);
#708=VECTOR('',#1197,1000.);
#709=VECTOR('',#1198,1000.);
#710=VECTOR('',#1199,1000.);
#711=VECTOR('',#1202,1000.);
#712=VECTOR('',#1205,1000.);
#713=VECTOR('',#1210,1000.);
#714=VECTOR('',#1213,1000.);
#715=VECTOR('',#1218,1000.);
#716=VECTOR('',#1221,1000.);
#717=VECTOR('',#1226,1000.);
#718=VECTOR('',#1229,1000.);
#719=EDGE_LOOP('',(#59,#60,#61,#62));
#720=EDGE_LOOP('',(#63,#64,#65,#66));
#721=EDGE_LOOP('',(#67,#68,#69,#70));
#722=EDGE_LOOP('',(#71,#72,#73,#74));
#723=EDGE_LOOP('',(#75,#76,#77,#78));
#724=EDGE_LOOP('',(#79,#80,#81,#82));
#725=EDGE_LOOP('',(#83,#84,#85,#86));
#726=EDGE_LOOP('',(#87,#88,#89,#90));
#727=EDGE_LOOP('',(#91,#92,#93,#94));
#728=EDGE_LOOP('',(#95,#96,#97,#98));
#729=EDGE_LOOP('',(#99,#100,#101,#102));
#730=EDGE_LOOP('',(#103,#104,#105,#106));
#731=EDGE_LOOP('',(#107));
#732=EDGE_LOOP('',(#108,#109,#110,#111,#112,#113,#114,#115,#116,#117,#118,
#119,#120,#121,#122,#123,#124,#125,#126,#127));
#733=EDGE_LOOP('',(#128,#129,#130,#131));
#734=EDGE_LOOP('',(#132,#133,#134,#135));
#735=EDGE_LOOP('',(#136,#137,#138,#139));
#736=EDGE_LOOP('',(#140,#141,#142,#143));
#737=EDGE_LOOP('',(#144,#145,#146,#147));
#738=EDGE_LOOP('',(#148,#149,#150,#151));
#739=EDGE_LOOP('',(#152,#153,#154,#155));
#740=EDGE_LOOP('',(#156,#157,#158,#159));
#741=EDGE_LOOP('',(#160,#161,#162,#163));
#742=EDGE_LOOP('',(#164,#165,#166,#167));
#743=EDGE_LOOP('',(#168,#169,#170,#171));
#744=EDGE_LOOP('',(#172,#173,#174,#175));
#745=EDGE_LOOP('',(#176,#177,#178,#179));
#746=EDGE_LOOP('',(#180,#181,#182,#183));
#747=EDGE_LOOP('',(#184,#185,#186,#187));
#748=EDGE_LOOP('',(#188,#189,#190,#191));
#749=EDGE_LOOP('',(#192,#193,#194,#195));
#750=EDGE_LOOP('',(#196,#197,#198,#199));
#751=EDGE_LOOP('',(#200,#201,#202,#203,#204,#205,#206,#207,#208,#209,#210,
#211));
#752=EDGE_LOOP('',(#212,#213,#214,#215,#216,#217,#218,#219,#220,#221,#222,
#223));
#753=EDGE_LOOP('',(#224));
#754=EDGE_LOOP('',(#225,#226,#227,#228,#229,#230,#231,#232,#233,#234,#235,
#236));
#755=EDGE_LOOP('',(#237,#238,#239,#240,#241,#242,#243));
#756=EDGE_LOOP('',(#244,#245,#246,#247));
#757=EDGE_LOOP('',(#248,#249,#250,#251,#252,#253,#254));
#758=EDGE_LOOP('',(#255,#256,#257,#258,#259,#260,#261));
#759=EDGE_LOOP('',(#262,#263,#264,#265,#266,#267,#268));
#760=EDGE_LOOP('',(#269,#270,#271,#272));
#761=EDGE_LOOP('',(#273,#274,#275,#276,#277,#278,#279));
#762=EDGE_LOOP('',(#280,#281,#282,#283));
#763=EDGE_LOOP('',(#284,#285,#286,#287,#288,#289,#290));
#764=EDGE_LOOP('',(#291,#292,#293,#294,#295,#296,#297));
#765=EDGE_LOOP('',(#298,#299,#300,#301,#302,#303,#304));
#766=EDGE_LOOP('',(#305,#306,#307,#308));
#767=EDGE_LOOP('',(#309));
#768=EDGE_LOOP('',(#310));
#769=FACE_BOUND('',#719,.T.);
#770=FACE_BOUND('',#720,.T.);
#771=FACE_BOUND('',#721,.T.);
#772=FACE_BOUND('',#722,.T.);
#773=FACE_BOUND('',#723,.T.);
#774=FACE_BOUND('',#724,.T.);
#775=FACE_BOUND('',#725,.T.);
#776=FACE_BOUND('',#726,.T.);
#777=FACE_BOUND('',#727,.T.);
#778=FACE_BOUND('',#728,.T.);
#779=FACE_BOUND('',#729,.T.);
#780=FACE_BOUND('',#730,.T.);
#781=FACE_BOUND('',#731,.T.);
#782=FACE_BOUND('',#732,.T.);
#783=FACE_BOUND('',#733,.T.);
#784=FACE_BOUND('',#734,.T.);
#785=FACE_BOUND('',#735,.T.);
#786=FACE_BOUND('',#736,.T.);
#787=FACE_BOUND('',#737,.T.);
#788=FACE_BOUND('',#738,.T.);
#789=FACE_BOUND('',#739,.T.);
#790=FACE_BOUND('',#740,.T.);
#791=FACE_BOUND('',#741,.T.);
#792=FACE_BOUND('',#742,.T.);
#793=FACE_BOUND('',#743,.T.);
#794=FACE_BOUND('',#744,.T.);
#795=FACE_BOUND('',#745,.T.);
#796=FACE_BOUND('',#746,.T.);
#797=FACE_BOUND('',#747,.T.);
#798=FACE_BOUND('',#748,.T.);
#799=FACE_BOUND('',#749,.T.);
#800=FACE_BOUND('',#750,.T.);
#801=FACE_BOUND('',#751,.T.);
#802=FACE_BOUND('',#752,.T.);
#803=FACE_BOUND('',#753,.T.);
#804=FACE_BOUND('',#754,.T.);
#805=FACE_BOUND('',#755,.T.);
#806=FACE_BOUND('',#756,.T.);
#807=FACE_BOUND('',#757,.T.);
#808=FACE_BOUND('',#758,.T.);
#809=FACE_BOUND('',#759,.T.);
#810=FACE_BOUND('',#760,.T.);
#811=FACE_BOUND('',#761,.T.);
#812=FACE_BOUND('',#762,.T.);
#813=FACE_BOUND('',#763,.T.);
#814=FACE_BOUND('',#764,.T.);
#815=FACE_BOUND('',#765,.T.);
#816=FACE_BOUND('',#766,.T.);
#817=FACE_BOUND('',#767,.T.);
#818=FACE_BOUND('',#768,.T.);
#819=PLANE('',#913);
#820=PLANE('',#914);
#821=PLANE('',#915);
#822=PLANE('',#916);
#823=PLANE('',#917);
#824=PLANE('',#918);
#825=PLANE('',#919);
#826=PLANE('',#920);
#827=PLANE('',#921);
#828=PLANE('',#922);
#829=PLANE('',#923);
#830=PLANE('',#924);
#831=PLANE('',#925);
#832=PLANE('',#927);
#833=PLANE('',#928);
#834=PLANE('',#929);
#835=PLANE('',#948);
#836=PLANE('',#949);
#837=PLANE('',#950);
#838=PLANE('',#969);
#839=PLANE('',#970);
#840=PLANE('',#971);
#841=PLANE('',#973);
#842=PLANE('',#974);
#843=PLANE('',#975);
#844=PLANE('',#976);
#845=PLANE('',#977);
#846=PLANE('',#978);
#847=PLANE('',#979);
#848=PLANE('',#980);
#849=PLANE('',#981);
#850=PLANE('',#982);
#851=PLANE('',#983);
#852=PLANE('',#984);
#853=ADVANCED_FACE('',(#769),#819,.T.);
#854=ADVANCED_FACE('',(#770),#820,.T.);
#855=ADVANCED_FACE('',(#771),#821,.T.);
#856=ADVANCED_FACE('',(#772),#822,.F.);
#857=ADVANCED_FACE('',(#773),#823,.F.);
#858=ADVANCED_FACE('',(#774),#824,.F.);
#859=ADVANCED_FACE('',(#775),#825,.F.);
#860=ADVANCED_FACE('',(#776),#826,.F.);
#861=ADVANCED_FACE('',(#777),#827,.F.);
#862=ADVANCED_FACE('',(#778),#828,.T.);
#863=ADVANCED_FACE('',(#779),#829,.T.);
#864=ADVANCED_FACE('',(#780),#830,.T.);
#865=ADVANCED_FACE('',(#781,#782),#831,.F.);
#866=ADVANCED_FACE('',(#783),#832,.T.);
#867=ADVANCED_FACE('',(#784),#833,.T.);
#868=ADVANCED_FACE('',(#785),#834,.T.);
#869=ADVANCED_FACE('',(#786),#20,.F.);
#870=ADVANCED_FACE('',(#787),#21,.F.);
#871=ADVANCED_FACE('',(#788),#22,.F.);
#872=ADVANCED_FACE('',(#789),#23,.F.);
#873=ADVANCED_FACE('',(#790),#24,.F.);
#874=ADVANCED_FACE('',(#791),#25,.F.);
#875=ADVANCED_FACE('',(#792),#835,.T.);
#876=ADVANCED_FACE('',(#793),#836,.T.);
#877=ADVANCED_FACE('',(#794),#837,.T.);
#878=ADVANCED_FACE('',(#795),#26,.T.);
#879=ADVANCED_FACE('',(#796),#27,.T.);
#880=ADVANCED_FACE('',(#797),#28,.T.);
#881=ADVANCED_FACE('',(#798),#29,.T.);
#882=ADVANCED_FACE('',(#799),#30,.T.);
#883=ADVANCED_FACE('',(#800),#31,.T.);
#884=ADVANCED_FACE('',(#801),#838,.F.);
#885=ADVANCED_FACE('',(#802),#839,.F.);
#886=ADVANCED_FACE('',(#803,#804),#840,.T.);
#887=ADVANCED_FACE('',(#805),#841,.T.);
#888=ADVANCED_FACE('',(#806),#842,.T.);
#889=ADVANCED_FACE('',(#807),#843,.T.);
#890=ADVANCED_FACE('',(#808),#844,.F.);
#891=ADVANCED_FACE('',(#809),#845,.F.);
#892=ADVANCED_FACE('',(#810),#846,.F.);
#893=ADVANCED_FACE('',(#811),#847,.T.);
#894=ADVANCED_FACE('',(#812),#848,.T.);
#895=ADVANCED_FACE('',(#813),#849,.T.);
#896=ADVANCED_FACE('',(#814),#850,.F.);
#897=ADVANCED_FACE('',(#815),#851,.F.);
#898=ADVANCED_FACE('',(#816),#852,.F.);
#899=ADVANCED_FACE('',(#817,#818),#32,.F.);
#900=CLOSED_SHELL('',(#853,#854,#855,#856,#857,#858,#859,#860,#861,#862,
#863,#864,#865,#866,#867,#868,#869,#870,#871,#872,#873,#874,#875,#876,#877,
#878,#879,#880,#881,#882,#883,#884,#885,#886,#887,#888,#889,#890,#891,#892,
#893,#894,#895,#896,#897,#898,#899));
#901=STYLED_ITEM('',(#902),#909);
#902=PRESENTATION_STYLE_ASSIGNMENT((#903));
#903=SURFACE_STYLE_USAGE(.BOTH.,#904);
#904=SURFACE_SIDE_STYLE('',(#905));
#905=SURFACE_STYLE_FILL_AREA(#906);
#906=FILL_AREA_STYLE('',(#907));
#907=FILL_AREA_STYLE_COLOUR('',#908);
#908=COLOUR_RGB('',0.200000002980232,0.200000002980232,0.200000002980232);
#909=MANIFOLD_SOLID_BREP('',#900);
#910=SHAPE_DEFINITION_REPRESENTATION(#1496,#911);
#911=SHAPE_REPRESENTATION('504102B00000G',(#912),#1491);
#912=AXIS2_PLACEMENT_3D('',#1234,#986,#987);
#913=AXIS2_PLACEMENT_3D('',#1235,#988,#989);
#914=AXIS2_PLACEMENT_3D('',#1244,#994,#995);
#915=AXIS2_PLACEMENT_3D('',#1253,#1000,#1001);
#916=AXIS2_PLACEMENT_3D('',#1262,#1006,#1007);
#917=AXIS2_PLACEMENT_3D('',#1268,#1011,#1012);
#918=AXIS2_PLACEMENT_3D('',#1274,#1016,#1017);
#919=AXIS2_PLACEMENT_3D('',#1280,#1021,#1022);
#920=AXIS2_PLACEMENT_3D('',#1289,#1027,#1028);
#921=AXIS2_PLACEMENT_3D('',#1298,#1033,#1034);
#922=AXIS2_PLACEMENT_3D('',#1307,#1039,#1040);
#923=AXIS2_PLACEMENT_3D('',#1313,#1044,#1045);
#924=AXIS2_PLACEMENT_3D('',#1319,#1049,#1050);
#925=AXIS2_PLACEMENT_3D('',#1325,#1054,#1055);
#926=AXIS2_PLACEMENT_3D('',#1326,#1056,#1057);
#927=AXIS2_PLACEMENT_3D('',#1368,#1078,#1079);
#928=AXIS2_PLACEMENT_3D('',#1374,#1083,#1084);
#929=AXIS2_PLACEMENT_3D('',#1380,#1088,#1089);
#930=AXIS2_PLACEMENT_3D('',#1386,#1093,#1094);
#931=AXIS2_PLACEMENT_3D('',#1387,#1095,#1096);
#932=AXIS2_PLACEMENT_3D('',#1389,#1097,#1098);
#933=AXIS2_PLACEMENT_3D('',#1392,#1100,#1101);
#934=AXIS2_PLACEMENT_3D('',#1396,#1103,#1104);
#935=AXIS2_PLACEMENT_3D('',#1397,#1105,#1106);
#936=AXIS2_PLACEMENT_3D('',#1398,#1107,#1108);
#937=AXIS2_PLACEMENT_3D('',#1399,#1109,#1110);
#938=AXIS2_PLACEMENT_3D('',#1403,#1112,#1113);
#939=AXIS2_PLACEMENT_3D('',#1404,#1114,#1115);
#940=AXIS2_PLACEMENT_3D('',#1405,#1116,#1117);
#941=AXIS2_PLACEMENT_3D('',#1410,#1119,#1120);
#942=AXIS2_PLACEMENT_3D('',#1413,#1122,#1123);
#943=AXIS2_PLACEMENT_3D('',#1417,#1125,#1126);
#944=AXIS2_PLACEMENT_3D('',#1421,#1128,#1129);
#945=AXIS2_PLACEMENT_3D('',#1422,#1130,#1131);
#946=AXIS2_PLACEMENT_3D('',#1423,#1132,#1133);
#947=AXIS2_PLACEMENT_3D('',#1428,#1135,#1136);
#948=AXIS2_PLACEMENT_3D('',#1431,#1138,#1139);
#949=AXIS2_PLACEMENT_3D('',#1434,#1142,#1143);
#950=AXIS2_PLACEMENT_3D('',#1437,#1146,#1147);
#951=AXIS2_PLACEMENT_3D('',#1440,#1150,#1151);
#952=AXIS2_PLACEMENT_3D('',#1441,#1152,#1153);
#953=AXIS2_PLACEMENT_3D('',#1442,#1154,#1155);
#954=AXIS2_PLACEMENT_3D('',#1443,#1156,#1157);
#955=AXIS2_PLACEMENT_3D('',#1444,#1158,#1159);
#956=AXIS2_PLACEMENT_3D('',#1445,#1160,#1161);
#957=AXIS2_PLACEMENT_3D('',#1446,#1162,#1163);
#958=AXIS2_PLACEMENT_3D('',#1447,#1164,#1165);
#959=AXIS2_PLACEMENT_3D('',#1448,#1166,#1167);
#960=AXIS2_PLACEMENT_3D('',#1449,#1168,#1169);
#961=AXIS2_PLACEMENT_3D('',#1450,#1170,#1171);
#962=AXIS2_PLACEMENT_3D('',#1451,#1172,#1173);
#963=AXIS2_PLACEMENT_3D('',#1452,#1174,#1175);
#964=AXIS2_PLACEMENT_3D('',#1453,#1176,#1177);
#965=AXIS2_PLACEMENT_3D('',#1454,#1178,#1179);
#966=AXIS2_PLACEMENT_3D('',#1455,#1180,#1181);
#967=AXIS2_PLACEMENT_3D('',#1456,#1182,#1183);
#968=AXIS2_PLACEMENT_3D('',#1457,#1184,#1185);
#969=AXIS2_PLACEMENT_3D('',#1458,#1186,#1187);
#970=AXIS2_PLACEMENT_3D('',#1460,#1189,#1190);
#971=AXIS2_PLACEMENT_3D('',#1462,#1192,#1193);
#972=AXIS2_PLACEMENT_3D('',#1463,#1194,#1195);
#973=AXIS2_PLACEMENT_3D('',#1469,#1200,#1201);
#974=AXIS2_PLACEMENT_3D('',#1471,#1203,#1204);
#975=AXIS2_PLACEMENT_3D('',#1473,#1206,#1207);
#976=AXIS2_PLACEMENT_3D('',#1474,#1208,#1209);
#977=AXIS2_PLACEMENT_3D('',#1476,#1211,#1212);
#978=AXIS2_PLACEMENT_3D('',#1478,#1214,#1215);
#979=AXIS2_PLACEMENT_3D('',#1479,#1216,#1217);
#980=AXIS2_PLACEMENT_3D('',#1481,#1219,#1220);
#981=AXIS2_PLACEMENT_3D('',#1483,#1222,#1223);
#982=AXIS2_PLACEMENT_3D('',#1484,#1224,#1225);
#983=AXIS2_PLACEMENT_3D('',#1486,#1227,#1228);
#984=AXIS2_PLACEMENT_3D('',#1488,#1230,#1231);
#985=AXIS2_PLACEMENT_3D('',#1489,#1232,#1233);
#986=DIRECTION('',(0.,0.,1.));
#987=DIRECTION('',(1.,0.,0.));
#988=DIRECTION('',(0.,0.,1.));
#989=DIRECTION('',(1.,0.,0.));
#990=DIRECTION('',(-1.,0.,0.));
#991=DIRECTION('',(0.,1.,0.));
#992=DIRECTION('',(-1.,0.,0.));
#993=DIRECTION('',(0.,-1.,0.));
#994=DIRECTION('',(0.,0.,1.));
#995=DIRECTION('',(1.,0.,0.));
#996=DIRECTION('',(0.,-1.,0.));
#997=DIRECTION('',(1.,0.,0.));
#998=DIRECTION('',(0.,1.,0.));
#999=DIRECTION('',(-1.,0.,0.));
#1000=DIRECTION('',(0.,0.,1.));
#1001=DIRECTION('',(1.,0.,0.));
#1002=DIRECTION('',(1.,0.,0.));
#1003=DIRECTION('',(0.,-1.,0.));
#1004=DIRECTION('',(1.,0.,0.));
#1005=DIRECTION('',(0.,1.,0.));
#1006=DIRECTION('',(-1.,0.,0.));
#1007=DIRECTION('',(0.,0.,1.));
#1008=DIRECTION('',(0.,0.,-1.));
#1009=DIRECTION('',(0.,1.,0.));
#1010=DIRECTION('',(0.,0.,-1.));
#1011=DIRECTION('',(-1.,0.,0.));
#1012=DIRECTION('',(0.,0.,1.));
#1013=DIRECTION('',(0.,0.,1.));
#1014=DIRECTION('',(0.,1.,0.));
#1015=DIRECTION('',(0.,0.,-1.));
#1016=DIRECTION('',(-1.,0.,0.));
#1017=DIRECTION('',(0.,0.,1.));
#1018=DIRECTION('',(0.,1.,0.));
#1019=DIRECTION('',(0.,0.,1.));
#1020=DIRECTION('',(0.,0.,-1.));
#1021=DIRECTION('',(1.,0.,0.));
#1022=DIRECTION('',(0.,0.,-1.));
#1023=DIRECTION('',(0.,-1.,0.));
#1024=DIRECTION('',(0.,0.,-1.));
#1025=DIRECTION('',(0.,-1.,0.));
#1026=DIRECTION('',(0.,0.,-1.));
#1027=DIRECTION('',(1.,0.,0.));
#1028=DIRECTION('',(0.,0.,-1.));
#1029=DIRECTION('',(0.,0.,1.));
#1030=DIRECTION('',(0.,-1.,0.));
#1031=DIRECTION('',(0.,0.,-1.));
#1032=DIRECTION('',(0.,-1.,0.));
#1033=DIRECTION('',(1.,0.,0.));
#1034=DIRECTION('',(0.,0.,-1.));
#1035=DIRECTION('',(0.,-1.,0.));
#1036=DIRECTION('',(0.,0.,1.));
#1037=DIRECTION('',(0.,-1.,0.));
#1038=DIRECTION('',(0.,0.,-1.));
#1039=DIRECTION('',(0.,0.,1.));
#1040=DIRECTION('',(1.,0.,0.));
#1041=DIRECTION('',(1.,0.,0.));
#1042=DIRECTION('',(1.,0.,0.));
#1043=DIRECTION('',(0.,-1.,0.));
#1044=DIRECTION('',(0.,0.,1.));
#1045=DIRECTION('',(1.,0.,0.));
#1046=DIRECTION('',(0.,-1.,0.));
#1047=DIRECTION('',(-1.,0.,0.));
#1048=DIRECTION('',(1.,0.,0.));
#1049=DIRECTION('',(0.,0.,1.));
#1050=DIRECTION('',(1.,0.,0.));
#1051=DIRECTION('',(-1.,0.,0.));
#1052=DIRECTION('',(0.,-1.,0.));
#1053=DIRECTION('',(-1.,0.,0.));
#1054=DIRECTION('',(0.,0.,1.));
#1055=DIRECTION('',(1.,0.,0.));
#1056=DIRECTION('',(0.,0.,1.));
#1057=DIRECTION('',(1.,0.,0.));
#1058=DIRECTION('',(1.,0.,0.));
#1059=DIRECTION('',(0.,1.,0.));
#1060=DIRECTION('',(-1.,0.,0.));
#1061=DIRECTION('',(0.,1.,0.));
#1062=DIRECTION('',(1.,0.,0.));
#1063=DIRECTION('',(0.,-1.,0.));
#1064=DIRECTION('',(1.,0.,0.));
#1065=DIRECTION('',(0.,1.,0.));
#1066=DIRECTION('',(-1.,0.,0.));
#1067=DIRECTION('',(0.,-1.,0.));
#1068=DIRECTION('',(-1.,0.,0.));
#1069=DIRECTION('',(0.,-1.,0.));
#1070=DIRECTION('',(1.,0.,0.));
#1071=DIRECTION('',(0.,-1.,0.));
#1072=DIRECTION('',(-1.,0.,0.));
#1073=DIRECTION('',(0.,1.,0.));
#1074=DIRECTION('',(-1.,0.,0.));
#1075=DIRECTION('',(0.,-1.,0.));
#1076=DIRECTION('',(1.,0.,0.));
#1077=DIRECTION('',(0.,1.,0.));
#1078=DIRECTION('',(-1.,0.,0.));
#1079=DIRECTION('',(0.,0.,1.));
#1080=DIRECTION('',(0.,0.,-1.));
#1081=DIRECTION('',(0.,0.,-1.));
#1082=DIRECTION('',(0.,-1.,0.));
#1083=DIRECTION('',(-1.,0.,0.));
#1084=DIRECTION('',(0.,0.,1.));
#1085=DIRECTION('',(0.,-1.,0.));
#1086=DIRECTION('',(0.,0.,1.));
#1087=DIRECTION('',(0.,0.,-1.));
#1088=DIRECTION('',(-1.,0.,0.));
#1089=DIRECTION('',(0.,0.,1.));
#1090=DIRECTION('',(0.,0.,1.));
#1091=DIRECTION('',(0.,-1.,0.));
#1092=DIRECTION('',(0.,0.,-1.));
#1093=DIRECTION('',(0.,-1.,0.));
#1094=DIRECTION('',(0.,0.,-1.));
#1095=DIRECTION('',(0.,1.,0.));
#1096=DIRECTION('',(0.,0.,1.));
#1097=DIRECTION('',(0.,1.,0.));
#1098=DIRECTION('',(0.,0.,1.));
#1099=DIRECTION('',(0.,-1.,0.));
#1100=DIRECTION('',(0.,-1.,0.));
#1101=DIRECTION('',(0.,0.,-1.));
#1102=DIRECTION('',(0.,-1.,0.));
#1103=DIRECTION('',(0.,-1.,0.));
#1104=DIRECTION('',(0.,0.,-1.));
#1105=DIRECTION('',(0.,-1.,0.));
#1106=DIRECTION('',(0.,0.,-1.));
#1107=DIRECTION('',(0.,-1.,0.));
#1108=DIRECTION('',(0.,0.,-1.));
#1109=DIRECTION('',(0.,-1.,0.));
#1110=DIRECTION('',(0.,0.,-1.));
#1111=DIRECTION('',(0.,-1.,0.));
#1112=DIRECTION('',(0.,1.,0.));
#1113=DIRECTION('',(1.,0.,0.));
#1114=DIRECTION('',(0.,-1.,0.));
#1115=DIRECTION('',(0.,0.,-1.));
#1116=DIRECTION('',(0.,-1.,0.));
#1117=DIRECTION('',(0.,0.,-1.));
#1118=DIRECTION('',(0.,-1.,0.));
#1119=DIRECTION('',(0.,-1.,0.));
#1120=DIRECTION('',(0.,0.,-1.));
#1121=DIRECTION('',(0.,-1.,0.));
#1122=DIRECTION('',(0.,-1.,0.));
#1123=DIRECTION('',(0.,0.,-1.));
#1124=DIRECTION('',(0.,-1.,0.));
#1125=DIRECTION('',(0.,1.,0.));
#1126=DIRECTION('',(0.,0.,1.));
#1127=DIRECTION('',(0.,-1.,0.));
#1128=DIRECTION('',(0.,1.,0.));
#1129=DIRECTION('',(1.,0.,0.));
#1130=DIRECTION('',(0.,-1.,0.));
#1131=DIRECTION('',(0.,0.,-1.));
#1132=DIRECTION('',(0.,1.,0.));
#1133=DIRECTION('',(0.,0.,1.));
#1134=DIRECTION('',(0.,-1.,0.));
#1135=DIRECTION('',(0.,-1.,0.));
#1136=DIRECTION('',(0.,0.,-1.));
#1137=DIRECTION('',(0.,-1.,0.));
#1138=DIRECTION('',(1.,0.,0.));
#1139=DIRECTION('',(0.,0.,-1.));
#1140=DIRECTION('',(0.,0.,-1.));
#1141=DIRECTION('',(0.,0.,-1.));
#1142=DIRECTION('',(1.,0.,0.));
#1143=DIRECTION('',(0.,0.,-1.));
#1144=DIRECTION('',(0.,0.,1.));
#1145=DIRECTION('',(0.,0.,1.));
#1146=DIRECTION('',(1.,0.,0.));
#1147=DIRECTION('',(0.,0.,-1.));
#1148=DIRECTION('',(0.,0.,1.));
#1149=DIRECTION('',(0.,0.,1.));
#1150=DIRECTION('',(0.,1.,0.));
#1151=DIRECTION('',(0.,0.,1.));
#1152=DIRECTION('',(0.,1.,0.));
#1153=DIRECTION('',(0.,0.,1.));
#1154=DIRECTION('',(0.,1.,0.));
#1155=DIRECTION('',(0.,0.,1.));
#1156=DIRECTION('',(0.,1.,0.));
#1157=DIRECTION('',(0.,0.,1.));
#1158=DIRECTION('',(0.,-1.,0.));
#1159=DIRECTION('',(0.,0.,-1.));
#1160=DIRECTION('',(0.,-1.,0.));
#1161=DIRECTION('',(0.,0.,-1.));
#1162=DIRECTION('',(0.,1.,0.));
#1163=DIRECTION('',(0.,0.,1.));
#1164=DIRECTION('',(0.,-1.,0.));
#1165=DIRECTION('',(0.,0.,-1.));
#1166=DIRECTION('',(0.,1.,0.));
#1167=DIRECTION('',(0.,0.,1.));
#1168=DIRECTION('',(0.,-1.,0.));
#1169=DIRECTION('',(0.,0.,-1.));
#1170=DIRECTION('',(0.,-1.,0.));
#1171=DIRECTION('',(0.,0.,-1.));
#1172=DIRECTION('',(0.,-1.,0.));
#1173=DIRECTION('',(0.,0.,-1.));
#1174=DIRECTION('',(0.,-1.,0.));
#1175=DIRECTION('',(0.,0.,-1.));
#1176=DIRECTION('',(0.,1.,0.));
#1177=DIRECTION('',(0.,0.,1.));
#1178=DIRECTION('',(0.,1.,0.));
#1179=DIRECTION('',(0.,0.,1.));
#1180=DIRECTION('',(0.,-1.,0.));
#1181=DIRECTION('',(0.,0.,-1.));
#1182=DIRECTION('',(0.,1.,0.));
#1183=DIRECTION('',(0.,0.,1.));
#1184=DIRECTION('',(0.,-1.,0.));
#1185=DIRECTION('',(0.,0.,-1.));
#1186=DIRECTION('',(0.,1.,0.));
#1187=DIRECTION('',(0.,0.,1.));
#1188=DIRECTION('',(-1.,0.,0.));
#1189=DIRECTION('',(0.,-1.,0.));
#1190=DIRECTION('',(0.,0.,-1.));
#1191=DIRECTION('',(-1.,0.,0.));
#1192=DIRECTION('',(0.,0.,1.));
#1193=DIRECTION('',(1.,0.,0.));
#1194=DIRECTION('',(0.,0.,1.));
#1195=DIRECTION('',(1.,0.,0.));
#1196=DIRECTION('',(0.,-1.,0.));
#1197=DIRECTION('',(0.,-1.,0.));
#1198=DIRECTION('',(0.,-1.,0.));
#1199=DIRECTION('',(0.,-1.,0.));
#1200=DIRECTION('',(0.,1.,0.));
#1201=DIRECTION('',(0.,0.,1.));
#1202=DIRECTION('',(0.,0.,-1.));
#1203=DIRECTION('',(-1.,0.,0.));
#1204=DIRECTION('',(0.,0.,1.));
#1205=DIRECTION('',(0.,0.,-1.));
#1206=DIRECTION('',(0.,-1.,0.));
#1207=DIRECTION('',(0.,0.,-1.));
#1208=DIRECTION('',(0.,-1.,0.));
#1209=DIRECTION('',(0.,0.,-1.));
#1210=DIRECTION('',(0.,0.,-1.));
#1211=DIRECTION('',(0.,1.,0.));
#1212=DIRECTION('',(0.,0.,1.));
#1213=DIRECTION('',(0.,0.,-1.));
#1214=DIRECTION('',(1.,0.,0.));
#1215=DIRECTION('',(0.,0.,-1.));
#1216=DIRECTION('',(0.,-1.,0.));
#1217=DIRECTION('',(0.,0.,-1.));
#1218=DIRECTION('',(0.,0.,-1.));
#1219=DIRECTION('',(1.,0.,0.));
#1220=DIRECTION('',(0.,0.,-1.));
#1221=DIRECTION('',(0.,0.,-1.));
#1222=DIRECTION('',(0.,1.,0.));
#1223=DIRECTION('',(0.,0.,1.));
#1224=DIRECTION('',(0.,1.,0.));
#1225=DIRECTION('',(0.,0.,1.));
#1226=DIRECTION('',(0.,0.,-1.));
#1227=DIRECTION('',(0.,-1.,0.));
#1228=DIRECTION('',(0.,0.,-1.));
#1229=DIRECTION('',(0.,0.,-1.));
#1230=DIRECTION('',(-1.,0.,0.));
#1231=DIRECTION('',(0.,0.,1.));
#1232=DIRECTION('',(0.,0.,-1.));
#1233=DIRECTION('',(-1.,0.,0.));
#1234=CARTESIAN_POINT('',(0.,0.,0.));
#1235=CARTESIAN_POINT('',(0.,0.,21.6));
#1236=CARTESIAN_POINT('',(0.,-2.42813686708861,21.6));
#1237=CARTESIAN_POINT('',(9.9,-2.42813686708861,21.6));
#1238=CARTESIAN_POINT('',(8.73543583628199,-2.42813686708861,21.6));
#1239=CARTESIAN_POINT('',(9.9,-8.9,21.6));
#1240=CARTESIAN_POINT('',(9.9,2.42813686708861,21.6));
#1241=CARTESIAN_POINT('',(0.,2.42813686708861,21.6));
#1242=CARTESIAN_POINT('',(8.73543583628199,2.42813686708861,21.6));
#1243=CARTESIAN_POINT('',(8.73543583628199,20.3133090144926,21.6));
#1244=CARTESIAN_POINT('',(0.,0.,21.6));
#1245=CARTESIAN_POINT('',(8.73543583628199,20.3133090144926,21.6));
#1246=CARTESIAN_POINT('',(8.73543583628199,8.9,21.6));
#1247=CARTESIAN_POINT('',(8.73543583628199,4.44190268987342,21.6));
#1248=CARTESIAN_POINT('',(0.,4.44190268987342,21.6));
#1249=CARTESIAN_POINT('',(9.9,4.44190268987342,21.6));
#1250=CARTESIAN_POINT('',(9.9,-8.9,21.6));
#1251=CARTESIAN_POINT('',(9.9,8.9,21.6));
#1252=CARTESIAN_POINT('',(9.9,8.9,21.6));
#1253=CARTESIAN_POINT('',(0.,0.,21.6));
#1254=CARTESIAN_POINT('',(0.,-4.44190268987342,21.6));
#1255=CARTESIAN_POINT('',(8.73543583628199,-4.44190268987342,21.6));
#1256=CARTESIAN_POINT('',(9.9,-4.44190268987342,21.6));
#1257=CARTESIAN_POINT('',(8.73543583628199,20.3133090144926,21.6));
#1258=CARTESIAN_POINT('',(8.73543583628199,-8.9,21.6));
#1259=CARTESIAN_POINT('',(-9.9,-8.9,21.6));
#1260=CARTESIAN_POINT('',(9.9,-8.9,21.6));
#1261=CARTESIAN_POINT('',(9.9,-8.9,21.6));
#1262=CARTESIAN_POINT('',(9.9,-8.9,21.6));
#1263=CARTESIAN_POINT('',(9.9,-2.42813686708861,21.6));
#1264=CARTESIAN_POINT('',(9.9,-2.42813686708861,1.40000000000001));
#1265=CARTESIAN_POINT('',(9.9,-8.9,1.4));
#1266=CARTESIAN_POINT('',(9.9,2.42813686708861,1.4));
#1267=CARTESIAN_POINT('',(9.9,2.42813686708861,21.6));
#1268=CARTESIAN_POINT('',(9.9,-8.9,21.6));
#1269=CARTESIAN_POINT('',(9.9,4.44190268987342,21.6));
#1270=CARTESIAN_POINT('',(9.9,4.44190268987342,1.40000000000001));
#1271=CARTESIAN_POINT('',(9.9,-8.9,1.4));
#1272=CARTESIAN_POINT('',(9.9,8.9,1.40000000000001));
#1273=CARTESIAN_POINT('',(9.9,8.9,21.6));
#1274=CARTESIAN_POINT('',(9.9,-8.9,21.6));
#1275=CARTESIAN_POINT('',(9.9,-8.9,1.4));
#1276=CARTESIAN_POINT('',(9.9,-8.9,1.40000000000001));
#1277=CARTESIAN_POINT('',(9.9,-4.44190268987342,1.4));
#1278=CARTESIAN_POINT('',(9.9,-4.44190268987342,21.6));
#1279=CARTESIAN_POINT('',(9.9,-8.9,21.6));
#1280=CARTESIAN_POINT('',(-9.9,8.9,21.6));
#1281=CARTESIAN_POINT('',(-9.9,8.9,21.6));
#1282=CARTESIAN_POINT('',(-9.9,2.42813686708861,21.6));
#1283=CARTESIAN_POINT('',(-9.9,-2.42813686708861,21.6));
#1284=CARTESIAN_POINT('',(-9.9,2.42813686708861,21.6));
#1285=CARTESIAN_POINT('',(-9.9,2.42813686708861,1.40000000000001));
#1286=CARTESIAN_POINT('',(-9.9,8.9,1.4));
#1287=CARTESIAN_POINT('',(-9.9,-2.42813686708861,1.4));
#1288=CARTESIAN_POINT('',(-9.9,-2.42813686708861,21.6));
#1289=CARTESIAN_POINT('',(-9.9,8.9,21.6));
#1290=CARTESIAN_POINT('',(-9.9,-4.44190268987342,21.6));
#1291=CARTESIAN_POINT('',(-9.9,-4.44190268987342,1.40000000000001));
#1292=CARTESIAN_POINT('',(-9.9,-4.44190268987342,21.6));
#1293=CARTESIAN_POINT('',(-9.9,8.9,1.4));
#1294=CARTESIAN_POINT('',(-9.9,-8.9,1.40000000000001));
#1295=CARTESIAN_POINT('',(-9.9,-8.9,21.6));
#1296=CARTESIAN_POINT('',(-9.9,-8.9,21.6));
#1297=CARTESIAN_POINT('',(-9.9,8.9,21.6));
#1298=CARTESIAN_POINT('',(-9.9,8.9,21.6));
#1299=CARTESIAN_POINT('',(-9.9,8.9,1.4));
#1300=CARTESIAN_POINT('',(-9.9,8.9,1.40000000000001));
#1301=CARTESIAN_POINT('',(-9.9,4.44190268987342,1.4));
#1302=CARTESIAN_POINT('',(-9.9,4.44190268987342,21.6));
#1303=CARTESIAN_POINT('',(-9.9,4.44190268987342,21.6));
#1304=CARTESIAN_POINT('',(-9.9,8.9,21.6));
#1305=CARTESIAN_POINT('',(-9.9,8.9,21.6));
#1306=CARTESIAN_POINT('',(-9.9,8.9,21.6));
#1307=CARTESIAN_POINT('',(0.,0.,21.6));
#1308=CARTESIAN_POINT('',(0.,2.42813686708861,21.6));
#1309=CARTESIAN_POINT('',(-8.73543583628199,2.42813686708861,21.6));
#1310=CARTESIAN_POINT('',(0.,-2.42813686708861,21.6));
#1311=CARTESIAN_POINT('',(-8.73543583628199,-2.42813686708861,21.6));
#1312=CARTESIAN_POINT('',(-8.73543583628199,20.3133090144926,21.6));
#1313=CARTESIAN_POINT('',(0.,0.,21.6));
#1314=CARTESIAN_POINT('',(-8.73543583628199,20.3133090144926,21.6));
#1315=CARTESIAN_POINT('',(-8.73543583628199,-4.44190268987342,21.6));
#1316=CARTESIAN_POINT('',(-8.73543583628199,-8.9,21.6));
#1317=CARTESIAN_POINT('',(0.,-4.44190268987342,21.6));
#1318=CARTESIAN_POINT('',(-9.9,-8.9,21.6));
#1319=CARTESIAN_POINT('',(0.,0.,21.6));
#1320=CARTESIAN_POINT('',(0.,4.44190268987342,21.6));
#1321=CARTESIAN_POINT('',(-8.73543583628199,4.44190268987342,21.6));
#1322=CARTESIAN_POINT('',(-8.73543583628199,20.3133090144926,21.6));
#1323=CARTESIAN_POINT('',(-8.73543583628199,8.9,21.6));
#1324=CARTESIAN_POINT('',(9.9,8.9,21.6));
#1325=CARTESIAN_POINT('',(0.,0.,0.));
#1326=CARTESIAN_POINT('',(-8.24187295826169E-16,-4.56,0.));
#1327=CARTESIAN_POINT('',(1.83,-4.56,0.));
#1328=CARTESIAN_POINT('',(8.5,-2.42813686708861,0.));
#1329=CARTESIAN_POINT('',(8.23543583628199,-2.42813686708861,0.));
#1330=CARTESIAN_POINT('',(8.5,-2.42813686708861,0.));
#1331=CARTESIAN_POINT('',(8.23543583628199,-4.44190268987342,0.));
#1332=CARTESIAN_POINT('',(8.23543583628199,-4.44190268987342,0.));
#1333=CARTESIAN_POINT('',(8.5,-4.44190268987342,0.));
#1334=CARTESIAN_POINT('',(8.5,-4.44190268987342,0.));
#1335=CARTESIAN_POINT('',(8.5,0.,0.));
#1336=CARTESIAN_POINT('',(8.5,-8.9,0.));
#1337=CARTESIAN_POINT('',(-9.9,-8.9,0.));
#1338=CARTESIAN_POINT('',(-8.5,-8.9,0.));
#1339=CARTESIAN_POINT('',(-8.5,0.,0.));
#1340=CARTESIAN_POINT('',(-8.5,-4.44190268987342,0.));
#1341=CARTESIAN_POINT('',(-8.5,-4.44190268987342,0.));
#1342=CARTESIAN_POINT('',(-8.23543583628199,-4.44190268987342,0.));
#1343=CARTESIAN_POINT('',(-8.23543583628199,-4.44190268987342,0.));
#1344=CARTESIAN_POINT('',(-8.23543583628199,-2.42813686708861,0.));
#1345=CARTESIAN_POINT('',(-8.5,-2.42813686708861,0.));
#1346=CARTESIAN_POINT('',(-8.5,-2.42813686708861,0.));
#1347=CARTESIAN_POINT('',(-8.5,0.,0.));
#1348=CARTESIAN_POINT('',(-8.5,2.42813686708861,0.));
#1349=CARTESIAN_POINT('',(-8.5,2.42813686708861,0.));
#1350=CARTESIAN_POINT('',(-8.23543583628199,2.42813686708861,0.));
#1351=CARTESIAN_POINT('',(-8.23543583628199,4.44190268987342,0.));
#1352=CARTESIAN_POINT('',(-8.23543583628199,4.44190268987342,0.));
#1353=CARTESIAN_POINT('',(-8.5,4.44190268987342,0.));
#1354=CARTESIAN_POINT('',(-8.5,4.44190268987342,0.));
#1355=CARTESIAN_POINT('',(-8.5,0.,0.));
#1356=CARTESIAN_POINT('',(-8.5,8.9,0.));
#1357=CARTESIAN_POINT('',(9.9,8.9,0.));
#1358=CARTESIAN_POINT('',(8.5,8.9,0.));
#1359=CARTESIAN_POINT('',(8.5,0.,0.));
#1360=CARTESIAN_POINT('',(8.5,4.44190268987342,0.));
#1361=CARTESIAN_POINT('',(8.5,4.44190268987342,0.));
#1362=CARTESIAN_POINT('',(8.23543583628199,4.44190268987342,0.));
#1363=CARTESIAN_POINT('',(8.23543583628199,4.44190268987342,0.));
#1364=CARTESIAN_POINT('',(8.23543583628199,2.42813686708861,0.));
#1365=CARTESIAN_POINT('',(8.5,2.42813686708861,0.));
#1366=CARTESIAN_POINT('',(8.5,2.42813686708861,0.));
#1367=CARTESIAN_POINT('',(8.5,0.,0.));
#1368=CARTESIAN_POINT('',(8.73543583628199,20.3133090144926,21.6));
#1369=CARTESIAN_POINT('',(8.73543583628199,-2.42813686708861,21.6));
#1370=CARTESIAN_POINT('',(8.73543583628199,-2.42813686708861,1.67315865406013));
#1371=CARTESIAN_POINT('',(8.73543583628199,2.42813686708861,21.6));
#1372=CARTESIAN_POINT('',(8.73543583628199,2.42813686708861,1.67315865406013));
#1373=CARTESIAN_POINT('',(8.73543583628199,20.3133090144926,1.67315865406013));
#1374=CARTESIAN_POINT('',(8.73543583628199,20.3133090144926,21.6));
#1375=CARTESIAN_POINT('',(8.73543583628199,20.3133090144926,1.67315865406013));
#1376=CARTESIAN_POINT('',(8.73543583628199,8.9,1.67315865406013));
#1377=CARTESIAN_POINT('',(8.73543583628199,4.44190268987342,1.67315865406013));
#1378=CARTESIAN_POINT('',(8.73543583628199,4.44190268987342,21.6));
#1379=CARTESIAN_POINT('',(8.73543583628199,8.9,21.6));
#1380=CARTESIAN_POINT('',(8.73543583628199,20.3133090144926,21.6));
#1381=CARTESIAN_POINT('',(8.73543583628199,-4.44190268987342,21.6));
#1382=CARTESIAN_POINT('',(8.73543583628199,-4.44190268987342,1.67315865406013));
#1383=CARTESIAN_POINT('',(8.73543583628199,20.3133090144926,1.67315865406013));
#1384=CARTESIAN_POINT('',(8.73543583628199,-8.9,1.67315865406013));
#1385=CARTESIAN_POINT('',(8.73543583628199,-8.9,21.6));
#1386=CARTESIAN_POINT('',(8.23543583628199,20.3133090144926,1.67315865406013));
#1387=CARTESIAN_POINT('',(8.23543583628199,-2.42813686708861,1.67315865406013));
#1388=CARTESIAN_POINT('',(8.23543583628199,-2.42813686708861,1.17315865406013));
#1389=CARTESIAN_POINT('',(8.23543583628199,2.42813686708861,1.67315865406013));
#1390=CARTESIAN_POINT('',(8.23543583628199,2.42813686708861,1.17315865406013));
#1391=CARTESIAN_POINT('',(8.23543583628199,20.3133090144926,1.17315865406013));
#1392=CARTESIAN_POINT('',(8.23543583628199,20.3133090144926,1.67315865406013));
#1393=CARTESIAN_POINT('',(8.23543583628199,20.3133090144926,1.17315865406013));
#1394=CARTESIAN_POINT('',(8.23543583628199,8.9,1.17315865406013));
#1395=CARTESIAN_POINT('',(8.23543583628199,4.44190268987342,1.17315865406013));
#1396=CARTESIAN_POINT('',(8.23543583628199,4.44190268987342,1.67315865406013));
#1397=CARTESIAN_POINT('',(8.23543583628199,8.9,1.67315865406013));
#1398=CARTESIAN_POINT('',(8.23543583628199,20.3133090144926,1.67315865406013));
#1399=CARTESIAN_POINT('',(8.23543583628199,-4.44190268987342,1.67315865406013));
#1400=CARTESIAN_POINT('',(8.23543583628199,-4.44190268987342,1.17315865406013));
#1401=CARTESIAN_POINT('',(8.23543583628199,20.3133090144926,1.17315865406013));
#1402=CARTESIAN_POINT('',(8.23543583628199,-8.9,1.17315865406013));
#1403=CARTESIAN_POINT('',(8.23543583628199,-8.9,1.67315865406013));
#1404=CARTESIAN_POINT('',(-8.23543583628199,20.3133090144926,1.67315865406013));
#1405=CARTESIAN_POINT('',(-8.23543583628199,2.42813686708861,1.67315865406013));
#1406=CARTESIAN_POINT('',(-8.73543583628199,2.42813686708861,1.67315865406013));
#1407=CARTESIAN_POINT('',(-8.23543583628199,2.42813686708861,1.17315865406013));
#1408=CARTESIAN_POINT('',(-8.73543583628199,20.3133090144926,1.67315865406013));
#1409=CARTESIAN_POINT('',(-8.73543583628199,-2.42813686708861,1.67315865406013));
#1410=CARTESIAN_POINT('',(-8.23543583628199,-2.42813686708861,1.67315865406013));
#1411=CARTESIAN_POINT('',(-8.23543583628199,-2.42813686708861,1.17315865406013));
#1412=CARTESIAN_POINT('',(-8.23543583628199,20.3133090144926,1.17315865406013));
#1413=CARTESIAN_POINT('',(-8.23543583628199,20.3133090144926,1.67315865406013));
#1414=CARTESIAN_POINT('',(-8.23543583628199,20.3133090144926,1.17315865406013));
#1415=CARTESIAN_POINT('',(-8.23543583628199,-4.44190268987342,1.17315865406013));
#1416=CARTESIAN_POINT('',(-8.23543583628199,-8.9,1.17315865406013));
#1417=CARTESIAN_POINT('',(-8.23543583628199,-4.44190268987342,1.67315865406013));
#1418=CARTESIAN_POINT('',(-8.73543583628199,-4.44190268987342,1.67315865406013));
#1419=CARTESIAN_POINT('',(-8.73543583628199,20.3133090144926,1.67315865406013));
#1420=CARTESIAN_POINT('',(-8.73543583628199,-8.9,1.67315865406013));
#1421=CARTESIAN_POINT('',(-8.23543583628199,-8.9,1.67315865406013));
#1422=CARTESIAN_POINT('',(-8.23543583628199,20.3133090144926,1.67315865406013));
#1423=CARTESIAN_POINT('',(-8.23543583628199,4.44190268987342,1.67315865406013));
#1424=CARTESIAN_POINT('',(-8.23543583628199,4.44190268987342,1.17315865406013));
#1425=CARTESIAN_POINT('',(-8.73543583628199,4.44190268987342,1.67315865406013));
#1426=CARTESIAN_POINT('',(-8.23543583628199,20.3133090144926,1.17315865406013));
#1427=CARTESIAN_POINT('',(-8.23543583628199,8.9,1.17315865406013));
#1428=CARTESIAN_POINT('',(-8.23543583628199,8.9,1.67315865406013));
#1429=CARTESIAN_POINT('',(-8.73543583628199,8.9,1.67315865406013));
#1430=CARTESIAN_POINT('',(-8.73543583628199,20.3133090144926,1.67315865406013));
#1431=CARTESIAN_POINT('',(-8.73543583628199,20.3133090144926,21.6));
#1432=CARTESIAN_POINT('',(-8.73543583628199,2.42813686708861,21.6));
#1433=CARTESIAN_POINT('',(-8.73543583628199,-2.42813686708861,21.6));
#1434=CARTESIAN_POINT('',(-8.73543583628199,20.3133090144926,21.6));
#1435=CARTESIAN_POINT('',(-8.73543583628199,-4.44190268987342,21.6));
#1436=CARTESIAN_POINT('',(-8.73543583628199,-8.9,21.6));
#1437=CARTESIAN_POINT('',(-8.73543583628199,20.3133090144926,21.6));
#1438=CARTESIAN_POINT('',(-8.73543583628199,4.44190268987342,21.6));
#1439=CARTESIAN_POINT('',(-8.73543583628199,8.9,21.6));
#1440=CARTESIAN_POINT('',(8.5,-8.9,1.4));
#1441=CARTESIAN_POINT('',(8.5,-2.42813686708861,1.4));
#1442=CARTESIAN_POINT('',(8.5,2.42813686708861,1.4));
#1443=CARTESIAN_POINT('',(8.5,-8.9,1.4));
#1444=CARTESIAN_POINT('',(8.5,4.44190268987342,1.4));
#1445=CARTESIAN_POINT('',(8.5,8.9,1.4));
#1446=CARTESIAN_POINT('',(8.5,-8.9,1.4));
#1447=CARTESIAN_POINT('',(8.5,-4.44190268987342,1.4));
#1448=CARTESIAN_POINT('',(8.5,-8.9,1.4));
#1449=CARTESIAN_POINT('',(-8.5,8.9,1.4));
#1450=CARTESIAN_POINT('',(-8.5,2.42813686708861,1.4));
#1451=CARTESIAN_POINT('',(-8.5,-2.42813686708861,1.4));
#1452=CARTESIAN_POINT('',(-8.5,8.9,1.4));
#1453=CARTESIAN_POINT('',(-8.5,-4.44190268987342,1.4));
#1454=CARTESIAN_POINT('',(-8.5,-8.9,1.4));
#1455=CARTESIAN_POINT('',(-8.5,8.9,1.4));
#1456=CARTESIAN_POINT('',(-8.5,4.44190268987342,1.4));
#1457=CARTESIAN_POINT('',(-8.5,8.9,1.4));
#1458=CARTESIAN_POINT('',(-9.9,-8.9,21.6));
#1459=CARTESIAN_POINT('',(-8.23543583628199,-8.9,1.17315865406013));
#1460=CARTESIAN_POINT('',(9.9,8.9,21.6));
#1461=CARTESIAN_POINT('',(9.9,8.9,1.17315865406013));
#1462=CARTESIAN_POINT('',(-8.23543583628199,20.3133090144926,1.17315865406013));
#1463=CARTESIAN_POINT('',(-8.24187295826169E-16,-4.56,1.17315865406013));
#1464=CARTESIAN_POINT('',(1.83,-4.56,1.17315865406013));
#1465=CARTESIAN_POINT('',(-8.23543583628199,20.3133090144926,1.17315865406013));
#1466=CARTESIAN_POINT('',(-8.23543583628199,20.3133090144926,1.17315865406013));
#1467=CARTESIAN_POINT('',(8.23543583628199,20.3133090144926,1.17315865406013));
#1468=CARTESIAN_POINT('',(8.23543583628199,20.3133090144926,1.17315865406013));
#1469=CARTESIAN_POINT('',(-8.5,-4.44190268987342,24.6475246621466));
#1470=CARTESIAN_POINT('',(-8.23543583628199,-4.44190268987342,24.6475246621466));
#1471=CARTESIAN_POINT('',(-8.23543583628199,-4.44190268987342,24.6475246621466));
#1472=CARTESIAN_POINT('',(-8.23543583628199,-2.42813686708861,24.6475246621466));
#1473=CARTESIAN_POINT('',(-8.5,-2.42813686708861,24.6475246621466));
#1474=CARTESIAN_POINT('',(-8.5,2.42813686708861,24.6475246621466));
#1475=CARTESIAN_POINT('',(-8.23543583628199,2.42813686708861,24.6475246621466));
#1476=CARTESIAN_POINT('',(-8.5,4.44190268987342,24.6475246621466));
#1477=CARTESIAN_POINT('',(-8.23543583628199,4.44190268987342,24.6475246621466));
#1478=CARTESIAN_POINT('',(-8.23543583628199,4.44190268987342,24.6475246621466));
#1479=CARTESIAN_POINT('',(8.5,4.44190268987342,24.6475246621466));
#1480=CARTESIAN_POINT('',(8.23543583628199,4.44190268987342,24.6475246621466));
#1481=CARTESIAN_POINT('',(8.23543583628199,4.44190268987342,24.6475246621466));
#1482=CARTESIAN_POINT('',(8.23543583628199,2.42813686708861,24.6475246621466));
#1483=CARTESIAN_POINT('',(8.5,2.42813686708861,24.6475246621466));
#1484=CARTESIAN_POINT('',(8.5,-2.42813686708861,24.6475246621466));
#1485=CARTESIAN_POINT('',(8.23543583628199,-2.42813686708861,24.6475246621466));
#1486=CARTESIAN_POINT('',(8.5,-4.44190268987342,24.6475246621466));
#1487=CARTESIAN_POINT('',(8.23543583628199,-4.44190268987342,24.6475246621466));
#1488=CARTESIAN_POINT('',(8.23543583628199,-4.44190268987342,24.6475246621466));
#1489=CARTESIAN_POINT('',(-8.24187295826169E-16,-4.56,13.141889197735));
#1490=MECHANICAL_DESIGN_GEOMETRIC_PRESENTATION_REPRESENTATION('',(#901),
#1491);
#1491=(
GEOMETRIC_REPRESENTATION_CONTEXT(3)
GLOBAL_UNCERTAINTY_ASSIGNED_CONTEXT((#1492))
GLOBAL_UNIT_ASSIGNED_CONTEXT((#1495,#1494,#1493))
REPRESENTATION_CONTEXT('504102B00000G','TOP_LEVEL_ASSEMBLY_PART')
);
#1492=UNCERTAINTY_MEASURE_WITH_UNIT(LENGTH_MEASURE(0.005),#1495,
'DISTANCE_ACCURACY_VALUE','Maximum Tolerance applied to model');
#1493=(
NAMED_UNIT(*)
SI_UNIT($,.STERADIAN.)
SOLID_ANGLE_UNIT()
);
#1494=(
NAMED_UNIT(*)
PLANE_ANGLE_UNIT()
SI_UNIT($,.RADIAN.)
);
#1495=(
LENGTH_UNIT()
NAMED_UNIT(*)
SI_UNIT(.MILLI.,.METRE.)
);
#1496=PRODUCT_DEFINITION_SHAPE('','',#1497);
#1497=PRODUCT_DEFINITION('','',#1499,#1498);
#1498=PRODUCT_DEFINITION_CONTEXT('',#1505,'design');
#1499=PRODUCT_DEFINITION_FORMATION_WITH_SPECIFIED_SOURCE('','',#1501,
 .NOT_KNOWN.);
#1500=PRODUCT_RELATED_PRODUCT_CATEGORY('','',(#1501));
#1501=PRODUCT('504102B00000G','504102B00000G','504102B00000G',(#1503));
#1502=PRODUCT_CATEGORY('','');
#1503=PRODUCT_CONTEXT('',#1505,'mechanical');
#1504=APPLICATION_PROTOCOL_DEFINITION('international standard',
'automotive_design',2010,#1505);
#1505=APPLICATION_CONTEXT(
'core data for automotive mechanical design processes');
ENDSEC;
END-ISO-10303-21;
