%TF.GenerationSoftware,KiCad,Pcbnew,10.0.3*%
%TF.CreationDate,2026-07-10T11:59:44+09:00*%
%TF.ProjectId,ETROC_to_FPGA,4554524f-435f-4746-9f5f-465047412e6b,rev?*%
%TF.SameCoordinates,Original*%
%TF.FileFunction,Paste,Top*%
%TF.FilePolarity,Positive*%
%FSLAX46Y46*%
G04 Gerber Fmt 4.6, Leading zero omitted, Abs format (unit mm)*
G04 Created by KiCad (PCBNEW 10.0.3) date 2026-07-10 11:59:44*
%MOMM*%
%LPD*%
G01*
G04 APERTURE LIST*
G04 Aperture macros list*
%AMRoundRect*
0 Rectangle with rounded corners*
0 $1 Rounding radius*
0 $2 $3 $4 $5 $6 $7 $8 $9 X,Y pos of 4 corners*
0 Add a 4 corners polygon primitive as box body*
4,1,4,$2,$3,$4,$5,$6,$7,$8,$9,$2,$3,0*
0 Add four circle primitives for the rounded corners*
1,1,$1+$1,$2,$3*
1,1,$1+$1,$4,$5*
1,1,$1+$1,$6,$7*
1,1,$1+$1,$8,$9*
0 Add four rect primitives between the rounded corners*
20,1,$1+$1,$2,$3,$4,$5,0*
20,1,$1+$1,$4,$5,$6,$7,0*
20,1,$1+$1,$6,$7,$8,$9,0*
20,1,$1+$1,$8,$9,$2,$3,0*%
G04 Aperture macros list end*
%ADD10RoundRect,0.250000X-0.450000X0.350000X-0.450000X-0.350000X0.450000X-0.350000X0.450000X0.350000X0*%
%ADD11R,0.900000X0.950000*%
%ADD12RoundRect,0.250000X0.475000X-0.337500X0.475000X0.337500X-0.475000X0.337500X-0.475000X-0.337500X0*%
%ADD13RoundRect,0.250000X0.450000X-0.350000X0.450000X0.350000X-0.450000X0.350000X-0.450000X-0.350000X0*%
%ADD14RoundRect,0.250000X0.337500X0.475000X-0.337500X0.475000X-0.337500X-0.475000X0.337500X-0.475000X0*%
%ADD15R,0.838200X1.752600*%
%ADD16R,9.448800X8.737600*%
%ADD17RoundRect,0.250000X0.350000X0.450000X-0.350000X0.450000X-0.350000X-0.450000X0.350000X-0.450000X0*%
%ADD18R,0.300000X0.950000*%
%ADD19R,1.650000X1.400000*%
%ADD20RoundRect,0.250000X-0.350000X-0.450000X0.350000X-0.450000X0.350000X0.450000X-0.350000X0.450000X0*%
G04 APERTURE END LIST*
D10*
%TO.C,R72*%
X48850000Y65500000D03*
X48850000Y63500000D03*
%TD*%
D11*
%TO.C,LED1*%
X-26522500Y36630000D03*
X-24922500Y36630000D03*
%TD*%
D12*
%TO.C,C17*%
X43200000Y34962500D03*
X43200000Y37037500D03*
%TD*%
D10*
%TO.C,R81*%
X54300000Y42000000D03*
X54300000Y40000000D03*
%TD*%
D13*
%TO.C,R3*%
X-18940000Y42600000D03*
X-18940000Y44600000D03*
%TD*%
%TO.C,R57*%
X42800000Y30000000D03*
X42800000Y32000000D03*
%TD*%
D12*
%TO.C,C7*%
X42000000Y58462500D03*
X42000000Y60537500D03*
%TD*%
D13*
%TO.C,R79*%
X51700000Y30000000D03*
X51700000Y32000000D03*
%TD*%
D14*
%TO.C,C1*%
X-18659550Y39930000D03*
X-20734550Y39930000D03*
%TD*%
D10*
%TO.C,R38*%
X42000000Y65500000D03*
X42000000Y63500000D03*
%TD*%
D13*
%TO.C,R76*%
X54700000Y24500000D03*
X54700000Y26500000D03*
%TD*%
%TO.C,R67*%
X49250000Y48000000D03*
X49250000Y50000000D03*
%TD*%
D12*
%TO.C,C22*%
X52100000Y34962500D03*
X52100000Y37037500D03*
%TD*%
D13*
%TO.C,R66*%
X46250000Y48000000D03*
X46250000Y50000000D03*
%TD*%
D12*
%TO.C,C21*%
X48850000Y58462500D03*
X48850000Y60537500D03*
%TD*%
D13*
%TO.C,R78*%
X54700000Y30000000D03*
X54700000Y32000000D03*
%TD*%
D15*
%TO.C,U1*%
X-18050000Y48300000D03*
X-16780000Y48300000D03*
X-15510000Y48300000D03*
X-14240000Y48300000D03*
X-12970000Y48300000D03*
X-11700000Y48300000D03*
X-10430000Y48300000D03*
D16*
X-14240000Y54434100D03*
%TD*%
D12*
%TO.C,C23*%
X54300000Y34962500D03*
X54300000Y37037500D03*
%TD*%
D17*
%TO.C,R25*%
X-18687500Y36640000D03*
X-20687500Y36640000D03*
%TD*%
D13*
%TO.C,R53*%
X42800000Y24500000D03*
X42800000Y26500000D03*
%TD*%
D18*
%TO.C,J5*%
X16250000Y70513000D03*
X16750000Y70513000D03*
X17250000Y70513000D03*
X17750000Y70513000D03*
X18250000Y70513000D03*
X18750000Y70513000D03*
X19250000Y70513000D03*
X19750000Y70513000D03*
X20250000Y70513000D03*
X20750000Y70513000D03*
X21250000Y70513000D03*
X21750000Y70513000D03*
X22250000Y70513000D03*
X22750000Y70513000D03*
X23250000Y70513000D03*
X23750000Y70513000D03*
X24250000Y70513000D03*
X24750000Y70513000D03*
X25250000Y70513000D03*
X25750000Y70513000D03*
X26250000Y70513000D03*
X26750000Y70513000D03*
X27250000Y70513000D03*
X27750000Y70513000D03*
X28250000Y70513000D03*
X28750000Y70513000D03*
X29250000Y70513000D03*
X29750000Y70513000D03*
X30250000Y70513000D03*
X30750000Y70513000D03*
X31250000Y70513000D03*
X31750000Y70513000D03*
X32250000Y70513000D03*
X32750000Y70513000D03*
X33250000Y70513000D03*
X33750000Y70513000D03*
X34250000Y70513000D03*
X34750000Y70513000D03*
X35250000Y70513000D03*
X35750000Y70513000D03*
X36250000Y70513000D03*
X36750000Y70513000D03*
X37250000Y70513000D03*
X37750000Y70513000D03*
X38250000Y70513000D03*
X38750000Y70513000D03*
X39250000Y70513000D03*
X39750000Y70513000D03*
X40250000Y70513000D03*
X40750000Y70513000D03*
X41250000Y70513000D03*
X41750000Y70513000D03*
X42250000Y70513000D03*
X42750000Y70513000D03*
X43250000Y70513000D03*
X43750000Y70513000D03*
X44250000Y70513000D03*
X44750000Y70513000D03*
X45250000Y70513000D03*
X45750000Y70513000D03*
X46250000Y70513000D03*
X46750000Y70513000D03*
X47250000Y70513000D03*
X47750000Y70513000D03*
X48250000Y70513000D03*
X48750000Y70513000D03*
X49250000Y70513000D03*
X49750000Y70513000D03*
X50250000Y70513000D03*
X50750000Y70513000D03*
X51250000Y70513000D03*
X51750000Y70513000D03*
X52250000Y70513000D03*
X52750000Y70513000D03*
X53250000Y70513000D03*
X53750000Y70513000D03*
X54250000Y70513000D03*
X54750000Y70513000D03*
X55250000Y70513000D03*
X55750000Y70513000D03*
D19*
X14175000Y73888000D03*
X57825000Y73888000D03*
%TD*%
D13*
%TO.C,R26*%
X39400000Y48000000D03*
X39400000Y50000000D03*
%TD*%
%TO.C,R54*%
X45800000Y24500000D03*
X45800000Y26500000D03*
%TD*%
D12*
%TO.C,C6*%
X39800000Y58462500D03*
X39800000Y60537500D03*
%TD*%
D18*
%TO.C,J6*%
X16250000Y102513000D03*
X16750000Y102513000D03*
X17250000Y102513000D03*
X17750000Y102513000D03*
X18250000Y102513000D03*
X18750000Y102513000D03*
X19250000Y102513000D03*
X19750000Y102513000D03*
X20250000Y102513000D03*
X20750000Y102513000D03*
X21250000Y102513000D03*
X21750000Y102513000D03*
X22250000Y102513000D03*
X22750000Y102513000D03*
X23250000Y102513000D03*
X23750000Y102513000D03*
X24250000Y102513000D03*
X24750000Y102513000D03*
X25250000Y102513000D03*
X25750000Y102513000D03*
X26250000Y102513000D03*
X26750000Y102513000D03*
X27250000Y102513000D03*
X27750000Y102513000D03*
X28250000Y102513000D03*
X28750000Y102513000D03*
X29250000Y102513000D03*
X29750000Y102513000D03*
X30250000Y102513000D03*
X30750000Y102513000D03*
X31250000Y102513000D03*
X31750000Y102513000D03*
X32250000Y102513000D03*
X32750000Y102513000D03*
X33250000Y102513000D03*
X33750000Y102513000D03*
X34250000Y102513000D03*
X34750000Y102513000D03*
X35250000Y102513000D03*
X35750000Y102513000D03*
X36250000Y102513000D03*
X36750000Y102513000D03*
X37250000Y102513000D03*
X37750000Y102513000D03*
X38250000Y102513000D03*
X38750000Y102513000D03*
X39250000Y102513000D03*
X39750000Y102513000D03*
X40250000Y102513000D03*
X40750000Y102513000D03*
X41250000Y102513000D03*
X41750000Y102513000D03*
X42250000Y102513000D03*
X42750000Y102513000D03*
X43250000Y102513000D03*
X43750000Y102513000D03*
X44250000Y102513000D03*
X44750000Y102513000D03*
X45250000Y102513000D03*
X45750000Y102513000D03*
X46250000Y102513000D03*
X46750000Y102513000D03*
X47250000Y102513000D03*
X47750000Y102513000D03*
X48250000Y102513000D03*
X48750000Y102513000D03*
X49250000Y102513000D03*
X49750000Y102513000D03*
X50250000Y102513000D03*
X50750000Y102513000D03*
X51250000Y102513000D03*
X51750000Y102513000D03*
X52250000Y102513000D03*
X52750000Y102513000D03*
X53250000Y102513000D03*
X53750000Y102513000D03*
X54250000Y102513000D03*
X54750000Y102513000D03*
X55250000Y102513000D03*
X55750000Y102513000D03*
D19*
X14175000Y105888000D03*
X57825000Y105888000D03*
%TD*%
D13*
%TO.C,R56*%
X45800000Y30000000D03*
X45800000Y32000000D03*
%TD*%
D10*
%TO.C,R37*%
X39800000Y65500000D03*
X39800000Y63500000D03*
%TD*%
%TO.C,R11*%
X-10000000Y45750000D03*
X-10000000Y43750000D03*
%TD*%
D13*
%TO.C,R75*%
X51700000Y24500000D03*
X51700000Y26500000D03*
%TD*%
D10*
%TO.C,R80*%
X52100000Y42000000D03*
X52100000Y40000000D03*
%TD*%
D13*
%TO.C,R34*%
X39400000Y53500000D03*
X39400000Y55500000D03*
%TD*%
D14*
%TO.C,C4*%
X-13152500Y43090000D03*
X-15227500Y43090000D03*
%TD*%
D12*
%TO.C,C20*%
X46650000Y58462500D03*
X46650000Y60537500D03*
%TD*%
D10*
%TO.C,R62*%
X43200000Y42000000D03*
X43200000Y40000000D03*
%TD*%
%TO.C,R63*%
X45400000Y42000000D03*
X45400000Y40000000D03*
%TD*%
D14*
%TO.C,C19*%
X57517500Y65500000D03*
X55442500Y65500000D03*
%TD*%
D13*
%TO.C,R70*%
X46250000Y53500000D03*
X46250000Y55500000D03*
%TD*%
D10*
%TO.C,R71*%
X46650000Y65500000D03*
X46650000Y63500000D03*
%TD*%
D13*
%TO.C,R69*%
X49250000Y53500000D03*
X49250000Y55500000D03*
%TD*%
D20*
%TO.C,R10*%
X-7410000Y45640000D03*
X-5410000Y45640000D03*
%TD*%
D13*
%TO.C,R33*%
X42400000Y53500000D03*
X42400000Y55500000D03*
%TD*%
%TO.C,R27*%
X42400000Y48000000D03*
X42400000Y50000000D03*
%TD*%
D12*
%TO.C,C18*%
X45400000Y34962500D03*
X45400000Y37037500D03*
%TD*%
M02*
