%TF.GenerationSoftware,KiCad,Pcbnew,10.0.3*%
%TF.CreationDate,2026-07-10T11:59:44+09:00*%
%TF.ProjectId,ETROC_to_FPGA,4554524f-435f-4746-9f5f-465047412e6b,rev?*%
%TF.SameCoordinates,Original*%
%TF.FileFunction,Copper,L1,Top*%
%TF.FilePolarity,Positive*%
%FSLAX46Y46*%
G04 Gerber Fmt 4.6, Leading zero omitted, Abs format (unit mm)*
G04 Created by KiCad (PCBNEW 10.0.3) date 2026-07-10 11:59:44*
%MOMM*%
%LPD*%
G01*
G04 APERTURE LIST*
G04 Aperture macros list*
%AMRoundRect*
0 Rectangle with rounded corners*
0 $1 Rounding radius*
0 $2 $3 $4 $5 $6 $7 $8 $9 X,Y pos of 4 corners*
0 Add a 4 corners polygon primitive as box body*
4,1,4,$2,$3,$4,$5,$6,$7,$8,$9,$2,$3,0*
0 Add four circle primitives for the rounded corners*
1,1,$1+$1,$2,$3*
1,1,$1+$1,$4,$5*
1,1,$1+$1,$6,$7*
1,1,$1+$1,$8,$9*
0 Add four rect primitives between the rounded corners*
20,1,$1+$1,$2,$3,$4,$5,0*
20,1,$1+$1,$4,$5,$6,$7,0*
20,1,$1+$1,$6,$7,$8,$9,0*
20,1,$1+$1,$8,$9,$2,$3,0*%
G04 Aperture macros list end*
%TA.AperFunction,SMDPad,CuDef*%
%ADD10RoundRect,0.250000X-0.450000X0.350000X-0.450000X-0.350000X0.450000X-0.350000X0.450000X0.350000X0*%
%TD*%
%TA.AperFunction,SMDPad,CuDef*%
%ADD11R,0.900000X0.950000*%
%TD*%
%TA.AperFunction,SMDPad,CuDef*%
%ADD12RoundRect,0.250000X0.475000X-0.337500X0.475000X0.337500X-0.475000X0.337500X-0.475000X-0.337500X0*%
%TD*%
%TA.AperFunction,SMDPad,CuDef*%
%ADD13RoundRect,0.250000X0.450000X-0.350000X0.450000X0.350000X-0.450000X0.350000X-0.450000X-0.350000X0*%
%TD*%
%TA.AperFunction,ComponentPad*%
%ADD14C,5.790000*%
%TD*%
%TA.AperFunction,SMDPad,CuDef*%
%ADD15RoundRect,0.250000X0.337500X0.475000X-0.337500X0.475000X-0.337500X-0.475000X0.337500X-0.475000X0*%
%TD*%
%TA.AperFunction,SMDPad,CuDef*%
%ADD16R,0.838200X1.752600*%
%TD*%
%TA.AperFunction,SMDPad,CuDef*%
%ADD17R,9.448800X8.737600*%
%TD*%
%TA.AperFunction,SMDPad,CuDef*%
%ADD18RoundRect,0.250000X0.350000X0.450000X-0.350000X0.450000X-0.350000X-0.450000X0.350000X-0.450000X0*%
%TD*%
%TA.AperFunction,SMDPad,CuDef*%
%ADD19R,2.000000X2.000000*%
%TD*%
%TA.AperFunction,SMDPad,CuDef*%
%ADD20R,0.300000X0.950000*%
%TD*%
%TA.AperFunction,SMDPad,CuDef*%
%ADD21R,1.650000X1.400000*%
%TD*%
%TA.AperFunction,ComponentPad*%
%ADD22R,2.700000X2.700000*%
%TD*%
%TA.AperFunction,ComponentPad*%
%ADD23C,2.700000*%
%TD*%
%TA.AperFunction,ComponentPad*%
%ADD24R,1.700000X1.700000*%
%TD*%
%TA.AperFunction,ComponentPad*%
%ADD25C,1.700000*%
%TD*%
%TA.AperFunction,ComponentPad*%
%ADD26R,2.000000X4.000000*%
%TD*%
%TA.AperFunction,ComponentPad*%
%ADD27O,2.000000X3.300000*%
%TD*%
%TA.AperFunction,ComponentPad*%
%ADD28O,3.500000X2.000000*%
%TD*%
%TA.AperFunction,SMDPad,CuDef*%
%ADD29RoundRect,0.250000X-0.350000X-0.450000X0.350000X-0.450000X0.350000X0.450000X-0.350000X0.450000X0*%
%TD*%
%TA.AperFunction,ViaPad*%
%ADD30C,0.600000*%
%TD*%
%TA.AperFunction,ViaPad*%
%ADD31C,0.500000*%
%TD*%
%TA.AperFunction,ViaPad*%
%ADD32C,1.200000*%
%TD*%
%TA.AperFunction,ViaPad*%
%ADD33C,1.000000*%
%TD*%
%TA.AperFunction,Conductor*%
%ADD34C,0.200000*%
%TD*%
%TA.AperFunction,Conductor*%
%ADD35C,0.500000*%
%TD*%
%TA.AperFunction,Conductor*%
%ADD36C,0.300000*%
%TD*%
%TA.AperFunction,Conductor*%
%ADD37C,0.400000*%
%TD*%
%TA.AperFunction,Conductor*%
%ADD38C,0.150000*%
%TD*%
%TA.AperFunction,Conductor*%
%ADD39C,0.124000*%
%TD*%
%TA.AperFunction,Conductor*%
%ADD40C,1.000000*%
%TD*%
G04 APERTURE END LIST*
D10*
%TO.P,R72,1*%
%TO.N,/DOL_b_N*%
X48850000Y65500000D03*
%TO.P,R72,2*%
%TO.N,Net-(R68-Pad2)*%
X48850000Y63500000D03*
%TD*%
D11*
%TO.P,LED1,1,K_1*%
%TO.N,GND*%
X-26522500Y36630000D03*
%TO.P,LED1,2,A_2*%
%TO.N,Net-(LED1-A)*%
X-24922500Y36630000D03*
%TD*%
D12*
%TO.P,C17,1*%
%TO.N,/FC_a_P*%
X43200000Y34962500D03*
%TO.P,C17,2*%
%TO.N,/FC_b_P*%
X43200000Y37037500D03*
%TD*%
D10*
%TO.P,R81,1*%
%TO.N,/DOR_b_N*%
X54300000Y42000000D03*
%TO.P,R81,2*%
%TO.N,Net-(R77-Pad2)*%
X54300000Y40000000D03*
%TD*%
D13*
%TO.P,R3,1*%
%TO.N,/PWR_SRC*%
X-18940000Y42600000D03*
%TO.P,R3,2*%
%TO.N,Net-(U1-EN)*%
X-18940000Y44600000D03*
%TD*%
%TO.P,R57,1,1_1*%
%TO.N,/FC_a_P*%
X42800000Y30000000D03*
%TO.P,R57,2,2_2*%
%TO.N,/FC_b_P*%
X42800000Y32000000D03*
%TD*%
D12*
%TO.P,C7,1*%
%TO.N,/CLK40_a_N*%
X42000000Y58462500D03*
%TO.P,C7,2*%
%TO.N,/CLK40_b_N*%
X42000000Y60537500D03*
%TD*%
D13*
%TO.P,R79,1,1_1*%
%TO.N,/DOR_a_P*%
X51700000Y30000000D03*
%TO.P,R79,2,2_2*%
%TO.N,/DOR_b_P*%
X51700000Y32000000D03*
%TD*%
D14*
%TO.P,U4,1,1_1*%
%TO.N,GND*%
X-14490000Y65438300D03*
%TD*%
D15*
%TO.P,C1,1*%
%TO.N,/PWR_SRC*%
X-18659550Y39930000D03*
%TO.P,C1,2*%
%TO.N,GND*%
X-20734550Y39930000D03*
%TD*%
D10*
%TO.P,R38,1*%
%TO.N,/CLK40_b_N*%
X42000000Y65500000D03*
%TO.P,R38,2*%
%TO.N,Net-(R32-Pad2)*%
X42000000Y63500000D03*
%TD*%
D13*
%TO.P,R76,1*%
%TO.N,/DOR_a_N*%
X54700000Y24500000D03*
%TO.P,R76,2*%
%TO.N,Net-(R73-Pad1)*%
X54700000Y26500000D03*
%TD*%
%TO.P,R67,1*%
%TO.N,/DOL_a_N*%
X49250000Y48000000D03*
%TO.P,R67,2*%
%TO.N,Net-(R64-Pad1)*%
X49250000Y50000000D03*
%TD*%
D12*
%TO.P,C22,1*%
%TO.N,/DOR_a_P*%
X52100000Y34962500D03*
%TO.P,C22,2*%
%TO.N,/DOR_b_P*%
X52100000Y37037500D03*
%TD*%
D13*
%TO.P,R66,1*%
%TO.N,/DOL_a_P*%
X46250000Y48000000D03*
%TO.P,R66,2*%
%TO.N,Net-(R64-Pad1)*%
X46250000Y50000000D03*
%TD*%
D12*
%TO.P,C21,1*%
%TO.N,/DOL_a_N*%
X48850000Y58462500D03*
%TO.P,C21,2*%
%TO.N,/DOL_b_N*%
X48850000Y60537500D03*
%TD*%
D13*
%TO.P,R78,1,1_1*%
%TO.N,/DOR_a_N*%
X54700000Y30000000D03*
%TO.P,R78,2,2_2*%
%TO.N,/DOR_b_N*%
X54700000Y32000000D03*
%TD*%
D16*
%TO.P,U1,1,EN_1*%
%TO.N,Net-(U1-EN)*%
X-18050000Y48300000D03*
%TO.P,U1,2,VIN_2*%
%TO.N,/PWR_SRC*%
X-16780000Y48300000D03*
%TO.P,U1,3,VIN_3*%
%TO.N,unconnected-(U1-VIN-Pad3)*%
X-15510000Y48300000D03*
%TO.P,U1,4,GND_4*%
%TO.N,GND*%
X-14240000Y48300000D03*
%TO.P,U1,5,VOUT_5*%
%TO.N,unconnected-(U1-VOUT-Pad5)*%
X-12970000Y48300000D03*
%TO.P,U1,6,VOUT_6*%
%TO.N,/1.2V*%
X-11700000Y48300000D03*
%TO.P,U1,7,ADJ_7*%
%TO.N,Net-(U1-ADJ)*%
X-10430000Y48300000D03*
D17*
%TO.P,U1,8,EPAD_8*%
%TO.N,GND*%
X-14240000Y54434100D03*
%TD*%
D12*
%TO.P,C23,1*%
%TO.N,/DOR_a_N*%
X54300000Y34962500D03*
%TO.P,C23,2*%
%TO.N,/DOR_b_N*%
X54300000Y37037500D03*
%TD*%
D18*
%TO.P,R25,1*%
%TO.N,/PWR_SRC*%
X-18687500Y36640000D03*
%TO.P,R25,2*%
%TO.N,Net-(LED1-A)*%
X-20687500Y36640000D03*
%TD*%
D19*
%TO.P,TP4,1,1_1*%
%TO.N,/1.0V*%
X4580000Y50720000D03*
%TD*%
%TO.P,TP1,1,1_1*%
%TO.N,GND*%
X-26700000Y46900000D03*
%TD*%
D13*
%TO.P,R53,1*%
%TO.N,/FC_a_P*%
X42800000Y24500000D03*
%TO.P,R53,2*%
%TO.N,Net-(R47-Pad1)*%
X42800000Y26500000D03*
%TD*%
D20*
%TO.P,J5,1,1_1*%
%TO.N,/Bias*%
X16250000Y70513000D03*
%TO.P,J5,2,2_2*%
%TO.N,GND*%
X16750000Y70513000D03*
%TO.P,J5,3,3_3*%
%TO.N,/1.2V*%
X17250000Y70513000D03*
%TO.P,J5,4,4_4*%
%TO.N,/I2C_WS_ADD4*%
X17750000Y70513000D03*
%TO.P,J5,5,5_5*%
%TO.N,/I2C_WS_ADD3*%
X18250000Y70513000D03*
%TO.P,J5,6,6_6*%
%TO.N,/I2C_WS_ADD2*%
X18750000Y70513000D03*
%TO.P,J5,7,7_7*%
%TO.N,/I2C_WS_ADD1*%
X19250000Y70513000D03*
%TO.P,J5,8,8_8*%
%TO.N,/I2C_WS_ADD0*%
X19750000Y70513000D03*
%TO.P,J5,9,9_9*%
%TO.N,unconnected-(J5-Pad9)*%
X20250000Y70513000D03*
%TO.P,J5,10,10_10*%
%TO.N,GND*%
X20750000Y70513000D03*
%TO.P,J5,11,11_11*%
%TO.N,/1.2V*%
X21250000Y70513000D03*
%TO.P,J5,12,12_12*%
%TO.N,GND*%
X21750000Y70513000D03*
%TO.P,J5,13,13_13*%
%TO.N,/1.2V*%
X22250000Y70513000D03*
%TO.P,J5,14,14_14*%
%TO.N,GND*%
X22750000Y70513000D03*
%TO.P,J5,15,15_15*%
%TO.N,/1.2V*%
X23250000Y70513000D03*
%TO.P,J5,16,16_16*%
%TO.N,/SCL_WS*%
X23750000Y70513000D03*
%TO.P,J5,17,17_17*%
%TO.N,/SDA_WS*%
X24250000Y70513000D03*
%TO.P,J5,18,18_18*%
%TO.N,/RST_WS*%
X24750000Y70513000D03*
%TO.P,J5,19,19_19*%
%TO.N,GND*%
X25250000Y70513000D03*
%TO.P,J5,20,20_20*%
%TO.N,/1.2V*%
X25750000Y70513000D03*
%TO.P,J5,21,21_21*%
%TO.N,GND*%
X26250000Y70513000D03*
%TO.P,J5,22,22_22*%
%TO.N,/1.2V*%
X26750000Y70513000D03*
%TO.P,J5,23,23_23*%
%TO.N,GND*%
X27250000Y70513000D03*
%TO.P,J5,24,24_24*%
X27750000Y70513000D03*
%TO.P,J5,25,25_25*%
X28250000Y70513000D03*
%TO.P,J5,26,26_26*%
X28750000Y70513000D03*
%TO.P,J5,27,27_27*%
X29250000Y70513000D03*
%TO.P,J5,28,28_28*%
X29750000Y70513000D03*
%TO.P,J5,29,29_29*%
%TO.N,/1.0V*%
X30250000Y70513000D03*
%TO.P,J5,30,30_30*%
%TO.N,/1.2V*%
X30750000Y70513000D03*
%TO.P,J5,31,31_31*%
X31250000Y70513000D03*
%TO.P,J5,32,32_32*%
X31750000Y70513000D03*
%TO.P,J5,33,33_33*%
X32250000Y70513000D03*
%TO.P,J5,34,34_34*%
X32750000Y70513000D03*
%TO.P,J5,35,35_35*%
X33250000Y70513000D03*
%TO.P,J5,36,36_36*%
%TO.N,GND*%
X33750000Y70513000D03*
%TO.P,J5,37,37_37*%
X34250000Y70513000D03*
%TO.P,J5,38,38_38*%
X34750000Y70513000D03*
%TO.P,J5,39,39_39*%
X35250000Y70513000D03*
%TO.P,J5,40,40_40*%
X35750000Y70513000D03*
%TO.P,J5,41,41_41*%
X36250000Y70513000D03*
%TO.P,J5,42,42_42*%
X36750000Y70513000D03*
%TO.P,J5,43,43_43*%
X37250000Y70513000D03*
%TO.P,J5,44,44_44*%
%TO.N,/1.2V*%
X37750000Y70513000D03*
%TO.P,J5,45,45_45*%
X38250000Y70513000D03*
%TO.P,J5,46,46_46*%
X38750000Y70513000D03*
%TO.P,J5,47,47_47*%
X39250000Y70513000D03*
%TO.P,J5,48,48_48*%
X39750000Y70513000D03*
%TO.P,J5,49,49_49*%
%TO.N,GND*%
X40250000Y70513000D03*
%TO.P,J5,50,50_50*%
X40750000Y70513000D03*
%TO.P,J5,51,51_51*%
%TO.N,/CLK40_b_P*%
X41250000Y70513000D03*
%TO.P,J5,52,52_52*%
%TO.N,GND*%
X41750000Y70513000D03*
%TO.P,J5,53,53_53*%
%TO.N,/CLK40_b_N*%
X42250000Y70513000D03*
%TO.P,J5,54,54_54*%
%TO.N,GND*%
X42750000Y70513000D03*
%TO.P,J5,55,55_55*%
%TO.N,unconnected-(J5-Pad55)*%
X43250000Y70513000D03*
%TO.P,J5,56,56_56*%
%TO.N,GND*%
X43750000Y70513000D03*
%TO.P,J5,57,57_57*%
%TO.N,unconnected-(J5-Pad57)*%
X44250000Y70513000D03*
%TO.P,J5,58,58_58*%
%TO.N,GND*%
X44750000Y70513000D03*
%TO.P,J5,59,59_59*%
%TO.N,/FC_b_P*%
X45250000Y70513000D03*
%TO.P,J5,60,60_60*%
%TO.N,/1.2V*%
X45750000Y70513000D03*
%TO.P,J5,61,61_61*%
%TO.N,/FC_b_N*%
X46250000Y70513000D03*
%TO.P,J5,62,62_62*%
%TO.N,/1.2V*%
X46750000Y70513000D03*
%TO.P,J5,63,63_63*%
%TO.N,/DOL_b_P*%
X47250000Y70513000D03*
%TO.P,J5,64,64_64*%
%TO.N,/1.2V*%
X47750000Y70513000D03*
%TO.P,J5,65,65_65*%
%TO.N,/DOL_b_N*%
X48250000Y70513000D03*
%TO.P,J5,66,66_66*%
%TO.N,GND*%
X48750000Y70513000D03*
%TO.P,J5,67,67_67*%
%TO.N,/DOR_b_P*%
X49250000Y70513000D03*
%TO.P,J5,68,68_68*%
%TO.N,GND*%
X49750000Y70513000D03*
%TO.P,J5,69,69_69*%
%TO.N,/DOR_b_N*%
X50250000Y70513000D03*
%TO.P,J5,70,70_70*%
%TO.N,GND*%
X50750000Y70513000D03*
%TO.P,J5,71,71_71*%
X51250000Y70513000D03*
%TO.P,J5,72,72_72*%
X51750000Y70513000D03*
%TO.P,J5,73,73_73*%
%TO.N,/VP*%
X52250000Y70513000D03*
%TO.P,J5,74,74_74*%
%TO.N,/1.2V*%
X52750000Y70513000D03*
%TO.P,J5,75,75_75*%
X53250000Y70513000D03*
%TO.P,J5,76,76_76*%
X53750000Y70513000D03*
%TO.P,J5,77,77_77*%
%TO.N,GND*%
X54250000Y70513000D03*
%TO.P,J5,78,78_78*%
X54750000Y70513000D03*
%TO.P,J5,79,79_79*%
X55250000Y70513000D03*
%TO.P,J5,80,80_80*%
X55750000Y70513000D03*
D21*
%TO.P,J5,MP1,MP1_MP1*%
%TO.N,unconnected-(J5-PadMP1)*%
X14175000Y73888000D03*
%TO.P,J5,MP2,MP2_MP2*%
%TO.N,unconnected-(J5-PadMP2)*%
X57825000Y73888000D03*
%TD*%
D13*
%TO.P,R26,1*%
%TO.N,/CLK40_a_P*%
X39400000Y48000000D03*
%TO.P,R26,2*%
%TO.N,Net-(R19-Pad1)*%
X39400000Y50000000D03*
%TD*%
%TO.P,R54,1*%
%TO.N,/FC_a_N*%
X45800000Y24500000D03*
%TO.P,R54,2*%
%TO.N,Net-(R47-Pad1)*%
X45800000Y26500000D03*
%TD*%
D12*
%TO.P,C6,1*%
%TO.N,/CLK40_a_P*%
X39800000Y58462500D03*
%TO.P,C6,2*%
%TO.N,/CLK40_b_P*%
X39800000Y60537500D03*
%TD*%
D22*
%TO.P,J1,1,In_1*%
%TO.N,/Bias_IN*%
X-8500000Y98210000D03*
D23*
%TO.P,J1,2,Ext_2*%
%TO.N,GND*%
X-13580000Y103290000D03*
%TO.P,J1,3*%
%TO.N,N/C*%
X-13580000Y93130000D03*
%TO.P,J1,4*%
X-3420000Y93130000D03*
%TO.P,J1,5*%
X-3420000Y103290000D03*
%TD*%
D20*
%TO.P,J6,1,1_1*%
%TO.N,GND*%
X16250000Y102513000D03*
%TO.P,J6,2,2_2*%
%TO.N,/1.2V*%
X16750000Y102513000D03*
%TO.P,J6,3,3_3*%
X17250000Y102513000D03*
%TO.P,J6,4,4_4*%
X17750000Y102513000D03*
%TO.P,J6,5,5_5*%
X18250000Y102513000D03*
%TO.P,J6,6,6_6*%
X18750000Y102513000D03*
%TO.P,J6,7,7_7*%
X19250000Y102513000D03*
%TO.P,J6,8,8_8*%
X19750000Y102513000D03*
%TO.P,J6,9,9_9*%
X20250000Y102513000D03*
%TO.P,J6,10,10_10*%
%TO.N,GND*%
X20750000Y102513000D03*
%TO.P,J6,11,11_11*%
X21250000Y102513000D03*
%TO.P,J6,12,12_12*%
X21750000Y102513000D03*
%TO.P,J6,13,13_13*%
X22250000Y102513000D03*
%TO.P,J6,14,14_14*%
%TO.N,/1.2V*%
X22750000Y102513000D03*
%TO.P,J6,15,15_15*%
X23250000Y102513000D03*
%TO.P,J6,16,16_16*%
X23750000Y102513000D03*
%TO.P,J6,17,17_17*%
X24250000Y102513000D03*
%TO.P,J6,18,18_18*%
X24750000Y102513000D03*
%TO.P,J6,19,19_19*%
X25250000Y102513000D03*
%TO.P,J6,20,20_20*%
X25750000Y102513000D03*
%TO.P,J6,21,21_21*%
%TO.N,GND*%
X26250000Y102513000D03*
%TO.P,J6,22,22_22*%
X26750000Y102513000D03*
%TO.P,J6,23,23_23*%
X27250000Y102513000D03*
%TO.P,J6,24,24_24*%
X27750000Y102513000D03*
%TO.P,J6,25,25_25*%
%TO.N,/I2C_ETR_ADD0*%
X28250000Y102513000D03*
%TO.P,J6,26,26_26*%
%TO.N,/I2C_ETR_ADD1*%
X28750000Y102513000D03*
%TO.P,J6,27,27_27*%
%TO.N,/I2C_ETR_ADD2*%
X29250000Y102513000D03*
%TO.P,J6,28,28_28*%
%TO.N,/RSTn*%
X29750000Y102513000D03*
%TO.P,J6,29,29_29*%
%TO.N,GND*%
X30250000Y102513000D03*
%TO.P,J6,30,30_30*%
%TO.N,/1.2V*%
X30750000Y102513000D03*
%TO.P,J6,31,31_31*%
%TO.N,/SCL_ETROC2*%
X31250000Y102513000D03*
%TO.P,J6,32,32_32*%
%TO.N,/SDA_ETROC2*%
X31750000Y102513000D03*
%TO.P,J6,33,33_33*%
%TO.N,/I2C_ETR_ADD3*%
X32250000Y102513000D03*
%TO.P,J6,34,34_34*%
%TO.N,/I2C_ETR_ADD4*%
X32750000Y102513000D03*
%TO.P,J6,35,35_35*%
%TO.N,GND*%
X33250000Y102513000D03*
%TO.P,J6,36,36_36*%
X33750000Y102513000D03*
%TO.P,J6,37,37_37*%
X34250000Y102513000D03*
%TO.P,J6,38,38_38*%
%TO.N,unconnected-(J6-Pad38)*%
X34750000Y102513000D03*
%TO.P,J6,39,39_39*%
%TO.N,GND*%
X35250000Y102513000D03*
%TO.P,J6,40,40_40*%
X35750000Y102513000D03*
%TO.P,J6,41,41_41*%
X36250000Y102513000D03*
%TO.P,J6,42,42_42*%
X36750000Y102513000D03*
%TO.P,J6,43,43_43*%
X37250000Y102513000D03*
%TO.P,J6,44,44_44*%
X37750000Y102513000D03*
%TO.P,J6,45,45_45*%
X38250000Y102513000D03*
%TO.P,J6,46,46_46*%
X38750000Y102513000D03*
%TO.P,J6,47,47_47*%
%TO.N,/1.2V*%
X39250000Y102513000D03*
%TO.P,J6,48,48_48*%
X39750000Y102513000D03*
%TO.P,J6,49,49_49*%
X40250000Y102513000D03*
%TO.P,J6,50,50_50*%
X40750000Y102513000D03*
%TO.P,J6,51,51_51*%
X41250000Y102513000D03*
%TO.P,J6,52,52_52*%
%TO.N,GND*%
X41750000Y102513000D03*
%TO.P,J6,53,53_53*%
X42250000Y102513000D03*
%TO.P,J6,54,54_54*%
%TO.N,/1.2V*%
X42750000Y102513000D03*
%TO.P,J6,55,55_55*%
X43250000Y102513000D03*
%TO.P,J6,56,56_56*%
X43750000Y102513000D03*
%TO.P,J6,57,57_57*%
X44250000Y102513000D03*
%TO.P,J6,58,58_58*%
X44750000Y102513000D03*
%TO.P,J6,59,59_59*%
X45250000Y102513000D03*
%TO.P,J6,60,60_60*%
%TO.N,GND*%
X45750000Y102513000D03*
%TO.P,J6,61,61_61*%
%TO.N,unconnected-(J6-Pad61)*%
X46250000Y102513000D03*
%TO.P,J6,62,62_62*%
%TO.N,GND*%
X46750000Y102513000D03*
%TO.P,J6,63,63_63*%
X47250000Y102513000D03*
%TO.P,J6,64,64_64*%
X47750000Y102513000D03*
%TO.P,J6,65,65_65*%
X48250000Y102513000D03*
%TO.P,J6,66,66_66*%
X48750000Y102513000D03*
%TO.P,J6,67,67_67*%
%TO.N,/Bias*%
X49250000Y102513000D03*
%TO.P,J6,68,68_68*%
%TO.N,unconnected-(J6-Pad68)*%
X49750000Y102513000D03*
%TO.P,J6,69,69_69*%
%TO.N,unconnected-(J6-Pad69)*%
X50250000Y102513000D03*
%TO.P,J6,70,70_70*%
%TO.N,unconnected-(J6-Pad70)*%
X50750000Y102513000D03*
%TO.P,J6,71,71_71*%
%TO.N,unconnected-(J6-Pad71)*%
X51250000Y102513000D03*
%TO.P,J6,72,72_72*%
%TO.N,unconnected-(J6-Pad72)*%
X51750000Y102513000D03*
%TO.P,J6,73,73_73*%
%TO.N,unconnected-(J6-Pad73)*%
X52250000Y102513000D03*
%TO.P,J6,74,74_74*%
%TO.N,unconnected-(J6-Pad74)*%
X52750000Y102513000D03*
%TO.P,J6,75,75_75*%
%TO.N,unconnected-(J6-Pad75)*%
X53250000Y102513000D03*
%TO.P,J6,76,76_76*%
%TO.N,unconnected-(J6-Pad76)*%
X53750000Y102513000D03*
%TO.P,J6,77,77_77*%
%TO.N,unconnected-(J6-Pad77)*%
X54250000Y102513000D03*
%TO.P,J6,78,78_78*%
%TO.N,unconnected-(J6-Pad78)*%
X54750000Y102513000D03*
%TO.P,J6,79,79_79*%
%TO.N,unconnected-(J6-Pad79)*%
X55250000Y102513000D03*
%TO.P,J6,80,80_80*%
%TO.N,unconnected-(J6-Pad80)*%
X55750000Y102513000D03*
D21*
%TO.P,J6,MP1,MP1_MP1*%
%TO.N,unconnected-(J6-PadMP1)*%
X14175000Y105888000D03*
%TO.P,J6,MP2,MP2_MP2*%
%TO.N,unconnected-(J6-PadMP2)*%
X57825000Y105888000D03*
%TD*%
D13*
%TO.P,R56,1,1_1*%
%TO.N,/FC_a_N*%
X45800000Y30000000D03*
%TO.P,R56,2,2_2*%
%TO.N,/FC_b_N*%
X45800000Y32000000D03*
%TD*%
D10*
%TO.P,R37,1*%
%TO.N,/CLK40_b_P*%
X39800000Y65500000D03*
%TO.P,R37,2*%
%TO.N,Net-(R32-Pad2)*%
X39800000Y63500000D03*
%TD*%
D24*
%TO.P,J4,1,Pin_1_1*%
%TO.N,/3P3V*%
X-2460000Y28550000D03*
D25*
%TO.P,J4,2,Pin_2_2*%
%TO.N,/PWR_SRC*%
X-5000000Y28550000D03*
%TO.P,J4,3,Pin_3_3*%
%TO.N,/3V*%
X-7540000Y28550000D03*
%TD*%
D10*
%TO.P,R11,1*%
%TO.N,Net-(U1-ADJ)*%
X-10000000Y45750000D03*
%TO.P,R11,2*%
%TO.N,/1.2V*%
X-10000000Y43750000D03*
%TD*%
D13*
%TO.P,R75,1*%
%TO.N,/DOR_a_P*%
X51700000Y24500000D03*
%TO.P,R75,2*%
%TO.N,Net-(R73-Pad1)*%
X51700000Y26500000D03*
%TD*%
D10*
%TO.P,R80,1*%
%TO.N,/DOR_b_P*%
X52100000Y42000000D03*
%TO.P,R80,2*%
%TO.N,Net-(R77-Pad2)*%
X52100000Y40000000D03*
%TD*%
D13*
%TO.P,R34,1,1_1*%
%TO.N,/CLK40_a_P*%
X39400000Y53500000D03*
%TO.P,R34,2,2_2*%
%TO.N,/CLK40_b_P*%
X39400000Y55500000D03*
%TD*%
D15*
%TO.P,C4,1*%
%TO.N,/1.2V*%
X-13152500Y43090000D03*
%TO.P,C4,2*%
%TO.N,GND*%
X-15227500Y43090000D03*
%TD*%
D26*
%TO.P,J2,1*%
%TO.N,/3V*%
X-15100000Y28500000D03*
D27*
%TO.P,J2,2*%
%TO.N,GND*%
X-21100000Y28500000D03*
D28*
%TO.P,J2,MP*%
%TO.N,N/C*%
X-22100000Y33000000D03*
X-22100000Y24000000D03*
%TD*%
D12*
%TO.P,C20,1*%
%TO.N,/DOL_a_P*%
X46650000Y58462500D03*
%TO.P,C20,2*%
%TO.N,/DOL_b_P*%
X46650000Y60537500D03*
%TD*%
D10*
%TO.P,R62,1*%
%TO.N,/FC_b_P*%
X43200000Y42000000D03*
%TO.P,R62,2*%
%TO.N,Net-(R55-Pad2)*%
X43200000Y40000000D03*
%TD*%
%TO.P,R63,1*%
%TO.N,/FC_b_N*%
X45400000Y42000000D03*
%TO.P,R63,2*%
%TO.N,Net-(R55-Pad2)*%
X45400000Y40000000D03*
%TD*%
D15*
%TO.P,C19,1*%
%TO.N,GND*%
X57517500Y65500000D03*
%TO.P,C19,2*%
%TO.N,/VP*%
X55442500Y65500000D03*
%TD*%
D13*
%TO.P,R70,1,1_1*%
%TO.N,/DOL_a_P*%
X46250000Y53500000D03*
%TO.P,R70,2,2_2*%
%TO.N,/DOL_b_P*%
X46250000Y55500000D03*
%TD*%
D24*
%TO.P,JP1,1,A_1*%
%TO.N,/Bias_IN*%
X5280000Y98160000D03*
D25*
%TO.P,JP1,2,B_2*%
%TO.N,/Bias*%
X7820000Y98160000D03*
%TD*%
D10*
%TO.P,R71,1*%
%TO.N,/DOL_b_P*%
X46650000Y65500000D03*
%TO.P,R71,2*%
%TO.N,Net-(R68-Pad2)*%
X46650000Y63500000D03*
%TD*%
D13*
%TO.P,R69,1,1_1*%
%TO.N,/DOL_a_N*%
X49250000Y53500000D03*
%TO.P,R69,2,2_2*%
%TO.N,/DOL_b_N*%
X49250000Y55500000D03*
%TD*%
D19*
%TO.P,TP3,1,1_1*%
%TO.N,/PWR_SRC*%
X-7080000Y34180000D03*
%TD*%
D29*
%TO.P,R10,1*%
%TO.N,Net-(U1-ADJ)*%
X-7410000Y45640000D03*
%TO.P,R10,2*%
%TO.N,GND*%
X-5410000Y45640000D03*
%TD*%
D19*
%TO.P,TP2,1,1_1*%
%TO.N,/1.2V*%
X-6000000Y40060000D03*
%TD*%
D13*
%TO.P,R33,1,1_1*%
%TO.N,/CLK40_a_N*%
X42400000Y53500000D03*
%TO.P,R33,2,2_2*%
%TO.N,/CLK40_b_N*%
X42400000Y55500000D03*
%TD*%
%TO.P,R27,1*%
%TO.N,/CLK40_a_N*%
X42400000Y48000000D03*
%TO.P,R27,2*%
%TO.N,Net-(R19-Pad1)*%
X42400000Y50000000D03*
%TD*%
D12*
%TO.P,C18,1*%
%TO.N,/FC_a_N*%
X45400000Y34962500D03*
%TO.P,C18,2*%
%TO.N,/FC_b_N*%
X45400000Y37037500D03*
%TD*%
D30*
%TO.N,GND*%
X21600000Y37300000D03*
X23655000Y5615000D03*
X27140000Y35890000D03*
D31*
X-10640000Y67038300D03*
D32*
X-18800000Y28475000D03*
D30*
X55780000Y68740000D03*
X29500000Y69470000D03*
D31*
X-14090000Y59738300D03*
D30*
X48950000Y101270000D03*
X16750000Y71650000D03*
X36390000Y9140000D03*
X49730000Y71710000D03*
X35250000Y100750000D03*
D31*
X-10640000Y65438300D03*
X-19890000Y58013300D03*
D30*
X7390000Y44150000D03*
D33*
X-13570000Y106862446D03*
D30*
X28160000Y46130000D03*
D31*
X-10840000Y63638300D03*
D30*
X50360000Y10820000D03*
X26250000Y100737000D03*
X47860000Y9180000D03*
X30100000Y14300000D03*
X34220000Y103760000D03*
X41920000Y71720000D03*
D31*
X-12990000Y59738300D03*
D30*
X26750000Y101237000D03*
D31*
X-14490000Y69743300D03*
D30*
X44010000Y5670000D03*
X56700000Y14300000D03*
X55500000Y10800000D03*
D31*
X-8390000Y52013300D03*
D30*
X34910000Y69370000D03*
X21750000Y100737000D03*
X27520000Y69490000D03*
X45325000Y5750000D03*
X31330000Y10840000D03*
D31*
X-11990000Y59738300D03*
D30*
X48250000Y100750000D03*
X51790000Y71590000D03*
X59010000Y65470000D03*
X21720000Y71590000D03*
X51800000Y9100000D03*
X33860000Y5790000D03*
X50720000Y71670000D03*
X37600000Y69460000D03*
X40220000Y9180000D03*
D31*
X-8390000Y59013300D03*
D30*
X36750000Y101250000D03*
X47750000Y101250000D03*
D31*
X-19890000Y57013300D03*
D30*
X10100000Y45990000D03*
X34310000Y101290000D03*
D31*
X-15740000Y61538300D03*
X-12940000Y69238300D03*
D30*
X49200000Y5875000D03*
X11940000Y14350000D03*
X36250000Y100750000D03*
X42800000Y71680000D03*
X28740000Y9010000D03*
X50600000Y5950000D03*
X37550000Y14330000D03*
X40250000Y71830000D03*
X33990000Y69400000D03*
X12290000Y10930000D03*
X47250000Y100750000D03*
D31*
X-8390000Y55013300D03*
D30*
X45750000Y101250000D03*
X33250000Y103750000D03*
X45270000Y14210000D03*
D31*
X-16090000Y59738300D03*
D30*
X37750000Y101250000D03*
X25560000Y72340000D03*
X41700000Y14390000D03*
X28350000Y71530000D03*
X-15230000Y44880000D03*
X43770000Y71750000D03*
X53000000Y9100000D03*
X57010000Y26960000D03*
X29180000Y71500000D03*
X28900000Y37200000D03*
D31*
X-13240000Y61638300D03*
D30*
X54200000Y10800000D03*
X33130000Y9020000D03*
X21140000Y45950000D03*
X51390000Y50540000D03*
X28570000Y69470000D03*
D31*
X-19870000Y55700000D03*
D30*
X27520000Y10900000D03*
X55260000Y69430000D03*
D31*
X-15090000Y59738300D03*
D30*
X28755000Y5715000D03*
X38750000Y101250000D03*
X15250000Y102500000D03*
X57990000Y9210000D03*
X30250000Y101237000D03*
X54750000Y68780000D03*
X34290000Y14160000D03*
X48550000Y27000000D03*
D31*
X-18440000Y66338300D03*
X-16040000Y69238300D03*
D30*
X18555000Y5615000D03*
X19890000Y10760000D03*
X55355000Y5655000D03*
X59300000Y5700000D03*
D31*
X-18090000Y59738300D03*
X-19900000Y51660000D03*
D30*
X22720000Y71540000D03*
D31*
X-17440000Y62538300D03*
D30*
X46750000Y101250000D03*
X46420000Y10780000D03*
X38250000Y100750000D03*
X-22104550Y39900000D03*
D31*
X-8390000Y57013300D03*
X-19090000Y59738300D03*
D30*
X36760000Y71610000D03*
X16820000Y34290000D03*
D31*
X-17540000Y68438300D03*
D30*
X42790000Y10910000D03*
X25010000Y9050000D03*
X27250000Y100737000D03*
X30000000Y5700000D03*
X59300000Y10900000D03*
X6490000Y40820000D03*
X25550000Y71580000D03*
D31*
X-17090000Y59738300D03*
D30*
X16510000Y37250000D03*
D31*
X-19890000Y59013300D03*
D30*
X21250000Y101237000D03*
X24955000Y5615000D03*
D31*
X-19890000Y53013300D03*
D30*
X12255000Y5715000D03*
X34770000Y71570000D03*
X35200000Y5730000D03*
D31*
X-9990000Y59738300D03*
X-8390000Y56013300D03*
D30*
X54110000Y5670000D03*
X54220000Y69410000D03*
X34520000Y11110000D03*
X9750000Y10900000D03*
D31*
X-8390000Y54013300D03*
D30*
X22400000Y14355000D03*
X38940000Y10820000D03*
X22250000Y101237000D03*
X49100000Y14200000D03*
X15400000Y14000000D03*
X9655000Y5715000D03*
X52900000Y14300000D03*
X41100000Y71750000D03*
X36720000Y69450000D03*
X43110000Y46540000D03*
X-14260000Y46300000D03*
X27650000Y71740000D03*
D31*
X-8390000Y58013300D03*
D30*
X33930000Y71610000D03*
X51260000Y72310000D03*
X-28370000Y36670000D03*
D31*
X-10990000Y59738300D03*
X-8390000Y53013300D03*
X-18340000Y64138300D03*
D30*
X23730000Y10810000D03*
X42250000Y101250000D03*
X41750000Y100750000D03*
X14755000Y5615000D03*
X44760000Y71690000D03*
X20740000Y71530000D03*
X38910000Y5670000D03*
X20750000Y100737000D03*
X19855000Y5615000D03*
X40155000Y5655000D03*
D31*
X-11640000Y62538300D03*
D30*
X35750000Y101250000D03*
D31*
X-11640000Y68338300D03*
D30*
X37250000Y100750000D03*
X44010000Y9160000D03*
X56745000Y9225000D03*
X48760000Y71710000D03*
X-3882500Y45660000D03*
%TO.N,/FC_a_P*%
X39700000Y19531500D03*
%TO.N,Net-(R77-Pad2)*%
X53210000Y38550000D03*
D33*
%TO.N,/PWR_SRC*%
X350000Y44130000D03*
D30*
%TO.N,/CLK40_a_N*%
X34082951Y38126000D03*
%TO.N,/DOR_a_P*%
X55350000Y20808500D03*
%TO.N,Net-(R32-Pad2)*%
X40830000Y62030000D03*
%TO.N,/DOR_a_N*%
X55350000Y21611500D03*
%TO.N,Net-(R73-Pad1)*%
X53980000Y27940000D03*
X52430000Y27980000D03*
%TO.N,/DOL_a_N*%
X50360000Y21651500D03*
%TO.N,Net-(R64-Pad1)*%
X48480000Y51420000D03*
X47040000Y51460000D03*
%TO.N,/DOL_a_P*%
X50360000Y20848500D03*
%TO.N,/1.2V*%
X39440000Y69470000D03*
X44750000Y104250000D03*
X19750000Y104131500D03*
X46740000Y71740000D03*
X20250000Y103631500D03*
X30330000Y72390000D03*
X41250000Y103881500D03*
X17250000Y103631500D03*
X53430000Y71620000D03*
X29720000Y46210000D03*
X45510000Y46510000D03*
X25600000Y69390000D03*
X22220000Y69360000D03*
X39430000Y71570000D03*
X19250000Y103631500D03*
X24250000Y104131500D03*
X23680000Y71620000D03*
X32580000Y69460000D03*
X32400000Y71680000D03*
X22750000Y103631500D03*
X18750000Y104131500D03*
X39250000Y103881500D03*
X42750000Y104250000D03*
X18250000Y103631500D03*
X30280000Y71630000D03*
X43750000Y104250000D03*
X23750000Y103631500D03*
D33*
X-11664100Y40854100D03*
D30*
X40250000Y103881500D03*
X45760000Y71710000D03*
X16750000Y104131500D03*
X47790000Y71720000D03*
X45250000Y103750000D03*
X17750000Y104131500D03*
X54220000Y71610000D03*
X38420000Y69490000D03*
X44250000Y103750000D03*
X24750000Y103631500D03*
X43250000Y103750000D03*
X25850000Y103560000D03*
X37620000Y71600000D03*
X39750000Y104381500D03*
X38510000Y71590000D03*
X49300000Y26290000D03*
X40750000Y104381500D03*
X30750000Y103750000D03*
X52700000Y71650000D03*
X36880000Y49140000D03*
X23100000Y46080000D03*
X40360000Y27040000D03*
X21220000Y69440000D03*
X17600000Y71590000D03*
X23250000Y104131500D03*
X25250000Y104131500D03*
%TO.N,/1.0V*%
X22380000Y57800000D03*
X6790000Y50700000D03*
%TO.N,Net-(R47-Pad1)*%
X43440000Y28010000D03*
X45060000Y27980000D03*
%TO.N,/I2C_WS_ADD4*%
X13520000Y14390000D03*
%TO.N,/I2C_WS_ADD3*%
X17290000Y14490000D03*
%TO.N,/I2C_WS_ADD2*%
X15470000Y10810000D03*
%TO.N,/I2C_WS_ADD1*%
X18840000Y10820000D03*
%TO.N,/I2C_WS_ADD0*%
X21890000Y10710000D03*
%TO.N,/SCL_WS*%
X23500000Y68931500D03*
%TO.N,/SDA_WS*%
X24300000Y68931500D03*
%TO.N,/RST_WS*%
X22840000Y9700000D03*
X24730000Y71600000D03*
X11010000Y70790000D03*
%TO.N,/CLK40_a_P*%
X34082951Y38929000D03*
%TO.N,Net-(R19-Pad1)*%
X39910000Y51510000D03*
X41750000Y51440000D03*
%TO.N,/FC_a_N*%
X39700000Y18728500D03*
%TO.N,/I2C_ETR_ADD0*%
X26270000Y46630000D03*
X26300000Y80310000D03*
X26270000Y10290000D03*
D31*
%TO.N,/I2C_ETR_ADD1*%
X30990000Y46600000D03*
X30080000Y10660000D03*
X30450000Y80350000D03*
D30*
%TO.N,/I2C_ETR_ADD2*%
X33150000Y80270000D03*
%TO.N,/RSTn*%
X8620000Y73860000D03*
X28810000Y104480000D03*
X8560000Y4630000D03*
%TO.N,/SCL_ETROC2*%
X31150000Y101100000D03*
%TO.N,/SDA_ETROC2*%
X31800000Y100200000D03*
D31*
%TO.N,/I2C_ETR_ADD3*%
X38300000Y16290000D03*
X35530000Y80310000D03*
X37680000Y10780000D03*
D30*
%TO.N,/I2C_ETR_ADD4*%
X36150000Y81000000D03*
%TO.N,Net-(R68-Pad2)*%
X47700000Y62030000D03*
%TO.N,Net-(R55-Pad2)*%
X44340000Y38570000D03*
%TO.N,/2.5V*%
X26940000Y23790000D03*
X30170000Y23870000D03*
%TO.N,/SDA_WS_FMC*%
X24975000Y21560000D03*
X24790000Y30710000D03*
%TO.N,/SCL_WS_FMC*%
X21890000Y30600000D03*
X21165000Y22500000D03*
%TD*%
%TO.N,GND*%
D34*
X-8390000Y59013300D02*
X-9115000Y59738300D01*
X-26522500Y36630000D02*
X-28330000Y36630000D01*
X35750000Y70513000D02*
X35250000Y70513000D01*
X15263000Y102513000D02*
X15250000Y102500000D01*
X40250000Y70513000D02*
X40250000Y71830000D01*
X51250000Y72300000D02*
X51260000Y72310000D01*
X-9115000Y59738300D02*
X-9990000Y59738300D01*
X46750000Y102513000D02*
X48750000Y102513000D01*
X36250000Y70513000D02*
X36250000Y71100000D01*
X54250000Y69440000D02*
X54220000Y69410000D01*
X-19900000Y51660000D02*
X-17014100Y51660000D01*
X-14490000Y65438300D02*
X-14490000Y65388300D01*
X27250000Y71340000D02*
X27650000Y71740000D01*
D35*
X-13580000Y106852446D02*
X-13570000Y106862446D01*
D36*
X-22074550Y39930000D02*
X-22104550Y39900000D01*
D34*
X57517500Y65500000D02*
X58980000Y65500000D01*
X37250000Y70513000D02*
X37250000Y69810000D01*
X50750000Y70513000D02*
X50750000Y71640000D01*
X26250000Y70513000D02*
X26250000Y71650000D01*
X34750000Y70513000D02*
X34750000Y71550000D01*
X20750000Y71520000D02*
X20740000Y71530000D01*
X48750000Y102513000D02*
X48750000Y101470000D01*
X41750000Y102513000D02*
X41750000Y100750000D01*
X-17390000Y62538300D02*
X-17440000Y62538300D01*
X25250000Y70513000D02*
X25250000Y71280000D01*
X43750000Y70513000D02*
X43750000Y71730000D01*
X-8390000Y59013300D02*
X-8390000Y54013300D01*
X34250000Y70513000D02*
X34250000Y69660000D01*
X37250000Y102513000D02*
X37250000Y100750000D01*
X27250000Y70513000D02*
X27250000Y71340000D01*
X25250000Y71280000D02*
X25550000Y71580000D01*
X34250000Y69660000D02*
X33990000Y69400000D01*
X-14240000Y54434100D02*
X-12819200Y53013300D01*
X48750000Y70513000D02*
X48750000Y71700000D01*
X48250000Y102513000D02*
X48250000Y100750000D01*
X47750000Y102513000D02*
X47750000Y101250000D01*
D36*
X-14240000Y48300000D02*
X-14240000Y46320000D01*
D34*
X-19815000Y59013300D02*
X-19090000Y59738300D01*
X43750000Y71730000D02*
X43770000Y71750000D01*
X33750000Y101850000D02*
X34310000Y101290000D01*
X55750000Y70513000D02*
X55750000Y68770000D01*
X41750000Y71550000D02*
X41920000Y71720000D01*
D36*
X-3902500Y45640000D02*
X-3882500Y45660000D01*
X-20734550Y39930000D02*
X-22074550Y39930000D01*
D34*
X-14490000Y65388300D02*
X-11640000Y62538300D01*
X22250000Y102500000D02*
X22250000Y101237000D01*
X54750000Y70513000D02*
X54750000Y68780000D01*
X49750000Y70513000D02*
X49750000Y71690000D01*
X41750000Y70513000D02*
X41750000Y71550000D01*
X29750000Y69720000D02*
X29500000Y69470000D01*
X46750000Y102513000D02*
X46750000Y101250000D01*
X21250000Y102500000D02*
X21250000Y101237000D01*
X30250000Y102500000D02*
X30250000Y101237000D01*
X55750000Y68770000D02*
X55780000Y68740000D01*
X40750000Y71400000D02*
X41100000Y71750000D01*
X-15660800Y53013300D02*
X-14240000Y54434100D01*
X34250000Y103730000D02*
X34220000Y103760000D01*
X44750000Y71680000D02*
X44760000Y71690000D01*
D36*
X-5410000Y45640000D02*
X-3902500Y45640000D01*
D34*
X27250000Y102500000D02*
X27250000Y100737000D01*
X-19165900Y54434100D02*
X-14240000Y54434100D01*
X27750000Y70513000D02*
X27750000Y69720000D01*
X36750000Y70513000D02*
X36750000Y69480000D01*
X-26700000Y46900000D02*
X-19165900Y54434100D01*
X-19890000Y53013300D02*
X-15660800Y53013300D01*
X21750000Y70513000D02*
X21750000Y71560000D01*
X28750000Y69650000D02*
X28570000Y69470000D01*
X21750000Y102500000D02*
X21750000Y100737000D01*
X26250000Y102500000D02*
X26250000Y100737000D01*
X55250000Y70513000D02*
X55250000Y69440000D01*
X48750000Y101470000D02*
X48950000Y101270000D01*
X36250000Y70513000D02*
X35750000Y70513000D01*
X37250000Y69810000D02*
X37600000Y69460000D01*
X33250000Y102513000D02*
X33250000Y103750000D01*
X22750000Y70513000D02*
X22750000Y71510000D01*
X42250000Y102513000D02*
X42250000Y101250000D01*
X42750000Y71630000D02*
X42800000Y71680000D01*
X26250000Y71650000D02*
X25560000Y72340000D01*
X16750000Y70513000D02*
X16750000Y71650000D01*
X36750000Y69480000D02*
X36720000Y69450000D01*
X55250000Y69440000D02*
X55260000Y69430000D01*
X28250000Y71430000D02*
X28350000Y71530000D01*
X-11819200Y52013300D02*
X-14240000Y54434100D01*
X38750000Y102513000D02*
X38750000Y101250000D01*
X-14490000Y65438300D02*
X-17490000Y68438300D01*
X38250000Y102513000D02*
X38250000Y100750000D01*
X36750000Y102513000D02*
X36750000Y101250000D01*
X-17014100Y51660000D02*
X-14240000Y54434100D01*
X58980000Y65500000D02*
X59010000Y65470000D01*
X40750000Y70513000D02*
X40750000Y71400000D01*
X29250000Y71430000D02*
X29180000Y71500000D01*
X27750000Y102513000D02*
X27250000Y102513000D01*
X20750000Y70513000D02*
X20750000Y71520000D01*
X36250000Y71100000D02*
X36760000Y71610000D01*
X44750000Y70513000D02*
X44750000Y71680000D01*
X-12819200Y53013300D02*
X-8390000Y53013300D01*
X-19890000Y59013300D02*
X-19815000Y59013300D01*
X33750000Y70513000D02*
X33750000Y71430000D01*
X35250000Y69710000D02*
X34910000Y69370000D01*
D35*
X-13580000Y103290000D02*
X-13580000Y106852446D01*
D34*
X-19870000Y56993300D02*
X-19890000Y57013300D01*
X-11640000Y68288300D02*
X-11640000Y68338300D01*
X22750000Y71510000D02*
X22720000Y71540000D01*
X47250000Y102513000D02*
X47250000Y100750000D01*
X33750000Y102513000D02*
X33750000Y101850000D01*
X-19890000Y58013300D02*
X-19890000Y59013300D01*
X29750000Y70513000D02*
X29750000Y69720000D01*
X45750000Y102513000D02*
X45750000Y101250000D01*
D36*
X-15227500Y43090000D02*
X-15227500Y44877500D01*
D34*
X35250000Y102513000D02*
X35250000Y100750000D01*
X34250000Y102513000D02*
X34250000Y103730000D01*
X34750000Y71550000D02*
X34770000Y71570000D01*
X-14490000Y65438300D02*
X-17390000Y62538300D01*
X27750000Y69720000D02*
X27520000Y69490000D01*
X37750000Y102513000D02*
X37750000Y101250000D01*
D37*
X-14330000Y48210000D02*
X-14240000Y48300000D01*
D34*
X51750000Y71550000D02*
X51790000Y71590000D01*
X29250000Y70513000D02*
X29250000Y71430000D01*
D36*
X-14240000Y46320000D02*
X-14260000Y46300000D01*
D34*
X35250000Y70513000D02*
X35250000Y69710000D01*
X36250000Y102513000D02*
X36250000Y100750000D01*
X50750000Y71640000D02*
X50720000Y71670000D01*
X-14490000Y65438300D02*
X-11640000Y68288300D01*
X16250000Y102513000D02*
X15263000Y102513000D01*
X20750000Y102500000D02*
X20750000Y100737000D01*
X28750000Y70513000D02*
X28750000Y69650000D01*
X49750000Y71690000D02*
X49730000Y71710000D01*
X-28330000Y36630000D02*
X-28370000Y36670000D01*
X26750000Y102500000D02*
X26750000Y101237000D01*
X-19890000Y57013300D02*
X-19890000Y58013300D01*
X-17490000Y68438300D02*
X-17540000Y68438300D01*
X28250000Y70513000D02*
X28250000Y71430000D01*
X48750000Y71700000D02*
X48760000Y71710000D01*
X54250000Y70513000D02*
X54250000Y69440000D01*
X51750000Y70513000D02*
X51750000Y71550000D01*
X51250000Y70513000D02*
X51250000Y72300000D01*
X35750000Y102513000D02*
X35750000Y101250000D01*
X42750000Y70513000D02*
X42750000Y71630000D01*
X-8390000Y52013300D02*
X-11819200Y52013300D01*
X33750000Y71430000D02*
X33930000Y71610000D01*
X-19870000Y55700000D02*
X-19870000Y56993300D01*
D36*
X-15227500Y44877500D02*
X-15230000Y44880000D01*
D34*
X21750000Y71560000D02*
X21720000Y71590000D01*
%TO.N,Net-(LED1-A)*%
D36*
X-20697500Y36630000D02*
X-20687500Y36640000D01*
D34*
X-24912500Y36640000D02*
X-24922500Y36630000D01*
D36*
X-24922500Y36630000D02*
X-20697500Y36630000D01*
%TO.N,/FC_a_P*%
D38*
X44165000Y25865000D02*
X42800000Y24500000D01*
X41704080Y19265000D02*
X43974540Y21535460D01*
X42800000Y24500000D02*
X42800000Y24400000D01*
X44165000Y23035000D02*
X44165000Y21725920D01*
X44165000Y21725920D02*
X43974540Y21535460D01*
X42800000Y24600000D02*
X42800000Y24500000D01*
X39966500Y19265000D02*
X41704080Y19265000D01*
X42800000Y24400000D02*
X44165000Y23035000D01*
X44165000Y33860000D02*
X44165000Y28700000D01*
X39700000Y19531500D02*
X39966500Y19265000D01*
X44100000Y28700000D02*
X44165000Y28700000D01*
X43200000Y34825000D02*
X44165000Y33860000D01*
X43200000Y34962500D02*
X43200000Y34825000D01*
X44165000Y28700000D02*
X44165000Y25865000D01*
X42800000Y30000000D02*
X44100000Y28700000D01*
%TO.N,/FC_b_P*%
X43200000Y37037500D02*
X43200000Y37020000D01*
X44165000Y66515920D02*
X45615000Y67965920D01*
X43200000Y42000000D02*
X43200000Y42100000D01*
X43200000Y37970000D02*
X43200000Y37037500D01*
X42040000Y35877500D02*
X42040000Y32760000D01*
X45250000Y69800499D02*
X45250000Y70513000D01*
X42020000Y39150000D02*
X43200000Y37970000D01*
X45615000Y69435499D02*
X45250000Y69800499D01*
X43200000Y42000000D02*
X44165000Y42965000D01*
X43200000Y37037500D02*
X42040000Y35877500D01*
X42040000Y32760000D02*
X42800000Y32000000D01*
X44165000Y42965000D02*
X44165000Y66515920D01*
X42020000Y40820000D02*
X42020000Y39150000D01*
X45615000Y67965920D02*
X45615000Y69435499D01*
X43200000Y42000000D02*
X42020000Y40820000D01*
%TO.N,/DOR_b_N*%
X54300000Y37037500D02*
X55490000Y35847500D01*
X55490000Y39210000D02*
X54300000Y38020000D01*
X49885000Y68585920D02*
X49885000Y69435499D01*
X55490000Y40810000D02*
X55490000Y39210000D01*
X54300000Y38020000D02*
X54300000Y37037500D01*
X53335000Y65135920D02*
X49885000Y68585920D01*
X53335000Y42965000D02*
X53335000Y65135920D01*
X50250000Y69800499D02*
X50250000Y70513000D01*
X55490000Y32790000D02*
X55490000Y35847500D01*
X54700000Y32000000D02*
X55490000Y32790000D01*
X54300000Y42000000D02*
X53335000Y42965000D01*
X49885000Y69435499D02*
X50250000Y69800499D01*
X54300000Y42000000D02*
X55490000Y40810000D01*
%TO.N,Net-(R77-Pad2)*%
D34*
X52100000Y40000000D02*
X53190000Y40000000D01*
X53190000Y38570000D02*
X53190000Y40000000D01*
X53210000Y38550000D02*
X53190000Y38570000D01*
X53190000Y40000000D02*
X54300000Y40000000D01*
%TO.N,/PWR_SRC*%
D36*
X-7080000Y30800000D02*
X-7080000Y34180000D01*
X-7370000Y30880000D02*
X-7460000Y30790000D01*
D35*
X-14890000Y39940000D02*
X-16780000Y41830000D01*
D36*
X-18687500Y36640000D02*
X-12360000Y36640000D01*
D35*
X350000Y44130000D02*
X-600000Y43180000D01*
X-12290000Y32400000D02*
X-12290000Y37340000D01*
X-12290000Y37340000D02*
X-14890000Y39940000D01*
X-16780000Y41830000D02*
X-16780000Y42600000D01*
X-600000Y34500000D02*
X-4310000Y30790000D01*
X-16780000Y42600000D02*
X-16780000Y45714100D01*
D34*
X-7070000Y30790000D02*
X-7080000Y30800000D01*
D35*
X-600000Y43180000D02*
X-600000Y34500000D01*
D36*
X-14900000Y39930000D02*
X-14890000Y39940000D01*
D35*
X-7460000Y30790000D02*
X-10680000Y30790000D01*
X-5000000Y30790000D02*
X-5500000Y30790000D01*
D36*
X-18659550Y39930000D02*
X-14900000Y39930000D01*
D35*
X-16780000Y45714100D02*
X-16780000Y48300000D01*
X-10680000Y30790000D02*
X-12290000Y32400000D01*
X-5000000Y30790000D02*
X-5000000Y28550000D01*
X-4310000Y30790000D02*
X-5500000Y30790000D01*
X-5500000Y30790000D02*
X-7070000Y30790000D01*
X-7070000Y30790000D02*
X-7460000Y30790000D01*
D36*
X-18940000Y42600000D02*
X-16780000Y42600000D01*
%TO.N,Net-(U1-EN)*%
X-18050000Y48300000D02*
X-18050000Y45490000D01*
X-18050000Y45490000D02*
X-18940000Y44600000D01*
%TO.N,/CLK40_a_N*%
D38*
X42400000Y53500000D02*
X41050000Y52150000D01*
X41035000Y43504080D02*
X41035000Y46535000D01*
X34349451Y38392500D02*
X35923420Y38392500D01*
X41050000Y52150000D02*
X41035000Y52150000D01*
X41035000Y46535000D02*
X42400000Y47900000D01*
X34082951Y38126000D02*
X34349451Y38392500D01*
X41035000Y49365000D02*
X41035000Y52150000D01*
D34*
X42400000Y48000000D02*
X42400000Y47900000D01*
D38*
X41035000Y57360000D02*
X42000000Y58325000D01*
X42400000Y48000000D02*
X41035000Y49365000D01*
X41035000Y52150000D02*
X41035000Y57360000D01*
X42400000Y48000000D02*
X42400000Y48100000D01*
X35923420Y38392500D02*
X41035000Y43504080D01*
X42000000Y58325000D02*
X42000000Y58462500D01*
%TO.N,/CLK40_b_N*%
X42250000Y70513000D02*
X42250000Y69800499D01*
X43170000Y64340000D02*
X43170000Y62660000D01*
X43150000Y64360000D02*
X43170000Y64340000D01*
X42000000Y61490000D02*
X42000000Y60537500D01*
X41885000Y69435499D02*
X41885000Y68774080D01*
X43190000Y56290000D02*
X43190000Y59347500D01*
X42000000Y65500000D02*
X42000000Y65600000D01*
X42400000Y55500000D02*
X43190000Y56290000D01*
X43170000Y62660000D02*
X42000000Y61490000D01*
X41035000Y66565000D02*
X41035000Y67924080D01*
X42000000Y65600000D02*
X41035000Y66565000D01*
X43190000Y59347500D02*
X42000000Y60537500D01*
X42000000Y65500000D02*
X43140000Y64360000D01*
X41885000Y68774080D02*
X41065460Y67954540D01*
X43140000Y64360000D02*
X43150000Y64360000D01*
X41035000Y67924080D02*
X41065460Y67954540D01*
X42250000Y69800499D02*
X41885000Y69435499D01*
%TO.N,/DOR_a_P*%
X55083500Y21075000D02*
X55350000Y20808500D01*
X53065000Y21934080D02*
X53924080Y21075000D01*
X53065000Y25865000D02*
X53065000Y28640000D01*
X52100000Y34825000D02*
X52100000Y34962500D01*
X53065000Y33860000D02*
X52100000Y34825000D01*
X53065000Y23035000D02*
X53065000Y21934080D01*
X51700000Y30000000D02*
X51705000Y30000000D01*
X51700000Y24500000D02*
X53065000Y25865000D01*
X51700000Y24400000D02*
X53065000Y23035000D01*
X53065000Y28640000D02*
X53065000Y33860000D01*
X51705000Y30000000D02*
X53065000Y28640000D01*
X51700000Y24500000D02*
X51700000Y24400000D01*
X53924080Y21075000D02*
X55083500Y21075000D01*
%TO.N,/DOR_b_P*%
X50880000Y35817500D02*
X52100000Y37037500D01*
X50910000Y40810000D02*
X50910000Y39050000D01*
X53065000Y42965000D02*
X53065000Y65024080D01*
X52100000Y37860000D02*
X52100000Y37037500D01*
X49615000Y68474080D02*
X49615000Y69435499D01*
X49250000Y69800499D02*
X49250000Y70513000D01*
X52100000Y42000000D02*
X50910000Y40810000D01*
X51700000Y32000000D02*
X50880000Y32820000D01*
X49615000Y69435499D02*
X49250000Y69800499D01*
X53065000Y65024080D02*
X49615000Y68474080D01*
X50880000Y32820000D02*
X50880000Y35817500D01*
X52100000Y42000000D02*
X53065000Y42965000D01*
X50910000Y39050000D02*
X52100000Y37860000D01*
%TO.N,Net-(R32-Pad2)*%
D34*
X40950000Y63500000D02*
X42000000Y63500000D01*
X39800000Y63500000D02*
X40950000Y63500000D01*
X40830000Y62030000D02*
X40830000Y63380000D01*
%TO.N,/DOR_a_N*%
D38*
X54700000Y24500000D02*
X53335000Y25865000D01*
X54700000Y30000000D02*
X54700000Y29985000D01*
X55083500Y21345000D02*
X55350000Y21611500D01*
X53335000Y28620000D02*
X53335000Y33860000D01*
X53335000Y25865000D02*
X53335000Y28620000D01*
X54700000Y24400000D02*
X53335000Y23035000D01*
X53335000Y33860000D02*
X54300000Y34825000D01*
X54700000Y29985000D02*
X53335000Y28620000D01*
X53335000Y23035000D02*
X53335000Y22045920D01*
X54300000Y34825000D02*
X54300000Y34962500D01*
X54035920Y21345000D02*
X55083500Y21345000D01*
X53335000Y22045920D02*
X54035920Y21345000D01*
X54700000Y24500000D02*
X54700000Y24400000D01*
%TO.N,Net-(R73-Pad1)*%
D34*
X52430000Y27230000D02*
X52430000Y27980000D01*
X54700000Y26500000D02*
X53980000Y27220000D01*
X53980000Y27220000D02*
X53980000Y27940000D01*
X51700000Y26500000D02*
X52430000Y27230000D01*
%TO.N,/DOL_a_N*%
D38*
X47885000Y22825920D02*
X49325920Y21385000D01*
X47885000Y57497500D02*
X47885000Y52130000D01*
X49250000Y53495000D02*
X47885000Y52130000D01*
X50093500Y21385000D02*
X50360000Y21651500D01*
X49250000Y48000000D02*
X49250000Y47900000D01*
X49250000Y53500000D02*
X49250000Y53495000D01*
X47885000Y49365000D02*
X49250000Y48000000D01*
X49325920Y21385000D02*
X50093500Y21385000D01*
X47885000Y52130000D02*
X47885000Y49365000D01*
X49250000Y47900000D02*
X47885000Y46535000D01*
X48850000Y58462500D02*
X47885000Y57497500D01*
X47885000Y46535000D02*
X47885000Y22825920D01*
%TO.N,Net-(R64-Pad1)*%
D34*
X49250000Y50000000D02*
X48480000Y50770000D01*
X46250000Y50000000D02*
X47040000Y50790000D01*
X48480000Y50770000D02*
X48480000Y51420000D01*
X47040000Y50790000D02*
X47040000Y51460000D01*
%TO.N,/DOL_a_P*%
D38*
X46650000Y58462500D02*
X47615000Y57497500D01*
X46250000Y53500000D02*
X46250000Y53495000D01*
X46250000Y47900000D02*
X47615000Y46535000D01*
X46250000Y53495000D02*
X47615000Y52130000D01*
X47615000Y49365000D02*
X46250000Y48000000D01*
X47615000Y57497500D02*
X47615000Y52130000D01*
X47615000Y52130000D02*
X47615000Y49365000D01*
X47615000Y46535000D02*
X47615000Y22714080D01*
X46250000Y48000000D02*
X46250000Y47900000D01*
X50093500Y21115000D02*
X50360000Y20848500D01*
X47615000Y22714080D02*
X49214080Y21115000D01*
X49214080Y21115000D02*
X50093500Y21115000D01*
%TO.N,/DOL_b_N*%
X48850000Y65490000D02*
X50000000Y64340000D01*
X50070000Y56320000D02*
X50070000Y59317500D01*
X47885000Y66465000D02*
X48850000Y65500000D01*
X48850000Y61530000D02*
X48850000Y60537500D01*
X48850000Y65500000D02*
X48850000Y65490000D01*
X48250000Y70513000D02*
X48250000Y69800499D01*
X50000000Y64340000D02*
X50000000Y62680000D01*
X50000000Y62680000D02*
X48850000Y61530000D01*
X48250000Y69800499D02*
X47885000Y69435499D01*
X50070000Y59317500D02*
X48850000Y60537500D01*
X47885000Y69435499D02*
X47885000Y66465000D01*
X49250000Y55500000D02*
X50070000Y56320000D01*
%TO.N,/1.2V*%
D34*
X53750000Y70513000D02*
X53750000Y71140000D01*
X22250000Y69390000D02*
X22220000Y69360000D01*
X22750000Y102368500D02*
X22750000Y103631500D01*
X17250000Y70513000D02*
X17250000Y71240000D01*
X47750000Y71680000D02*
X47790000Y71720000D01*
X26750000Y69838000D02*
X26302000Y69390000D01*
X32750000Y70513000D02*
X32750000Y69630000D01*
X23250000Y102368500D02*
X23250000Y104131500D01*
X30750000Y71160000D02*
X30280000Y71630000D01*
X33250000Y70513000D02*
X33250000Y70130000D01*
X17750000Y102368500D02*
X17750000Y104131500D01*
X31250000Y70513000D02*
X31250000Y71470000D01*
X39250000Y69660000D02*
X39440000Y69470000D01*
X17250000Y71240000D02*
X17600000Y71590000D01*
X39750000Y70513000D02*
X39750000Y71250000D01*
X31750000Y70513000D02*
X31750000Y71030000D01*
X44750000Y102487000D02*
X44750000Y104250000D01*
X21250000Y69470000D02*
X21220000Y69440000D01*
X38750000Y71350000D02*
X38510000Y71590000D01*
X31750000Y71030000D02*
X32400000Y71680000D01*
X32750000Y69630000D02*
X32580000Y69460000D01*
X37750000Y71470000D02*
X37620000Y71600000D01*
X46750000Y70513000D02*
X46750000Y71730000D01*
X46750000Y71730000D02*
X46740000Y71740000D01*
X44250000Y102487000D02*
X44250000Y103750000D01*
X30750000Y102487000D02*
X30750000Y103750000D01*
X39750000Y71250000D02*
X39430000Y71570000D01*
X25750000Y70513000D02*
X25750000Y69540000D01*
X32250000Y71530000D02*
X32400000Y71680000D01*
D36*
X-11660000Y43750000D02*
X-11700000Y43790000D01*
D34*
X39250000Y70513000D02*
X39250000Y69660000D01*
X24750000Y102368500D02*
X24750000Y103631500D01*
X53250000Y70513000D02*
X53250000Y71440000D01*
X26750000Y70513000D02*
X26750000Y69838000D01*
X30750000Y70513000D02*
X30750000Y71160000D01*
D36*
X-11700000Y43790000D02*
X-11700000Y43090000D01*
D34*
X39750000Y102618500D02*
X39750000Y104381500D01*
X43750000Y102487000D02*
X43750000Y104250000D01*
X17250000Y102368500D02*
X17250000Y103631500D01*
D36*
X-10000000Y43750000D02*
X-11660000Y43750000D01*
D34*
X53250000Y71440000D02*
X53430000Y71620000D01*
X39250000Y102618500D02*
X39250000Y103881500D01*
D36*
X-11700000Y43090000D02*
X-11700000Y40890000D01*
D34*
X45750000Y71700000D02*
X45760000Y71710000D01*
X25750000Y69540000D02*
X25600000Y69390000D01*
X42750000Y102487000D02*
X42750000Y104250000D01*
X-10870000Y40060000D02*
X-6000000Y40060000D01*
D36*
X-13152500Y43090000D02*
X-11700000Y43090000D01*
D34*
X52750000Y70513000D02*
X52750000Y71600000D01*
D36*
X-11700000Y40890000D02*
X-11664100Y40854100D01*
D34*
X32250000Y70513000D02*
X32250000Y71530000D01*
X53750000Y71140000D02*
X54220000Y71610000D01*
D36*
X-11450000Y40640000D02*
X-11664100Y40854100D01*
D34*
X38750000Y70513000D02*
X38750000Y71350000D01*
D36*
X-11700000Y48300000D02*
X-11680000Y48280000D01*
D34*
X23250000Y71190000D02*
X23680000Y71620000D01*
X19750000Y102368500D02*
X19750000Y104131500D01*
X21250000Y70513000D02*
X21250000Y69470000D01*
X18750000Y102368500D02*
X18750000Y104131500D01*
X43250000Y102487000D02*
X43250000Y103750000D01*
X47750000Y70513000D02*
X47750000Y71680000D01*
X41250000Y102618500D02*
X41250000Y103881500D01*
X45750000Y70513000D02*
X45750000Y71700000D01*
X-11664100Y40854100D02*
X-10870000Y40060000D01*
X33250000Y70130000D02*
X32580000Y69460000D01*
X31250000Y71470000D02*
X30330000Y72390000D01*
X52750000Y71600000D02*
X52700000Y71650000D01*
X40750000Y102618500D02*
X40750000Y104381500D01*
X23750000Y102368500D02*
X23750000Y103631500D01*
X38250000Y70513000D02*
X38250000Y69660000D01*
X24250000Y102368500D02*
X24250000Y104131500D01*
X19250000Y102368500D02*
X19250000Y103631500D01*
X20250000Y102368500D02*
X20250000Y103631500D01*
X25250000Y102368500D02*
X25250000Y104131500D01*
X18250000Y102368500D02*
X18250000Y103631500D01*
X45250000Y102513000D02*
X45250000Y103750000D01*
X25750000Y102513000D02*
X25750000Y103460000D01*
X40250000Y102618500D02*
X40250000Y103881500D01*
X26302000Y69390000D02*
X25600000Y69390000D01*
X38250000Y69660000D02*
X38420000Y69490000D01*
X25750000Y103460000D02*
X25850000Y103560000D01*
X37750000Y70513000D02*
X37750000Y71470000D01*
X22250000Y70513000D02*
X22250000Y69390000D01*
X23250000Y70513000D02*
X23250000Y71190000D01*
X16750000Y102368500D02*
X16750000Y104131500D01*
D36*
X-11700000Y48300000D02*
X-11700000Y43790000D01*
%TO.N,Net-(U1-ADJ)*%
X-7410000Y45640000D02*
X-9890000Y45640000D01*
X-10000000Y45750000D02*
X-10430000Y46180000D01*
X-9890000Y45640000D02*
X-10000000Y45750000D01*
X-10430000Y46180000D02*
X-10430000Y48300000D01*
%TO.N,/1.0V*%
D34*
X6770000Y50720000D02*
X6790000Y50700000D01*
X4630000Y50670000D02*
X4580000Y50720000D01*
X4580000Y50720000D02*
X6770000Y50720000D01*
X28925000Y57800000D02*
X22380000Y57800000D01*
X30250000Y70513000D02*
X30250000Y59125000D01*
X30250000Y59125000D02*
X28925000Y57800000D01*
%TO.N,Net-(R47-Pad1)*%
X42800000Y27370000D02*
X43440000Y28010000D01*
X42800000Y26500000D02*
X42800000Y27370000D01*
X45800000Y27240000D02*
X45060000Y27980000D01*
X45800000Y26500000D02*
X45800000Y27240000D01*
%TO.N,/Bias*%
X14773000Y70513000D02*
X7820000Y77466000D01*
D36*
X44545654Y109025000D02*
X49250000Y104320654D01*
D35*
X8300000Y106300000D02*
X7820000Y105820000D01*
D36*
X49250000Y104320654D02*
X49250000Y102513000D01*
D34*
X16250000Y70513000D02*
X14773000Y70513000D01*
D36*
X8300000Y106300000D02*
X11025000Y109025000D01*
D35*
X7820000Y105820000D02*
X7820000Y98160000D01*
D36*
X11025000Y109025000D02*
X44545654Y109025000D01*
D34*
X7820000Y77466000D02*
X7820000Y98160000D01*
%TO.N,/I2C_WS_ADD4*%
X13520000Y14390000D02*
X17750000Y18620000D01*
X17750000Y18620000D02*
X17750000Y70513000D01*
%TO.N,/I2C_WS_ADD3*%
X18250000Y15450000D02*
X17290000Y14490000D01*
X18250000Y70513000D02*
X18250000Y15450000D01*
%TO.N,/I2C_WS_ADD2*%
X15610000Y10930000D02*
X18750000Y14070000D01*
X15610000Y10930000D02*
X15590000Y10930000D01*
X15590000Y10930000D02*
X15470000Y10810000D01*
X18750000Y14070000D02*
X18750000Y70513000D01*
%TO.N,/I2C_WS_ADD1*%
X19250000Y70513000D02*
X19250000Y11230000D01*
X19250000Y11230000D02*
X18840000Y10820000D01*
%TO.N,/I2C_WS_ADD0*%
X19750000Y12850000D02*
X21890000Y10710000D01*
X19750000Y70513000D02*
X19750000Y12850000D01*
%TO.N,/SCL_WS*%
X23750000Y69181500D02*
X23500000Y68931500D01*
X23750000Y70513000D02*
X23750000Y69181500D01*
%TO.N,/SDA_WS*%
X24300000Y70594500D02*
X24250000Y70644500D01*
X24300000Y68931500D02*
X24161500Y68931500D01*
X24161500Y68931500D02*
X24160000Y68930000D01*
X24250000Y70513000D02*
X24250000Y68981500D01*
X24250000Y68981500D02*
X24300000Y68931500D01*
%TO.N,/RST_WS*%
X15152893Y9700000D02*
X11010000Y13842893D01*
X22840000Y9700000D02*
X15152893Y9700000D01*
X24750000Y70513000D02*
X24750000Y71580000D01*
X11010000Y13842893D02*
X11010000Y70790000D01*
X24750000Y71580000D02*
X24730000Y71600000D01*
%TO.N,/CLK40_b_P*%
D38*
X39800000Y65500000D02*
X38610000Y64310000D01*
X39400000Y55500000D02*
X38600000Y56300000D01*
X38610000Y62700000D02*
X39800000Y61510000D01*
X41250000Y69800499D02*
X41250000Y70513000D01*
X41615000Y68885920D02*
X41615000Y69435499D01*
X38600000Y59337500D02*
X39800000Y60537500D01*
X40765000Y68035920D02*
X41615000Y68885920D01*
X38600000Y56300000D02*
X38600000Y59337500D01*
X38610000Y64310000D02*
X38610000Y62700000D01*
X39800000Y65500000D02*
X39800000Y65600000D01*
X41615000Y69435499D02*
X41250000Y69800499D01*
X39800000Y61510000D02*
X39800000Y60537500D01*
X39800000Y65600000D02*
X40765000Y66565000D01*
X40765000Y66565000D02*
X40765000Y68035920D01*
%TO.N,/FC_b_N*%
X46550000Y39170000D02*
X45400000Y38020000D01*
X45400000Y42000000D02*
X44435000Y42965000D01*
X45400000Y42000000D02*
X46550000Y40850000D01*
X45885000Y67854080D02*
X45885000Y69435499D01*
X45885000Y69435499D02*
X46250000Y69800499D01*
X45800000Y32000000D02*
X46590000Y32790000D01*
X45400000Y42000000D02*
X45400000Y42100000D01*
X45400000Y38020000D02*
X45400000Y37037500D01*
X44435000Y66404080D02*
X45885000Y67854080D01*
X46550000Y40850000D02*
X46550000Y39170000D01*
X44435000Y42965000D02*
X44435000Y66404080D01*
X46590000Y35847500D02*
X45400000Y37037500D01*
X46590000Y32790000D02*
X46590000Y35847500D01*
X46250000Y69800499D02*
X46250000Y70513000D01*
%TO.N,/DOL_b_P*%
X45440000Y59327500D02*
X46650000Y60537500D01*
X45490000Y62660000D02*
X45480000Y62650000D01*
X46650000Y65500000D02*
X45490000Y64340000D01*
X47250000Y70513000D02*
X47250000Y69800499D01*
X46650000Y61480000D02*
X46650000Y60537500D01*
X47250000Y69800499D02*
X47615000Y69435499D01*
X47615000Y66465000D02*
X46650000Y65500000D01*
X47615000Y69435499D02*
X47615000Y66465000D01*
X45440000Y56310000D02*
X45440000Y59327500D01*
X45490000Y64340000D02*
X45490000Y62660000D01*
X45480000Y62650000D02*
X46650000Y61480000D01*
X46250000Y55500000D02*
X45440000Y56310000D01*
%TO.N,/VP*%
D34*
X52250000Y70513000D02*
X52250000Y68692500D01*
X52250000Y68692500D02*
X55442500Y65500000D01*
%TO.N,/CLK40_a_P*%
D38*
X39400000Y47900000D02*
X39400000Y48000000D01*
X39800000Y58325000D02*
X39800000Y58462500D01*
X40765000Y46535000D02*
X39400000Y47900000D01*
X40765000Y49365000D02*
X40765000Y52130000D01*
X39400000Y53495000D02*
X40765000Y52130000D01*
X34082951Y38929000D02*
X34349451Y38662500D01*
X40765000Y43615920D02*
X40765000Y46535000D01*
X34349451Y38662500D02*
X35811580Y38662500D01*
X40765000Y57360000D02*
X39800000Y58325000D01*
X39400000Y48000000D02*
X39400000Y48100000D01*
X39400000Y53500000D02*
X39400000Y53495000D01*
X39400000Y48000000D02*
X40765000Y49365000D01*
X35811580Y38662500D02*
X40765000Y43615920D01*
X40765000Y52130000D02*
X40765000Y57360000D01*
%TO.N,Net-(R19-Pad1)*%
D34*
X42400000Y50000000D02*
X41750000Y50650000D01*
X42260000Y50500000D02*
X42340000Y50420000D01*
X42340000Y50420000D02*
X42340000Y50300000D01*
X41750000Y50650000D02*
X41750000Y51440000D01*
D39*
X42370000Y50330000D02*
X42340000Y50300000D01*
D34*
X39910000Y50510000D02*
X39910000Y51510000D01*
X39400000Y50000000D02*
X39910000Y50510000D01*
%TO.N,/FC_a_N*%
D38*
X45800000Y24500000D02*
X45800000Y24400000D01*
X45800000Y30000000D02*
X45800000Y29995000D01*
X44435000Y23035000D02*
X44435000Y21614080D01*
X41815920Y18995000D02*
X44165460Y21344540D01*
X44435000Y21614080D02*
X44165460Y21344540D01*
X39966500Y18995000D02*
X41815920Y18995000D01*
X44435000Y28630000D02*
X44435000Y25965000D01*
X45400000Y34825000D02*
X44435000Y33860000D01*
X44435000Y25965000D02*
X45800000Y24600000D01*
X45800000Y29995000D02*
X44435000Y28630000D01*
X44435000Y33860000D02*
X44435000Y28630000D01*
X45800000Y24400000D02*
X44435000Y23035000D01*
X45400000Y34962500D02*
X45400000Y34825000D01*
X45800000Y24600000D02*
X45800000Y24500000D01*
X39700000Y18728500D02*
X39966500Y18995000D01*
%TO.N,/Bias_IN*%
D35*
X-8500000Y98210000D02*
X5230000Y98210000D01*
X5230000Y98210000D02*
X5280000Y98160000D01*
%TO.N,/I2C_ETR_ADD0*%
D34*
X26300000Y97310000D02*
X28250000Y99260000D01*
X28250000Y99260000D02*
X28250000Y102513000D01*
X26270000Y10290000D02*
X26270000Y46630000D01*
X26300000Y80310000D02*
X26300000Y97310000D01*
%TO.N,/I2C_ETR_ADD1*%
X30990000Y46600000D02*
X30990000Y11570000D01*
X30990000Y11570000D02*
X30080000Y10660000D01*
X28750000Y82050000D02*
X30450000Y80350000D01*
X28750000Y102513000D02*
X28750000Y82050000D01*
%TO.N,/I2C_ETR_ADD2*%
X33150000Y97270000D02*
X33150000Y80270000D01*
X33150000Y97270000D02*
X29250000Y101170000D01*
X29250000Y101170000D02*
X29250000Y102513000D01*
%TO.N,/RSTn*%
X28810000Y104480000D02*
X29750000Y103540000D01*
X8560000Y73800000D02*
X8620000Y73860000D01*
X8560000Y60960000D02*
X8560000Y73800000D01*
X8560000Y4630000D02*
X8560000Y60960000D01*
X29750000Y103540000D02*
X29750000Y102513000D01*
%TO.N,/SCL_ETROC2*%
X31250000Y101200000D02*
X31150000Y101100000D01*
X31250000Y102513000D02*
X31250000Y101200000D01*
%TO.N,/SDA_ETROC2*%
X31750000Y100250000D02*
X31800000Y100200000D01*
X31750000Y100250000D02*
X31750000Y102513000D01*
%TO.N,/I2C_ETR_ADD3*%
X32250000Y100610000D02*
X34665000Y98195000D01*
X35460000Y80380000D02*
X35530000Y80310000D01*
X38300000Y11400000D02*
X37680000Y10780000D01*
X38300000Y16290000D02*
X38300000Y11400000D01*
X35530000Y80310000D02*
X34665000Y81175000D01*
X32250000Y102513000D02*
X32250000Y100610000D01*
X35460000Y80400000D02*
X35460000Y80380000D01*
X34665000Y81175000D02*
X34665000Y98195000D01*
%TO.N,/I2C_ETR_ADD4*%
X35620000Y81530000D02*
X35620000Y98890000D01*
X36150000Y81000000D02*
X35620000Y81530000D01*
X32750000Y101760000D02*
X32750000Y102513000D01*
X35620000Y98890000D02*
X32750000Y101760000D01*
%TO.N,/3V*%
D40*
X-7590000Y28500000D02*
X-7540000Y28550000D01*
X-15100000Y28500000D02*
X-7590000Y28500000D01*
%TO.N,Net-(R68-Pad2)*%
D34*
X46650000Y63500000D02*
X47700000Y63500000D01*
X47700000Y63500000D02*
X48850000Y63500000D01*
X47700000Y62030000D02*
X47700000Y63500000D01*
%TO.N,Net-(R55-Pad2)*%
X43200000Y40000000D02*
X44350000Y40000000D01*
X44340000Y39990000D02*
X44350000Y40000000D01*
X44350000Y40000000D02*
X45400000Y40000000D01*
X44340000Y38570000D02*
X44340000Y39990000D01*
%TO.N,/2.5V*%
X26940000Y23790000D02*
X30090000Y23790000D01*
X30090000Y23790000D02*
X30170000Y23870000D01*
%TO.N,/SDA_WS_FMC*%
X24890000Y30710000D02*
X24790000Y30710000D01*
X24790000Y30710000D02*
X24790000Y21745000D01*
X24790000Y21745000D02*
X24975000Y21560000D01*
%TO.N,/SCL_WS_FMC*%
X21165000Y30345000D02*
X21420000Y30600000D01*
X21165000Y22500000D02*
X21165000Y30345000D01*
X21420000Y30600000D02*
X21890000Y30600000D01*
%TD*%
%TA.AperFunction,Conductor*%
%TO.N,GND*%
G36*
X-2822864Y80693496D02*
G01*
X-2755826Y80673809D01*
X-2710073Y80621003D01*
X-2698869Y80569585D01*
X-2677922Y50986089D01*
X-2697559Y50919038D01*
X-2750331Y50873246D01*
X-2801833Y50862004D01*
X-8891516Y50857692D01*
X-8958566Y50877328D01*
X-9004358Y50930100D01*
X-9015600Y50981691D01*
X-9015600Y54184100D01*
X-19464400Y54184100D01*
X-19464400Y50974118D01*
X-19484085Y50907079D01*
X-19536889Y50861324D01*
X-19588309Y50850118D01*
X-26649713Y50845118D01*
X-26716765Y50864755D01*
X-26762557Y50917527D01*
X-26773799Y50969123D01*
X-26773496Y58850727D01*
X-19464400Y58850727D01*
X-19464400Y54684100D01*
X-14490000Y54684100D01*
X-13990000Y54684100D01*
X-9015600Y54684100D01*
X-9015600Y58850744D01*
X-9022001Y58910272D01*
X-9022003Y58910279D01*
X-9072245Y59044986D01*
X-9072249Y59044993D01*
X-9158409Y59160087D01*
X-9158412Y59160090D01*
X-9273506Y59246250D01*
X-9273513Y59246254D01*
X-9408220Y59296496D01*
X-9408227Y59296498D01*
X-9467755Y59302899D01*
X-9467772Y59302900D01*
X-13990000Y59302900D01*
X-13990000Y54684100D01*
X-14490000Y54684100D01*
X-14490000Y59302900D01*
X-19012228Y59302900D01*
X-19012244Y59302899D01*
X-19071772Y59296498D01*
X-19071779Y59296496D01*
X-19206486Y59246254D01*
X-19206493Y59246250D01*
X-19321587Y59160090D01*
X-19321590Y59160087D01*
X-19407750Y59044993D01*
X-19407754Y59044986D01*
X-19457996Y58910279D01*
X-19457998Y58910272D01*
X-19464399Y58850744D01*
X-19464400Y58850727D01*
X-26773496Y58850727D01*
X-26773496Y58854054D01*
X-26773479Y59302900D01*
X-26773286Y64301287D01*
X-26773236Y65605082D01*
X-17885000Y65605082D01*
X-17885000Y65271517D01*
X-17852305Y64939559D01*
X-17852303Y64939546D01*
X-17787227Y64612391D01*
X-17690396Y64293178D01*
X-17562743Y63984997D01*
X-17562741Y63984992D01*
X-17405506Y63690827D01*
X-17405495Y63690809D01*
X-17220183Y63413470D01*
X-17220173Y63413456D01*
X-17061608Y63220244D01*
X-17061607Y63220243D01*
X-16019994Y64261856D01*
X-15944164Y64163032D01*
X-15765268Y63984136D01*
X-15666441Y63908304D01*
X-16708055Y62866691D01*
X-16708054Y62866690D01*
X-16514843Y62708126D01*
X-16514829Y62708116D01*
X-16237490Y62522804D01*
X-16237472Y62522793D01*
X-15943307Y62365558D01*
X-15943302Y62365556D01*
X-15635121Y62237903D01*
X-15315908Y62141072D01*
X-14988753Y62075996D01*
X-14988740Y62075994D01*
X-14656783Y62043300D01*
X-14323217Y62043300D01*
X-13991259Y62075994D01*
X-13991246Y62075996D01*
X-13664091Y62141072D01*
X-13344878Y62237903D01*
X-13036697Y62365556D01*
X-13036692Y62365558D01*
X-12742527Y62522793D01*
X-12742509Y62522804D01*
X-12465165Y62708119D01*
X-12465161Y62708122D01*
X-12271943Y62866690D01*
X-12271943Y62866691D01*
X-13313557Y63908304D01*
X-13214732Y63984136D01*
X-13035836Y64163032D01*
X-12960004Y64261857D01*
X-11918391Y63220243D01*
X-11918390Y63220243D01*
X-11759822Y63413461D01*
X-11759819Y63413465D01*
X-11574504Y63690809D01*
X-11574493Y63690827D01*
X-11417258Y63984992D01*
X-11417256Y63984997D01*
X-11289603Y64293178D01*
X-11192772Y64612391D01*
X-11127696Y64939546D01*
X-11127694Y64939559D01*
X-11095000Y65271517D01*
X-11095000Y65605082D01*
X-11127694Y65937040D01*
X-11127696Y65937053D01*
X-11192772Y66264208D01*
X-11289603Y66583421D01*
X-11417256Y66891602D01*
X-11417258Y66891607D01*
X-11574493Y67185772D01*
X-11574504Y67185790D01*
X-11759816Y67463129D01*
X-11759826Y67463143D01*
X-11918390Y67656354D01*
X-11918391Y67656355D01*
X-12960004Y66614741D01*
X-13035836Y66713568D01*
X-13214732Y66892464D01*
X-13313556Y66968294D01*
X-12271943Y68009907D01*
X-12271944Y68009908D01*
X-12465156Y68168473D01*
X-12465170Y68168483D01*
X-12742509Y68353795D01*
X-12742527Y68353806D01*
X-13036692Y68511041D01*
X-13036697Y68511043D01*
X-13344878Y68638696D01*
X-13664091Y68735527D01*
X-13991246Y68800603D01*
X-13991259Y68800605D01*
X-14323217Y68833300D01*
X-14656783Y68833300D01*
X-14988740Y68800605D01*
X-14988753Y68800603D01*
X-15315908Y68735527D01*
X-15635121Y68638696D01*
X-15943302Y68511043D01*
X-15943307Y68511041D01*
X-16237472Y68353806D01*
X-16237490Y68353795D01*
X-16514829Y68168483D01*
X-16514843Y68168473D01*
X-16708054Y68009908D01*
X-16708055Y68009907D01*
X-15666442Y66968295D01*
X-15765268Y66892464D01*
X-15944164Y66713568D01*
X-16019995Y66614742D01*
X-17061607Y67656355D01*
X-17061608Y67656354D01*
X-17220173Y67463143D01*
X-17220183Y67463129D01*
X-17405495Y67185790D01*
X-17405506Y67185772D01*
X-17562741Y66891607D01*
X-17562743Y66891602D01*
X-17690396Y66583421D01*
X-17787227Y66264208D01*
X-17852303Y65937053D01*
X-17852305Y65937040D01*
X-17885000Y65605082D01*
X-26773236Y65605082D01*
X-26773236Y65608135D01*
X-26773145Y67961098D01*
X-26772660Y80570418D01*
X-26752973Y80637456D01*
X-26700167Y80683209D01*
X-26648655Y80694413D01*
X-2822864Y80693496D01*
G37*
%TD.AperFunction*%
%TD*%
M02*
