%TF.GenerationSoftware,KiCad,Pcbnew,10.0.3*%
%TF.CreationDate,2026-07-10T13:44:16+09:00*%
%TF.ProjectId,ETROC_to_FPGA,4554524f-435f-4746-9f5f-465047412e6b,rev?*%
%TF.SameCoordinates,Original*%
%TF.FileFunction,Copper,L2,Inr*%
%TF.FilePolarity,Positive*%
%FSLAX46Y46*%
G04 Gerber Fmt 4.6, Leading zero omitted, Abs format (unit mm)*
G04 Created by KiCad (PCBNEW 10.0.3) date 2026-07-10 13:44:16*
%MOMM*%
%LPD*%
G01*
G04 APERTURE LIST*
%TA.AperFunction,ComponentPad*%
%ADD10C,5.790000*%
%TD*%
%TA.AperFunction,ComponentPad*%
%ADD11R,2.700000X2.700000*%
%TD*%
%TA.AperFunction,ComponentPad*%
%ADD12C,2.700000*%
%TD*%
%TA.AperFunction,ComponentPad*%
%ADD13R,1.700000X1.700000*%
%TD*%
%TA.AperFunction,ComponentPad*%
%ADD14C,1.700000*%
%TD*%
%TA.AperFunction,ComponentPad*%
%ADD15R,2.000000X4.000000*%
%TD*%
%TA.AperFunction,ComponentPad*%
%ADD16O,2.000000X3.300000*%
%TD*%
%TA.AperFunction,ComponentPad*%
%ADD17O,3.500000X2.000000*%
%TD*%
%TA.AperFunction,ViaPad*%
%ADD18C,0.600000*%
%TD*%
%TA.AperFunction,ViaPad*%
%ADD19C,1.200000*%
%TD*%
%TA.AperFunction,ViaPad*%
%ADD20C,1.000000*%
%TD*%
G04 APERTURE END LIST*
D10*
%TO.N,GND*%
%TO.C,U4*%
X-14490000Y65438300D03*
%TD*%
D11*
%TO.N,/Bias_IN*%
%TO.C,J1*%
X-8500000Y98210000D03*
D12*
%TO.N,GND*%
X-13580000Y103290000D03*
%TO.N,N/C*%
X-13580000Y93130000D03*
X-3420000Y93130000D03*
X-3420000Y103290000D03*
%TD*%
D13*
%TO.N,/3P3V*%
%TO.C,J4*%
X-2460000Y28550000D03*
D14*
%TO.N,/PWR_SRC*%
X-5000000Y28550000D03*
%TO.N,/3V*%
X-7540000Y28550000D03*
%TD*%
D15*
%TO.N,/3V*%
%TO.C,J2*%
X-15100000Y28500000D03*
D16*
%TO.N,GND*%
X-21100000Y28500000D03*
D17*
%TO.N,N/C*%
X-22100000Y33000000D03*
X-22100000Y24000000D03*
%TD*%
D13*
%TO.N,/Bias_IN*%
%TO.C,JP1*%
X5280000Y98160000D03*
D14*
%TO.N,/Bias*%
X7820000Y98160000D03*
%TD*%
D18*
%TO.N,GND*%
X21600000Y37300000D03*
X23655000Y5615000D03*
X27140000Y35890000D03*
D19*
X-18800000Y28475000D03*
D18*
X55780000Y68740000D03*
X29500000Y69470000D03*
X48950000Y101270000D03*
X16750000Y71650000D03*
X36390000Y9140000D03*
X49730000Y71710000D03*
X35250000Y100750000D03*
X7390000Y44150000D03*
D20*
X-13570000Y106862446D03*
D18*
X-20175000Y55975000D03*
X28160000Y46130000D03*
X-10600000Y65550000D03*
X50360000Y10820000D03*
X26250000Y100737000D03*
X47860000Y9180000D03*
X30100000Y14300000D03*
X34220000Y103760000D03*
X41920000Y71720000D03*
X26750000Y101237000D03*
X44010000Y5670000D03*
X56700000Y14300000D03*
X55500000Y10800000D03*
X34910000Y69370000D03*
X21750000Y100737000D03*
X27520000Y69490000D03*
X45325000Y5750000D03*
X31330000Y10840000D03*
X48250000Y100750000D03*
X51790000Y71590000D03*
X59010000Y65470000D03*
X21720000Y71590000D03*
X51800000Y9100000D03*
X33860000Y5790000D03*
X50720000Y71670000D03*
X37600000Y69460000D03*
X40220000Y9180000D03*
X36750000Y101250000D03*
X47750000Y101250000D03*
X10100000Y45990000D03*
X34310000Y101290000D03*
X49200000Y5875000D03*
X11940000Y14350000D03*
X36250000Y100750000D03*
X42800000Y71680000D03*
X28740000Y9010000D03*
X50600000Y5950000D03*
X37550000Y14330000D03*
X40250000Y71830000D03*
X33990000Y69400000D03*
X12290000Y10930000D03*
X-8400000Y53775000D03*
X47250000Y100750000D03*
X45750000Y101250000D03*
X33250000Y103750000D03*
X45270000Y14210000D03*
X37750000Y101250000D03*
X25560000Y72340000D03*
X41700000Y14390000D03*
X28350000Y71530000D03*
X-15230000Y44880000D03*
X43770000Y71750000D03*
X53000000Y9100000D03*
X57010000Y26960000D03*
X29180000Y71500000D03*
X28900000Y37200000D03*
X-14375000Y61525000D03*
X54200000Y10800000D03*
X33130000Y9020000D03*
X21140000Y45950000D03*
X51390000Y50540000D03*
X28570000Y69470000D03*
X27520000Y10900000D03*
X55260000Y69430000D03*
X28755000Y5715000D03*
X38750000Y101250000D03*
X15250000Y102500000D03*
X57990000Y9210000D03*
X30250000Y101237000D03*
X54750000Y68780000D03*
X34290000Y14160000D03*
X48550000Y27000000D03*
X-14525000Y69300000D03*
X18555000Y5615000D03*
X19890000Y10760000D03*
X55355000Y5655000D03*
X59300000Y5700000D03*
X22720000Y71540000D03*
X-17440000Y62538300D03*
X46750000Y101250000D03*
X46420000Y10780000D03*
X38250000Y100750000D03*
X-22104550Y39900000D03*
X-8275000Y57650000D03*
X36760000Y71610000D03*
X16820000Y34290000D03*
X-17540000Y68438300D03*
X42790000Y10910000D03*
X25010000Y9050000D03*
X27250000Y100737000D03*
X30000000Y5700000D03*
X59300000Y10900000D03*
X6490000Y40820000D03*
X25550000Y71580000D03*
X16510000Y37250000D03*
X21250000Y101237000D03*
X24955000Y5615000D03*
X12255000Y5715000D03*
X34770000Y71570000D03*
X35200000Y5730000D03*
X54110000Y5670000D03*
X54220000Y69410000D03*
X34520000Y11110000D03*
X9750000Y10900000D03*
X22400000Y14355000D03*
X38940000Y10820000D03*
X22250000Y101237000D03*
X49100000Y14200000D03*
X15400000Y14000000D03*
X9655000Y5715000D03*
X52900000Y14300000D03*
X41100000Y71750000D03*
X36720000Y69450000D03*
X43110000Y46540000D03*
X-14260000Y46300000D03*
X27650000Y71740000D03*
X-8350000Y56050000D03*
X33930000Y71610000D03*
X51260000Y72310000D03*
X-28370000Y36670000D03*
X-18375000Y65500000D03*
X23730000Y10810000D03*
X42250000Y101250000D03*
X41750000Y100750000D03*
X14755000Y5615000D03*
X44760000Y71690000D03*
X20740000Y71530000D03*
X38910000Y5670000D03*
X20750000Y100737000D03*
X19855000Y5615000D03*
X40155000Y5655000D03*
X-11640000Y62538300D03*
X35750000Y101250000D03*
X-11640000Y68338300D03*
X37250000Y100750000D03*
X44010000Y9160000D03*
X56745000Y9225000D03*
X48760000Y71710000D03*
X-20175000Y57375000D03*
X-3882500Y45660000D03*
%TO.N,/FC_a_P*%
X39700000Y19531500D03*
%TO.N,Net-(R77-Pad2)*%
X53210000Y38550000D03*
D20*
%TO.N,/PWR_SRC*%
X350000Y44130000D03*
D18*
%TO.N,/CLK40_a_N*%
X34082951Y38126000D03*
%TO.N,/DOR_a_P*%
X55350000Y20808500D03*
%TO.N,Net-(R32-Pad2)*%
X40830000Y62030000D03*
%TO.N,/DOR_a_N*%
X55350000Y21611500D03*
%TO.N,Net-(R73-Pad1)*%
X53980000Y27940000D03*
X52430000Y27980000D03*
%TO.N,/DOL_a_N*%
X50360000Y21651500D03*
%TO.N,Net-(R64-Pad1)*%
X48480000Y51420000D03*
X47040000Y51460000D03*
%TO.N,/DOL_a_P*%
X50360000Y20848500D03*
%TO.N,/1.2V*%
X39440000Y69470000D03*
X44750000Y104250000D03*
X19750000Y104131500D03*
X46740000Y71740000D03*
X20250000Y103631500D03*
X30330000Y72390000D03*
X41250000Y103881500D03*
X17250000Y103631500D03*
X53430000Y71620000D03*
X29720000Y46210000D03*
X45510000Y46510000D03*
X25600000Y69390000D03*
X22220000Y69360000D03*
X39430000Y71570000D03*
X19250000Y103631500D03*
X24250000Y104131500D03*
X23680000Y71620000D03*
X32580000Y69460000D03*
X32400000Y71680000D03*
X22750000Y103631500D03*
X18750000Y104131500D03*
X39250000Y103881500D03*
X42750000Y104250000D03*
X18250000Y103631500D03*
X30280000Y71630000D03*
X43750000Y104250000D03*
X23750000Y103631500D03*
D20*
X-11664100Y40854100D03*
D18*
X40250000Y103881500D03*
X45760000Y71710000D03*
X16750000Y104131500D03*
X47790000Y71720000D03*
X45250000Y103750000D03*
X17750000Y104131500D03*
X54220000Y71610000D03*
X38420000Y69490000D03*
X44250000Y103750000D03*
X24750000Y103631500D03*
X43250000Y103750000D03*
X25850000Y103560000D03*
X37620000Y71600000D03*
X39750000Y104381500D03*
X38510000Y71590000D03*
X49300000Y26290000D03*
X40750000Y104381500D03*
X30750000Y103750000D03*
X52700000Y71650000D03*
X36880000Y49140000D03*
X23100000Y46080000D03*
X40360000Y27040000D03*
X21220000Y69440000D03*
X17600000Y71590000D03*
X23250000Y104131500D03*
X25250000Y104131500D03*
%TO.N,/1.0V*%
X22380000Y57800000D03*
X6790000Y50700000D03*
%TO.N,Net-(R47-Pad1)*%
X43440000Y28010000D03*
X45060000Y27980000D03*
%TO.N,/I2C_WS_ADD4*%
X13520000Y14390000D03*
%TO.N,/I2C_WS_ADD3*%
X17290000Y14490000D03*
%TO.N,/I2C_WS_ADD2*%
X15470000Y10810000D03*
%TO.N,/I2C_WS_ADD1*%
X18840000Y10820000D03*
%TO.N,/I2C_WS_ADD0*%
X21890000Y10710000D03*
%TO.N,/SCL_WS*%
X23500000Y68931500D03*
%TO.N,/SDA_WS*%
X24300000Y68931500D03*
%TO.N,/RST_WS*%
X22840000Y9700000D03*
X24730000Y71600000D03*
X11010000Y70790000D03*
%TO.N,/CLK40_a_P*%
X34082951Y38929000D03*
%TO.N,Net-(R19-Pad1)*%
X39910000Y51510000D03*
X41750000Y51440000D03*
%TO.N,/FC_a_N*%
X39700000Y18728500D03*
%TO.N,/I2C_ETR_ADD0*%
X26270000Y46630000D03*
X26300000Y80310000D03*
X26270000Y10290000D03*
%TO.N,/I2C_ETR_ADD1*%
X30990000Y46600000D03*
X30080000Y10660000D03*
X30450000Y80350000D03*
%TO.N,/I2C_ETR_ADD2*%
X33150000Y80270000D03*
%TO.N,/RSTn*%
X8620000Y73860000D03*
X28810000Y104480000D03*
X8560000Y4630000D03*
%TO.N,/SCL_ETROC2*%
X31150000Y101100000D03*
%TO.N,/SDA_ETROC2*%
X31800000Y100200000D03*
%TO.N,/I2C_ETR_ADD3*%
X38300000Y16290000D03*
X35530000Y80310000D03*
X37680000Y10780000D03*
%TO.N,/I2C_ETR_ADD4*%
X36150000Y81000000D03*
%TO.N,Net-(R68-Pad2)*%
X47700000Y62030000D03*
%TO.N,Net-(R55-Pad2)*%
X44340000Y38570000D03*
%TO.N,/2.5V*%
X26940000Y23790000D03*
X30170000Y23870000D03*
%TO.N,/SDA_WS_FMC*%
X24975000Y21560000D03*
X24790000Y30710000D03*
%TO.N,/SCL_WS_FMC*%
X21890000Y30600000D03*
X21165000Y22500000D03*
%TD*%
%TA.AperFunction,Conductor*%
%TO.N,GND*%
G36*
X68004417Y119499184D02*
G01*
X68023779Y119497799D01*
X68204557Y119484869D01*
X68222068Y119482351D01*
X68413790Y119440645D01*
X68430765Y119435661D01*
X68614605Y119367093D01*
X68630699Y119359743D01*
X68802908Y119265709D01*
X68817791Y119256144D01*
X68974864Y119138561D01*
X68988235Y119126975D01*
X69126975Y118988235D01*
X69138561Y118974864D01*
X69256144Y118817791D01*
X69265709Y118802908D01*
X69359743Y118630699D01*
X69367093Y118614605D01*
X69435661Y118430765D01*
X69440645Y118413790D01*
X69482351Y118222068D01*
X69484869Y118204557D01*
X69499184Y118004419D01*
X69499500Y117995572D01*
X69499500Y2004427D01*
X69499184Y1995580D01*
X69484869Y1795442D01*
X69482351Y1777931D01*
X69440645Y1586209D01*
X69435661Y1569234D01*
X69367093Y1385394D01*
X69359743Y1369300D01*
X69265709Y1197091D01*
X69256144Y1182208D01*
X69138561Y1025135D01*
X69126975Y1011764D01*
X68988235Y873024D01*
X68974864Y861438D01*
X68817791Y743855D01*
X68802909Y734290D01*
X68630694Y640253D01*
X68614611Y632909D01*
X68430760Y564336D01*
X68413795Y559355D01*
X68222063Y517647D01*
X68204561Y515130D01*
X68011016Y501287D01*
X68004418Y500816D01*
X67995572Y500500D01*
X2004428Y500500D01*
X1995582Y500816D01*
X1989994Y501215D01*
X1795436Y515130D01*
X1777938Y517646D01*
X1586200Y559356D01*
X1569242Y564335D01*
X1385382Y632911D01*
X1369310Y640251D01*
X1197083Y734294D01*
X1182214Y743850D01*
X1025128Y861443D01*
X1011771Y873017D01*
X873017Y1011771D01*
X861443Y1025128D01*
X743850Y1182214D01*
X734294Y1197083D01*
X640251Y1369310D01*
X632911Y1385382D01*
X564335Y1569242D01*
X559356Y1586200D01*
X517646Y1777938D01*
X515130Y1795436D01*
X500815Y1995582D01*
X500500Y2004427D01*
X500500Y4708846D01*
X7759500Y4708846D01*
X7759500Y4551153D01*
X7790261Y4396510D01*
X7790264Y4396498D01*
X7850602Y4250827D01*
X7850609Y4250814D01*
X7938210Y4119711D01*
X7938213Y4119707D01*
X8049707Y4008213D01*
X8049711Y4008210D01*
X8180814Y3920609D01*
X8180827Y3920602D01*
X8326498Y3860264D01*
X8326510Y3860261D01*
X8481153Y3829500D01*
X8481158Y3829500D01*
X8638846Y3829500D01*
X8793489Y3860261D01*
X8793501Y3860264D01*
X8939172Y3920602D01*
X8939185Y3920609D01*
X9070288Y4008210D01*
X9070292Y4008213D01*
X9181786Y4119707D01*
X9181789Y4119711D01*
X9269390Y4250814D01*
X9269397Y4250827D01*
X9329735Y4396498D01*
X9329737Y4396503D01*
X9360499Y4551153D01*
X9360500Y4551155D01*
X9360500Y4708844D01*
X9360499Y4708846D01*
X9329737Y4863497D01*
X9269394Y5009179D01*
X9181789Y5140289D01*
X9070289Y5251789D01*
X8939179Y5339394D01*
X8793497Y5399737D01*
X8716520Y5415048D01*
X8638845Y5430500D01*
X8638842Y5430500D01*
X8481158Y5430500D01*
X8481155Y5430500D01*
X8387858Y5411941D01*
X8326503Y5399737D01*
X8326498Y5399735D01*
X8180827Y5339397D01*
X8180814Y5339390D01*
X8049711Y5251789D01*
X8049707Y5251786D01*
X7938213Y5140292D01*
X7938210Y5140288D01*
X7850609Y5009185D01*
X7850602Y5009172D01*
X7790264Y4863501D01*
X7790261Y4863489D01*
X7759500Y4708846D01*
X500500Y4708846D01*
X500500Y11175961D01*
X1408500Y11175961D01*
X1408500Y10924038D01*
X1447910Y10675214D01*
X1525760Y10435616D01*
X1640132Y10211151D01*
X1788201Y10007350D01*
X1788205Y10007345D01*
X1966345Y9829205D01*
X1966350Y9829201D01*
X2170151Y9681132D01*
X2394616Y9566760D01*
X2634214Y9488910D01*
X2758626Y9469205D01*
X2883038Y9449500D01*
X2883039Y9449500D01*
X3134961Y9449500D01*
X3134962Y9449500D01*
X3383785Y9488910D01*
X3385601Y9489500D01*
X3623383Y9566760D01*
X3777747Y9645413D01*
X3847845Y9681130D01*
X3931224Y9741708D01*
X4051649Y9829201D01*
X4051654Y9829205D01*
X4229794Y10007345D01*
X4229798Y10007350D01*
X4377867Y10211151D01*
X4377870Y10211155D01*
X4450747Y10354184D01*
X4492239Y10435616D01*
X4493931Y10440821D01*
X4553796Y10625066D01*
X4570090Y10675214D01*
X4603926Y10888846D01*
X14669500Y10888846D01*
X14669500Y10731153D01*
X14700261Y10576510D01*
X14700264Y10576498D01*
X14760602Y10430827D01*
X14760609Y10430814D01*
X14848210Y10299711D01*
X14848213Y10299707D01*
X14959707Y10188213D01*
X14959711Y10188210D01*
X15090814Y10100609D01*
X15090827Y10100602D01*
X15236498Y10040264D01*
X15236510Y10040261D01*
X15391153Y10009500D01*
X15391158Y10009500D01*
X15548846Y10009500D01*
X15703489Y10040261D01*
X15703501Y10040264D01*
X15849172Y10100602D01*
X15849185Y10100609D01*
X15980288Y10188210D01*
X15980292Y10188213D01*
X16091786Y10299707D01*
X16091789Y10299711D01*
X16179390Y10430814D01*
X16179397Y10430827D01*
X16239735Y10576498D01*
X16239737Y10576503D01*
X16270499Y10731153D01*
X16270500Y10731155D01*
X16270500Y10888839D01*
X16270500Y10888842D01*
X16268510Y10898846D01*
X18039500Y10898846D01*
X18039500Y10741153D01*
X18070261Y10586510D01*
X18070264Y10586498D01*
X18130602Y10440827D01*
X18130609Y10440814D01*
X18218210Y10309711D01*
X18218213Y10309707D01*
X18329707Y10198213D01*
X18329711Y10198210D01*
X18460814Y10110609D01*
X18460827Y10110602D01*
X18606498Y10050264D01*
X18606510Y10050261D01*
X18761153Y10019500D01*
X18761158Y10019500D01*
X18918846Y10019500D01*
X19073489Y10050261D01*
X19073501Y10050264D01*
X19219172Y10110602D01*
X19219185Y10110609D01*
X19350288Y10198210D01*
X19350292Y10198213D01*
X19461786Y10309707D01*
X19461789Y10309711D01*
X19549390Y10440814D01*
X19549397Y10440827D01*
X19609735Y10586498D01*
X19609737Y10586503D01*
X19640499Y10741153D01*
X19640500Y10741155D01*
X19640500Y10788846D01*
X21089500Y10788846D01*
X21089500Y10631153D01*
X21120261Y10476510D01*
X21120264Y10476498D01*
X21180602Y10330827D01*
X21180609Y10330814D01*
X21268210Y10199711D01*
X21268213Y10199707D01*
X21379707Y10088213D01*
X21379711Y10088210D01*
X21510814Y10000609D01*
X21510827Y10000602D01*
X21656498Y9940264D01*
X21656510Y9940261D01*
X21811153Y9909500D01*
X21915556Y9909500D01*
X21982595Y9889815D01*
X22028350Y9837011D01*
X22037016Y9784934D01*
X22039500Y9784934D01*
X22039500Y9621153D01*
X22070261Y9466510D01*
X22070264Y9466498D01*
X22130602Y9320827D01*
X22130609Y9320814D01*
X22218210Y9189711D01*
X22218213Y9189707D01*
X22329707Y9078213D01*
X22329711Y9078210D01*
X22460814Y8990609D01*
X22460827Y8990602D01*
X22606498Y8930264D01*
X22606510Y8930261D01*
X22761153Y8899500D01*
X22761158Y8899500D01*
X22918846Y8899500D01*
X23073489Y8930261D01*
X23073501Y8930264D01*
X23219172Y8990602D01*
X23219185Y8990609D01*
X23350288Y9078210D01*
X23350292Y9078213D01*
X23461786Y9189707D01*
X23461789Y9189711D01*
X23549390Y9320814D01*
X23549397Y9320827D01*
X23609735Y9466498D01*
X23609737Y9466503D01*
X23640499Y9621153D01*
X23640500Y9621155D01*
X23640500Y9778844D01*
X23640499Y9778846D01*
X23630482Y9829205D01*
X23609737Y9933497D01*
X23549394Y10079179D01*
X23461789Y10210289D01*
X23460920Y10211158D01*
X23384826Y10287253D01*
X23350292Y10321786D01*
X23350289Y10321789D01*
X23279863Y10368846D01*
X25469500Y10368846D01*
X25469500Y10211153D01*
X25500261Y10056510D01*
X25500264Y10056498D01*
X25560602Y9910827D01*
X25560609Y9910814D01*
X25648210Y9779711D01*
X25648213Y9779707D01*
X25759707Y9668213D01*
X25759711Y9668210D01*
X25890814Y9580609D01*
X25890827Y9580602D01*
X26036498Y9520264D01*
X26036510Y9520261D01*
X26191153Y9489500D01*
X26191158Y9489500D01*
X26348846Y9489500D01*
X26503489Y9520261D01*
X26503501Y9520264D01*
X26649172Y9580602D01*
X26649185Y9580609D01*
X26780288Y9668210D01*
X26780292Y9668213D01*
X26891786Y9779707D01*
X26891789Y9779711D01*
X26979390Y9910814D01*
X26979397Y9910827D01*
X27039735Y10056498D01*
X27039737Y10056503D01*
X27070499Y10211153D01*
X27070500Y10211155D01*
X27070500Y10368844D01*
X27070499Y10368846D01*
X27064139Y10400821D01*
X27039737Y10523497D01*
X26979394Y10669179D01*
X26975361Y10675215D01*
X26974809Y10676042D01*
X26974808Y10676042D01*
X26974808Y10676043D01*
X26937981Y10731158D01*
X26932844Y10738846D01*
X29279500Y10738846D01*
X29279500Y10581153D01*
X29310261Y10426510D01*
X29310264Y10426498D01*
X29370602Y10280827D01*
X29370609Y10280814D01*
X29458210Y10149711D01*
X29458213Y10149707D01*
X29569707Y10038213D01*
X29569711Y10038210D01*
X29700814Y9950609D01*
X29700827Y9950602D01*
X29846498Y9890264D01*
X29846510Y9890261D01*
X30001153Y9859500D01*
X30001158Y9859500D01*
X30158846Y9859500D01*
X30313489Y9890261D01*
X30313501Y9890264D01*
X30459172Y9950602D01*
X30459185Y9950609D01*
X30590288Y10038210D01*
X30590292Y10038213D01*
X30701786Y10149707D01*
X30701789Y10149711D01*
X30789390Y10280814D01*
X30789397Y10280827D01*
X30849735Y10426498D01*
X30849737Y10426503D01*
X30880499Y10581153D01*
X30880500Y10581155D01*
X30880500Y10738844D01*
X30860231Y10840742D01*
X30860231Y10840743D01*
X30856629Y10858846D01*
X36879500Y10858846D01*
X36879500Y10701153D01*
X36910261Y10546510D01*
X36910264Y10546498D01*
X36970602Y10400827D01*
X36970609Y10400814D01*
X37058210Y10269711D01*
X37058213Y10269707D01*
X37169707Y10158213D01*
X37169711Y10158210D01*
X37300814Y10070609D01*
X37300827Y10070602D01*
X37446498Y10010264D01*
X37446510Y10010261D01*
X37601153Y9979500D01*
X37601158Y9979500D01*
X37758846Y9979500D01*
X37913489Y10010261D01*
X37913501Y10010264D01*
X38059172Y10070602D01*
X38059185Y10070609D01*
X38084042Y10087218D01*
X60803500Y10087218D01*
X60803500Y9912781D01*
X60837527Y9741716D01*
X60837529Y9741708D01*
X60904278Y9580560D01*
X60904283Y9580551D01*
X61001186Y9435526D01*
X61001189Y9435522D01*
X61124522Y9312189D01*
X61124526Y9312186D01*
X61269551Y9215283D01*
X61269560Y9215278D01*
X61430708Y9148529D01*
X61430716Y9148527D01*
X61601781Y9114500D01*
X61601786Y9114500D01*
X61776218Y9114500D01*
X61947283Y9148527D01*
X61947291Y9148529D01*
X62108439Y9215278D01*
X62108448Y9215283D01*
X62253473Y9312186D01*
X62253477Y9312189D01*
X62376810Y9435522D01*
X62376813Y9435526D01*
X62473716Y9580551D01*
X62473721Y9580560D01*
X62490537Y9621158D01*
X62540471Y9741709D01*
X62574500Y9912786D01*
X62574500Y10087214D01*
X62540471Y10258291D01*
X62473720Y10419442D01*
X62376813Y10564474D01*
X62253474Y10687813D01*
X62108442Y10784720D01*
X61947291Y10851471D01*
X61776216Y10885499D01*
X61776215Y10885500D01*
X61776214Y10885500D01*
X61601786Y10885500D01*
X61601785Y10885500D01*
X61601781Y10885499D01*
X61430709Y10851471D01*
X61307152Y10800292D01*
X61269560Y10784721D01*
X61269551Y10784716D01*
X61124526Y10687813D01*
X61124522Y10687810D01*
X61001189Y10564477D01*
X61001186Y10564473D01*
X60904283Y10419448D01*
X60904278Y10419439D01*
X60837529Y10258291D01*
X60837527Y10258283D01*
X60803500Y10087218D01*
X38084042Y10087218D01*
X38190288Y10158210D01*
X38190292Y10158213D01*
X38301786Y10269707D01*
X38301789Y10269711D01*
X38389390Y10400814D01*
X38389397Y10400827D01*
X38449735Y10546498D01*
X38449737Y10546503D01*
X38480499Y10701153D01*
X38480500Y10701155D01*
X38480500Y10858844D01*
X38480499Y10858846D01*
X38449737Y11013497D01*
X38430584Y11059737D01*
X38400080Y11133382D01*
X38389395Y11159176D01*
X38389394Y11159179D01*
X38378181Y11175961D01*
X64388500Y11175961D01*
X64388500Y10924038D01*
X64427910Y10675214D01*
X64505760Y10435616D01*
X64620132Y10211151D01*
X64768201Y10007350D01*
X64768205Y10007345D01*
X64946345Y9829205D01*
X64946350Y9829201D01*
X65150151Y9681132D01*
X65374616Y9566760D01*
X65614214Y9488910D01*
X65738626Y9469205D01*
X65863038Y9449500D01*
X65863039Y9449500D01*
X66114961Y9449500D01*
X66114962Y9449500D01*
X66363785Y9488910D01*
X66365601Y9489500D01*
X66603383Y9566760D01*
X66757747Y9645413D01*
X66827845Y9681130D01*
X66911224Y9741708D01*
X67031649Y9829201D01*
X67031654Y9829205D01*
X67209794Y10007345D01*
X67209798Y10007350D01*
X67357867Y10211151D01*
X67357870Y10211155D01*
X67430747Y10354184D01*
X67472239Y10435616D01*
X67473928Y10440814D01*
X67550090Y10675215D01*
X67589500Y10924038D01*
X67589500Y11175962D01*
X67550090Y11424785D01*
X67472241Y11664379D01*
X67357870Y11888845D01*
X67209793Y12092656D01*
X67031656Y12270793D01*
X66827845Y12418870D01*
X66603379Y12533241D01*
X66363785Y12611090D01*
X66114962Y12650500D01*
X65863038Y12650500D01*
X65614215Y12611090D01*
X65374621Y12533241D01*
X65374618Y12533239D01*
X65374616Y12533239D01*
X65293184Y12491747D01*
X65150155Y12418870D01*
X65150151Y12418867D01*
X64946350Y12270798D01*
X64946345Y12270794D01*
X64768205Y12092654D01*
X64768201Y12092649D01*
X64620132Y11888848D01*
X64505760Y11664383D01*
X64433435Y11441789D01*
X64427910Y11424785D01*
X64390594Y11189179D01*
X64388500Y11175961D01*
X38378181Y11175961D01*
X38301789Y11290289D01*
X38190289Y11401789D01*
X38059179Y11489394D01*
X37913497Y11549737D01*
X37836520Y11565048D01*
X37758845Y11580500D01*
X37758842Y11580500D01*
X37601158Y11580500D01*
X37601155Y11580500D01*
X37507858Y11561941D01*
X37446503Y11549737D01*
X37446498Y11549735D01*
X37300827Y11489397D01*
X37300814Y11489390D01*
X37169711Y11401789D01*
X37169707Y11401786D01*
X37058213Y11290292D01*
X37058210Y11290288D01*
X36970609Y11159185D01*
X36970602Y11159172D01*
X36910264Y11013501D01*
X36910261Y11013489D01*
X36879500Y10858846D01*
X30856629Y10858846D01*
X30855391Y10865067D01*
X30849737Y10893497D01*
X30789394Y11039179D01*
X30701789Y11170289D01*
X30590289Y11281789D01*
X30459179Y11369394D01*
X30313497Y11429737D01*
X30236520Y11445048D01*
X30158845Y11460500D01*
X30158842Y11460500D01*
X30001158Y11460500D01*
X30001155Y11460500D01*
X29907858Y11441941D01*
X29846503Y11429737D01*
X29846498Y11429735D01*
X29700827Y11369397D01*
X29700814Y11369390D01*
X29569711Y11281789D01*
X29569707Y11281786D01*
X29458213Y11170292D01*
X29458210Y11170288D01*
X29370609Y11039185D01*
X29370602Y11039172D01*
X29310264Y10893501D01*
X29310261Y10893489D01*
X29279500Y10738846D01*
X26932844Y10738846D01*
X26891789Y10800289D01*
X26780289Y10911789D01*
X26649179Y10999394D01*
X26503497Y11059737D01*
X26426520Y11075048D01*
X26348845Y11090500D01*
X26348842Y11090500D01*
X26191158Y11090500D01*
X26191155Y11090500D01*
X26097858Y11071941D01*
X26036503Y11059737D01*
X26036498Y11059735D01*
X25890827Y10999397D01*
X25890814Y10999390D01*
X25759711Y10911789D01*
X25759707Y10911786D01*
X25648213Y10800292D01*
X25648210Y10800288D01*
X25560609Y10669185D01*
X25560602Y10669172D01*
X25500264Y10523501D01*
X25500261Y10523489D01*
X25469500Y10368846D01*
X23279863Y10368846D01*
X23219179Y10409394D01*
X23073497Y10469737D01*
X22996520Y10485048D01*
X22918845Y10500500D01*
X22918842Y10500500D01*
X22814444Y10500500D01*
X22747405Y10520185D01*
X22701650Y10572989D01*
X22692984Y10625066D01*
X22690500Y10625066D01*
X22690500Y10788844D01*
X22690499Y10788846D01*
X22676576Y10858842D01*
X22659737Y10943497D01*
X22599394Y11089179D01*
X22511789Y11220289D01*
X22400289Y11331789D01*
X22269179Y11419394D01*
X22123497Y11479737D01*
X22046520Y11495048D01*
X21968845Y11510500D01*
X21968842Y11510500D01*
X21811158Y11510500D01*
X21811155Y11510500D01*
X21717858Y11491941D01*
X21656503Y11479737D01*
X21656498Y11479735D01*
X21510827Y11419397D01*
X21510814Y11419390D01*
X21379711Y11331789D01*
X21379707Y11331786D01*
X21268213Y11220292D01*
X21268210Y11220288D01*
X21180609Y11089185D01*
X21180602Y11089172D01*
X21120264Y10943501D01*
X21120261Y10943489D01*
X21089500Y10788846D01*
X19640500Y10788846D01*
X19640500Y10898844D01*
X19640499Y10898846D01*
X19637925Y10911786D01*
X19609737Y11053497D01*
X19549394Y11199179D01*
X19461789Y11330289D01*
X19350289Y11441789D01*
X19219179Y11529394D01*
X19073497Y11589737D01*
X18996520Y11605048D01*
X18918845Y11620500D01*
X18918842Y11620500D01*
X18761158Y11620500D01*
X18761155Y11620500D01*
X18667858Y11601941D01*
X18606503Y11589737D01*
X18606498Y11589735D01*
X18460827Y11529397D01*
X18460814Y11529390D01*
X18329711Y11441789D01*
X18329707Y11441786D01*
X18218213Y11330292D01*
X18218210Y11330288D01*
X18130609Y11199185D01*
X18130602Y11199172D01*
X18070264Y11053501D01*
X18070261Y11053489D01*
X18039500Y10898846D01*
X16268510Y10898846D01*
X16239737Y11043497D01*
X16179394Y11189179D01*
X16091789Y11320289D01*
X15980289Y11431789D01*
X15849179Y11519394D01*
X15825029Y11529397D01*
X15816166Y11533067D01*
X15703497Y11579737D01*
X15626520Y11595048D01*
X15548845Y11610500D01*
X15548842Y11610500D01*
X15391158Y11610500D01*
X15391155Y11610500D01*
X15297858Y11591941D01*
X15236503Y11579737D01*
X15236498Y11579735D01*
X15090827Y11519397D01*
X15090814Y11519390D01*
X14959711Y11431789D01*
X14959707Y11431786D01*
X14848213Y11320292D01*
X14848210Y11320288D01*
X14760609Y11189185D01*
X14760602Y11189172D01*
X14700264Y11043501D01*
X14700261Y11043489D01*
X14669500Y10888846D01*
X4603926Y10888846D01*
X4607963Y10914332D01*
X4609500Y10924040D01*
X4609500Y11175961D01*
X4607408Y11189172D01*
X4570090Y11424785D01*
X4492241Y11664379D01*
X4377870Y11888845D01*
X4229793Y12092656D01*
X4051656Y12270793D01*
X3847845Y12418870D01*
X3623379Y12533241D01*
X3383785Y12611090D01*
X3134962Y12650500D01*
X2883038Y12650500D01*
X2634215Y12611090D01*
X2394621Y12533241D01*
X2394618Y12533239D01*
X2394616Y12533239D01*
X2313184Y12491747D01*
X2170155Y12418870D01*
X2170151Y12418867D01*
X1966350Y12270798D01*
X1966345Y12270794D01*
X1788205Y12092654D01*
X1788201Y12092649D01*
X1640132Y11888848D01*
X1525760Y11664383D01*
X1453435Y11441789D01*
X1447910Y11424785D01*
X1410594Y11189179D01*
X1408500Y11175961D01*
X500500Y11175961D01*
X500500Y13137218D01*
X6423500Y13137218D01*
X6423500Y12962781D01*
X6457527Y12791716D01*
X6457529Y12791708D01*
X6524278Y12630560D01*
X6524283Y12630551D01*
X6621186Y12485526D01*
X6621189Y12485522D01*
X6744522Y12362189D01*
X6744526Y12362186D01*
X6889551Y12265283D01*
X6889560Y12265278D01*
X7050708Y12198529D01*
X7050716Y12198527D01*
X7221781Y12164500D01*
X7221786Y12164500D01*
X7396218Y12164500D01*
X7567283Y12198527D01*
X7567291Y12198529D01*
X7728439Y12265278D01*
X7728448Y12265283D01*
X7873473Y12362186D01*
X7873477Y12362189D01*
X7996810Y12485522D01*
X7996813Y12485526D01*
X8093716Y12630551D01*
X8093721Y12630560D01*
X8108842Y12667066D01*
X8160471Y12791709D01*
X8194500Y12962786D01*
X8194500Y13137214D01*
X8160471Y13308291D01*
X8093720Y13469442D01*
X7996813Y13614474D01*
X7873474Y13737813D01*
X7728442Y13834720D01*
X7567291Y13901471D01*
X7396216Y13935499D01*
X7396215Y13935500D01*
X7396214Y13935500D01*
X7221786Y13935500D01*
X7221785Y13935500D01*
X7221781Y13935499D01*
X7050709Y13901471D01*
X6970410Y13868210D01*
X6889560Y13834721D01*
X6889551Y13834716D01*
X6744526Y13737813D01*
X6744522Y13737810D01*
X6621189Y13614477D01*
X6621186Y13614473D01*
X6524283Y13469448D01*
X6524278Y13469439D01*
X6457529Y13308291D01*
X6457527Y13308283D01*
X6423500Y13137218D01*
X500500Y13137218D01*
X500500Y14468846D01*
X12719500Y14468846D01*
X12719500Y14311153D01*
X12750261Y14156510D01*
X12750264Y14156498D01*
X12810602Y14010827D01*
X12810609Y14010814D01*
X12898210Y13879711D01*
X12898213Y13879707D01*
X13009707Y13768213D01*
X13009711Y13768210D01*
X13140814Y13680609D01*
X13140827Y13680602D01*
X13286498Y13620264D01*
X13286510Y13620261D01*
X13441153Y13589500D01*
X13441158Y13589500D01*
X13598846Y13589500D01*
X13753489Y13620261D01*
X13753501Y13620264D01*
X13899172Y13680602D01*
X13899185Y13680609D01*
X14030288Y13768210D01*
X14030292Y13768213D01*
X14141786Y13879707D01*
X14141789Y13879711D01*
X14229390Y14010814D01*
X14229397Y14010827D01*
X14289735Y14156498D01*
X14289737Y14156503D01*
X14320499Y14311153D01*
X14320500Y14311155D01*
X14320500Y14468844D01*
X14304209Y14550742D01*
X14304209Y14550743D01*
X14300608Y14568846D01*
X16489500Y14568846D01*
X16489500Y14411153D01*
X16520261Y14256510D01*
X16520264Y14256498D01*
X16580602Y14110827D01*
X16580609Y14110814D01*
X16668210Y13979711D01*
X16668213Y13979707D01*
X16779707Y13868213D01*
X16779711Y13868210D01*
X16910814Y13780609D01*
X16910827Y13780602D01*
X17056498Y13720264D01*
X17056510Y13720261D01*
X17211153Y13689500D01*
X17211158Y13689500D01*
X17368846Y13689500D01*
X17523489Y13720261D01*
X17523501Y13720264D01*
X17669172Y13780602D01*
X17669185Y13780609D01*
X17800288Y13868210D01*
X17800292Y13868213D01*
X17911786Y13979707D01*
X17911789Y13979711D01*
X17999390Y14110814D01*
X17999397Y14110827D01*
X18059735Y14256498D01*
X18059737Y14256503D01*
X18090499Y14411153D01*
X18090500Y14411155D01*
X18090500Y14568844D01*
X18090499Y14568846D01*
X18079628Y14623497D01*
X18059737Y14723497D01*
X17999394Y14869179D01*
X17911789Y15000289D01*
X17800289Y15111789D01*
X17669179Y15199394D01*
X17523497Y15259737D01*
X17446520Y15275048D01*
X17368845Y15290500D01*
X17368842Y15290500D01*
X17211158Y15290500D01*
X17211155Y15290500D01*
X17117858Y15271941D01*
X17056503Y15259737D01*
X17056498Y15259735D01*
X16910827Y15199397D01*
X16910814Y15199390D01*
X16779711Y15111789D01*
X16779707Y15111786D01*
X16668213Y15000292D01*
X16668210Y15000288D01*
X16580609Y14869185D01*
X16580602Y14869172D01*
X16520264Y14723501D01*
X16520261Y14723489D01*
X16489500Y14568846D01*
X14300608Y14568846D01*
X14300133Y14571233D01*
X14289737Y14623497D01*
X14229394Y14769179D01*
X14141789Y14900289D01*
X14030289Y15011789D01*
X13899179Y15099394D01*
X13753497Y15159737D01*
X13676520Y15175048D01*
X13598845Y15190500D01*
X13598842Y15190500D01*
X13441158Y15190500D01*
X13441155Y15190500D01*
X13347858Y15171941D01*
X13286503Y15159737D01*
X13286498Y15159735D01*
X13140827Y15099397D01*
X13140814Y15099390D01*
X13009711Y15011789D01*
X13009707Y15011786D01*
X12898213Y14900292D01*
X12898210Y14900288D01*
X12810609Y14769185D01*
X12810602Y14769172D01*
X12750264Y14623501D01*
X12750261Y14623489D01*
X12719500Y14468846D01*
X500500Y14468846D01*
X500500Y16368846D01*
X37499500Y16368846D01*
X37499500Y16211153D01*
X37530261Y16056510D01*
X37530264Y16056498D01*
X37590602Y15910827D01*
X37590609Y15910814D01*
X37678210Y15779711D01*
X37678213Y15779707D01*
X37789707Y15668213D01*
X37789711Y15668210D01*
X37920814Y15580609D01*
X37920827Y15580602D01*
X38066498Y15520264D01*
X38066510Y15520261D01*
X38221153Y15489500D01*
X38221158Y15489500D01*
X38378846Y15489500D01*
X38533489Y15520261D01*
X38533501Y15520264D01*
X38679172Y15580602D01*
X38679185Y15580609D01*
X38810288Y15668210D01*
X38810292Y15668213D01*
X38921786Y15779707D01*
X38921789Y15779711D01*
X39009390Y15910814D01*
X39009397Y15910827D01*
X39069735Y16056498D01*
X39069737Y16056503D01*
X39100499Y16211153D01*
X39100500Y16211155D01*
X39100500Y16368844D01*
X39100499Y16368846D01*
X39069737Y16523497D01*
X39009394Y16669179D01*
X38921789Y16800289D01*
X38810289Y16911789D01*
X38679179Y16999394D01*
X38533497Y17059737D01*
X38456520Y17075048D01*
X38378845Y17090500D01*
X38378842Y17090500D01*
X38221158Y17090500D01*
X38221155Y17090500D01*
X38127858Y17071941D01*
X38066503Y17059737D01*
X38066498Y17059735D01*
X37920827Y16999397D01*
X37920814Y16999390D01*
X37789711Y16911789D01*
X37789707Y16911786D01*
X37678213Y16800292D01*
X37678210Y16800288D01*
X37590609Y16669185D01*
X37590602Y16669172D01*
X37530264Y16523501D01*
X37530261Y16523489D01*
X37499500Y16368846D01*
X500500Y16368846D01*
X500500Y19151254D01*
X492954Y19213401D01*
X464037Y19451551D01*
X424898Y19610346D01*
X38899500Y19610346D01*
X38899500Y19452653D01*
X38930261Y19298010D01*
X38930264Y19297998D01*
X38980196Y19177452D01*
X38987665Y19107983D01*
X38980196Y19082548D01*
X38930264Y18962001D01*
X38930261Y18961989D01*
X38899500Y18807346D01*
X38899500Y18649653D01*
X38930261Y18495010D01*
X38930264Y18494998D01*
X38990602Y18349327D01*
X38990609Y18349314D01*
X39078210Y18218211D01*
X39078213Y18218207D01*
X39189707Y18106713D01*
X39189711Y18106710D01*
X39320814Y18019109D01*
X39320827Y18019102D01*
X39466498Y17958764D01*
X39466510Y17958761D01*
X39621153Y17928000D01*
X39621158Y17928000D01*
X39778846Y17928000D01*
X39933489Y17958761D01*
X39933501Y17958764D01*
X40079172Y18019102D01*
X40079185Y18019109D01*
X40210288Y18106710D01*
X40210292Y18106713D01*
X40321786Y18218207D01*
X40321789Y18218211D01*
X40409390Y18349314D01*
X40409397Y18349327D01*
X40469735Y18494998D01*
X40469737Y18495003D01*
X40500499Y18649653D01*
X40500500Y18649655D01*
X40500500Y18807344D01*
X40500499Y18807346D01*
X40469737Y18961997D01*
X40419804Y19082548D01*
X40412335Y19152017D01*
X40419804Y19177452D01*
X40469735Y19297998D01*
X40469737Y19298003D01*
X40500499Y19452653D01*
X40500500Y19452655D01*
X40500500Y19610344D01*
X40500499Y19610346D01*
X40497999Y19622915D01*
X40469737Y19764997D01*
X40409394Y19910679D01*
X40321789Y20041789D01*
X40210289Y20153289D01*
X40079179Y20240894D01*
X39933497Y20301237D01*
X39856520Y20316548D01*
X39778845Y20332000D01*
X39778842Y20332000D01*
X39621158Y20332000D01*
X39621155Y20332000D01*
X39527858Y20313441D01*
X39466503Y20301237D01*
X39466498Y20301235D01*
X39320827Y20240897D01*
X39320814Y20240890D01*
X39189711Y20153289D01*
X39189707Y20153286D01*
X39078213Y20041792D01*
X39078210Y20041788D01*
X38990609Y19910685D01*
X38990602Y19910672D01*
X38930264Y19765001D01*
X38930261Y19764989D01*
X38899500Y19610346D01*
X424898Y19610346D01*
X391643Y19745266D01*
X284373Y20028113D01*
X143793Y20295968D01*
X-28050Y20544924D01*
X-54693Y20574998D01*
X-228646Y20771351D01*
X-228648Y20771353D01*
X-455070Y20971945D01*
X-455071Y20971946D01*
X-455076Y20971950D01*
X-704032Y21143793D01*
X-971887Y21284373D01*
X-1218768Y21378003D01*
X-1254728Y21391641D01*
X-1254730Y21391641D01*
X-1254734Y21391643D01*
X-1548449Y21464037D01*
X-1799661Y21494539D01*
X-1848746Y21500500D01*
X-1848748Y21500500D01*
X-1934108Y21500500D01*
X-27995572Y21500500D01*
X-28004418Y21500816D01*
X-28011016Y21501287D01*
X-28204561Y21515130D01*
X-28222063Y21517647D01*
X-28413795Y21559355D01*
X-28430760Y21564336D01*
X-28614611Y21632909D01*
X-28627613Y21638846D01*
X24174500Y21638846D01*
X24174500Y21481153D01*
X24205261Y21326510D01*
X24205264Y21326498D01*
X24265602Y21180827D01*
X24265609Y21180814D01*
X24353210Y21049711D01*
X24353213Y21049707D01*
X24464707Y20938213D01*
X24464711Y20938210D01*
X24595814Y20850609D01*
X24595827Y20850602D01*
X24741498Y20790264D01*
X24741510Y20790261D01*
X24896153Y20759500D01*
X24896158Y20759500D01*
X25053846Y20759500D01*
X25208489Y20790261D01*
X25208501Y20790264D01*
X25354172Y20850602D01*
X25354185Y20850609D01*
X25485288Y20938210D01*
X25485292Y20938213D01*
X25596786Y21049707D01*
X25596789Y21049711D01*
X25684390Y21180814D01*
X25684397Y21180827D01*
X25744735Y21326498D01*
X25744737Y21326503D01*
X25775499Y21481153D01*
X25775500Y21481155D01*
X25775500Y21638844D01*
X25760900Y21712242D01*
X25760900Y21712243D01*
X25757299Y21730346D01*
X49559500Y21730346D01*
X49559500Y21572653D01*
X49590261Y21418010D01*
X49590264Y21417998D01*
X49640196Y21297452D01*
X49647665Y21227983D01*
X49640196Y21202548D01*
X49590264Y21082001D01*
X49590261Y21081989D01*
X49559500Y20927346D01*
X49559500Y20769653D01*
X49590261Y20615010D01*
X49590264Y20614998D01*
X49650602Y20469327D01*
X49650609Y20469314D01*
X49738210Y20338211D01*
X49738213Y20338207D01*
X49849707Y20226713D01*
X49849711Y20226710D01*
X49980814Y20139109D01*
X49980827Y20139102D01*
X50126498Y20078764D01*
X50126510Y20078761D01*
X50281153Y20048000D01*
X50281158Y20048000D01*
X50438846Y20048000D01*
X50593489Y20078761D01*
X50593501Y20078764D01*
X50739172Y20139102D01*
X50739185Y20139109D01*
X50870288Y20226710D01*
X50870292Y20226713D01*
X50981786Y20338207D01*
X50981789Y20338211D01*
X51069390Y20469314D01*
X51069397Y20469327D01*
X51129735Y20614998D01*
X51129737Y20615003D01*
X51160499Y20769653D01*
X51160500Y20769655D01*
X51160500Y20927344D01*
X51160499Y20927346D01*
X51158338Y20938211D01*
X51129737Y21081997D01*
X51104143Y21143788D01*
X51079804Y21202548D01*
X51072335Y21272017D01*
X51079804Y21297452D01*
X51129735Y21417998D01*
X51129737Y21418003D01*
X51160499Y21572653D01*
X51160500Y21572655D01*
X51160500Y21690346D01*
X54549500Y21690346D01*
X54549500Y21532653D01*
X54580261Y21378010D01*
X54580264Y21377998D01*
X54630196Y21257452D01*
X54637665Y21187983D01*
X54630196Y21162548D01*
X54580264Y21042001D01*
X54580261Y21041989D01*
X54549500Y20887346D01*
X54549500Y20729653D01*
X54580261Y20575010D01*
X54580264Y20574998D01*
X54640602Y20429327D01*
X54640609Y20429314D01*
X54728210Y20298211D01*
X54728213Y20298207D01*
X54839707Y20186713D01*
X54839711Y20186710D01*
X54970814Y20099109D01*
X54970827Y20099102D01*
X55116498Y20038764D01*
X55116510Y20038761D01*
X55271153Y20008000D01*
X55271158Y20008000D01*
X55428846Y20008000D01*
X55583489Y20038761D01*
X55583501Y20038764D01*
X55729172Y20099102D01*
X55729185Y20099109D01*
X55860288Y20186710D01*
X55860292Y20186713D01*
X55971786Y20298207D01*
X55971789Y20298211D01*
X56059390Y20429314D01*
X56059397Y20429327D01*
X56119735Y20574998D01*
X56119737Y20575003D01*
X56150499Y20729653D01*
X56150500Y20729655D01*
X56150500Y20887344D01*
X56150499Y20887346D01*
X56142543Y20927344D01*
X56119737Y21041997D01*
X56069804Y21162548D01*
X56062335Y21232017D01*
X56069804Y21257452D01*
X56119735Y21377998D01*
X56119737Y21378003D01*
X56150499Y21532653D01*
X56150500Y21532655D01*
X56150500Y21690344D01*
X56150499Y21690346D01*
X56146144Y21712242D01*
X56119737Y21844997D01*
X56059394Y21990679D01*
X55971789Y22121789D01*
X55860289Y22233289D01*
X55729179Y22320894D01*
X55583497Y22381237D01*
X55506520Y22396548D01*
X55428845Y22412000D01*
X55428842Y22412000D01*
X55271158Y22412000D01*
X55271155Y22412000D01*
X55177858Y22393441D01*
X55116503Y22381237D01*
X55116498Y22381235D01*
X54970827Y22320897D01*
X54970814Y22320890D01*
X54839711Y22233289D01*
X54839707Y22233286D01*
X54728213Y22121792D01*
X54728210Y22121788D01*
X54640609Y21990685D01*
X54640602Y21990672D01*
X54580264Y21845001D01*
X54580261Y21844989D01*
X54549500Y21690346D01*
X51160500Y21690346D01*
X51160500Y21730344D01*
X51160499Y21730346D01*
X51129737Y21884997D01*
X51069394Y22030679D01*
X50981789Y22161789D01*
X50870289Y22273289D01*
X50739179Y22360894D01*
X50593497Y22421237D01*
X50516520Y22436548D01*
X50438845Y22452000D01*
X50438842Y22452000D01*
X50281158Y22452000D01*
X50281155Y22452000D01*
X50187858Y22433441D01*
X50126503Y22421237D01*
X50126498Y22421235D01*
X49980827Y22360897D01*
X49980814Y22360890D01*
X49849711Y22273289D01*
X49849707Y22273286D01*
X49738213Y22161792D01*
X49738210Y22161788D01*
X49650609Y22030685D01*
X49650602Y22030672D01*
X49590264Y21885001D01*
X49590261Y21884989D01*
X49559500Y21730346D01*
X25757299Y21730346D01*
X25751500Y21759495D01*
X25744737Y21793497D01*
X25684394Y21939179D01*
X25596789Y22070289D01*
X25485289Y22181789D01*
X25354179Y22269394D01*
X25208497Y22329737D01*
X25131520Y22345048D01*
X25053845Y22360500D01*
X25053842Y22360500D01*
X24896158Y22360500D01*
X24896155Y22360500D01*
X24802858Y22341941D01*
X24741503Y22329737D01*
X24741498Y22329735D01*
X24595827Y22269397D01*
X24595814Y22269390D01*
X24464711Y22181789D01*
X24464707Y22181786D01*
X24353213Y22070292D01*
X24353210Y22070288D01*
X24265609Y21939185D01*
X24265602Y21939172D01*
X24205264Y21793501D01*
X24205261Y21793489D01*
X24174500Y21638846D01*
X-28627613Y21638846D01*
X-28630694Y21640253D01*
X-28802909Y21734290D01*
X-28817791Y21743855D01*
X-28974864Y21861438D01*
X-28988235Y21873024D01*
X-29126975Y22011764D01*
X-29138561Y22025135D01*
X-29256144Y22182208D01*
X-29265709Y22197091D01*
X-29359743Y22369300D01*
X-29367093Y22385394D01*
X-29435661Y22569234D01*
X-29440645Y22586209D01*
X-29482351Y22777931D01*
X-29484869Y22795442D01*
X-29499184Y22995580D01*
X-29499500Y23004427D01*
X-29499500Y24118097D01*
X-24350500Y24118097D01*
X-24350500Y23881902D01*
X-24313553Y23648631D01*
X-24283621Y23556510D01*
X-24262275Y23490814D01*
X-24240566Y23424003D01*
X-24207807Y23359711D01*
X-24133343Y23213567D01*
X-23994517Y23022490D01*
X-23827510Y22855483D01*
X-23720769Y22777931D01*
X-23636433Y22716657D01*
X-23425996Y22609433D01*
X-23201368Y22536446D01*
X-22968097Y22499500D01*
X-22968092Y22499500D01*
X-21231903Y22499500D01*
X-20998631Y22536446D01*
X-20868139Y22578846D01*
X20364500Y22578846D01*
X20364500Y22421153D01*
X20395261Y22266510D01*
X20395264Y22266498D01*
X20455602Y22120827D01*
X20455609Y22120814D01*
X20543210Y21989711D01*
X20543213Y21989707D01*
X20654707Y21878213D01*
X20654711Y21878210D01*
X20785814Y21790609D01*
X20785827Y21790602D01*
X20931498Y21730264D01*
X20931510Y21730261D01*
X21086153Y21699500D01*
X21086158Y21699500D01*
X21243846Y21699500D01*
X21398489Y21730261D01*
X21398501Y21730264D01*
X21469071Y21759495D01*
X21544172Y21790602D01*
X21544185Y21790609D01*
X21675288Y21878210D01*
X21675292Y21878213D01*
X21786786Y21989707D01*
X21786789Y21989711D01*
X21874390Y22120814D01*
X21874397Y22120827D01*
X21934735Y22266498D01*
X21934737Y22266503D01*
X21965499Y22421153D01*
X21965500Y22421155D01*
X21965500Y22578844D01*
X21965499Y22578846D01*
X21934737Y22733497D01*
X21874394Y22879179D01*
X21786789Y23010289D01*
X21675289Y23121789D01*
X21544179Y23209394D01*
X21534104Y23213567D01*
X21450468Y23248210D01*
X21398497Y23269737D01*
X21321520Y23285048D01*
X21243845Y23300500D01*
X21243842Y23300500D01*
X21086158Y23300500D01*
X21086155Y23300500D01*
X20992858Y23281941D01*
X20931503Y23269737D01*
X20931498Y23269735D01*
X20785827Y23209397D01*
X20785814Y23209390D01*
X20654711Y23121789D01*
X20654707Y23121786D01*
X20543213Y23010292D01*
X20543210Y23010288D01*
X20455609Y22879185D01*
X20455602Y22879172D01*
X20395264Y22733501D01*
X20395261Y22733489D01*
X20364500Y22578846D01*
X-20868139Y22578846D01*
X-20774003Y22609433D01*
X-20605249Y22695419D01*
X-20563566Y22716657D01*
X-20454550Y22795862D01*
X-20372490Y22855483D01*
X-20372488Y22855485D01*
X-20372487Y22855485D01*
X-20205485Y23022487D01*
X-20205485Y23022488D01*
X-20205483Y23022490D01*
X-20105138Y23160602D01*
X-20066657Y23213566D01*
X-19959433Y23424003D01*
X-19886446Y23648631D01*
X-19851568Y23868846D01*
X26139500Y23868846D01*
X26139500Y23711153D01*
X26170261Y23556510D01*
X26170264Y23556498D01*
X26230602Y23410827D01*
X26230609Y23410814D01*
X26318210Y23279711D01*
X26318213Y23279707D01*
X26429707Y23168213D01*
X26429711Y23168210D01*
X26560814Y23080609D01*
X26560827Y23080602D01*
X26706498Y23020264D01*
X26706510Y23020261D01*
X26861153Y22989500D01*
X26861158Y22989500D01*
X27018846Y22989500D01*
X27173489Y23020261D01*
X27173501Y23020264D01*
X27319172Y23080602D01*
X27319185Y23080609D01*
X27450288Y23168210D01*
X27450292Y23168213D01*
X27561786Y23279707D01*
X27561789Y23279711D01*
X27649390Y23410814D01*
X27649397Y23410827D01*
X27709735Y23556498D01*
X27709737Y23556503D01*
X27740499Y23711153D01*
X27740500Y23711155D01*
X27740500Y23868844D01*
X27740499Y23868846D01*
X27728188Y23930743D01*
X27724587Y23948846D01*
X29369500Y23948846D01*
X29369500Y23791153D01*
X29400261Y23636510D01*
X29400264Y23636498D01*
X29460602Y23490827D01*
X29460609Y23490814D01*
X29548210Y23359711D01*
X29548213Y23359707D01*
X29659707Y23248213D01*
X29659711Y23248210D01*
X29790814Y23160609D01*
X29790827Y23160602D01*
X29936498Y23100264D01*
X29936510Y23100261D01*
X30091153Y23069500D01*
X30091158Y23069500D01*
X30248846Y23069500D01*
X30403489Y23100261D01*
X30403501Y23100264D01*
X30549172Y23160602D01*
X30549185Y23160609D01*
X30680288Y23248210D01*
X30680292Y23248213D01*
X30791786Y23359707D01*
X30791789Y23359711D01*
X30879390Y23490814D01*
X30879397Y23490827D01*
X30939735Y23636498D01*
X30939737Y23636503D01*
X30970499Y23791153D01*
X30970500Y23791155D01*
X30970500Y23948844D01*
X30970499Y23948846D01*
X30939737Y24103497D01*
X30879394Y24249179D01*
X30791789Y24380289D01*
X30680289Y24491789D01*
X30549179Y24579394D01*
X30403497Y24639737D01*
X30326520Y24655048D01*
X30248845Y24670500D01*
X30248842Y24670500D01*
X30091158Y24670500D01*
X30091155Y24670500D01*
X29997858Y24651941D01*
X29936503Y24639737D01*
X29936498Y24639735D01*
X29790827Y24579397D01*
X29790814Y24579390D01*
X29659711Y24491789D01*
X29659707Y24491786D01*
X29548213Y24380292D01*
X29548210Y24380288D01*
X29460609Y24249185D01*
X29460602Y24249172D01*
X29400264Y24103501D01*
X29400261Y24103489D01*
X29369500Y23948846D01*
X27724587Y23948846D01*
X27712839Y24007901D01*
X27709737Y24023497D01*
X27649394Y24169179D01*
X27561789Y24300289D01*
X27450289Y24411789D01*
X27319179Y24499394D01*
X27173497Y24559737D01*
X27091758Y24575996D01*
X27018845Y24590500D01*
X27018842Y24590500D01*
X26861158Y24590500D01*
X26861155Y24590500D01*
X26767858Y24571941D01*
X26706503Y24559737D01*
X26706498Y24559735D01*
X26560827Y24499397D01*
X26560814Y24499390D01*
X26429711Y24411789D01*
X26429707Y24411786D01*
X26318213Y24300292D01*
X26318210Y24300288D01*
X26230609Y24169185D01*
X26230602Y24169172D01*
X26170264Y24023501D01*
X26170261Y24023489D01*
X26139500Y23868846D01*
X-19851568Y23868846D01*
X-19849500Y23881900D01*
X-19849500Y24118097D01*
X-19886446Y24351368D01*
X-19959433Y24575996D01*
X-20066657Y24786433D01*
X-20205483Y24977510D01*
X-20372490Y25144517D01*
X-20563567Y25283343D01*
X-20662991Y25334002D01*
X-20774003Y25390566D01*
X-20774005Y25390566D01*
X-20774008Y25390568D01*
X-20894412Y25429689D01*
X-20998631Y25463553D01*
X-21231903Y25500500D01*
X-21231908Y25500500D01*
X-22968092Y25500500D01*
X-22968097Y25500500D01*
X-23201368Y25463553D01*
X-23425992Y25390568D01*
X-23636433Y25283343D01*
X-23827510Y25144517D01*
X-23994517Y24977510D01*
X-24133343Y24786433D01*
X-24240568Y24575992D01*
X-24267927Y24491789D01*
X-24313553Y24351368D01*
X-24350500Y24118097D01*
X-29499500Y24118097D01*
X-29499500Y28603465D01*
X-25150500Y28603465D01*
X-25150500Y28396535D01*
X-25110130Y28193580D01*
X-25030941Y28002402D01*
X-24923886Y27842182D01*
X-24915975Y27830342D01*
X-24769657Y27684024D01*
X-24697979Y27636131D01*
X-24597598Y27569059D01*
X-24597596Y27569058D01*
X-24406420Y27489870D01*
X-24406412Y27489868D01*
X-24203469Y27449500D01*
X-24203465Y27449500D01*
X-23996530Y27449500D01*
X-23793587Y27489868D01*
X-23793579Y27489870D01*
X-23602403Y27569058D01*
X-23430342Y27684024D01*
X-23284024Y27830342D01*
X-23169058Y28002403D01*
X-23089870Y28193579D01*
X-23089868Y28193587D01*
X-23063619Y28325553D01*
X-23063619Y28325554D01*
X-23049500Y28396533D01*
X-23049500Y28603469D01*
X-23089868Y28806412D01*
X-23089870Y28806420D01*
X-23169058Y28997596D01*
X-23284024Y29169657D01*
X-23382419Y29268052D01*
X-22600000Y29268052D01*
X-22600000Y28750000D01*
X-21600000Y28750000D01*
X-21600000Y28250000D01*
X-22600000Y28250000D01*
X-22600000Y27731947D01*
X-22563065Y27498752D01*
X-22490102Y27274197D01*
X-22382914Y27063828D01*
X-22244133Y26872813D01*
X-22077186Y26705866D01*
X-21886171Y26567085D01*
X-21675802Y26459897D01*
X-21451247Y26386934D01*
X-21350000Y26370897D01*
X-21350000Y27416988D01*
X-21292993Y27384075D01*
X-21165826Y27350000D01*
X-21034174Y27350000D01*
X-20907007Y27384075D01*
X-20850000Y27416988D01*
X-20850000Y26370897D01*
X-20748752Y26386934D01*
X-20524197Y26459897D01*
X-20313828Y26567085D01*
X-20122813Y26705866D01*
X-19955866Y26872813D01*
X-19817085Y27063828D01*
X-19709897Y27274197D01*
X-19636934Y27498752D01*
X-19600000Y27731947D01*
X-19600000Y28250000D01*
X-20600000Y28250000D01*
X-20600000Y28750000D01*
X-19600000Y28750000D01*
X-19600000Y29268052D01*
X-19636934Y29501247D01*
X-19709897Y29725802D01*
X-19817085Y29936171D01*
X-19955866Y30127186D01*
X-20122813Y30294133D01*
X-20313828Y30432914D01*
X-20329126Y30440709D01*
X-20524195Y30540102D01*
X-20548111Y30547873D01*
X-16600500Y30547873D01*
X-16600499Y26452128D01*
X-16596853Y26418213D01*
X-16594091Y26392516D01*
X-16543797Y26257671D01*
X-16543793Y26257664D01*
X-16457547Y26142455D01*
X-16457544Y26142452D01*
X-16342335Y26056206D01*
X-16342328Y26056202D01*
X-16207482Y26005908D01*
X-16207483Y26005908D01*
X-16147883Y25999501D01*
X-16147881Y25999500D01*
X-16147873Y25999500D01*
X-16147864Y25999500D01*
X-14052129Y25999500D01*
X-14052123Y25999501D01*
X-13992516Y26005908D01*
X-13857671Y26056202D01*
X-13857664Y26056206D01*
X-13742455Y26142452D01*
X-13742452Y26142455D01*
X-13656206Y26257664D01*
X-13656202Y26257671D01*
X-13605908Y26392517D01*
X-13599501Y26452116D01*
X-13599500Y26452119D01*
X-13599500Y26452127D01*
X-13599500Y27118846D01*
X39559500Y27118846D01*
X39559500Y26961153D01*
X39590261Y26806510D01*
X39590264Y26806498D01*
X39650602Y26660827D01*
X39650609Y26660814D01*
X39738210Y26529711D01*
X39738213Y26529707D01*
X39849707Y26418213D01*
X39849711Y26418210D01*
X39980814Y26330609D01*
X39980827Y26330602D01*
X40126498Y26270264D01*
X40126510Y26270261D01*
X40281153Y26239500D01*
X40281158Y26239500D01*
X40438846Y26239500D01*
X40593489Y26270261D01*
X40593501Y26270264D01*
X40739172Y26330602D01*
X40739185Y26330609D01*
X40796410Y26368846D01*
X48499500Y26368846D01*
X48499500Y26211153D01*
X48530261Y26056510D01*
X48530264Y26056498D01*
X48590602Y25910827D01*
X48590609Y25910814D01*
X48678210Y25779711D01*
X48678213Y25779707D01*
X48789707Y25668213D01*
X48789711Y25668210D01*
X48920814Y25580609D01*
X48920827Y25580602D01*
X49066498Y25520264D01*
X49066510Y25520261D01*
X49221153Y25489500D01*
X49221158Y25489500D01*
X49378846Y25489500D01*
X49533489Y25520261D01*
X49533501Y25520264D01*
X49679172Y25580602D01*
X49679185Y25580609D01*
X49810288Y25668210D01*
X49810292Y25668213D01*
X49921786Y25779707D01*
X49921789Y25779711D01*
X50009390Y25910814D01*
X50009397Y25910827D01*
X50069735Y26056498D01*
X50069737Y26056503D01*
X50100499Y26211153D01*
X50100500Y26211155D01*
X50100500Y26368844D01*
X50100499Y26368846D01*
X50095791Y26392516D01*
X50069737Y26523497D01*
X50012856Y26660821D01*
X50009397Y26669172D01*
X50009396Y26669172D01*
X50009394Y26669179D01*
X49921789Y26800289D01*
X49810289Y26911789D01*
X49679179Y26999394D01*
X49533497Y27059737D01*
X49456520Y27075048D01*
X49378845Y27090500D01*
X49378842Y27090500D01*
X49221158Y27090500D01*
X49221155Y27090500D01*
X49127858Y27071941D01*
X49066503Y27059737D01*
X49066498Y27059735D01*
X48920827Y26999397D01*
X48920814Y26999390D01*
X48789711Y26911789D01*
X48789707Y26911786D01*
X48678213Y26800292D01*
X48678210Y26800288D01*
X48590609Y26669185D01*
X48590602Y26669172D01*
X48530264Y26523501D01*
X48530261Y26523489D01*
X48499500Y26368846D01*
X40796410Y26368846D01*
X40870288Y26418210D01*
X40870292Y26418213D01*
X40981786Y26529707D01*
X40981789Y26529711D01*
X41069390Y26660814D01*
X41069397Y26660827D01*
X41129735Y26806498D01*
X41129737Y26806503D01*
X41160499Y26961153D01*
X41160500Y26961155D01*
X41160500Y27118844D01*
X41160499Y27118846D01*
X41150272Y27170261D01*
X41129737Y27273497D01*
X41079430Y27394949D01*
X41069397Y27419172D01*
X41069396Y27419172D01*
X41069394Y27419179D01*
X40981789Y27550289D01*
X40870289Y27661789D01*
X40739179Y27749394D01*
X40730567Y27752961D01*
X40706166Y27763067D01*
X40593497Y27809737D01*
X40516520Y27825048D01*
X40438845Y27840500D01*
X40438842Y27840500D01*
X40281158Y27840500D01*
X40281155Y27840500D01*
X40187858Y27821941D01*
X40126503Y27809737D01*
X40126498Y27809735D01*
X39980827Y27749397D01*
X39980814Y27749390D01*
X39849711Y27661789D01*
X39849707Y27661786D01*
X39738213Y27550292D01*
X39738210Y27550288D01*
X39650609Y27419185D01*
X39650602Y27419172D01*
X39590264Y27273501D01*
X39590261Y27273489D01*
X39559500Y27118846D01*
X-13599500Y27118846D01*
X-13599501Y28656287D01*
X-8890500Y28656287D01*
X-8890500Y28443713D01*
X-8857246Y28233757D01*
X-8791557Y28031588D01*
X-8704717Y27861155D01*
X-8695048Y27842179D01*
X-8570109Y27670213D01*
X-8419786Y27519890D01*
X-8247820Y27394951D01*
X-8144791Y27342455D01*
X-8058412Y27298443D01*
X-7856243Y27232754D01*
X-7856241Y27232753D01*
X-7856240Y27232753D01*
X-7714229Y27210261D01*
X-7646287Y27199500D01*
X-7646286Y27199500D01*
X-7433714Y27199500D01*
X-7433713Y27199500D01*
X-7365771Y27210261D01*
X-7223760Y27232753D01*
X-7021585Y27298444D01*
X-6832179Y27394951D01*
X-6660213Y27519890D01*
X-6509890Y27670213D01*
X-6384949Y27842182D01*
X-6380484Y27850946D01*
X-6332509Y27901742D01*
X-6264688Y27918536D01*
X-6198553Y27895998D01*
X-6159516Y27850946D01*
X-6155050Y27842182D01*
X-6030109Y27670213D01*
X-5879786Y27519890D01*
X-5707820Y27394951D01*
X-5604791Y27342455D01*
X-5518412Y27298443D01*
X-5316243Y27232754D01*
X-5316241Y27232753D01*
X-5316240Y27232753D01*
X-5174229Y27210261D01*
X-5106287Y27199500D01*
X-5106286Y27199500D01*
X-4893714Y27199500D01*
X-4893713Y27199500D01*
X-4825771Y27210261D01*
X-4683760Y27232753D01*
X-4481585Y27298444D01*
X-4292179Y27394951D01*
X-4120215Y27519889D01*
X-4006673Y27633431D01*
X-3945350Y27666915D01*
X-3875658Y27661931D01*
X-3819725Y27620059D01*
X-3802810Y27589082D01*
X-3753797Y27457671D01*
X-3753793Y27457664D01*
X-3667547Y27342455D01*
X-3667544Y27342452D01*
X-3552335Y27256206D01*
X-3552328Y27256202D01*
X-3417482Y27205908D01*
X-3417483Y27205908D01*
X-3357883Y27199501D01*
X-3357881Y27199500D01*
X-3357873Y27199500D01*
X-3357864Y27199500D01*
X-1562129Y27199500D01*
X-1562123Y27199501D01*
X-1502516Y27205908D01*
X-1408121Y27241116D01*
X-1367671Y27256202D01*
X-1367664Y27256206D01*
X-1252455Y27342452D01*
X-1252452Y27342455D01*
X-1166206Y27457664D01*
X-1166202Y27457671D01*
X-1115908Y27592517D01*
X-1109501Y27652116D01*
X-1109500Y27652135D01*
X-1109500Y28088846D01*
X42639500Y28088846D01*
X42639500Y27931153D01*
X42670261Y27776510D01*
X42670264Y27776498D01*
X42730602Y27630827D01*
X42730609Y27630814D01*
X42818210Y27499711D01*
X42818213Y27499707D01*
X42929707Y27388213D01*
X42929711Y27388210D01*
X43060814Y27300609D01*
X43060827Y27300602D01*
X43206498Y27240264D01*
X43206510Y27240261D01*
X43361153Y27209500D01*
X43361158Y27209500D01*
X43518846Y27209500D01*
X43673489Y27240261D01*
X43673501Y27240264D01*
X43819172Y27300602D01*
X43819185Y27300609D01*
X43950288Y27388210D01*
X43950292Y27388213D01*
X44061786Y27499707D01*
X44061789Y27499711D01*
X44137335Y27612773D01*
X44190947Y27657578D01*
X44260272Y27666285D01*
X44323300Y27636131D01*
X44347084Y27605795D01*
X44347221Y27605886D01*
X44348416Y27604096D01*
X44349790Y27602345D01*
X44350602Y27600825D01*
X44438210Y27469711D01*
X44438213Y27469707D01*
X44549707Y27358213D01*
X44549711Y27358210D01*
X44680814Y27270609D01*
X44680827Y27270602D01*
X44826498Y27210264D01*
X44826510Y27210261D01*
X44981153Y27179500D01*
X44981158Y27179500D01*
X45138846Y27179500D01*
X45293489Y27210261D01*
X45293501Y27210264D01*
X45439172Y27270602D01*
X45439185Y27270609D01*
X45570288Y27358210D01*
X45570292Y27358213D01*
X45681786Y27469707D01*
X45681789Y27469711D01*
X45769390Y27600814D01*
X45769397Y27600827D01*
X45829735Y27746498D01*
X45829737Y27746503D01*
X45860499Y27901153D01*
X45860500Y27901155D01*
X45860500Y28058844D01*
X45860499Y28058846D01*
X51629500Y28058846D01*
X51629500Y27901153D01*
X51660261Y27746510D01*
X51660264Y27746498D01*
X51720602Y27600827D01*
X51720609Y27600814D01*
X51808210Y27469711D01*
X51808213Y27469707D01*
X51919707Y27358213D01*
X51919711Y27358210D01*
X52050814Y27270609D01*
X52050827Y27270602D01*
X52196498Y27210264D01*
X52196510Y27210261D01*
X52351153Y27179500D01*
X52351158Y27179500D01*
X52508846Y27179500D01*
X52663489Y27210261D01*
X52663501Y27210264D01*
X52809172Y27270602D01*
X52809185Y27270609D01*
X52940288Y27358210D01*
X52940292Y27358213D01*
X53051786Y27469707D01*
X53051789Y27469711D01*
X53088534Y27524703D01*
X53142146Y27569508D01*
X53211471Y27578215D01*
X53274499Y27548060D01*
X53294738Y27524703D01*
X53358210Y27429711D01*
X53358213Y27429707D01*
X53469707Y27318213D01*
X53469711Y27318210D01*
X53600814Y27230609D01*
X53600827Y27230602D01*
X53746498Y27170264D01*
X53746510Y27170261D01*
X53901153Y27139500D01*
X53901158Y27139500D01*
X54058846Y27139500D01*
X54213489Y27170261D01*
X54213501Y27170264D01*
X54359172Y27230602D01*
X54359185Y27230609D01*
X54490288Y27318210D01*
X54490292Y27318213D01*
X54601786Y27429707D01*
X54601789Y27429711D01*
X54689390Y27560814D01*
X54689397Y27560827D01*
X54749735Y27706498D01*
X54749737Y27706503D01*
X54780499Y27861153D01*
X54780500Y27861155D01*
X54780500Y28018844D01*
X54780499Y28018846D01*
X54777965Y28031585D01*
X54749737Y28173497D01*
X54689394Y28319179D01*
X54601789Y28450289D01*
X54490289Y28561789D01*
X54359179Y28649394D01*
X54213497Y28709737D01*
X54136520Y28725048D01*
X54058845Y28740500D01*
X54058842Y28740500D01*
X53901158Y28740500D01*
X53901155Y28740500D01*
X53807858Y28721941D01*
X53746503Y28709737D01*
X53746498Y28709735D01*
X53600827Y28649397D01*
X53600814Y28649390D01*
X53469711Y28561789D01*
X53469707Y28561786D01*
X53358213Y28450292D01*
X53358210Y28450288D01*
X53321465Y28395296D01*
X53267852Y28350491D01*
X53198527Y28341784D01*
X53135500Y28371939D01*
X53115261Y28395296D01*
X53051789Y28490289D01*
X52940289Y28601789D01*
X52809179Y28689394D01*
X52663497Y28749737D01*
X52586520Y28765048D01*
X52508845Y28780500D01*
X52508842Y28780500D01*
X52351158Y28780500D01*
X52351155Y28780500D01*
X52257858Y28761941D01*
X52196503Y28749737D01*
X52196498Y28749735D01*
X52050827Y28689397D01*
X52050814Y28689390D01*
X51919711Y28601789D01*
X51919707Y28601786D01*
X51808213Y28490292D01*
X51808210Y28490288D01*
X51720609Y28359185D01*
X51720602Y28359172D01*
X51660264Y28213501D01*
X51660261Y28213489D01*
X51629500Y28058846D01*
X45860499Y28058846D01*
X45829737Y28213497D01*
X45772993Y28350491D01*
X45769397Y28359172D01*
X45769396Y28359172D01*
X45769394Y28359179D01*
X45681789Y28490289D01*
X45570289Y28601789D01*
X45439179Y28689394D01*
X45293497Y28749737D01*
X45216520Y28765048D01*
X45138845Y28780500D01*
X45138842Y28780500D01*
X44981158Y28780500D01*
X44981155Y28780500D01*
X44887858Y28761941D01*
X44826503Y28749737D01*
X44826498Y28749735D01*
X44680827Y28689397D01*
X44680814Y28689390D01*
X44549711Y28601789D01*
X44549707Y28601786D01*
X44438213Y28490292D01*
X44438210Y28490288D01*
X44362664Y28377226D01*
X44309052Y28332421D01*
X44239727Y28323714D01*
X44176699Y28353869D01*
X44152916Y28384206D01*
X44152779Y28384114D01*
X44151566Y28385928D01*
X44150199Y28387673D01*
X44149392Y28389182D01*
X44144479Y28396535D01*
X44061789Y28520289D01*
X43950289Y28631789D01*
X43819179Y28719394D01*
X43673497Y28779737D01*
X43596520Y28795048D01*
X43518845Y28810500D01*
X43518842Y28810500D01*
X43361158Y28810500D01*
X43361155Y28810500D01*
X43267858Y28791941D01*
X43206503Y28779737D01*
X43206498Y28779735D01*
X43060827Y28719397D01*
X43060814Y28719390D01*
X42929711Y28631789D01*
X42929707Y28631786D01*
X42818213Y28520292D01*
X42818210Y28520288D01*
X42730609Y28389185D01*
X42730602Y28389172D01*
X42670264Y28243501D01*
X42670261Y28243489D01*
X42639500Y28088846D01*
X-1109500Y28088846D01*
X-1109500Y29447870D01*
X-1109501Y29447876D01*
X-1115908Y29507483D01*
X-1166202Y29642328D01*
X-1166206Y29642335D01*
X-1252452Y29757544D01*
X-1252455Y29757547D01*
X-1367664Y29843793D01*
X-1367671Y29843797D01*
X-1502517Y29894091D01*
X-1502516Y29894091D01*
X-1508925Y29894779D01*
X-1562127Y29900500D01*
X-3357872Y29900499D01*
X-3417483Y29894091D01*
X-3552331Y29843796D01*
X-3667546Y29757546D01*
X-3753796Y29642331D01*
X-3753797Y29642328D01*
X-3802810Y29510917D01*
X-3844681Y29454984D01*
X-3910145Y29430566D01*
X-3978418Y29445417D01*
X-4006673Y29466569D01*
X-4120213Y29580109D01*
X-4292179Y29705048D01*
X-4292181Y29705049D01*
X-4292184Y29705051D01*
X-4481588Y29801557D01*
X-4683757Y29867246D01*
X-4893713Y29900500D01*
X-5106287Y29900500D01*
X-5316243Y29867246D01*
X-5518412Y29801557D01*
X-5707816Y29705051D01*
X-5707820Y29705048D01*
X-5879786Y29580109D01*
X-5879788Y29580106D01*
X-5879792Y29580104D01*
X-6030104Y29429792D01*
X-6030106Y29429788D01*
X-6030109Y29429786D01*
X-6093167Y29342993D01*
X-6155051Y29257816D01*
X-6159514Y29249056D01*
X-6207488Y29198259D01*
X-6275308Y29181463D01*
X-6341444Y29203999D01*
X-6380486Y29249056D01*
X-6384951Y29257820D01*
X-6509890Y29429786D01*
X-6660213Y29580109D01*
X-6832179Y29705048D01*
X-6832181Y29705049D01*
X-6832184Y29705051D01*
X-7021588Y29801557D01*
X-7223757Y29867246D01*
X-7433713Y29900500D01*
X-7646287Y29900500D01*
X-7856243Y29867246D01*
X-8058412Y29801557D01*
X-8247816Y29705051D01*
X-8247820Y29705048D01*
X-8419786Y29580109D01*
X-8419788Y29580106D01*
X-8419792Y29580104D01*
X-8570104Y29429792D01*
X-8570106Y29429788D01*
X-8570109Y29429786D01*
X-8633167Y29342993D01*
X-8695051Y29257816D01*
X-8791557Y29068412D01*
X-8857246Y28866243D01*
X-8890500Y28656287D01*
X-13599501Y28656287D01*
X-13599501Y30547872D01*
X-13599502Y30547883D01*
X-13605908Y30607483D01*
X-13618634Y30641601D01*
X-13632525Y30678846D01*
X21089500Y30678846D01*
X21089500Y30521153D01*
X21120261Y30366510D01*
X21120264Y30366498D01*
X21180602Y30220827D01*
X21180609Y30220814D01*
X21268210Y30089711D01*
X21268213Y30089707D01*
X21379707Y29978213D01*
X21379711Y29978210D01*
X21510814Y29890609D01*
X21510827Y29890602D01*
X21656498Y29830264D01*
X21656510Y29830261D01*
X21811153Y29799500D01*
X21811158Y29799500D01*
X21968846Y29799500D01*
X22123489Y29830261D01*
X22123501Y29830264D01*
X22269172Y29890602D01*
X22269185Y29890609D01*
X22400288Y29978210D01*
X22400292Y29978213D01*
X22511786Y30089707D01*
X22511789Y30089711D01*
X22599390Y30220814D01*
X22599397Y30220827D01*
X22659735Y30366498D01*
X22659737Y30366503D01*
X22690499Y30521153D01*
X22690500Y30521155D01*
X22690500Y30678844D01*
X22672220Y30770742D01*
X22672220Y30770743D01*
X22668619Y30788846D01*
X23989500Y30788846D01*
X23989500Y30631153D01*
X24020261Y30476510D01*
X24020264Y30476498D01*
X24080602Y30330827D01*
X24080609Y30330814D01*
X24168210Y30199711D01*
X24168213Y30199707D01*
X24279707Y30088213D01*
X24279711Y30088210D01*
X24410814Y30000609D01*
X24410827Y30000602D01*
X24556498Y29940264D01*
X24556510Y29940261D01*
X24711153Y29909500D01*
X24711158Y29909500D01*
X24868846Y29909500D01*
X25023489Y29940261D01*
X25023501Y29940264D01*
X25169172Y30000602D01*
X25169185Y30000609D01*
X25300288Y30088210D01*
X25300292Y30088213D01*
X25411786Y30199707D01*
X25411789Y30199711D01*
X25499390Y30330814D01*
X25499397Y30330827D01*
X25559735Y30476498D01*
X25559737Y30476503D01*
X25590499Y30631153D01*
X25590500Y30631155D01*
X25590500Y30788844D01*
X25590499Y30788846D01*
X25581619Y30833489D01*
X25559737Y30943497D01*
X25499394Y31089179D01*
X25411789Y31220289D01*
X25300289Y31331789D01*
X25169179Y31419394D01*
X25023497Y31479737D01*
X24946520Y31495048D01*
X24868845Y31510500D01*
X24868842Y31510500D01*
X24711158Y31510500D01*
X24711155Y31510500D01*
X24617858Y31491941D01*
X24556503Y31479737D01*
X24556498Y31479735D01*
X24410827Y31419397D01*
X24410814Y31419390D01*
X24279711Y31331789D01*
X24279707Y31331786D01*
X24168213Y31220292D01*
X24168210Y31220288D01*
X24080609Y31089185D01*
X24080602Y31089172D01*
X24020264Y30943501D01*
X24020261Y30943489D01*
X23989500Y30788846D01*
X22668619Y30788846D01*
X22667424Y30794851D01*
X22659737Y30833497D01*
X22599394Y30979179D01*
X22511789Y31110289D01*
X22400289Y31221789D01*
X22269179Y31309394D01*
X22123497Y31369737D01*
X22046520Y31385048D01*
X21968845Y31400500D01*
X21968842Y31400500D01*
X21811158Y31400500D01*
X21811155Y31400500D01*
X21717858Y31381941D01*
X21656503Y31369737D01*
X21656498Y31369735D01*
X21510827Y31309397D01*
X21510814Y31309390D01*
X21379711Y31221789D01*
X21379707Y31221786D01*
X21268213Y31110292D01*
X21268210Y31110288D01*
X21180609Y30979185D01*
X21180602Y30979172D01*
X21120264Y30833501D01*
X21120261Y30833489D01*
X21089500Y30678846D01*
X-13632525Y30678846D01*
X-13656202Y30742328D01*
X-13656206Y30742335D01*
X-13742452Y30857544D01*
X-13742455Y30857547D01*
X-13857664Y30943793D01*
X-13857671Y30943797D01*
X-13992517Y30994091D01*
X-13992516Y30994091D01*
X-13998925Y30994779D01*
X-14052127Y31000500D01*
X-16147872Y31000499D01*
X-16207483Y30994091D01*
X-16342331Y30943796D01*
X-16457546Y30857546D01*
X-16543796Y30742331D01*
X-16594091Y30607483D01*
X-16600500Y30547873D01*
X-20548111Y30547873D01*
X-20748744Y30613063D01*
X-20748750Y30613065D01*
X-20850000Y30629101D01*
X-20850000Y29583012D01*
X-20907007Y29615925D01*
X-21034174Y29650000D01*
X-21165826Y29650000D01*
X-21292993Y29615925D01*
X-21350000Y29583012D01*
X-21350000Y30629100D01*
X-21451249Y30613065D01*
X-21451255Y30613063D01*
X-21675804Y30540102D01*
X-21886171Y30432914D01*
X-22077186Y30294133D01*
X-22244133Y30127186D01*
X-22382914Y29936171D01*
X-22490102Y29725802D01*
X-22563065Y29501247D01*
X-22600000Y29268052D01*
X-23382419Y29268052D01*
X-23430342Y29315975D01*
X-23470778Y29342993D01*
X-23602402Y29430941D01*
X-23793580Y29510130D01*
X-23996530Y29550499D01*
X-23996534Y29550500D01*
X-23996535Y29550500D01*
X-24203465Y29550500D01*
X-24203466Y29550500D01*
X-24203467Y29550499D01*
X-24406420Y29510130D01*
X-24597598Y29430941D01*
X-24769655Y29315977D01*
X-24915977Y29169655D01*
X-25030941Y28997598D01*
X-25110130Y28806420D01*
X-25150500Y28603465D01*
X-29499500Y28603465D01*
X-29499500Y33118097D01*
X-24350500Y33118097D01*
X-24350500Y32881902D01*
X-24313553Y32648631D01*
X-24240566Y32424003D01*
X-24184002Y32312991D01*
X-24133343Y32213567D01*
X-23994517Y32022490D01*
X-23827510Y31855483D01*
X-23636433Y31716657D01*
X-23425996Y31609433D01*
X-23201368Y31536446D01*
X-22968097Y31499500D01*
X-22968092Y31499500D01*
X-21231903Y31499500D01*
X-20998631Y31536446D01*
X-20774003Y31609433D01*
X-20563566Y31716657D01*
X-20454550Y31795862D01*
X-20372490Y31855483D01*
X-20372488Y31855485D01*
X-20372487Y31855485D01*
X-20205485Y32022487D01*
X-20205485Y32022488D01*
X-20205483Y32022490D01*
X-20145862Y32104550D01*
X-20066657Y32213566D01*
X-19959433Y32424003D01*
X-19886446Y32648631D01*
X-19849500Y32881902D01*
X-19849500Y33118097D01*
X-19886446Y33351368D01*
X-19959433Y33575996D01*
X-20066657Y33786433D01*
X-20205483Y33977510D01*
X-20372490Y34144517D01*
X-20563567Y34283343D01*
X-20662991Y34334002D01*
X-20774003Y34390566D01*
X-20774005Y34390566D01*
X-20774008Y34390568D01*
X-20894412Y34429689D01*
X-20998631Y34463553D01*
X-21231903Y34500500D01*
X-21231908Y34500500D01*
X-22968092Y34500500D01*
X-22968097Y34500500D01*
X-23201368Y34463553D01*
X-23425992Y34390568D01*
X-23636433Y34283343D01*
X-23827510Y34144517D01*
X-23994517Y33977510D01*
X-24133343Y33786433D01*
X-24240568Y33575992D01*
X-24313553Y33351368D01*
X-24350500Y33118097D01*
X-29499500Y33118097D01*
X-29499500Y39007846D01*
X33282451Y39007846D01*
X33282451Y38850153D01*
X33313212Y38695510D01*
X33313215Y38695498D01*
X33363147Y38574952D01*
X33370616Y38505483D01*
X33363147Y38480048D01*
X33313215Y38359501D01*
X33313212Y38359489D01*
X33282451Y38204846D01*
X33282451Y38047153D01*
X33313212Y37892510D01*
X33313215Y37892498D01*
X33373553Y37746827D01*
X33373560Y37746814D01*
X33461161Y37615711D01*
X33461164Y37615707D01*
X33572658Y37504213D01*
X33572662Y37504210D01*
X33703765Y37416609D01*
X33703778Y37416602D01*
X33849449Y37356264D01*
X33849461Y37356261D01*
X34004104Y37325500D01*
X34004109Y37325500D01*
X34161797Y37325500D01*
X34316440Y37356261D01*
X34316452Y37356264D01*
X34462123Y37416602D01*
X34462136Y37416609D01*
X34593239Y37504210D01*
X34593243Y37504213D01*
X34704737Y37615707D01*
X34704740Y37615711D01*
X34792341Y37746814D01*
X34792348Y37746827D01*
X34852686Y37892498D01*
X34852688Y37892503D01*
X34883450Y38047153D01*
X34883451Y38047155D01*
X34883451Y38204844D01*
X34883450Y38204846D01*
X34861240Y38316503D01*
X34852688Y38359497D01*
X34806439Y38471153D01*
X34802755Y38480048D01*
X34799480Y38510499D01*
X34794014Y38540639D01*
X34795579Y38546785D01*
X34795286Y38549517D01*
X34802711Y38574845D01*
X34803010Y38575570D01*
X34833362Y38648846D01*
X43539500Y38648846D01*
X43539500Y38491153D01*
X43570261Y38336510D01*
X43570264Y38336498D01*
X43630602Y38190827D01*
X43630609Y38190814D01*
X43718210Y38059711D01*
X43718213Y38059707D01*
X43829707Y37948213D01*
X43829711Y37948210D01*
X43960814Y37860609D01*
X43960827Y37860602D01*
X44106498Y37800264D01*
X44106510Y37800261D01*
X44261153Y37769500D01*
X44261158Y37769500D01*
X44418846Y37769500D01*
X44573489Y37800261D01*
X44573501Y37800264D01*
X44719172Y37860602D01*
X44719185Y37860609D01*
X44850288Y37948210D01*
X44850292Y37948213D01*
X44961786Y38059707D01*
X44961789Y38059711D01*
X45049390Y38190814D01*
X45049397Y38190827D01*
X45109735Y38336498D01*
X45109737Y38336503D01*
X45140499Y38491153D01*
X45140500Y38491155D01*
X45140500Y38628846D01*
X52409500Y38628846D01*
X52409500Y38471153D01*
X52440261Y38316510D01*
X52440264Y38316498D01*
X52500602Y38170827D01*
X52500609Y38170814D01*
X52588210Y38039711D01*
X52588213Y38039707D01*
X52699707Y37928213D01*
X52699711Y37928210D01*
X52830814Y37840609D01*
X52830827Y37840602D01*
X52976498Y37780264D01*
X52976510Y37780261D01*
X53131153Y37749500D01*
X53131158Y37749500D01*
X53288846Y37749500D01*
X53443489Y37780261D01*
X53443501Y37780264D01*
X53589172Y37840602D01*
X53589185Y37840609D01*
X53720288Y37928210D01*
X53720292Y37928213D01*
X53831786Y38039707D01*
X53831789Y38039711D01*
X53919390Y38170814D01*
X53919397Y38170827D01*
X53979735Y38316498D01*
X53979737Y38316503D01*
X54010499Y38471153D01*
X54010500Y38471155D01*
X54010500Y38628844D01*
X54010499Y38628846D01*
X53979737Y38783497D01*
X53919394Y38929179D01*
X53831789Y39060289D01*
X53720289Y39171789D01*
X53589179Y39259394D01*
X53443497Y39319737D01*
X53366520Y39335048D01*
X53288845Y39350500D01*
X53288842Y39350500D01*
X53131158Y39350500D01*
X53131155Y39350500D01*
X53037858Y39331941D01*
X52976503Y39319737D01*
X52976498Y39319735D01*
X52830827Y39259397D01*
X52830814Y39259390D01*
X52699711Y39171789D01*
X52699707Y39171786D01*
X52588213Y39060292D01*
X52588210Y39060288D01*
X52500609Y38929185D01*
X52500602Y38929172D01*
X52440264Y38783501D01*
X52440261Y38783489D01*
X52409500Y38628846D01*
X45140500Y38628846D01*
X45140500Y38648844D01*
X45140499Y38648846D01*
X45131096Y38696118D01*
X45109737Y38803497D01*
X45049394Y38949179D01*
X44961789Y39080289D01*
X44850289Y39191789D01*
X44719179Y39279394D01*
X44573497Y39339737D01*
X44496520Y39355048D01*
X44418845Y39370500D01*
X44418842Y39370500D01*
X44261158Y39370500D01*
X44261155Y39370500D01*
X44167858Y39351941D01*
X44106503Y39339737D01*
X44106498Y39339735D01*
X43960827Y39279397D01*
X43960814Y39279390D01*
X43829711Y39191789D01*
X43829707Y39191786D01*
X43718213Y39080292D01*
X43718210Y39080288D01*
X43630609Y38949185D01*
X43630602Y38949172D01*
X43570264Y38803501D01*
X43570261Y38803489D01*
X43539500Y38648846D01*
X34833362Y38648846D01*
X34852688Y38695503D01*
X34883450Y38850153D01*
X34883451Y38850155D01*
X34883451Y39007844D01*
X34883450Y39007846D01*
X34852688Y39162497D01*
X34792345Y39308179D01*
X34704740Y39439289D01*
X34593240Y39550789D01*
X34462130Y39638394D01*
X34316448Y39698737D01*
X34239471Y39714048D01*
X34161796Y39729500D01*
X34161793Y39729500D01*
X34004109Y39729500D01*
X34004106Y39729500D01*
X33910809Y39710941D01*
X33849454Y39698737D01*
X33849449Y39698735D01*
X33703778Y39638397D01*
X33703765Y39638390D01*
X33572662Y39550789D01*
X33572658Y39550786D01*
X33461164Y39439292D01*
X33461161Y39439288D01*
X33373560Y39308185D01*
X33373553Y39308172D01*
X33313215Y39162501D01*
X33313212Y39162489D01*
X33282451Y39007846D01*
X-29499500Y39007846D01*
X-29499500Y40952643D01*
X-12664600Y40952643D01*
X-12664600Y40755556D01*
X-12626152Y40562270D01*
X-12626149Y40562260D01*
X-12550735Y40380192D01*
X-12550728Y40380179D01*
X-12441239Y40216318D01*
X-12441236Y40216314D01*
X-12301885Y40076963D01*
X-12301881Y40076960D01*
X-12138020Y39967471D01*
X-12138007Y39967464D01*
X-11955939Y39892050D01*
X-11955929Y39892047D01*
X-11762643Y39853600D01*
X-11762641Y39853600D01*
X-11565557Y39853600D01*
X-11372270Y39892047D01*
X-11372260Y39892050D01*
X-11190192Y39967464D01*
X-11190179Y39967471D01*
X-11026318Y40076960D01*
X-11026314Y40076963D01*
X-10886963Y40216314D01*
X-10886960Y40216318D01*
X-10777471Y40380179D01*
X-10777464Y40380192D01*
X-10702050Y40562260D01*
X-10702047Y40562270D01*
X-10663600Y40755556D01*
X-10663600Y40952643D01*
X-10663599Y40952643D01*
X-10702047Y41145929D01*
X-10702050Y41145939D01*
X-10777464Y41328007D01*
X-10777471Y41328020D01*
X-10886960Y41491881D01*
X-10886963Y41491885D01*
X-11026314Y41631236D01*
X-11026318Y41631239D01*
X-11190179Y41740728D01*
X-11190192Y41740735D01*
X-11372260Y41816149D01*
X-11372265Y41816151D01*
X-11372270Y41816152D01*
X-11565557Y41854600D01*
X-11565559Y41854600D01*
X-11762641Y41854600D01*
X-11762643Y41854600D01*
X-11892682Y41828732D01*
X-11955935Y41816151D01*
X-12138014Y41740732D01*
X-12301882Y41631239D01*
X-12441239Y41491882D01*
X-12550732Y41328014D01*
X-12626151Y41145935D01*
X-12626152Y41145929D01*
X-12664600Y40952643D01*
X-29499500Y40952643D01*
X-29499500Y44228543D01*
X-650500Y44228543D01*
X-650500Y44031456D01*
X-612052Y43838170D01*
X-612049Y43838160D01*
X-536635Y43656092D01*
X-536628Y43656079D01*
X-427139Y43492218D01*
X-427136Y43492214D01*
X-287785Y43352863D01*
X-287781Y43352860D01*
X-123920Y43243371D01*
X-123907Y43243364D01*
X58160Y43167950D01*
X58170Y43167947D01*
X251457Y43129500D01*
X251459Y43129500D01*
X448543Y43129500D01*
X641829Y43167947D01*
X641839Y43167950D01*
X823907Y43243364D01*
X823920Y43243371D01*
X987781Y43352860D01*
X987785Y43352863D01*
X1127136Y43492214D01*
X1127139Y43492218D01*
X1236628Y43656079D01*
X1236635Y43656092D01*
X1312049Y43838160D01*
X1312052Y43838170D01*
X1350500Y44031456D01*
X1350500Y44228543D01*
X1312052Y44421829D01*
X1312051Y44421835D01*
X1236632Y44603914D01*
X1127139Y44767782D01*
X987782Y44907139D01*
X823914Y45016632D01*
X641835Y45092051D01*
X578582Y45104632D01*
X448543Y45130500D01*
X448541Y45130500D01*
X251459Y45130500D01*
X251457Y45130500D01*
X58170Y45092052D01*
X58165Y45092051D01*
X-123914Y45016632D01*
X-287782Y44907139D01*
X-427139Y44767782D01*
X-536632Y44603914D01*
X-612051Y44421835D01*
X-612052Y44421829D01*
X-650500Y44228543D01*
X-29499500Y44228543D01*
X-29499500Y46158846D01*
X22299500Y46158846D01*
X22299500Y46001153D01*
X22330261Y45846510D01*
X22330264Y45846498D01*
X22390602Y45700827D01*
X22390609Y45700814D01*
X22478210Y45569711D01*
X22478213Y45569707D01*
X22589707Y45458213D01*
X22589711Y45458210D01*
X22720814Y45370609D01*
X22720827Y45370602D01*
X22866498Y45310264D01*
X22866510Y45310261D01*
X23021153Y45279500D01*
X23021158Y45279500D01*
X23178846Y45279500D01*
X23333489Y45310261D01*
X23333501Y45310264D01*
X23479172Y45370602D01*
X23479185Y45370609D01*
X23610288Y45458210D01*
X23610292Y45458213D01*
X23721786Y45569707D01*
X23721789Y45569711D01*
X23809390Y45700814D01*
X23809397Y45700827D01*
X23869735Y45846498D01*
X23869737Y45846503D01*
X23900499Y46001153D01*
X23900500Y46001155D01*
X23900500Y46158844D01*
X23900499Y46158846D01*
X23888173Y46220814D01*
X23869737Y46313497D01*
X23809394Y46459179D01*
X23721789Y46590289D01*
X23721786Y46590292D01*
X23684826Y46627253D01*
X23610292Y46701786D01*
X23610289Y46701789D01*
X23599727Y46708846D01*
X25469500Y46708846D01*
X25469500Y46551153D01*
X25500261Y46396510D01*
X25500264Y46396498D01*
X25560602Y46250827D01*
X25560609Y46250814D01*
X25648210Y46119711D01*
X25648213Y46119707D01*
X25759707Y46008213D01*
X25759711Y46008210D01*
X25890814Y45920609D01*
X25890827Y45920602D01*
X26036498Y45860264D01*
X26036510Y45860261D01*
X26191153Y45829500D01*
X26191158Y45829500D01*
X26348846Y45829500D01*
X26503489Y45860261D01*
X26503501Y45860264D01*
X26649172Y45920602D01*
X26649185Y45920609D01*
X26780288Y46008210D01*
X26780292Y46008213D01*
X26891786Y46119707D01*
X26891789Y46119711D01*
X26979390Y46250814D01*
X26979395Y46250823D01*
X26995145Y46288846D01*
X28919500Y46288846D01*
X28919500Y46131153D01*
X28950261Y45976510D01*
X28950264Y45976498D01*
X29010602Y45830827D01*
X29010609Y45830814D01*
X29098210Y45699711D01*
X29098213Y45699707D01*
X29209707Y45588213D01*
X29209711Y45588210D01*
X29340814Y45500609D01*
X29340827Y45500602D01*
X29486498Y45440264D01*
X29486510Y45440261D01*
X29641153Y45409500D01*
X29641158Y45409500D01*
X29798846Y45409500D01*
X29953489Y45440261D01*
X29953501Y45440264D01*
X30099172Y45500602D01*
X30099185Y45500609D01*
X30230288Y45588210D01*
X30230292Y45588213D01*
X30341786Y45699707D01*
X30341789Y45699711D01*
X30429391Y45830816D01*
X30429391Y45830817D01*
X30429394Y45830821D01*
X30430295Y45832996D01*
X30431072Y45833960D01*
X30432262Y45836187D01*
X30432684Y45835961D01*
X30474133Y45887400D01*
X30540426Y45909468D01*
X30605162Y45892947D01*
X30605447Y45893479D01*
X30607610Y45892322D01*
X30608126Y45892191D01*
X30609638Y45891238D01*
X30610828Y45890602D01*
X30756498Y45830264D01*
X30756510Y45830261D01*
X30911153Y45799500D01*
X30911158Y45799500D01*
X31068846Y45799500D01*
X31223489Y45830261D01*
X31223501Y45830264D01*
X31369172Y45890602D01*
X31369185Y45890609D01*
X31500288Y45978210D01*
X31500292Y45978213D01*
X31611786Y46089707D01*
X31611789Y46089711D01*
X31699390Y46220814D01*
X31699397Y46220827D01*
X31759735Y46366498D01*
X31759737Y46366503D01*
X31790499Y46521153D01*
X31790500Y46521155D01*
X31790500Y46588846D01*
X44709500Y46588846D01*
X44709500Y46431153D01*
X44740261Y46276510D01*
X44740264Y46276498D01*
X44800602Y46130827D01*
X44800609Y46130814D01*
X44888210Y45999711D01*
X44888213Y45999707D01*
X44999707Y45888213D01*
X44999711Y45888210D01*
X45130814Y45800609D01*
X45130827Y45800602D01*
X45276498Y45740264D01*
X45276510Y45740261D01*
X45431153Y45709500D01*
X45431158Y45709500D01*
X45588846Y45709500D01*
X45743489Y45740261D01*
X45743501Y45740264D01*
X45889172Y45800602D01*
X45889185Y45800609D01*
X46020288Y45888210D01*
X46020292Y45888213D01*
X46131786Y45999707D01*
X46131789Y45999711D01*
X46219390Y46130814D01*
X46219397Y46130827D01*
X46279735Y46276498D01*
X46279737Y46276503D01*
X46310499Y46431153D01*
X46310500Y46431155D01*
X46310500Y46588844D01*
X46310499Y46588846D01*
X46310212Y46590289D01*
X46279737Y46743497D01*
X46219394Y46889179D01*
X46131789Y47020289D01*
X46020289Y47131789D01*
X45889179Y47219394D01*
X45743497Y47279737D01*
X45666520Y47295048D01*
X45588845Y47310500D01*
X45588842Y47310500D01*
X45431158Y47310500D01*
X45431155Y47310500D01*
X45337858Y47291941D01*
X45276503Y47279737D01*
X45276498Y47279735D01*
X45130827Y47219397D01*
X45130814Y47219390D01*
X44999711Y47131789D01*
X44999707Y47131786D01*
X44888213Y47020292D01*
X44888210Y47020288D01*
X44800609Y46889185D01*
X44800602Y46889172D01*
X44740264Y46743501D01*
X44740261Y46743489D01*
X44709500Y46588846D01*
X31790500Y46588846D01*
X31790500Y46678844D01*
X31790499Y46678846D01*
X31785936Y46701786D01*
X31759737Y46833497D01*
X31699394Y46979179D01*
X31611789Y47110289D01*
X31500289Y47221789D01*
X31369179Y47309394D01*
X31223497Y47369737D01*
X31146520Y47385048D01*
X31068845Y47400500D01*
X31068842Y47400500D01*
X30911158Y47400500D01*
X30911155Y47400500D01*
X30817858Y47381941D01*
X30756503Y47369737D01*
X30756498Y47369735D01*
X30610827Y47309397D01*
X30610814Y47309390D01*
X30479711Y47221789D01*
X30479707Y47221786D01*
X30368213Y47110292D01*
X30368210Y47110288D01*
X30280609Y46979185D01*
X30280604Y46979175D01*
X30279704Y46977002D01*
X30278927Y46976038D01*
X30277736Y46973809D01*
X30277313Y46974034D01*
X30235864Y46922597D01*
X30169570Y46900531D01*
X30104837Y46917051D01*
X30104554Y46916521D01*
X30102393Y46917675D01*
X30101871Y46917809D01*
X30100347Y46918769D01*
X30099184Y46919390D01*
X30099179Y46919394D01*
X29953497Y46979737D01*
X29876520Y46995048D01*
X29798845Y47010500D01*
X29798842Y47010500D01*
X29641158Y47010500D01*
X29641155Y47010500D01*
X29547858Y46991941D01*
X29486503Y46979737D01*
X29486498Y46979735D01*
X29340827Y46919397D01*
X29340814Y46919390D01*
X29209711Y46831789D01*
X29209707Y46831786D01*
X29098213Y46720292D01*
X29098210Y46720288D01*
X29010609Y46589185D01*
X29010602Y46589172D01*
X28950264Y46443501D01*
X28950261Y46443489D01*
X28919500Y46288846D01*
X26995145Y46288846D01*
X27017322Y46342387D01*
X27023841Y46358128D01*
X27039737Y46396503D01*
X27070499Y46551153D01*
X27070500Y46551155D01*
X27070500Y46708844D01*
X27070499Y46708846D01*
X27063608Y46743489D01*
X27039737Y46863497D01*
X26979394Y47009179D01*
X26891789Y47140289D01*
X26780289Y47251789D01*
X26649179Y47339394D01*
X26503497Y47399737D01*
X26426520Y47415048D01*
X26348845Y47430500D01*
X26348842Y47430500D01*
X26191158Y47430500D01*
X26191155Y47430500D01*
X26097858Y47411941D01*
X26036503Y47399737D01*
X26036498Y47399735D01*
X25890827Y47339397D01*
X25890814Y47339390D01*
X25759711Y47251789D01*
X25759707Y47251786D01*
X25648213Y47140292D01*
X25648210Y47140288D01*
X25560609Y47009185D01*
X25560602Y47009172D01*
X25500264Y46863501D01*
X25500261Y46863489D01*
X25469500Y46708846D01*
X23599727Y46708846D01*
X23479179Y46789394D01*
X23333497Y46849737D01*
X23256520Y46865048D01*
X23178845Y46880500D01*
X23178842Y46880500D01*
X23021158Y46880500D01*
X23021155Y46880500D01*
X22927858Y46861941D01*
X22866503Y46849737D01*
X22866498Y46849735D01*
X22720827Y46789397D01*
X22720814Y46789390D01*
X22589711Y46701789D01*
X22589707Y46701786D01*
X22478213Y46590292D01*
X22478210Y46590288D01*
X22390609Y46459185D01*
X22390602Y46459172D01*
X22330264Y46313501D01*
X22330261Y46313489D01*
X22299500Y46158846D01*
X-29499500Y46158846D01*
X-29499500Y49218846D01*
X36079500Y49218846D01*
X36079500Y49061153D01*
X36110261Y48906510D01*
X36110264Y48906498D01*
X36170602Y48760827D01*
X36170609Y48760814D01*
X36258210Y48629711D01*
X36258213Y48629707D01*
X36369707Y48518213D01*
X36369711Y48518210D01*
X36500814Y48430609D01*
X36500827Y48430602D01*
X36646498Y48370264D01*
X36646510Y48370261D01*
X36801153Y48339500D01*
X36801158Y48339500D01*
X36958846Y48339500D01*
X37113489Y48370261D01*
X37113501Y48370264D01*
X37259172Y48430602D01*
X37259185Y48430609D01*
X37390288Y48518210D01*
X37390292Y48518213D01*
X37501786Y48629707D01*
X37501789Y48629711D01*
X37589390Y48760814D01*
X37589397Y48760827D01*
X37649735Y48906498D01*
X37649737Y48906503D01*
X37680499Y49061153D01*
X37680500Y49061155D01*
X37680500Y49218844D01*
X37680499Y49218846D01*
X37649737Y49373497D01*
X37589394Y49519179D01*
X37501789Y49650289D01*
X37390289Y49761789D01*
X37259179Y49849394D01*
X37113497Y49909737D01*
X37036520Y49925048D01*
X36958845Y49940500D01*
X36958842Y49940500D01*
X36801158Y49940500D01*
X36801155Y49940500D01*
X36707858Y49921941D01*
X36646503Y49909737D01*
X36646498Y49909735D01*
X36500827Y49849397D01*
X36500814Y49849390D01*
X36369711Y49761789D01*
X36369707Y49761786D01*
X36258213Y49650292D01*
X36258210Y49650288D01*
X36170609Y49519185D01*
X36170602Y49519172D01*
X36110264Y49373501D01*
X36110261Y49373489D01*
X36079500Y49218846D01*
X-29499500Y49218846D01*
X-29499500Y50778846D01*
X5989500Y50778846D01*
X5989500Y50621153D01*
X6020261Y50466510D01*
X6020264Y50466498D01*
X6080602Y50320827D01*
X6080609Y50320814D01*
X6168210Y50189711D01*
X6168213Y50189707D01*
X6279707Y50078213D01*
X6279711Y50078210D01*
X6410814Y49990609D01*
X6410827Y49990602D01*
X6556498Y49930264D01*
X6556510Y49930261D01*
X6711153Y49899500D01*
X6711158Y49899500D01*
X6868846Y49899500D01*
X7023489Y49930261D01*
X7023501Y49930264D01*
X7169172Y49990602D01*
X7169185Y49990609D01*
X7300288Y50078210D01*
X7300292Y50078213D01*
X7411786Y50189707D01*
X7411789Y50189711D01*
X7499390Y50320814D01*
X7499397Y50320827D01*
X7559735Y50466498D01*
X7559737Y50466503D01*
X7590499Y50621153D01*
X7590500Y50621155D01*
X7590500Y50778844D01*
X7590499Y50778846D01*
X7586647Y50798213D01*
X7559737Y50933497D01*
X7499394Y51079179D01*
X7411789Y51210289D01*
X7300289Y51321789D01*
X7169179Y51409394D01*
X7023497Y51469737D01*
X7017072Y51471014D01*
X7005501Y51473317D01*
X7005500Y51473317D01*
X6868845Y51500500D01*
X6868842Y51500500D01*
X6711158Y51500500D01*
X6711155Y51500500D01*
X6617858Y51481941D01*
X6556503Y51469737D01*
X6556498Y51469735D01*
X6410827Y51409397D01*
X6410814Y51409390D01*
X6279711Y51321789D01*
X6279707Y51321786D01*
X6168213Y51210292D01*
X6168210Y51210288D01*
X6080609Y51079185D01*
X6080602Y51079172D01*
X6020264Y50933501D01*
X6020261Y50933489D01*
X5989500Y50778846D01*
X-29499500Y50778846D01*
X-29499500Y51588846D01*
X39109500Y51588846D01*
X39109500Y51431153D01*
X39140261Y51276510D01*
X39140264Y51276498D01*
X39200602Y51130827D01*
X39200609Y51130814D01*
X39288210Y50999711D01*
X39288213Y50999707D01*
X39399707Y50888213D01*
X39399711Y50888210D01*
X39530814Y50800609D01*
X39530827Y50800602D01*
X39676498Y50740264D01*
X39676510Y50740261D01*
X39831153Y50709500D01*
X39831158Y50709500D01*
X39988846Y50709500D01*
X40143489Y50740261D01*
X40143501Y50740264D01*
X40289172Y50800602D01*
X40289185Y50800609D01*
X40420288Y50888210D01*
X40420292Y50888213D01*
X40531786Y50999707D01*
X40531789Y50999711D01*
X40619390Y51130814D01*
X40619397Y51130827D01*
X40679735Y51276498D01*
X40679737Y51276503D01*
X40710500Y51431158D01*
X40710500Y51518842D01*
X40949500Y51518842D01*
X40949500Y51370941D01*
X40949500Y51361153D01*
X40980261Y51206510D01*
X40980264Y51206498D01*
X41040602Y51060827D01*
X41040609Y51060814D01*
X41128210Y50929711D01*
X41128213Y50929707D01*
X41239707Y50818213D01*
X41239711Y50818210D01*
X41370814Y50730609D01*
X41370827Y50730602D01*
X41516498Y50670264D01*
X41516510Y50670261D01*
X41671153Y50639500D01*
X41671158Y50639500D01*
X41828846Y50639500D01*
X41983489Y50670261D01*
X41983501Y50670264D01*
X42129172Y50730602D01*
X42129185Y50730609D01*
X42260288Y50818210D01*
X42260292Y50818213D01*
X42371786Y50929707D01*
X42371789Y50929711D01*
X42459390Y51060814D01*
X42459397Y51060827D01*
X42519735Y51206498D01*
X42519737Y51206503D01*
X42550499Y51361153D01*
X42550500Y51361155D01*
X42550500Y51518843D01*
X42550121Y51520749D01*
X42550121Y51520751D01*
X42546521Y51538846D01*
X46239500Y51538846D01*
X46239500Y51381153D01*
X46270261Y51226510D01*
X46270264Y51226498D01*
X46330602Y51080827D01*
X46330609Y51080814D01*
X46418210Y50949711D01*
X46418213Y50949707D01*
X46529707Y50838213D01*
X46529711Y50838210D01*
X46660814Y50750609D01*
X46660827Y50750602D01*
X46806498Y50690264D01*
X46806510Y50690261D01*
X46961153Y50659500D01*
X46961158Y50659500D01*
X47118846Y50659500D01*
X47273489Y50690261D01*
X47273501Y50690264D01*
X47419172Y50750602D01*
X47419185Y50750609D01*
X47550288Y50838210D01*
X47550292Y50838213D01*
X47656674Y50944595D01*
X47717997Y50978080D01*
X47787689Y50973096D01*
X47843622Y50931224D01*
X47847457Y50925805D01*
X47858210Y50909711D01*
X47858213Y50909707D01*
X47969707Y50798213D01*
X47969711Y50798210D01*
X48100814Y50710609D01*
X48100827Y50710602D01*
X48246498Y50650264D01*
X48246510Y50650261D01*
X48401153Y50619500D01*
X48401158Y50619500D01*
X48558846Y50619500D01*
X48713489Y50650261D01*
X48713501Y50650264D01*
X48859172Y50710602D01*
X48859185Y50710609D01*
X48990288Y50798210D01*
X48990292Y50798213D01*
X49101786Y50909707D01*
X49101789Y50909711D01*
X49189390Y51040814D01*
X49189397Y51040827D01*
X49249735Y51186498D01*
X49249737Y51186503D01*
X49280499Y51341153D01*
X49280500Y51341155D01*
X49280500Y51498844D01*
X49280499Y51498846D01*
X49280170Y51500500D01*
X49249737Y51653497D01*
X49189394Y51799179D01*
X49101789Y51930289D01*
X48990289Y52041789D01*
X48859179Y52129394D01*
X48713497Y52189737D01*
X48636520Y52205048D01*
X48558845Y52220500D01*
X48558842Y52220500D01*
X48401158Y52220500D01*
X48401155Y52220500D01*
X48307858Y52201941D01*
X48246503Y52189737D01*
X48246498Y52189735D01*
X48100827Y52129397D01*
X48100814Y52129390D01*
X47969711Y52041789D01*
X47969707Y52041786D01*
X47863325Y51935404D01*
X47802002Y51901919D01*
X47732310Y51906903D01*
X47676377Y51948775D01*
X47672561Y51954166D01*
X47661789Y51970289D01*
X47550289Y52081789D01*
X47419179Y52169394D01*
X47273497Y52229737D01*
X47196520Y52245048D01*
X47118845Y52260500D01*
X47118842Y52260500D01*
X46961158Y52260500D01*
X46961155Y52260500D01*
X46867858Y52241941D01*
X46806503Y52229737D01*
X46806498Y52229735D01*
X46660827Y52169397D01*
X46660814Y52169390D01*
X46529711Y52081789D01*
X46529707Y52081786D01*
X46418213Y51970292D01*
X46418210Y51970288D01*
X46330609Y51839185D01*
X46330602Y51839172D01*
X46270264Y51693501D01*
X46270261Y51693489D01*
X46239500Y51538846D01*
X42546521Y51538846D01*
X42523714Y51653501D01*
X42519737Y51673497D01*
X42459394Y51819179D01*
X42371789Y51950289D01*
X42260289Y52061789D01*
X42129179Y52149394D01*
X41983497Y52209737D01*
X41906520Y52225048D01*
X41828845Y52240500D01*
X41828842Y52240500D01*
X41671158Y52240500D01*
X41671155Y52240500D01*
X41577858Y52221941D01*
X41516503Y52209737D01*
X41516498Y52209735D01*
X41370827Y52149397D01*
X41370814Y52149390D01*
X41239711Y52061789D01*
X41239707Y52061786D01*
X41128213Y51950292D01*
X41128210Y51950288D01*
X41040609Y51819185D01*
X41040602Y51819172D01*
X40980264Y51673501D01*
X40980261Y51673489D01*
X40957959Y51561371D01*
X40957958Y51561367D01*
X40949500Y51518842D01*
X40710500Y51518842D01*
X40710500Y51588842D01*
X40679737Y51743497D01*
X40619394Y51889179D01*
X40531789Y52020289D01*
X40420289Y52131789D01*
X40289179Y52219394D01*
X40143497Y52279737D01*
X40066520Y52295048D01*
X39988845Y52310500D01*
X39988842Y52310500D01*
X39831158Y52310500D01*
X39831155Y52310500D01*
X39737858Y52291941D01*
X39676503Y52279737D01*
X39676498Y52279735D01*
X39530827Y52219397D01*
X39530814Y52219390D01*
X39399711Y52131789D01*
X39399707Y52131786D01*
X39288213Y52020292D01*
X39288210Y52020288D01*
X39200609Y51889185D01*
X39200602Y51889172D01*
X39140264Y51743501D01*
X39140261Y51743489D01*
X39109500Y51588846D01*
X-29499500Y51588846D01*
X-29499500Y57878846D01*
X21579500Y57878846D01*
X21579500Y57721153D01*
X21610261Y57566510D01*
X21610264Y57566498D01*
X21670602Y57420827D01*
X21670609Y57420814D01*
X21758210Y57289711D01*
X21758213Y57289707D01*
X21869707Y57178213D01*
X21869711Y57178210D01*
X22000814Y57090609D01*
X22000827Y57090602D01*
X22146498Y57030264D01*
X22146510Y57030261D01*
X22301153Y56999500D01*
X22301158Y56999500D01*
X22458846Y56999500D01*
X22613489Y57030261D01*
X22613501Y57030264D01*
X22759172Y57090602D01*
X22759185Y57090609D01*
X22890288Y57178210D01*
X22890292Y57178213D01*
X23001786Y57289707D01*
X23001789Y57289711D01*
X23089390Y57420814D01*
X23089397Y57420827D01*
X23149735Y57566498D01*
X23149737Y57566503D01*
X23180499Y57721153D01*
X23180500Y57721155D01*
X23180500Y57878844D01*
X23180499Y57878846D01*
X23149737Y58033497D01*
X23089394Y58179179D01*
X23001789Y58310289D01*
X22890289Y58421789D01*
X22759179Y58509394D01*
X22613497Y58569737D01*
X22536520Y58585048D01*
X22458845Y58600500D01*
X22458842Y58600500D01*
X22301158Y58600500D01*
X22301155Y58600500D01*
X22207858Y58581941D01*
X22146503Y58569737D01*
X22146498Y58569735D01*
X22000827Y58509397D01*
X22000814Y58509390D01*
X21869711Y58421789D01*
X21869707Y58421786D01*
X21758213Y58310292D01*
X21758210Y58310288D01*
X21670609Y58179185D01*
X21670602Y58179172D01*
X21610264Y58033501D01*
X21610261Y58033489D01*
X21579500Y57878846D01*
X-29499500Y57878846D01*
X-29499500Y65605082D01*
X-17885000Y65605082D01*
X-17885000Y65271517D01*
X-17852305Y64939559D01*
X-17852303Y64939546D01*
X-17787227Y64612391D01*
X-17690396Y64293178D01*
X-17562743Y63984997D01*
X-17562741Y63984992D01*
X-17405506Y63690827D01*
X-17405495Y63690809D01*
X-17220183Y63413470D01*
X-17220173Y63413456D01*
X-17061608Y63220244D01*
X-17061607Y63220243D01*
X-16019994Y64261856D01*
X-15944164Y64163032D01*
X-15765268Y63984136D01*
X-15666441Y63908304D01*
X-16708055Y62866691D01*
X-16708054Y62866690D01*
X-16514843Y62708126D01*
X-16514829Y62708116D01*
X-16237490Y62522804D01*
X-16237472Y62522793D01*
X-15943307Y62365558D01*
X-15943302Y62365556D01*
X-15635121Y62237903D01*
X-15315908Y62141072D01*
X-14988753Y62075996D01*
X-14988740Y62075994D01*
X-14656783Y62043300D01*
X-14323217Y62043300D01*
X-13991259Y62075994D01*
X-13991246Y62075996D01*
X-13826100Y62108846D01*
X40029500Y62108846D01*
X40029500Y61951153D01*
X40060261Y61796510D01*
X40060264Y61796498D01*
X40120602Y61650827D01*
X40120609Y61650814D01*
X40208210Y61519711D01*
X40208213Y61519707D01*
X40319707Y61408213D01*
X40319711Y61408210D01*
X40450814Y61320609D01*
X40450827Y61320602D01*
X40596498Y61260264D01*
X40596510Y61260261D01*
X40751153Y61229500D01*
X40751158Y61229500D01*
X40908846Y61229500D01*
X41063489Y61260261D01*
X41063501Y61260264D01*
X41209172Y61320602D01*
X41209185Y61320609D01*
X41340288Y61408210D01*
X41340292Y61408213D01*
X41451786Y61519707D01*
X41451789Y61519711D01*
X41539390Y61650814D01*
X41539397Y61650827D01*
X41599735Y61796498D01*
X41599737Y61796503D01*
X41630499Y61951153D01*
X41630500Y61951155D01*
X41630500Y62108844D01*
X41630499Y62108846D01*
X46899500Y62108846D01*
X46899500Y61951153D01*
X46930261Y61796510D01*
X46930264Y61796498D01*
X46990602Y61650827D01*
X46990609Y61650814D01*
X47078210Y61519711D01*
X47078213Y61519707D01*
X47189707Y61408213D01*
X47189711Y61408210D01*
X47320814Y61320609D01*
X47320827Y61320602D01*
X47466498Y61260264D01*
X47466510Y61260261D01*
X47621153Y61229500D01*
X47621158Y61229500D01*
X47778846Y61229500D01*
X47933489Y61260261D01*
X47933501Y61260264D01*
X48079172Y61320602D01*
X48079185Y61320609D01*
X48210288Y61408210D01*
X48210292Y61408213D01*
X48321786Y61519707D01*
X48321789Y61519711D01*
X48409390Y61650814D01*
X48409397Y61650827D01*
X48469735Y61796498D01*
X48469737Y61796503D01*
X48500499Y61951153D01*
X48500500Y61951155D01*
X48500500Y62108844D01*
X48500499Y62108846D01*
X48494089Y62141072D01*
X48469737Y62263497D01*
X48409394Y62409179D01*
X48321789Y62540289D01*
X48210289Y62651789D01*
X48079179Y62739394D01*
X47933497Y62799737D01*
X47856520Y62815048D01*
X47778845Y62830500D01*
X47778842Y62830500D01*
X47621158Y62830500D01*
X47621155Y62830500D01*
X47527858Y62811941D01*
X47466503Y62799737D01*
X47466498Y62799735D01*
X47320827Y62739397D01*
X47320814Y62739390D01*
X47189711Y62651789D01*
X47189707Y62651786D01*
X47078213Y62540292D01*
X47078210Y62540288D01*
X46990609Y62409185D01*
X46990602Y62409172D01*
X46930264Y62263501D01*
X46930261Y62263489D01*
X46899500Y62108846D01*
X41630499Y62108846D01*
X41624089Y62141072D01*
X41599737Y62263497D01*
X41539394Y62409179D01*
X41451789Y62540289D01*
X41340289Y62651789D01*
X41209179Y62739394D01*
X41063497Y62799737D01*
X40986520Y62815048D01*
X40908845Y62830500D01*
X40908842Y62830500D01*
X40751158Y62830500D01*
X40751155Y62830500D01*
X40657858Y62811941D01*
X40596503Y62799737D01*
X40596498Y62799735D01*
X40450827Y62739397D01*
X40450814Y62739390D01*
X40319711Y62651789D01*
X40319707Y62651786D01*
X40208213Y62540292D01*
X40208210Y62540288D01*
X40120609Y62409185D01*
X40120602Y62409172D01*
X40060264Y62263501D01*
X40060261Y62263489D01*
X40029500Y62108846D01*
X-13826100Y62108846D01*
X-13664091Y62141072D01*
X-13359083Y62233595D01*
X-13344878Y62237903D01*
X-13036697Y62365556D01*
X-13036692Y62365558D01*
X-12742527Y62522793D01*
X-12742509Y62522804D01*
X-12465165Y62708119D01*
X-12465161Y62708122D01*
X-12271943Y62866690D01*
X-12271943Y62866691D01*
X-13313557Y63908304D01*
X-13214732Y63984136D01*
X-13035836Y64163032D01*
X-12960004Y64261857D01*
X-11918391Y63220243D01*
X-11918390Y63220243D01*
X-11759822Y63413461D01*
X-11759819Y63413465D01*
X-11574504Y63690809D01*
X-11574493Y63690827D01*
X-11417258Y63984992D01*
X-11417256Y63984997D01*
X-11289603Y64293178D01*
X-11192772Y64612391D01*
X-11127696Y64939546D01*
X-11127694Y64939559D01*
X-11095000Y65271517D01*
X-11095000Y65605082D01*
X-11127694Y65937040D01*
X-11127696Y65937053D01*
X-11192772Y66264208D01*
X-11289603Y66583421D01*
X-11417256Y66891602D01*
X-11417258Y66891607D01*
X-11574493Y67185772D01*
X-11574504Y67185790D01*
X-11759816Y67463129D01*
X-11759826Y67463143D01*
X-11918390Y67656354D01*
X-11918391Y67656355D01*
X-12960004Y66614741D01*
X-13035836Y66713568D01*
X-13214732Y66892464D01*
X-13313556Y66968294D01*
X-12271943Y68009907D01*
X-12271944Y68009908D01*
X-12465156Y68168473D01*
X-12465170Y68168483D01*
X-12742509Y68353795D01*
X-12742527Y68353806D01*
X-13036692Y68511041D01*
X-13036697Y68511043D01*
X-13344878Y68638696D01*
X-13664091Y68735527D01*
X-13991246Y68800603D01*
X-13991259Y68800605D01*
X-14323217Y68833300D01*
X-14656783Y68833300D01*
X-14988740Y68800605D01*
X-14988753Y68800603D01*
X-15315908Y68735527D01*
X-15635121Y68638696D01*
X-15943302Y68511043D01*
X-15943307Y68511041D01*
X-16237472Y68353806D01*
X-16237490Y68353795D01*
X-16514829Y68168483D01*
X-16514843Y68168473D01*
X-16708054Y68009908D01*
X-16708055Y68009907D01*
X-15666442Y66968295D01*
X-15765268Y66892464D01*
X-15944164Y66713568D01*
X-16019995Y66614742D01*
X-17061607Y67656355D01*
X-17061608Y67656354D01*
X-17220173Y67463143D01*
X-17220183Y67463129D01*
X-17405495Y67185790D01*
X-17405506Y67185772D01*
X-17562741Y66891607D01*
X-17562743Y66891602D01*
X-17690396Y66583421D01*
X-17787227Y66264208D01*
X-17852303Y65937053D01*
X-17852305Y65937040D01*
X-17885000Y65605082D01*
X-29499500Y65605082D01*
X-29499500Y69518846D01*
X20419500Y69518846D01*
X20419500Y69361153D01*
X20450261Y69206510D01*
X20450264Y69206498D01*
X20510602Y69060827D01*
X20510609Y69060814D01*
X20598210Y68929711D01*
X20598213Y68929707D01*
X20709707Y68818213D01*
X20709711Y68818210D01*
X20840814Y68730609D01*
X20840827Y68730602D01*
X20986498Y68670264D01*
X20986510Y68670261D01*
X21141153Y68639500D01*
X21141158Y68639500D01*
X21298846Y68639500D01*
X21453489Y68670261D01*
X21453501Y68670264D01*
X21599172Y68730602D01*
X21601360Y68731772D01*
X21602637Y68732038D01*
X21604808Y68732937D01*
X21604978Y68732525D01*
X21669763Y68746015D01*
X21728706Y68725517D01*
X21840809Y68650612D01*
X21840827Y68650602D01*
X21986498Y68590264D01*
X21986510Y68590261D01*
X22141153Y68559500D01*
X22141158Y68559500D01*
X22298846Y68559500D01*
X22453489Y68590261D01*
X22453501Y68590264D01*
X22599169Y68650601D01*
X22599176Y68650604D01*
X22599179Y68650606D01*
X22599181Y68650607D01*
X22601909Y68652066D01*
X22603510Y68652399D01*
X22604808Y68652937D01*
X22604909Y68652690D01*
X22670311Y68666312D01*
X22735556Y68641316D01*
X22774929Y68590165D01*
X22790601Y68552329D01*
X22790609Y68552314D01*
X22878210Y68421211D01*
X22878213Y68421207D01*
X22989707Y68309713D01*
X22989711Y68309710D01*
X23120814Y68222109D01*
X23120827Y68222102D01*
X23266498Y68161764D01*
X23266510Y68161761D01*
X23421153Y68131000D01*
X23421158Y68131000D01*
X23578846Y68131000D01*
X23733489Y68161761D01*
X23733501Y68161764D01*
X23852548Y68211074D01*
X23922018Y68218543D01*
X23947452Y68211074D01*
X24066498Y68161764D01*
X24066510Y68161761D01*
X24221153Y68131000D01*
X24221158Y68131000D01*
X24378846Y68131000D01*
X24533489Y68161761D01*
X24533501Y68161764D01*
X24679172Y68222102D01*
X24679185Y68222109D01*
X24810288Y68309710D01*
X24810292Y68309713D01*
X24921786Y68421207D01*
X24921789Y68421211D01*
X25009390Y68552314D01*
X25009392Y68552318D01*
X25009394Y68552321D01*
X25039023Y68623852D01*
X25082862Y68678253D01*
X25149156Y68700319D01*
X25215408Y68683409D01*
X25215446Y68683479D01*
X25215730Y68683327D01*
X25216855Y68683040D01*
X25220147Y68680966D01*
X25220827Y68680602D01*
X25366498Y68620264D01*
X25366510Y68620261D01*
X25521153Y68589500D01*
X25521158Y68589500D01*
X25678846Y68589500D01*
X25833489Y68620261D01*
X25833501Y68620264D01*
X25979172Y68680602D01*
X25979185Y68680609D01*
X26110288Y68768210D01*
X26110292Y68768213D01*
X26221786Y68879707D01*
X26221789Y68879711D01*
X26309390Y69010814D01*
X26309397Y69010827D01*
X26369735Y69156498D01*
X26369737Y69156503D01*
X26400499Y69311153D01*
X26400500Y69311155D01*
X26400500Y69468844D01*
X26400499Y69468846D01*
X26390177Y69520743D01*
X26386576Y69538846D01*
X31779500Y69538846D01*
X31779500Y69381153D01*
X31810261Y69226510D01*
X31810264Y69226498D01*
X31870602Y69080827D01*
X31870609Y69080814D01*
X31958210Y68949711D01*
X31958213Y68949707D01*
X32069707Y68838213D01*
X32069711Y68838210D01*
X32200814Y68750609D01*
X32200827Y68750602D01*
X32346498Y68690264D01*
X32346510Y68690261D01*
X32501153Y68659500D01*
X32501158Y68659500D01*
X32658846Y68659500D01*
X32813489Y68690261D01*
X32813501Y68690264D01*
X32959172Y68750602D01*
X32959185Y68750609D01*
X33090288Y68838210D01*
X33090292Y68838213D01*
X33201786Y68949707D01*
X33201789Y68949711D01*
X33289390Y69080814D01*
X33289397Y69080827D01*
X33349735Y69226498D01*
X33349737Y69226503D01*
X33380499Y69381153D01*
X33380500Y69381155D01*
X33380500Y69538841D01*
X33378133Y69550740D01*
X33378133Y69550743D01*
X33374532Y69568846D01*
X37619500Y69568846D01*
X37619500Y69411153D01*
X37650261Y69256510D01*
X37650264Y69256498D01*
X37710602Y69110827D01*
X37710609Y69110814D01*
X37798210Y68979711D01*
X37798213Y68979707D01*
X37909707Y68868213D01*
X37909711Y68868210D01*
X38040814Y68780609D01*
X38040827Y68780602D01*
X38186498Y68720264D01*
X38186510Y68720261D01*
X38341153Y68689500D01*
X38341158Y68689500D01*
X38498846Y68689500D01*
X38653489Y68720261D01*
X38653501Y68720264D01*
X38799175Y68780604D01*
X38799176Y68780604D01*
X38799179Y68780606D01*
X38846143Y68811986D01*
X38912821Y68832863D01*
X38980201Y68814378D01*
X38983923Y68811986D01*
X39060816Y68760608D01*
X39060827Y68760602D01*
X39206498Y68700264D01*
X39206510Y68700261D01*
X39361153Y68669500D01*
X39361158Y68669500D01*
X39518846Y68669500D01*
X39673489Y68700261D01*
X39673501Y68700264D01*
X39819172Y68760602D01*
X39819185Y68760609D01*
X39950288Y68848210D01*
X39950292Y68848213D01*
X40061786Y68959707D01*
X40061789Y68959711D01*
X40149390Y69090814D01*
X40149397Y69090827D01*
X40209735Y69236498D01*
X40209737Y69236503D01*
X40240499Y69391153D01*
X40240500Y69391155D01*
X40240500Y69548844D01*
X40240499Y69548846D01*
X40238674Y69558021D01*
X40209737Y69703497D01*
X40149394Y69849179D01*
X40061789Y69980289D01*
X39950289Y70091789D01*
X39819179Y70179394D01*
X39673497Y70239737D01*
X39596520Y70255048D01*
X39518845Y70270500D01*
X39518842Y70270500D01*
X39361158Y70270500D01*
X39361155Y70270500D01*
X39267858Y70251941D01*
X39206503Y70239737D01*
X39206498Y70239735D01*
X39060827Y70179397D01*
X39060823Y70179395D01*
X39060821Y70179394D01*
X39013855Y70148012D01*
X38947179Y70127135D01*
X38879799Y70145619D01*
X38876137Y70147971D01*
X38799179Y70199394D01*
X38653497Y70259737D01*
X38576520Y70275048D01*
X38498845Y70290500D01*
X38498842Y70290500D01*
X38341158Y70290500D01*
X38341155Y70290500D01*
X38247858Y70271941D01*
X38186503Y70259737D01*
X38186498Y70259735D01*
X38040827Y70199397D01*
X38040814Y70199390D01*
X37909711Y70111789D01*
X37909707Y70111786D01*
X37798213Y70000292D01*
X37798210Y70000288D01*
X37710609Y69869185D01*
X37710602Y69869172D01*
X37650264Y69723501D01*
X37650261Y69723489D01*
X37619500Y69568846D01*
X33374532Y69568846D01*
X33360664Y69638563D01*
X33349737Y69693497D01*
X33289394Y69839179D01*
X33201789Y69970289D01*
X33090289Y70081789D01*
X32959179Y70169394D01*
X32935029Y70179397D01*
X32908224Y70190500D01*
X32813497Y70229737D01*
X32736520Y70245048D01*
X32658845Y70260500D01*
X32658842Y70260500D01*
X32501158Y70260500D01*
X32501155Y70260500D01*
X32407858Y70241941D01*
X32346503Y70229737D01*
X32346498Y70229735D01*
X32200827Y70169397D01*
X32200814Y70169390D01*
X32069711Y70081789D01*
X32069707Y70081786D01*
X31958213Y69970292D01*
X31958210Y69970288D01*
X31870609Y69839185D01*
X31870602Y69839172D01*
X31810264Y69693501D01*
X31810261Y69693489D01*
X31779500Y69538846D01*
X26386576Y69538846D01*
X26369738Y69623491D01*
X26369737Y69623497D01*
X26309394Y69769179D01*
X26221789Y69900289D01*
X26110289Y70011789D01*
X25979179Y70099394D01*
X25833497Y70159737D01*
X25756520Y70175048D01*
X25678845Y70190500D01*
X25678842Y70190500D01*
X25521158Y70190500D01*
X25521155Y70190500D01*
X25427858Y70171941D01*
X25366503Y70159737D01*
X25366498Y70159735D01*
X25220827Y70099397D01*
X25220814Y70099390D01*
X25089711Y70011789D01*
X25089707Y70011786D01*
X24978213Y69900292D01*
X24978210Y69900288D01*
X24890609Y69769185D01*
X24890602Y69769172D01*
X24860977Y69697649D01*
X24817136Y69643245D01*
X24750842Y69621180D01*
X24684590Y69638089D01*
X24684554Y69638021D01*
X24684275Y69638170D01*
X24683143Y69638459D01*
X24679845Y69640537D01*
X24679184Y69640890D01*
X24679179Y69640894D01*
X24533497Y69701237D01*
X24456520Y69716548D01*
X24378845Y69732000D01*
X24378842Y69732000D01*
X24221158Y69732000D01*
X24221155Y69732000D01*
X24127858Y69713441D01*
X24066503Y69701237D01*
X24066498Y69701235D01*
X23947452Y69651925D01*
X23877983Y69644456D01*
X23852548Y69651925D01*
X23742159Y69697649D01*
X23733497Y69701237D01*
X23656520Y69716548D01*
X23578845Y69732000D01*
X23578842Y69732000D01*
X23421158Y69732000D01*
X23421155Y69732000D01*
X23327858Y69713441D01*
X23266503Y69701237D01*
X23266498Y69701235D01*
X23120825Y69640896D01*
X23118084Y69639431D01*
X23116482Y69639097D01*
X23115192Y69638563D01*
X23115090Y69638807D01*
X23049682Y69625189D01*
X22984438Y69650188D01*
X22945069Y69701337D01*
X22929397Y69739172D01*
X22929396Y69739172D01*
X22929394Y69739179D01*
X22841789Y69870289D01*
X22730289Y69981789D01*
X22599179Y70069394D01*
X22586895Y70074482D01*
X22566166Y70083067D01*
X22453497Y70129737D01*
X22373653Y70145619D01*
X22298845Y70160500D01*
X22298842Y70160500D01*
X22141158Y70160500D01*
X22141155Y70160500D01*
X22047858Y70141941D01*
X21986503Y70129737D01*
X21986498Y70129735D01*
X21840827Y70069397D01*
X21838644Y70068230D01*
X21837367Y70067964D01*
X21835192Y70067063D01*
X21835021Y70067475D01*
X21770242Y70053983D01*
X21711293Y70074481D01*
X21599179Y70149394D01*
X21453497Y70209737D01*
X21376520Y70225048D01*
X21298845Y70240500D01*
X21298842Y70240500D01*
X21141158Y70240500D01*
X21141155Y70240500D01*
X21047858Y70221941D01*
X20986503Y70209737D01*
X20986498Y70209735D01*
X20840827Y70149397D01*
X20840814Y70149390D01*
X20709711Y70061789D01*
X20709707Y70061786D01*
X20598213Y69950292D01*
X20598210Y69950288D01*
X20510609Y69819185D01*
X20510602Y69819172D01*
X20450264Y69673501D01*
X20450261Y69673489D01*
X20419500Y69518846D01*
X-29499500Y69518846D01*
X-29499500Y70868846D01*
X10209500Y70868846D01*
X10209500Y70711153D01*
X10240261Y70556510D01*
X10240264Y70556498D01*
X10300602Y70410827D01*
X10300609Y70410814D01*
X10388210Y70279711D01*
X10388213Y70279707D01*
X10499707Y70168213D01*
X10499711Y70168210D01*
X10630814Y70080609D01*
X10630827Y70080602D01*
X10776498Y70020264D01*
X10776510Y70020261D01*
X10931153Y69989500D01*
X10931158Y69989500D01*
X11088846Y69989500D01*
X11243489Y70020261D01*
X11243501Y70020264D01*
X11389172Y70080602D01*
X11389185Y70080609D01*
X11520288Y70168210D01*
X11520292Y70168213D01*
X11631786Y70279707D01*
X11631789Y70279711D01*
X11719390Y70410814D01*
X11719397Y70410827D01*
X11779735Y70556498D01*
X11779737Y70556503D01*
X11810499Y70711153D01*
X11810500Y70711155D01*
X11810500Y70868844D01*
X11810499Y70868846D01*
X11808229Y70880260D01*
X11779737Y71023497D01*
X11719394Y71169179D01*
X11631789Y71300289D01*
X11520289Y71411789D01*
X11389179Y71499394D01*
X11243497Y71559737D01*
X11166520Y71575048D01*
X11088845Y71590500D01*
X11088842Y71590500D01*
X10931158Y71590500D01*
X10931155Y71590500D01*
X10837858Y71571941D01*
X10776503Y71559737D01*
X10776498Y71559735D01*
X10630827Y71499397D01*
X10630814Y71499390D01*
X10499711Y71411789D01*
X10499707Y71411786D01*
X10388213Y71300292D01*
X10388210Y71300288D01*
X10300609Y71169185D01*
X10300602Y71169172D01*
X10240264Y71023501D01*
X10240261Y71023489D01*
X10209500Y70868846D01*
X-29499500Y70868846D01*
X-29499500Y71668846D01*
X16799500Y71668846D01*
X16799500Y71511153D01*
X16830261Y71356510D01*
X16830264Y71356498D01*
X16890602Y71210827D01*
X16890609Y71210814D01*
X16978210Y71079711D01*
X16978213Y71079707D01*
X17089707Y70968213D01*
X17089711Y70968210D01*
X17220814Y70880609D01*
X17220827Y70880602D01*
X17366498Y70820264D01*
X17366510Y70820261D01*
X17521153Y70789500D01*
X17521158Y70789500D01*
X17678846Y70789500D01*
X17833489Y70820261D01*
X17833501Y70820264D01*
X17979172Y70880602D01*
X17979185Y70880609D01*
X18110288Y70968210D01*
X18110292Y70968213D01*
X18221786Y71079707D01*
X18221789Y71079711D01*
X18309390Y71210814D01*
X18309397Y71210827D01*
X18369735Y71356498D01*
X18369737Y71356503D01*
X18400499Y71511153D01*
X18400500Y71511155D01*
X18400500Y71668841D01*
X18398133Y71680740D01*
X18398133Y71680743D01*
X18394532Y71698846D01*
X22879500Y71698846D01*
X22879500Y71541153D01*
X22910261Y71386510D01*
X22910264Y71386498D01*
X22970602Y71240827D01*
X22970609Y71240814D01*
X23058210Y71109711D01*
X23058213Y71109707D01*
X23169707Y70998213D01*
X23169711Y70998210D01*
X23300814Y70910609D01*
X23300827Y70910602D01*
X23446498Y70850264D01*
X23446510Y70850261D01*
X23601153Y70819500D01*
X23601158Y70819500D01*
X23758846Y70819500D01*
X23913489Y70850261D01*
X23913501Y70850264D01*
X24059172Y70910602D01*
X24059190Y70910612D01*
X24121144Y70952008D01*
X24187821Y70972886D01*
X24255201Y70954401D01*
X24258925Y70952008D01*
X24350814Y70890609D01*
X24350827Y70890602D01*
X24496498Y70830264D01*
X24496510Y70830261D01*
X24651153Y70799500D01*
X24651158Y70799500D01*
X24808846Y70799500D01*
X24963489Y70830261D01*
X24963501Y70830264D01*
X25109172Y70890602D01*
X25109185Y70890609D01*
X25240288Y70978210D01*
X25240292Y70978213D01*
X25351786Y71089707D01*
X25351789Y71089711D01*
X25439390Y71220814D01*
X25439397Y71220827D01*
X25499735Y71366498D01*
X25499737Y71366503D01*
X25530499Y71521153D01*
X25530500Y71521155D01*
X25530500Y71678841D01*
X25528133Y71690740D01*
X25528133Y71690743D01*
X25524532Y71708846D01*
X29479500Y71708846D01*
X29479500Y71551153D01*
X29510261Y71396510D01*
X29510264Y71396498D01*
X29570602Y71250827D01*
X29570609Y71250814D01*
X29658210Y71119711D01*
X29658213Y71119707D01*
X29769707Y71008213D01*
X29769711Y71008210D01*
X29900814Y70920609D01*
X29900827Y70920602D01*
X30046498Y70860264D01*
X30046510Y70860261D01*
X30201153Y70829500D01*
X30201158Y70829500D01*
X30358846Y70829500D01*
X30513489Y70860261D01*
X30513501Y70860264D01*
X30659172Y70920602D01*
X30659185Y70920609D01*
X30790288Y71008210D01*
X30790292Y71008213D01*
X30901786Y71119707D01*
X30901789Y71119711D01*
X30989390Y71250814D01*
X30989397Y71250827D01*
X31049735Y71396498D01*
X31049737Y71396503D01*
X31080499Y71551153D01*
X31080500Y71551155D01*
X31080500Y71708844D01*
X31078516Y71718813D01*
X31070553Y71758846D01*
X31599500Y71758846D01*
X31599500Y71601153D01*
X31630261Y71446510D01*
X31630264Y71446498D01*
X31690602Y71300827D01*
X31690609Y71300814D01*
X31778210Y71169711D01*
X31778213Y71169707D01*
X31889707Y71058213D01*
X31889711Y71058210D01*
X32020814Y70970609D01*
X32020827Y70970602D01*
X32166498Y70910264D01*
X32166510Y70910261D01*
X32321153Y70879500D01*
X32321158Y70879500D01*
X32478846Y70879500D01*
X32633489Y70910261D01*
X32633501Y70910264D01*
X32779172Y70970602D01*
X32779185Y70970609D01*
X32910288Y71058210D01*
X32910292Y71058213D01*
X33021786Y71169707D01*
X33021789Y71169711D01*
X33109390Y71300814D01*
X33109397Y71300827D01*
X33169735Y71446498D01*
X33169737Y71446503D01*
X33200499Y71601153D01*
X33200500Y71601155D01*
X33200500Y71678846D01*
X36819500Y71678846D01*
X36819500Y71521153D01*
X36850261Y71366510D01*
X36850264Y71366498D01*
X36910602Y71220827D01*
X36910609Y71220814D01*
X36998210Y71089711D01*
X36998213Y71089707D01*
X37109707Y70978213D01*
X37109711Y70978210D01*
X37240814Y70890609D01*
X37240827Y70890602D01*
X37386498Y70830264D01*
X37386510Y70830261D01*
X37541153Y70799500D01*
X37541158Y70799500D01*
X37698846Y70799500D01*
X37853489Y70830261D01*
X37853501Y70830264D01*
X38004808Y70892937D01*
X38005341Y70891649D01*
X38066842Y70904461D01*
X38125790Y70883967D01*
X38130814Y70880610D01*
X38130828Y70880602D01*
X38276498Y70820264D01*
X38276510Y70820261D01*
X38431153Y70789500D01*
X38431158Y70789500D01*
X38588846Y70789500D01*
X38743489Y70820261D01*
X38743501Y70820264D01*
X38889171Y70880602D01*
X38889176Y70880605D01*
X38889179Y70880606D01*
X38889181Y70880607D01*
X38894553Y70883479D01*
X38895592Y70881533D01*
X38952809Y70899455D01*
X39020190Y70880976D01*
X39023921Y70878579D01*
X39050814Y70860610D01*
X39050828Y70860602D01*
X39196498Y70800264D01*
X39196510Y70800261D01*
X39351153Y70769500D01*
X39351158Y70769500D01*
X39508846Y70769500D01*
X39663489Y70800261D01*
X39663501Y70800264D01*
X39809172Y70860602D01*
X39809185Y70860609D01*
X39940288Y70948210D01*
X39940292Y70948213D01*
X40051786Y71059707D01*
X40051789Y71059711D01*
X40139390Y71190814D01*
X40139397Y71190827D01*
X40199735Y71336498D01*
X40199737Y71336503D01*
X40230499Y71491153D01*
X40230500Y71491155D01*
X40230500Y71648844D01*
X40230499Y71648846D01*
X40206253Y71770743D01*
X40202652Y71788846D01*
X44959500Y71788846D01*
X44959500Y71631153D01*
X44990261Y71476510D01*
X44990264Y71476498D01*
X45050602Y71330827D01*
X45050609Y71330814D01*
X45138210Y71199711D01*
X45138213Y71199707D01*
X45249707Y71088213D01*
X45249711Y71088210D01*
X45380814Y71000609D01*
X45380827Y71000602D01*
X45526498Y70940264D01*
X45526510Y70940261D01*
X45681153Y70909500D01*
X45681158Y70909500D01*
X45838846Y70909500D01*
X45993489Y70940261D01*
X45993501Y70940264D01*
X46139172Y71000602D01*
X46139185Y71000609D01*
X46203558Y71043622D01*
X46270236Y71064500D01*
X46337616Y71046015D01*
X46341337Y71043624D01*
X46360814Y71030610D01*
X46360828Y71030602D01*
X46506498Y70970264D01*
X46506510Y70970261D01*
X46661153Y70939500D01*
X46661158Y70939500D01*
X46818846Y70939500D01*
X46973489Y70970261D01*
X46973501Y70970264D01*
X47119172Y71030602D01*
X47119190Y71030612D01*
X47181144Y71072008D01*
X47247821Y71092886D01*
X47315201Y71074401D01*
X47318925Y71072008D01*
X47410814Y71010609D01*
X47410827Y71010602D01*
X47556498Y70950264D01*
X47556510Y70950261D01*
X47711153Y70919500D01*
X47711158Y70919500D01*
X47868846Y70919500D01*
X48023489Y70950261D01*
X48023501Y70950264D01*
X48169172Y71010602D01*
X48169185Y71010609D01*
X48300288Y71098210D01*
X48300292Y71098213D01*
X48411786Y71209707D01*
X48411789Y71209711D01*
X48499390Y71340814D01*
X48499397Y71340827D01*
X48559735Y71486498D01*
X48559737Y71486503D01*
X48590499Y71641153D01*
X48590500Y71641155D01*
X48590500Y71728846D01*
X51899500Y71728846D01*
X51899500Y71571153D01*
X51930261Y71416510D01*
X51930264Y71416498D01*
X51990602Y71270827D01*
X51990609Y71270814D01*
X52078210Y71139711D01*
X52078213Y71139707D01*
X52189707Y71028213D01*
X52189711Y71028210D01*
X52320814Y70940609D01*
X52320827Y70940602D01*
X52466498Y70880264D01*
X52466510Y70880261D01*
X52621153Y70849500D01*
X52621158Y70849500D01*
X52778846Y70849500D01*
X52933488Y70880260D01*
X52933493Y70880262D01*
X52933497Y70880263D01*
X52981335Y70900078D01*
X53050804Y70907545D01*
X53076238Y70900077D01*
X53196498Y70850264D01*
X53196510Y70850261D01*
X53351153Y70819500D01*
X53351158Y70819500D01*
X53508846Y70819500D01*
X53663489Y70850261D01*
X53663492Y70850262D01*
X53663497Y70850263D01*
X53760885Y70890602D01*
X53765477Y70892504D01*
X53834947Y70899972D01*
X53860381Y70892503D01*
X53986498Y70840264D01*
X53986510Y70840261D01*
X54141153Y70809500D01*
X54141158Y70809500D01*
X54298846Y70809500D01*
X54453489Y70840261D01*
X54453501Y70840264D01*
X54599172Y70900602D01*
X54599185Y70900609D01*
X54730288Y70988210D01*
X54730292Y70988213D01*
X54841786Y71099707D01*
X54841789Y71099711D01*
X54929390Y71230814D01*
X54929397Y71230827D01*
X54989735Y71376498D01*
X54989737Y71376503D01*
X55020499Y71531153D01*
X55020500Y71531155D01*
X55020500Y71688844D01*
X55020499Y71688846D01*
X55018510Y71698846D01*
X54989737Y71843497D01*
X54929394Y71989179D01*
X54841789Y72120289D01*
X54730289Y72231789D01*
X54599179Y72319394D01*
X54575029Y72329397D01*
X54556486Y72337078D01*
X54453497Y72379737D01*
X54376520Y72395048D01*
X54298845Y72410500D01*
X54298842Y72410500D01*
X54141158Y72410500D01*
X54141155Y72410500D01*
X54047858Y72391941D01*
X53986503Y72379737D01*
X53986498Y72379735D01*
X53884523Y72337496D01*
X53815054Y72330027D01*
X53789621Y72337495D01*
X53663497Y72389737D01*
X53579838Y72406378D01*
X53508845Y72420500D01*
X53508842Y72420500D01*
X53351158Y72420500D01*
X53351155Y72420500D01*
X53280162Y72406378D01*
X53196503Y72389737D01*
X53148664Y72369921D01*
X53079198Y72362453D01*
X53053764Y72369921D01*
X52933497Y72419737D01*
X52856520Y72435048D01*
X52778845Y72450500D01*
X52778842Y72450500D01*
X52621158Y72450500D01*
X52621155Y72450500D01*
X52527858Y72431941D01*
X52466503Y72419737D01*
X52466498Y72419735D01*
X52320827Y72359397D01*
X52320814Y72359390D01*
X52189711Y72271789D01*
X52189707Y72271786D01*
X52078213Y72160292D01*
X52078210Y72160288D01*
X51990609Y72029185D01*
X51990602Y72029172D01*
X51930264Y71883501D01*
X51930261Y71883489D01*
X51899500Y71728846D01*
X48590500Y71728846D01*
X48590500Y71798844D01*
X48590499Y71798846D01*
X48583608Y71833489D01*
X48559737Y71953497D01*
X48499394Y72099179D01*
X48411789Y72230289D01*
X48300289Y72341789D01*
X48169179Y72429394D01*
X48023497Y72489737D01*
X47946520Y72505048D01*
X47868845Y72520500D01*
X47868842Y72520500D01*
X47711158Y72520500D01*
X47711155Y72520500D01*
X47617858Y72501941D01*
X47556503Y72489737D01*
X47556498Y72489735D01*
X47410827Y72429397D01*
X47410814Y72429390D01*
X47348856Y72387991D01*
X47282178Y72367113D01*
X47214798Y72385598D01*
X47211124Y72387958D01*
X47119179Y72449394D01*
X46973497Y72509737D01*
X46896520Y72525048D01*
X46818845Y72540500D01*
X46818842Y72540500D01*
X46661158Y72540500D01*
X46661155Y72540500D01*
X46567858Y72521941D01*
X46506503Y72509737D01*
X46506498Y72509735D01*
X46360827Y72449397D01*
X46360814Y72449390D01*
X46296441Y72406377D01*
X46229764Y72385499D01*
X46162383Y72403983D01*
X46158658Y72406378D01*
X46139179Y72419394D01*
X45993497Y72479737D01*
X45916520Y72495048D01*
X45838845Y72510500D01*
X45838842Y72510500D01*
X45681158Y72510500D01*
X45681155Y72510500D01*
X45587858Y72491941D01*
X45526503Y72479737D01*
X45526498Y72479735D01*
X45380827Y72419397D01*
X45380814Y72419390D01*
X45249711Y72331789D01*
X45249707Y72331786D01*
X45138213Y72220292D01*
X45138210Y72220288D01*
X45050609Y72089185D01*
X45050602Y72089172D01*
X44990264Y71943501D01*
X44990261Y71943489D01*
X44959500Y71788846D01*
X40202652Y71788846D01*
X40200663Y71798842D01*
X40199737Y71803497D01*
X40139394Y71949179D01*
X40051789Y72080289D01*
X39940289Y72191789D01*
X39809179Y72279394D01*
X39663497Y72339737D01*
X39586520Y72355048D01*
X39508845Y72370500D01*
X39508842Y72370500D01*
X39351158Y72370500D01*
X39351155Y72370500D01*
X39257858Y72351941D01*
X39196503Y72339737D01*
X39196498Y72339735D01*
X39050827Y72279397D01*
X39045446Y72276521D01*
X39044409Y72278460D01*
X38987161Y72260544D01*
X38919784Y72279039D01*
X38916096Y72281408D01*
X38889179Y72299394D01*
X38865029Y72309397D01*
X38840887Y72319397D01*
X38743497Y72359737D01*
X38666520Y72375048D01*
X38588845Y72390500D01*
X38588842Y72390500D01*
X38431158Y72390500D01*
X38431155Y72390500D01*
X38337858Y72371941D01*
X38276503Y72359737D01*
X38276498Y72359735D01*
X38125192Y72297063D01*
X38124658Y72298350D01*
X38063155Y72285538D01*
X38004197Y72306040D01*
X37999179Y72309394D01*
X37853497Y72369737D01*
X37761729Y72387991D01*
X37698845Y72400500D01*
X37698842Y72400500D01*
X37541158Y72400500D01*
X37541155Y72400500D01*
X37466241Y72385598D01*
X37386503Y72369737D01*
X37386498Y72369735D01*
X37240827Y72309397D01*
X37240814Y72309390D01*
X37109711Y72221789D01*
X37109707Y72221786D01*
X36998213Y72110292D01*
X36998210Y72110288D01*
X36910609Y71979185D01*
X36910602Y71979172D01*
X36850264Y71833501D01*
X36850261Y71833489D01*
X36819500Y71678846D01*
X33200500Y71678846D01*
X33200500Y71758844D01*
X33200499Y71758846D01*
X33169737Y71913497D01*
X33109394Y72059179D01*
X33021789Y72190289D01*
X32910289Y72301789D01*
X32779179Y72389394D01*
X32778353Y72389736D01*
X32728224Y72410500D01*
X32633497Y72449737D01*
X32556520Y72465048D01*
X32478845Y72480500D01*
X32478842Y72480500D01*
X32321158Y72480500D01*
X32321155Y72480500D01*
X32227858Y72461941D01*
X32166503Y72449737D01*
X32166498Y72449735D01*
X32020827Y72389397D01*
X32020814Y72389390D01*
X31889711Y72301789D01*
X31889707Y72301786D01*
X31778213Y72190292D01*
X31778210Y72190288D01*
X31690609Y72059185D01*
X31690602Y72059172D01*
X31630264Y71913501D01*
X31630261Y71913489D01*
X31599500Y71758846D01*
X31070553Y71758846D01*
X31049737Y71863497D01*
X31029952Y71911261D01*
X31027778Y71919688D01*
X31028656Y71946254D01*
X31025815Y71972686D01*
X31029921Y71984496D01*
X31030088Y71989520D01*
X31033272Y71994132D01*
X31037111Y72005172D01*
X31037063Y72005193D01*
X31037408Y72006028D01*
X31038483Y72009117D01*
X31039388Y72010812D01*
X31039394Y72010821D01*
X31099737Y72156503D01*
X31130499Y72311153D01*
X31130500Y72311155D01*
X31130500Y72468844D01*
X31130499Y72468846D01*
X31128333Y72479737D01*
X31099737Y72623497D01*
X31039394Y72769179D01*
X30951789Y72900289D01*
X30840289Y73011789D01*
X30709179Y73099394D01*
X30563497Y73159737D01*
X30486520Y73175048D01*
X30408845Y73190500D01*
X30408842Y73190500D01*
X30251158Y73190500D01*
X30251155Y73190500D01*
X30157858Y73171941D01*
X30096503Y73159737D01*
X30096498Y73159735D01*
X29950827Y73099397D01*
X29950814Y73099390D01*
X29819711Y73011789D01*
X29819707Y73011786D01*
X29708213Y72900292D01*
X29708210Y72900288D01*
X29620609Y72769185D01*
X29620602Y72769172D01*
X29560264Y72623501D01*
X29560261Y72623489D01*
X29529500Y72468846D01*
X29529500Y72311153D01*
X29560261Y72156505D01*
X29560263Y72156501D01*
X29576716Y72116779D01*
X29584183Y72047309D01*
X29572887Y72014827D01*
X29572937Y72014807D01*
X29572585Y72013958D01*
X29571515Y72010880D01*
X29570605Y72009178D01*
X29510264Y71863501D01*
X29510261Y71863489D01*
X29479500Y71708846D01*
X25524532Y71708846D01*
X25514587Y71758842D01*
X25499737Y71833497D01*
X25443534Y71969185D01*
X25439397Y71979172D01*
X25439396Y71979172D01*
X25439394Y71979179D01*
X25351789Y72110289D01*
X25240289Y72221789D01*
X25109179Y72309394D01*
X25104932Y72311153D01*
X25059366Y72330027D01*
X24963497Y72369737D01*
X24871729Y72387991D01*
X24808845Y72400500D01*
X24808842Y72400500D01*
X24651158Y72400500D01*
X24651155Y72400500D01*
X24576241Y72385598D01*
X24496503Y72369737D01*
X24496498Y72369735D01*
X24350827Y72309397D01*
X24350814Y72309390D01*
X24288856Y72267991D01*
X24222178Y72247113D01*
X24154798Y72265598D01*
X24151124Y72267958D01*
X24059179Y72329394D01*
X23913497Y72389737D01*
X23829838Y72406378D01*
X23758845Y72420500D01*
X23758842Y72420500D01*
X23601158Y72420500D01*
X23601155Y72420500D01*
X23530162Y72406378D01*
X23446503Y72389737D01*
X23446498Y72389735D01*
X23300827Y72329397D01*
X23300814Y72329390D01*
X23169711Y72241789D01*
X23169707Y72241786D01*
X23058213Y72130292D01*
X23058210Y72130288D01*
X22970609Y71999185D01*
X22970602Y71999172D01*
X22910264Y71853501D01*
X22910261Y71853489D01*
X22879500Y71698846D01*
X18394532Y71698846D01*
X18376630Y71788842D01*
X18369737Y71823497D01*
X18309394Y71969179D01*
X18221789Y72100289D01*
X18110289Y72211789D01*
X17979179Y72299394D01*
X17955029Y72309397D01*
X17930887Y72319397D01*
X17833497Y72359737D01*
X17756520Y72375048D01*
X17678845Y72390500D01*
X17678842Y72390500D01*
X17521158Y72390500D01*
X17521155Y72390500D01*
X17427858Y72371941D01*
X17366503Y72359737D01*
X17366498Y72359735D01*
X17220827Y72299397D01*
X17220814Y72299390D01*
X17089711Y72211789D01*
X17089707Y72211786D01*
X16978213Y72100292D01*
X16978210Y72100288D01*
X16890609Y71969185D01*
X16890602Y71969172D01*
X16830264Y71823501D01*
X16830261Y71823489D01*
X16799500Y71668846D01*
X-29499500Y71668846D01*
X-29499500Y73938846D01*
X7819500Y73938846D01*
X7819500Y73781153D01*
X7850261Y73626510D01*
X7850264Y73626498D01*
X7910602Y73480827D01*
X7910609Y73480814D01*
X7998210Y73349711D01*
X7998213Y73349707D01*
X8109707Y73238213D01*
X8109711Y73238210D01*
X8240814Y73150609D01*
X8240827Y73150602D01*
X8386498Y73090264D01*
X8386510Y73090261D01*
X8541153Y73059500D01*
X8541158Y73059500D01*
X8698846Y73059500D01*
X8853489Y73090261D01*
X8853501Y73090264D01*
X8999172Y73150602D01*
X8999185Y73150609D01*
X9130288Y73238210D01*
X9130292Y73238213D01*
X9241786Y73349707D01*
X9241789Y73349711D01*
X9329390Y73480814D01*
X9329397Y73480827D01*
X9389735Y73626498D01*
X9389737Y73626503D01*
X9420499Y73781153D01*
X9420500Y73781155D01*
X9420500Y73938844D01*
X9420499Y73938846D01*
X9389737Y74093497D01*
X9329394Y74239179D01*
X9241789Y74370289D01*
X9130289Y74481789D01*
X8999179Y74569394D01*
X8853497Y74629737D01*
X8776520Y74645048D01*
X8698845Y74660500D01*
X8698842Y74660500D01*
X8541158Y74660500D01*
X8541155Y74660500D01*
X8447858Y74641941D01*
X8386503Y74629737D01*
X8386498Y74629735D01*
X8240827Y74569397D01*
X8240814Y74569390D01*
X8109711Y74481789D01*
X8109707Y74481786D01*
X7998213Y74370292D01*
X7998210Y74370288D01*
X7910609Y74239185D01*
X7910602Y74239172D01*
X7850264Y74093501D01*
X7850261Y74093489D01*
X7819500Y73938846D01*
X-29499500Y73938846D01*
X-29499500Y80388846D01*
X25499500Y80388846D01*
X25499500Y80231153D01*
X25530261Y80076510D01*
X25530264Y80076498D01*
X25590602Y79930827D01*
X25590609Y79930814D01*
X25678210Y79799711D01*
X25678213Y79799707D01*
X25789707Y79688213D01*
X25789711Y79688210D01*
X25920814Y79600609D01*
X25920827Y79600602D01*
X26066498Y79540264D01*
X26066510Y79540261D01*
X26221153Y79509500D01*
X26221158Y79509500D01*
X26378846Y79509500D01*
X26533489Y79540261D01*
X26533501Y79540264D01*
X26679172Y79600602D01*
X26679185Y79600609D01*
X26810288Y79688210D01*
X26810292Y79688213D01*
X26921786Y79799707D01*
X26921789Y79799711D01*
X27009390Y79930814D01*
X27009397Y79930827D01*
X27069735Y80076498D01*
X27069736Y80076501D01*
X27069737Y80076503D01*
X27100499Y80231153D01*
X27100500Y80231155D01*
X27100500Y80388843D01*
X27096144Y80410741D01*
X27096144Y80410743D01*
X27092543Y80428846D01*
X29649500Y80428846D01*
X29649500Y80271153D01*
X29680261Y80116510D01*
X29680264Y80116498D01*
X29740602Y79970827D01*
X29740609Y79970814D01*
X29828210Y79839711D01*
X29828213Y79839707D01*
X29939707Y79728213D01*
X29939711Y79728210D01*
X30070814Y79640609D01*
X30070827Y79640602D01*
X30216498Y79580264D01*
X30216510Y79580261D01*
X30371153Y79549500D01*
X30371158Y79549500D01*
X30528846Y79549500D01*
X30683489Y79580261D01*
X30683501Y79580264D01*
X30829172Y79640602D01*
X30829185Y79640609D01*
X30960288Y79728210D01*
X30960292Y79728213D01*
X31071786Y79839707D01*
X31071789Y79839711D01*
X31159390Y79970814D01*
X31159397Y79970827D01*
X31219735Y80116498D01*
X31219737Y80116503D01*
X31250499Y80271153D01*
X31250500Y80271155D01*
X31250500Y80348846D01*
X32349500Y80348846D01*
X32349500Y80191153D01*
X32380261Y80036510D01*
X32380264Y80036498D01*
X32440602Y79890827D01*
X32440609Y79890814D01*
X32528210Y79759711D01*
X32528213Y79759707D01*
X32639707Y79648213D01*
X32639711Y79648210D01*
X32770814Y79560609D01*
X32770827Y79560602D01*
X32916498Y79500264D01*
X32916510Y79500261D01*
X33071153Y79469500D01*
X33071158Y79469500D01*
X33228846Y79469500D01*
X33383489Y79500261D01*
X33383501Y79500264D01*
X33529172Y79560602D01*
X33529185Y79560609D01*
X33660288Y79648210D01*
X33660292Y79648213D01*
X33771786Y79759707D01*
X33771789Y79759711D01*
X33859390Y79890814D01*
X33859397Y79890827D01*
X33919735Y80036498D01*
X33919737Y80036503D01*
X33950499Y80191153D01*
X33950500Y80191155D01*
X33950500Y80348843D01*
X33946144Y80370741D01*
X33946144Y80370743D01*
X33942543Y80388846D01*
X34729500Y80388846D01*
X34729500Y80231153D01*
X34760261Y80076510D01*
X34760264Y80076498D01*
X34820602Y79930827D01*
X34820609Y79930814D01*
X34908210Y79799711D01*
X34908213Y79799707D01*
X35019707Y79688213D01*
X35019711Y79688210D01*
X35150814Y79600609D01*
X35150827Y79600602D01*
X35296498Y79540264D01*
X35296510Y79540261D01*
X35451153Y79509500D01*
X35451158Y79509500D01*
X35608846Y79509500D01*
X35763489Y79540261D01*
X35763501Y79540264D01*
X35909172Y79600602D01*
X35909185Y79600609D01*
X36040288Y79688210D01*
X36040292Y79688213D01*
X36151786Y79799707D01*
X36151789Y79799711D01*
X36239390Y79930814D01*
X36239397Y79930827D01*
X36299736Y80076501D01*
X36299737Y80076504D01*
X36307693Y80116503D01*
X36312616Y80141254D01*
X36344999Y80203163D01*
X36386781Y80231623D01*
X36529172Y80290602D01*
X36529185Y80290609D01*
X36660288Y80378210D01*
X36660292Y80378213D01*
X36771786Y80489707D01*
X36771789Y80489711D01*
X36859390Y80620814D01*
X36859397Y80620827D01*
X36919735Y80766498D01*
X36919737Y80766503D01*
X36950499Y80921153D01*
X36950500Y80921155D01*
X36950500Y81078844D01*
X36950499Y81078846D01*
X36950322Y81079738D01*
X36919737Y81233497D01*
X36859394Y81379179D01*
X36771789Y81510289D01*
X36660289Y81621789D01*
X36529179Y81709394D01*
X36383497Y81769737D01*
X36306520Y81785048D01*
X36228845Y81800500D01*
X36228842Y81800500D01*
X36071158Y81800500D01*
X36071155Y81800500D01*
X35977858Y81781941D01*
X35916503Y81769737D01*
X35916498Y81769735D01*
X35770827Y81709397D01*
X35770814Y81709390D01*
X35639711Y81621789D01*
X35639707Y81621786D01*
X35528213Y81510292D01*
X35528210Y81510288D01*
X35440609Y81379185D01*
X35440602Y81379172D01*
X35380264Y81233501D01*
X35380261Y81233492D01*
X35367382Y81168745D01*
X35334996Y81106835D01*
X35293218Y81078377D01*
X35150823Y81019395D01*
X35150814Y81019390D01*
X35019711Y80931789D01*
X35019707Y80931786D01*
X34908213Y80820292D01*
X34908210Y80820288D01*
X34820609Y80689185D01*
X34820602Y80689172D01*
X34760264Y80543501D01*
X34760261Y80543489D01*
X34729500Y80388846D01*
X33942543Y80388846D01*
X33934587Y80428842D01*
X33919737Y80503497D01*
X33859394Y80649179D01*
X33771789Y80780289D01*
X33660289Y80891789D01*
X33529179Y80979394D01*
X33383497Y81039737D01*
X33306520Y81055048D01*
X33228845Y81070500D01*
X33228842Y81070500D01*
X33071158Y81070500D01*
X33071155Y81070500D01*
X32977858Y81051941D01*
X32916503Y81039737D01*
X32916498Y81039735D01*
X32770827Y80979397D01*
X32770814Y80979390D01*
X32639711Y80891789D01*
X32639707Y80891786D01*
X32528213Y80780292D01*
X32528210Y80780288D01*
X32440609Y80649185D01*
X32440602Y80649172D01*
X32380264Y80503501D01*
X32380261Y80503489D01*
X32349500Y80348846D01*
X31250500Y80348846D01*
X31250500Y80428844D01*
X31250499Y80428846D01*
X31238392Y80489711D01*
X31219737Y80583497D01*
X31159394Y80729179D01*
X31071789Y80860289D01*
X30960289Y80971789D01*
X30829179Y81059394D01*
X30683497Y81119737D01*
X30606520Y81135048D01*
X30528845Y81150500D01*
X30528842Y81150500D01*
X30371158Y81150500D01*
X30371155Y81150500D01*
X30277858Y81131941D01*
X30216503Y81119737D01*
X30216498Y81119735D01*
X30070827Y81059397D01*
X30070814Y81059390D01*
X29939711Y80971789D01*
X29939707Y80971786D01*
X29828213Y80860292D01*
X29828210Y80860288D01*
X29740609Y80729185D01*
X29740602Y80729172D01*
X29680264Y80583501D01*
X29680261Y80583489D01*
X29649500Y80428846D01*
X27092543Y80428846D01*
X27085344Y80465034D01*
X27069737Y80543497D01*
X27009394Y80689179D01*
X26921789Y80820289D01*
X26810289Y80931789D01*
X26679179Y81019394D01*
X26533497Y81079737D01*
X26456520Y81095048D01*
X26378845Y81110500D01*
X26378842Y81110500D01*
X26221158Y81110500D01*
X26221155Y81110500D01*
X26127858Y81091941D01*
X26066503Y81079737D01*
X26066498Y81079735D01*
X25920827Y81019397D01*
X25920814Y81019390D01*
X25789711Y80931789D01*
X25789707Y80931786D01*
X25678213Y80820292D01*
X25678210Y80820288D01*
X25590609Y80689185D01*
X25590602Y80689172D01*
X25530264Y80543501D01*
X25530261Y80543489D01*
X25499500Y80388846D01*
X-29499500Y80388846D01*
X-29499500Y93251288D01*
X-15430500Y93251288D01*
X-15430500Y93008712D01*
X-15398838Y92768211D01*
X-15336054Y92533900D01*
X-15243224Y92309788D01*
X-15121936Y92099711D01*
X-15121932Y92099706D01*
X-14974266Y91907263D01*
X-14974260Y91907256D01*
X-14802743Y91735739D01*
X-14802736Y91735733D01*
X-14610293Y91588067D01*
X-14610289Y91588064D01*
X-14438661Y91488974D01*
X-14400214Y91466777D01*
X-14400205Y91466773D01*
X-14176104Y91373947D01*
X-13941785Y91311161D01*
X-13701289Y91279500D01*
X-13701288Y91279500D01*
X-13458711Y91279500D01*
X-13218214Y91311161D01*
X-12983895Y91373947D01*
X-12759794Y91466773D01*
X-12759785Y91466777D01*
X-12549706Y91588067D01*
X-12357263Y91735733D01*
X-12357256Y91735739D01*
X-12185739Y91907256D01*
X-12185733Y91907263D01*
X-12038067Y92099706D01*
X-11916777Y92309785D01*
X-11916773Y92309794D01*
X-11823947Y92533895D01*
X-11761161Y92768214D01*
X-11729500Y93008711D01*
X-11729500Y93251288D01*
X-5270500Y93251288D01*
X-5270500Y93008712D01*
X-5238838Y92768211D01*
X-5176054Y92533900D01*
X-5083224Y92309788D01*
X-4961936Y92099711D01*
X-4961932Y92099706D01*
X-4814266Y91907263D01*
X-4814260Y91907256D01*
X-4642743Y91735739D01*
X-4642736Y91735733D01*
X-4450293Y91588067D01*
X-4450289Y91588064D01*
X-4278661Y91488974D01*
X-4240214Y91466777D01*
X-4240205Y91466773D01*
X-4016104Y91373947D01*
X-3781785Y91311161D01*
X-3541289Y91279500D01*
X-3541288Y91279500D01*
X-3298711Y91279500D01*
X-3058214Y91311161D01*
X-2823895Y91373947D01*
X-2599794Y91466773D01*
X-2599785Y91466777D01*
X-2389706Y91588067D01*
X-2197263Y91735733D01*
X-2197256Y91735739D01*
X-2025739Y91907256D01*
X-2025733Y91907263D01*
X-1878067Y92099706D01*
X-1756777Y92309785D01*
X-1756773Y92309794D01*
X-1663947Y92533895D01*
X-1601161Y92768214D01*
X-1569500Y93008711D01*
X-1569500Y93251288D01*
X-1601161Y93491785D01*
X-1663947Y93726104D01*
X-1756773Y93950205D01*
X-1756777Y93950214D01*
X-1778974Y93988661D01*
X-1878064Y94160289D01*
X-2025735Y94352738D01*
X-2025739Y94352743D01*
X-2197256Y94524260D01*
X-2197263Y94524266D01*
X-2389706Y94671932D01*
X-2389711Y94671936D01*
X-2599788Y94793224D01*
X-2823900Y94886054D01*
X-3058211Y94948838D01*
X-3238586Y94972584D01*
X-3298711Y94980500D01*
X-3298712Y94980500D01*
X-3541288Y94980500D01*
X-3541289Y94980500D01*
X-3589388Y94974167D01*
X-3781789Y94948838D01*
X-4016100Y94886054D01*
X-4240212Y94793224D01*
X-4450289Y94671936D01*
X-4642738Y94524265D01*
X-4814265Y94352738D01*
X-4961936Y94160289D01*
X-5083224Y93950212D01*
X-5176054Y93726100D01*
X-5238838Y93491789D01*
X-5270500Y93251288D01*
X-11729500Y93251288D01*
X-11761161Y93491785D01*
X-11823947Y93726104D01*
X-11916773Y93950205D01*
X-11916777Y93950214D01*
X-11938974Y93988661D01*
X-12038064Y94160289D01*
X-12185735Y94352738D01*
X-12185739Y94352743D01*
X-12357256Y94524260D01*
X-12357263Y94524266D01*
X-12549706Y94671932D01*
X-12549711Y94671936D01*
X-12759788Y94793224D01*
X-12983900Y94886054D01*
X-13218211Y94948838D01*
X-13398586Y94972584D01*
X-13458711Y94980500D01*
X-13458712Y94980500D01*
X-13701288Y94980500D01*
X-13701289Y94980500D01*
X-13749388Y94974167D01*
X-13941789Y94948838D01*
X-14176100Y94886054D01*
X-14400212Y94793224D01*
X-14610289Y94671936D01*
X-14802738Y94524265D01*
X-14974265Y94352738D01*
X-15121936Y94160289D01*
X-15243224Y93950212D01*
X-15336054Y93726100D01*
X-15398838Y93491789D01*
X-15430500Y93251288D01*
X-29499500Y93251288D01*
X-29499500Y99607873D01*
X-10350500Y99607873D01*
X-10350499Y96812128D01*
X-10350216Y96809500D01*
X-10344091Y96752516D01*
X-10293797Y96617671D01*
X-10293793Y96617664D01*
X-10207547Y96502455D01*
X-10207544Y96502452D01*
X-10092335Y96416206D01*
X-10092328Y96416202D01*
X-9957482Y96365908D01*
X-9957483Y96365908D01*
X-9897883Y96359501D01*
X-9897881Y96359500D01*
X-9897873Y96359500D01*
X-9897864Y96359500D01*
X-7102129Y96359500D01*
X-7102123Y96359501D01*
X-7042516Y96365908D01*
X-6907671Y96416202D01*
X-6907664Y96416206D01*
X-6792455Y96502452D01*
X-6792452Y96502455D01*
X-6706206Y96617664D01*
X-6706202Y96617671D01*
X-6655908Y96752517D01*
X-6649501Y96812116D01*
X-6649500Y96812119D01*
X-6649500Y96812127D01*
X-6649501Y99057864D01*
X3929500Y99057864D01*
X3929500Y97262129D01*
X3929501Y97262123D01*
X3935908Y97202516D01*
X3986202Y97067671D01*
X3986206Y97067664D01*
X4072452Y96952455D01*
X4072455Y96952452D01*
X4187664Y96866206D01*
X4187671Y96866202D01*
X4322517Y96815908D01*
X4322516Y96815908D01*
X4382116Y96809501D01*
X4382119Y96809500D01*
X4382127Y96809500D01*
X4382134Y96809500D01*
X4382135Y96809500D01*
X6177870Y96809500D01*
X6177876Y96809501D01*
X6237483Y96815908D01*
X6372328Y96866202D01*
X6372335Y96866206D01*
X6487544Y96952452D01*
X6487547Y96952455D01*
X6573793Y97067664D01*
X6573797Y97067671D01*
X6622810Y97199082D01*
X6664681Y97255016D01*
X6730145Y97279433D01*
X6798418Y97264582D01*
X6826673Y97243431D01*
X6940215Y97129889D01*
X7112179Y97004951D01*
X7301585Y96908444D01*
X7503760Y96842753D01*
X7503759Y96842753D01*
X7673248Y96815909D01*
X7713713Y96809500D01*
X7713714Y96809500D01*
X7926286Y96809500D01*
X7926287Y96809500D01*
X7989644Y96819534D01*
X8136239Y96842753D01*
X8136241Y96842753D01*
X8136243Y96842754D01*
X8338412Y96908443D01*
X8527816Y97004949D01*
X8527820Y97004951D01*
X8699786Y97129890D01*
X8850109Y97280213D01*
X8975048Y97452179D01*
X8975051Y97452184D01*
X9071557Y97641588D01*
X9137246Y97843757D01*
X9170500Y98053713D01*
X9170500Y98266287D01*
X9137246Y98476243D01*
X9071557Y98678412D01*
X8975051Y98867816D01*
X8959086Y98889789D01*
X8850109Y99039786D01*
X8850106Y99039788D01*
X8850104Y99039792D01*
X8699792Y99190104D01*
X8699788Y99190106D01*
X8699786Y99190109D01*
X8527820Y99315048D01*
X8527816Y99315051D01*
X8338412Y99411557D01*
X8136243Y99477246D01*
X7926287Y99510500D01*
X7713713Y99510500D01*
X7503757Y99477246D01*
X7301588Y99411557D01*
X7112184Y99315051D01*
X7112181Y99315049D01*
X7112179Y99315048D01*
X6940213Y99190109D01*
X6826673Y99076569D01*
X6765350Y99043084D01*
X6695658Y99048068D01*
X6639725Y99089940D01*
X6622810Y99120917D01*
X6573797Y99252328D01*
X6573796Y99252331D01*
X6487546Y99367546D01*
X6372331Y99453796D01*
X6237483Y99504091D01*
X6177873Y99510500D01*
X4382128Y99510499D01*
X4333757Y99505299D01*
X4322516Y99504091D01*
X4187671Y99453797D01*
X4187664Y99453793D01*
X4072455Y99367547D01*
X4072452Y99367544D01*
X3986206Y99252335D01*
X3986202Y99252328D01*
X3935908Y99117482D01*
X3929501Y99057883D01*
X3929500Y99057864D01*
X-6649501Y99057864D01*
X-6649501Y99607872D01*
X-6649502Y99607883D01*
X-6655908Y99667483D01*
X-6706202Y99802328D01*
X-6706206Y99802335D01*
X-6792452Y99917544D01*
X-6792455Y99917547D01*
X-6907664Y100003793D01*
X-6907671Y100003797D01*
X-7042517Y100054091D01*
X-7042516Y100054091D01*
X-7048925Y100054779D01*
X-7102127Y100060500D01*
X-9897872Y100060499D01*
X-9957483Y100054091D01*
X-10092331Y100003796D01*
X-10207546Y99917546D01*
X-10293796Y99802331D01*
X-10344091Y99667483D01*
X-10350500Y99607873D01*
X-29499500Y99607873D01*
X-29499500Y101178846D01*
X30349500Y101178846D01*
X30349500Y101021153D01*
X30380261Y100866510D01*
X30380264Y100866498D01*
X30440602Y100720827D01*
X30440609Y100720814D01*
X30528210Y100589711D01*
X30528213Y100589707D01*
X30639707Y100478213D01*
X30639711Y100478210D01*
X30770814Y100390609D01*
X30770827Y100390602D01*
X30922130Y100327932D01*
X30921120Y100325494D01*
X30969992Y100293416D01*
X30998402Y100229583D01*
X30999500Y100213121D01*
X30999500Y100121153D01*
X31030261Y99966510D01*
X31030264Y99966498D01*
X31090602Y99820827D01*
X31090609Y99820814D01*
X31178210Y99689711D01*
X31178213Y99689707D01*
X31289707Y99578213D01*
X31289711Y99578210D01*
X31420814Y99490609D01*
X31420827Y99490602D01*
X31566498Y99430264D01*
X31566510Y99430261D01*
X31721153Y99399500D01*
X31721158Y99399500D01*
X31878846Y99399500D01*
X32033489Y99430261D01*
X32033501Y99430264D01*
X32179172Y99490602D01*
X32179185Y99490609D01*
X32310288Y99578210D01*
X32310292Y99578213D01*
X32421786Y99689707D01*
X32421789Y99689711D01*
X32509390Y99820814D01*
X32509397Y99820827D01*
X32569735Y99966498D01*
X32569737Y99966503D01*
X32600499Y100121153D01*
X32600500Y100121155D01*
X32600500Y100278844D01*
X32600499Y100278846D01*
X32590735Y100327932D01*
X32569737Y100433497D01*
X32509394Y100579179D01*
X32421789Y100710289D01*
X32310289Y100821789D01*
X32179179Y100909394D01*
X32033497Y100969737D01*
X32033496Y100969737D01*
X32027869Y100972068D01*
X32028885Y100974522D01*
X31980070Y101006510D01*
X31951610Y101070321D01*
X31950500Y101086878D01*
X31950500Y101178844D01*
X31950499Y101178846D01*
X31919737Y101333497D01*
X31859394Y101479179D01*
X31771789Y101610289D01*
X31660289Y101721789D01*
X31529179Y101809394D01*
X31510671Y101817060D01*
X31496166Y101823067D01*
X31383497Y101869737D01*
X31306520Y101885048D01*
X31228845Y101900500D01*
X31228842Y101900500D01*
X31071158Y101900500D01*
X31071155Y101900500D01*
X30977858Y101881941D01*
X30916503Y101869737D01*
X30916498Y101869735D01*
X30770827Y101809397D01*
X30770814Y101809390D01*
X30639711Y101721789D01*
X30639707Y101721786D01*
X30528213Y101610292D01*
X30528210Y101610288D01*
X30440609Y101479185D01*
X30440602Y101479172D01*
X30380264Y101333501D01*
X30380261Y101333489D01*
X30349500Y101178846D01*
X-29499500Y101178846D01*
X-29499500Y103411248D01*
X-15430000Y103411248D01*
X-15430000Y103168751D01*
X-15429998Y103168735D01*
X-15398346Y102928312D01*
X-15335578Y102694060D01*
X-15242779Y102470021D01*
X-15242772Y102470007D01*
X-15121522Y102259996D01*
X-15121517Y102259989D01*
X-15052937Y102170614D01*
X-15052936Y102170614D01*
X-14370476Y102853074D01*
X-14279076Y102716283D01*
X-14153717Y102590924D01*
X-14016923Y102499521D01*
X-14699384Y101817061D01*
X-14610010Y101748481D01*
X-14399992Y101627227D01*
X-14399978Y101627220D01*
X-14175939Y101534421D01*
X-13941687Y101471653D01*
X-13701264Y101440001D01*
X-13701248Y101440000D01*
X-13458752Y101440000D01*
X-13458735Y101440001D01*
X-13218312Y101471653D01*
X-12984060Y101534421D01*
X-12760021Y101627220D01*
X-12760006Y101627227D01*
X-12549990Y101748480D01*
X-12460614Y101817060D01*
X-12460614Y101817061D01*
X-13143075Y102499522D01*
X-13006283Y102590924D01*
X-12880924Y102716283D01*
X-12789522Y102853075D01*
X-12107061Y102170614D01*
X-12107060Y102170614D01*
X-12038480Y102259990D01*
X-11917227Y102470006D01*
X-11917220Y102470021D01*
X-11824421Y102694060D01*
X-11761653Y102928312D01*
X-11730001Y103168735D01*
X-11730000Y103168751D01*
X-11730000Y103411256D01*
X-11730004Y103411288D01*
X-5270500Y103411288D01*
X-5270500Y103168711D01*
X-5264246Y103121207D01*
X-5238838Y102928211D01*
X-5176054Y102693900D01*
X-5083224Y102469788D01*
X-4961936Y102259711D01*
X-4961932Y102259706D01*
X-4814266Y102067263D01*
X-4814260Y102067256D01*
X-4642743Y101895739D01*
X-4642736Y101895733D01*
X-4450831Y101748480D01*
X-4450289Y101748064D01*
X-4278661Y101648974D01*
X-4240214Y101626777D01*
X-4240205Y101626773D01*
X-4016104Y101533947D01*
X-4016100Y101533946D01*
X-3811709Y101479179D01*
X-3781785Y101471161D01*
X-3541289Y101439500D01*
X-3541288Y101439500D01*
X-3298711Y101439500D01*
X-3058214Y101471161D01*
X-2823895Y101533947D01*
X-2599794Y101626773D01*
X-2599785Y101626777D01*
X-2389706Y101748067D01*
X-2197263Y101895733D01*
X-2197256Y101895739D01*
X-2025739Y102067256D01*
X-2025733Y102067263D01*
X-1878067Y102259706D01*
X-1877903Y102259989D01*
X-1861817Y102287851D01*
X-1756777Y102469785D01*
X-1756773Y102469794D01*
X-1663947Y102693895D01*
X-1601161Y102928214D01*
X-1569500Y103168711D01*
X-1569500Y103411288D01*
X-1601161Y103651785D01*
X-1616831Y103710264D01*
X-1663946Y103886100D01*
X-1663947Y103886104D01*
X-1756773Y104110205D01*
X-1756774Y104110207D01*
X-1756776Y104110212D01*
X-1814588Y104210346D01*
X15949500Y104210346D01*
X15949500Y104052653D01*
X15980261Y103898010D01*
X15980264Y103897998D01*
X16040602Y103752327D01*
X16040609Y103752314D01*
X16128210Y103621211D01*
X16128213Y103621207D01*
X16239707Y103509713D01*
X16239711Y103509710D01*
X16370814Y103422109D01*
X16370820Y103422106D01*
X16443425Y103392032D01*
X16497828Y103348190D01*
X16510532Y103324925D01*
X16540606Y103252320D01*
X16540609Y103252314D01*
X16628210Y103121211D01*
X16628213Y103121207D01*
X16739707Y103009713D01*
X16739711Y103009710D01*
X16870814Y102922109D01*
X16870827Y102922102D01*
X17016498Y102861764D01*
X17016510Y102861761D01*
X17171153Y102831000D01*
X17171158Y102831000D01*
X17328846Y102831000D01*
X17483489Y102861761D01*
X17483501Y102861764D01*
X17629172Y102922102D01*
X17629185Y102922109D01*
X17681109Y102956804D01*
X17747786Y102977682D01*
X17815167Y102959198D01*
X17818891Y102956804D01*
X17870814Y102922109D01*
X17870827Y102922102D01*
X18016498Y102861764D01*
X18016510Y102861761D01*
X18171153Y102831000D01*
X18171158Y102831000D01*
X18328846Y102831000D01*
X18483489Y102861761D01*
X18483501Y102861764D01*
X18629172Y102922102D01*
X18629185Y102922109D01*
X18681109Y102956804D01*
X18747786Y102977682D01*
X18815167Y102959198D01*
X18818891Y102956804D01*
X18870814Y102922109D01*
X18870827Y102922102D01*
X19016498Y102861764D01*
X19016510Y102861761D01*
X19171153Y102831000D01*
X19171158Y102831000D01*
X19328846Y102831000D01*
X19483489Y102861761D01*
X19483501Y102861764D01*
X19629172Y102922102D01*
X19629185Y102922109D01*
X19681109Y102956804D01*
X19747786Y102977682D01*
X19815167Y102959198D01*
X19818891Y102956804D01*
X19870814Y102922109D01*
X19870827Y102922102D01*
X20016498Y102861764D01*
X20016510Y102861761D01*
X20171153Y102831000D01*
X20171158Y102831000D01*
X20328846Y102831000D01*
X20483489Y102861761D01*
X20483501Y102861764D01*
X20629172Y102922102D01*
X20629185Y102922109D01*
X20760288Y103009710D01*
X20760292Y103009713D01*
X20871786Y103121207D01*
X20871789Y103121211D01*
X20959390Y103252314D01*
X20959397Y103252327D01*
X21019735Y103397998D01*
X21019737Y103398003D01*
X21050499Y103552653D01*
X21050500Y103552655D01*
X21050500Y103710344D01*
X21050499Y103710346D01*
X21949500Y103710346D01*
X21949500Y103552653D01*
X21980261Y103398010D01*
X21980264Y103397998D01*
X22040602Y103252327D01*
X22040609Y103252314D01*
X22128210Y103121211D01*
X22128213Y103121207D01*
X22239707Y103009713D01*
X22239711Y103009710D01*
X22370814Y102922109D01*
X22370827Y102922102D01*
X22516498Y102861764D01*
X22516510Y102861761D01*
X22671153Y102831000D01*
X22671158Y102831000D01*
X22828846Y102831000D01*
X22983489Y102861761D01*
X22983501Y102861764D01*
X23129172Y102922102D01*
X23129185Y102922109D01*
X23181109Y102956804D01*
X23247786Y102977682D01*
X23315167Y102959198D01*
X23318891Y102956804D01*
X23370814Y102922109D01*
X23370827Y102922102D01*
X23516498Y102861764D01*
X23516510Y102861761D01*
X23671153Y102831000D01*
X23671158Y102831000D01*
X23828846Y102831000D01*
X23983489Y102861761D01*
X23983501Y102861764D01*
X24129172Y102922102D01*
X24129185Y102922109D01*
X24181109Y102956804D01*
X24247786Y102977682D01*
X24315167Y102959198D01*
X24318891Y102956804D01*
X24370814Y102922109D01*
X24370827Y102922102D01*
X24516498Y102861764D01*
X24516510Y102861761D01*
X24671153Y102831000D01*
X24671158Y102831000D01*
X24828846Y102831000D01*
X24983489Y102861761D01*
X24983501Y102861764D01*
X25129172Y102922102D01*
X25129184Y102922109D01*
X25180423Y102956346D01*
X25247100Y102977224D01*
X25314480Y102958740D01*
X25336989Y102940931D01*
X25339703Y102938216D01*
X25339711Y102938210D01*
X25470814Y102850609D01*
X25470827Y102850602D01*
X25616498Y102790264D01*
X25616510Y102790261D01*
X25771153Y102759500D01*
X25771158Y102759500D01*
X25928846Y102759500D01*
X26083489Y102790261D01*
X26083501Y102790264D01*
X26229172Y102850602D01*
X26229185Y102850609D01*
X26360288Y102938210D01*
X26360292Y102938213D01*
X26471786Y103049707D01*
X26471789Y103049711D01*
X26559390Y103180814D01*
X26559397Y103180827D01*
X26619735Y103326498D01*
X26619737Y103326503D01*
X26650499Y103481153D01*
X26650500Y103481155D01*
X26650500Y103638844D01*
X26650499Y103638846D01*
X26647925Y103651785D01*
X26619737Y103793497D01*
X26559394Y103939179D01*
X26471789Y104070289D01*
X26360289Y104181789D01*
X26229179Y104269394D01*
X26214471Y104275486D01*
X26207834Y104278235D01*
X26083497Y104329737D01*
X26083490Y104329738D01*
X26083407Y104329764D01*
X26083364Y104329791D01*
X26081161Y104330704D01*
X26080357Y104330732D01*
X26079260Y104331491D01*
X26077869Y104332068D01*
X26077993Y104332369D01*
X26052898Y104349755D01*
X26024966Y104368058D01*
X26023851Y104369878D01*
X26022924Y104370521D01*
X26005589Y104399703D01*
X26004884Y104400856D01*
X26004759Y104401158D01*
X25959394Y104510679D01*
X25927210Y104558846D01*
X28009500Y104558846D01*
X28009500Y104401153D01*
X28040261Y104246510D01*
X28040264Y104246498D01*
X28100602Y104100827D01*
X28100609Y104100814D01*
X28188210Y103969711D01*
X28188213Y103969707D01*
X28299707Y103858213D01*
X28299711Y103858210D01*
X28430814Y103770609D01*
X28430827Y103770602D01*
X28576498Y103710264D01*
X28576510Y103710261D01*
X28731153Y103679500D01*
X28731158Y103679500D01*
X28888846Y103679500D01*
X29043489Y103710261D01*
X29043501Y103710264D01*
X29189172Y103770602D01*
X29189185Y103770609D01*
X29276342Y103828846D01*
X29949500Y103828846D01*
X29949500Y103671153D01*
X29980261Y103516510D01*
X29980264Y103516498D01*
X30040602Y103370827D01*
X30040609Y103370814D01*
X30128210Y103239711D01*
X30128213Y103239707D01*
X30239707Y103128213D01*
X30239711Y103128210D01*
X30370814Y103040609D01*
X30370827Y103040602D01*
X30516498Y102980264D01*
X30516510Y102980261D01*
X30671153Y102949500D01*
X30671158Y102949500D01*
X30828846Y102949500D01*
X30983489Y102980261D01*
X30983501Y102980264D01*
X31129172Y103040602D01*
X31129185Y103040609D01*
X31260288Y103128210D01*
X31260292Y103128213D01*
X31371786Y103239707D01*
X31371789Y103239711D01*
X31459390Y103370814D01*
X31459397Y103370827D01*
X31519735Y103516498D01*
X31519737Y103516503D01*
X31550499Y103671153D01*
X31550500Y103671155D01*
X31550500Y103828844D01*
X31550499Y103828846D01*
X31527944Y103942243D01*
X31524343Y103960346D01*
X38449500Y103960346D01*
X38449500Y103802653D01*
X38480261Y103648010D01*
X38480264Y103647998D01*
X38540602Y103502327D01*
X38540609Y103502314D01*
X38628210Y103371211D01*
X38628213Y103371207D01*
X38739707Y103259713D01*
X38739711Y103259710D01*
X38870814Y103172109D01*
X38870827Y103172102D01*
X39016498Y103111764D01*
X39016510Y103111761D01*
X39171153Y103081000D01*
X39171158Y103081000D01*
X39328846Y103081000D01*
X39483489Y103111761D01*
X39483501Y103111764D01*
X39629172Y103172102D01*
X39629185Y103172109D01*
X39681109Y103206804D01*
X39747786Y103227682D01*
X39815167Y103209198D01*
X39818891Y103206804D01*
X39870814Y103172109D01*
X39870827Y103172102D01*
X40016498Y103111764D01*
X40016510Y103111761D01*
X40171153Y103081000D01*
X40171158Y103081000D01*
X40328846Y103081000D01*
X40483489Y103111761D01*
X40483501Y103111764D01*
X40629172Y103172102D01*
X40629185Y103172109D01*
X40681109Y103206804D01*
X40747786Y103227682D01*
X40815167Y103209198D01*
X40818891Y103206804D01*
X40870814Y103172109D01*
X40870827Y103172102D01*
X41016498Y103111764D01*
X41016510Y103111761D01*
X41171153Y103081000D01*
X41171158Y103081000D01*
X41328846Y103081000D01*
X41483489Y103111761D01*
X41483501Y103111764D01*
X41629172Y103172102D01*
X41629185Y103172109D01*
X41760288Y103259710D01*
X41760292Y103259713D01*
X41871786Y103371207D01*
X41871789Y103371211D01*
X41959390Y103502314D01*
X41959392Y103502318D01*
X41959394Y103502321D01*
X42007351Y103618102D01*
X42051190Y103672502D01*
X42117484Y103694568D01*
X42185183Y103677289D01*
X42209591Y103658330D01*
X42239711Y103628210D01*
X42370814Y103540609D01*
X42370820Y103540606D01*
X42443425Y103510532D01*
X42497828Y103466690D01*
X42510532Y103443425D01*
X42540606Y103370820D01*
X42540609Y103370814D01*
X42628210Y103239711D01*
X42628213Y103239707D01*
X42739707Y103128213D01*
X42739711Y103128210D01*
X42870814Y103040609D01*
X42870827Y103040602D01*
X43016498Y102980264D01*
X43016510Y102980261D01*
X43171153Y102949500D01*
X43171158Y102949500D01*
X43328846Y102949500D01*
X43483489Y102980261D01*
X43483501Y102980264D01*
X43629172Y103040602D01*
X43629185Y103040609D01*
X43681109Y103075304D01*
X43747786Y103096182D01*
X43815167Y103077698D01*
X43818891Y103075304D01*
X43870814Y103040609D01*
X43870827Y103040602D01*
X44016498Y102980264D01*
X44016510Y102980261D01*
X44171153Y102949500D01*
X44171158Y102949500D01*
X44328846Y102949500D01*
X44483489Y102980261D01*
X44483501Y102980264D01*
X44629172Y103040602D01*
X44629185Y103040609D01*
X44681109Y103075304D01*
X44747786Y103096182D01*
X44815167Y103077698D01*
X44818891Y103075304D01*
X44870814Y103040609D01*
X44870827Y103040602D01*
X45016498Y102980264D01*
X45016510Y102980261D01*
X45171153Y102949500D01*
X45171158Y102949500D01*
X45328846Y102949500D01*
X45483489Y102980261D01*
X45483501Y102980264D01*
X45629172Y103040602D01*
X45629185Y103040609D01*
X45760288Y103128210D01*
X45760292Y103128213D01*
X45871786Y103239707D01*
X45871789Y103239711D01*
X45959390Y103370814D01*
X45959397Y103370827D01*
X46019735Y103516498D01*
X46019737Y103516503D01*
X46050499Y103671153D01*
X46050500Y103671155D01*
X46050500Y103828844D01*
X46050499Y103828846D01*
X46044658Y103858211D01*
X46019737Y103983497D01*
X45959394Y104129179D01*
X45871789Y104260289D01*
X45760289Y104371789D01*
X45629179Y104459394D01*
X45556572Y104489467D01*
X45502172Y104533305D01*
X45489470Y104556565D01*
X45459394Y104629179D01*
X45371789Y104760289D01*
X45260289Y104871789D01*
X45129179Y104959394D01*
X44983497Y105019737D01*
X44905177Y105035316D01*
X44828845Y105050500D01*
X44828842Y105050500D01*
X44671158Y105050500D01*
X44671155Y105050500D01*
X44594823Y105035316D01*
X44516503Y105019737D01*
X44516498Y105019735D01*
X44370825Y104959396D01*
X44370823Y104959395D01*
X44370821Y104959394D01*
X44318889Y104924694D01*
X44252215Y104903816D01*
X44184835Y104922300D01*
X44181136Y104924676D01*
X44129179Y104959394D01*
X43983497Y105019737D01*
X43905177Y105035316D01*
X43828845Y105050500D01*
X43828842Y105050500D01*
X43671158Y105050500D01*
X43671155Y105050500D01*
X43594823Y105035316D01*
X43516503Y105019737D01*
X43516498Y105019735D01*
X43370825Y104959396D01*
X43370823Y104959395D01*
X43370821Y104959394D01*
X43318889Y104924694D01*
X43252215Y104903816D01*
X43184835Y104922300D01*
X43181136Y104924676D01*
X43129179Y104959394D01*
X42983497Y105019737D01*
X42905177Y105035316D01*
X42828845Y105050500D01*
X42828842Y105050500D01*
X42671158Y105050500D01*
X42671155Y105050500D01*
X42594823Y105035316D01*
X42516503Y105019737D01*
X42516498Y105019735D01*
X42370827Y104959397D01*
X42370814Y104959390D01*
X42239711Y104871789D01*
X42239707Y104871786D01*
X42128213Y104760292D01*
X42128210Y104760288D01*
X42040609Y104629185D01*
X42040602Y104629172D01*
X41992649Y104513400D01*
X41948809Y104458996D01*
X41882515Y104436931D01*
X41814815Y104454210D01*
X41790409Y104473168D01*
X41760289Y104503289D01*
X41629179Y104590894D01*
X41556572Y104620967D01*
X41502172Y104664805D01*
X41489470Y104688065D01*
X41459394Y104760679D01*
X41371789Y104891789D01*
X41260289Y105003289D01*
X41129179Y105090894D01*
X40983497Y105151237D01*
X40906520Y105166548D01*
X40828845Y105182000D01*
X40828842Y105182000D01*
X40671158Y105182000D01*
X40671155Y105182000D01*
X40577858Y105163441D01*
X40516503Y105151237D01*
X40516498Y105151235D01*
X40370825Y105090896D01*
X40370823Y105090895D01*
X40370821Y105090894D01*
X40318889Y105056194D01*
X40252215Y105035316D01*
X40184835Y105053800D01*
X40181136Y105056176D01*
X40129179Y105090894D01*
X39983497Y105151237D01*
X39906520Y105166548D01*
X39828845Y105182000D01*
X39828842Y105182000D01*
X39671158Y105182000D01*
X39671155Y105182000D01*
X39577858Y105163441D01*
X39516503Y105151237D01*
X39516498Y105151235D01*
X39370827Y105090897D01*
X39370814Y105090890D01*
X39239711Y105003289D01*
X39239707Y105003286D01*
X39128213Y104891792D01*
X39128210Y104891788D01*
X39040609Y104760685D01*
X39040604Y104760676D01*
X39010532Y104688074D01*
X38966691Y104633671D01*
X38943432Y104620970D01*
X38870821Y104590894D01*
X38870816Y104590891D01*
X38870814Y104590890D01*
X38739711Y104503289D01*
X38739707Y104503286D01*
X38628213Y104391792D01*
X38628210Y104391788D01*
X38540609Y104260685D01*
X38540602Y104260672D01*
X38480264Y104115001D01*
X38480261Y104114989D01*
X38449500Y103960346D01*
X31524343Y103960346D01*
X31519738Y103983492D01*
X31519737Y103983492D01*
X31519737Y103983497D01*
X31459394Y104129179D01*
X31371789Y104260289D01*
X31260289Y104371789D01*
X31129179Y104459394D01*
X30983497Y104519737D01*
X30906520Y104535048D01*
X30828845Y104550500D01*
X30828842Y104550500D01*
X30671158Y104550500D01*
X30671155Y104550500D01*
X30584713Y104533305D01*
X30516503Y104519737D01*
X30516498Y104519735D01*
X30370827Y104459397D01*
X30370814Y104459390D01*
X30239711Y104371789D01*
X30239707Y104371786D01*
X30128213Y104260292D01*
X30128210Y104260288D01*
X30040609Y104129185D01*
X30040602Y104129172D01*
X29980264Y103983501D01*
X29980261Y103983489D01*
X29949500Y103828846D01*
X29276342Y103828846D01*
X29320288Y103858210D01*
X29320292Y103858213D01*
X29431786Y103969707D01*
X29431789Y103969711D01*
X29519390Y104100814D01*
X29519397Y104100827D01*
X29579735Y104246498D01*
X29579737Y104246503D01*
X29610499Y104401153D01*
X29610500Y104401155D01*
X29610500Y104558844D01*
X29610499Y104558846D01*
X29596508Y104629184D01*
X29579737Y104713497D01*
X29530678Y104831936D01*
X29519397Y104859172D01*
X29519396Y104859172D01*
X29519394Y104859179D01*
X29431789Y104990289D01*
X29320289Y105101789D01*
X29189179Y105189394D01*
X29043497Y105249737D01*
X28966520Y105265048D01*
X28888845Y105280500D01*
X28888842Y105280500D01*
X28731158Y105280500D01*
X28731155Y105280500D01*
X28637858Y105261941D01*
X28576503Y105249737D01*
X28576498Y105249735D01*
X28430827Y105189397D01*
X28430814Y105189390D01*
X28299711Y105101789D01*
X28299707Y105101786D01*
X28188213Y104990292D01*
X28188210Y104990288D01*
X28100609Y104859185D01*
X28100602Y104859172D01*
X28040264Y104713501D01*
X28040261Y104713489D01*
X28009500Y104558846D01*
X25927210Y104558846D01*
X25871789Y104641789D01*
X25760289Y104753289D01*
X25629179Y104840894D01*
X25483497Y104901237D01*
X25406520Y104916548D01*
X25328845Y104932000D01*
X25328842Y104932000D01*
X25171158Y104932000D01*
X25171155Y104932000D01*
X25077858Y104913441D01*
X25016503Y104901237D01*
X25016498Y104901235D01*
X24870825Y104840896D01*
X24870823Y104840895D01*
X24870821Y104840894D01*
X24818889Y104806194D01*
X24752215Y104785316D01*
X24684835Y104803800D01*
X24681136Y104806176D01*
X24629179Y104840894D01*
X24483497Y104901237D01*
X24406520Y104916548D01*
X24328845Y104932000D01*
X24328842Y104932000D01*
X24171158Y104932000D01*
X24171155Y104932000D01*
X24077858Y104913441D01*
X24016503Y104901237D01*
X24016498Y104901235D01*
X23870825Y104840896D01*
X23870823Y104840895D01*
X23870821Y104840894D01*
X23818889Y104806194D01*
X23752215Y104785316D01*
X23684835Y104803800D01*
X23681136Y104806176D01*
X23629179Y104840894D01*
X23483497Y104901237D01*
X23406520Y104916548D01*
X23328845Y104932000D01*
X23328842Y104932000D01*
X23171158Y104932000D01*
X23171155Y104932000D01*
X23077858Y104913441D01*
X23016503Y104901237D01*
X23016498Y104901235D01*
X22870827Y104840897D01*
X22870814Y104840890D01*
X22739711Y104753289D01*
X22739707Y104753286D01*
X22628213Y104641792D01*
X22628210Y104641788D01*
X22540609Y104510685D01*
X22540604Y104510676D01*
X22510532Y104438074D01*
X22466691Y104383671D01*
X22443432Y104370970D01*
X22370821Y104340894D01*
X22370816Y104340891D01*
X22370814Y104340890D01*
X22239711Y104253289D01*
X22239707Y104253286D01*
X22128213Y104141792D01*
X22128210Y104141788D01*
X22040609Y104010685D01*
X22040602Y104010672D01*
X21980264Y103865001D01*
X21980261Y103864989D01*
X21949500Y103710346D01*
X21050499Y103710346D01*
X21042151Y103752314D01*
X21019737Y103864997D01*
X20959394Y104010679D01*
X20871789Y104141789D01*
X20760289Y104253289D01*
X20629179Y104340894D01*
X20556572Y104370967D01*
X20502172Y104414805D01*
X20489470Y104438065D01*
X20459394Y104510679D01*
X20371789Y104641789D01*
X20260289Y104753289D01*
X20129179Y104840894D01*
X19983497Y104901237D01*
X19906520Y104916548D01*
X19828845Y104932000D01*
X19828842Y104932000D01*
X19671158Y104932000D01*
X19671155Y104932000D01*
X19577858Y104913441D01*
X19516503Y104901237D01*
X19516498Y104901235D01*
X19370825Y104840896D01*
X19370823Y104840895D01*
X19370821Y104840894D01*
X19318889Y104806194D01*
X19252215Y104785316D01*
X19184835Y104803800D01*
X19181136Y104806176D01*
X19129179Y104840894D01*
X18983497Y104901237D01*
X18906520Y104916548D01*
X18828845Y104932000D01*
X18828842Y104932000D01*
X18671158Y104932000D01*
X18671155Y104932000D01*
X18577858Y104913441D01*
X18516503Y104901237D01*
X18516498Y104901235D01*
X18370825Y104840896D01*
X18370823Y104840895D01*
X18370821Y104840894D01*
X18318889Y104806194D01*
X18252215Y104785316D01*
X18184835Y104803800D01*
X18181136Y104806176D01*
X18129179Y104840894D01*
X17983497Y104901237D01*
X17906520Y104916548D01*
X17828845Y104932000D01*
X17828842Y104932000D01*
X17671158Y104932000D01*
X17671155Y104932000D01*
X17577858Y104913441D01*
X17516503Y104901237D01*
X17516498Y104901235D01*
X17370825Y104840896D01*
X17370823Y104840895D01*
X17370821Y104840894D01*
X17318889Y104806194D01*
X17252215Y104785316D01*
X17184835Y104803800D01*
X17181136Y104806176D01*
X17129179Y104840894D01*
X16983497Y104901237D01*
X16906520Y104916548D01*
X16828845Y104932000D01*
X16828842Y104932000D01*
X16671158Y104932000D01*
X16671155Y104932000D01*
X16577858Y104913441D01*
X16516503Y104901237D01*
X16516498Y104901235D01*
X16370827Y104840897D01*
X16370814Y104840890D01*
X16239711Y104753289D01*
X16239707Y104753286D01*
X16128213Y104641792D01*
X16128210Y104641788D01*
X16040609Y104510685D01*
X16040602Y104510672D01*
X15980264Y104365001D01*
X15980261Y104364989D01*
X15949500Y104210346D01*
X-1814588Y104210346D01*
X-1878064Y104320289D01*
X-1886077Y104330732D01*
X-2025733Y104512736D01*
X-2025739Y104512743D01*
X-2197256Y104684260D01*
X-2197263Y104684266D01*
X-2356165Y104806195D01*
X-2389711Y104831936D01*
X-2599788Y104953224D01*
X-2823900Y105046054D01*
X-3058211Y105108838D01*
X-3238586Y105132584D01*
X-3298711Y105140500D01*
X-3298712Y105140500D01*
X-3541288Y105140500D01*
X-3541289Y105140500D01*
X-3589388Y105134167D01*
X-3781789Y105108838D01*
X-4016100Y105046054D01*
X-4240212Y104953224D01*
X-4450289Y104831936D01*
X-4642738Y104684265D01*
X-4814265Y104512738D01*
X-4961936Y104320289D01*
X-5083224Y104110212D01*
X-5176054Y103886100D01*
X-5238838Y103651789D01*
X-5261302Y103481155D01*
X-5270500Y103411288D01*
X-11730004Y103411288D01*
X-11761653Y103651687D01*
X-11824421Y103885939D01*
X-11917220Y104109978D01*
X-11917227Y104109992D01*
X-12038481Y104320010D01*
X-12107061Y104409384D01*
X-12789521Y103726923D01*
X-12880924Y103863717D01*
X-13006283Y103989076D01*
X-13143074Y104080477D01*
X-12460614Y104762936D01*
X-12460614Y104762937D01*
X-12549989Y104831517D01*
X-12549996Y104831522D01*
X-12760007Y104952772D01*
X-12760021Y104952779D01*
X-12984060Y105045578D01*
X-13218312Y105108346D01*
X-13458735Y105139998D01*
X-13458752Y105140000D01*
X-13701248Y105140000D01*
X-13701264Y105139998D01*
X-13941687Y105108346D01*
X-14175939Y105045578D01*
X-14399978Y104952779D01*
X-14399992Y104952772D01*
X-14610016Y104831515D01*
X-14699384Y104762939D01*
X-14699384Y104762936D01*
X-14016924Y104080477D01*
X-14153717Y103989076D01*
X-14279076Y103863717D01*
X-14370477Y103726924D01*
X-15052936Y104409384D01*
X-15052939Y104409384D01*
X-15121515Y104320016D01*
X-15242772Y104109992D01*
X-15242779Y104109978D01*
X-15335578Y103885939D01*
X-15398346Y103651687D01*
X-15429998Y103411264D01*
X-15430000Y103411248D01*
X-29499500Y103411248D01*
X-29499500Y115125961D01*
X1408500Y115125961D01*
X1408500Y114874038D01*
X1447910Y114625214D01*
X1525760Y114385616D01*
X1640132Y114161151D01*
X1788201Y113957350D01*
X1788205Y113957345D01*
X1966345Y113779205D01*
X1966350Y113779201D01*
X2170151Y113631132D01*
X2394616Y113516760D01*
X2634214Y113438910D01*
X2758626Y113419205D01*
X2883038Y113399500D01*
X2883039Y113399500D01*
X3134961Y113399500D01*
X3134962Y113399500D01*
X3383785Y113438910D01*
X3623383Y113516760D01*
X3777747Y113595413D01*
X3847845Y113631130D01*
X3847848Y113631132D01*
X4051649Y113779201D01*
X4051654Y113779205D01*
X4229794Y113957345D01*
X4229798Y113957350D01*
X4377867Y114161151D01*
X4377870Y114161155D01*
X4450747Y114304184D01*
X4492239Y114385616D01*
X4492241Y114385621D01*
X4570090Y114625215D01*
X4609500Y114874038D01*
X4609500Y115125961D01*
X64388500Y115125961D01*
X64388500Y114874038D01*
X64427910Y114625214D01*
X64505760Y114385616D01*
X64620132Y114161151D01*
X64768201Y113957350D01*
X64768205Y113957345D01*
X64946345Y113779205D01*
X64946350Y113779201D01*
X65150151Y113631132D01*
X65374616Y113516760D01*
X65614214Y113438910D01*
X65738626Y113419205D01*
X65863038Y113399500D01*
X65863039Y113399500D01*
X66114961Y113399500D01*
X66114962Y113399500D01*
X66363785Y113438910D01*
X66603383Y113516760D01*
X66757747Y113595413D01*
X66827845Y113631130D01*
X66827848Y113631132D01*
X67031649Y113779201D01*
X67031654Y113779205D01*
X67209794Y113957345D01*
X67209798Y113957350D01*
X67357867Y114161151D01*
X67357870Y114161155D01*
X67430747Y114304184D01*
X67472239Y114385616D01*
X67472241Y114385621D01*
X67550090Y114625215D01*
X67589500Y114874038D01*
X67589500Y115125962D01*
X67550090Y115374785D01*
X67472241Y115614379D01*
X67357870Y115838845D01*
X67209793Y116042656D01*
X67031656Y116220793D01*
X66827845Y116368870D01*
X66603379Y116483241D01*
X66363785Y116561090D01*
X66114962Y116600500D01*
X65863038Y116600500D01*
X65614215Y116561090D01*
X65374621Y116483241D01*
X65374618Y116483239D01*
X65374616Y116483239D01*
X65293184Y116441747D01*
X65150155Y116368870D01*
X65150151Y116368867D01*
X64946350Y116220798D01*
X64946345Y116220794D01*
X64768205Y116042654D01*
X64768201Y116042649D01*
X64620132Y115838848D01*
X64505760Y115614383D01*
X64427910Y115374785D01*
X64388500Y115125961D01*
X4609500Y115125961D01*
X4609500Y115125962D01*
X4570090Y115374785D01*
X4492241Y115614379D01*
X4377870Y115838845D01*
X4229793Y116042656D01*
X4051656Y116220793D01*
X3847845Y116368870D01*
X3623379Y116483241D01*
X3383785Y116561090D01*
X3134962Y116600500D01*
X2883038Y116600500D01*
X2634215Y116561090D01*
X2394621Y116483241D01*
X2394618Y116483239D01*
X2394616Y116483239D01*
X2313184Y116441747D01*
X2170155Y116368870D01*
X2170151Y116368867D01*
X1966350Y116220798D01*
X1966345Y116220794D01*
X1788205Y116042654D01*
X1788201Y116042649D01*
X1640132Y115838848D01*
X1525760Y115614383D01*
X1447910Y115374785D01*
X1408500Y115125961D01*
X-29499500Y115125961D01*
X-29499500Y117995572D01*
X-29499184Y118004419D01*
X-29484869Y118204557D01*
X-29482351Y118222068D01*
X-29440645Y118413790D01*
X-29435661Y118430765D01*
X-29367093Y118614605D01*
X-29359743Y118630699D01*
X-29265709Y118802908D01*
X-29256144Y118817791D01*
X-29138561Y118974864D01*
X-29126975Y118988235D01*
X-28988235Y119126975D01*
X-28974864Y119138561D01*
X-28817791Y119256144D01*
X-28802908Y119265709D01*
X-28630699Y119359743D01*
X-28614605Y119367093D01*
X-28430765Y119435661D01*
X-28413790Y119440645D01*
X-28222068Y119482351D01*
X-28204557Y119484869D01*
X-28023779Y119497799D01*
X-28004417Y119499184D01*
X-27995572Y119499500D01*
X-27934108Y119499500D01*
X67934108Y119499500D01*
X67995572Y119499500D01*
X68004417Y119499184D01*
G37*
%TD.AperFunction*%
%TD*%
M02*
