%TF.GenerationSoftware,KiCad,Pcbnew,10.0.3*%
%TF.CreationDate,2026-07-10T13:44:17+09:00*%
%TF.ProjectId,ETROC_to_FPGA,4554524f-435f-4746-9f5f-465047412e6b,rev?*%
%TF.SameCoordinates,Original*%
%TF.FileFunction,Legend,Bot*%
%TF.FilePolarity,Positive*%
%FSLAX46Y46*%
G04 Gerber Fmt 4.6, Leading zero omitted, Abs format (unit mm)*
G04 Created by KiCad (PCBNEW 10.0.3) date 2026-07-10 13:44:17*
%MOMM*%
%LPD*%
G01*
G04 APERTURE LIST*
%ADD10C,0.100000*%
%ADD11C,0.200000*%
%ADD12C,0.120000*%
%ADD13C,0.150000*%
G04 APERTURE END LIST*
D10*
X9289925Y26807580D02*
X9766115Y26807580D01*
X9766115Y26807580D02*
X9766115Y27807580D01*
X8956591Y26807580D02*
X8956591Y27807580D01*
X8956591Y27807580D02*
X8718496Y27807580D01*
X8718496Y27807580D02*
X8575639Y27759961D01*
X8575639Y27759961D02*
X8480401Y27664723D01*
X8480401Y27664723D02*
X8432782Y27569485D01*
X8432782Y27569485D02*
X8385163Y27379009D01*
X8385163Y27379009D02*
X8385163Y27236152D01*
X8385163Y27236152D02*
X8432782Y27045676D01*
X8432782Y27045676D02*
X8480401Y26950438D01*
X8480401Y26950438D02*
X8575639Y26855200D01*
X8575639Y26855200D02*
X8718496Y26807580D01*
X8718496Y26807580D02*
X8956591Y26807580D01*
X7766115Y27807580D02*
X7575639Y27807580D01*
X7575639Y27807580D02*
X7480401Y27759961D01*
X7480401Y27759961D02*
X7385163Y27664723D01*
X7385163Y27664723D02*
X7337544Y27474247D01*
X7337544Y27474247D02*
X7337544Y27140914D01*
X7337544Y27140914D02*
X7385163Y26950438D01*
X7385163Y26950438D02*
X7480401Y26855200D01*
X7480401Y26855200D02*
X7575639Y26807580D01*
X7575639Y26807580D02*
X7766115Y26807580D01*
X7766115Y26807580D02*
X7861353Y26855200D01*
X7861353Y26855200D02*
X7956591Y26950438D01*
X7956591Y26950438D02*
X8004210Y27140914D01*
X8004210Y27140914D02*
X8004210Y27474247D01*
X8004210Y27474247D02*
X7956591Y27664723D01*
X7956591Y27664723D02*
X7861353Y27759961D01*
X7861353Y27759961D02*
X7766115Y27807580D01*
X7147068Y26712342D02*
X6385163Y26712342D01*
X5623258Y26807580D02*
X6194686Y26807580D01*
X5908972Y26807580D02*
X5908972Y27807580D01*
X5908972Y27807580D02*
X6004210Y27664723D01*
X6004210Y27664723D02*
X6099448Y27569485D01*
X6099448Y27569485D02*
X6194686Y27521866D01*
X5194686Y26902819D02*
X5147067Y26855200D01*
X5147067Y26855200D02*
X5194686Y26807580D01*
X5194686Y26807580D02*
X5242305Y26855200D01*
X5242305Y26855200D02*
X5194686Y26902819D01*
X5194686Y26902819D02*
X5194686Y26807580D01*
X4528020Y27807580D02*
X4432782Y27807580D01*
X4432782Y27807580D02*
X4337544Y27759961D01*
X4337544Y27759961D02*
X4289925Y27712342D01*
X4289925Y27712342D02*
X4242306Y27617104D01*
X4242306Y27617104D02*
X4194687Y27426628D01*
X4194687Y27426628D02*
X4194687Y27188533D01*
X4194687Y27188533D02*
X4242306Y26998057D01*
X4242306Y26998057D02*
X4289925Y26902819D01*
X4289925Y26902819D02*
X4337544Y26855200D01*
X4337544Y26855200D02*
X4432782Y26807580D01*
X4432782Y26807580D02*
X4528020Y26807580D01*
X4528020Y26807580D02*
X4623258Y26855200D01*
X4623258Y26855200D02*
X4670877Y26902819D01*
X4670877Y26902819D02*
X4718496Y26998057D01*
X4718496Y26998057D02*
X4766115Y27188533D01*
X4766115Y27188533D02*
X4766115Y27426628D01*
X4766115Y27426628D02*
X4718496Y27617104D01*
X4718496Y27617104D02*
X4670877Y27712342D01*
X4670877Y27712342D02*
X4623258Y27759961D01*
X4623258Y27759961D02*
X4528020Y27807580D01*
X3908972Y27807580D02*
X3575639Y26807580D01*
X3575639Y26807580D02*
X3242306Y27807580D01*
X18772419Y46619925D02*
X18772419Y47096115D01*
X18772419Y47096115D02*
X17772419Y47096115D01*
X18724800Y45905639D02*
X18772419Y46000877D01*
X18772419Y46000877D02*
X18772419Y46191353D01*
X18772419Y46191353D02*
X18724800Y46286591D01*
X18724800Y46286591D02*
X18629561Y46334210D01*
X18629561Y46334210D02*
X18248609Y46334210D01*
X18248609Y46334210D02*
X18153371Y46286591D01*
X18153371Y46286591D02*
X18105752Y46191353D01*
X18105752Y46191353D02*
X18105752Y46000877D01*
X18105752Y46000877D02*
X18153371Y45905639D01*
X18153371Y45905639D02*
X18248609Y45858020D01*
X18248609Y45858020D02*
X18343847Y45858020D01*
X18343847Y45858020D02*
X18439085Y46334210D01*
X18105752Y45524686D02*
X18772419Y45286591D01*
X18772419Y45286591D02*
X18105752Y45048496D01*
X18724800Y44286591D02*
X18772419Y44381829D01*
X18772419Y44381829D02*
X18772419Y44572305D01*
X18772419Y44572305D02*
X18724800Y44667543D01*
X18724800Y44667543D02*
X18629561Y44715162D01*
X18629561Y44715162D02*
X18248609Y44715162D01*
X18248609Y44715162D02*
X18153371Y44667543D01*
X18153371Y44667543D02*
X18105752Y44572305D01*
X18105752Y44572305D02*
X18105752Y44381829D01*
X18105752Y44381829D02*
X18153371Y44286591D01*
X18153371Y44286591D02*
X18248609Y44238972D01*
X18248609Y44238972D02*
X18343847Y44238972D01*
X18343847Y44238972D02*
X18439085Y44715162D01*
X18772419Y43667543D02*
X18724800Y43762781D01*
X18724800Y43762781D02*
X18629561Y43810400D01*
X18629561Y43810400D02*
X17772419Y43810400D01*
X18724800Y43334209D02*
X18772419Y43191352D01*
X18772419Y43191352D02*
X18772419Y42953257D01*
X18772419Y42953257D02*
X18724800Y42858019D01*
X18724800Y42858019D02*
X18677180Y42810400D01*
X18677180Y42810400D02*
X18581942Y42762781D01*
X18581942Y42762781D02*
X18486704Y42762781D01*
X18486704Y42762781D02*
X18391466Y42810400D01*
X18391466Y42810400D02*
X18343847Y42858019D01*
X18343847Y42858019D02*
X18296228Y42953257D01*
X18296228Y42953257D02*
X18248609Y43143733D01*
X18248609Y43143733D02*
X18200990Y43238971D01*
X18200990Y43238971D02*
X18153371Y43286590D01*
X18153371Y43286590D02*
X18058133Y43334209D01*
X18058133Y43334209D02*
X17962895Y43334209D01*
X17962895Y43334209D02*
X17867657Y43286590D01*
X17867657Y43286590D02*
X17820038Y43238971D01*
X17820038Y43238971D02*
X17772419Y43143733D01*
X17772419Y43143733D02*
X17772419Y42905638D01*
X17772419Y42905638D02*
X17820038Y42762781D01*
X18772419Y42334209D02*
X17772419Y42334209D01*
X18772419Y41905638D02*
X18248609Y41905638D01*
X18248609Y41905638D02*
X18153371Y41953257D01*
X18153371Y41953257D02*
X18105752Y42048495D01*
X18105752Y42048495D02*
X18105752Y42191352D01*
X18105752Y42191352D02*
X18153371Y42286590D01*
X18153371Y42286590D02*
X18200990Y42334209D01*
X18772419Y41429447D02*
X18105752Y41429447D01*
X17772419Y41429447D02*
X17820038Y41477066D01*
X17820038Y41477066D02*
X17867657Y41429447D01*
X17867657Y41429447D02*
X17820038Y41381828D01*
X17820038Y41381828D02*
X17772419Y41429447D01*
X17772419Y41429447D02*
X17867657Y41429447D01*
X18105752Y41096114D02*
X18105752Y40715162D01*
X18772419Y40953257D02*
X17915276Y40953257D01*
X17915276Y40953257D02*
X17820038Y40905638D01*
X17820038Y40905638D02*
X17772419Y40810400D01*
X17772419Y40810400D02*
X17772419Y40715162D01*
X18105752Y40524685D02*
X18105752Y40143733D01*
X17772419Y40381828D02*
X18629561Y40381828D01*
X18629561Y40381828D02*
X18724800Y40334209D01*
X18724800Y40334209D02*
X18772419Y40238971D01*
X18772419Y40238971D02*
X18772419Y40143733D01*
X18724800Y39429447D02*
X18772419Y39524685D01*
X18772419Y39524685D02*
X18772419Y39715161D01*
X18772419Y39715161D02*
X18724800Y39810399D01*
X18724800Y39810399D02*
X18629561Y39858018D01*
X18629561Y39858018D02*
X18248609Y39858018D01*
X18248609Y39858018D02*
X18153371Y39810399D01*
X18153371Y39810399D02*
X18105752Y39715161D01*
X18105752Y39715161D02*
X18105752Y39524685D01*
X18105752Y39524685D02*
X18153371Y39429447D01*
X18153371Y39429447D02*
X18248609Y39381828D01*
X18248609Y39381828D02*
X18343847Y39381828D01*
X18343847Y39381828D02*
X18439085Y39858018D01*
X18772419Y38953256D02*
X18105752Y38953256D01*
X18296228Y38953256D02*
X18200990Y38905637D01*
X18200990Y38905637D02*
X18153371Y38858018D01*
X18153371Y38858018D02*
X18105752Y38762780D01*
X18105752Y38762780D02*
X18105752Y38667542D01*
X18867657Y38572304D02*
X18867657Y37810399D01*
X17772419Y37667541D02*
X18772419Y37429446D01*
X18772419Y37429446D02*
X18058133Y37238970D01*
X18058133Y37238970D02*
X18772419Y37048494D01*
X18772419Y37048494D02*
X17772419Y36810399D01*
X18724800Y36477065D02*
X18772419Y36334208D01*
X18772419Y36334208D02*
X18772419Y36096113D01*
X18772419Y36096113D02*
X18724800Y36000875D01*
X18724800Y36000875D02*
X18677180Y35953256D01*
X18677180Y35953256D02*
X18581942Y35905637D01*
X18581942Y35905637D02*
X18486704Y35905637D01*
X18486704Y35905637D02*
X18391466Y35953256D01*
X18391466Y35953256D02*
X18343847Y36000875D01*
X18343847Y36000875D02*
X18296228Y36096113D01*
X18296228Y36096113D02*
X18248609Y36286589D01*
X18248609Y36286589D02*
X18200990Y36381827D01*
X18200990Y36381827D02*
X18153371Y36429446D01*
X18153371Y36429446D02*
X18058133Y36477065D01*
X18058133Y36477065D02*
X17962895Y36477065D01*
X17962895Y36477065D02*
X17867657Y36429446D01*
X17867657Y36429446D02*
X17820038Y36381827D01*
X17820038Y36381827D02*
X17772419Y36286589D01*
X17772419Y36286589D02*
X17772419Y36048494D01*
X17772419Y36048494D02*
X17820038Y35905637D01*
X34597419Y44194925D02*
X34597419Y44671115D01*
X34597419Y44671115D02*
X33597419Y44671115D01*
X34549800Y43480639D02*
X34597419Y43575877D01*
X34597419Y43575877D02*
X34597419Y43766353D01*
X34597419Y43766353D02*
X34549800Y43861591D01*
X34549800Y43861591D02*
X34454561Y43909210D01*
X34454561Y43909210D02*
X34073609Y43909210D01*
X34073609Y43909210D02*
X33978371Y43861591D01*
X33978371Y43861591D02*
X33930752Y43766353D01*
X33930752Y43766353D02*
X33930752Y43575877D01*
X33930752Y43575877D02*
X33978371Y43480639D01*
X33978371Y43480639D02*
X34073609Y43433020D01*
X34073609Y43433020D02*
X34168847Y43433020D01*
X34168847Y43433020D02*
X34264085Y43909210D01*
X33930752Y43099686D02*
X34597419Y42861591D01*
X34597419Y42861591D02*
X33930752Y42623496D01*
X34549800Y41861591D02*
X34597419Y41956829D01*
X34597419Y41956829D02*
X34597419Y42147305D01*
X34597419Y42147305D02*
X34549800Y42242543D01*
X34549800Y42242543D02*
X34454561Y42290162D01*
X34454561Y42290162D02*
X34073609Y42290162D01*
X34073609Y42290162D02*
X33978371Y42242543D01*
X33978371Y42242543D02*
X33930752Y42147305D01*
X33930752Y42147305D02*
X33930752Y41956829D01*
X33930752Y41956829D02*
X33978371Y41861591D01*
X33978371Y41861591D02*
X34073609Y41813972D01*
X34073609Y41813972D02*
X34168847Y41813972D01*
X34168847Y41813972D02*
X34264085Y42290162D01*
X34597419Y41242543D02*
X34549800Y41337781D01*
X34549800Y41337781D02*
X34454561Y41385400D01*
X34454561Y41385400D02*
X33597419Y41385400D01*
X34549800Y40909209D02*
X34597419Y40766352D01*
X34597419Y40766352D02*
X34597419Y40528257D01*
X34597419Y40528257D02*
X34549800Y40433019D01*
X34549800Y40433019D02*
X34502180Y40385400D01*
X34502180Y40385400D02*
X34406942Y40337781D01*
X34406942Y40337781D02*
X34311704Y40337781D01*
X34311704Y40337781D02*
X34216466Y40385400D01*
X34216466Y40385400D02*
X34168847Y40433019D01*
X34168847Y40433019D02*
X34121228Y40528257D01*
X34121228Y40528257D02*
X34073609Y40718733D01*
X34073609Y40718733D02*
X34025990Y40813971D01*
X34025990Y40813971D02*
X33978371Y40861590D01*
X33978371Y40861590D02*
X33883133Y40909209D01*
X33883133Y40909209D02*
X33787895Y40909209D01*
X33787895Y40909209D02*
X33692657Y40861590D01*
X33692657Y40861590D02*
X33645038Y40813971D01*
X33645038Y40813971D02*
X33597419Y40718733D01*
X33597419Y40718733D02*
X33597419Y40480638D01*
X33597419Y40480638D02*
X33645038Y40337781D01*
X34597419Y39909209D02*
X33597419Y39909209D01*
X34597419Y39480638D02*
X34073609Y39480638D01*
X34073609Y39480638D02*
X33978371Y39528257D01*
X33978371Y39528257D02*
X33930752Y39623495D01*
X33930752Y39623495D02*
X33930752Y39766352D01*
X33930752Y39766352D02*
X33978371Y39861590D01*
X33978371Y39861590D02*
X34025990Y39909209D01*
X34597419Y39004447D02*
X33930752Y39004447D01*
X33597419Y39004447D02*
X33645038Y39052066D01*
X33645038Y39052066D02*
X33692657Y39004447D01*
X33692657Y39004447D02*
X33645038Y38956828D01*
X33645038Y38956828D02*
X33597419Y39004447D01*
X33597419Y39004447D02*
X33692657Y39004447D01*
X33930752Y38671114D02*
X33930752Y38290162D01*
X34597419Y38528257D02*
X33740276Y38528257D01*
X33740276Y38528257D02*
X33645038Y38480638D01*
X33645038Y38480638D02*
X33597419Y38385400D01*
X33597419Y38385400D02*
X33597419Y38290162D01*
X33930752Y38099685D02*
X33930752Y37718733D01*
X33597419Y37956828D02*
X34454561Y37956828D01*
X34454561Y37956828D02*
X34549800Y37909209D01*
X34549800Y37909209D02*
X34597419Y37813971D01*
X34597419Y37813971D02*
X34597419Y37718733D01*
X34549800Y37004447D02*
X34597419Y37099685D01*
X34597419Y37099685D02*
X34597419Y37290161D01*
X34597419Y37290161D02*
X34549800Y37385399D01*
X34549800Y37385399D02*
X34454561Y37433018D01*
X34454561Y37433018D02*
X34073609Y37433018D01*
X34073609Y37433018D02*
X33978371Y37385399D01*
X33978371Y37385399D02*
X33930752Y37290161D01*
X33930752Y37290161D02*
X33930752Y37099685D01*
X33930752Y37099685D02*
X33978371Y37004447D01*
X33978371Y37004447D02*
X34073609Y36956828D01*
X34073609Y36956828D02*
X34168847Y36956828D01*
X34168847Y36956828D02*
X34264085Y37433018D01*
X34597419Y36528256D02*
X33930752Y36528256D01*
X34121228Y36528256D02*
X34025990Y36480637D01*
X34025990Y36480637D02*
X33978371Y36433018D01*
X33978371Y36433018D02*
X33930752Y36337780D01*
X33930752Y36337780D02*
X33930752Y36242542D01*
X34692657Y36147304D02*
X34692657Y35385399D01*
X34073609Y35147303D02*
X34073609Y34813970D01*
X34597419Y34671113D02*
X34597419Y35147303D01*
X34597419Y35147303D02*
X33597419Y35147303D01*
X33597419Y35147303D02*
X33597419Y34671113D01*
X33597419Y34385398D02*
X33597419Y33813970D01*
X34597419Y34099684D02*
X33597419Y34099684D01*
X34597419Y32909208D02*
X34121228Y33242541D01*
X34597419Y33480636D02*
X33597419Y33480636D01*
X33597419Y33480636D02*
X33597419Y33099684D01*
X33597419Y33099684D02*
X33645038Y33004446D01*
X33645038Y33004446D02*
X33692657Y32956827D01*
X33692657Y32956827D02*
X33787895Y32909208D01*
X33787895Y32909208D02*
X33930752Y32909208D01*
X33930752Y32909208D02*
X34025990Y32956827D01*
X34025990Y32956827D02*
X34073609Y33004446D01*
X34073609Y33004446D02*
X34121228Y33099684D01*
X34121228Y33099684D02*
X34121228Y33480636D01*
X33597419Y32290160D02*
X33597419Y32099684D01*
X33597419Y32099684D02*
X33645038Y32004446D01*
X33645038Y32004446D02*
X33740276Y31909208D01*
X33740276Y31909208D02*
X33930752Y31861589D01*
X33930752Y31861589D02*
X34264085Y31861589D01*
X34264085Y31861589D02*
X34454561Y31909208D01*
X34454561Y31909208D02*
X34549800Y32004446D01*
X34549800Y32004446D02*
X34597419Y32099684D01*
X34597419Y32099684D02*
X34597419Y32290160D01*
X34597419Y32290160D02*
X34549800Y32385398D01*
X34549800Y32385398D02*
X34454561Y32480636D01*
X34454561Y32480636D02*
X34264085Y32528255D01*
X34264085Y32528255D02*
X33930752Y32528255D01*
X33930752Y32528255D02*
X33740276Y32480636D01*
X33740276Y32480636D02*
X33645038Y32385398D01*
X33645038Y32385398D02*
X33597419Y32290160D01*
X34502180Y30861589D02*
X34549800Y30909208D01*
X34549800Y30909208D02*
X34597419Y31052065D01*
X34597419Y31052065D02*
X34597419Y31147303D01*
X34597419Y31147303D02*
X34549800Y31290160D01*
X34549800Y31290160D02*
X34454561Y31385398D01*
X34454561Y31385398D02*
X34359323Y31433017D01*
X34359323Y31433017D02*
X34168847Y31480636D01*
X34168847Y31480636D02*
X34025990Y31480636D01*
X34025990Y31480636D02*
X33835514Y31433017D01*
X33835514Y31433017D02*
X33740276Y31385398D01*
X33740276Y31385398D02*
X33645038Y31290160D01*
X33645038Y31290160D02*
X33597419Y31147303D01*
X33597419Y31147303D02*
X33597419Y31052065D01*
X33597419Y31052065D02*
X33645038Y30909208D01*
X33645038Y30909208D02*
X33692657Y30861589D01*
D11*
X63736993Y18956590D02*
X64070326Y18956590D01*
X64070326Y18432780D02*
X64070326Y19432780D01*
X64070326Y19432780D02*
X63594136Y19432780D01*
X63213183Y18432780D02*
X63213183Y19432780D01*
X63213183Y19432780D02*
X62879850Y18718495D01*
X62879850Y18718495D02*
X62546517Y19432780D01*
X62546517Y19432780D02*
X62546517Y18432780D01*
X61498898Y18528019D02*
X61546517Y18480400D01*
X61546517Y18480400D02*
X61689374Y18432780D01*
X61689374Y18432780D02*
X61784612Y18432780D01*
X61784612Y18432780D02*
X61927469Y18480400D01*
X61927469Y18480400D02*
X62022707Y18575638D01*
X62022707Y18575638D02*
X62070326Y18670876D01*
X62070326Y18670876D02*
X62117945Y18861352D01*
X62117945Y18861352D02*
X62117945Y19004209D01*
X62117945Y19004209D02*
X62070326Y19194685D01*
X62070326Y19194685D02*
X62022707Y19289923D01*
X62022707Y19289923D02*
X61927469Y19385161D01*
X61927469Y19385161D02*
X61784612Y19432780D01*
X61784612Y19432780D02*
X61689374Y19432780D01*
X61689374Y19432780D02*
X61546517Y19385161D01*
X61546517Y19385161D02*
X61498898Y19337542D01*
X61070326Y18813733D02*
X60308422Y18813733D01*
X59356041Y18432780D02*
X59832231Y18432780D01*
X59832231Y18432780D02*
X59832231Y19432780D01*
X59022707Y18432780D02*
X59022707Y19432780D01*
X59022707Y19432780D02*
X58641755Y19432780D01*
X58641755Y19432780D02*
X58546517Y19385161D01*
X58546517Y19385161D02*
X58498898Y19337542D01*
X58498898Y19337542D02*
X58451279Y19242304D01*
X58451279Y19242304D02*
X58451279Y19099447D01*
X58451279Y19099447D02*
X58498898Y19004209D01*
X58498898Y19004209D02*
X58546517Y18956590D01*
X58546517Y18956590D02*
X58641755Y18908971D01*
X58641755Y18908971D02*
X59022707Y18908971D01*
X57451279Y18528019D02*
X57498898Y18480400D01*
X57498898Y18480400D02*
X57641755Y18432780D01*
X57641755Y18432780D02*
X57736993Y18432780D01*
X57736993Y18432780D02*
X57879850Y18480400D01*
X57879850Y18480400D02*
X57975088Y18575638D01*
X57975088Y18575638D02*
X58022707Y18670876D01*
X58022707Y18670876D02*
X58070326Y18861352D01*
X58070326Y18861352D02*
X58070326Y19004209D01*
X58070326Y19004209D02*
X58022707Y19194685D01*
X58022707Y19194685D02*
X57975088Y19289923D01*
X57975088Y19289923D02*
X57879850Y19385161D01*
X57879850Y19385161D02*
X57736993Y19432780D01*
X57736993Y19432780D02*
X57641755Y19432780D01*
X57641755Y19432780D02*
X57498898Y19385161D01*
X57498898Y19385161D02*
X57451279Y19337542D01*
X55689374Y18528019D02*
X55736993Y18480400D01*
X55736993Y18480400D02*
X55879850Y18432780D01*
X55879850Y18432780D02*
X55975088Y18432780D01*
X55975088Y18432780D02*
X56117945Y18480400D01*
X56117945Y18480400D02*
X56213183Y18575638D01*
X56213183Y18575638D02*
X56260802Y18670876D01*
X56260802Y18670876D02*
X56308421Y18861352D01*
X56308421Y18861352D02*
X56308421Y19004209D01*
X56308421Y19004209D02*
X56260802Y19194685D01*
X56260802Y19194685D02*
X56213183Y19289923D01*
X56213183Y19289923D02*
X56117945Y19385161D01*
X56117945Y19385161D02*
X55975088Y19432780D01*
X55975088Y19432780D02*
X55879850Y19432780D01*
X55879850Y19432780D02*
X55736993Y19385161D01*
X55736993Y19385161D02*
X55689374Y19337542D01*
X55117945Y18432780D02*
X55213183Y18480400D01*
X55213183Y18480400D02*
X55260802Y18528019D01*
X55260802Y18528019D02*
X55308421Y18623257D01*
X55308421Y18623257D02*
X55308421Y18908971D01*
X55308421Y18908971D02*
X55260802Y19004209D01*
X55260802Y19004209D02*
X55213183Y19051828D01*
X55213183Y19051828D02*
X55117945Y19099447D01*
X55117945Y19099447D02*
X54975088Y19099447D01*
X54975088Y19099447D02*
X54879850Y19051828D01*
X54879850Y19051828D02*
X54832231Y19004209D01*
X54832231Y19004209D02*
X54784612Y18908971D01*
X54784612Y18908971D02*
X54784612Y18623257D01*
X54784612Y18623257D02*
X54832231Y18528019D01*
X54832231Y18528019D02*
X54879850Y18480400D01*
X54879850Y18480400D02*
X54975088Y18432780D01*
X54975088Y18432780D02*
X55117945Y18432780D01*
X54356040Y19099447D02*
X54356040Y18432780D01*
X54356040Y19004209D02*
X54308421Y19051828D01*
X54308421Y19051828D02*
X54213183Y19099447D01*
X54213183Y19099447D02*
X54070326Y19099447D01*
X54070326Y19099447D02*
X53975088Y19051828D01*
X53975088Y19051828D02*
X53927469Y18956590D01*
X53927469Y18956590D02*
X53927469Y18432780D01*
X53451278Y19099447D02*
X53451278Y18432780D01*
X53451278Y19004209D02*
X53403659Y19051828D01*
X53403659Y19051828D02*
X53308421Y19099447D01*
X53308421Y19099447D02*
X53165564Y19099447D01*
X53165564Y19099447D02*
X53070326Y19051828D01*
X53070326Y19051828D02*
X53022707Y18956590D01*
X53022707Y18956590D02*
X53022707Y18432780D01*
X52165564Y18480400D02*
X52260802Y18432780D01*
X52260802Y18432780D02*
X52451278Y18432780D01*
X52451278Y18432780D02*
X52546516Y18480400D01*
X52546516Y18480400D02*
X52594135Y18575638D01*
X52594135Y18575638D02*
X52594135Y18956590D01*
X52594135Y18956590D02*
X52546516Y19051828D01*
X52546516Y19051828D02*
X52451278Y19099447D01*
X52451278Y19099447D02*
X52260802Y19099447D01*
X52260802Y19099447D02*
X52165564Y19051828D01*
X52165564Y19051828D02*
X52117945Y18956590D01*
X52117945Y18956590D02*
X52117945Y18861352D01*
X52117945Y18861352D02*
X52594135Y18766114D01*
X51260802Y18480400D02*
X51356040Y18432780D01*
X51356040Y18432780D02*
X51546516Y18432780D01*
X51546516Y18432780D02*
X51641754Y18480400D01*
X51641754Y18480400D02*
X51689373Y18528019D01*
X51689373Y18528019D02*
X51736992Y18623257D01*
X51736992Y18623257D02*
X51736992Y18908971D01*
X51736992Y18908971D02*
X51689373Y19004209D01*
X51689373Y19004209D02*
X51641754Y19051828D01*
X51641754Y19051828D02*
X51546516Y19099447D01*
X51546516Y19099447D02*
X51356040Y19099447D01*
X51356040Y19099447D02*
X51260802Y19051828D01*
X50975087Y19099447D02*
X50594135Y19099447D01*
X50832230Y19432780D02*
X50832230Y18575638D01*
X50832230Y18575638D02*
X50784611Y18480400D01*
X50784611Y18480400D02*
X50689373Y18432780D01*
X50689373Y18432780D02*
X50594135Y18432780D01*
X50117944Y18432780D02*
X50213182Y18480400D01*
X50213182Y18480400D02*
X50260801Y18528019D01*
X50260801Y18528019D02*
X50308420Y18623257D01*
X50308420Y18623257D02*
X50308420Y18908971D01*
X50308420Y18908971D02*
X50260801Y19004209D01*
X50260801Y19004209D02*
X50213182Y19051828D01*
X50213182Y19051828D02*
X50117944Y19099447D01*
X50117944Y19099447D02*
X49975087Y19099447D01*
X49975087Y19099447D02*
X49879849Y19051828D01*
X49879849Y19051828D02*
X49832230Y19004209D01*
X49832230Y19004209D02*
X49784611Y18908971D01*
X49784611Y18908971D02*
X49784611Y18623257D01*
X49784611Y18623257D02*
X49832230Y18528019D01*
X49832230Y18528019D02*
X49879849Y18480400D01*
X49879849Y18480400D02*
X49975087Y18432780D01*
X49975087Y18432780D02*
X50117944Y18432780D01*
X49356039Y18432780D02*
X49356039Y19099447D01*
X49356039Y18908971D02*
X49308420Y19004209D01*
X49308420Y19004209D02*
X49260801Y19051828D01*
X49260801Y19051828D02*
X49165563Y19099447D01*
X49165563Y19099447D02*
X49070325Y19099447D01*
D12*
X17887664Y32233332D02*
X17925760Y32271428D01*
X17925760Y32271428D02*
X17963855Y32385713D01*
X17963855Y32385713D02*
X17963855Y32461904D01*
X17963855Y32461904D02*
X17925760Y32576190D01*
X17925760Y32576190D02*
X17849569Y32652380D01*
X17849569Y32652380D02*
X17773379Y32690475D01*
X17773379Y32690475D02*
X17620998Y32728571D01*
X17620998Y32728571D02*
X17506712Y32728571D01*
X17506712Y32728571D02*
X17354331Y32690475D01*
X17354331Y32690475D02*
X17278140Y32652380D01*
X17278140Y32652380D02*
X17201950Y32576190D01*
X17201950Y32576190D02*
X17163855Y32461904D01*
X17163855Y32461904D02*
X17163855Y32385713D01*
X17163855Y32385713D02*
X17201950Y32271428D01*
X17201950Y32271428D02*
X17240045Y32233332D01*
X17163855Y31966666D02*
X17163855Y31471428D01*
X17163855Y31471428D02*
X17468617Y31738094D01*
X17468617Y31738094D02*
X17468617Y31623809D01*
X17468617Y31623809D02*
X17506712Y31547618D01*
X17506712Y31547618D02*
X17544807Y31509523D01*
X17544807Y31509523D02*
X17620998Y31471428D01*
X17620998Y31471428D02*
X17811474Y31471428D01*
X17811474Y31471428D02*
X17887664Y31509523D01*
X17887664Y31509523D02*
X17925760Y31547618D01*
X17925760Y31547618D02*
X17963855Y31623809D01*
X17963855Y31623809D02*
X17963855Y31852380D01*
X17963855Y31852380D02*
X17925760Y31928571D01*
X17925760Y31928571D02*
X17887664Y31966666D01*
X20533332Y40136144D02*
X20799999Y40517097D01*
X20990475Y40136144D02*
X20990475Y40936144D01*
X20990475Y40936144D02*
X20685713Y40936144D01*
X20685713Y40936144D02*
X20609523Y40898049D01*
X20609523Y40898049D02*
X20571428Y40859954D01*
X20571428Y40859954D02*
X20533332Y40783763D01*
X20533332Y40783763D02*
X20533332Y40669478D01*
X20533332Y40669478D02*
X20571428Y40593287D01*
X20571428Y40593287D02*
X20609523Y40555192D01*
X20609523Y40555192D02*
X20685713Y40517097D01*
X20685713Y40517097D02*
X20990475Y40517097D01*
X20152380Y40136144D02*
X19999999Y40136144D01*
X19999999Y40136144D02*
X19923809Y40174240D01*
X19923809Y40174240D02*
X19885713Y40212335D01*
X19885713Y40212335D02*
X19809523Y40326620D01*
X19809523Y40326620D02*
X19771428Y40479001D01*
X19771428Y40479001D02*
X19771428Y40783763D01*
X19771428Y40783763D02*
X19809523Y40859954D01*
X19809523Y40859954D02*
X19847618Y40898049D01*
X19847618Y40898049D02*
X19923809Y40936144D01*
X19923809Y40936144D02*
X20076190Y40936144D01*
X20076190Y40936144D02*
X20152380Y40898049D01*
X20152380Y40898049D02*
X20190475Y40859954D01*
X20190475Y40859954D02*
X20228571Y40783763D01*
X20228571Y40783763D02*
X20228571Y40593287D01*
X20228571Y40593287D02*
X20190475Y40517097D01*
X20190475Y40517097D02*
X20152380Y40479001D01*
X20152380Y40479001D02*
X20076190Y40440906D01*
X20076190Y40440906D02*
X19923809Y40440906D01*
X19923809Y40440906D02*
X19847618Y40479001D01*
X19847618Y40479001D02*
X19809523Y40517097D01*
X19809523Y40517097D02*
X19771428Y40593287D01*
X26614285Y25386144D02*
X26880952Y25767097D01*
X27071428Y25386144D02*
X27071428Y26186144D01*
X27071428Y26186144D02*
X26766666Y26186144D01*
X26766666Y26186144D02*
X26690476Y26148049D01*
X26690476Y26148049D02*
X26652381Y26109954D01*
X26652381Y26109954D02*
X26614285Y26033763D01*
X26614285Y26033763D02*
X26614285Y25919478D01*
X26614285Y25919478D02*
X26652381Y25843287D01*
X26652381Y25843287D02*
X26690476Y25805192D01*
X26690476Y25805192D02*
X26766666Y25767097D01*
X26766666Y25767097D02*
X27071428Y25767097D01*
X25852381Y25386144D02*
X26309524Y25386144D01*
X26080952Y25386144D02*
X26080952Y26186144D01*
X26080952Y26186144D02*
X26157143Y26071859D01*
X26157143Y26071859D02*
X26233333Y25995668D01*
X26233333Y25995668D02*
X26309524Y25957573D01*
X25547619Y26109954D02*
X25509523Y26148049D01*
X25509523Y26148049D02*
X25433333Y26186144D01*
X25433333Y26186144D02*
X25242857Y26186144D01*
X25242857Y26186144D02*
X25166666Y26148049D01*
X25166666Y26148049D02*
X25128571Y26109954D01*
X25128571Y26109954D02*
X25090476Y26033763D01*
X25090476Y26033763D02*
X25090476Y25957573D01*
X25090476Y25957573D02*
X25128571Y25843287D01*
X25128571Y25843287D02*
X25585714Y25386144D01*
X25585714Y25386144D02*
X25090476Y25386144D01*
X27808332Y40211144D02*
X28074999Y40592097D01*
X28265475Y40211144D02*
X28265475Y41011144D01*
X28265475Y41011144D02*
X27960713Y41011144D01*
X27960713Y41011144D02*
X27884523Y40973049D01*
X27884523Y40973049D02*
X27846428Y40934954D01*
X27846428Y40934954D02*
X27808332Y40858763D01*
X27808332Y40858763D02*
X27808332Y40744478D01*
X27808332Y40744478D02*
X27846428Y40668287D01*
X27846428Y40668287D02*
X27884523Y40630192D01*
X27884523Y40630192D02*
X27960713Y40592097D01*
X27960713Y40592097D02*
X28265475Y40592097D01*
X27351190Y40668287D02*
X27427380Y40706382D01*
X27427380Y40706382D02*
X27465475Y40744478D01*
X27465475Y40744478D02*
X27503571Y40820668D01*
X27503571Y40820668D02*
X27503571Y40858763D01*
X27503571Y40858763D02*
X27465475Y40934954D01*
X27465475Y40934954D02*
X27427380Y40973049D01*
X27427380Y40973049D02*
X27351190Y41011144D01*
X27351190Y41011144D02*
X27198809Y41011144D01*
X27198809Y41011144D02*
X27122618Y40973049D01*
X27122618Y40973049D02*
X27084523Y40934954D01*
X27084523Y40934954D02*
X27046428Y40858763D01*
X27046428Y40858763D02*
X27046428Y40820668D01*
X27046428Y40820668D02*
X27084523Y40744478D01*
X27084523Y40744478D02*
X27122618Y40706382D01*
X27122618Y40706382D02*
X27198809Y40668287D01*
X27198809Y40668287D02*
X27351190Y40668287D01*
X27351190Y40668287D02*
X27427380Y40630192D01*
X27427380Y40630192D02*
X27465475Y40592097D01*
X27465475Y40592097D02*
X27503571Y40515906D01*
X27503571Y40515906D02*
X27503571Y40363525D01*
X27503571Y40363525D02*
X27465475Y40287335D01*
X27465475Y40287335D02*
X27427380Y40249240D01*
X27427380Y40249240D02*
X27351190Y40211144D01*
X27351190Y40211144D02*
X27198809Y40211144D01*
X27198809Y40211144D02*
X27122618Y40249240D01*
X27122618Y40249240D02*
X27084523Y40287335D01*
X27084523Y40287335D02*
X27046428Y40363525D01*
X27046428Y40363525D02*
X27046428Y40515906D01*
X27046428Y40515906D02*
X27084523Y40592097D01*
X27084523Y40592097D02*
X27122618Y40630192D01*
X27122618Y40630192D02*
X27198809Y40668287D01*
X47693855Y51974285D02*
X47312902Y52240952D01*
X47693855Y52431428D02*
X46893855Y52431428D01*
X46893855Y52431428D02*
X46893855Y52126666D01*
X46893855Y52126666D02*
X46931950Y52050476D01*
X46931950Y52050476D02*
X46970045Y52012381D01*
X46970045Y52012381D02*
X47046236Y51974285D01*
X47046236Y51974285D02*
X47160521Y51974285D01*
X47160521Y51974285D02*
X47236712Y52012381D01*
X47236712Y52012381D02*
X47274807Y52050476D01*
X47274807Y52050476D02*
X47312902Y52126666D01*
X47312902Y52126666D02*
X47312902Y52431428D01*
X46970045Y51669524D02*
X46931950Y51631428D01*
X46931950Y51631428D02*
X46893855Y51555238D01*
X46893855Y51555238D02*
X46893855Y51364762D01*
X46893855Y51364762D02*
X46931950Y51288571D01*
X46931950Y51288571D02*
X46970045Y51250476D01*
X46970045Y51250476D02*
X47046236Y51212381D01*
X47046236Y51212381D02*
X47122426Y51212381D01*
X47122426Y51212381D02*
X47236712Y51250476D01*
X47236712Y51250476D02*
X47693855Y51707619D01*
X47693855Y51707619D02*
X47693855Y51212381D01*
X46893855Y50717142D02*
X46893855Y50640952D01*
X46893855Y50640952D02*
X46931950Y50564761D01*
X46931950Y50564761D02*
X46970045Y50526666D01*
X46970045Y50526666D02*
X47046236Y50488571D01*
X47046236Y50488571D02*
X47198617Y50450476D01*
X47198617Y50450476D02*
X47389093Y50450476D01*
X47389093Y50450476D02*
X47541474Y50488571D01*
X47541474Y50488571D02*
X47617664Y50526666D01*
X47617664Y50526666D02*
X47655760Y50564761D01*
X47655760Y50564761D02*
X47693855Y50640952D01*
X47693855Y50640952D02*
X47693855Y50717142D01*
X47693855Y50717142D02*
X47655760Y50793333D01*
X47655760Y50793333D02*
X47617664Y50831428D01*
X47617664Y50831428D02*
X47541474Y50869523D01*
X47541474Y50869523D02*
X47389093Y50907619D01*
X47389093Y50907619D02*
X47198617Y50907619D01*
X47198617Y50907619D02*
X47046236Y50869523D01*
X47046236Y50869523D02*
X46970045Y50831428D01*
X46970045Y50831428D02*
X46931950Y50793333D01*
X46931950Y50793333D02*
X46893855Y50717142D01*
X49713855Y28514285D02*
X49332902Y28780952D01*
X49713855Y28971428D02*
X48913855Y28971428D01*
X48913855Y28971428D02*
X48913855Y28666666D01*
X48913855Y28666666D02*
X48951950Y28590476D01*
X48951950Y28590476D02*
X48990045Y28552381D01*
X48990045Y28552381D02*
X49066236Y28514285D01*
X49066236Y28514285D02*
X49180521Y28514285D01*
X49180521Y28514285D02*
X49256712Y28552381D01*
X49256712Y28552381D02*
X49294807Y28590476D01*
X49294807Y28590476D02*
X49332902Y28666666D01*
X49332902Y28666666D02*
X49332902Y28971428D01*
X48913855Y28247619D02*
X48913855Y27714285D01*
X48913855Y27714285D02*
X49713855Y28057143D01*
X48913855Y27485714D02*
X48913855Y26990476D01*
X48913855Y26990476D02*
X49218617Y27257142D01*
X49218617Y27257142D02*
X49218617Y27142857D01*
X49218617Y27142857D02*
X49256712Y27066666D01*
X49256712Y27066666D02*
X49294807Y27028571D01*
X49294807Y27028571D02*
X49370998Y26990476D01*
X49370998Y26990476D02*
X49561474Y26990476D01*
X49561474Y26990476D02*
X49637664Y27028571D01*
X49637664Y27028571D02*
X49675760Y27066666D01*
X49675760Y27066666D02*
X49713855Y27142857D01*
X49713855Y27142857D02*
X49713855Y27371428D01*
X49713855Y27371428D02*
X49675760Y27447619D01*
X49675760Y27447619D02*
X49637664Y27485714D01*
X57413855Y28514285D02*
X57032902Y28780952D01*
X57413855Y28971428D02*
X56613855Y28971428D01*
X56613855Y28971428D02*
X56613855Y28666666D01*
X56613855Y28666666D02*
X56651950Y28590476D01*
X56651950Y28590476D02*
X56690045Y28552381D01*
X56690045Y28552381D02*
X56766236Y28514285D01*
X56766236Y28514285D02*
X56880521Y28514285D01*
X56880521Y28514285D02*
X56956712Y28552381D01*
X56956712Y28552381D02*
X56994807Y28590476D01*
X56994807Y28590476D02*
X57032902Y28666666D01*
X57032902Y28666666D02*
X57032902Y28971428D01*
X56613855Y28247619D02*
X56613855Y27714285D01*
X56613855Y27714285D02*
X57413855Y28057143D01*
X56880521Y27066666D02*
X57413855Y27066666D01*
X56575760Y27257142D02*
X57147188Y27447619D01*
X57147188Y27447619D02*
X57147188Y26952380D01*
X14514285Y35236144D02*
X14780952Y35617097D01*
X14971428Y35236144D02*
X14971428Y36036144D01*
X14971428Y36036144D02*
X14666666Y36036144D01*
X14666666Y36036144D02*
X14590476Y35998049D01*
X14590476Y35998049D02*
X14552381Y35959954D01*
X14552381Y35959954D02*
X14514285Y35883763D01*
X14514285Y35883763D02*
X14514285Y35769478D01*
X14514285Y35769478D02*
X14552381Y35693287D01*
X14552381Y35693287D02*
X14590476Y35655192D01*
X14590476Y35655192D02*
X14666666Y35617097D01*
X14666666Y35617097D02*
X14971428Y35617097D01*
X14247619Y36036144D02*
X13752381Y36036144D01*
X13752381Y36036144D02*
X14019047Y35731382D01*
X14019047Y35731382D02*
X13904762Y35731382D01*
X13904762Y35731382D02*
X13828571Y35693287D01*
X13828571Y35693287D02*
X13790476Y35655192D01*
X13790476Y35655192D02*
X13752381Y35579001D01*
X13752381Y35579001D02*
X13752381Y35388525D01*
X13752381Y35388525D02*
X13790476Y35312335D01*
X13790476Y35312335D02*
X13828571Y35274240D01*
X13828571Y35274240D02*
X13904762Y35236144D01*
X13904762Y35236144D02*
X14133333Y35236144D01*
X14133333Y35236144D02*
X14209524Y35274240D01*
X14209524Y35274240D02*
X14247619Y35312335D01*
X13028571Y36036144D02*
X13409523Y36036144D01*
X13409523Y36036144D02*
X13447619Y35655192D01*
X13447619Y35655192D02*
X13409523Y35693287D01*
X13409523Y35693287D02*
X13333333Y35731382D01*
X13333333Y35731382D02*
X13142857Y35731382D01*
X13142857Y35731382D02*
X13066666Y35693287D01*
X13066666Y35693287D02*
X13028571Y35655192D01*
X13028571Y35655192D02*
X12990476Y35579001D01*
X12990476Y35579001D02*
X12990476Y35388525D01*
X12990476Y35388525D02*
X13028571Y35312335D01*
X13028571Y35312335D02*
X13066666Y35274240D01*
X13066666Y35274240D02*
X13142857Y35236144D01*
X13142857Y35236144D02*
X13333333Y35236144D01*
X13333333Y35236144D02*
X13409523Y35274240D01*
X13409523Y35274240D02*
X13447619Y35312335D01*
X40713855Y28514285D02*
X40332902Y28780952D01*
X40713855Y28971428D02*
X39913855Y28971428D01*
X39913855Y28971428D02*
X39913855Y28666666D01*
X39913855Y28666666D02*
X39951950Y28590476D01*
X39951950Y28590476D02*
X39990045Y28552381D01*
X39990045Y28552381D02*
X40066236Y28514285D01*
X40066236Y28514285D02*
X40180521Y28514285D01*
X40180521Y28514285D02*
X40256712Y28552381D01*
X40256712Y28552381D02*
X40294807Y28590476D01*
X40294807Y28590476D02*
X40332902Y28666666D01*
X40332902Y28666666D02*
X40332902Y28971428D01*
X40180521Y27828571D02*
X40713855Y27828571D01*
X39875760Y28019047D02*
X40447188Y28209524D01*
X40447188Y28209524D02*
X40447188Y27714285D01*
X39913855Y27485714D02*
X39913855Y26952380D01*
X39913855Y26952380D02*
X40713855Y27295238D01*
X36913855Y52014285D02*
X36532902Y52280952D01*
X36913855Y52471428D02*
X36113855Y52471428D01*
X36113855Y52471428D02*
X36113855Y52166666D01*
X36113855Y52166666D02*
X36151950Y52090476D01*
X36151950Y52090476D02*
X36190045Y52052381D01*
X36190045Y52052381D02*
X36266236Y52014285D01*
X36266236Y52014285D02*
X36380521Y52014285D01*
X36380521Y52014285D02*
X36456712Y52052381D01*
X36456712Y52052381D02*
X36494807Y52090476D01*
X36494807Y52090476D02*
X36532902Y52166666D01*
X36532902Y52166666D02*
X36532902Y52471428D01*
X36913855Y51252381D02*
X36913855Y51709524D01*
X36913855Y51480952D02*
X36113855Y51480952D01*
X36113855Y51480952D02*
X36228140Y51557143D01*
X36228140Y51557143D02*
X36304331Y51633333D01*
X36304331Y51633333D02*
X36342426Y51709524D01*
X36913855Y50871428D02*
X36913855Y50719047D01*
X36913855Y50719047D02*
X36875760Y50642857D01*
X36875760Y50642857D02*
X36837664Y50604761D01*
X36837664Y50604761D02*
X36723379Y50528571D01*
X36723379Y50528571D02*
X36570998Y50490476D01*
X36570998Y50490476D02*
X36266236Y50490476D01*
X36266236Y50490476D02*
X36190045Y50528571D01*
X36190045Y50528571D02*
X36151950Y50566666D01*
X36151950Y50566666D02*
X36113855Y50642857D01*
X36113855Y50642857D02*
X36113855Y50795238D01*
X36113855Y50795238D02*
X36151950Y50871428D01*
X36151950Y50871428D02*
X36190045Y50909523D01*
X36190045Y50909523D02*
X36266236Y50947619D01*
X36266236Y50947619D02*
X36456712Y50947619D01*
X36456712Y50947619D02*
X36532902Y50909523D01*
X36532902Y50909523D02*
X36570998Y50871428D01*
X36570998Y50871428D02*
X36609093Y50795238D01*
X36609093Y50795238D02*
X36609093Y50642857D01*
X36609093Y50642857D02*
X36570998Y50566666D01*
X36570998Y50566666D02*
X36532902Y50528571D01*
X36532902Y50528571D02*
X36456712Y50490476D01*
X29133332Y45661144D02*
X29399999Y46042097D01*
X29590475Y45661144D02*
X29590475Y46461144D01*
X29590475Y46461144D02*
X29285713Y46461144D01*
X29285713Y46461144D02*
X29209523Y46423049D01*
X29209523Y46423049D02*
X29171428Y46384954D01*
X29171428Y46384954D02*
X29133332Y46308763D01*
X29133332Y46308763D02*
X29133332Y46194478D01*
X29133332Y46194478D02*
X29171428Y46118287D01*
X29171428Y46118287D02*
X29209523Y46080192D01*
X29209523Y46080192D02*
X29285713Y46042097D01*
X29285713Y46042097D02*
X29590475Y46042097D01*
X28447618Y46194478D02*
X28447618Y45661144D01*
X28638094Y46499240D02*
X28828571Y45927811D01*
X28828571Y45927811D02*
X28333332Y45927811D01*
X24064285Y24986144D02*
X24330952Y25367097D01*
X24521428Y24986144D02*
X24521428Y25786144D01*
X24521428Y25786144D02*
X24216666Y25786144D01*
X24216666Y25786144D02*
X24140476Y25748049D01*
X24140476Y25748049D02*
X24102381Y25709954D01*
X24102381Y25709954D02*
X24064285Y25633763D01*
X24064285Y25633763D02*
X24064285Y25519478D01*
X24064285Y25519478D02*
X24102381Y25443287D01*
X24102381Y25443287D02*
X24140476Y25405192D01*
X24140476Y25405192D02*
X24216666Y25367097D01*
X24216666Y25367097D02*
X24521428Y25367097D01*
X23302381Y24986144D02*
X23759524Y24986144D01*
X23530952Y24986144D02*
X23530952Y25786144D01*
X23530952Y25786144D02*
X23607143Y25671859D01*
X23607143Y25671859D02*
X23683333Y25595668D01*
X23683333Y25595668D02*
X23759524Y25557573D01*
X23035714Y25786144D02*
X22502380Y25786144D01*
X22502380Y25786144D02*
X22845238Y24986144D01*
X4983332Y45587335D02*
X5021428Y45549240D01*
X5021428Y45549240D02*
X5135713Y45511144D01*
X5135713Y45511144D02*
X5211904Y45511144D01*
X5211904Y45511144D02*
X5326190Y45549240D01*
X5326190Y45549240D02*
X5402380Y45625430D01*
X5402380Y45625430D02*
X5440475Y45701620D01*
X5440475Y45701620D02*
X5478571Y45854001D01*
X5478571Y45854001D02*
X5478571Y45968287D01*
X5478571Y45968287D02*
X5440475Y46120668D01*
X5440475Y46120668D02*
X5402380Y46196859D01*
X5402380Y46196859D02*
X5326190Y46273049D01*
X5326190Y46273049D02*
X5211904Y46311144D01*
X5211904Y46311144D02*
X5135713Y46311144D01*
X5135713Y46311144D02*
X5021428Y46273049D01*
X5021428Y46273049D02*
X4983332Y46234954D01*
X4259523Y46311144D02*
X4640475Y46311144D01*
X4640475Y46311144D02*
X4678571Y45930192D01*
X4678571Y45930192D02*
X4640475Y45968287D01*
X4640475Y45968287D02*
X4564285Y46006382D01*
X4564285Y46006382D02*
X4373809Y46006382D01*
X4373809Y46006382D02*
X4297618Y45968287D01*
X4297618Y45968287D02*
X4259523Y45930192D01*
X4259523Y45930192D02*
X4221428Y45854001D01*
X4221428Y45854001D02*
X4221428Y45663525D01*
X4221428Y45663525D02*
X4259523Y45587335D01*
X4259523Y45587335D02*
X4297618Y45549240D01*
X4297618Y45549240D02*
X4373809Y45511144D01*
X4373809Y45511144D02*
X4564285Y45511144D01*
X4564285Y45511144D02*
X4640475Y45549240D01*
X4640475Y45549240D02*
X4678571Y45587335D01*
X31839285Y25286144D02*
X32105952Y25667097D01*
X32296428Y25286144D02*
X32296428Y26086144D01*
X32296428Y26086144D02*
X31991666Y26086144D01*
X31991666Y26086144D02*
X31915476Y26048049D01*
X31915476Y26048049D02*
X31877381Y26009954D01*
X31877381Y26009954D02*
X31839285Y25933763D01*
X31839285Y25933763D02*
X31839285Y25819478D01*
X31839285Y25819478D02*
X31877381Y25743287D01*
X31877381Y25743287D02*
X31915476Y25705192D01*
X31915476Y25705192D02*
X31991666Y25667097D01*
X31991666Y25667097D02*
X32296428Y25667097D01*
X31077381Y25286144D02*
X31534524Y25286144D01*
X31305952Y25286144D02*
X31305952Y26086144D01*
X31305952Y26086144D02*
X31382143Y25971859D01*
X31382143Y25971859D02*
X31458333Y25895668D01*
X31458333Y25895668D02*
X31534524Y25857573D01*
X30391666Y26086144D02*
X30544047Y26086144D01*
X30544047Y26086144D02*
X30620238Y26048049D01*
X30620238Y26048049D02*
X30658333Y26009954D01*
X30658333Y26009954D02*
X30734523Y25895668D01*
X30734523Y25895668D02*
X30772619Y25743287D01*
X30772619Y25743287D02*
X30772619Y25438525D01*
X30772619Y25438525D02*
X30734523Y25362335D01*
X30734523Y25362335D02*
X30696428Y25324240D01*
X30696428Y25324240D02*
X30620238Y25286144D01*
X30620238Y25286144D02*
X30467857Y25286144D01*
X30467857Y25286144D02*
X30391666Y25324240D01*
X30391666Y25324240D02*
X30353571Y25362335D01*
X30353571Y25362335D02*
X30315476Y25438525D01*
X30315476Y25438525D02*
X30315476Y25629001D01*
X30315476Y25629001D02*
X30353571Y25705192D01*
X30353571Y25705192D02*
X30391666Y25743287D01*
X30391666Y25743287D02*
X30467857Y25781382D01*
X30467857Y25781382D02*
X30620238Y25781382D01*
X30620238Y25781382D02*
X30696428Y25743287D01*
X30696428Y25743287D02*
X30734523Y25705192D01*
X30734523Y25705192D02*
X30772619Y25629001D01*
X32238855Y36734523D02*
X32886474Y36734523D01*
X32886474Y36734523D02*
X32962664Y36696428D01*
X32962664Y36696428D02*
X33000760Y36658333D01*
X33000760Y36658333D02*
X33038855Y36582142D01*
X33038855Y36582142D02*
X33038855Y36429761D01*
X33038855Y36429761D02*
X33000760Y36353571D01*
X33000760Y36353571D02*
X32962664Y36315476D01*
X32962664Y36315476D02*
X32886474Y36277380D01*
X32886474Y36277380D02*
X32238855Y36277380D01*
X32315045Y35934524D02*
X32276950Y35896428D01*
X32276950Y35896428D02*
X32238855Y35820238D01*
X32238855Y35820238D02*
X32238855Y35629762D01*
X32238855Y35629762D02*
X32276950Y35553571D01*
X32276950Y35553571D02*
X32315045Y35515476D01*
X32315045Y35515476D02*
X32391236Y35477381D01*
X32391236Y35477381D02*
X32467426Y35477381D01*
X32467426Y35477381D02*
X32581712Y35515476D01*
X32581712Y35515476D02*
X33038855Y35972619D01*
X33038855Y35972619D02*
X33038855Y35477381D01*
X22333332Y45636144D02*
X22599999Y46017097D01*
X22790475Y45636144D02*
X22790475Y46436144D01*
X22790475Y46436144D02*
X22485713Y46436144D01*
X22485713Y46436144D02*
X22409523Y46398049D01*
X22409523Y46398049D02*
X22371428Y46359954D01*
X22371428Y46359954D02*
X22333332Y46283763D01*
X22333332Y46283763D02*
X22333332Y46169478D01*
X22333332Y46169478D02*
X22371428Y46093287D01*
X22371428Y46093287D02*
X22409523Y46055192D01*
X22409523Y46055192D02*
X22485713Y46017097D01*
X22485713Y46017097D02*
X22790475Y46017097D01*
X21609523Y46436144D02*
X21990475Y46436144D01*
X21990475Y46436144D02*
X22028571Y46055192D01*
X22028571Y46055192D02*
X21990475Y46093287D01*
X21990475Y46093287D02*
X21914285Y46131382D01*
X21914285Y46131382D02*
X21723809Y46131382D01*
X21723809Y46131382D02*
X21647618Y46093287D01*
X21647618Y46093287D02*
X21609523Y46055192D01*
X21609523Y46055192D02*
X21571428Y45979001D01*
X21571428Y45979001D02*
X21571428Y45788525D01*
X21571428Y45788525D02*
X21609523Y45712335D01*
X21609523Y45712335D02*
X21647618Y45674240D01*
X21647618Y45674240D02*
X21723809Y45636144D01*
X21723809Y45636144D02*
X21914285Y45636144D01*
X21914285Y45636144D02*
X21990475Y45674240D01*
X21990475Y45674240D02*
X22028571Y45712335D01*
X17113855Y29014285D02*
X16732902Y29280952D01*
X17113855Y29471428D02*
X16313855Y29471428D01*
X16313855Y29471428D02*
X16313855Y29166666D01*
X16313855Y29166666D02*
X16351950Y29090476D01*
X16351950Y29090476D02*
X16390045Y29052381D01*
X16390045Y29052381D02*
X16466236Y29014285D01*
X16466236Y29014285D02*
X16580521Y29014285D01*
X16580521Y29014285D02*
X16656712Y29052381D01*
X16656712Y29052381D02*
X16694807Y29090476D01*
X16694807Y29090476D02*
X16732902Y29166666D01*
X16732902Y29166666D02*
X16732902Y29471428D01*
X17113855Y28252381D02*
X17113855Y28709524D01*
X17113855Y28480952D02*
X16313855Y28480952D01*
X16313855Y28480952D02*
X16428140Y28557143D01*
X16428140Y28557143D02*
X16504331Y28633333D01*
X16504331Y28633333D02*
X16542426Y28709524D01*
X16313855Y27985714D02*
X16313855Y27490476D01*
X16313855Y27490476D02*
X16618617Y27757142D01*
X16618617Y27757142D02*
X16618617Y27642857D01*
X16618617Y27642857D02*
X16656712Y27566666D01*
X16656712Y27566666D02*
X16694807Y27528571D01*
X16694807Y27528571D02*
X16770998Y27490476D01*
X16770998Y27490476D02*
X16961474Y27490476D01*
X16961474Y27490476D02*
X17037664Y27528571D01*
X17037664Y27528571D02*
X17075760Y27566666D01*
X17075760Y27566666D02*
X17113855Y27642857D01*
X17113855Y27642857D02*
X17113855Y27871428D01*
X17113855Y27871428D02*
X17075760Y27947619D01*
X17075760Y27947619D02*
X17037664Y27985714D01*
X32383332Y43086144D02*
X32649999Y43467097D01*
X32840475Y43086144D02*
X32840475Y43886144D01*
X32840475Y43886144D02*
X32535713Y43886144D01*
X32535713Y43886144D02*
X32459523Y43848049D01*
X32459523Y43848049D02*
X32421428Y43809954D01*
X32421428Y43809954D02*
X32383332Y43733763D01*
X32383332Y43733763D02*
X32383332Y43619478D01*
X32383332Y43619478D02*
X32421428Y43543287D01*
X32421428Y43543287D02*
X32459523Y43505192D01*
X32459523Y43505192D02*
X32535713Y43467097D01*
X32535713Y43467097D02*
X32840475Y43467097D01*
X31697618Y43886144D02*
X31849999Y43886144D01*
X31849999Y43886144D02*
X31926190Y43848049D01*
X31926190Y43848049D02*
X31964285Y43809954D01*
X31964285Y43809954D02*
X32040475Y43695668D01*
X32040475Y43695668D02*
X32078571Y43543287D01*
X32078571Y43543287D02*
X32078571Y43238525D01*
X32078571Y43238525D02*
X32040475Y43162335D01*
X32040475Y43162335D02*
X32002380Y43124240D01*
X32002380Y43124240D02*
X31926190Y43086144D01*
X31926190Y43086144D02*
X31773809Y43086144D01*
X31773809Y43086144D02*
X31697618Y43124240D01*
X31697618Y43124240D02*
X31659523Y43162335D01*
X31659523Y43162335D02*
X31621428Y43238525D01*
X31621428Y43238525D02*
X31621428Y43429001D01*
X31621428Y43429001D02*
X31659523Y43505192D01*
X31659523Y43505192D02*
X31697618Y43543287D01*
X31697618Y43543287D02*
X31773809Y43581382D01*
X31773809Y43581382D02*
X31926190Y43581382D01*
X31926190Y43581382D02*
X32002380Y43543287D01*
X32002380Y43543287D02*
X32040475Y43505192D01*
X32040475Y43505192D02*
X32078571Y43429001D01*
X55238855Y35279285D02*
X54857902Y35545952D01*
X55238855Y35736428D02*
X54438855Y35736428D01*
X54438855Y35736428D02*
X54438855Y35431666D01*
X54438855Y35431666D02*
X54476950Y35355476D01*
X54476950Y35355476D02*
X54515045Y35317381D01*
X54515045Y35317381D02*
X54591236Y35279285D01*
X54591236Y35279285D02*
X54705521Y35279285D01*
X54705521Y35279285D02*
X54781712Y35317381D01*
X54781712Y35317381D02*
X54819807Y35355476D01*
X54819807Y35355476D02*
X54857902Y35431666D01*
X54857902Y35431666D02*
X54857902Y35736428D01*
X54438855Y35012619D02*
X54438855Y34479285D01*
X54438855Y34479285D02*
X55238855Y34822143D01*
X54438855Y34250714D02*
X54438855Y33717380D01*
X54438855Y33717380D02*
X55238855Y34060238D01*
X6564285Y41361144D02*
X6830952Y41742097D01*
X7021428Y41361144D02*
X7021428Y42161144D01*
X7021428Y42161144D02*
X6716666Y42161144D01*
X6716666Y42161144D02*
X6640476Y42123049D01*
X6640476Y42123049D02*
X6602381Y42084954D01*
X6602381Y42084954D02*
X6564285Y42008763D01*
X6564285Y42008763D02*
X6564285Y41894478D01*
X6564285Y41894478D02*
X6602381Y41818287D01*
X6602381Y41818287D02*
X6640476Y41780192D01*
X6640476Y41780192D02*
X6716666Y41742097D01*
X6716666Y41742097D02*
X7021428Y41742097D01*
X5802381Y41361144D02*
X6259524Y41361144D01*
X6030952Y41361144D02*
X6030952Y42161144D01*
X6030952Y42161144D02*
X6107143Y42046859D01*
X6107143Y42046859D02*
X6183333Y41970668D01*
X6183333Y41970668D02*
X6259524Y41932573D01*
X5345238Y41818287D02*
X5421428Y41856382D01*
X5421428Y41856382D02*
X5459523Y41894478D01*
X5459523Y41894478D02*
X5497619Y41970668D01*
X5497619Y41970668D02*
X5497619Y42008763D01*
X5497619Y42008763D02*
X5459523Y42084954D01*
X5459523Y42084954D02*
X5421428Y42123049D01*
X5421428Y42123049D02*
X5345238Y42161144D01*
X5345238Y42161144D02*
X5192857Y42161144D01*
X5192857Y42161144D02*
X5116666Y42123049D01*
X5116666Y42123049D02*
X5078571Y42084954D01*
X5078571Y42084954D02*
X5040476Y42008763D01*
X5040476Y42008763D02*
X5040476Y41970668D01*
X5040476Y41970668D02*
X5078571Y41894478D01*
X5078571Y41894478D02*
X5116666Y41856382D01*
X5116666Y41856382D02*
X5192857Y41818287D01*
X5192857Y41818287D02*
X5345238Y41818287D01*
X5345238Y41818287D02*
X5421428Y41780192D01*
X5421428Y41780192D02*
X5459523Y41742097D01*
X5459523Y41742097D02*
X5497619Y41665906D01*
X5497619Y41665906D02*
X5497619Y41513525D01*
X5497619Y41513525D02*
X5459523Y41437335D01*
X5459523Y41437335D02*
X5421428Y41399240D01*
X5421428Y41399240D02*
X5345238Y41361144D01*
X5345238Y41361144D02*
X5192857Y41361144D01*
X5192857Y41361144D02*
X5116666Y41399240D01*
X5116666Y41399240D02*
X5078571Y41437335D01*
X5078571Y41437335D02*
X5040476Y41513525D01*
X5040476Y41513525D02*
X5040476Y41665906D01*
X5040476Y41665906D02*
X5078571Y41742097D01*
X5078571Y41742097D02*
X5116666Y41780192D01*
X5116666Y41780192D02*
X5192857Y41818287D01*
X25283332Y43036144D02*
X25549999Y43417097D01*
X25740475Y43036144D02*
X25740475Y43836144D01*
X25740475Y43836144D02*
X25435713Y43836144D01*
X25435713Y43836144D02*
X25359523Y43798049D01*
X25359523Y43798049D02*
X25321428Y43759954D01*
X25321428Y43759954D02*
X25283332Y43683763D01*
X25283332Y43683763D02*
X25283332Y43569478D01*
X25283332Y43569478D02*
X25321428Y43493287D01*
X25321428Y43493287D02*
X25359523Y43455192D01*
X25359523Y43455192D02*
X25435713Y43417097D01*
X25435713Y43417097D02*
X25740475Y43417097D01*
X25016666Y43836144D02*
X24483332Y43836144D01*
X24483332Y43836144D02*
X24826190Y43036144D01*
X29489285Y25236144D02*
X29755952Y25617097D01*
X29946428Y25236144D02*
X29946428Y26036144D01*
X29946428Y26036144D02*
X29641666Y26036144D01*
X29641666Y26036144D02*
X29565476Y25998049D01*
X29565476Y25998049D02*
X29527381Y25959954D01*
X29527381Y25959954D02*
X29489285Y25883763D01*
X29489285Y25883763D02*
X29489285Y25769478D01*
X29489285Y25769478D02*
X29527381Y25693287D01*
X29527381Y25693287D02*
X29565476Y25655192D01*
X29565476Y25655192D02*
X29641666Y25617097D01*
X29641666Y25617097D02*
X29946428Y25617097D01*
X28727381Y25236144D02*
X29184524Y25236144D01*
X28955952Y25236144D02*
X28955952Y26036144D01*
X28955952Y26036144D02*
X29032143Y25921859D01*
X29032143Y25921859D02*
X29108333Y25845668D01*
X29108333Y25845668D02*
X29184524Y25807573D01*
X28041666Y25769478D02*
X28041666Y25236144D01*
X28232142Y26074240D02*
X28422619Y25502811D01*
X28422619Y25502811D02*
X27927380Y25502811D01*
X5815476Y32438855D02*
X5815476Y33086474D01*
X5815476Y33086474D02*
X5853571Y33162664D01*
X5853571Y33162664D02*
X5891666Y33200760D01*
X5891666Y33200760D02*
X5967857Y33238855D01*
X5967857Y33238855D02*
X6120238Y33238855D01*
X6120238Y33238855D02*
X6196428Y33200760D01*
X6196428Y33200760D02*
X6234523Y33162664D01*
X6234523Y33162664D02*
X6272619Y33086474D01*
X6272619Y33086474D02*
X6272619Y32438855D01*
X7034523Y32438855D02*
X6653571Y32438855D01*
X6653571Y32438855D02*
X6615475Y32819807D01*
X6615475Y32819807D02*
X6653571Y32781712D01*
X6653571Y32781712D02*
X6729761Y32743617D01*
X6729761Y32743617D02*
X6920237Y32743617D01*
X6920237Y32743617D02*
X6996428Y32781712D01*
X6996428Y32781712D02*
X7034523Y32819807D01*
X7034523Y32819807D02*
X7072618Y32895998D01*
X7072618Y32895998D02*
X7072618Y33086474D01*
X7072618Y33086474D02*
X7034523Y33162664D01*
X7034523Y33162664D02*
X6996428Y33200760D01*
X6996428Y33200760D02*
X6920237Y33238855D01*
X6920237Y33238855D02*
X6729761Y33238855D01*
X6729761Y33238855D02*
X6653571Y33200760D01*
X6653571Y33200760D02*
X6615475Y33162664D01*
D13*
X1344999Y39554280D02*
X1344999Y39316185D01*
X1583094Y39411423D02*
X1344999Y39316185D01*
X1344999Y39316185D02*
X1106904Y39411423D01*
X1487856Y39125709D02*
X1344999Y39316185D01*
X1344999Y39316185D02*
X1202142Y39125709D01*
X1345000Y38463919D02*
X1345000Y38702014D01*
X1106905Y38606776D02*
X1345000Y38702014D01*
X1345000Y38702014D02*
X1583095Y38606776D01*
X1202143Y38892490D02*
X1345000Y38702014D01*
X1345000Y38702014D02*
X1487857Y38892490D01*
D12*
X20263855Y36709523D02*
X20911474Y36709523D01*
X20911474Y36709523D02*
X20987664Y36671428D01*
X20987664Y36671428D02*
X21025760Y36633333D01*
X21025760Y36633333D02*
X21063855Y36557142D01*
X21063855Y36557142D02*
X21063855Y36404761D01*
X21063855Y36404761D02*
X21025760Y36328571D01*
X21025760Y36328571D02*
X20987664Y36290476D01*
X20987664Y36290476D02*
X20911474Y36252380D01*
X20911474Y36252380D02*
X20263855Y36252380D01*
X20263855Y35947619D02*
X20263855Y35452381D01*
X20263855Y35452381D02*
X20568617Y35719047D01*
X20568617Y35719047D02*
X20568617Y35604762D01*
X20568617Y35604762D02*
X20606712Y35528571D01*
X20606712Y35528571D02*
X20644807Y35490476D01*
X20644807Y35490476D02*
X20720998Y35452381D01*
X20720998Y35452381D02*
X20911474Y35452381D01*
X20911474Y35452381D02*
X20987664Y35490476D01*
X20987664Y35490476D02*
X21025760Y35528571D01*
X21025760Y35528571D02*
X21063855Y35604762D01*
X21063855Y35604762D02*
X21063855Y35833333D01*
X21063855Y35833333D02*
X21025760Y35909524D01*
X21025760Y35909524D02*
X20987664Y35947619D01*
X35210666Y10436144D02*
X35210666Y9864716D01*
X35210666Y9864716D02*
X35248761Y9750430D01*
X35248761Y9750430D02*
X35324952Y9674240D01*
X35324952Y9674240D02*
X35439237Y9636144D01*
X35439237Y9636144D02*
X35515428Y9636144D01*
X34905904Y10436144D02*
X34372570Y10436144D01*
X34372570Y10436144D02*
X34715428Y9636144D01*
X11671785Y45792335D02*
X11709881Y45754240D01*
X11709881Y45754240D02*
X11824166Y45716144D01*
X11824166Y45716144D02*
X11900357Y45716144D01*
X11900357Y45716144D02*
X12014643Y45754240D01*
X12014643Y45754240D02*
X12090833Y45830430D01*
X12090833Y45830430D02*
X12128928Y45906620D01*
X12128928Y45906620D02*
X12167024Y46059001D01*
X12167024Y46059001D02*
X12167024Y46173287D01*
X12167024Y46173287D02*
X12128928Y46325668D01*
X12128928Y46325668D02*
X12090833Y46401859D01*
X12090833Y46401859D02*
X12014643Y46478049D01*
X12014643Y46478049D02*
X11900357Y46516144D01*
X11900357Y46516144D02*
X11824166Y46516144D01*
X11824166Y46516144D02*
X11709881Y46478049D01*
X11709881Y46478049D02*
X11671785Y46439954D01*
X10909881Y45716144D02*
X11367024Y45716144D01*
X11138452Y45716144D02*
X11138452Y46516144D01*
X11138452Y46516144D02*
X11214643Y46401859D01*
X11214643Y46401859D02*
X11290833Y46325668D01*
X11290833Y46325668D02*
X11367024Y46287573D01*
X10605119Y46439954D02*
X10567023Y46478049D01*
X10567023Y46478049D02*
X10490833Y46516144D01*
X10490833Y46516144D02*
X10300357Y46516144D01*
X10300357Y46516144D02*
X10224166Y46478049D01*
X10224166Y46478049D02*
X10186071Y46439954D01*
X10186071Y46439954D02*
X10147976Y46363763D01*
X10147976Y46363763D02*
X10147976Y46287573D01*
X10147976Y46287573D02*
X10186071Y46173287D01*
X10186071Y46173287D02*
X10643214Y45716144D01*
X10643214Y45716144D02*
X10147976Y45716144D01*
X41973855Y51974285D02*
X41592902Y52240952D01*
X41973855Y52431428D02*
X41173855Y52431428D01*
X41173855Y52431428D02*
X41173855Y52126666D01*
X41173855Y52126666D02*
X41211950Y52050476D01*
X41211950Y52050476D02*
X41250045Y52012381D01*
X41250045Y52012381D02*
X41326236Y51974285D01*
X41326236Y51974285D02*
X41440521Y51974285D01*
X41440521Y51974285D02*
X41516712Y52012381D01*
X41516712Y52012381D02*
X41554807Y52050476D01*
X41554807Y52050476D02*
X41592902Y52126666D01*
X41592902Y52126666D02*
X41592902Y52431428D01*
X41173855Y51288571D02*
X41173855Y51440952D01*
X41173855Y51440952D02*
X41211950Y51517143D01*
X41211950Y51517143D02*
X41250045Y51555238D01*
X41250045Y51555238D02*
X41364331Y51631428D01*
X41364331Y51631428D02*
X41516712Y51669524D01*
X41516712Y51669524D02*
X41821474Y51669524D01*
X41821474Y51669524D02*
X41897664Y51631428D01*
X41897664Y51631428D02*
X41935760Y51593333D01*
X41935760Y51593333D02*
X41973855Y51517143D01*
X41973855Y51517143D02*
X41973855Y51364762D01*
X41973855Y51364762D02*
X41935760Y51288571D01*
X41935760Y51288571D02*
X41897664Y51250476D01*
X41897664Y51250476D02*
X41821474Y51212381D01*
X41821474Y51212381D02*
X41630998Y51212381D01*
X41630998Y51212381D02*
X41554807Y51250476D01*
X41554807Y51250476D02*
X41516712Y51288571D01*
X41516712Y51288571D02*
X41478617Y51364762D01*
X41478617Y51364762D02*
X41478617Y51517143D01*
X41478617Y51517143D02*
X41516712Y51593333D01*
X41516712Y51593333D02*
X41554807Y51631428D01*
X41554807Y51631428D02*
X41630998Y51669524D01*
X41440521Y50526666D02*
X41973855Y50526666D01*
X41135760Y50717142D02*
X41707188Y50907619D01*
X41707188Y50907619D02*
X41707188Y50412380D01*
X26083332Y35362335D02*
X26121428Y35324240D01*
X26121428Y35324240D02*
X26235713Y35286144D01*
X26235713Y35286144D02*
X26311904Y35286144D01*
X26311904Y35286144D02*
X26426190Y35324240D01*
X26426190Y35324240D02*
X26502380Y35400430D01*
X26502380Y35400430D02*
X26540475Y35476620D01*
X26540475Y35476620D02*
X26578571Y35629001D01*
X26578571Y35629001D02*
X26578571Y35743287D01*
X26578571Y35743287D02*
X26540475Y35895668D01*
X26540475Y35895668D02*
X26502380Y35971859D01*
X26502380Y35971859D02*
X26426190Y36048049D01*
X26426190Y36048049D02*
X26311904Y36086144D01*
X26311904Y36086144D02*
X26235713Y36086144D01*
X26235713Y36086144D02*
X26121428Y36048049D01*
X26121428Y36048049D02*
X26083332Y36009954D01*
X25778571Y36009954D02*
X25740475Y36048049D01*
X25740475Y36048049D02*
X25664285Y36086144D01*
X25664285Y36086144D02*
X25473809Y36086144D01*
X25473809Y36086144D02*
X25397618Y36048049D01*
X25397618Y36048049D02*
X25359523Y36009954D01*
X25359523Y36009954D02*
X25321428Y35933763D01*
X25321428Y35933763D02*
X25321428Y35857573D01*
X25321428Y35857573D02*
X25359523Y35743287D01*
X25359523Y35743287D02*
X25816666Y35286144D01*
X25816666Y35286144D02*
X25321428Y35286144D01*
X48513855Y28514285D02*
X48132902Y28780952D01*
X48513855Y28971428D02*
X47713855Y28971428D01*
X47713855Y28971428D02*
X47713855Y28666666D01*
X47713855Y28666666D02*
X47751950Y28590476D01*
X47751950Y28590476D02*
X47790045Y28552381D01*
X47790045Y28552381D02*
X47866236Y28514285D01*
X47866236Y28514285D02*
X47980521Y28514285D01*
X47980521Y28514285D02*
X48056712Y28552381D01*
X48056712Y28552381D02*
X48094807Y28590476D01*
X48094807Y28590476D02*
X48132902Y28666666D01*
X48132902Y28666666D02*
X48132902Y28971428D01*
X47980521Y27828571D02*
X48513855Y27828571D01*
X47675760Y28019047D02*
X48247188Y28209524D01*
X48247188Y28209524D02*
X48247188Y27714285D01*
X48056712Y27295238D02*
X48018617Y27371428D01*
X48018617Y27371428D02*
X47980521Y27409523D01*
X47980521Y27409523D02*
X47904331Y27447619D01*
X47904331Y27447619D02*
X47866236Y27447619D01*
X47866236Y27447619D02*
X47790045Y27409523D01*
X47790045Y27409523D02*
X47751950Y27371428D01*
X47751950Y27371428D02*
X47713855Y27295238D01*
X47713855Y27295238D02*
X47713855Y27142857D01*
X47713855Y27142857D02*
X47751950Y27066666D01*
X47751950Y27066666D02*
X47790045Y27028571D01*
X47790045Y27028571D02*
X47866236Y26990476D01*
X47866236Y26990476D02*
X47904331Y26990476D01*
X47904331Y26990476D02*
X47980521Y27028571D01*
X47980521Y27028571D02*
X48018617Y27066666D01*
X48018617Y27066666D02*
X48056712Y27142857D01*
X48056712Y27142857D02*
X48056712Y27295238D01*
X48056712Y27295238D02*
X48094807Y27371428D01*
X48094807Y27371428D02*
X48132902Y27409523D01*
X48132902Y27409523D02*
X48209093Y27447619D01*
X48209093Y27447619D02*
X48361474Y27447619D01*
X48361474Y27447619D02*
X48437664Y27409523D01*
X48437664Y27409523D02*
X48475760Y27371428D01*
X48475760Y27371428D02*
X48513855Y27295238D01*
X48513855Y27295238D02*
X48513855Y27142857D01*
X48513855Y27142857D02*
X48475760Y27066666D01*
X48475760Y27066666D02*
X48437664Y27028571D01*
X48437664Y27028571D02*
X48361474Y26990476D01*
X48361474Y26990476D02*
X48209093Y26990476D01*
X48209093Y26990476D02*
X48132902Y27028571D01*
X48132902Y27028571D02*
X48094807Y27066666D01*
X48094807Y27066666D02*
X48056712Y27142857D01*
X21464285Y24986144D02*
X21730952Y25367097D01*
X21921428Y24986144D02*
X21921428Y25786144D01*
X21921428Y25786144D02*
X21616666Y25786144D01*
X21616666Y25786144D02*
X21540476Y25748049D01*
X21540476Y25748049D02*
X21502381Y25709954D01*
X21502381Y25709954D02*
X21464285Y25633763D01*
X21464285Y25633763D02*
X21464285Y25519478D01*
X21464285Y25519478D02*
X21502381Y25443287D01*
X21502381Y25443287D02*
X21540476Y25405192D01*
X21540476Y25405192D02*
X21616666Y25367097D01*
X21616666Y25367097D02*
X21921428Y25367097D01*
X20702381Y24986144D02*
X21159524Y24986144D01*
X20930952Y24986144D02*
X20930952Y25786144D01*
X20930952Y25786144D02*
X21007143Y25671859D01*
X21007143Y25671859D02*
X21083333Y25595668D01*
X21083333Y25595668D02*
X21159524Y25557573D01*
X19978571Y25786144D02*
X20359523Y25786144D01*
X20359523Y25786144D02*
X20397619Y25405192D01*
X20397619Y25405192D02*
X20359523Y25443287D01*
X20359523Y25443287D02*
X20283333Y25481382D01*
X20283333Y25481382D02*
X20092857Y25481382D01*
X20092857Y25481382D02*
X20016666Y25443287D01*
X20016666Y25443287D02*
X19978571Y25405192D01*
X19978571Y25405192D02*
X19940476Y25329001D01*
X19940476Y25329001D02*
X19940476Y25138525D01*
X19940476Y25138525D02*
X19978571Y25062335D01*
X19978571Y25062335D02*
X20016666Y25024240D01*
X20016666Y25024240D02*
X20092857Y24986144D01*
X20092857Y24986144D02*
X20283333Y24986144D01*
X20283333Y24986144D02*
X20359523Y25024240D01*
X20359523Y25024240D02*
X20397619Y25062335D01*
X46313855Y35014285D02*
X45932902Y35280952D01*
X46313855Y35471428D02*
X45513855Y35471428D01*
X45513855Y35471428D02*
X45513855Y35166666D01*
X45513855Y35166666D02*
X45551950Y35090476D01*
X45551950Y35090476D02*
X45590045Y35052381D01*
X45590045Y35052381D02*
X45666236Y35014285D01*
X45666236Y35014285D02*
X45780521Y35014285D01*
X45780521Y35014285D02*
X45856712Y35052381D01*
X45856712Y35052381D02*
X45894807Y35090476D01*
X45894807Y35090476D02*
X45932902Y35166666D01*
X45932902Y35166666D02*
X45932902Y35471428D01*
X45513855Y34290476D02*
X45513855Y34671428D01*
X45513855Y34671428D02*
X45894807Y34709524D01*
X45894807Y34709524D02*
X45856712Y34671428D01*
X45856712Y34671428D02*
X45818617Y34595238D01*
X45818617Y34595238D02*
X45818617Y34404762D01*
X45818617Y34404762D02*
X45856712Y34328571D01*
X45856712Y34328571D02*
X45894807Y34290476D01*
X45894807Y34290476D02*
X45970998Y34252381D01*
X45970998Y34252381D02*
X46161474Y34252381D01*
X46161474Y34252381D02*
X46237664Y34290476D01*
X46237664Y34290476D02*
X46275760Y34328571D01*
X46275760Y34328571D02*
X46313855Y34404762D01*
X46313855Y34404762D02*
X46313855Y34595238D01*
X46313855Y34595238D02*
X46275760Y34671428D01*
X46275760Y34671428D02*
X46237664Y34709524D01*
X45513855Y33528571D02*
X45513855Y33909523D01*
X45513855Y33909523D02*
X45894807Y33947619D01*
X45894807Y33947619D02*
X45856712Y33909523D01*
X45856712Y33909523D02*
X45818617Y33833333D01*
X45818617Y33833333D02*
X45818617Y33642857D01*
X45818617Y33642857D02*
X45856712Y33566666D01*
X45856712Y33566666D02*
X45894807Y33528571D01*
X45894807Y33528571D02*
X45970998Y33490476D01*
X45970998Y33490476D02*
X46161474Y33490476D01*
X46161474Y33490476D02*
X46237664Y33528571D01*
X46237664Y33528571D02*
X46275760Y33566666D01*
X46275760Y33566666D02*
X46313855Y33642857D01*
X46313855Y33642857D02*
X46313855Y33833333D01*
X46313855Y33833333D02*
X46275760Y33909523D01*
X46275760Y33909523D02*
X46237664Y33947619D01*
X51913855Y52014285D02*
X51532902Y52280952D01*
X51913855Y52471428D02*
X51113855Y52471428D01*
X51113855Y52471428D02*
X51113855Y52166666D01*
X51113855Y52166666D02*
X51151950Y52090476D01*
X51151950Y52090476D02*
X51190045Y52052381D01*
X51190045Y52052381D02*
X51266236Y52014285D01*
X51266236Y52014285D02*
X51380521Y52014285D01*
X51380521Y52014285D02*
X51456712Y52052381D01*
X51456712Y52052381D02*
X51494807Y52090476D01*
X51494807Y52090476D02*
X51532902Y52166666D01*
X51532902Y52166666D02*
X51532902Y52471428D01*
X51113855Y51328571D02*
X51113855Y51480952D01*
X51113855Y51480952D02*
X51151950Y51557143D01*
X51151950Y51557143D02*
X51190045Y51595238D01*
X51190045Y51595238D02*
X51304331Y51671428D01*
X51304331Y51671428D02*
X51456712Y51709524D01*
X51456712Y51709524D02*
X51761474Y51709524D01*
X51761474Y51709524D02*
X51837664Y51671428D01*
X51837664Y51671428D02*
X51875760Y51633333D01*
X51875760Y51633333D02*
X51913855Y51557143D01*
X51913855Y51557143D02*
X51913855Y51404762D01*
X51913855Y51404762D02*
X51875760Y51328571D01*
X51875760Y51328571D02*
X51837664Y51290476D01*
X51837664Y51290476D02*
X51761474Y51252381D01*
X51761474Y51252381D02*
X51570998Y51252381D01*
X51570998Y51252381D02*
X51494807Y51290476D01*
X51494807Y51290476D02*
X51456712Y51328571D01*
X51456712Y51328571D02*
X51418617Y51404762D01*
X51418617Y51404762D02*
X51418617Y51557143D01*
X51418617Y51557143D02*
X51456712Y51633333D01*
X51456712Y51633333D02*
X51494807Y51671428D01*
X51494807Y51671428D02*
X51570998Y51709524D01*
X51113855Y50528571D02*
X51113855Y50909523D01*
X51113855Y50909523D02*
X51494807Y50947619D01*
X51494807Y50947619D02*
X51456712Y50909523D01*
X51456712Y50909523D02*
X51418617Y50833333D01*
X51418617Y50833333D02*
X51418617Y50642857D01*
X51418617Y50642857D02*
X51456712Y50566666D01*
X51456712Y50566666D02*
X51494807Y50528571D01*
X51494807Y50528571D02*
X51570998Y50490476D01*
X51570998Y50490476D02*
X51761474Y50490476D01*
X51761474Y50490476D02*
X51837664Y50528571D01*
X51837664Y50528571D02*
X51875760Y50566666D01*
X51875760Y50566666D02*
X51913855Y50642857D01*
X51913855Y50642857D02*
X51913855Y50833333D01*
X51913855Y50833333D02*
X51875760Y50909523D01*
X51875760Y50909523D02*
X51837664Y50947619D01*
X42903855Y57514285D02*
X42522902Y57780952D01*
X42903855Y57971428D02*
X42103855Y57971428D01*
X42103855Y57971428D02*
X42103855Y57666666D01*
X42103855Y57666666D02*
X42141950Y57590476D01*
X42141950Y57590476D02*
X42180045Y57552381D01*
X42180045Y57552381D02*
X42256236Y57514285D01*
X42256236Y57514285D02*
X42370521Y57514285D01*
X42370521Y57514285D02*
X42446712Y57552381D01*
X42446712Y57552381D02*
X42484807Y57590476D01*
X42484807Y57590476D02*
X42522902Y57666666D01*
X42522902Y57666666D02*
X42522902Y57971428D01*
X42103855Y57247619D02*
X42103855Y56752381D01*
X42103855Y56752381D02*
X42408617Y57019047D01*
X42408617Y57019047D02*
X42408617Y56904762D01*
X42408617Y56904762D02*
X42446712Y56828571D01*
X42446712Y56828571D02*
X42484807Y56790476D01*
X42484807Y56790476D02*
X42560998Y56752381D01*
X42560998Y56752381D02*
X42751474Y56752381D01*
X42751474Y56752381D02*
X42827664Y56790476D01*
X42827664Y56790476D02*
X42865760Y56828571D01*
X42865760Y56828571D02*
X42903855Y56904762D01*
X42903855Y56904762D02*
X42903855Y57133333D01*
X42903855Y57133333D02*
X42865760Y57209524D01*
X42865760Y57209524D02*
X42827664Y57247619D01*
X42180045Y56447619D02*
X42141950Y56409523D01*
X42141950Y56409523D02*
X42103855Y56333333D01*
X42103855Y56333333D02*
X42103855Y56142857D01*
X42103855Y56142857D02*
X42141950Y56066666D01*
X42141950Y56066666D02*
X42180045Y56028571D01*
X42180045Y56028571D02*
X42256236Y55990476D01*
X42256236Y55990476D02*
X42332426Y55990476D01*
X42332426Y55990476D02*
X42446712Y56028571D01*
X42446712Y56028571D02*
X42903855Y56485714D01*
X42903855Y56485714D02*
X42903855Y55990476D01*
X49703855Y57514285D02*
X49322902Y57780952D01*
X49703855Y57971428D02*
X48903855Y57971428D01*
X48903855Y57971428D02*
X48903855Y57666666D01*
X48903855Y57666666D02*
X48941950Y57590476D01*
X48941950Y57590476D02*
X48980045Y57552381D01*
X48980045Y57552381D02*
X49056236Y57514285D01*
X49056236Y57514285D02*
X49170521Y57514285D01*
X49170521Y57514285D02*
X49246712Y57552381D01*
X49246712Y57552381D02*
X49284807Y57590476D01*
X49284807Y57590476D02*
X49322902Y57666666D01*
X49322902Y57666666D02*
X49322902Y57971428D01*
X48903855Y56828571D02*
X48903855Y56980952D01*
X48903855Y56980952D02*
X48941950Y57057143D01*
X48941950Y57057143D02*
X48980045Y57095238D01*
X48980045Y57095238D02*
X49094331Y57171428D01*
X49094331Y57171428D02*
X49246712Y57209524D01*
X49246712Y57209524D02*
X49551474Y57209524D01*
X49551474Y57209524D02*
X49627664Y57171428D01*
X49627664Y57171428D02*
X49665760Y57133333D01*
X49665760Y57133333D02*
X49703855Y57057143D01*
X49703855Y57057143D02*
X49703855Y56904762D01*
X49703855Y56904762D02*
X49665760Y56828571D01*
X49665760Y56828571D02*
X49627664Y56790476D01*
X49627664Y56790476D02*
X49551474Y56752381D01*
X49551474Y56752381D02*
X49360998Y56752381D01*
X49360998Y56752381D02*
X49284807Y56790476D01*
X49284807Y56790476D02*
X49246712Y56828571D01*
X49246712Y56828571D02*
X49208617Y56904762D01*
X49208617Y56904762D02*
X49208617Y57057143D01*
X49208617Y57057143D02*
X49246712Y57133333D01*
X49246712Y57133333D02*
X49284807Y57171428D01*
X49284807Y57171428D02*
X49360998Y57209524D01*
X49246712Y56295238D02*
X49208617Y56371428D01*
X49208617Y56371428D02*
X49170521Y56409523D01*
X49170521Y56409523D02*
X49094331Y56447619D01*
X49094331Y56447619D02*
X49056236Y56447619D01*
X49056236Y56447619D02*
X48980045Y56409523D01*
X48980045Y56409523D02*
X48941950Y56371428D01*
X48941950Y56371428D02*
X48903855Y56295238D01*
X48903855Y56295238D02*
X48903855Y56142857D01*
X48903855Y56142857D02*
X48941950Y56066666D01*
X48941950Y56066666D02*
X48980045Y56028571D01*
X48980045Y56028571D02*
X49056236Y55990476D01*
X49056236Y55990476D02*
X49094331Y55990476D01*
X49094331Y55990476D02*
X49170521Y56028571D01*
X49170521Y56028571D02*
X49208617Y56066666D01*
X49208617Y56066666D02*
X49246712Y56142857D01*
X49246712Y56142857D02*
X49246712Y56295238D01*
X49246712Y56295238D02*
X49284807Y56371428D01*
X49284807Y56371428D02*
X49322902Y56409523D01*
X49322902Y56409523D02*
X49399093Y56447619D01*
X49399093Y56447619D02*
X49551474Y56447619D01*
X49551474Y56447619D02*
X49627664Y56409523D01*
X49627664Y56409523D02*
X49665760Y56371428D01*
X49665760Y56371428D02*
X49703855Y56295238D01*
X49703855Y56295238D02*
X49703855Y56142857D01*
X49703855Y56142857D02*
X49665760Y56066666D01*
X49665760Y56066666D02*
X49627664Y56028571D01*
X49627664Y56028571D02*
X49551474Y55990476D01*
X49551474Y55990476D02*
X49399093Y55990476D01*
X49399093Y55990476D02*
X49322902Y56028571D01*
X49322902Y56028571D02*
X49284807Y56066666D01*
X49284807Y56066666D02*
X49246712Y56142857D01*
X14313855Y41704285D02*
X13932902Y41970952D01*
X14313855Y42161428D02*
X13513855Y42161428D01*
X13513855Y42161428D02*
X13513855Y41856666D01*
X13513855Y41856666D02*
X13551950Y41780476D01*
X13551950Y41780476D02*
X13590045Y41742381D01*
X13590045Y41742381D02*
X13666236Y41704285D01*
X13666236Y41704285D02*
X13780521Y41704285D01*
X13780521Y41704285D02*
X13856712Y41742381D01*
X13856712Y41742381D02*
X13894807Y41780476D01*
X13894807Y41780476D02*
X13932902Y41856666D01*
X13932902Y41856666D02*
X13932902Y42161428D01*
X13513855Y41437619D02*
X13513855Y40942381D01*
X13513855Y40942381D02*
X13818617Y41209047D01*
X13818617Y41209047D02*
X13818617Y41094762D01*
X13818617Y41094762D02*
X13856712Y41018571D01*
X13856712Y41018571D02*
X13894807Y40980476D01*
X13894807Y40980476D02*
X13970998Y40942381D01*
X13970998Y40942381D02*
X14161474Y40942381D01*
X14161474Y40942381D02*
X14237664Y40980476D01*
X14237664Y40980476D02*
X14275760Y41018571D01*
X14275760Y41018571D02*
X14313855Y41094762D01*
X14313855Y41094762D02*
X14313855Y41323333D01*
X14313855Y41323333D02*
X14275760Y41399524D01*
X14275760Y41399524D02*
X14237664Y41437619D01*
X13513855Y40256666D02*
X13513855Y40409047D01*
X13513855Y40409047D02*
X13551950Y40485238D01*
X13551950Y40485238D02*
X13590045Y40523333D01*
X13590045Y40523333D02*
X13704331Y40599523D01*
X13704331Y40599523D02*
X13856712Y40637619D01*
X13856712Y40637619D02*
X14161474Y40637619D01*
X14161474Y40637619D02*
X14237664Y40599523D01*
X14237664Y40599523D02*
X14275760Y40561428D01*
X14275760Y40561428D02*
X14313855Y40485238D01*
X14313855Y40485238D02*
X14313855Y40332857D01*
X14313855Y40332857D02*
X14275760Y40256666D01*
X14275760Y40256666D02*
X14237664Y40218571D01*
X14237664Y40218571D02*
X14161474Y40180476D01*
X14161474Y40180476D02*
X13970998Y40180476D01*
X13970998Y40180476D02*
X13894807Y40218571D01*
X13894807Y40218571D02*
X13856712Y40256666D01*
X13856712Y40256666D02*
X13818617Y40332857D01*
X13818617Y40332857D02*
X13818617Y40485238D01*
X13818617Y40485238D02*
X13856712Y40561428D01*
X13856712Y40561428D02*
X13894807Y40599523D01*
X13894807Y40599523D02*
X13970998Y40637619D01*
%TO.C,C3*%
X18465000Y32941248D02*
X18465000Y33463752D01*
X19935000Y32941248D02*
X19935000Y33463752D01*
%TO.C,R9*%
X21857064Y39795000D02*
X21402936Y39795000D01*
X21857064Y38325000D02*
X21402936Y38325000D01*
%TO.C,R12*%
X25395000Y28032936D02*
X25395000Y28487064D01*
X26865000Y28032936D02*
X26865000Y28487064D01*
%TO.C,R8*%
X29137064Y39785000D02*
X28682936Y39785000D01*
X29137064Y38315000D02*
X28682936Y38315000D01*
%TO.C,R20*%
X42465000Y51272936D02*
X42465000Y51727064D01*
X43935000Y51272936D02*
X43935000Y51727064D01*
%TO.C,R73*%
X50265000Y28227064D02*
X50265000Y27772936D01*
X51735000Y28227064D02*
X51735000Y27772936D01*
%TO.C,R74*%
X54665000Y27772936D02*
X54665000Y28227064D01*
X56135000Y27772936D02*
X56135000Y28227064D01*
%TO.C,R35*%
X13772936Y37985000D02*
X14227064Y37985000D01*
X13772936Y36515000D02*
X14227064Y36515000D01*
%TO.C,R47*%
X41265000Y28227064D02*
X41265000Y27772936D01*
X42735000Y28227064D02*
X42735000Y27772936D01*
%TO.C,R19*%
X37465000Y51727064D02*
X37465000Y51272936D01*
X38935000Y51727064D02*
X38935000Y51272936D01*
%TO.C,R4*%
X28962936Y45175000D02*
X29417064Y45175000D01*
X28962936Y43705000D02*
X29417064Y43705000D01*
%TO.C,R17*%
X22785000Y27662936D02*
X22785000Y28117064D01*
X24255000Y27662936D02*
X24255000Y28117064D01*
%TO.C,C5*%
X4548748Y44885000D02*
X5071252Y44885000D01*
X4548748Y43415000D02*
X5071252Y43415000D01*
%TO.C,R16*%
X30545000Y27852936D02*
X30545000Y28307064D01*
X32015000Y27852936D02*
X32015000Y28307064D01*
%TO.C,U2*%
X28800000Y32500000D02*
X28800000Y35500000D01*
X31800000Y32500000D02*
X31800000Y35500000D01*
X28900000Y35850000D02*
X28570000Y36090000D01*
X28570000Y35610000D01*
X28900000Y35850000D01*
G36*
X28900000Y35850000D02*
G01*
X28570000Y35610000D01*
X28570000Y36090000D01*
X28900000Y35850000D01*
G37*
%TO.C,R5*%
X21892936Y45135000D02*
X22347064Y45135000D01*
X21892936Y43665000D02*
X22347064Y43665000D01*
%TO.C,R13*%
X17605000Y28242936D02*
X17605000Y28697064D01*
X19075000Y28242936D02*
X19075000Y28697064D01*
%TO.C,R6*%
X30552936Y42645000D02*
X31007064Y42645000D01*
X30552936Y41175000D02*
X31007064Y41175000D01*
%TO.C,R77*%
X52490000Y34537936D02*
X52490000Y34992064D01*
X53960000Y34537936D02*
X53960000Y34992064D01*
%TO.C,R18*%
X2947064Y42375000D02*
X2492936Y42375000D01*
X2947064Y40905000D02*
X2492936Y40905000D01*
%TO.C,R7*%
X23612936Y42635000D02*
X24067064Y42635000D01*
X23612936Y41165000D02*
X24067064Y41165000D01*
%TO.C,R14*%
X28225000Y27862936D02*
X28225000Y28317064D01*
X29695000Y27862936D02*
X29695000Y28317064D01*
%TO.C,U3*%
X21500000Y32500000D02*
X21500000Y35500000D01*
X24500000Y32500000D02*
X24500000Y35500000D01*
X21600000Y35850000D02*
X21270000Y36090000D01*
X21270000Y35610000D01*
X21600000Y35850000D01*
G36*
X21600000Y35850000D02*
G01*
X21270000Y35610000D01*
X21270000Y36090000D01*
X21600000Y35850000D01*
G37*
%TO.C,J7*%
D10*
X6609000Y17340000D02*
X62389000Y17340000D01*
X6609000Y14000000D02*
X6609000Y17340000D01*
X6609000Y12000000D02*
X6609000Y2660000D01*
X6609000Y2660000D02*
X62389000Y2660000D01*
X62389000Y17340000D02*
X62389000Y11500000D01*
X62389000Y2660000D02*
X62389000Y8500000D01*
D11*
X62944000Y6900000D02*
X62944000Y6900000D01*
X62944000Y6700000D02*
X62944000Y6700000D01*
X62944000Y6900000D02*
G75*
G02*
X62944000Y6700000I0J-100000D01*
G01*
X62944000Y6700000D02*
G75*
G02*
X62944000Y6900000I0J100000D01*
G01*
%TO.C,C12*%
D12*
X11418752Y45135000D02*
X10896248Y45135000D01*
X11418752Y43665000D02*
X10896248Y43665000D01*
%TO.C,R64*%
X44865000Y51727064D02*
X44865000Y51272936D01*
X46335000Y51727064D02*
X46335000Y51272936D01*
%TO.C,C2*%
X25655000Y33061248D02*
X25655000Y33583752D01*
X27125000Y33061248D02*
X27125000Y33583752D01*
%TO.C,R48*%
X45765000Y27772936D02*
X45765000Y28227064D01*
X47235000Y27772936D02*
X47235000Y28227064D01*
%TO.C,R15*%
X20185000Y27662936D02*
X20185000Y28117064D01*
X21655000Y27662936D02*
X21655000Y28117064D01*
%TO.C,R55*%
X43618500Y34378187D02*
X43618500Y34832315D01*
X45088500Y34378187D02*
X45088500Y34832315D01*
%TO.C,R65*%
X49165000Y51272936D02*
X49165000Y51727064D01*
X50635000Y51272936D02*
X50635000Y51727064D01*
%TO.C,R32*%
X40155000Y56772936D02*
X40155000Y57227064D01*
X41625000Y56772936D02*
X41625000Y57227064D01*
%TO.C,R68*%
X46955000Y56772936D02*
X46955000Y57227064D01*
X48425000Y56772936D02*
X48425000Y57227064D01*
%TO.C,R36*%
X11565000Y40962936D02*
X11565000Y41417064D01*
X13035000Y40962936D02*
X13035000Y41417064D01*
%TD*%
M02*
