%TF.GenerationSoftware,KiCad,Pcbnew,10.0.3*%
%TF.CreationDate,2026-07-10T13:44:17+09:00*%
%TF.ProjectId,ETROC_to_FPGA,4554524f-435f-4746-9f5f-465047412e6b,rev?*%
%TF.SameCoordinates,Original*%
%TF.FileFunction,Copper,L4,Bot*%
%TF.FilePolarity,Positive*%
%FSLAX46Y46*%
G04 Gerber Fmt 4.6, Leading zero omitted, Abs format (unit mm)*
G04 Created by KiCad (PCBNEW 10.0.3) date 2026-07-10 13:44:17*
%MOMM*%
%LPD*%
G01*
G04 APERTURE LIST*
G04 Aperture macros list*
%AMRoundRect*
0 Rectangle with rounded corners*
0 $1 Rounding radius*
0 $2 $3 $4 $5 $6 $7 $8 $9 X,Y pos of 4 corners*
0 Add a 4 corners polygon primitive as box body*
4,1,4,$2,$3,$4,$5,$6,$7,$8,$9,$2,$3,0*
0 Add four circle primitives for the rounded corners*
1,1,$1+$1,$2,$3*
1,1,$1+$1,$4,$5*
1,1,$1+$1,$6,$7*
1,1,$1+$1,$8,$9*
0 Add four rect primitives between the rounded corners*
20,1,$1+$1,$2,$3,$4,$5,0*
20,1,$1+$1,$4,$5,$6,$7,0*
20,1,$1+$1,$6,$7,$8,$9,0*
20,1,$1+$1,$8,$9,$2,$3,0*%
G04 Aperture macros list end*
%TA.AperFunction,ComponentPad*%
%ADD10C,5.790000*%
%TD*%
%TA.AperFunction,ComponentPad*%
%ADD11R,2.700000X2.700000*%
%TD*%
%TA.AperFunction,ComponentPad*%
%ADD12C,2.700000*%
%TD*%
%TA.AperFunction,ComponentPad*%
%ADD13R,1.700000X1.700000*%
%TD*%
%TA.AperFunction,ComponentPad*%
%ADD14C,1.700000*%
%TD*%
%TA.AperFunction,ComponentPad*%
%ADD15R,2.000000X4.000000*%
%TD*%
%TA.AperFunction,ComponentPad*%
%ADD16O,2.000000X3.300000*%
%TD*%
%TA.AperFunction,ComponentPad*%
%ADD17O,3.500000X2.000000*%
%TD*%
%TA.AperFunction,SMDPad,CuDef*%
%ADD18RoundRect,0.250000X0.475000X-0.337500X0.475000X0.337500X-0.475000X0.337500X-0.475000X-0.337500X0*%
%TD*%
%TA.AperFunction,SMDPad,CuDef*%
%ADD19RoundRect,0.250000X0.350000X0.450000X-0.350000X0.450000X-0.350000X-0.450000X0.350000X-0.450000X0*%
%TD*%
%TA.AperFunction,SMDPad,CuDef*%
%ADD20RoundRect,0.250000X0.450000X-0.350000X0.450000X0.350000X-0.450000X0.350000X-0.450000X-0.350000X0*%
%TD*%
%TA.AperFunction,SMDPad,CuDef*%
%ADD21RoundRect,0.250000X-0.450000X0.350000X-0.450000X-0.350000X0.450000X-0.350000X0.450000X0.350000X0*%
%TD*%
%TA.AperFunction,SMDPad,CuDef*%
%ADD22RoundRect,0.250000X-0.350000X-0.450000X0.350000X-0.450000X0.350000X0.450000X-0.350000X0.450000X0*%
%TD*%
%TA.AperFunction,SMDPad,CuDef*%
%ADD23RoundRect,0.250000X-0.337500X-0.475000X0.337500X-0.475000X0.337500X0.475000X-0.337500X0.475000X0*%
%TD*%
%TA.AperFunction,SMDPad,CuDef*%
%ADD24R,0.300000X1.600000*%
%TD*%
%TA.AperFunction,SMDPad,CuDef*%
%ADD25R,0.838200X1.752600*%
%TD*%
%TA.AperFunction,SMDPad,CuDef*%
%ADD26R,9.448800X8.737600*%
%TD*%
%TA.AperFunction,SMDPad,CuDef*%
%ADD27C,0.640000*%
%TD*%
%TA.AperFunction,SMDPad,CuDef*%
%ADD28RoundRect,0.250000X0.337500X0.475000X-0.337500X0.475000X-0.337500X-0.475000X0.337500X-0.475000X0*%
%TD*%
%TA.AperFunction,ViaPad*%
%ADD29C,0.600000*%
%TD*%
%TA.AperFunction,ViaPad*%
%ADD30C,1.200000*%
%TD*%
%TA.AperFunction,ViaPad*%
%ADD31C,1.000000*%
%TD*%
%TA.AperFunction,Conductor*%
%ADD32C,0.200000*%
%TD*%
%TA.AperFunction,Conductor*%
%ADD33C,0.300000*%
%TD*%
%TA.AperFunction,Conductor*%
%ADD34C,1.000000*%
%TD*%
%TA.AperFunction,Conductor*%
%ADD35C,0.150000*%
%TD*%
%TA.AperFunction,Conductor*%
%ADD36C,0.500000*%
%TD*%
G04 APERTURE END LIST*
D10*
%TO.P,U4,1,1_1*%
%TO.N,GND*%
X-14490000Y65438300D03*
%TD*%
D11*
%TO.P,J1,1,In_1*%
%TO.N,/Bias_IN*%
X-8500000Y98210000D03*
D12*
%TO.P,J1,2,Ext_2*%
%TO.N,GND*%
X-13580000Y103290000D03*
%TO.P,J1,3*%
%TO.N,N/C*%
X-13580000Y93130000D03*
%TO.P,J1,4*%
X-3420000Y93130000D03*
%TO.P,J1,5*%
X-3420000Y103290000D03*
%TD*%
D13*
%TO.P,J4,1,Pin_1_1*%
%TO.N,/3P3V*%
X-2460000Y28550000D03*
D14*
%TO.P,J4,2,Pin_2_2*%
%TO.N,/PWR_SRC*%
X-5000000Y28550000D03*
%TO.P,J4,3,Pin_3_3*%
%TO.N,/3V*%
X-7540000Y28550000D03*
%TD*%
D15*
%TO.P,J2,1*%
%TO.N,/3V*%
X-15100000Y28500000D03*
D16*
%TO.P,J2,2*%
%TO.N,GND*%
X-21100000Y28500000D03*
D17*
%TO.P,J2,MP*%
%TO.N,N/C*%
X-22100000Y33000000D03*
X-22100000Y24000000D03*
%TD*%
D13*
%TO.P,JP1,1,A_1*%
%TO.N,/Bias_IN*%
X5280000Y98160000D03*
D14*
%TO.P,JP1,2,B_2*%
%TO.N,/Bias*%
X7820000Y98160000D03*
%TD*%
D18*
%TO.P,C3,1*%
%TO.N,Net-(U3-EN)*%
X19200000Y32165000D03*
%TO.P,C3,2*%
%TO.N,GND*%
X19200000Y34240000D03*
%TD*%
D19*
%TO.P,R9,1*%
%TO.N,/1.2V*%
X22630000Y39060000D03*
%TO.P,R9,2*%
%TO.N,/SCL_WS*%
X20630000Y39060000D03*
%TD*%
D20*
%TO.P,R12,1*%
%TO.N,/2.5V*%
X26130000Y27260000D03*
%TO.P,R12,2*%
%TO.N,Net-(U2-EN)*%
X26130000Y29260000D03*
%TD*%
D19*
%TO.P,R8,1*%
%TO.N,/1.2V*%
X29910000Y39050000D03*
%TO.P,R8,2*%
%TO.N,/SCL_ETROC2*%
X27910000Y39050000D03*
%TD*%
D20*
%TO.P,R20,1*%
%TO.N,GND*%
X43200000Y50500000D03*
%TO.P,R20,2*%
%TO.N,Net-(R19-Pad1)*%
X43200000Y52500000D03*
%TD*%
D21*
%TO.P,R73,1*%
%TO.N,Net-(R73-Pad1)*%
X51000000Y29000000D03*
%TO.P,R73,2*%
%TO.N,/1.2V*%
X51000000Y27000000D03*
%TD*%
D20*
%TO.P,R74,1*%
%TO.N,GND*%
X55400000Y27000000D03*
%TO.P,R74,2*%
%TO.N,Net-(R73-Pad1)*%
X55400000Y29000000D03*
%TD*%
D22*
%TO.P,R35,1*%
%TO.N,Net-(U5-ADJ)*%
X13000000Y37250000D03*
%TO.P,R35,2*%
%TO.N,GND*%
X15000000Y37250000D03*
%TD*%
D21*
%TO.P,R47,1*%
%TO.N,Net-(R47-Pad1)*%
X42000000Y29000000D03*
%TO.P,R47,2*%
%TO.N,/1.2V*%
X42000000Y27000000D03*
%TD*%
%TO.P,R19,1*%
%TO.N,Net-(R19-Pad1)*%
X38200000Y52500000D03*
%TO.P,R19,2*%
%TO.N,/1.2V*%
X38200000Y50500000D03*
%TD*%
D22*
%TO.P,R4,1*%
%TO.N,GND*%
X28190000Y44440000D03*
%TO.P,R4,2*%
%TO.N,/1.2V*%
X30190000Y44440000D03*
%TD*%
D20*
%TO.P,R17,1*%
%TO.N,/2.5V*%
X23520000Y26890000D03*
%TO.P,R17,2*%
%TO.N,/SDA_WS_FMC*%
X23520000Y28890000D03*
%TD*%
D23*
%TO.P,C5,1*%
%TO.N,/PWR_SRC*%
X3772500Y44150000D03*
%TO.P,C5,2*%
%TO.N,GND*%
X5847500Y44150000D03*
%TD*%
D20*
%TO.P,R16,1*%
%TO.N,/2.5V*%
X31280000Y27080000D03*
%TO.P,R16,2*%
%TO.N,/SDA_ETROC2_FMC*%
X31280000Y29080000D03*
%TD*%
D24*
%TO.P,U2,1,GND_1*%
%TO.N,GND*%
X29325000Y35700000D03*
%TO.P,U2,2,VREF1_2*%
%TO.N,/1.2V*%
X29975000Y35700000D03*
%TO.P,U2,3,SCL1_3*%
%TO.N,/SCL_ETROC2*%
X30625000Y35700000D03*
%TO.P,U2,4,SDA1_4*%
%TO.N,/SDA_ETROC2*%
X31275000Y35700000D03*
%TO.P,U2,5,SDA2_5*%
%TO.N,/SDA_ETROC2_FMC*%
X31275000Y32300000D03*
%TO.P,U2,6,SCL2_6*%
%TO.N,/SCL_ETROC2_FMC*%
X30625000Y32300000D03*
%TO.P,U2,7,VREF2_7*%
%TO.N,Net-(U2-EN)*%
X29975000Y32300000D03*
%TO.P,U2,8,EN_8*%
X29325000Y32300000D03*
%TD*%
D22*
%TO.P,R5,1*%
%TO.N,GND*%
X21120000Y44400000D03*
%TO.P,R5,2*%
%TO.N,/1.2V*%
X23120000Y44400000D03*
%TD*%
D20*
%TO.P,R13,1*%
%TO.N,/2.5V*%
X18340000Y27470000D03*
%TO.P,R13,2*%
%TO.N,Net-(U3-EN)*%
X18340000Y29470000D03*
%TD*%
D22*
%TO.P,R6,1*%
%TO.N,/1.2V*%
X29780000Y41910000D03*
%TO.P,R6,2*%
%TO.N,/SDA_ETROC2*%
X31780000Y41910000D03*
%TD*%
D20*
%TO.P,R77,1,1_1*%
%TO.N,Net-(R73-Pad1)*%
X53225000Y33765000D03*
%TO.P,R77,2,2_2*%
%TO.N,Net-(R77-Pad2)*%
X53225000Y35765000D03*
%TD*%
D19*
%TO.P,R18,1*%
%TO.N,/PWR_SRC*%
X3720000Y41640000D03*
%TO.P,R18,2*%
%TO.N,Net-(U5-EN)*%
X1720000Y41640000D03*
%TD*%
D22*
%TO.P,R7,1*%
%TO.N,/1.2V*%
X22840000Y41900000D03*
%TO.P,R7,2*%
%TO.N,/SDA_WS*%
X24840000Y41900000D03*
%TD*%
D20*
%TO.P,R14,1*%
%TO.N,/2.5V*%
X28960000Y27090000D03*
%TO.P,R14,2*%
%TO.N,/SCL_ETROC2_FMC*%
X28960000Y29090000D03*
%TD*%
D25*
%TO.P,U5,1,EN_1*%
%TO.N,Net-(U5-EN)*%
X2615000Y39009100D03*
%TO.P,U5,2,VIN_2*%
%TO.N,/PWR_SRC*%
X3885000Y39009100D03*
%TO.P,U5,3,VIN_3*%
%TO.N,unconnected-(U5-VIN-Pad3)*%
X5155000Y39009100D03*
%TO.P,U5,4,GND_4*%
%TO.N,GND*%
X6425000Y39009100D03*
%TO.P,U5,5,VOUT_5*%
%TO.N,unconnected-(U5-VOUT-Pad5)*%
X7695000Y39009100D03*
%TO.P,U5,6,VOUT_6*%
%TO.N,/1.0V*%
X8965000Y39009100D03*
%TO.P,U5,7,ADJ_7*%
%TO.N,Net-(U5-ADJ)*%
X10235000Y39009100D03*
D26*
%TO.P,U5,8,EPAD_8*%
%TO.N,unconnected-(U5-EPAD-Pad8)*%
X6425000Y32875000D03*
%TD*%
D24*
%TO.P,U3,1,GND_1*%
%TO.N,GND*%
X22025000Y35700000D03*
%TO.P,U3,2,VREF1_2*%
%TO.N,/1.2V*%
X22675000Y35700000D03*
%TO.P,U3,3,SCL1_3*%
%TO.N,/SCL_WS*%
X23325000Y35700000D03*
%TO.P,U3,4,SDA1_4*%
%TO.N,/SDA_WS*%
X23975000Y35700000D03*
%TO.P,U3,5,SDA2_5*%
%TO.N,/SDA_WS_FMC*%
X23975000Y32300000D03*
%TO.P,U3,6,SCL2_6*%
%TO.N,/SCL_WS_FMC*%
X23325000Y32300000D03*
%TO.P,U3,7,VREF2_7*%
%TO.N,Net-(U3-EN)*%
X22675000Y32300000D03*
%TO.P,U3,8,EN_8*%
X22025000Y32300000D03*
%TD*%
D27*
%TO.P,J7,C1,C1_C1*%
%TO.N,GND*%
X59265000Y6825000D03*
%TO.P,J7,C2,C2_C2*%
%TO.N,unconnected-(J7-PadC2)*%
X57995000Y6825000D03*
%TO.P,J7,C3,C3_C3*%
%TO.N,unconnected-(J7-PadC3)*%
X56725000Y6825000D03*
%TO.P,J7,C4,C4_C4*%
%TO.N,GND*%
X55455000Y6825000D03*
%TO.P,J7,C5,C5_C5*%
X54185000Y6825000D03*
%TO.P,J7,C6,C6_C6*%
%TO.N,unconnected-(J7-PadC6)*%
X52915000Y6825000D03*
%TO.P,J7,C7,C7_C7*%
%TO.N,unconnected-(J7-PadC7)*%
X51645000Y6825000D03*
%TO.P,J7,C8,C8_C8*%
%TO.N,GND*%
X50375000Y6825000D03*
%TO.P,J7,C9,C9_C9*%
X49105000Y6825000D03*
%TO.P,J7,C10,C10_C10*%
%TO.N,unconnected-(J7-PadC10)*%
X47835000Y6825000D03*
%TO.P,J7,C11,C11_C11*%
%TO.N,unconnected-(J7-PadC11)*%
X46565000Y6825000D03*
%TO.P,J7,C12,C12_C12*%
%TO.N,GND*%
X45295000Y6825000D03*
%TO.P,J7,C13,C13_C13*%
X44025000Y6825000D03*
%TO.P,J7,C14,C14_C14*%
%TO.N,unconnected-(J7-PadC14)*%
X42755000Y6825000D03*
%TO.P,J7,C15,C15_C15*%
%TO.N,unconnected-(J7-PadC15)*%
X41485000Y6825000D03*
%TO.P,J7,C16,C16_C16*%
%TO.N,GND*%
X40215000Y6825000D03*
%TO.P,J7,C17,C17_C17*%
X38945000Y6825000D03*
%TO.P,J7,C18,C18_C18*%
%TO.N,unconnected-(J7-PadC18)*%
X37675000Y6825000D03*
%TO.P,J7,C19,C19_C19*%
%TO.N,unconnected-(J7-PadC19)*%
X36405000Y6825000D03*
%TO.P,J7,C20,C20_C20*%
%TO.N,GND*%
X35135000Y6825000D03*
%TO.P,J7,C21,C21_C21*%
X33865000Y6825000D03*
%TO.P,J7,C22,C22_C22*%
%TO.N,/CLK40_a_P*%
X32595000Y6825000D03*
%TO.P,J7,C23,C23_C23*%
%TO.N,/CLK40_a_N*%
X31325000Y6825000D03*
%TO.P,J7,C24,C24_C24*%
%TO.N,GND*%
X30055000Y6825000D03*
%TO.P,J7,C25,C25_C25*%
X28785000Y6825000D03*
%TO.P,J7,C26,C26_C26*%
%TO.N,/RSTn*%
X27515000Y6825000D03*
%TO.P,J7,C27,C27_C27*%
%TO.N,unconnected-(J7-PadC27)*%
X26245000Y6825000D03*
%TO.P,J7,C28,C28_C28*%
%TO.N,GND*%
X24975000Y6825000D03*
%TO.P,J7,C29,C29_C29*%
X23705000Y6825000D03*
%TO.P,J7,C30,C30_C30*%
%TO.N,unconnected-(J7-PadC30)*%
X22435000Y6825000D03*
%TO.P,J7,C31,C31_C31*%
%TO.N,unconnected-(J7-PadC31)*%
X21165000Y6825000D03*
%TO.P,J7,C32,C32_C32*%
%TO.N,GND*%
X19895000Y6825000D03*
%TO.P,J7,C33,C33_C33*%
X18625000Y6825000D03*
%TO.P,J7,C34,C34_C34*%
%TO.N,unconnected-(J7-PadC34)*%
X17355000Y6825000D03*
%TO.P,J7,C35,C35_C35*%
%TO.N,unconnected-(J7-PadC35)*%
X16085000Y6825000D03*
%TO.P,J7,C36,C36_C36*%
%TO.N,GND*%
X14815000Y6825000D03*
%TO.P,J7,C37,C37_C37*%
%TO.N,unconnected-(J7-PadC37)*%
X13545000Y6825000D03*
%TO.P,J7,C38,C38_C38*%
%TO.N,GND*%
X12275000Y6825000D03*
%TO.P,J7,C39,C39_C39*%
%TO.N,/3P3V*%
X11005000Y6825000D03*
%TO.P,J7,C40,C40_C40*%
%TO.N,GND*%
X9735000Y6825000D03*
%TO.P,J7,D1,D1_D1*%
%TO.N,unconnected-(J7-PadD1)*%
X59265000Y8095000D03*
%TO.P,J7,D2,D2_D2*%
%TO.N,GND*%
X57995000Y8095000D03*
%TO.P,J7,D3,D3_D3*%
X56725000Y8095000D03*
%TO.P,J7,D4,D4_D4*%
%TO.N,unconnected-(J7-PadD4)*%
X55455000Y8095000D03*
%TO.P,J7,D5,D5_D5*%
%TO.N,unconnected-(J7-PadD5)*%
X54185000Y8095000D03*
%TO.P,J7,D6,D6_D6*%
%TO.N,GND*%
X52915000Y8095000D03*
%TO.P,J7,D7,D7_D7*%
X51645000Y8095000D03*
%TO.P,J7,D8,D8_D8*%
%TO.N,unconnected-(J7-PadD8)*%
X50375000Y8095000D03*
%TO.P,J7,D9,D9_D9*%
%TO.N,unconnected-(J7-PadD9)*%
X49105000Y8095000D03*
%TO.P,J7,D10,D10_D10*%
%TO.N,GND*%
X47835000Y8095000D03*
%TO.P,J7,D11,D11_D11*%
%TO.N,unconnected-(J7-PadD11)*%
X46565000Y8095000D03*
%TO.P,J7,D12,D12_D12*%
%TO.N,unconnected-(J7-PadD12)*%
X45295000Y8095000D03*
%TO.P,J7,D13,D13_D13*%
%TO.N,GND*%
X44025000Y8095000D03*
%TO.P,J7,D14,D14_D14*%
%TO.N,unconnected-(J7-PadD14)*%
X42755000Y8095000D03*
%TO.P,J7,D15,D15_D15*%
%TO.N,unconnected-(J7-PadD15)*%
X41485000Y8095000D03*
%TO.P,J7,D16,D16_D16*%
%TO.N,GND*%
X40215000Y8095000D03*
%TO.P,J7,D17,D17_D17*%
%TO.N,unconnected-(J7-PadD17)*%
X38945000Y8095000D03*
%TO.P,J7,D18,D18_D18*%
%TO.N,unconnected-(J7-PadD18)*%
X37675000Y8095000D03*
%TO.P,J7,D19,D19_D19*%
%TO.N,GND*%
X36405000Y8095000D03*
%TO.P,J7,D20,D20_D20*%
%TO.N,unconnected-(J7-PadD20)*%
X35135000Y8095000D03*
%TO.P,J7,D21,D21_D21*%
%TO.N,unconnected-(J7-PadD21)*%
X33865000Y8095000D03*
%TO.P,J7,D22,D22_D22*%
%TO.N,GND*%
X32595000Y8095000D03*
%TO.P,J7,D23,D23_D23*%
%TO.N,unconnected-(J7-PadD23)*%
X31325000Y8095000D03*
%TO.P,J7,D24,D24_D24*%
%TO.N,unconnected-(J7-PadD24)*%
X30055000Y8095000D03*
%TO.P,J7,D25,D25_D25*%
%TO.N,GND*%
X28785000Y8095000D03*
%TO.P,J7,D26,D26_D26*%
%TO.N,/RST_WS*%
X27515000Y8095000D03*
%TO.P,J7,D27,D27_D27*%
%TO.N,unconnected-(J7-PadD27)*%
X26245000Y8095000D03*
%TO.P,J7,D28,D28_D28*%
%TO.N,GND*%
X24975000Y8095000D03*
%TO.P,J7,D29,D29_D29*%
%TO.N,unconnected-(J7-PadD29)*%
X23705000Y8095000D03*
%TO.P,J7,D30,D30_D30*%
%TO.N,unconnected-(J7-PadD30)*%
X22435000Y8095000D03*
%TO.P,J7,D31,D31_D31*%
%TO.N,unconnected-(J7-PadD31)*%
X21165000Y8095000D03*
%TO.P,J7,D32,D32_D32*%
%TO.N,unconnected-(J7-PadD32)*%
X19895000Y8095000D03*
%TO.P,J7,D33,D33_D33*%
%TO.N,unconnected-(J7-PadD33)*%
X18625000Y8095000D03*
%TO.P,J7,D34,D34_D34*%
%TO.N,unconnected-(J7-PadD34)*%
X17355000Y8095000D03*
%TO.P,J7,D35,D35_D35*%
%TO.N,unconnected-(J7-PadD35)*%
X16085000Y8095000D03*
%TO.P,J7,D36,D36_D36*%
%TO.N,/3P3V*%
X14815000Y8095000D03*
%TO.P,J7,D37,D37_D37*%
%TO.N,GND*%
X13545000Y8095000D03*
%TO.P,J7,D38,D38_D38*%
%TO.N,/3P3V*%
X12275000Y8095000D03*
%TO.P,J7,D39,D39_D39*%
%TO.N,GND*%
X11005000Y8095000D03*
%TO.P,J7,D40,D40_D40*%
%TO.N,/3P3V*%
X9735000Y8095000D03*
%TO.P,J7,G1,G1_G1*%
%TO.N,GND*%
X59265000Y11905000D03*
%TO.P,J7,G2,G2_G2*%
%TO.N,unconnected-(J7-PadG2)*%
X57995000Y11905000D03*
%TO.P,J7,G3,G3_G3*%
%TO.N,unconnected-(J7-PadG3)*%
X56725000Y11905000D03*
%TO.P,J7,G4,G4_G4*%
%TO.N,GND*%
X55455000Y11905000D03*
%TO.P,J7,G5,G5_G5*%
X54185000Y11905000D03*
%TO.P,J7,G6,G6_G6*%
%TO.N,unconnected-(J7-PadG6)*%
X52915000Y11905000D03*
%TO.P,J7,G7,G7_G7*%
%TO.N,unconnected-(J7-PadG7)*%
X51645000Y11905000D03*
%TO.P,J7,G8,G8_G8*%
%TO.N,GND*%
X50375000Y11905000D03*
%TO.P,J7,G9,G9_G9*%
%TO.N,unconnected-(J7-PadG9)*%
X49105000Y11905000D03*
%TO.P,J7,G10,G10_G10*%
%TO.N,unconnected-(J7-PadG10)*%
X47835000Y11905000D03*
%TO.P,J7,G11,G11_G11*%
%TO.N,GND*%
X46565000Y11905000D03*
%TO.P,J7,G12,G12_G12*%
%TO.N,unconnected-(J7-PadG12)*%
X45295000Y11905000D03*
%TO.P,J7,G13,G13_G13*%
%TO.N,unconnected-(J7-PadG13)*%
X44025000Y11905000D03*
%TO.P,J7,G14,G14_G14*%
%TO.N,GND*%
X42755000Y11905000D03*
%TO.P,J7,G15,G15_G15*%
%TO.N,/I2C_ETR_ADD4*%
X41485000Y11905000D03*
%TO.P,J7,G16,G16_G16*%
%TO.N,unconnected-(J7-PadG16)*%
X40215000Y11905000D03*
%TO.P,J7,G17,G17_G17*%
%TO.N,GND*%
X38945000Y11905000D03*
%TO.P,J7,G18,G18_G18*%
%TO.N,/I2C_ETR_ADD3*%
X37675000Y11905000D03*
%TO.P,J7,G19,G19_G19*%
%TO.N,unconnected-(J7-PadG19)*%
X36405000Y11905000D03*
%TO.P,J7,G20,G20_G20*%
%TO.N,GND*%
X35135000Y11905000D03*
%TO.P,J7,G21,G21_G21*%
%TO.N,/I2C_ETR_ADD2*%
X33865000Y11905000D03*
%TO.P,J7,G22,G22_G22*%
%TO.N,unconnected-(J7-PadG22)*%
X32595000Y11905000D03*
%TO.P,J7,G23,G23_G23*%
%TO.N,GND*%
X31325000Y11905000D03*
%TO.P,J7,G24,G24_G24*%
%TO.N,/I2C_ETR_ADD1*%
X30055000Y11905000D03*
%TO.P,J7,G25,G25_G25*%
%TO.N,unconnected-(J7-PadG25)*%
X28785000Y11905000D03*
%TO.P,J7,G26,G26_G26*%
%TO.N,GND*%
X27515000Y11905000D03*
%TO.P,J7,G27,G27_G27*%
%TO.N,/I2C_ETR_ADD0*%
X26245000Y11905000D03*
%TO.P,J7,G28,G28_G28*%
%TO.N,unconnected-(J7-PadG28)*%
X24975000Y11905000D03*
%TO.P,J7,G29,G29_G29*%
%TO.N,GND*%
X23705000Y11905000D03*
%TO.P,J7,G30,G30_G30*%
%TO.N,/I2C_WS_ADD0*%
X22435000Y11905000D03*
%TO.P,J7,G31,G31_G31*%
%TO.N,unconnected-(J7-PadG31)*%
X21165000Y11905000D03*
%TO.P,J7,G32,G32_G32*%
%TO.N,GND*%
X19895000Y11905000D03*
%TO.P,J7,G33,G33_G33*%
%TO.N,/I2C_WS_ADD1*%
X18625000Y11905000D03*
%TO.P,J7,G34,G34_G34*%
%TO.N,unconnected-(J7-PadG34)*%
X17355000Y11905000D03*
%TO.P,J7,G35,G35_G35*%
%TO.N,GND*%
X16085000Y11905000D03*
%TO.P,J7,G36,G36_G36*%
%TO.N,/I2C_WS_ADD2*%
X14815000Y11905000D03*
%TO.P,J7,G37,G37_G37*%
%TO.N,unconnected-(J7-PadG37)*%
X13545000Y11905000D03*
%TO.P,J7,G38,G38_G38*%
%TO.N,GND*%
X12275000Y11905000D03*
%TO.P,J7,G39,G39_G39*%
%TO.N,unconnected-(J7-PadG39)*%
X11005000Y11905000D03*
%TO.P,J7,G40,G40_G40*%
%TO.N,GND*%
X9735000Y11905000D03*
%TO.P,J7,H1,H1_H1*%
%TO.N,unconnected-(J7-PadH1)*%
X59265000Y13175000D03*
%TO.P,J7,H2,H2_H2*%
%TO.N,unconnected-(J7-PadH2)*%
X57995000Y13175000D03*
%TO.P,J7,H3,H3_H3*%
%TO.N,GND*%
X56725000Y13175000D03*
%TO.P,J7,H4,H4_H4*%
%TO.N,unconnected-(J7-PadH4)*%
X55455000Y13175000D03*
%TO.P,J7,H5,H5_H5*%
%TO.N,unconnected-(J7-PadH5)*%
X54185000Y13175000D03*
%TO.P,J7,H6,H6_H6*%
%TO.N,GND*%
X52915000Y13175000D03*
%TO.P,J7,H7,H7_H7*%
%TO.N,/DOR_a_P*%
X51645000Y13175000D03*
%TO.P,J7,H8,H8_H8*%
%TO.N,/DOR_a_N*%
X50375000Y13175000D03*
%TO.P,J7,H9,H9_H9*%
%TO.N,GND*%
X49105000Y13175000D03*
%TO.P,J7,H10,H10_H10*%
%TO.N,/DOL_a_P*%
X47835000Y13175000D03*
%TO.P,J7,H11,H11_H11*%
%TO.N,/DOL_a_N*%
X46565000Y13175000D03*
%TO.P,J7,H12,H12_H12*%
%TO.N,GND*%
X45295000Y13175000D03*
%TO.P,J7,H13,H13_H13*%
%TO.N,/FC_a_P*%
X44025000Y13175000D03*
%TO.P,J7,H14,H14_H14*%
%TO.N,/FC_a_N*%
X42755000Y13175000D03*
%TO.P,J7,H15,H15_H15*%
%TO.N,GND*%
X41485000Y13175000D03*
%TO.P,J7,H16,H16_H16*%
%TO.N,unconnected-(J7-PadH16)*%
X40215000Y13175000D03*
%TO.P,J7,H17,H17_H17*%
%TO.N,unconnected-(J7-PadH17)*%
X38945000Y13175000D03*
%TO.P,J7,H18,H18_H18*%
%TO.N,GND*%
X37675000Y13175000D03*
%TO.P,J7,H19,H19_H19*%
%TO.N,unconnected-(J7-PadH19)*%
X36405000Y13175000D03*
%TO.P,J7,H20,H20_H20*%
%TO.N,unconnected-(J7-PadH20)*%
X35135000Y13175000D03*
%TO.P,J7,H21,H21_H21*%
%TO.N,GND*%
X33865000Y13175000D03*
%TO.P,J7,H22,H22_H22*%
%TO.N,/SDA_ETROC2_FMC*%
X32595000Y13175000D03*
%TO.P,J7,H23,H23_H23*%
%TO.N,unconnected-(J7-PadH23)*%
X31325000Y13175000D03*
%TO.P,J7,H24,H24_H24*%
%TO.N,GND*%
X30055000Y13175000D03*
%TO.P,J7,H25,H25_H25*%
%TO.N,/SCL_ETROC2_FMC*%
X28785000Y13175000D03*
%TO.P,J7,H26,H26_H26*%
%TO.N,unconnected-(J7-PadH26)*%
X27515000Y13175000D03*
%TO.P,J7,H27,H27_H27*%
%TO.N,GND*%
X26245000Y13175000D03*
%TO.P,J7,H28,H28_H28*%
%TO.N,/SDA_WS_FMC*%
X24975000Y13175000D03*
%TO.P,J7,H29,H29_H29*%
%TO.N,unconnected-(J7-PadH29)*%
X23705000Y13175000D03*
%TO.P,J7,H30,H30_H30*%
%TO.N,GND*%
X22435000Y13175000D03*
%TO.P,J7,H31,H31_H31*%
%TO.N,/SCL_WS_FMC*%
X21165000Y13175000D03*
%TO.P,J7,H32,H32_H32*%
%TO.N,unconnected-(J7-PadH32)*%
X19895000Y13175000D03*
%TO.P,J7,H33,H33_H33*%
%TO.N,GND*%
X18625000Y13175000D03*
%TO.P,J7,H34,H34_H34*%
%TO.N,/I2C_WS_ADD3*%
X17355000Y13175000D03*
%TO.P,J7,H35,H35_H35*%
%TO.N,unconnected-(J7-PadH35)*%
X16085000Y13175000D03*
%TO.P,J7,H36,H36_H36*%
%TO.N,GND*%
X14815000Y13175000D03*
%TO.P,J7,H37,H37_H37*%
%TO.N,/I2C_WS_ADD4*%
X13545000Y13175000D03*
%TO.P,J7,H38,H38_H38*%
%TO.N,unconnected-(J7-PadH38)*%
X12275000Y13175000D03*
%TO.P,J7,H39,H39_H39*%
%TO.N,GND*%
X11005000Y13175000D03*
%TO.P,J7,H40,H40_H40*%
%TO.N,/2.5V*%
X9735000Y13175000D03*
%TD*%
D28*
%TO.P,C12,1*%
%TO.N,/1.0V*%
X12195000Y44400000D03*
%TO.P,C12,2*%
%TO.N,GND*%
X10120000Y44400000D03*
%TD*%
D21*
%TO.P,R64,1*%
%TO.N,Net-(R64-Pad1)*%
X45600000Y52500000D03*
%TO.P,R64,2*%
%TO.N,/1.2V*%
X45600000Y50500000D03*
%TD*%
D18*
%TO.P,C2,1*%
%TO.N,Net-(U2-EN)*%
X26390000Y32285000D03*
%TO.P,C2,2*%
%TO.N,GND*%
X26390000Y34360000D03*
%TD*%
D20*
%TO.P,R48,1*%
%TO.N,GND*%
X46500000Y27000000D03*
%TO.P,R48,2*%
%TO.N,Net-(R47-Pad1)*%
X46500000Y29000000D03*
%TD*%
%TO.P,R15,1*%
%TO.N,/2.5V*%
X20920000Y26890000D03*
%TO.P,R15,2*%
%TO.N,/SCL_WS_FMC*%
X20920000Y28890000D03*
%TD*%
%TO.P,R55,1,1_1*%
%TO.N,Net-(R47-Pad1)*%
X44353500Y33605251D03*
%TO.P,R55,2,2_2*%
%TO.N,Net-(R55-Pad2)*%
X44353500Y35605251D03*
%TD*%
%TO.P,R65,1*%
%TO.N,GND*%
X49900000Y50500000D03*
%TO.P,R65,2*%
%TO.N,Net-(R64-Pad1)*%
X49900000Y52500000D03*
%TD*%
%TO.P,R32,1,1_1*%
%TO.N,Net-(R19-Pad1)*%
X40890000Y56000000D03*
%TO.P,R32,2,2_2*%
%TO.N,Net-(R32-Pad2)*%
X40890000Y58000000D03*
%TD*%
%TO.P,R68,1,1_1*%
%TO.N,Net-(R64-Pad1)*%
X47690000Y56000000D03*
%TO.P,R68,2,2_2*%
%TO.N,Net-(R68-Pad2)*%
X47690000Y58000000D03*
%TD*%
%TO.P,R36,1*%
%TO.N,Net-(U5-ADJ)*%
X12300000Y40190000D03*
%TO.P,R36,2*%
%TO.N,/1.0V*%
X12300000Y42190000D03*
%TD*%
D29*
%TO.N,GND*%
X21600000Y37300000D03*
X23655000Y5615000D03*
X27140000Y35890000D03*
D30*
X-18800000Y28475000D03*
D29*
X55780000Y68740000D03*
X29500000Y69470000D03*
X48950000Y101270000D03*
X16750000Y71650000D03*
X36390000Y9140000D03*
X49730000Y71710000D03*
X35250000Y100750000D03*
X7390000Y44150000D03*
D31*
X-13570000Y106862446D03*
D29*
X-20175000Y55975000D03*
X28160000Y46130000D03*
X-10600000Y65550000D03*
X50360000Y10820000D03*
X26250000Y100737000D03*
X47860000Y9180000D03*
X30100000Y14300000D03*
X34220000Y103760000D03*
X41920000Y71720000D03*
X26750000Y101237000D03*
X44010000Y5670000D03*
X56700000Y14300000D03*
X55500000Y10800000D03*
X34910000Y69370000D03*
X21750000Y100737000D03*
X27520000Y69490000D03*
X45325000Y5750000D03*
X31330000Y10840000D03*
X48250000Y100750000D03*
X51790000Y71590000D03*
X59010000Y65470000D03*
X21720000Y71590000D03*
X51800000Y9100000D03*
X33860000Y5790000D03*
X50720000Y71670000D03*
X37600000Y69460000D03*
X40220000Y9180000D03*
X36750000Y101250000D03*
X47750000Y101250000D03*
X10100000Y45990000D03*
X34310000Y101290000D03*
X49200000Y5875000D03*
X11940000Y14350000D03*
X36250000Y100750000D03*
X42800000Y71680000D03*
X28740000Y9010000D03*
X50600000Y5950000D03*
X37550000Y14330000D03*
X40250000Y71830000D03*
X33990000Y69400000D03*
X12290000Y10930000D03*
X-8400000Y53775000D03*
X47250000Y100750000D03*
X45750000Y101250000D03*
X33250000Y103750000D03*
X45270000Y14210000D03*
X37750000Y101250000D03*
X25560000Y72340000D03*
X41700000Y14390000D03*
X28350000Y71530000D03*
X-15230000Y44880000D03*
X43770000Y71750000D03*
X53000000Y9100000D03*
X57010000Y26960000D03*
X29180000Y71500000D03*
X28900000Y37200000D03*
X-14375000Y61525000D03*
X54200000Y10800000D03*
X33130000Y9020000D03*
X21140000Y45950000D03*
X51390000Y50540000D03*
X28570000Y69470000D03*
X27520000Y10900000D03*
X55260000Y69430000D03*
X28755000Y5715000D03*
X38750000Y101250000D03*
X15250000Y102500000D03*
X57990000Y9210000D03*
X30250000Y101237000D03*
X54750000Y68780000D03*
X34290000Y14160000D03*
X48550000Y27000000D03*
X-14525000Y69300000D03*
X18555000Y5615000D03*
X19890000Y10760000D03*
X55355000Y5655000D03*
X59300000Y5700000D03*
X22720000Y71540000D03*
X-17440000Y62538300D03*
X46750000Y101250000D03*
X46420000Y10780000D03*
X38250000Y100750000D03*
X-22104550Y39900000D03*
X-8275000Y57650000D03*
X36760000Y71610000D03*
X16820000Y34290000D03*
X-17540000Y68438300D03*
X42790000Y10910000D03*
X25010000Y9050000D03*
X27250000Y100737000D03*
X30000000Y5700000D03*
X59300000Y10900000D03*
X6490000Y40820000D03*
X25550000Y71580000D03*
X16510000Y37250000D03*
X21250000Y101237000D03*
X24955000Y5615000D03*
X12255000Y5715000D03*
X34770000Y71570000D03*
X35200000Y5730000D03*
X54110000Y5670000D03*
X54220000Y69410000D03*
X34520000Y11110000D03*
X9750000Y10900000D03*
X22400000Y14355000D03*
X38940000Y10820000D03*
X22250000Y101237000D03*
X49100000Y14200000D03*
X15400000Y14000000D03*
X9655000Y5715000D03*
X52900000Y14300000D03*
X41100000Y71750000D03*
X36720000Y69450000D03*
X43110000Y46540000D03*
X-14260000Y46300000D03*
X27650000Y71740000D03*
X-8350000Y56050000D03*
X33930000Y71610000D03*
X51260000Y72310000D03*
X-28370000Y36670000D03*
X-18375000Y65500000D03*
X23730000Y10810000D03*
X42250000Y101250000D03*
X41750000Y100750000D03*
X14755000Y5615000D03*
X44760000Y71690000D03*
X20740000Y71530000D03*
X38910000Y5670000D03*
X20750000Y100737000D03*
X19855000Y5615000D03*
X40155000Y5655000D03*
X-11640000Y62538300D03*
X35750000Y101250000D03*
X-11640000Y68338300D03*
X37250000Y100750000D03*
X44010000Y9160000D03*
X56745000Y9225000D03*
X48760000Y71710000D03*
X-20175000Y57375000D03*
X-3882500Y45660000D03*
%TO.N,/FC_a_P*%
X39700000Y19531500D03*
%TO.N,Net-(R77-Pad2)*%
X53210000Y38550000D03*
D31*
%TO.N,/PWR_SRC*%
X350000Y44130000D03*
D29*
%TO.N,/CLK40_a_N*%
X34082951Y38126000D03*
%TO.N,/DOR_a_P*%
X55350000Y20808500D03*
%TO.N,Net-(R32-Pad2)*%
X40830000Y62030000D03*
%TO.N,/DOR_a_N*%
X55350000Y21611500D03*
%TO.N,Net-(R73-Pad1)*%
X53980000Y27940000D03*
X52430000Y27980000D03*
%TO.N,/DOL_a_N*%
X50360000Y21651500D03*
%TO.N,Net-(R64-Pad1)*%
X48480000Y51420000D03*
X47040000Y51460000D03*
%TO.N,/DOL_a_P*%
X50360000Y20848500D03*
%TO.N,/1.2V*%
X39440000Y69470000D03*
X44750000Y104250000D03*
X19750000Y104131500D03*
X46740000Y71740000D03*
X20250000Y103631500D03*
X30330000Y72390000D03*
X41250000Y103881500D03*
X17250000Y103631500D03*
X53430000Y71620000D03*
X29720000Y46210000D03*
X45510000Y46510000D03*
X25600000Y69390000D03*
X22220000Y69360000D03*
X39430000Y71570000D03*
X19250000Y103631500D03*
X24250000Y104131500D03*
X23680000Y71620000D03*
X32580000Y69460000D03*
X32400000Y71680000D03*
X22750000Y103631500D03*
X18750000Y104131500D03*
X39250000Y103881500D03*
X42750000Y104250000D03*
X18250000Y103631500D03*
X30280000Y71630000D03*
X43750000Y104250000D03*
X23750000Y103631500D03*
D31*
X-11664100Y40854100D03*
D29*
X40250000Y103881500D03*
X45760000Y71710000D03*
X16750000Y104131500D03*
X47790000Y71720000D03*
X45250000Y103750000D03*
X17750000Y104131500D03*
X54220000Y71610000D03*
X38420000Y69490000D03*
X44250000Y103750000D03*
X24750000Y103631500D03*
X43250000Y103750000D03*
X25850000Y103560000D03*
X37620000Y71600000D03*
X39750000Y104381500D03*
X38510000Y71590000D03*
X49300000Y26290000D03*
X40750000Y104381500D03*
X30750000Y103750000D03*
X52700000Y71650000D03*
X36880000Y49140000D03*
X23100000Y46080000D03*
X40360000Y27040000D03*
X21220000Y69440000D03*
X17600000Y71590000D03*
X23250000Y104131500D03*
X25250000Y104131500D03*
%TO.N,/1.0V*%
X22380000Y57800000D03*
X6790000Y50700000D03*
%TO.N,Net-(R47-Pad1)*%
X43440000Y28010000D03*
X45060000Y27980000D03*
%TO.N,/I2C_WS_ADD4*%
X13520000Y14390000D03*
%TO.N,/I2C_WS_ADD3*%
X17290000Y14490000D03*
%TO.N,/I2C_WS_ADD2*%
X15470000Y10810000D03*
%TO.N,/I2C_WS_ADD1*%
X18840000Y10820000D03*
%TO.N,/I2C_WS_ADD0*%
X21890000Y10710000D03*
%TO.N,/SCL_WS*%
X23500000Y68931500D03*
%TO.N,/SDA_WS*%
X24300000Y68931500D03*
%TO.N,/RST_WS*%
X22840000Y9700000D03*
X24730000Y71600000D03*
X11010000Y70790000D03*
%TO.N,/CLK40_a_P*%
X34082951Y38929000D03*
%TO.N,Net-(R19-Pad1)*%
X39910000Y51510000D03*
X41750000Y51440000D03*
%TO.N,/FC_a_N*%
X39700000Y18728500D03*
%TO.N,/I2C_ETR_ADD0*%
X26270000Y46630000D03*
X26300000Y80310000D03*
X26270000Y10290000D03*
%TO.N,/I2C_ETR_ADD1*%
X30990000Y46600000D03*
X30080000Y10660000D03*
X30450000Y80350000D03*
%TO.N,/I2C_ETR_ADD2*%
X33150000Y80270000D03*
%TO.N,/RSTn*%
X8620000Y73860000D03*
X28810000Y104480000D03*
X8560000Y4630000D03*
%TO.N,/SCL_ETROC2*%
X31150000Y101100000D03*
%TO.N,/SDA_ETROC2*%
X31800000Y100200000D03*
%TO.N,/I2C_ETR_ADD3*%
X38300000Y16290000D03*
X35530000Y80310000D03*
X37680000Y10780000D03*
%TO.N,/I2C_ETR_ADD4*%
X36150000Y81000000D03*
%TO.N,Net-(R68-Pad2)*%
X47700000Y62030000D03*
%TO.N,Net-(R55-Pad2)*%
X44340000Y38570000D03*
%TO.N,/2.5V*%
X26940000Y23790000D03*
X30170000Y23870000D03*
%TO.N,/SDA_WS_FMC*%
X24975000Y21560000D03*
X24790000Y30710000D03*
%TO.N,/SCL_WS_FMC*%
X21890000Y30600000D03*
X21165000Y22500000D03*
%TD*%
%TO.N,GND*%
D32*
X12300000Y5760000D02*
X12255000Y5715000D01*
X22025000Y35700000D02*
X22025000Y36875000D01*
X55400000Y6780000D02*
X55400000Y5700000D01*
X44025000Y8095000D02*
X44025000Y9145000D01*
X15000000Y37250000D02*
X16510000Y37250000D01*
X25000000Y5660000D02*
X24955000Y5615000D01*
D33*
X5847500Y44150000D02*
X7390000Y44150000D01*
D32*
X28785000Y8965000D02*
X28740000Y9010000D01*
X37675000Y14205000D02*
X37550000Y14330000D01*
X30055000Y13175000D02*
X30055000Y14255000D01*
X52915000Y8095000D02*
X52915000Y9015000D01*
X49105000Y13175000D02*
X49105000Y14195000D01*
X13545000Y8095000D02*
X14815000Y6825000D01*
X26390000Y35140000D02*
X27140000Y35890000D01*
X38955000Y6795000D02*
X38955000Y5715000D01*
X50375000Y11905000D02*
X50375000Y10835000D01*
X28190000Y46100000D02*
X28160000Y46130000D01*
X30045000Y6825000D02*
X30045000Y5745000D01*
X43200000Y46630000D02*
X43110000Y46540000D01*
X46500000Y27000000D02*
X48550000Y27000000D01*
X14815000Y13415000D02*
X15400000Y14000000D01*
X23705000Y11905000D02*
X23705000Y10835000D01*
X23700000Y5660000D02*
X23655000Y5615000D01*
X23700000Y6740000D02*
X23700000Y5660000D01*
X46565000Y10925000D02*
X46420000Y10780000D01*
X54185000Y10815000D02*
X54200000Y10800000D01*
X19895000Y10765000D02*
X19890000Y10760000D01*
X45295000Y14185000D02*
X45270000Y14210000D01*
X19900000Y5660000D02*
X19855000Y5615000D01*
X23705000Y10835000D02*
X23730000Y10810000D01*
X33865000Y13735000D02*
X34290000Y14160000D01*
X37675000Y13175000D02*
X37675000Y14205000D01*
X49900000Y50500000D02*
X51350000Y50500000D01*
X35135000Y11905000D02*
X35135000Y11725000D01*
X59265000Y5735000D02*
X59300000Y5700000D01*
X38955000Y5715000D02*
X38910000Y5670000D01*
X38945000Y10825000D02*
X38940000Y10820000D01*
X59265000Y11905000D02*
X59265000Y10935000D01*
X45295000Y6825000D02*
X45295000Y5780000D01*
X31325000Y11905000D02*
X31405000Y11905000D01*
X31325000Y11905000D02*
X31325000Y10845000D01*
X56700000Y8100000D02*
X56700000Y9180000D01*
X18625000Y13175000D02*
X19895000Y11905000D01*
X12275000Y11905000D02*
X12275000Y10945000D01*
X44055000Y5715000D02*
X44010000Y5670000D01*
X19900000Y6740000D02*
X19900000Y5660000D01*
X51645000Y8095000D02*
X51645000Y8945000D01*
X21120000Y45930000D02*
X21140000Y45950000D01*
X46565000Y11905000D02*
X46565000Y10925000D01*
X40215000Y8095000D02*
X40215000Y9175000D01*
X32595000Y8095000D02*
X32595000Y8485000D01*
X40200000Y6780000D02*
X40200000Y5700000D01*
X41485000Y14175000D02*
X41700000Y14390000D01*
X40200000Y5700000D02*
X40155000Y5655000D01*
X49105000Y5970000D02*
X49200000Y5875000D01*
X27515000Y10905000D02*
X27520000Y10900000D01*
X11005000Y8095000D02*
X9735000Y6825000D01*
X55400000Y5700000D02*
X55355000Y5655000D01*
X24975000Y9015000D02*
X25010000Y9050000D01*
X9700000Y6840000D02*
X9700000Y5760000D01*
X35135000Y6825000D02*
X35135000Y5795000D01*
X28800000Y6840000D02*
X28800000Y5760000D01*
X29325000Y35700000D02*
X29325000Y36775000D01*
X9735000Y10915000D02*
X9750000Y10900000D01*
X54155000Y5715000D02*
X54110000Y5670000D01*
X46565000Y11905000D02*
X46565000Y11835000D01*
X18600000Y5660000D02*
X18555000Y5615000D01*
X25000000Y6740000D02*
X25000000Y5660000D01*
X44055000Y6795000D02*
X44055000Y5715000D01*
D34*
X-18825000Y28500000D02*
X-18800000Y28475000D01*
D32*
X56970000Y27000000D02*
X57010000Y26960000D01*
X19895000Y11905000D02*
X19895000Y10765000D01*
X14800000Y5660000D02*
X14755000Y5615000D01*
X12300000Y6840000D02*
X12300000Y5760000D01*
X36405000Y9125000D02*
X36390000Y9140000D01*
X11005000Y13175000D02*
X11005000Y13415000D01*
X22025000Y36875000D02*
X21600000Y37300000D01*
X38945000Y11905000D02*
X38945000Y10825000D01*
X36405000Y8095000D02*
X36405000Y9125000D01*
X19200000Y34240000D02*
X16870000Y34240000D01*
X18600000Y6740000D02*
X18600000Y5660000D01*
X42755000Y11905000D02*
X42755000Y10945000D01*
X57945000Y9165000D02*
X57990000Y9210000D01*
X21120000Y44400000D02*
X21120000Y45930000D01*
X45295000Y5780000D02*
X45325000Y5750000D01*
D33*
X6425000Y39009100D02*
X6425000Y40755000D01*
D32*
X41485000Y13175000D02*
X41485000Y14175000D01*
X28800000Y5760000D02*
X28755000Y5715000D01*
D34*
X-21100000Y28500000D02*
X-18825000Y28500000D01*
D32*
X26245000Y13175000D02*
X27515000Y11905000D01*
X16870000Y34240000D02*
X16820000Y34290000D01*
X28190000Y44440000D02*
X28190000Y46100000D01*
X30055000Y14255000D02*
X30100000Y14300000D01*
X54155000Y6795000D02*
X54155000Y5715000D01*
X27515000Y11905000D02*
X27505000Y11905000D01*
X35135000Y11725000D02*
X34520000Y11110000D01*
X29325000Y36775000D02*
X28900000Y37200000D01*
X56725000Y13175000D02*
X56725000Y14275000D01*
X50375000Y6825000D02*
X50375000Y6175000D01*
X44025000Y9145000D02*
X44010000Y9160000D01*
X31325000Y10845000D02*
X31330000Y10840000D01*
X9735000Y11905000D02*
X9735000Y10915000D01*
X47835000Y9155000D02*
X47860000Y9180000D01*
X52915000Y14285000D02*
X52900000Y14300000D01*
X55455000Y11905000D02*
X55455000Y10845000D01*
X33865000Y6825000D02*
X33865000Y5795000D01*
X45295000Y13175000D02*
X45295000Y14185000D01*
X35135000Y5795000D02*
X35200000Y5730000D01*
X56700000Y9180000D02*
X56745000Y9225000D01*
X41485000Y13175000D02*
X42755000Y11905000D01*
X52915000Y9015000D02*
X53000000Y9100000D01*
X47835000Y8095000D02*
X47835000Y9155000D01*
X47835000Y8095000D02*
X47835000Y8135000D01*
X10120000Y45970000D02*
X10100000Y45990000D01*
X57945000Y8085000D02*
X57945000Y9165000D01*
X9700000Y5760000D02*
X9655000Y5715000D01*
X12275000Y10945000D02*
X12290000Y10930000D01*
X10120000Y44400000D02*
X10120000Y45970000D01*
X59265000Y10935000D02*
X59300000Y10900000D01*
X50375000Y6175000D02*
X50600000Y5950000D01*
X42755000Y10945000D02*
X42790000Y10910000D01*
X51645000Y8945000D02*
X51800000Y9100000D01*
X55455000Y10845000D02*
X55500000Y10800000D01*
X50375000Y10835000D02*
X50360000Y10820000D01*
X40215000Y9175000D02*
X40220000Y9180000D01*
X9735000Y11905000D02*
X9655000Y11905000D01*
X51350000Y50500000D02*
X51390000Y50540000D01*
X27515000Y11905000D02*
X27515000Y10905000D01*
X33865000Y5795000D02*
X33860000Y5790000D01*
X55400000Y27000000D02*
X56970000Y27000000D01*
X30045000Y5745000D02*
X30000000Y5700000D01*
X26390000Y34360000D02*
X26390000Y35140000D01*
X49105000Y14195000D02*
X49100000Y14200000D01*
D33*
X6425000Y40755000D02*
X6490000Y40820000D01*
D32*
X28785000Y8095000D02*
X28785000Y8965000D01*
X32595000Y8485000D02*
X33130000Y9020000D01*
X11005000Y13415000D02*
X11940000Y14350000D01*
X22375000Y14330000D02*
X22400000Y14355000D01*
X54185000Y11905000D02*
X54185000Y10815000D01*
X49105000Y6825000D02*
X49105000Y5970000D01*
X14800000Y6740000D02*
X14800000Y5660000D01*
X22375000Y13200000D02*
X22375000Y14330000D01*
X24975000Y8095000D02*
X24975000Y9015000D01*
X33865000Y13175000D02*
X33865000Y13735000D01*
X43200000Y50500000D02*
X43200000Y46630000D01*
X52915000Y13175000D02*
X52915000Y14285000D01*
X56725000Y14275000D02*
X56700000Y14300000D01*
X59265000Y6825000D02*
X59265000Y5735000D01*
X14815000Y13175000D02*
X16085000Y11905000D01*
%TO.N,/FC_a_P*%
D35*
X39966500Y19265000D02*
X41575920Y19265000D01*
X39700000Y19531500D02*
X39966500Y19265000D01*
X41575920Y19265000D02*
X43525000Y17315920D01*
X43525000Y13675000D02*
X44025000Y13175000D01*
X43525000Y17315920D02*
X43525000Y13675000D01*
%TO.N,Net-(R77-Pad2)*%
D32*
X53225000Y35765000D02*
X53225000Y38535000D01*
X53225000Y38535000D02*
X53210000Y38550000D01*
%TO.N,/PWR_SRC*%
D33*
X3772500Y44150000D02*
X3772500Y41692500D01*
X3885000Y41475000D02*
X3720000Y41640000D01*
X3772500Y41692500D02*
X3720000Y41640000D01*
X370000Y44150000D02*
X3772500Y44150000D01*
X350000Y44130000D02*
X370000Y44150000D01*
X3885000Y39009100D02*
X3885000Y41475000D01*
%TO.N,/CLK40_a_N*%
D35*
X34785000Y17094080D02*
X34785000Y17370000D01*
X31825000Y7325000D02*
X31825000Y8985920D01*
X34486580Y38392500D02*
X34785000Y38094080D01*
X36255000Y15624080D02*
X34785000Y17094080D01*
X34349451Y38392500D02*
X34486580Y38392500D01*
X34082951Y38126000D02*
X34349451Y38392500D01*
X35305000Y10505000D02*
X35760000Y10960000D01*
X31825000Y8985920D02*
X33344080Y10505000D01*
X33344080Y10505000D02*
X35305000Y10505000D01*
X34785000Y38094080D02*
X34785000Y17370000D01*
X35760000Y13490000D02*
X36255000Y13985000D01*
X36255000Y13985000D02*
X36255000Y15624080D01*
X31325000Y6825000D02*
X31825000Y7325000D01*
X35760000Y10960000D02*
X35760000Y13490000D01*
%TO.N,/DOR_a_P*%
X51145000Y18134080D02*
X51145000Y13675000D01*
X55350000Y20808500D02*
X55083500Y21075000D01*
X55083500Y21075000D02*
X54085920Y21075000D01*
X51145000Y13675000D02*
X51645000Y13175000D01*
X54085920Y21075000D02*
X51145000Y18134080D01*
%TO.N,Net-(R32-Pad2)*%
D32*
X40900000Y58090000D02*
X40900000Y61960000D01*
X40890000Y58080000D02*
X40900000Y58090000D01*
X40900000Y61960000D02*
X40830000Y62030000D01*
%TO.N,/DOR_a_N*%
D35*
X55350000Y21611500D02*
X55083500Y21345000D01*
X50875000Y18245920D02*
X50875000Y13675000D01*
X55083500Y21345000D02*
X53974080Y21345000D01*
X50875000Y13675000D02*
X50375000Y13175000D01*
X53974080Y21345000D02*
X50875000Y18245920D01*
%TO.N,Net-(R73-Pad1)*%
D32*
X52430000Y27980000D02*
X52400000Y28010000D01*
X53225000Y29015000D02*
X53210000Y29000000D01*
X53980000Y27940000D02*
X53980000Y29000000D01*
X53980000Y29000000D02*
X53210000Y29000000D01*
X53225000Y33765000D02*
X53225000Y29015000D01*
X55400000Y29000000D02*
X53980000Y29000000D01*
X52430000Y29000000D02*
X52430000Y27980000D01*
X52430000Y29000000D02*
X53210000Y29000000D01*
X51000000Y29000000D02*
X52430000Y29000000D01*
%TO.N,/DOL_a_N*%
D35*
X46565000Y13175000D02*
X47065000Y13675000D01*
X50093500Y21385000D02*
X50360000Y21651500D01*
X47065000Y13675000D02*
X47065000Y19265920D01*
X49184080Y21385000D02*
X50093500Y21385000D01*
X47065000Y19265920D02*
X49184080Y21385000D01*
%TO.N,Net-(R64-Pad1)*%
D32*
X47040000Y52500000D02*
X47700000Y52500000D01*
X47690000Y52510000D02*
X47700000Y52500000D01*
X48480000Y52490000D02*
X48490000Y52500000D01*
X47700000Y52500000D02*
X48490000Y52500000D01*
X48490000Y52500000D02*
X49900000Y52500000D01*
X47690000Y56000000D02*
X47690000Y52510000D01*
X48480000Y51420000D02*
X48480000Y52490000D01*
X47040000Y51460000D02*
X47040000Y52500000D01*
X45600000Y52500000D02*
X47040000Y52500000D01*
%TO.N,/DOL_a_P*%
D35*
X47335000Y13675000D02*
X47335000Y19154080D01*
X47835000Y13175000D02*
X47335000Y13675000D01*
X49295920Y21115000D02*
X50093500Y21115000D01*
X47335000Y19154080D02*
X49295920Y21115000D01*
X50093500Y21115000D02*
X50360000Y20848500D01*
%TO.N,/1.2V*%
D32*
X45600000Y46600000D02*
X45510000Y46510000D01*
X22630000Y41690000D02*
X22840000Y41900000D01*
X29780000Y41910000D02*
X29780000Y44030000D01*
X42000000Y27000000D02*
X40400000Y27000000D01*
X22675000Y43955000D02*
X23120000Y44400000D01*
X29975000Y35700000D02*
X29975000Y38985000D01*
X40400000Y27000000D02*
X40360000Y27040000D01*
X51000000Y27000000D02*
X50010000Y27000000D01*
X23120000Y44400000D02*
X23120000Y46060000D01*
X22840000Y41900000D02*
X22840000Y44120000D01*
X22840000Y44120000D02*
X23120000Y44400000D01*
X22630000Y39060000D02*
X22630000Y35745000D01*
X29975000Y38985000D02*
X29910000Y39050000D01*
X29780000Y44030000D02*
X30190000Y44440000D01*
X38200000Y50460000D02*
X36880000Y49140000D01*
X38200000Y50500000D02*
X38200000Y50460000D01*
X29910000Y39190000D02*
X29780000Y39320000D01*
X23120000Y46060000D02*
X23100000Y46080000D01*
X30190000Y44440000D02*
X30190000Y45740000D01*
X22630000Y35745000D02*
X22675000Y35700000D01*
X22630000Y39060000D02*
X22630000Y41690000D01*
X22675000Y38800000D02*
X22675000Y39545000D01*
X50010000Y27000000D02*
X49300000Y26290000D01*
X29780000Y39320000D02*
X29780000Y41910000D01*
X30190000Y45740000D02*
X29720000Y46210000D01*
X29910000Y39050000D02*
X29910000Y39190000D01*
X45600000Y50500000D02*
X45600000Y46600000D01*
%TO.N,/1.0V*%
X12300000Y44295000D02*
X12195000Y44400000D01*
X11688700Y42190000D02*
X12300000Y42190000D01*
X12300000Y42190000D02*
X12300000Y44295000D01*
D33*
X8965000Y39009100D02*
X8965000Y40375000D01*
X10780000Y42190000D02*
X12300000Y42190000D01*
D32*
X22250000Y57800000D02*
X13675000Y57800000D01*
X8965000Y39009100D02*
X9125000Y39169100D01*
X12200000Y44405000D02*
X12195000Y44400000D01*
X12200000Y56325000D02*
X12200000Y50740000D01*
D33*
X8965000Y40375000D02*
X10780000Y42190000D01*
D32*
X8965000Y39009100D02*
X8965000Y39466300D01*
X13675000Y57800000D02*
X12200000Y56325000D01*
X22510000Y57800000D02*
X22380000Y57800000D01*
X12200000Y50640000D02*
X12200000Y44405000D01*
X6790000Y50700000D02*
X6830000Y50740000D01*
X6830000Y50740000D02*
X12200000Y50740000D01*
%TO.N,Net-(R47-Pad1)*%
X44353500Y29043500D02*
X44310000Y29000000D01*
X44310000Y29000000D02*
X45060000Y29000000D01*
X45060000Y29000000D02*
X46500000Y29000000D01*
X43440000Y28010000D02*
X43440000Y29000000D01*
X42000000Y29000000D02*
X43440000Y29000000D01*
X45060000Y27980000D02*
X45060000Y29000000D01*
X43440000Y29000000D02*
X44310000Y29000000D01*
X44353500Y33605251D02*
X44353500Y29043500D01*
%TO.N,/I2C_WS_ADD4*%
X13520000Y13200000D02*
X13545000Y13175000D01*
X13520000Y14390000D02*
X13520000Y13200000D01*
%TO.N,/I2C_WS_ADD3*%
X17290000Y13240000D02*
X17355000Y13175000D01*
X17290000Y14490000D02*
X17290000Y13240000D01*
%TO.N,/I2C_WS_ADD2*%
X14815000Y11465000D02*
X14815000Y11905000D01*
X14850000Y11870000D02*
X14815000Y11905000D01*
X15470000Y10810000D02*
X14815000Y11465000D01*
%TO.N,/I2C_WS_ADD1*%
X18625000Y11035000D02*
X18625000Y11905000D01*
X18840000Y10820000D02*
X18625000Y11035000D01*
%TO.N,/I2C_WS_ADD0*%
X21890000Y10710000D02*
X22435000Y11255000D01*
X22435000Y11255000D02*
X22435000Y11905000D01*
%TO.N,/SCL_WS*%
X23400000Y68831500D02*
X23500000Y68931500D01*
X20630000Y39060000D02*
X19890000Y39800000D01*
X19890000Y45750000D02*
X23400000Y49260000D01*
X23126000Y34599000D02*
X21574000Y34599000D01*
X23400000Y49260000D02*
X23400000Y68831500D01*
X23325000Y34798000D02*
X23126000Y34599000D01*
X23325000Y35700000D02*
X23325000Y34798000D01*
X21574000Y34599000D02*
X20630000Y35543000D01*
X19890000Y39800000D02*
X19890000Y45750000D01*
X20630000Y35543000D02*
X20630000Y39060000D01*
%TO.N,/SDA_WS*%
X24865000Y36590000D02*
X24865000Y68366500D01*
X24865000Y68366500D02*
X24300000Y68931500D01*
X23975000Y35700000D02*
X24865000Y36590000D01*
%TO.N,/RST_WS*%
X24730000Y71600000D02*
X24730000Y72300000D01*
X11010000Y74060000D02*
X11010000Y70790000D01*
X25910000Y9700000D02*
X22840000Y9700000D01*
X14070000Y77120000D02*
X11010000Y74060000D01*
X24730000Y72300000D02*
X19910000Y77120000D01*
X27515000Y8095000D02*
X25910000Y9700000D01*
X19910000Y77120000D02*
X14070000Y77120000D01*
%TO.N,/CLK40_a_P*%
D35*
X36990000Y13600000D02*
X36525000Y14065000D01*
X34082951Y38929000D02*
X34349451Y38662500D01*
X35835920Y10235000D02*
X36990000Y11389080D01*
X35055000Y38205920D02*
X35055000Y17370000D01*
X32095000Y8874080D02*
X33455920Y10235000D01*
X32595000Y6825000D02*
X32095000Y7325000D01*
X36525000Y14065000D02*
X36525000Y15735920D01*
X35055000Y17205920D02*
X35055000Y17370000D01*
X34598420Y38662500D02*
X35055000Y38205920D01*
X34349451Y38662500D02*
X34598420Y38662500D01*
X36525000Y15735920D02*
X35055000Y17205920D01*
X32095000Y7325000D02*
X32095000Y8874080D01*
X36990000Y11389080D02*
X36990000Y13600000D01*
X33455920Y10235000D02*
X35835920Y10235000D01*
%TO.N,Net-(R19-Pad1)*%
D32*
X40890000Y52510000D02*
X40900000Y52500000D01*
X38200000Y52500000D02*
X39910000Y52500000D01*
X40890000Y56000000D02*
X40890000Y52510000D01*
X40880000Y52500000D02*
X40890000Y52510000D01*
X39910000Y51510000D02*
X39910000Y52500000D01*
X41590000Y52500000D02*
X41740000Y52500000D01*
X41750000Y52490000D02*
X41740000Y52500000D01*
X43200000Y52500000D02*
X41590000Y52500000D01*
X41750000Y51440000D02*
X41750000Y52490000D01*
X40900000Y52500000D02*
X41590000Y52500000D01*
X39910000Y52500000D02*
X40050000Y52500000D01*
X40050000Y52500000D02*
X40880000Y52500000D01*
%TO.N,/FC_a_N*%
D35*
X41464080Y18995000D02*
X43255000Y17204080D01*
X43255000Y13675000D02*
X42755000Y13175000D01*
X39700000Y18728500D02*
X39966500Y18995000D01*
X43255000Y17204080D02*
X43255000Y13675000D01*
X39966500Y18995000D02*
X41464080Y18995000D01*
%TO.N,/I2C_ETR_ADD0*%
D32*
X26245000Y10315000D02*
X26270000Y10290000D01*
X26270000Y46630000D02*
X26270000Y79230000D01*
X26245000Y11905000D02*
X26245000Y10315000D01*
X26270000Y79230000D02*
X26270000Y80280000D01*
X26270000Y80280000D02*
X26300000Y80310000D01*
%TO.N,/I2C_ETR_ADD1*%
X30080000Y11880000D02*
X30055000Y11905000D01*
X30980000Y46610000D02*
X30990000Y46600000D01*
X30080000Y10660000D02*
X30080000Y11880000D01*
X30980000Y79820000D02*
X30450000Y80350000D01*
X30980000Y79820000D02*
X30980000Y46610000D01*
%TO.N,/I2C_ETR_ADD2*%
X33244000Y12526000D02*
X33244000Y80176000D01*
X33865000Y11905000D02*
X33244000Y12526000D01*
X33244000Y80176000D02*
X33150000Y80270000D01*
%TO.N,/RSTn*%
X25320000Y4630000D02*
X8560000Y4630000D01*
X27515000Y6825000D02*
X25320000Y4630000D01*
X8620000Y73860000D02*
X8620000Y84290000D01*
X8620000Y84290000D02*
X28810000Y104480000D01*
%TO.N,/SCL_ETROC2*%
X30426000Y34599000D02*
X28401000Y34599000D01*
X28080000Y34920000D02*
X28080000Y38880000D01*
X28401000Y34599000D02*
X28080000Y34920000D01*
X27020000Y96970000D02*
X31150000Y101100000D01*
X28080000Y38880000D02*
X27910000Y39050000D01*
X27020000Y39940000D02*
X27020000Y96970000D01*
X30625000Y34798000D02*
X30426000Y34599000D01*
X27910000Y39050000D02*
X27020000Y39940000D01*
X30625000Y35700000D02*
X30625000Y34798000D01*
%TO.N,/SDA_ETROC2*%
X31780000Y41910000D02*
X31780000Y36205000D01*
X31800000Y41930000D02*
X31800000Y100200000D01*
X31780000Y36205000D02*
X31275000Y35700000D01*
X31780000Y41910000D02*
X31800000Y41930000D01*
%TO.N,/I2C_ETR_ADD3*%
X35530000Y80310000D02*
X35530000Y19060000D01*
X35590000Y80250000D02*
X35530000Y80310000D01*
X37680000Y10780000D02*
X37680000Y11900000D01*
X37680000Y11900000D02*
X37675000Y11905000D01*
X35530000Y19060000D02*
X38300000Y16290000D01*
%TO.N,/I2C_ETR_ADD4*%
X40894000Y12496000D02*
X41485000Y11905000D01*
X36150000Y81000000D02*
X36130000Y80980000D01*
D35*
X36170000Y80980000D02*
X36150000Y81000000D01*
D32*
X41460000Y11880000D02*
X41485000Y11905000D01*
X36130000Y20004000D02*
X40894000Y15240000D01*
X40894000Y15240000D02*
X40894000Y12496000D01*
X36130000Y80980000D02*
X36130000Y20004000D01*
%TO.N,/3P3V*%
D36*
X9735000Y9185000D02*
X9800000Y9250000D01*
X12275000Y8095000D02*
X12275000Y9025000D01*
X9735000Y8095000D02*
X9735000Y8850000D01*
X12275000Y9025000D02*
X12275000Y9225000D01*
X9735000Y8850000D02*
X9735000Y9185000D01*
X14550000Y9250000D02*
X14815000Y8985000D01*
X9735000Y9035000D02*
X9750000Y9050000D01*
D33*
X11005000Y6825000D02*
X12275000Y8095000D01*
D36*
X9800000Y9250000D02*
X8680000Y10370000D01*
X8680000Y17410000D02*
X-2460000Y28550000D01*
X8680000Y10370000D02*
X8680000Y17410000D01*
X9800000Y9250000D02*
X12300000Y9250000D01*
X9735000Y8850000D02*
X9735000Y9035000D01*
X12275000Y9225000D02*
X12300000Y9250000D01*
X12275000Y9025000D02*
X12300000Y9050000D01*
X12300000Y9250000D02*
X14550000Y9250000D01*
X14815000Y8985000D02*
X14815000Y8095000D01*
%TO.N,Net-(R68-Pad2)*%
D32*
X47690000Y58000000D02*
X47690000Y62020000D01*
X47690000Y62020000D02*
X47700000Y62030000D01*
%TO.N,Net-(R55-Pad2)*%
X44353500Y38556500D02*
X44340000Y38570000D01*
X44353500Y35605251D02*
X44353500Y38556500D01*
%TO.N,Net-(U3-EN)*%
X19335000Y32300000D02*
X21050000Y32300000D01*
X22675000Y32300000D02*
X22025000Y32300000D01*
X22025000Y32300000D02*
X20900000Y32300000D01*
X19200000Y32165000D02*
X19335000Y32300000D01*
X18930000Y29470000D02*
X20900000Y31440000D01*
X18340000Y29470000D02*
X18930000Y29470000D01*
X20900000Y31440000D02*
X20900000Y32300000D01*
%TO.N,/2.5V*%
X18340000Y26930000D02*
X18340000Y27470000D01*
X26470000Y27660000D02*
X26470000Y27070000D01*
X23430000Y26890000D02*
X23520000Y26890000D01*
X21700000Y25160000D02*
X22010000Y25470000D01*
X28960000Y25090000D02*
X28960000Y27090000D01*
X23450000Y26890000D02*
X20915000Y24355000D01*
X30170000Y23880000D02*
X28960000Y25090000D01*
X20920000Y26560000D02*
X22010000Y25470000D01*
X26130000Y26730000D02*
X24965000Y25565000D01*
X22010000Y25470000D02*
X23430000Y26890000D01*
X9735000Y13175000D02*
X20915000Y24355000D01*
X30170000Y23870000D02*
X30170000Y23880000D01*
X23520000Y26890000D02*
X23450000Y26890000D01*
X26915000Y23815000D02*
X26940000Y23790000D01*
X29225000Y27235000D02*
X29080000Y27380000D01*
X23215000Y23815000D02*
X26915000Y23815000D01*
X31280000Y24980000D02*
X31280000Y27080000D01*
X24965000Y25565000D02*
X23790000Y24390000D01*
X20915000Y24355000D02*
X18340000Y26930000D01*
X30170000Y23870000D02*
X31280000Y24980000D01*
X23790000Y24390000D02*
X23215000Y23815000D01*
X23215000Y23815000D02*
X20375000Y23815000D01*
X20920000Y26890000D02*
X20920000Y26560000D01*
X26130000Y27260000D02*
X26130000Y26730000D01*
%TO.N,Net-(U2-EN)*%
X26470000Y29660000D02*
X27650000Y30840000D01*
X27630000Y32300000D02*
X26405000Y32300000D01*
X28430000Y32300000D02*
X27630000Y32300000D01*
X27650000Y32280000D02*
X27630000Y32300000D01*
X27650000Y30840000D02*
X27650000Y32280000D01*
X26405000Y32300000D02*
X26390000Y32285000D01*
X29325000Y32300000D02*
X28430000Y32300000D01*
X29975000Y32300000D02*
X29325000Y32300000D01*
%TO.N,Net-(U5-ADJ)*%
D33*
X12300000Y37950000D02*
X13000000Y37250000D01*
X12300000Y40190000D02*
X12300000Y37950000D01*
D32*
X10235000Y39009100D02*
X12295900Y39009100D01*
%TO.N,/SDA_WS_FMC*%
X24000000Y32275000D02*
X23975000Y32300000D01*
X24000000Y30700000D02*
X24000000Y32275000D01*
X24975000Y21560000D02*
X24975000Y13175000D01*
X24000000Y28970000D02*
X24000000Y30700000D01*
X24500000Y30700000D02*
X24000000Y30700000D01*
X24050000Y28920000D02*
X24000000Y28970000D01*
%TO.N,/SDA_ETROC2_FMC*%
X31280000Y29080000D02*
X31280000Y30915000D01*
X32600000Y30050000D02*
X31850000Y30800000D01*
X31850000Y30800000D02*
X31275000Y30800000D01*
X31275000Y32300000D02*
X31275000Y30920000D01*
X31280000Y30915000D02*
X31275000Y30920000D01*
X32595000Y13175000D02*
X32595000Y30045000D01*
X32595000Y30045000D02*
X32600000Y30050000D01*
X31275000Y30920000D02*
X31275000Y30800000D01*
%TO.N,/SCL_ETROC2_FMC*%
X30615000Y30780000D02*
X30615000Y30745000D01*
X28250000Y30780000D02*
X30615000Y30780000D01*
X28785000Y13175000D02*
X27640000Y14320000D01*
X27640000Y30170000D02*
X28250000Y30780000D01*
X30625000Y30790000D02*
X30625000Y32300000D01*
X30615000Y30745000D02*
X28960000Y29090000D01*
X30615000Y30780000D02*
X30625000Y30790000D01*
X27640000Y14320000D02*
X27640000Y30170000D01*
%TO.N,Net-(U5-EN)*%
D33*
X1720000Y39904100D02*
X1720000Y41640000D01*
X2615000Y39009100D02*
X1720000Y39904100D01*
%TO.N,/SCL_WS_FMC*%
D32*
X22870000Y30600000D02*
X23325000Y30600000D01*
X21890000Y29610000D02*
X21890000Y30600000D01*
X21170000Y28890000D02*
X21890000Y29610000D01*
X21165000Y13175000D02*
X21165000Y22500000D01*
X23325000Y30600000D02*
X23325000Y32300000D01*
X20920000Y28890000D02*
X21170000Y28890000D01*
X21890000Y30600000D02*
X22870000Y30600000D01*
%TD*%
%TA.AperFunction,Conductor*%
%TO.N,/3P3V*%
G36*
X14765621Y9530319D02*
G01*
X14832593Y9510408D01*
X14878169Y9457449D01*
X14884832Y9438947D01*
X14985011Y9071627D01*
X14983659Y9001770D01*
X14944755Y8943734D01*
X14880649Y8915944D01*
X14865380Y8915000D01*
X14734236Y8915000D01*
X14734232Y8914999D01*
X14575822Y8883489D01*
X14575814Y8883487D01*
X14437397Y8826153D01*
X14904096Y8359458D01*
X14937581Y8298135D01*
X14932597Y8228444D01*
X14904096Y8184096D01*
X14725904Y8005904D01*
X14717959Y8001566D01*
X14712534Y7994318D01*
X14687772Y7985082D01*
X14664581Y7972419D01*
X14655551Y7973064D01*
X14647069Y7969901D01*
X14621248Y7975517D01*
X14594889Y7977403D01*
X14585834Y7983221D01*
X14578796Y7984753D01*
X14550542Y8005903D01*
X14388339Y8168105D01*
X14354854Y8229429D01*
X14354437Y8231428D01*
X14333969Y8334331D01*
X14272118Y8483652D01*
X14200000Y8591584D01*
X14200000Y8750000D01*
X14041584Y8750000D01*
X13933652Y8822118D01*
X13784331Y8883969D01*
X13625814Y8915499D01*
X13625813Y8915500D01*
X13625812Y8915500D01*
X13464188Y8915500D01*
X13464187Y8915500D01*
X13464183Y8915499D01*
X13305669Y8883969D01*
X13156348Y8822118D01*
X13048416Y8750000D01*
X12900000Y8750000D01*
X12900000Y8606550D01*
X12817885Y8483658D01*
X12817880Y8483649D01*
X12756031Y8334331D01*
X12756029Y8334323D01*
X12735595Y8231596D01*
X12726830Y8214839D01*
X12722810Y8196360D01*
X12704065Y8171321D01*
X12703210Y8169685D01*
X12701659Y8168106D01*
X12539457Y8005904D01*
X12478134Y7972419D01*
X12408442Y7977403D01*
X12364094Y8005904D01*
X12274999Y8094999D01*
X12185904Y8005904D01*
X12177959Y8001566D01*
X12172534Y7994318D01*
X12147772Y7985082D01*
X12124581Y7972419D01*
X12115551Y7973064D01*
X12107069Y7969901D01*
X12081248Y7975517D01*
X12054889Y7977403D01*
X12045834Y7983221D01*
X12038796Y7984753D01*
X12010542Y8005903D01*
X11848339Y8168105D01*
X11814854Y8229429D01*
X11814437Y8231428D01*
X11793969Y8334331D01*
X11732118Y8483652D01*
X11700000Y8531719D01*
X11700000Y8750000D01*
X11586499Y8750000D01*
X11539199Y8750000D01*
X11472160Y8769685D01*
X11470308Y8770898D01*
X11463519Y8775434D01*
X11393652Y8822118D01*
X11383911Y8826153D01*
X11897397Y8826153D01*
X12275000Y8448553D01*
X12275001Y8448553D01*
X12652601Y8826153D01*
X12514185Y8883487D01*
X12514177Y8883489D01*
X12355767Y8914999D01*
X12355764Y8915000D01*
X12194236Y8915000D01*
X12194232Y8914999D01*
X12035822Y8883489D01*
X12035814Y8883487D01*
X11897397Y8826153D01*
X11383911Y8826153D01*
X11244331Y8883969D01*
X11085814Y8915499D01*
X11085813Y8915500D01*
X11085812Y8915500D01*
X10924188Y8915500D01*
X10924187Y8915500D01*
X10924183Y8915499D01*
X10765669Y8883969D01*
X10616348Y8822118D01*
X10508416Y8750000D01*
X10350000Y8750000D01*
X10350000Y8591584D01*
X10277885Y8483658D01*
X10277880Y8483649D01*
X10216031Y8334331D01*
X10216029Y8334323D01*
X10195595Y8231596D01*
X10186830Y8214839D01*
X10182810Y8196360D01*
X10164065Y8171321D01*
X10163210Y8169685D01*
X10161659Y8168106D01*
X9999457Y8005904D01*
X9938134Y7972419D01*
X9868442Y7977403D01*
X9824094Y8005904D01*
X9734999Y8094999D01*
X9645904Y8005904D01*
X9584581Y7972419D01*
X9514889Y7977403D01*
X9470542Y8005904D01*
X8971373Y8505072D01*
X8950000Y8544213D01*
X8950000Y8826153D01*
X9357397Y8826153D01*
X9735000Y8448553D01*
X9735001Y8448553D01*
X10112601Y8826153D01*
X9974185Y8883487D01*
X9974177Y8883489D01*
X9815767Y8914999D01*
X9815764Y8915000D01*
X9654236Y8915000D01*
X9654232Y8914999D01*
X9495822Y8883489D01*
X9495814Y8883487D01*
X9357397Y8826153D01*
X8950000Y8826153D01*
X8950000Y9425579D01*
X8969685Y9492618D01*
X9022489Y9538373D01*
X9074420Y9549578D01*
X14765621Y9530319D01*
G37*
%TD.AperFunction*%
%TD*%
M02*
