M48
; DRILL file KiCad 10.0.3 date 2026-07-10T13:44:20
; FORMAT={-:-/ absolute / metric / decimal}
; #@! TF.CreationDate,2026-07-10T13:44:20+09:00
; #@! TF.GenerationSoftware,Kicad,Pcbnew,10.0.3
; #@! TF.FileFunction,Plated,1,4,PTH
FMAT,2
METRIC
; #@! TA.AperFunction,Plated,PTH,ViaDrill
T1C0.300
; #@! TA.AperFunction,Plated,PTH,ViaDrill
T2C0.600
; #@! TA.AperFunction,Plated,PTH,ViaDrill
T3C0.800
; #@! TA.AperFunction,Plated,PTH,ComponentDrill
T4C1.000
; #@! TA.AperFunction,Plated,PTH,ComponentDrill
T5C1.800
; #@! TA.AperFunction,Plated,PTH,ComponentDrill
T6C3.860
%
G90
G05
T1
X-28.37Y36.67
X-22.105Y39.9
X-20.175Y57.375
X-20.175Y55.975
X-18.375Y65.5
X-17.54Y68.438
X-17.44Y62.538
X-15.23Y44.88
X-14.525Y69.3
X-14.375Y61.525
X-14.26Y46.3
X-11.64Y68.338
X-11.64Y62.538
X-10.6Y65.55
X-8.4Y53.775
X-8.35Y56.05
X-8.275Y57.65
X-3.882Y45.66
X6.49Y40.82
X6.79Y50.7
X7.39Y44.15
X8.56Y4.63
X8.62Y73.86
X9.655Y5.715
X9.75Y10.9
X10.1Y45.99
X11.01Y70.79
X11.94Y14.35
X12.255Y5.715
X12.29Y10.93
X13.52Y14.39
X14.755Y5.615
X15.25Y102.5
X15.4Y14.0
X15.47Y10.81
X16.51Y37.25
X16.75Y104.131
X16.75Y71.65
X16.82Y34.29
X17.25Y103.631
X17.29Y14.49
X17.6Y71.59
X17.75Y104.131
X18.25Y103.631
X18.555Y5.615
X18.75Y104.131
X18.84Y10.82
X19.25Y103.631
X19.75Y104.131
X19.855Y5.615
X19.89Y10.76
X20.25Y103.631
X20.74Y71.53
X20.75Y100.737
X21.14Y45.95
X21.165Y22.5
X21.22Y69.44
X21.25Y101.237
X21.6Y37.3
X21.72Y71.59
X21.75Y100.737
X21.89Y30.6
X21.89Y10.71
X22.22Y69.36
X22.25Y101.237
X22.38Y57.8
X22.4Y14.355
X22.72Y71.54
X22.75Y103.631
X22.84Y9.7
X23.1Y46.08
X23.25Y104.131
X23.5Y68.931
X23.655Y5.615
X23.68Y71.62
X23.73Y10.81
X23.75Y103.631
X24.25Y104.131
X24.3Y68.931
X24.73Y71.6
X24.75Y103.631
X24.79Y30.71
X24.955Y5.615
X24.975Y21.56
X25.01Y9.05
X25.25Y104.131
X25.55Y71.58
X25.56Y72.34
X25.6Y69.39
X25.85Y103.56
X26.25Y100.737
X26.27Y46.63
X26.27Y10.29
X26.3Y80.31
X26.75Y101.237
X26.94Y23.79
X27.14Y35.89
X27.25Y100.737
X27.52Y69.49
X27.52Y10.9
X27.65Y71.74
X28.16Y46.13
X28.35Y71.53
X28.57Y69.47
X28.74Y9.01
X28.755Y5.715
X28.81Y104.48
X28.9Y37.2
X29.18Y71.5
X29.5Y69.47
X29.72Y46.21
X30.0Y5.7
X30.08Y10.66
X30.1Y14.3
X30.17Y23.87
X30.25Y101.237
X30.28Y71.63
X30.33Y72.39
X30.45Y80.35
X30.75Y103.75
X30.99Y46.6
X31.15Y101.1
X31.33Y10.84
X31.8Y100.2
X32.4Y71.68
X32.58Y69.46
X33.13Y9.02
X33.15Y80.27
X33.25Y103.75
X33.86Y5.79
X33.93Y71.61
X33.99Y69.4
X34.083Y38.929
X34.083Y38.126
X34.22Y103.76
X34.29Y14.16
X34.31Y101.29
X34.52Y11.11
X34.77Y71.57
X34.91Y69.37
X35.2Y5.73
X35.25Y100.75
X35.53Y80.31
X35.75Y101.25
X36.15Y81.0
X36.25Y100.75
X36.39Y9.14
X36.72Y69.45
X36.75Y101.25
X36.76Y71.61
X36.88Y49.14
X37.25Y100.75
X37.55Y14.33
X37.6Y69.46
X37.62Y71.6
X37.68Y10.78
X37.75Y101.25
X38.25Y100.75
X38.3Y16.29
X38.42Y69.49
X38.51Y71.59
X38.75Y101.25
X38.91Y5.67
X38.94Y10.82
X39.25Y103.881
X39.43Y71.57
X39.44Y69.47
X39.7Y19.531
X39.7Y18.729
X39.75Y104.381
X39.91Y51.51
X40.155Y5.655
X40.22Y9.18
X40.25Y103.881
X40.25Y71.83
X40.36Y27.04
X40.75Y104.381
X40.83Y62.03
X41.1Y71.75
X41.25Y103.881
X41.7Y14.39
X41.75Y100.75
X41.75Y51.44
X41.92Y71.72
X42.25Y101.25
X42.75Y104.25
X42.79Y10.91
X42.8Y71.68
X43.11Y46.54
X43.25Y103.75
X43.44Y28.01
X43.75Y104.25
X43.77Y71.75
X44.01Y9.16
X44.01Y5.67
X44.25Y103.75
X44.34Y38.57
X44.75Y104.25
X44.76Y71.69
X45.06Y27.98
X45.25Y103.75
X45.27Y14.21
X45.325Y5.75
X45.51Y46.51
X45.75Y101.25
X45.76Y71.71
X46.42Y10.78
X46.74Y71.74
X46.75Y101.25
X47.04Y51.46
X47.25Y100.75
X47.7Y62.03
X47.75Y101.25
X47.79Y71.72
X47.86Y9.18
X48.25Y100.75
X48.48Y51.42
X48.55Y27.0
X48.76Y71.71
X48.95Y101.27
X49.1Y14.2
X49.2Y5.875
X49.3Y26.29
X49.73Y71.71
X50.36Y21.651
X50.36Y20.848
X50.36Y10.82
X50.6Y5.95
X50.72Y71.67
X51.26Y72.31
X51.39Y50.54
X51.79Y71.59
X51.8Y9.1
X52.43Y27.98
X52.7Y71.65
X52.9Y14.3
X53.0Y9.1
X53.21Y38.55
X53.43Y71.62
X53.98Y27.94
X54.11Y5.67
X54.2Y10.8
X54.22Y71.61
X54.22Y69.41
X54.75Y68.78
X55.26Y69.43
X55.35Y21.611
X55.35Y20.808
X55.355Y5.655
X55.5Y10.8
X55.78Y68.74
X56.7Y14.3
X56.745Y9.225
X57.01Y26.96
X57.99Y9.21
X59.01Y65.47
X59.3Y10.9
X59.3Y5.7
T2
X-13.57Y106.862
X-11.664Y40.854
X0.35Y44.13
T3
X-18.8Y28.475
T4
X-7.54Y28.55
X-5.0Y28.55
X-2.46Y28.55
X5.28Y98.16
X7.82Y98.16
T5
X-13.58Y103.29
X-13.58Y93.13
X-8.5Y98.21
X-3.42Y103.29
X-3.42Y93.13
T6
X-14.49Y65.438
T4
G00X-21.35Y33.0
M15
G01X-22.85Y33.0
M16
G05
G00X-21.35Y24.0
M15
G01X-22.85Y24.0
M16
G05
G00X-21.1Y29.15
M15
G01X-21.1Y27.85
M16
G05
G00X-15.1Y29.5
M15
G01X-15.1Y27.5
M16
G05
M30
