%TF.GenerationSoftware,KiCad,Pcbnew,10.0.3*%
%TF.CreationDate,2026-07-10T13:44:17+09:00*%
%TF.ProjectId,ETROC_to_FPGA,4554524f-435f-4746-9f5f-465047412e6b,rev?*%
%TF.SameCoordinates,Original*%
%TF.FileFunction,Legend,Top*%
%TF.FilePolarity,Positive*%
%FSLAX46Y46*%
G04 Gerber Fmt 4.6, Leading zero omitted, Abs format (unit mm)*
G04 Created by KiCad (PCBNEW 10.0.3) date 2026-07-10 13:44:17*
%MOMM*%
%LPD*%
G01*
G04 APERTURE LIST*
%ADD10C,0.100000*%
%ADD11C,0.200000*%
%ADD12C,0.300000*%
%ADD13C,0.120000*%
%ADD14C,0.150000*%
G04 APERTURE END LIST*
D10*
X56051979Y67553104D02*
X56318646Y66753104D01*
X56318646Y66753104D02*
X56585312Y67553104D01*
X56851979Y66753104D02*
X56851979Y67553104D01*
X56851979Y67553104D02*
X57156741Y67553104D01*
X57156741Y67553104D02*
X57232931Y67515009D01*
X57232931Y67515009D02*
X57271026Y67476914D01*
X57271026Y67476914D02*
X57309122Y67400723D01*
X57309122Y67400723D02*
X57309122Y67286438D01*
X57309122Y67286438D02*
X57271026Y67210247D01*
X57271026Y67210247D02*
X57232931Y67172152D01*
X57232931Y67172152D02*
X57156741Y67134057D01*
X57156741Y67134057D02*
X56851979Y67134057D01*
X-8222306Y30577580D02*
X-8793734Y30577580D01*
X-8508020Y30577580D02*
X-8508020Y31577580D01*
X-8508020Y31577580D02*
X-8603258Y31434723D01*
X-8603258Y31434723D02*
X-8698496Y31339485D01*
X-8698496Y31339485D02*
X-8793734Y31291866D01*
X-5555638Y31482342D02*
X-5508019Y31529961D01*
X-5508019Y31529961D02*
X-5412781Y31577580D01*
X-5412781Y31577580D02*
X-5174686Y31577580D01*
X-5174686Y31577580D02*
X-5079448Y31529961D01*
X-5079448Y31529961D02*
X-5031829Y31482342D01*
X-5031829Y31482342D02*
X-4984210Y31387104D01*
X-4984210Y31387104D02*
X-4984210Y31291866D01*
X-4984210Y31291866D02*
X-5031829Y31149009D01*
X-5031829Y31149009D02*
X-5603257Y30577580D01*
X-5603257Y30577580D02*
X-4984210Y30577580D01*
X-2365161Y31577580D02*
X-1746114Y31577580D01*
X-1746114Y31577580D02*
X-2079447Y31196628D01*
X-2079447Y31196628D02*
X-1936590Y31196628D01*
X-1936590Y31196628D02*
X-1841352Y31149009D01*
X-1841352Y31149009D02*
X-1793733Y31101390D01*
X-1793733Y31101390D02*
X-1746114Y31006152D01*
X-1746114Y31006152D02*
X-1746114Y30768057D01*
X-1746114Y30768057D02*
X-1793733Y30672819D01*
X-1793733Y30672819D02*
X-1841352Y30625200D01*
X-1841352Y30625200D02*
X-1936590Y30577580D01*
X-1936590Y30577580D02*
X-2222304Y30577580D01*
X-2222304Y30577580D02*
X-2317542Y30625200D01*
X-2317542Y30625200D02*
X-2365161Y30672819D01*
X-8119925Y49427580D02*
X-8596115Y49427580D01*
X-8596115Y49427580D02*
X-8596115Y50427580D01*
X-7786591Y49427580D02*
X-7786591Y50427580D01*
X-7786591Y50427580D02*
X-7548496Y50427580D01*
X-7548496Y50427580D02*
X-7405639Y50379961D01*
X-7405639Y50379961D02*
X-7310401Y50284723D01*
X-7310401Y50284723D02*
X-7262782Y50189485D01*
X-7262782Y50189485D02*
X-7215163Y49999009D01*
X-7215163Y49999009D02*
X-7215163Y49856152D01*
X-7215163Y49856152D02*
X-7262782Y49665676D01*
X-7262782Y49665676D02*
X-7310401Y49570438D01*
X-7310401Y49570438D02*
X-7405639Y49475200D01*
X-7405639Y49475200D02*
X-7548496Y49427580D01*
X-7548496Y49427580D02*
X-7786591Y49427580D01*
X-6596115Y50427580D02*
X-6405639Y50427580D01*
X-6405639Y50427580D02*
X-6310401Y50379961D01*
X-6310401Y50379961D02*
X-6215163Y50284723D01*
X-6215163Y50284723D02*
X-6167544Y50094247D01*
X-6167544Y50094247D02*
X-6167544Y49760914D01*
X-6167544Y49760914D02*
X-6215163Y49570438D01*
X-6215163Y49570438D02*
X-6310401Y49475200D01*
X-6310401Y49475200D02*
X-6405639Y49427580D01*
X-6405639Y49427580D02*
X-6596115Y49427580D01*
X-6596115Y49427580D02*
X-6691353Y49475200D01*
X-6691353Y49475200D02*
X-6786591Y49570438D01*
X-6786591Y49570438D02*
X-6834210Y49760914D01*
X-6834210Y49760914D02*
X-6834210Y50094247D01*
X-6834210Y50094247D02*
X-6786591Y50284723D01*
X-6786591Y50284723D02*
X-6691353Y50379961D01*
X-6691353Y50379961D02*
X-6596115Y50427580D01*
X-5977068Y49332342D02*
X-5215163Y49332342D01*
X-4453258Y49427580D02*
X-5024686Y49427580D01*
X-4738972Y49427580D02*
X-4738972Y50427580D01*
X-4738972Y50427580D02*
X-4834210Y50284723D01*
X-4834210Y50284723D02*
X-4929448Y50189485D01*
X-4929448Y50189485D02*
X-5024686Y50141866D01*
X-4024686Y49522819D02*
X-3977067Y49475200D01*
X-3977067Y49475200D02*
X-4024686Y49427580D01*
X-4024686Y49427580D02*
X-4072305Y49475200D01*
X-4072305Y49475200D02*
X-4024686Y49522819D01*
X-4024686Y49522819D02*
X-4024686Y49427580D01*
X-3596115Y50332342D02*
X-3548496Y50379961D01*
X-3548496Y50379961D02*
X-3453258Y50427580D01*
X-3453258Y50427580D02*
X-3215163Y50427580D01*
X-3215163Y50427580D02*
X-3119925Y50379961D01*
X-3119925Y50379961D02*
X-3072306Y50332342D01*
X-3072306Y50332342D02*
X-3024687Y50237104D01*
X-3024687Y50237104D02*
X-3024687Y50141866D01*
X-3024687Y50141866D02*
X-3072306Y49999009D01*
X-3072306Y49999009D02*
X-3643734Y49427580D01*
X-3643734Y49427580D02*
X-3024687Y49427580D01*
X-2738972Y50427580D02*
X-2405639Y49427580D01*
X-2405639Y49427580D02*
X-2072306Y50427580D01*
X16296265Y1175200D02*
X16439122Y1127580D01*
X16439122Y1127580D02*
X16677217Y1127580D01*
X16677217Y1127580D02*
X16772455Y1175200D01*
X16772455Y1175200D02*
X16820074Y1222819D01*
X16820074Y1222819D02*
X16867693Y1318057D01*
X16867693Y1318057D02*
X16867693Y1413295D01*
X16867693Y1413295D02*
X16820074Y1508533D01*
X16820074Y1508533D02*
X16772455Y1556152D01*
X16772455Y1556152D02*
X16677217Y1603771D01*
X16677217Y1603771D02*
X16486741Y1651390D01*
X16486741Y1651390D02*
X16391503Y1699009D01*
X16391503Y1699009D02*
X16343884Y1746628D01*
X16343884Y1746628D02*
X16296265Y1841866D01*
X16296265Y1841866D02*
X16296265Y1937104D01*
X16296265Y1937104D02*
X16343884Y2032342D01*
X16343884Y2032342D02*
X16391503Y2079961D01*
X16391503Y2079961D02*
X16486741Y2127580D01*
X16486741Y2127580D02*
X16724836Y2127580D01*
X16724836Y2127580D02*
X16867693Y2079961D01*
X17296265Y1127580D02*
X17296265Y1794247D01*
X17296265Y2127580D02*
X17248646Y2079961D01*
X17248646Y2079961D02*
X17296265Y2032342D01*
X17296265Y2032342D02*
X17343884Y2079961D01*
X17343884Y2079961D02*
X17296265Y2127580D01*
X17296265Y2127580D02*
X17296265Y2032342D01*
X17772455Y1794247D02*
X17772455Y1127580D01*
X17772455Y1699009D02*
X17820074Y1746628D01*
X17820074Y1746628D02*
X17915312Y1794247D01*
X17915312Y1794247D02*
X18058169Y1794247D01*
X18058169Y1794247D02*
X18153407Y1746628D01*
X18153407Y1746628D02*
X18201026Y1651390D01*
X18201026Y1651390D02*
X18201026Y1127580D01*
X19105788Y1794247D02*
X19105788Y984723D01*
X19105788Y984723D02*
X19058169Y889485D01*
X19058169Y889485D02*
X19010550Y841866D01*
X19010550Y841866D02*
X18915312Y794247D01*
X18915312Y794247D02*
X18772455Y794247D01*
X18772455Y794247D02*
X18677217Y841866D01*
X19105788Y1175200D02*
X19010550Y1127580D01*
X19010550Y1127580D02*
X18820074Y1127580D01*
X18820074Y1127580D02*
X18724836Y1175200D01*
X18724836Y1175200D02*
X18677217Y1222819D01*
X18677217Y1222819D02*
X18629598Y1318057D01*
X18629598Y1318057D02*
X18629598Y1603771D01*
X18629598Y1603771D02*
X18677217Y1699009D01*
X18677217Y1699009D02*
X18724836Y1746628D01*
X18724836Y1746628D02*
X18820074Y1794247D01*
X18820074Y1794247D02*
X19010550Y1794247D01*
X19010550Y1794247D02*
X19105788Y1746628D01*
X19724836Y1127580D02*
X19629598Y1175200D01*
X19629598Y1175200D02*
X19581979Y1270438D01*
X19581979Y1270438D02*
X19581979Y2127580D01*
X20486741Y1175200D02*
X20391503Y1127580D01*
X20391503Y1127580D02*
X20201027Y1127580D01*
X20201027Y1127580D02*
X20105789Y1175200D01*
X20105789Y1175200D02*
X20058170Y1270438D01*
X20058170Y1270438D02*
X20058170Y1651390D01*
X20058170Y1651390D02*
X20105789Y1746628D01*
X20105789Y1746628D02*
X20201027Y1794247D01*
X20201027Y1794247D02*
X20391503Y1794247D01*
X20391503Y1794247D02*
X20486741Y1746628D01*
X20486741Y1746628D02*
X20534360Y1651390D01*
X20534360Y1651390D02*
X20534360Y1556152D01*
X20534360Y1556152D02*
X20058170Y1460914D01*
X20962932Y1651390D02*
X21296265Y1651390D01*
X21439122Y1127580D02*
X20962932Y1127580D01*
X20962932Y1127580D02*
X20962932Y2127580D01*
X20962932Y2127580D02*
X21439122Y2127580D01*
X21867694Y1794247D02*
X21867694Y1127580D01*
X21867694Y1699009D02*
X21915313Y1746628D01*
X21915313Y1746628D02*
X22010551Y1794247D01*
X22010551Y1794247D02*
X22153408Y1794247D01*
X22153408Y1794247D02*
X22248646Y1746628D01*
X22248646Y1746628D02*
X22296265Y1651390D01*
X22296265Y1651390D02*
X22296265Y1127580D01*
X23201027Y1127580D02*
X23201027Y2127580D01*
X23201027Y1175200D02*
X23105789Y1127580D01*
X23105789Y1127580D02*
X22915313Y1127580D01*
X22915313Y1127580D02*
X22820075Y1175200D01*
X22820075Y1175200D02*
X22772456Y1222819D01*
X22772456Y1222819D02*
X22724837Y1318057D01*
X22724837Y1318057D02*
X22724837Y1603771D01*
X22724837Y1603771D02*
X22772456Y1699009D01*
X22772456Y1699009D02*
X22820075Y1746628D01*
X22820075Y1746628D02*
X22915313Y1794247D01*
X22915313Y1794247D02*
X23105789Y1794247D01*
X23105789Y1794247D02*
X23201027Y1746628D01*
X24439123Y1222819D02*
X24486742Y1175200D01*
X24486742Y1175200D02*
X24439123Y1127580D01*
X24439123Y1127580D02*
X24391504Y1175200D01*
X24391504Y1175200D02*
X24439123Y1222819D01*
X24439123Y1222819D02*
X24439123Y1127580D01*
X24439123Y1746628D02*
X24486742Y1699009D01*
X24486742Y1699009D02*
X24439123Y1651390D01*
X24439123Y1651390D02*
X24391504Y1699009D01*
X24391504Y1699009D02*
X24439123Y1746628D01*
X24439123Y1746628D02*
X24439123Y1651390D01*
X26153408Y1127580D02*
X25677218Y1127580D01*
X25677218Y1127580D02*
X25677218Y2127580D01*
X26343885Y2127580D02*
X26677218Y1127580D01*
X26677218Y1127580D02*
X27010551Y2127580D01*
X27915313Y1222819D02*
X27867694Y1175200D01*
X27867694Y1175200D02*
X27724837Y1127580D01*
X27724837Y1127580D02*
X27629599Y1127580D01*
X27629599Y1127580D02*
X27486742Y1175200D01*
X27486742Y1175200D02*
X27391504Y1270438D01*
X27391504Y1270438D02*
X27343885Y1365676D01*
X27343885Y1365676D02*
X27296266Y1556152D01*
X27296266Y1556152D02*
X27296266Y1699009D01*
X27296266Y1699009D02*
X27343885Y1889485D01*
X27343885Y1889485D02*
X27391504Y1984723D01*
X27391504Y1984723D02*
X27486742Y2079961D01*
X27486742Y2079961D02*
X27629599Y2127580D01*
X27629599Y2127580D02*
X27724837Y2127580D01*
X27724837Y2127580D02*
X27867694Y2079961D01*
X27867694Y2079961D02*
X27915313Y2032342D01*
X28343885Y1127580D02*
X28343885Y2127580D01*
X28343885Y2127580D02*
X28677218Y1413295D01*
X28677218Y1413295D02*
X29010551Y2127580D01*
X29010551Y2127580D02*
X29010551Y1127580D01*
X29677218Y2127580D02*
X29867694Y2127580D01*
X29867694Y2127580D02*
X29962932Y2079961D01*
X29962932Y2079961D02*
X30058170Y1984723D01*
X30058170Y1984723D02*
X30105789Y1794247D01*
X30105789Y1794247D02*
X30105789Y1460914D01*
X30105789Y1460914D02*
X30058170Y1270438D01*
X30058170Y1270438D02*
X29962932Y1175200D01*
X29962932Y1175200D02*
X29867694Y1127580D01*
X29867694Y1127580D02*
X29677218Y1127580D01*
X29677218Y1127580D02*
X29581980Y1175200D01*
X29581980Y1175200D02*
X29486742Y1270438D01*
X29486742Y1270438D02*
X29439123Y1460914D01*
X29439123Y1460914D02*
X29439123Y1794247D01*
X29439123Y1794247D02*
X29486742Y1984723D01*
X29486742Y1984723D02*
X29581980Y2079961D01*
X29581980Y2079961D02*
X29677218Y2127580D01*
X30486742Y1175200D02*
X30629599Y1127580D01*
X30629599Y1127580D02*
X30867694Y1127580D01*
X30867694Y1127580D02*
X30962932Y1175200D01*
X30962932Y1175200D02*
X31010551Y1222819D01*
X31010551Y1222819D02*
X31058170Y1318057D01*
X31058170Y1318057D02*
X31058170Y1413295D01*
X31058170Y1413295D02*
X31010551Y1508533D01*
X31010551Y1508533D02*
X30962932Y1556152D01*
X30962932Y1556152D02*
X30867694Y1603771D01*
X30867694Y1603771D02*
X30677218Y1651390D01*
X30677218Y1651390D02*
X30581980Y1699009D01*
X30581980Y1699009D02*
X30534361Y1746628D01*
X30534361Y1746628D02*
X30486742Y1841866D01*
X30486742Y1841866D02*
X30486742Y1937104D01*
X30486742Y1937104D02*
X30534361Y2032342D01*
X30534361Y2032342D02*
X30581980Y2079961D01*
X30581980Y2079961D02*
X30677218Y2127580D01*
X30677218Y2127580D02*
X30915313Y2127580D01*
X30915313Y2127580D02*
X31058170Y2079961D01*
X31439123Y2032342D02*
X31486742Y2079961D01*
X31486742Y2079961D02*
X31581980Y2127580D01*
X31581980Y2127580D02*
X31820075Y2127580D01*
X31820075Y2127580D02*
X31915313Y2079961D01*
X31915313Y2079961D02*
X31962932Y2032342D01*
X31962932Y2032342D02*
X32010551Y1937104D01*
X32010551Y1937104D02*
X32010551Y1841866D01*
X32010551Y1841866D02*
X31962932Y1699009D01*
X31962932Y1699009D02*
X31391504Y1127580D01*
X31391504Y1127580D02*
X32010551Y1127580D01*
X32915313Y2127580D02*
X32439123Y2127580D01*
X32439123Y2127580D02*
X32391504Y1651390D01*
X32391504Y1651390D02*
X32439123Y1699009D01*
X32439123Y1699009D02*
X32534361Y1746628D01*
X32534361Y1746628D02*
X32772456Y1746628D01*
X32772456Y1746628D02*
X32867694Y1699009D01*
X32867694Y1699009D02*
X32915313Y1651390D01*
X32915313Y1651390D02*
X32962932Y1556152D01*
X32962932Y1556152D02*
X32962932Y1318057D01*
X32962932Y1318057D02*
X32915313Y1222819D01*
X32915313Y1222819D02*
X32867694Y1175200D01*
X32867694Y1175200D02*
X32772456Y1127580D01*
X32772456Y1127580D02*
X32534361Y1127580D01*
X32534361Y1127580D02*
X32439123Y1175200D01*
X32439123Y1175200D02*
X32391504Y1222819D01*
X16703884Y53327580D02*
X16703884Y54327580D01*
X17132455Y54232342D02*
X17180074Y54279961D01*
X17180074Y54279961D02*
X17275312Y54327580D01*
X17275312Y54327580D02*
X17513407Y54327580D01*
X17513407Y54327580D02*
X17608645Y54279961D01*
X17608645Y54279961D02*
X17656264Y54232342D01*
X17656264Y54232342D02*
X17703883Y54137104D01*
X17703883Y54137104D02*
X17703883Y54041866D01*
X17703883Y54041866D02*
X17656264Y53899009D01*
X17656264Y53899009D02*
X17084836Y53327580D01*
X17084836Y53327580D02*
X17703883Y53327580D01*
X18703883Y53422819D02*
X18656264Y53375200D01*
X18656264Y53375200D02*
X18513407Y53327580D01*
X18513407Y53327580D02*
X18418169Y53327580D01*
X18418169Y53327580D02*
X18275312Y53375200D01*
X18275312Y53375200D02*
X18180074Y53470438D01*
X18180074Y53470438D02*
X18132455Y53565676D01*
X18132455Y53565676D02*
X18084836Y53756152D01*
X18084836Y53756152D02*
X18084836Y53899009D01*
X18084836Y53899009D02*
X18132455Y54089485D01*
X18132455Y54089485D02*
X18180074Y54184723D01*
X18180074Y54184723D02*
X18275312Y54279961D01*
X18275312Y54279961D02*
X18418169Y54327580D01*
X18418169Y54327580D02*
X18513407Y54327580D01*
X18513407Y54327580D02*
X18656264Y54279961D01*
X18656264Y54279961D02*
X18703883Y54232342D01*
X18894360Y53232342D02*
X19656264Y53232342D01*
X19799122Y54327580D02*
X20037217Y53327580D01*
X20037217Y53327580D02*
X20227693Y54041866D01*
X20227693Y54041866D02*
X20418169Y53327580D01*
X20418169Y53327580D02*
X20656265Y54327580D01*
X20989598Y53375200D02*
X21132455Y53327580D01*
X21132455Y53327580D02*
X21370550Y53327580D01*
X21370550Y53327580D02*
X21465788Y53375200D01*
X21465788Y53375200D02*
X21513407Y53422819D01*
X21513407Y53422819D02*
X21561026Y53518057D01*
X21561026Y53518057D02*
X21561026Y53613295D01*
X21561026Y53613295D02*
X21513407Y53708533D01*
X21513407Y53708533D02*
X21465788Y53756152D01*
X21465788Y53756152D02*
X21370550Y53803771D01*
X21370550Y53803771D02*
X21180074Y53851390D01*
X21180074Y53851390D02*
X21084836Y53899009D01*
X21084836Y53899009D02*
X21037217Y53946628D01*
X21037217Y53946628D02*
X20989598Y54041866D01*
X20989598Y54041866D02*
X20989598Y54137104D01*
X20989598Y54137104D02*
X21037217Y54232342D01*
X21037217Y54232342D02*
X21084836Y54279961D01*
X21084836Y54279961D02*
X21180074Y54327580D01*
X21180074Y54327580D02*
X21418169Y54327580D01*
X21418169Y54327580D02*
X21561026Y54279961D01*
X27878884Y98202580D02*
X27878884Y99202580D01*
X28307455Y99107342D02*
X28355074Y99154961D01*
X28355074Y99154961D02*
X28450312Y99202580D01*
X28450312Y99202580D02*
X28688407Y99202580D01*
X28688407Y99202580D02*
X28783645Y99154961D01*
X28783645Y99154961D02*
X28831264Y99107342D01*
X28831264Y99107342D02*
X28878883Y99012104D01*
X28878883Y99012104D02*
X28878883Y98916866D01*
X28878883Y98916866D02*
X28831264Y98774009D01*
X28831264Y98774009D02*
X28259836Y98202580D01*
X28259836Y98202580D02*
X28878883Y98202580D01*
X29878883Y98297819D02*
X29831264Y98250200D01*
X29831264Y98250200D02*
X29688407Y98202580D01*
X29688407Y98202580D02*
X29593169Y98202580D01*
X29593169Y98202580D02*
X29450312Y98250200D01*
X29450312Y98250200D02*
X29355074Y98345438D01*
X29355074Y98345438D02*
X29307455Y98440676D01*
X29307455Y98440676D02*
X29259836Y98631152D01*
X29259836Y98631152D02*
X29259836Y98774009D01*
X29259836Y98774009D02*
X29307455Y98964485D01*
X29307455Y98964485D02*
X29355074Y99059723D01*
X29355074Y99059723D02*
X29450312Y99154961D01*
X29450312Y99154961D02*
X29593169Y99202580D01*
X29593169Y99202580D02*
X29688407Y99202580D01*
X29688407Y99202580D02*
X29831264Y99154961D01*
X29831264Y99154961D02*
X29878883Y99107342D01*
X30069360Y98107342D02*
X30831264Y98107342D01*
X31069360Y98726390D02*
X31402693Y98726390D01*
X31545550Y98202580D02*
X31069360Y98202580D01*
X31069360Y98202580D02*
X31069360Y99202580D01*
X31069360Y99202580D02*
X31545550Y99202580D01*
X31831265Y99202580D02*
X32402693Y99202580D01*
X32116979Y98202580D02*
X32116979Y99202580D01*
X33307455Y98202580D02*
X32974122Y98678771D01*
X32736027Y98202580D02*
X32736027Y99202580D01*
X32736027Y99202580D02*
X33116979Y99202580D01*
X33116979Y99202580D02*
X33212217Y99154961D01*
X33212217Y99154961D02*
X33259836Y99107342D01*
X33259836Y99107342D02*
X33307455Y99012104D01*
X33307455Y99012104D02*
X33307455Y98869247D01*
X33307455Y98869247D02*
X33259836Y98774009D01*
X33259836Y98774009D02*
X33212217Y98726390D01*
X33212217Y98726390D02*
X33116979Y98678771D01*
X33116979Y98678771D02*
X32736027Y98678771D01*
X33926503Y99202580D02*
X34116979Y99202580D01*
X34116979Y99202580D02*
X34212217Y99154961D01*
X34212217Y99154961D02*
X34307455Y99059723D01*
X34307455Y99059723D02*
X34355074Y98869247D01*
X34355074Y98869247D02*
X34355074Y98535914D01*
X34355074Y98535914D02*
X34307455Y98345438D01*
X34307455Y98345438D02*
X34212217Y98250200D01*
X34212217Y98250200D02*
X34116979Y98202580D01*
X34116979Y98202580D02*
X33926503Y98202580D01*
X33926503Y98202580D02*
X33831265Y98250200D01*
X33831265Y98250200D02*
X33736027Y98345438D01*
X33736027Y98345438D02*
X33688408Y98535914D01*
X33688408Y98535914D02*
X33688408Y98869247D01*
X33688408Y98869247D02*
X33736027Y99059723D01*
X33736027Y99059723D02*
X33831265Y99154961D01*
X33831265Y99154961D02*
X33926503Y99202580D01*
X35355074Y98297819D02*
X35307455Y98250200D01*
X35307455Y98250200D02*
X35164598Y98202580D01*
X35164598Y98202580D02*
X35069360Y98202580D01*
X35069360Y98202580D02*
X34926503Y98250200D01*
X34926503Y98250200D02*
X34831265Y98345438D01*
X34831265Y98345438D02*
X34783646Y98440676D01*
X34783646Y98440676D02*
X34736027Y98631152D01*
X34736027Y98631152D02*
X34736027Y98774009D01*
X34736027Y98774009D02*
X34783646Y98964485D01*
X34783646Y98964485D02*
X34831265Y99059723D01*
X34831265Y99059723D02*
X34926503Y99154961D01*
X34926503Y99154961D02*
X35069360Y99202580D01*
X35069360Y99202580D02*
X35164598Y99202580D01*
X35164598Y99202580D02*
X35307455Y99154961D01*
X35307455Y99154961D02*
X35355074Y99107342D01*
X39315312Y66722819D02*
X39267693Y66675200D01*
X39267693Y66675200D02*
X39124836Y66627580D01*
X39124836Y66627580D02*
X39029598Y66627580D01*
X39029598Y66627580D02*
X38886741Y66675200D01*
X38886741Y66675200D02*
X38791503Y66770438D01*
X38791503Y66770438D02*
X38743884Y66865676D01*
X38743884Y66865676D02*
X38696265Y67056152D01*
X38696265Y67056152D02*
X38696265Y67199009D01*
X38696265Y67199009D02*
X38743884Y67389485D01*
X38743884Y67389485D02*
X38791503Y67484723D01*
X38791503Y67484723D02*
X38886741Y67579961D01*
X38886741Y67579961D02*
X39029598Y67627580D01*
X39029598Y67627580D02*
X39124836Y67627580D01*
X39124836Y67627580D02*
X39267693Y67579961D01*
X39267693Y67579961D02*
X39315312Y67532342D01*
X40220074Y66627580D02*
X39743884Y66627580D01*
X39743884Y66627580D02*
X39743884Y67627580D01*
X40553408Y66627580D02*
X40553408Y67627580D01*
X41124836Y66627580D02*
X40696265Y67199009D01*
X41124836Y67627580D02*
X40553408Y67056152D01*
X41981979Y67294247D02*
X41981979Y66627580D01*
X41743884Y67675200D02*
X41505789Y66960914D01*
X41505789Y66960914D02*
X42124836Y66960914D01*
X42696265Y67627580D02*
X42791503Y67627580D01*
X42791503Y67627580D02*
X42886741Y67579961D01*
X42886741Y67579961D02*
X42934360Y67532342D01*
X42934360Y67532342D02*
X42981979Y67437104D01*
X42981979Y67437104D02*
X43029598Y67246628D01*
X43029598Y67246628D02*
X43029598Y67008533D01*
X43029598Y67008533D02*
X42981979Y66818057D01*
X42981979Y66818057D02*
X42934360Y66722819D01*
X42934360Y66722819D02*
X42886741Y66675200D01*
X42886741Y66675200D02*
X42791503Y66627580D01*
X42791503Y66627580D02*
X42696265Y66627580D01*
X42696265Y66627580D02*
X42601027Y66675200D01*
X42601027Y66675200D02*
X42553408Y66722819D01*
X42553408Y66722819D02*
X42505789Y66818057D01*
X42505789Y66818057D02*
X42458170Y67008533D01*
X42458170Y67008533D02*
X42458170Y67246628D01*
X42458170Y67246628D02*
X42505789Y67437104D01*
X42505789Y67437104D02*
X42553408Y67532342D01*
X42553408Y67532342D02*
X42601027Y67579961D01*
X42601027Y67579961D02*
X42696265Y67627580D01*
X39283884Y1127580D02*
X39283884Y2127580D01*
X39283884Y2127580D02*
X39521979Y2127580D01*
X39521979Y2127580D02*
X39664836Y2079961D01*
X39664836Y2079961D02*
X39760074Y1984723D01*
X39760074Y1984723D02*
X39807693Y1889485D01*
X39807693Y1889485D02*
X39855312Y1699009D01*
X39855312Y1699009D02*
X39855312Y1556152D01*
X39855312Y1556152D02*
X39807693Y1365676D01*
X39807693Y1365676D02*
X39760074Y1270438D01*
X39760074Y1270438D02*
X39664836Y1175200D01*
X39664836Y1175200D02*
X39521979Y1127580D01*
X39521979Y1127580D02*
X39283884Y1127580D01*
X40283884Y1127580D02*
X40283884Y1794247D01*
X40283884Y2127580D02*
X40236265Y2079961D01*
X40236265Y2079961D02*
X40283884Y2032342D01*
X40283884Y2032342D02*
X40331503Y2079961D01*
X40331503Y2079961D02*
X40283884Y2127580D01*
X40283884Y2127580D02*
X40283884Y2032342D01*
X40617217Y1794247D02*
X40998169Y1794247D01*
X40760074Y1127580D02*
X40760074Y1984723D01*
X40760074Y1984723D02*
X40807693Y2079961D01*
X40807693Y2079961D02*
X40902931Y2127580D01*
X40902931Y2127580D02*
X40998169Y2127580D01*
X41188646Y1794247D02*
X41569598Y1794247D01*
X41331503Y1127580D02*
X41331503Y1984723D01*
X41331503Y1984723D02*
X41379122Y2079961D01*
X41379122Y2079961D02*
X41474360Y2127580D01*
X41474360Y2127580D02*
X41569598Y2127580D01*
X42283884Y1175200D02*
X42188646Y1127580D01*
X42188646Y1127580D02*
X41998170Y1127580D01*
X41998170Y1127580D02*
X41902932Y1175200D01*
X41902932Y1175200D02*
X41855313Y1270438D01*
X41855313Y1270438D02*
X41855313Y1651390D01*
X41855313Y1651390D02*
X41902932Y1746628D01*
X41902932Y1746628D02*
X41998170Y1794247D01*
X41998170Y1794247D02*
X42188646Y1794247D01*
X42188646Y1794247D02*
X42283884Y1746628D01*
X42283884Y1746628D02*
X42331503Y1651390D01*
X42331503Y1651390D02*
X42331503Y1556152D01*
X42331503Y1556152D02*
X41855313Y1460914D01*
X42760075Y1127580D02*
X42760075Y1794247D01*
X42760075Y1603771D02*
X42807694Y1699009D01*
X42807694Y1699009D02*
X42855313Y1746628D01*
X42855313Y1746628D02*
X42950551Y1794247D01*
X42950551Y1794247D02*
X43045789Y1794247D01*
X43760075Y1175200D02*
X43664837Y1127580D01*
X43664837Y1127580D02*
X43474361Y1127580D01*
X43474361Y1127580D02*
X43379123Y1175200D01*
X43379123Y1175200D02*
X43331504Y1270438D01*
X43331504Y1270438D02*
X43331504Y1651390D01*
X43331504Y1651390D02*
X43379123Y1746628D01*
X43379123Y1746628D02*
X43474361Y1794247D01*
X43474361Y1794247D02*
X43664837Y1794247D01*
X43664837Y1794247D02*
X43760075Y1746628D01*
X43760075Y1746628D02*
X43807694Y1651390D01*
X43807694Y1651390D02*
X43807694Y1556152D01*
X43807694Y1556152D02*
X43331504Y1460914D01*
X44236266Y1794247D02*
X44236266Y1127580D01*
X44236266Y1699009D02*
X44283885Y1746628D01*
X44283885Y1746628D02*
X44379123Y1794247D01*
X44379123Y1794247D02*
X44521980Y1794247D01*
X44521980Y1794247D02*
X44617218Y1746628D01*
X44617218Y1746628D02*
X44664837Y1651390D01*
X44664837Y1651390D02*
X44664837Y1127580D01*
X44998171Y1794247D02*
X45379123Y1794247D01*
X45141028Y2127580D02*
X45141028Y1270438D01*
X45141028Y1270438D02*
X45188647Y1175200D01*
X45188647Y1175200D02*
X45283885Y1127580D01*
X45283885Y1127580D02*
X45379123Y1127580D01*
X45712457Y1127580D02*
X45712457Y1794247D01*
X45712457Y2127580D02*
X45664838Y2079961D01*
X45664838Y2079961D02*
X45712457Y2032342D01*
X45712457Y2032342D02*
X45760076Y2079961D01*
X45760076Y2079961D02*
X45712457Y2127580D01*
X45712457Y2127580D02*
X45712457Y2032342D01*
X46617218Y1127580D02*
X46617218Y1651390D01*
X46617218Y1651390D02*
X46569599Y1746628D01*
X46569599Y1746628D02*
X46474361Y1794247D01*
X46474361Y1794247D02*
X46283885Y1794247D01*
X46283885Y1794247D02*
X46188647Y1746628D01*
X46617218Y1175200D02*
X46521980Y1127580D01*
X46521980Y1127580D02*
X46283885Y1127580D01*
X46283885Y1127580D02*
X46188647Y1175200D01*
X46188647Y1175200D02*
X46141028Y1270438D01*
X46141028Y1270438D02*
X46141028Y1365676D01*
X46141028Y1365676D02*
X46188647Y1460914D01*
X46188647Y1460914D02*
X46283885Y1508533D01*
X46283885Y1508533D02*
X46521980Y1508533D01*
X46521980Y1508533D02*
X46617218Y1556152D01*
X47236266Y1127580D02*
X47141028Y1175200D01*
X47141028Y1175200D02*
X47093409Y1270438D01*
X47093409Y1270438D02*
X47093409Y2127580D01*
X48379124Y1222819D02*
X48426743Y1175200D01*
X48426743Y1175200D02*
X48379124Y1127580D01*
X48379124Y1127580D02*
X48331505Y1175200D01*
X48331505Y1175200D02*
X48379124Y1222819D01*
X48379124Y1222819D02*
X48379124Y1127580D01*
X48379124Y1746628D02*
X48426743Y1699009D01*
X48426743Y1699009D02*
X48379124Y1651390D01*
X48379124Y1651390D02*
X48331505Y1699009D01*
X48331505Y1699009D02*
X48379124Y1746628D01*
X48379124Y1746628D02*
X48379124Y1651390D01*
X50093409Y1127580D02*
X49617219Y1127580D01*
X49617219Y1127580D02*
X49617219Y2127580D01*
X50283886Y2127580D02*
X50617219Y1127580D01*
X50617219Y1127580D02*
X50950552Y2127580D01*
X51283886Y1127580D02*
X51283886Y2127580D01*
X51283886Y2127580D02*
X51521981Y2127580D01*
X51521981Y2127580D02*
X51664838Y2079961D01*
X51664838Y2079961D02*
X51760076Y1984723D01*
X51760076Y1984723D02*
X51807695Y1889485D01*
X51807695Y1889485D02*
X51855314Y1699009D01*
X51855314Y1699009D02*
X51855314Y1556152D01*
X51855314Y1556152D02*
X51807695Y1365676D01*
X51807695Y1365676D02*
X51760076Y1270438D01*
X51760076Y1270438D02*
X51664838Y1175200D01*
X51664838Y1175200D02*
X51521981Y1127580D01*
X51521981Y1127580D02*
X51283886Y1127580D01*
X52236267Y1175200D02*
X52379124Y1127580D01*
X52379124Y1127580D02*
X52617219Y1127580D01*
X52617219Y1127580D02*
X52712457Y1175200D01*
X52712457Y1175200D02*
X52760076Y1222819D01*
X52760076Y1222819D02*
X52807695Y1318057D01*
X52807695Y1318057D02*
X52807695Y1413295D01*
X52807695Y1413295D02*
X52760076Y1508533D01*
X52760076Y1508533D02*
X52712457Y1556152D01*
X52712457Y1556152D02*
X52617219Y1603771D01*
X52617219Y1603771D02*
X52426743Y1651390D01*
X52426743Y1651390D02*
X52331505Y1699009D01*
X52331505Y1699009D02*
X52283886Y1746628D01*
X52283886Y1746628D02*
X52236267Y1841866D01*
X52236267Y1841866D02*
X52236267Y1937104D01*
X52236267Y1937104D02*
X52283886Y2032342D01*
X52283886Y2032342D02*
X52331505Y2079961D01*
X52331505Y2079961D02*
X52426743Y2127580D01*
X52426743Y2127580D02*
X52664838Y2127580D01*
X52664838Y2127580D02*
X52807695Y2079961D01*
X53188648Y2032342D02*
X53236267Y2079961D01*
X53236267Y2079961D02*
X53331505Y2127580D01*
X53331505Y2127580D02*
X53569600Y2127580D01*
X53569600Y2127580D02*
X53664838Y2079961D01*
X53664838Y2079961D02*
X53712457Y2032342D01*
X53712457Y2032342D02*
X53760076Y1937104D01*
X53760076Y1937104D02*
X53760076Y1841866D01*
X53760076Y1841866D02*
X53712457Y1699009D01*
X53712457Y1699009D02*
X53141029Y1127580D01*
X53141029Y1127580D02*
X53760076Y1127580D01*
X54664838Y2127580D02*
X54188648Y2127580D01*
X54188648Y2127580D02*
X54141029Y1651390D01*
X54141029Y1651390D02*
X54188648Y1699009D01*
X54188648Y1699009D02*
X54283886Y1746628D01*
X54283886Y1746628D02*
X54521981Y1746628D01*
X54521981Y1746628D02*
X54617219Y1699009D01*
X54617219Y1699009D02*
X54664838Y1651390D01*
X54664838Y1651390D02*
X54712457Y1556152D01*
X54712457Y1556152D02*
X54712457Y1318057D01*
X54712457Y1318057D02*
X54664838Y1222819D01*
X54664838Y1222819D02*
X54617219Y1175200D01*
X54617219Y1175200D02*
X54521981Y1127580D01*
X54521981Y1127580D02*
X54283886Y1127580D01*
X54283886Y1127580D02*
X54188648Y1175200D01*
X54188648Y1175200D02*
X54141029Y1222819D01*
X40483884Y117917580D02*
X40483884Y118917580D01*
X41055312Y117917580D02*
X40626741Y118489009D01*
X41055312Y118917580D02*
X40483884Y118346152D01*
X41626741Y117917580D02*
X41531503Y117965200D01*
X41531503Y117965200D02*
X41483884Y118012819D01*
X41483884Y118012819D02*
X41436265Y118108057D01*
X41436265Y118108057D02*
X41436265Y118393771D01*
X41436265Y118393771D02*
X41483884Y118489009D01*
X41483884Y118489009D02*
X41531503Y118536628D01*
X41531503Y118536628D02*
X41626741Y118584247D01*
X41626741Y118584247D02*
X41769598Y118584247D01*
X41769598Y118584247D02*
X41864836Y118536628D01*
X41864836Y118536628D02*
X41912455Y118489009D01*
X41912455Y118489009D02*
X41960074Y118393771D01*
X41960074Y118393771D02*
X41960074Y118108057D01*
X41960074Y118108057D02*
X41912455Y118012819D01*
X41912455Y118012819D02*
X41864836Y117965200D01*
X41864836Y117965200D02*
X41769598Y117917580D01*
X41769598Y117917580D02*
X41626741Y117917580D01*
X42388646Y117917580D02*
X42388646Y118584247D01*
X42388646Y118393771D02*
X42436265Y118489009D01*
X42436265Y118489009D02*
X42483884Y118536628D01*
X42483884Y118536628D02*
X42579122Y118584247D01*
X42579122Y118584247D02*
X42674360Y118584247D01*
X43388646Y117965200D02*
X43293408Y117917580D01*
X43293408Y117917580D02*
X43102932Y117917580D01*
X43102932Y117917580D02*
X43007694Y117965200D01*
X43007694Y117965200D02*
X42960075Y118060438D01*
X42960075Y118060438D02*
X42960075Y118441390D01*
X42960075Y118441390D02*
X43007694Y118536628D01*
X43007694Y118536628D02*
X43102932Y118584247D01*
X43102932Y118584247D02*
X43293408Y118584247D01*
X43293408Y118584247D02*
X43388646Y118536628D01*
X43388646Y118536628D02*
X43436265Y118441390D01*
X43436265Y118441390D02*
X43436265Y118346152D01*
X43436265Y118346152D02*
X42960075Y118250914D01*
X44293408Y117917580D02*
X44293408Y118441390D01*
X44293408Y118441390D02*
X44245789Y118536628D01*
X44245789Y118536628D02*
X44150551Y118584247D01*
X44150551Y118584247D02*
X43960075Y118584247D01*
X43960075Y118584247D02*
X43864837Y118536628D01*
X44293408Y117965200D02*
X44198170Y117917580D01*
X44198170Y117917580D02*
X43960075Y117917580D01*
X43960075Y117917580D02*
X43864837Y117965200D01*
X43864837Y117965200D02*
X43817218Y118060438D01*
X43817218Y118060438D02*
X43817218Y118155676D01*
X43817218Y118155676D02*
X43864837Y118250914D01*
X43864837Y118250914D02*
X43960075Y118298533D01*
X43960075Y118298533D02*
X44198170Y118298533D01*
X44198170Y118298533D02*
X44293408Y118346152D01*
X45531504Y118917580D02*
X45531504Y118108057D01*
X45531504Y118108057D02*
X45579123Y118012819D01*
X45579123Y118012819D02*
X45626742Y117965200D01*
X45626742Y117965200D02*
X45721980Y117917580D01*
X45721980Y117917580D02*
X45912456Y117917580D01*
X45912456Y117917580D02*
X46007694Y117965200D01*
X46007694Y117965200D02*
X46055313Y118012819D01*
X46055313Y118012819D02*
X46102932Y118108057D01*
X46102932Y118108057D02*
X46102932Y118917580D01*
X46579123Y118584247D02*
X46579123Y117917580D01*
X46579123Y118489009D02*
X46626742Y118536628D01*
X46626742Y118536628D02*
X46721980Y118584247D01*
X46721980Y118584247D02*
X46864837Y118584247D01*
X46864837Y118584247D02*
X46960075Y118536628D01*
X46960075Y118536628D02*
X47007694Y118441390D01*
X47007694Y118441390D02*
X47007694Y117917580D01*
X47483885Y117917580D02*
X47483885Y118584247D01*
X47483885Y118917580D02*
X47436266Y118869961D01*
X47436266Y118869961D02*
X47483885Y118822342D01*
X47483885Y118822342D02*
X47531504Y118869961D01*
X47531504Y118869961D02*
X47483885Y118917580D01*
X47483885Y118917580D02*
X47483885Y118822342D01*
X47864837Y118584247D02*
X48102932Y117917580D01*
X48102932Y117917580D02*
X48341027Y118584247D01*
X49102932Y117965200D02*
X49007694Y117917580D01*
X49007694Y117917580D02*
X48817218Y117917580D01*
X48817218Y117917580D02*
X48721980Y117965200D01*
X48721980Y117965200D02*
X48674361Y118060438D01*
X48674361Y118060438D02*
X48674361Y118441390D01*
X48674361Y118441390D02*
X48721980Y118536628D01*
X48721980Y118536628D02*
X48817218Y118584247D01*
X48817218Y118584247D02*
X49007694Y118584247D01*
X49007694Y118584247D02*
X49102932Y118536628D01*
X49102932Y118536628D02*
X49150551Y118441390D01*
X49150551Y118441390D02*
X49150551Y118346152D01*
X49150551Y118346152D02*
X48674361Y118250914D01*
X49579123Y117917580D02*
X49579123Y118584247D01*
X49579123Y118393771D02*
X49626742Y118489009D01*
X49626742Y118489009D02*
X49674361Y118536628D01*
X49674361Y118536628D02*
X49769599Y118584247D01*
X49769599Y118584247D02*
X49864837Y118584247D01*
X50150552Y117965200D02*
X50245790Y117917580D01*
X50245790Y117917580D02*
X50436266Y117917580D01*
X50436266Y117917580D02*
X50531504Y117965200D01*
X50531504Y117965200D02*
X50579123Y118060438D01*
X50579123Y118060438D02*
X50579123Y118108057D01*
X50579123Y118108057D02*
X50531504Y118203295D01*
X50531504Y118203295D02*
X50436266Y118250914D01*
X50436266Y118250914D02*
X50293409Y118250914D01*
X50293409Y118250914D02*
X50198171Y118298533D01*
X50198171Y118298533D02*
X50150552Y118393771D01*
X50150552Y118393771D02*
X50150552Y118441390D01*
X50150552Y118441390D02*
X50198171Y118536628D01*
X50198171Y118536628D02*
X50293409Y118584247D01*
X50293409Y118584247D02*
X50436266Y118584247D01*
X50436266Y118584247D02*
X50531504Y118536628D01*
X51007695Y117917580D02*
X51007695Y118584247D01*
X51007695Y118917580D02*
X50960076Y118869961D01*
X50960076Y118869961D02*
X51007695Y118822342D01*
X51007695Y118822342D02*
X51055314Y118869961D01*
X51055314Y118869961D02*
X51007695Y118917580D01*
X51007695Y118917580D02*
X51007695Y118822342D01*
X51341028Y118584247D02*
X51721980Y118584247D01*
X51483885Y118917580D02*
X51483885Y118060438D01*
X51483885Y118060438D02*
X51531504Y117965200D01*
X51531504Y117965200D02*
X51626742Y117917580D01*
X51626742Y117917580D02*
X51721980Y117917580D01*
X51960076Y118584247D02*
X52198171Y117917580D01*
X52436266Y118584247D02*
X52198171Y117917580D01*
X52198171Y117917580D02*
X52102933Y117679485D01*
X52102933Y117679485D02*
X52055314Y117631866D01*
X52055314Y117631866D02*
X51960076Y117584247D01*
X53579124Y117917580D02*
X53579124Y118917580D01*
X53579124Y118917580D02*
X53817219Y118917580D01*
X53817219Y118917580D02*
X53960076Y118869961D01*
X53960076Y118869961D02*
X54055314Y118774723D01*
X54055314Y118774723D02*
X54102933Y118679485D01*
X54102933Y118679485D02*
X54150552Y118489009D01*
X54150552Y118489009D02*
X54150552Y118346152D01*
X54150552Y118346152D02*
X54102933Y118155676D01*
X54102933Y118155676D02*
X54055314Y118060438D01*
X54055314Y118060438D02*
X53960076Y117965200D01*
X53960076Y117965200D02*
X53817219Y117917580D01*
X53817219Y117917580D02*
X53579124Y117917580D01*
X55150552Y117917580D02*
X54817219Y118393771D01*
X54579124Y117917580D02*
X54579124Y118917580D01*
X54579124Y118917580D02*
X54960076Y118917580D01*
X54960076Y118917580D02*
X55055314Y118869961D01*
X55055314Y118869961D02*
X55102933Y118822342D01*
X55102933Y118822342D02*
X55150552Y118727104D01*
X55150552Y118727104D02*
X55150552Y118584247D01*
X55150552Y118584247D02*
X55102933Y118489009D01*
X55102933Y118489009D02*
X55055314Y118441390D01*
X55055314Y118441390D02*
X54960076Y118393771D01*
X54960076Y118393771D02*
X54579124Y118393771D01*
X55579124Y118441390D02*
X55912457Y118441390D01*
X56055314Y117917580D02*
X55579124Y117917580D01*
X55579124Y117917580D02*
X55579124Y118917580D01*
X55579124Y118917580D02*
X56055314Y118917580D01*
X56436267Y118203295D02*
X56912457Y118203295D01*
X56341029Y117917580D02*
X56674362Y118917580D01*
X56674362Y118917580D02*
X57007695Y117917580D01*
X57341029Y117917580D02*
X57341029Y118917580D01*
X57341029Y118917580D02*
X57674362Y118203295D01*
X57674362Y118203295D02*
X58007695Y118917580D01*
X58007695Y118917580D02*
X58007695Y117917580D01*
X59721981Y117917580D02*
X59245791Y117917580D01*
X59245791Y117917580D02*
X59245791Y118917580D01*
X60007696Y118203295D02*
X60483886Y118203295D01*
X59912458Y117917580D02*
X60245791Y118917580D01*
X60245791Y118917580D02*
X60579124Y117917580D01*
X61245791Y118441390D02*
X61388648Y118393771D01*
X61388648Y118393771D02*
X61436267Y118346152D01*
X61436267Y118346152D02*
X61483886Y118250914D01*
X61483886Y118250914D02*
X61483886Y118108057D01*
X61483886Y118108057D02*
X61436267Y118012819D01*
X61436267Y118012819D02*
X61388648Y117965200D01*
X61388648Y117965200D02*
X61293410Y117917580D01*
X61293410Y117917580D02*
X60912458Y117917580D01*
X60912458Y117917580D02*
X60912458Y118917580D01*
X60912458Y118917580D02*
X61245791Y118917580D01*
X61245791Y118917580D02*
X61341029Y118869961D01*
X61341029Y118869961D02*
X61388648Y118822342D01*
X61388648Y118822342D02*
X61436267Y118727104D01*
X61436267Y118727104D02*
X61436267Y118631866D01*
X61436267Y118631866D02*
X61388648Y118536628D01*
X61388648Y118536628D02*
X61341029Y118489009D01*
X61341029Y118489009D02*
X61245791Y118441390D01*
X61245791Y118441390D02*
X60912458Y118441390D01*
X44077217Y43981390D02*
X43743884Y43981390D01*
X43743884Y43457580D02*
X43743884Y44457580D01*
X43743884Y44457580D02*
X44220074Y44457580D01*
X45172455Y43552819D02*
X45124836Y43505200D01*
X45124836Y43505200D02*
X44981979Y43457580D01*
X44981979Y43457580D02*
X44886741Y43457580D01*
X44886741Y43457580D02*
X44743884Y43505200D01*
X44743884Y43505200D02*
X44648646Y43600438D01*
X44648646Y43600438D02*
X44601027Y43695676D01*
X44601027Y43695676D02*
X44553408Y43886152D01*
X44553408Y43886152D02*
X44553408Y44029009D01*
X44553408Y44029009D02*
X44601027Y44219485D01*
X44601027Y44219485D02*
X44648646Y44314723D01*
X44648646Y44314723D02*
X44743884Y44409961D01*
X44743884Y44409961D02*
X44886741Y44457580D01*
X44886741Y44457580D02*
X44981979Y44457580D01*
X44981979Y44457580D02*
X45124836Y44409961D01*
X45124836Y44409961D02*
X45172455Y44362342D01*
X46573884Y66597580D02*
X46573884Y67597580D01*
X46573884Y67597580D02*
X46811979Y67597580D01*
X46811979Y67597580D02*
X46954836Y67549961D01*
X46954836Y67549961D02*
X47050074Y67454723D01*
X47050074Y67454723D02*
X47097693Y67359485D01*
X47097693Y67359485D02*
X47145312Y67169009D01*
X47145312Y67169009D02*
X47145312Y67026152D01*
X47145312Y67026152D02*
X47097693Y66835676D01*
X47097693Y66835676D02*
X47050074Y66740438D01*
X47050074Y66740438D02*
X46954836Y66645200D01*
X46954836Y66645200D02*
X46811979Y66597580D01*
X46811979Y66597580D02*
X46573884Y66597580D01*
X47764360Y67597580D02*
X47954836Y67597580D01*
X47954836Y67597580D02*
X48050074Y67549961D01*
X48050074Y67549961D02*
X48145312Y67454723D01*
X48145312Y67454723D02*
X48192931Y67264247D01*
X48192931Y67264247D02*
X48192931Y66930914D01*
X48192931Y66930914D02*
X48145312Y66740438D01*
X48145312Y66740438D02*
X48050074Y66645200D01*
X48050074Y66645200D02*
X47954836Y66597580D01*
X47954836Y66597580D02*
X47764360Y66597580D01*
X47764360Y66597580D02*
X47669122Y66645200D01*
X47669122Y66645200D02*
X47573884Y66740438D01*
X47573884Y66740438D02*
X47526265Y66930914D01*
X47526265Y66930914D02*
X47526265Y67264247D01*
X47526265Y67264247D02*
X47573884Y67454723D01*
X47573884Y67454723D02*
X47669122Y67549961D01*
X47669122Y67549961D02*
X47764360Y67597580D01*
X49097693Y66597580D02*
X48621503Y66597580D01*
X48621503Y66597580D02*
X48621503Y67597580D01*
X50386265Y116095200D02*
X50529122Y116047580D01*
X50529122Y116047580D02*
X50767217Y116047580D01*
X50767217Y116047580D02*
X50862455Y116095200D01*
X50862455Y116095200D02*
X50910074Y116142819D01*
X50910074Y116142819D02*
X50957693Y116238057D01*
X50957693Y116238057D02*
X50957693Y116333295D01*
X50957693Y116333295D02*
X50910074Y116428533D01*
X50910074Y116428533D02*
X50862455Y116476152D01*
X50862455Y116476152D02*
X50767217Y116523771D01*
X50767217Y116523771D02*
X50576741Y116571390D01*
X50576741Y116571390D02*
X50481503Y116619009D01*
X50481503Y116619009D02*
X50433884Y116666628D01*
X50433884Y116666628D02*
X50386265Y116761866D01*
X50386265Y116761866D02*
X50386265Y116857104D01*
X50386265Y116857104D02*
X50433884Y116952342D01*
X50433884Y116952342D02*
X50481503Y116999961D01*
X50481503Y116999961D02*
X50576741Y117047580D01*
X50576741Y117047580D02*
X50814836Y117047580D01*
X50814836Y117047580D02*
X50957693Y116999961D01*
X51814836Y116714247D02*
X51814836Y116047580D01*
X51386265Y116714247D02*
X51386265Y116190438D01*
X51386265Y116190438D02*
X51433884Y116095200D01*
X51433884Y116095200D02*
X51529122Y116047580D01*
X51529122Y116047580D02*
X51671979Y116047580D01*
X51671979Y116047580D02*
X51767217Y116095200D01*
X51767217Y116095200D02*
X51814836Y116142819D01*
X52291027Y116714247D02*
X52291027Y116047580D01*
X52291027Y116619009D02*
X52338646Y116666628D01*
X52338646Y116666628D02*
X52433884Y116714247D01*
X52433884Y116714247D02*
X52576741Y116714247D01*
X52576741Y116714247D02*
X52671979Y116666628D01*
X52671979Y116666628D02*
X52719598Y116571390D01*
X52719598Y116571390D02*
X52719598Y116047580D01*
X53624360Y116714247D02*
X53624360Y115904723D01*
X53624360Y115904723D02*
X53576741Y115809485D01*
X53576741Y115809485D02*
X53529122Y115761866D01*
X53529122Y115761866D02*
X53433884Y115714247D01*
X53433884Y115714247D02*
X53291027Y115714247D01*
X53291027Y115714247D02*
X53195789Y115761866D01*
X53624360Y116095200D02*
X53529122Y116047580D01*
X53529122Y116047580D02*
X53338646Y116047580D01*
X53338646Y116047580D02*
X53243408Y116095200D01*
X53243408Y116095200D02*
X53195789Y116142819D01*
X53195789Y116142819D02*
X53148170Y116238057D01*
X53148170Y116238057D02*
X53148170Y116523771D01*
X53148170Y116523771D02*
X53195789Y116619009D01*
X53195789Y116619009D02*
X53243408Y116666628D01*
X53243408Y116666628D02*
X53338646Y116714247D01*
X53338646Y116714247D02*
X53529122Y116714247D01*
X53529122Y116714247D02*
X53624360Y116666628D01*
X54100551Y116047580D02*
X54100551Y117047580D01*
X54100551Y116666628D02*
X54195789Y116714247D01*
X54195789Y116714247D02*
X54386265Y116714247D01*
X54386265Y116714247D02*
X54481503Y116666628D01*
X54481503Y116666628D02*
X54529122Y116619009D01*
X54529122Y116619009D02*
X54576741Y116523771D01*
X54576741Y116523771D02*
X54576741Y116238057D01*
X54576741Y116238057D02*
X54529122Y116142819D01*
X54529122Y116142819D02*
X54481503Y116095200D01*
X54481503Y116095200D02*
X54386265Y116047580D01*
X54386265Y116047580D02*
X54195789Y116047580D01*
X54195789Y116047580D02*
X54100551Y116095200D01*
X55386265Y116095200D02*
X55291027Y116047580D01*
X55291027Y116047580D02*
X55100551Y116047580D01*
X55100551Y116047580D02*
X55005313Y116095200D01*
X55005313Y116095200D02*
X54957694Y116190438D01*
X54957694Y116190438D02*
X54957694Y116571390D01*
X54957694Y116571390D02*
X55005313Y116666628D01*
X55005313Y116666628D02*
X55100551Y116714247D01*
X55100551Y116714247D02*
X55291027Y116714247D01*
X55291027Y116714247D02*
X55386265Y116666628D01*
X55386265Y116666628D02*
X55433884Y116571390D01*
X55433884Y116571390D02*
X55433884Y116476152D01*
X55433884Y116476152D02*
X54957694Y116380914D01*
X56005313Y116047580D02*
X55910075Y116095200D01*
X55910075Y116095200D02*
X55862456Y116142819D01*
X55862456Y116142819D02*
X55814837Y116238057D01*
X55814837Y116238057D02*
X55814837Y116523771D01*
X55814837Y116523771D02*
X55862456Y116619009D01*
X55862456Y116619009D02*
X55910075Y116666628D01*
X55910075Y116666628D02*
X56005313Y116714247D01*
X56005313Y116714247D02*
X56148170Y116714247D01*
X56148170Y116714247D02*
X56243408Y116666628D01*
X56243408Y116666628D02*
X56291027Y116619009D01*
X56291027Y116619009D02*
X56338646Y116523771D01*
X56338646Y116523771D02*
X56338646Y116238057D01*
X56338646Y116238057D02*
X56291027Y116142819D01*
X56291027Y116142819D02*
X56243408Y116095200D01*
X56243408Y116095200D02*
X56148170Y116047580D01*
X56148170Y116047580D02*
X56005313Y116047580D01*
X56767218Y116047580D02*
X56767218Y116714247D01*
X56767218Y116619009D02*
X56814837Y116666628D01*
X56814837Y116666628D02*
X56910075Y116714247D01*
X56910075Y116714247D02*
X57052932Y116714247D01*
X57052932Y116714247D02*
X57148170Y116666628D01*
X57148170Y116666628D02*
X57195789Y116571390D01*
X57195789Y116571390D02*
X57195789Y116047580D01*
X57195789Y116571390D02*
X57243408Y116666628D01*
X57243408Y116666628D02*
X57338646Y116714247D01*
X57338646Y116714247D02*
X57481503Y116714247D01*
X57481503Y116714247D02*
X57576742Y116666628D01*
X57576742Y116666628D02*
X57624361Y116571390D01*
X57624361Y116571390D02*
X57624361Y116047580D01*
X59433884Y116142819D02*
X59386265Y116095200D01*
X59386265Y116095200D02*
X59243408Y116047580D01*
X59243408Y116047580D02*
X59148170Y116047580D01*
X59148170Y116047580D02*
X59005313Y116095200D01*
X59005313Y116095200D02*
X58910075Y116190438D01*
X58910075Y116190438D02*
X58862456Y116285676D01*
X58862456Y116285676D02*
X58814837Y116476152D01*
X58814837Y116476152D02*
X58814837Y116619009D01*
X58814837Y116619009D02*
X58862456Y116809485D01*
X58862456Y116809485D02*
X58910075Y116904723D01*
X58910075Y116904723D02*
X59005313Y116999961D01*
X59005313Y116999961D02*
X59148170Y117047580D01*
X59148170Y117047580D02*
X59243408Y117047580D01*
X59243408Y117047580D02*
X59386265Y116999961D01*
X59386265Y116999961D02*
X59433884Y116952342D01*
X59862456Y116047580D02*
X59862456Y117047580D01*
X60291027Y116047580D02*
X60291027Y116571390D01*
X60291027Y116571390D02*
X60243408Y116666628D01*
X60243408Y116666628D02*
X60148170Y116714247D01*
X60148170Y116714247D02*
X60005313Y116714247D01*
X60005313Y116714247D02*
X59910075Y116666628D01*
X59910075Y116666628D02*
X59862456Y116619009D01*
X60910075Y116047580D02*
X60814837Y116095200D01*
X60814837Y116095200D02*
X60767218Y116142819D01*
X60767218Y116142819D02*
X60719599Y116238057D01*
X60719599Y116238057D02*
X60719599Y116523771D01*
X60719599Y116523771D02*
X60767218Y116619009D01*
X60767218Y116619009D02*
X60814837Y116666628D01*
X60814837Y116666628D02*
X60910075Y116714247D01*
X60910075Y116714247D02*
X61052932Y116714247D01*
X61052932Y116714247D02*
X61148170Y116666628D01*
X61148170Y116666628D02*
X61195789Y116619009D01*
X61195789Y116619009D02*
X61243408Y116523771D01*
X61243408Y116523771D02*
X61243408Y116238057D01*
X61243408Y116238057D02*
X61195789Y116142819D01*
X61195789Y116142819D02*
X61148170Y116095200D01*
X61148170Y116095200D02*
X61052932Y116047580D01*
X61052932Y116047580D02*
X60910075Y116047580D01*
X51993884Y43347580D02*
X51993884Y44347580D01*
X51993884Y44347580D02*
X52231979Y44347580D01*
X52231979Y44347580D02*
X52374836Y44299961D01*
X52374836Y44299961D02*
X52470074Y44204723D01*
X52470074Y44204723D02*
X52517693Y44109485D01*
X52517693Y44109485D02*
X52565312Y43919009D01*
X52565312Y43919009D02*
X52565312Y43776152D01*
X52565312Y43776152D02*
X52517693Y43585676D01*
X52517693Y43585676D02*
X52470074Y43490438D01*
X52470074Y43490438D02*
X52374836Y43395200D01*
X52374836Y43395200D02*
X52231979Y43347580D01*
X52231979Y43347580D02*
X51993884Y43347580D01*
X53184360Y44347580D02*
X53374836Y44347580D01*
X53374836Y44347580D02*
X53470074Y44299961D01*
X53470074Y44299961D02*
X53565312Y44204723D01*
X53565312Y44204723D02*
X53612931Y44014247D01*
X53612931Y44014247D02*
X53612931Y43680914D01*
X53612931Y43680914D02*
X53565312Y43490438D01*
X53565312Y43490438D02*
X53470074Y43395200D01*
X53470074Y43395200D02*
X53374836Y43347580D01*
X53374836Y43347580D02*
X53184360Y43347580D01*
X53184360Y43347580D02*
X53089122Y43395200D01*
X53089122Y43395200D02*
X52993884Y43490438D01*
X52993884Y43490438D02*
X52946265Y43680914D01*
X52946265Y43680914D02*
X52946265Y44014247D01*
X52946265Y44014247D02*
X52993884Y44204723D01*
X52993884Y44204723D02*
X53089122Y44299961D01*
X53089122Y44299961D02*
X53184360Y44347580D01*
X54612931Y43347580D02*
X54279598Y43823771D01*
X54041503Y43347580D02*
X54041503Y44347580D01*
X54041503Y44347580D02*
X54422455Y44347580D01*
X54422455Y44347580D02*
X54517693Y44299961D01*
X54517693Y44299961D02*
X54565312Y44252342D01*
X54565312Y44252342D02*
X54612931Y44157104D01*
X54612931Y44157104D02*
X54612931Y44014247D01*
X54612931Y44014247D02*
X54565312Y43919009D01*
X54565312Y43919009D02*
X54517693Y43871390D01*
X54517693Y43871390D02*
X54422455Y43823771D01*
X54422455Y43823771D02*
X54041503Y43823771D01*
X61112419Y23140074D02*
X61112419Y22663884D01*
X61112419Y22663884D02*
X60112419Y22663884D01*
X60112419Y23330551D02*
X61112419Y23663884D01*
X61112419Y23663884D02*
X60112419Y23997217D01*
X61112419Y24330551D02*
X60112419Y24330551D01*
X60112419Y24330551D02*
X60112419Y24568646D01*
X60112419Y24568646D02*
X60160038Y24711503D01*
X60160038Y24711503D02*
X60255276Y24806741D01*
X60255276Y24806741D02*
X60350514Y24854360D01*
X60350514Y24854360D02*
X60540990Y24901979D01*
X60540990Y24901979D02*
X60683847Y24901979D01*
X60683847Y24901979D02*
X60874323Y24854360D01*
X60874323Y24854360D02*
X60969561Y24806741D01*
X60969561Y24806741D02*
X61064800Y24711503D01*
X61064800Y24711503D02*
X61112419Y24568646D01*
X61112419Y24568646D02*
X61112419Y24330551D01*
X61064800Y25282932D02*
X61112419Y25425789D01*
X61112419Y25425789D02*
X61112419Y25663884D01*
X61112419Y25663884D02*
X61064800Y25759122D01*
X61064800Y25759122D02*
X61017180Y25806741D01*
X61017180Y25806741D02*
X60921942Y25854360D01*
X60921942Y25854360D02*
X60826704Y25854360D01*
X60826704Y25854360D02*
X60731466Y25806741D01*
X60731466Y25806741D02*
X60683847Y25759122D01*
X60683847Y25759122D02*
X60636228Y25663884D01*
X60636228Y25663884D02*
X60588609Y25473408D01*
X60588609Y25473408D02*
X60540990Y25378170D01*
X60540990Y25378170D02*
X60493371Y25330551D01*
X60493371Y25330551D02*
X60398133Y25282932D01*
X60398133Y25282932D02*
X60302895Y25282932D01*
X60302895Y25282932D02*
X60207657Y25330551D01*
X60207657Y25330551D02*
X60160038Y25378170D01*
X60160038Y25378170D02*
X60112419Y25473408D01*
X60112419Y25473408D02*
X60112419Y25711503D01*
X60112419Y25711503D02*
X60160038Y25854360D01*
X61493371Y27330551D02*
X61445752Y27282932D01*
X61445752Y27282932D02*
X61302895Y27187694D01*
X61302895Y27187694D02*
X61207657Y27140075D01*
X61207657Y27140075D02*
X61064800Y27092456D01*
X61064800Y27092456D02*
X60826704Y27044837D01*
X60826704Y27044837D02*
X60636228Y27044837D01*
X60636228Y27044837D02*
X60398133Y27092456D01*
X60398133Y27092456D02*
X60255276Y27140075D01*
X60255276Y27140075D02*
X60160038Y27187694D01*
X60160038Y27187694D02*
X60017180Y27282932D01*
X60017180Y27282932D02*
X59969561Y27330551D01*
X61112419Y28235313D02*
X61112419Y27663885D01*
X61112419Y27949599D02*
X60112419Y27949599D01*
X60112419Y27949599D02*
X60255276Y27854361D01*
X60255276Y27854361D02*
X60350514Y27759123D01*
X60350514Y27759123D02*
X60398133Y27663885D01*
X61017180Y28663885D02*
X61064800Y28711504D01*
X61064800Y28711504D02*
X61112419Y28663885D01*
X61112419Y28663885D02*
X61064800Y28616266D01*
X61064800Y28616266D02*
X61017180Y28663885D01*
X61017180Y28663885D02*
X61112419Y28663885D01*
X60207657Y29092456D02*
X60160038Y29140075D01*
X60160038Y29140075D02*
X60112419Y29235313D01*
X60112419Y29235313D02*
X60112419Y29473408D01*
X60112419Y29473408D02*
X60160038Y29568646D01*
X60160038Y29568646D02*
X60207657Y29616265D01*
X60207657Y29616265D02*
X60302895Y29663884D01*
X60302895Y29663884D02*
X60398133Y29663884D01*
X60398133Y29663884D02*
X60540990Y29616265D01*
X60540990Y29616265D02*
X61112419Y29044837D01*
X61112419Y29044837D02*
X61112419Y29663884D01*
X60112419Y29949599D02*
X61112419Y30282932D01*
X61112419Y30282932D02*
X60112419Y30616265D01*
X61493371Y30854361D02*
X61445752Y30901980D01*
X61445752Y30901980D02*
X61302895Y30997218D01*
X61302895Y30997218D02*
X61207657Y31044837D01*
X61207657Y31044837D02*
X61064800Y31092456D01*
X61064800Y31092456D02*
X60826704Y31140075D01*
X60826704Y31140075D02*
X60636228Y31140075D01*
X60636228Y31140075D02*
X60398133Y31092456D01*
X60398133Y31092456D02*
X60255276Y31044837D01*
X60255276Y31044837D02*
X60160038Y30997218D01*
X60160038Y30997218D02*
X60017180Y30901980D01*
X60017180Y30901980D02*
X59969561Y30854361D01*
X60731466Y32378171D02*
X60731466Y33140076D01*
X60445752Y33616266D02*
X60731466Y34378171D01*
X60731466Y34378171D02*
X61017180Y33616266D01*
X61017180Y36187694D02*
X61064800Y36140075D01*
X61064800Y36140075D02*
X61112419Y35997218D01*
X61112419Y35997218D02*
X61112419Y35901980D01*
X61112419Y35901980D02*
X61064800Y35759123D01*
X61064800Y35759123D02*
X60969561Y35663885D01*
X60969561Y35663885D02*
X60874323Y35616266D01*
X60874323Y35616266D02*
X60683847Y35568647D01*
X60683847Y35568647D02*
X60540990Y35568647D01*
X60540990Y35568647D02*
X60350514Y35616266D01*
X60350514Y35616266D02*
X60255276Y35663885D01*
X60255276Y35663885D02*
X60160038Y35759123D01*
X60160038Y35759123D02*
X60112419Y35901980D01*
X60112419Y35901980D02*
X60112419Y35997218D01*
X60112419Y35997218D02*
X60160038Y36140075D01*
X60160038Y36140075D02*
X60207657Y36187694D01*
X61112419Y37092456D02*
X61112419Y36616266D01*
X61112419Y36616266D02*
X60112419Y36616266D01*
X61112419Y37425790D02*
X60112419Y37425790D01*
X60112419Y37425790D02*
X60112419Y37806742D01*
X60112419Y37806742D02*
X60160038Y37901980D01*
X60160038Y37901980D02*
X60207657Y37949599D01*
X60207657Y37949599D02*
X60302895Y37997218D01*
X60302895Y37997218D02*
X60445752Y37997218D01*
X60445752Y37997218D02*
X60540990Y37949599D01*
X60540990Y37949599D02*
X60588609Y37901980D01*
X60588609Y37901980D02*
X60636228Y37806742D01*
X60636228Y37806742D02*
X60636228Y37425790D01*
X61064800Y38378171D02*
X61112419Y38521028D01*
X61112419Y38521028D02*
X61112419Y38759123D01*
X61112419Y38759123D02*
X61064800Y38854361D01*
X61064800Y38854361D02*
X61017180Y38901980D01*
X61017180Y38901980D02*
X60921942Y38949599D01*
X60921942Y38949599D02*
X60826704Y38949599D01*
X60826704Y38949599D02*
X60731466Y38901980D01*
X60731466Y38901980D02*
X60683847Y38854361D01*
X60683847Y38854361D02*
X60636228Y38759123D01*
X60636228Y38759123D02*
X60588609Y38568647D01*
X60588609Y38568647D02*
X60540990Y38473409D01*
X60540990Y38473409D02*
X60493371Y38425790D01*
X60493371Y38425790D02*
X60398133Y38378171D01*
X60398133Y38378171D02*
X60302895Y38378171D01*
X60302895Y38378171D02*
X60207657Y38425790D01*
X60207657Y38425790D02*
X60160038Y38473409D01*
X60160038Y38473409D02*
X60112419Y38568647D01*
X60112419Y38568647D02*
X60112419Y38806742D01*
X60112419Y38806742D02*
X60160038Y38949599D01*
X61493371Y40425790D02*
X61445752Y40378171D01*
X61445752Y40378171D02*
X61302895Y40282933D01*
X61302895Y40282933D02*
X61207657Y40235314D01*
X61207657Y40235314D02*
X61064800Y40187695D01*
X61064800Y40187695D02*
X60826704Y40140076D01*
X60826704Y40140076D02*
X60636228Y40140076D01*
X60636228Y40140076D02*
X60398133Y40187695D01*
X60398133Y40187695D02*
X60255276Y40235314D01*
X60255276Y40235314D02*
X60160038Y40282933D01*
X60160038Y40282933D02*
X60017180Y40378171D01*
X60017180Y40378171D02*
X59969561Y40425790D01*
X60112419Y40997219D02*
X60112419Y41092457D01*
X60112419Y41092457D02*
X60160038Y41187695D01*
X60160038Y41187695D02*
X60207657Y41235314D01*
X60207657Y41235314D02*
X60302895Y41282933D01*
X60302895Y41282933D02*
X60493371Y41330552D01*
X60493371Y41330552D02*
X60731466Y41330552D01*
X60731466Y41330552D02*
X60921942Y41282933D01*
X60921942Y41282933D02*
X61017180Y41235314D01*
X61017180Y41235314D02*
X61064800Y41187695D01*
X61064800Y41187695D02*
X61112419Y41092457D01*
X61112419Y41092457D02*
X61112419Y40997219D01*
X61112419Y40997219D02*
X61064800Y40901981D01*
X61064800Y40901981D02*
X61017180Y40854362D01*
X61017180Y40854362D02*
X60921942Y40806743D01*
X60921942Y40806743D02*
X60731466Y40759124D01*
X60731466Y40759124D02*
X60493371Y40759124D01*
X60493371Y40759124D02*
X60302895Y40806743D01*
X60302895Y40806743D02*
X60207657Y40854362D01*
X60207657Y40854362D02*
X60160038Y40901981D01*
X60160038Y40901981D02*
X60112419Y40997219D01*
X61017180Y41759124D02*
X61064800Y41806743D01*
X61064800Y41806743D02*
X61112419Y41759124D01*
X61112419Y41759124D02*
X61064800Y41711505D01*
X61064800Y41711505D02*
X61017180Y41759124D01*
X61017180Y41759124D02*
X61112419Y41759124D01*
X60112419Y42663885D02*
X60112419Y42473409D01*
X60112419Y42473409D02*
X60160038Y42378171D01*
X60160038Y42378171D02*
X60207657Y42330552D01*
X60207657Y42330552D02*
X60350514Y42235314D01*
X60350514Y42235314D02*
X60540990Y42187695D01*
X60540990Y42187695D02*
X60921942Y42187695D01*
X60921942Y42187695D02*
X61017180Y42235314D01*
X61017180Y42235314D02*
X61064800Y42282933D01*
X61064800Y42282933D02*
X61112419Y42378171D01*
X61112419Y42378171D02*
X61112419Y42568647D01*
X61112419Y42568647D02*
X61064800Y42663885D01*
X61064800Y42663885D02*
X61017180Y42711504D01*
X61017180Y42711504D02*
X60921942Y42759123D01*
X60921942Y42759123D02*
X60683847Y42759123D01*
X60683847Y42759123D02*
X60588609Y42711504D01*
X60588609Y42711504D02*
X60540990Y42663885D01*
X60540990Y42663885D02*
X60493371Y42568647D01*
X60493371Y42568647D02*
X60493371Y42378171D01*
X60493371Y42378171D02*
X60540990Y42282933D01*
X60540990Y42282933D02*
X60588609Y42235314D01*
X60588609Y42235314D02*
X60683847Y42187695D01*
X60112419Y43044838D02*
X61112419Y43378171D01*
X61112419Y43378171D02*
X60112419Y43711504D01*
X61493371Y43949600D02*
X61445752Y43997219D01*
X61445752Y43997219D02*
X61302895Y44092457D01*
X61302895Y44092457D02*
X61207657Y44140076D01*
X61207657Y44140076D02*
X61064800Y44187695D01*
X61064800Y44187695D02*
X60826704Y44235314D01*
X60826704Y44235314D02*
X60636228Y44235314D01*
X60636228Y44235314D02*
X60398133Y44187695D01*
X60398133Y44187695D02*
X60255276Y44140076D01*
X60255276Y44140076D02*
X60160038Y44092457D01*
X60160038Y44092457D02*
X60017180Y43997219D01*
X60017180Y43997219D02*
X59969561Y43949600D01*
D11*
X-11580326Y25252668D02*
X-11580326Y26252668D01*
X-11580326Y26252668D02*
X-11199374Y26252668D01*
X-11199374Y26252668D02*
X-11104136Y26205049D01*
X-11104136Y26205049D02*
X-11056517Y26157430D01*
X-11056517Y26157430D02*
X-11008898Y26062192D01*
X-11008898Y26062192D02*
X-11008898Y25919335D01*
X-11008898Y25919335D02*
X-11056517Y25824097D01*
X-11056517Y25824097D02*
X-11104136Y25776478D01*
X-11104136Y25776478D02*
X-11199374Y25728859D01*
X-11199374Y25728859D02*
X-11580326Y25728859D01*
X-10437469Y25252668D02*
X-10532707Y25300288D01*
X-10532707Y25300288D02*
X-10580326Y25347907D01*
X-10580326Y25347907D02*
X-10627945Y25443145D01*
X-10627945Y25443145D02*
X-10627945Y25728859D01*
X-10627945Y25728859D02*
X-10580326Y25824097D01*
X-10580326Y25824097D02*
X-10532707Y25871716D01*
X-10532707Y25871716D02*
X-10437469Y25919335D01*
X-10437469Y25919335D02*
X-10294612Y25919335D01*
X-10294612Y25919335D02*
X-10199374Y25871716D01*
X-10199374Y25871716D02*
X-10151755Y25824097D01*
X-10151755Y25824097D02*
X-10104136Y25728859D01*
X-10104136Y25728859D02*
X-10104136Y25443145D01*
X-10104136Y25443145D02*
X-10151755Y25347907D01*
X-10151755Y25347907D02*
X-10199374Y25300288D01*
X-10199374Y25300288D02*
X-10294612Y25252668D01*
X-10294612Y25252668D02*
X-10437469Y25252668D01*
X-9770802Y25919335D02*
X-9580326Y25252668D01*
X-9580326Y25252668D02*
X-9389850Y25728859D01*
X-9389850Y25728859D02*
X-9199374Y25252668D01*
X-9199374Y25252668D02*
X-9008898Y25919335D01*
X-8246993Y25300288D02*
X-8342231Y25252668D01*
X-8342231Y25252668D02*
X-8532707Y25252668D01*
X-8532707Y25252668D02*
X-8627945Y25300288D01*
X-8627945Y25300288D02*
X-8675564Y25395526D01*
X-8675564Y25395526D02*
X-8675564Y25776478D01*
X-8675564Y25776478D02*
X-8627945Y25871716D01*
X-8627945Y25871716D02*
X-8532707Y25919335D01*
X-8532707Y25919335D02*
X-8342231Y25919335D01*
X-8342231Y25919335D02*
X-8246993Y25871716D01*
X-8246993Y25871716D02*
X-8199374Y25776478D01*
X-8199374Y25776478D02*
X-8199374Y25681240D01*
X-8199374Y25681240D02*
X-8675564Y25586002D01*
X-7770802Y25252668D02*
X-7770802Y25919335D01*
X-7770802Y25728859D02*
X-7723183Y25824097D01*
X-7723183Y25824097D02*
X-7675564Y25871716D01*
X-7675564Y25871716D02*
X-7580326Y25919335D01*
X-7580326Y25919335D02*
X-7485088Y25919335D01*
X-6437468Y25300288D02*
X-6294611Y25252668D01*
X-6294611Y25252668D02*
X-6056516Y25252668D01*
X-6056516Y25252668D02*
X-5961278Y25300288D01*
X-5961278Y25300288D02*
X-5913659Y25347907D01*
X-5913659Y25347907D02*
X-5866040Y25443145D01*
X-5866040Y25443145D02*
X-5866040Y25538383D01*
X-5866040Y25538383D02*
X-5913659Y25633621D01*
X-5913659Y25633621D02*
X-5961278Y25681240D01*
X-5961278Y25681240D02*
X-6056516Y25728859D01*
X-6056516Y25728859D02*
X-6246992Y25776478D01*
X-6246992Y25776478D02*
X-6342230Y25824097D01*
X-6342230Y25824097D02*
X-6389849Y25871716D01*
X-6389849Y25871716D02*
X-6437468Y25966954D01*
X-6437468Y25966954D02*
X-6437468Y26062192D01*
X-6437468Y26062192D02*
X-6389849Y26157430D01*
X-6389849Y26157430D02*
X-6342230Y26205049D01*
X-6342230Y26205049D02*
X-6246992Y26252668D01*
X-6246992Y26252668D02*
X-6008897Y26252668D01*
X-6008897Y26252668D02*
X-5866040Y26205049D01*
X-5294611Y25252668D02*
X-5389849Y25300288D01*
X-5389849Y25300288D02*
X-5437468Y25347907D01*
X-5437468Y25347907D02*
X-5485087Y25443145D01*
X-5485087Y25443145D02*
X-5485087Y25728859D01*
X-5485087Y25728859D02*
X-5437468Y25824097D01*
X-5437468Y25824097D02*
X-5389849Y25871716D01*
X-5389849Y25871716D02*
X-5294611Y25919335D01*
X-5294611Y25919335D02*
X-5151754Y25919335D01*
X-5151754Y25919335D02*
X-5056516Y25871716D01*
X-5056516Y25871716D02*
X-5008897Y25824097D01*
X-5008897Y25824097D02*
X-4961278Y25728859D01*
X-4961278Y25728859D02*
X-4961278Y25443145D01*
X-4961278Y25443145D02*
X-5008897Y25347907D01*
X-5008897Y25347907D02*
X-5056516Y25300288D01*
X-5056516Y25300288D02*
X-5151754Y25252668D01*
X-5151754Y25252668D02*
X-5294611Y25252668D01*
X-4104135Y25919335D02*
X-4104135Y25252668D01*
X-4532706Y25919335D02*
X-4532706Y25395526D01*
X-4532706Y25395526D02*
X-4485087Y25300288D01*
X-4485087Y25300288D02*
X-4389849Y25252668D01*
X-4389849Y25252668D02*
X-4246992Y25252668D01*
X-4246992Y25252668D02*
X-4151754Y25300288D01*
X-4151754Y25300288D02*
X-4104135Y25347907D01*
X-3627944Y25252668D02*
X-3627944Y25919335D01*
X-3627944Y25728859D02*
X-3580325Y25824097D01*
X-3580325Y25824097D02*
X-3532706Y25871716D01*
X-3532706Y25871716D02*
X-3437468Y25919335D01*
X-3437468Y25919335D02*
X-3342230Y25919335D01*
X-2580325Y25300288D02*
X-2675563Y25252668D01*
X-2675563Y25252668D02*
X-2866039Y25252668D01*
X-2866039Y25252668D02*
X-2961277Y25300288D01*
X-2961277Y25300288D02*
X-3008896Y25347907D01*
X-3008896Y25347907D02*
X-3056515Y25443145D01*
X-3056515Y25443145D02*
X-3056515Y25728859D01*
X-3056515Y25728859D02*
X-3008896Y25824097D01*
X-3008896Y25824097D02*
X-2961277Y25871716D01*
X-2961277Y25871716D02*
X-2866039Y25919335D01*
X-2866039Y25919335D02*
X-2675563Y25919335D01*
X-2675563Y25919335D02*
X-2580325Y25871716D01*
X-1770801Y25300288D02*
X-1866039Y25252668D01*
X-1866039Y25252668D02*
X-2056515Y25252668D01*
X-2056515Y25252668D02*
X-2151753Y25300288D01*
X-2151753Y25300288D02*
X-2199372Y25395526D01*
X-2199372Y25395526D02*
X-2199372Y25776478D01*
X-2199372Y25776478D02*
X-2151753Y25871716D01*
X-2151753Y25871716D02*
X-2056515Y25919335D01*
X-2056515Y25919335D02*
X-1866039Y25919335D01*
X-1866039Y25919335D02*
X-1770801Y25871716D01*
X-1770801Y25871716D02*
X-1723182Y25776478D01*
X-1723182Y25776478D02*
X-1723182Y25681240D01*
X-1723182Y25681240D02*
X-2199372Y25586002D01*
X-627943Y26252668D02*
X38722Y25252668D01*
X38722Y26252668D02*
X-627943Y25252668D01*
X610151Y26252668D02*
X800627Y26252668D01*
X800627Y26252668D02*
X895865Y26205049D01*
X895865Y26205049D02*
X991103Y26109811D01*
X991103Y26109811D02*
X1038722Y25919335D01*
X1038722Y25919335D02*
X1038722Y25586002D01*
X1038722Y25586002D02*
X991103Y25395526D01*
X991103Y25395526D02*
X895865Y25300288D01*
X895865Y25300288D02*
X800627Y25252668D01*
X800627Y25252668D02*
X610151Y25252668D01*
X610151Y25252668D02*
X514913Y25300288D01*
X514913Y25300288D02*
X419675Y25395526D01*
X419675Y25395526D02*
X372056Y25586002D01*
X372056Y25586002D02*
X372056Y25919335D01*
X372056Y25919335D02*
X419675Y26109811D01*
X419675Y26109811D02*
X514913Y26205049D01*
X514913Y26205049D02*
X610151Y26252668D01*
X2038722Y25252668D02*
X1705389Y25728859D01*
X1467294Y25252668D02*
X1467294Y26252668D01*
X1467294Y26252668D02*
X1848246Y26252668D01*
X1848246Y26252668D02*
X1943484Y26205049D01*
X1943484Y26205049D02*
X1991103Y26157430D01*
X1991103Y26157430D02*
X2038722Y26062192D01*
X2038722Y26062192D02*
X2038722Y25919335D01*
X2038722Y25919335D02*
X1991103Y25824097D01*
X1991103Y25824097D02*
X1943484Y25776478D01*
X1943484Y25776478D02*
X1848246Y25728859D01*
X1848246Y25728859D02*
X1467294Y25728859D01*
X-11056517Y23642724D02*
X-11627945Y23642724D01*
X-11342231Y23642724D02*
X-11342231Y24642724D01*
X-11342231Y24642724D02*
X-11437469Y24499867D01*
X-11437469Y24499867D02*
X-11532707Y24404629D01*
X-11532707Y24404629D02*
X-11627945Y24357010D01*
X-10627945Y24023677D02*
X-9866041Y24023677D01*
X-9437469Y24547486D02*
X-9389850Y24595105D01*
X-9389850Y24595105D02*
X-9294612Y24642724D01*
X-9294612Y24642724D02*
X-9056517Y24642724D01*
X-9056517Y24642724D02*
X-8961279Y24595105D01*
X-8961279Y24595105D02*
X-8913660Y24547486D01*
X-8913660Y24547486D02*
X-8866041Y24452248D01*
X-8866041Y24452248D02*
X-8866041Y24357010D01*
X-8866041Y24357010D02*
X-8913660Y24214153D01*
X-8913660Y24214153D02*
X-9485088Y23642724D01*
X-9485088Y23642724D02*
X-8866041Y23642724D01*
X-7675564Y23737963D02*
X-7627945Y23690344D01*
X-7627945Y23690344D02*
X-7675564Y23642724D01*
X-7675564Y23642724D02*
X-7723183Y23690344D01*
X-7723183Y23690344D02*
X-7675564Y23737963D01*
X-7675564Y23737963D02*
X-7675564Y23642724D01*
X-7675564Y24261772D02*
X-7627945Y24214153D01*
X-7627945Y24214153D02*
X-7675564Y24166534D01*
X-7675564Y24166534D02*
X-7723183Y24214153D01*
X-7723183Y24214153D02*
X-7675564Y24261772D01*
X-7675564Y24261772D02*
X-7675564Y24166534D01*
X-6437469Y24166534D02*
X-6104136Y24166534D01*
X-5961279Y23642724D02*
X-6437469Y23642724D01*
X-6437469Y23642724D02*
X-6437469Y24642724D01*
X-6437469Y24642724D02*
X-5961279Y24642724D01*
X-5627945Y24642724D02*
X-4961279Y23642724D01*
X-4961279Y24642724D02*
X-5627945Y23642724D01*
X-4723183Y24309391D02*
X-4342231Y24309391D01*
X-4580326Y24642724D02*
X-4580326Y23785582D01*
X-4580326Y23785582D02*
X-4532707Y23690344D01*
X-4532707Y23690344D02*
X-4437469Y23642724D01*
X-4437469Y23642724D02*
X-4342231Y23642724D01*
X-3627945Y23690344D02*
X-3723183Y23642724D01*
X-3723183Y23642724D02*
X-3913659Y23642724D01*
X-3913659Y23642724D02*
X-4008897Y23690344D01*
X-4008897Y23690344D02*
X-4056516Y23785582D01*
X-4056516Y23785582D02*
X-4056516Y24166534D01*
X-4056516Y24166534D02*
X-4008897Y24261772D01*
X-4008897Y24261772D02*
X-3913659Y24309391D01*
X-3913659Y24309391D02*
X-3723183Y24309391D01*
X-3723183Y24309391D02*
X-3627945Y24261772D01*
X-3627945Y24261772D02*
X-3580326Y24166534D01*
X-3580326Y24166534D02*
X-3580326Y24071296D01*
X-3580326Y24071296D02*
X-4056516Y23976058D01*
X-3151754Y23642724D02*
X-3151754Y24309391D01*
X-3151754Y24118915D02*
X-3104135Y24214153D01*
X-3104135Y24214153D02*
X-3056516Y24261772D01*
X-3056516Y24261772D02*
X-2961278Y24309391D01*
X-2961278Y24309391D02*
X-2866040Y24309391D01*
X-2532706Y24309391D02*
X-2532706Y23642724D01*
X-2532706Y24214153D02*
X-2485087Y24261772D01*
X-2485087Y24261772D02*
X-2389849Y24309391D01*
X-2389849Y24309391D02*
X-2246992Y24309391D01*
X-2246992Y24309391D02*
X-2151754Y24261772D01*
X-2151754Y24261772D02*
X-2104135Y24166534D01*
X-2104135Y24166534D02*
X-2104135Y23642724D01*
X-1199373Y23642724D02*
X-1199373Y24166534D01*
X-1199373Y24166534D02*
X-1246992Y24261772D01*
X-1246992Y24261772D02*
X-1342230Y24309391D01*
X-1342230Y24309391D02*
X-1532706Y24309391D01*
X-1532706Y24309391D02*
X-1627944Y24261772D01*
X-1199373Y23690344D02*
X-1294611Y23642724D01*
X-1294611Y23642724D02*
X-1532706Y23642724D01*
X-1532706Y23642724D02*
X-1627944Y23690344D01*
X-1627944Y23690344D02*
X-1675563Y23785582D01*
X-1675563Y23785582D02*
X-1675563Y23880820D01*
X-1675563Y23880820D02*
X-1627944Y23976058D01*
X-1627944Y23976058D02*
X-1532706Y24023677D01*
X-1532706Y24023677D02*
X-1294611Y24023677D01*
X-1294611Y24023677D02*
X-1199373Y24071296D01*
X-580325Y23642724D02*
X-675563Y23690344D01*
X-675563Y23690344D02*
X-723182Y23785582D01*
X-723182Y23785582D02*
X-723182Y24642724D01*
X562532Y23642724D02*
X562532Y24642724D01*
X562532Y24642724D02*
X800627Y24642724D01*
X800627Y24642724D02*
X943484Y24595105D01*
X943484Y24595105D02*
X1038722Y24499867D01*
X1038722Y24499867D02*
X1086341Y24404629D01*
X1086341Y24404629D02*
X1133960Y24214153D01*
X1133960Y24214153D02*
X1133960Y24071296D01*
X1133960Y24071296D02*
X1086341Y23880820D01*
X1086341Y23880820D02*
X1038722Y23785582D01*
X1038722Y23785582D02*
X943484Y23690344D01*
X943484Y23690344D02*
X800627Y23642724D01*
X800627Y23642724D02*
X562532Y23642724D01*
X2133960Y23737963D02*
X2086341Y23690344D01*
X2086341Y23690344D02*
X1943484Y23642724D01*
X1943484Y23642724D02*
X1848246Y23642724D01*
X1848246Y23642724D02*
X1705389Y23690344D01*
X1705389Y23690344D02*
X1610151Y23785582D01*
X1610151Y23785582D02*
X1562532Y23880820D01*
X1562532Y23880820D02*
X1514913Y24071296D01*
X1514913Y24071296D02*
X1514913Y24214153D01*
X1514913Y24214153D02*
X1562532Y24404629D01*
X1562532Y24404629D02*
X1610151Y24499867D01*
X1610151Y24499867D02*
X1705389Y24595105D01*
X1705389Y24595105D02*
X1848246Y24642724D01*
X1848246Y24642724D02*
X1943484Y24642724D01*
X1943484Y24642724D02*
X2086341Y24595105D01*
X2086341Y24595105D02*
X2133960Y24547486D01*
X2467294Y24642724D02*
X3086341Y24642724D01*
X3086341Y24642724D02*
X2753008Y24261772D01*
X2753008Y24261772D02*
X2895865Y24261772D01*
X2895865Y24261772D02*
X2991103Y24214153D01*
X2991103Y24214153D02*
X3038722Y24166534D01*
X3038722Y24166534D02*
X3086341Y24071296D01*
X3086341Y24071296D02*
X3086341Y23833201D01*
X3086341Y23833201D02*
X3038722Y23737963D01*
X3038722Y23737963D02*
X2991103Y23690344D01*
X2991103Y23690344D02*
X2895865Y23642724D01*
X2895865Y23642724D02*
X2610151Y23642724D01*
X2610151Y23642724D02*
X2514913Y23690344D01*
X2514913Y23690344D02*
X2467294Y23737963D01*
X3372056Y24642724D02*
X3705389Y23642724D01*
X3705389Y23642724D02*
X4038722Y24642724D01*
X-11627945Y22937542D02*
X-11580326Y22985161D01*
X-11580326Y22985161D02*
X-11485088Y23032780D01*
X-11485088Y23032780D02*
X-11246993Y23032780D01*
X-11246993Y23032780D02*
X-11151755Y22985161D01*
X-11151755Y22985161D02*
X-11104136Y22937542D01*
X-11104136Y22937542D02*
X-11056517Y22842304D01*
X-11056517Y22842304D02*
X-11056517Y22747066D01*
X-11056517Y22747066D02*
X-11104136Y22604209D01*
X-11104136Y22604209D02*
X-11675564Y22032780D01*
X-11675564Y22032780D02*
X-11056517Y22032780D01*
X-10627945Y22413733D02*
X-9866041Y22413733D01*
X-9485088Y23032780D02*
X-8866041Y23032780D01*
X-8866041Y23032780D02*
X-9199374Y22651828D01*
X-9199374Y22651828D02*
X-9056517Y22651828D01*
X-9056517Y22651828D02*
X-8961279Y22604209D01*
X-8961279Y22604209D02*
X-8913660Y22556590D01*
X-8913660Y22556590D02*
X-8866041Y22461352D01*
X-8866041Y22461352D02*
X-8866041Y22223257D01*
X-8866041Y22223257D02*
X-8913660Y22128019D01*
X-8913660Y22128019D02*
X-8961279Y22080400D01*
X-8961279Y22080400D02*
X-9056517Y22032780D01*
X-9056517Y22032780D02*
X-9342231Y22032780D01*
X-9342231Y22032780D02*
X-9437469Y22080400D01*
X-9437469Y22080400D02*
X-9485088Y22128019D01*
X-7675564Y22128019D02*
X-7627945Y22080400D01*
X-7627945Y22080400D02*
X-7675564Y22032780D01*
X-7675564Y22032780D02*
X-7723183Y22080400D01*
X-7723183Y22080400D02*
X-7675564Y22128019D01*
X-7675564Y22128019D02*
X-7675564Y22032780D01*
X-7675564Y22651828D02*
X-7627945Y22604209D01*
X-7627945Y22604209D02*
X-7675564Y22556590D01*
X-7675564Y22556590D02*
X-7723183Y22604209D01*
X-7723183Y22604209D02*
X-7675564Y22651828D01*
X-7675564Y22651828D02*
X-7675564Y22556590D01*
X-6104136Y22556590D02*
X-6437469Y22556590D01*
X-6437469Y22032780D02*
X-6437469Y23032780D01*
X-6437469Y23032780D02*
X-5961279Y23032780D01*
X-5580326Y22032780D02*
X-5580326Y23032780D01*
X-5580326Y23032780D02*
X-5199374Y23032780D01*
X-5199374Y23032780D02*
X-5104136Y22985161D01*
X-5104136Y22985161D02*
X-5056517Y22937542D01*
X-5056517Y22937542D02*
X-5008898Y22842304D01*
X-5008898Y22842304D02*
X-5008898Y22699447D01*
X-5008898Y22699447D02*
X-5056517Y22604209D01*
X-5056517Y22604209D02*
X-5104136Y22556590D01*
X-5104136Y22556590D02*
X-5199374Y22508971D01*
X-5199374Y22508971D02*
X-5580326Y22508971D01*
X-4056517Y22985161D02*
X-4151755Y23032780D01*
X-4151755Y23032780D02*
X-4294612Y23032780D01*
X-4294612Y23032780D02*
X-4437469Y22985161D01*
X-4437469Y22985161D02*
X-4532707Y22889923D01*
X-4532707Y22889923D02*
X-4580326Y22794685D01*
X-4580326Y22794685D02*
X-4627945Y22604209D01*
X-4627945Y22604209D02*
X-4627945Y22461352D01*
X-4627945Y22461352D02*
X-4580326Y22270876D01*
X-4580326Y22270876D02*
X-4532707Y22175638D01*
X-4532707Y22175638D02*
X-4437469Y22080400D01*
X-4437469Y22080400D02*
X-4294612Y22032780D01*
X-4294612Y22032780D02*
X-4199374Y22032780D01*
X-4199374Y22032780D02*
X-4056517Y22080400D01*
X-4056517Y22080400D02*
X-4008898Y22128019D01*
X-4008898Y22128019D02*
X-4008898Y22461352D01*
X-4008898Y22461352D02*
X-4199374Y22461352D01*
X-3627945Y22318495D02*
X-3151755Y22318495D01*
X-3723183Y22032780D02*
X-3389850Y23032780D01*
X-3389850Y23032780D02*
X-3056517Y22032780D01*
X-2961279Y21937542D02*
X-2199374Y21937542D01*
X-2056516Y23032780D02*
X-1437469Y23032780D01*
X-1437469Y23032780D02*
X-1770802Y22651828D01*
X-1770802Y22651828D02*
X-1627945Y22651828D01*
X-1627945Y22651828D02*
X-1532707Y22604209D01*
X-1532707Y22604209D02*
X-1485088Y22556590D01*
X-1485088Y22556590D02*
X-1437469Y22461352D01*
X-1437469Y22461352D02*
X-1437469Y22223257D01*
X-1437469Y22223257D02*
X-1485088Y22128019D01*
X-1485088Y22128019D02*
X-1532707Y22080400D01*
X-1532707Y22080400D02*
X-1627945Y22032780D01*
X-1627945Y22032780D02*
X-1913659Y22032780D01*
X-1913659Y22032780D02*
X-2008897Y22080400D01*
X-2008897Y22080400D02*
X-2056516Y22128019D01*
X-1008897Y22032780D02*
X-1008897Y23032780D01*
X-1008897Y23032780D02*
X-627945Y23032780D01*
X-627945Y23032780D02*
X-532707Y22985161D01*
X-532707Y22985161D02*
X-485088Y22937542D01*
X-485088Y22937542D02*
X-437469Y22842304D01*
X-437469Y22842304D02*
X-437469Y22699447D01*
X-437469Y22699447D02*
X-485088Y22604209D01*
X-485088Y22604209D02*
X-532707Y22556590D01*
X-532707Y22556590D02*
X-627945Y22508971D01*
X-627945Y22508971D02*
X-1008897Y22508971D01*
X-104135Y23032780D02*
X514911Y23032780D01*
X514911Y23032780D02*
X181578Y22651828D01*
X181578Y22651828D02*
X324435Y22651828D01*
X324435Y22651828D02*
X419673Y22604209D01*
X419673Y22604209D02*
X467292Y22556590D01*
X467292Y22556590D02*
X514911Y22461352D01*
X514911Y22461352D02*
X514911Y22223257D01*
X514911Y22223257D02*
X467292Y22128019D01*
X467292Y22128019D02*
X419673Y22080400D01*
X419673Y22080400D02*
X324435Y22032780D01*
X324435Y22032780D02*
X38721Y22032780D01*
X38721Y22032780D02*
X-56516Y22080400D01*
X-56516Y22080400D02*
X-104135Y22128019D01*
X800626Y23032780D02*
X1133959Y22032780D01*
X1133959Y22032780D02*
X1467292Y23032780D01*
X48633006Y78126590D02*
X48299673Y78126590D01*
X48299673Y77602780D02*
X48299673Y78602780D01*
X48299673Y78602780D02*
X48775863Y78602780D01*
X49490149Y78126590D02*
X49156816Y78126590D01*
X49156816Y77602780D02*
X49156816Y78602780D01*
X49156816Y78602780D02*
X49633006Y78602780D01*
X50585387Y77698019D02*
X50537768Y77650400D01*
X50537768Y77650400D02*
X50394911Y77602780D01*
X50394911Y77602780D02*
X50299673Y77602780D01*
X50299673Y77602780D02*
X50156816Y77650400D01*
X50156816Y77650400D02*
X50061578Y77745638D01*
X50061578Y77745638D02*
X50013959Y77840876D01*
X50013959Y77840876D02*
X49966340Y78031352D01*
X49966340Y78031352D02*
X49966340Y78174209D01*
X49966340Y78174209D02*
X50013959Y78364685D01*
X50013959Y78364685D02*
X50061578Y78459923D01*
X50061578Y78459923D02*
X50156816Y78555161D01*
X50156816Y78555161D02*
X50299673Y78602780D01*
X50299673Y78602780D02*
X50394911Y78602780D01*
X50394911Y78602780D02*
X50537768Y78555161D01*
X50537768Y78555161D02*
X50585387Y78507542D01*
X52347292Y77602780D02*
X52013959Y78078971D01*
X51775864Y77602780D02*
X51775864Y78602780D01*
X51775864Y78602780D02*
X52156816Y78602780D01*
X52156816Y78602780D02*
X52252054Y78555161D01*
X52252054Y78555161D02*
X52299673Y78507542D01*
X52299673Y78507542D02*
X52347292Y78412304D01*
X52347292Y78412304D02*
X52347292Y78269447D01*
X52347292Y78269447D02*
X52299673Y78174209D01*
X52299673Y78174209D02*
X52252054Y78126590D01*
X52252054Y78126590D02*
X52156816Y78078971D01*
X52156816Y78078971D02*
X51775864Y78078971D01*
X53156816Y77650400D02*
X53061578Y77602780D01*
X53061578Y77602780D02*
X52871102Y77602780D01*
X52871102Y77602780D02*
X52775864Y77650400D01*
X52775864Y77650400D02*
X52728245Y77745638D01*
X52728245Y77745638D02*
X52728245Y78126590D01*
X52728245Y78126590D02*
X52775864Y78221828D01*
X52775864Y78221828D02*
X52871102Y78269447D01*
X52871102Y78269447D02*
X53061578Y78269447D01*
X53061578Y78269447D02*
X53156816Y78221828D01*
X53156816Y78221828D02*
X53204435Y78126590D01*
X53204435Y78126590D02*
X53204435Y78031352D01*
X53204435Y78031352D02*
X52728245Y77936114D01*
X54061578Y77650400D02*
X53966340Y77602780D01*
X53966340Y77602780D02*
X53775864Y77602780D01*
X53775864Y77602780D02*
X53680626Y77650400D01*
X53680626Y77650400D02*
X53633007Y77698019D01*
X53633007Y77698019D02*
X53585388Y77793257D01*
X53585388Y77793257D02*
X53585388Y78078971D01*
X53585388Y78078971D02*
X53633007Y78174209D01*
X53633007Y78174209D02*
X53680626Y78221828D01*
X53680626Y78221828D02*
X53775864Y78269447D01*
X53775864Y78269447D02*
X53966340Y78269447D01*
X53966340Y78269447D02*
X54061578Y78221828D01*
X54871102Y77650400D02*
X54775864Y77602780D01*
X54775864Y77602780D02*
X54585388Y77602780D01*
X54585388Y77602780D02*
X54490150Y77650400D01*
X54490150Y77650400D02*
X54442531Y77745638D01*
X54442531Y77745638D02*
X54442531Y78126590D01*
X54442531Y78126590D02*
X54490150Y78221828D01*
X54490150Y78221828D02*
X54585388Y78269447D01*
X54585388Y78269447D02*
X54775864Y78269447D01*
X54775864Y78269447D02*
X54871102Y78221828D01*
X54871102Y78221828D02*
X54918721Y78126590D01*
X54918721Y78126590D02*
X54918721Y78031352D01*
X54918721Y78031352D02*
X54442531Y77936114D01*
X55347293Y78269447D02*
X55347293Y77269447D01*
X55347293Y78221828D02*
X55442531Y78269447D01*
X55442531Y78269447D02*
X55633007Y78269447D01*
X55633007Y78269447D02*
X55728245Y78221828D01*
X55728245Y78221828D02*
X55775864Y78174209D01*
X55775864Y78174209D02*
X55823483Y78078971D01*
X55823483Y78078971D02*
X55823483Y77793257D01*
X55823483Y77793257D02*
X55775864Y77698019D01*
X55775864Y77698019D02*
X55728245Y77650400D01*
X55728245Y77650400D02*
X55633007Y77602780D01*
X55633007Y77602780D02*
X55442531Y77602780D01*
X55442531Y77602780D02*
X55347293Y77650400D01*
X56109198Y78269447D02*
X56490150Y78269447D01*
X56252055Y78602780D02*
X56252055Y77745638D01*
X56252055Y77745638D02*
X56299674Y77650400D01*
X56299674Y77650400D02*
X56394912Y77602780D01*
X56394912Y77602780D02*
X56490150Y77602780D01*
X56966341Y77602780D02*
X56871103Y77650400D01*
X56871103Y77650400D02*
X56823484Y77698019D01*
X56823484Y77698019D02*
X56775865Y77793257D01*
X56775865Y77793257D02*
X56775865Y78078971D01*
X56775865Y78078971D02*
X56823484Y78174209D01*
X56823484Y78174209D02*
X56871103Y78221828D01*
X56871103Y78221828D02*
X56966341Y78269447D01*
X56966341Y78269447D02*
X57109198Y78269447D01*
X57109198Y78269447D02*
X57204436Y78221828D01*
X57204436Y78221828D02*
X57252055Y78174209D01*
X57252055Y78174209D02*
X57299674Y78078971D01*
X57299674Y78078971D02*
X57299674Y77793257D01*
X57299674Y77793257D02*
X57252055Y77698019D01*
X57252055Y77698019D02*
X57204436Y77650400D01*
X57204436Y77650400D02*
X57109198Y77602780D01*
X57109198Y77602780D02*
X56966341Y77602780D01*
X57728246Y77602780D02*
X57728246Y78269447D01*
X57728246Y78078971D02*
X57775865Y78174209D01*
X57775865Y78174209D02*
X57823484Y78221828D01*
X57823484Y78221828D02*
X57918722Y78269447D01*
X57918722Y78269447D02*
X58013960Y78269447D01*
X59633008Y77602780D02*
X59061580Y77602780D01*
X59347294Y77602780D02*
X59347294Y78602780D01*
X59347294Y78602780D02*
X59252056Y78459923D01*
X59252056Y78459923D02*
X59156818Y78364685D01*
X59156818Y78364685D02*
X59061580Y78317066D01*
X48703006Y109656590D02*
X48369673Y109656590D01*
X48369673Y109132780D02*
X48369673Y110132780D01*
X48369673Y110132780D02*
X48845863Y110132780D01*
X49560149Y109656590D02*
X49226816Y109656590D01*
X49226816Y109132780D02*
X49226816Y110132780D01*
X49226816Y110132780D02*
X49703006Y110132780D01*
X50655387Y109228019D02*
X50607768Y109180400D01*
X50607768Y109180400D02*
X50464911Y109132780D01*
X50464911Y109132780D02*
X50369673Y109132780D01*
X50369673Y109132780D02*
X50226816Y109180400D01*
X50226816Y109180400D02*
X50131578Y109275638D01*
X50131578Y109275638D02*
X50083959Y109370876D01*
X50083959Y109370876D02*
X50036340Y109561352D01*
X50036340Y109561352D02*
X50036340Y109704209D01*
X50036340Y109704209D02*
X50083959Y109894685D01*
X50083959Y109894685D02*
X50131578Y109989923D01*
X50131578Y109989923D02*
X50226816Y110085161D01*
X50226816Y110085161D02*
X50369673Y110132780D01*
X50369673Y110132780D02*
X50464911Y110132780D01*
X50464911Y110132780D02*
X50607768Y110085161D01*
X50607768Y110085161D02*
X50655387Y110037542D01*
X52417292Y109132780D02*
X52083959Y109608971D01*
X51845864Y109132780D02*
X51845864Y110132780D01*
X51845864Y110132780D02*
X52226816Y110132780D01*
X52226816Y110132780D02*
X52322054Y110085161D01*
X52322054Y110085161D02*
X52369673Y110037542D01*
X52369673Y110037542D02*
X52417292Y109942304D01*
X52417292Y109942304D02*
X52417292Y109799447D01*
X52417292Y109799447D02*
X52369673Y109704209D01*
X52369673Y109704209D02*
X52322054Y109656590D01*
X52322054Y109656590D02*
X52226816Y109608971D01*
X52226816Y109608971D02*
X51845864Y109608971D01*
X53226816Y109180400D02*
X53131578Y109132780D01*
X53131578Y109132780D02*
X52941102Y109132780D01*
X52941102Y109132780D02*
X52845864Y109180400D01*
X52845864Y109180400D02*
X52798245Y109275638D01*
X52798245Y109275638D02*
X52798245Y109656590D01*
X52798245Y109656590D02*
X52845864Y109751828D01*
X52845864Y109751828D02*
X52941102Y109799447D01*
X52941102Y109799447D02*
X53131578Y109799447D01*
X53131578Y109799447D02*
X53226816Y109751828D01*
X53226816Y109751828D02*
X53274435Y109656590D01*
X53274435Y109656590D02*
X53274435Y109561352D01*
X53274435Y109561352D02*
X52798245Y109466114D01*
X54131578Y109180400D02*
X54036340Y109132780D01*
X54036340Y109132780D02*
X53845864Y109132780D01*
X53845864Y109132780D02*
X53750626Y109180400D01*
X53750626Y109180400D02*
X53703007Y109228019D01*
X53703007Y109228019D02*
X53655388Y109323257D01*
X53655388Y109323257D02*
X53655388Y109608971D01*
X53655388Y109608971D02*
X53703007Y109704209D01*
X53703007Y109704209D02*
X53750626Y109751828D01*
X53750626Y109751828D02*
X53845864Y109799447D01*
X53845864Y109799447D02*
X54036340Y109799447D01*
X54036340Y109799447D02*
X54131578Y109751828D01*
X54941102Y109180400D02*
X54845864Y109132780D01*
X54845864Y109132780D02*
X54655388Y109132780D01*
X54655388Y109132780D02*
X54560150Y109180400D01*
X54560150Y109180400D02*
X54512531Y109275638D01*
X54512531Y109275638D02*
X54512531Y109656590D01*
X54512531Y109656590D02*
X54560150Y109751828D01*
X54560150Y109751828D02*
X54655388Y109799447D01*
X54655388Y109799447D02*
X54845864Y109799447D01*
X54845864Y109799447D02*
X54941102Y109751828D01*
X54941102Y109751828D02*
X54988721Y109656590D01*
X54988721Y109656590D02*
X54988721Y109561352D01*
X54988721Y109561352D02*
X54512531Y109466114D01*
X55417293Y109799447D02*
X55417293Y108799447D01*
X55417293Y109751828D02*
X55512531Y109799447D01*
X55512531Y109799447D02*
X55703007Y109799447D01*
X55703007Y109799447D02*
X55798245Y109751828D01*
X55798245Y109751828D02*
X55845864Y109704209D01*
X55845864Y109704209D02*
X55893483Y109608971D01*
X55893483Y109608971D02*
X55893483Y109323257D01*
X55893483Y109323257D02*
X55845864Y109228019D01*
X55845864Y109228019D02*
X55798245Y109180400D01*
X55798245Y109180400D02*
X55703007Y109132780D01*
X55703007Y109132780D02*
X55512531Y109132780D01*
X55512531Y109132780D02*
X55417293Y109180400D01*
X56179198Y109799447D02*
X56560150Y109799447D01*
X56322055Y110132780D02*
X56322055Y109275638D01*
X56322055Y109275638D02*
X56369674Y109180400D01*
X56369674Y109180400D02*
X56464912Y109132780D01*
X56464912Y109132780D02*
X56560150Y109132780D01*
X57036341Y109132780D02*
X56941103Y109180400D01*
X56941103Y109180400D02*
X56893484Y109228019D01*
X56893484Y109228019D02*
X56845865Y109323257D01*
X56845865Y109323257D02*
X56845865Y109608971D01*
X56845865Y109608971D02*
X56893484Y109704209D01*
X56893484Y109704209D02*
X56941103Y109751828D01*
X56941103Y109751828D02*
X57036341Y109799447D01*
X57036341Y109799447D02*
X57179198Y109799447D01*
X57179198Y109799447D02*
X57274436Y109751828D01*
X57274436Y109751828D02*
X57322055Y109704209D01*
X57322055Y109704209D02*
X57369674Y109608971D01*
X57369674Y109608971D02*
X57369674Y109323257D01*
X57369674Y109323257D02*
X57322055Y109228019D01*
X57322055Y109228019D02*
X57274436Y109180400D01*
X57274436Y109180400D02*
X57179198Y109132780D01*
X57179198Y109132780D02*
X57036341Y109132780D01*
X57798246Y109132780D02*
X57798246Y109799447D01*
X57798246Y109608971D02*
X57845865Y109704209D01*
X57845865Y109704209D02*
X57893484Y109751828D01*
X57893484Y109751828D02*
X57988722Y109799447D01*
X57988722Y109799447D02*
X58083960Y109799447D01*
X59131580Y110037542D02*
X59179199Y110085161D01*
X59179199Y110085161D02*
X59274437Y110132780D01*
X59274437Y110132780D02*
X59512532Y110132780D01*
X59512532Y110132780D02*
X59607770Y110085161D01*
X59607770Y110085161D02*
X59655389Y110037542D01*
X59655389Y110037542D02*
X59703008Y109942304D01*
X59703008Y109942304D02*
X59703008Y109847066D01*
X59703008Y109847066D02*
X59655389Y109704209D01*
X59655389Y109704209D02*
X59083961Y109132780D01*
X59083961Y109132780D02*
X59703008Y109132780D01*
D12*
X24928571Y110984885D02*
X25428571Y110984885D01*
X25642857Y110199171D02*
X24928571Y110199171D01*
X24928571Y110199171D02*
X24928571Y111699171D01*
X24928571Y111699171D02*
X25642857Y111699171D01*
X26071429Y111699171D02*
X26928572Y111699171D01*
X26500000Y110199171D02*
X26500000Y111699171D01*
X28285714Y110199171D02*
X27785714Y110913457D01*
X27428571Y110199171D02*
X27428571Y111699171D01*
X27428571Y111699171D02*
X28000000Y111699171D01*
X28000000Y111699171D02*
X28142857Y111627742D01*
X28142857Y111627742D02*
X28214286Y111556314D01*
X28214286Y111556314D02*
X28285714Y111413457D01*
X28285714Y111413457D02*
X28285714Y111199171D01*
X28285714Y111199171D02*
X28214286Y111056314D01*
X28214286Y111056314D02*
X28142857Y110984885D01*
X28142857Y110984885D02*
X28000000Y110913457D01*
X28000000Y110913457D02*
X27428571Y110913457D01*
X29214286Y111699171D02*
X29500000Y111699171D01*
X29500000Y111699171D02*
X29642857Y111627742D01*
X29642857Y111627742D02*
X29785714Y111484885D01*
X29785714Y111484885D02*
X29857143Y111199171D01*
X29857143Y111199171D02*
X29857143Y110699171D01*
X29857143Y110699171D02*
X29785714Y110413457D01*
X29785714Y110413457D02*
X29642857Y110270600D01*
X29642857Y110270600D02*
X29500000Y110199171D01*
X29500000Y110199171D02*
X29214286Y110199171D01*
X29214286Y110199171D02*
X29071429Y110270600D01*
X29071429Y110270600D02*
X28928571Y110413457D01*
X28928571Y110413457D02*
X28857143Y110699171D01*
X28857143Y110699171D02*
X28857143Y111199171D01*
X28857143Y111199171D02*
X28928571Y111484885D01*
X28928571Y111484885D02*
X29071429Y111627742D01*
X29071429Y111627742D02*
X29214286Y111699171D01*
X31357143Y110342028D02*
X31285715Y110270600D01*
X31285715Y110270600D02*
X31071429Y110199171D01*
X31071429Y110199171D02*
X30928572Y110199171D01*
X30928572Y110199171D02*
X30714286Y110270600D01*
X30714286Y110270600D02*
X30571429Y110413457D01*
X30571429Y110413457D02*
X30500000Y110556314D01*
X30500000Y110556314D02*
X30428572Y110842028D01*
X30428572Y110842028D02*
X30428572Y111056314D01*
X30428572Y111056314D02*
X30500000Y111342028D01*
X30500000Y111342028D02*
X30571429Y111484885D01*
X30571429Y111484885D02*
X30714286Y111627742D01*
X30714286Y111627742D02*
X30928572Y111699171D01*
X30928572Y111699171D02*
X31071429Y111699171D01*
X31071429Y111699171D02*
X31285715Y111627742D01*
X31285715Y111627742D02*
X31357143Y111556314D01*
X32928572Y111199171D02*
X33500000Y111199171D01*
X33142857Y111699171D02*
X33142857Y110413457D01*
X33142857Y110413457D02*
X33214286Y110270600D01*
X33214286Y110270600D02*
X33357143Y110199171D01*
X33357143Y110199171D02*
X33500000Y110199171D01*
X34214286Y110199171D02*
X34071429Y110270600D01*
X34071429Y110270600D02*
X34000000Y110342028D01*
X34000000Y110342028D02*
X33928572Y110484885D01*
X33928572Y110484885D02*
X33928572Y110913457D01*
X33928572Y110913457D02*
X34000000Y111056314D01*
X34000000Y111056314D02*
X34071429Y111127742D01*
X34071429Y111127742D02*
X34214286Y111199171D01*
X34214286Y111199171D02*
X34428572Y111199171D01*
X34428572Y111199171D02*
X34571429Y111127742D01*
X34571429Y111127742D02*
X34642858Y111056314D01*
X34642858Y111056314D02*
X34714286Y110913457D01*
X34714286Y110913457D02*
X34714286Y110484885D01*
X34714286Y110484885D02*
X34642858Y110342028D01*
X34642858Y110342028D02*
X34571429Y110270600D01*
X34571429Y110270600D02*
X34428572Y110199171D01*
X34428572Y110199171D02*
X34214286Y110199171D01*
X37000000Y110984885D02*
X36500000Y110984885D01*
X36500000Y110199171D02*
X36500000Y111699171D01*
X36500000Y111699171D02*
X37214286Y111699171D01*
X37785714Y110199171D02*
X37785714Y111699171D01*
X37785714Y111699171D02*
X38357143Y111699171D01*
X38357143Y111699171D02*
X38500000Y111627742D01*
X38500000Y111627742D02*
X38571429Y111556314D01*
X38571429Y111556314D02*
X38642857Y111413457D01*
X38642857Y111413457D02*
X38642857Y111199171D01*
X38642857Y111199171D02*
X38571429Y111056314D01*
X38571429Y111056314D02*
X38500000Y110984885D01*
X38500000Y110984885D02*
X38357143Y110913457D01*
X38357143Y110913457D02*
X37785714Y110913457D01*
X40071429Y111627742D02*
X39928572Y111699171D01*
X39928572Y111699171D02*
X39714286Y111699171D01*
X39714286Y111699171D02*
X39500000Y111627742D01*
X39500000Y111627742D02*
X39357143Y111484885D01*
X39357143Y111484885D02*
X39285714Y111342028D01*
X39285714Y111342028D02*
X39214286Y111056314D01*
X39214286Y111056314D02*
X39214286Y110842028D01*
X39214286Y110842028D02*
X39285714Y110556314D01*
X39285714Y110556314D02*
X39357143Y110413457D01*
X39357143Y110413457D02*
X39500000Y110270600D01*
X39500000Y110270600D02*
X39714286Y110199171D01*
X39714286Y110199171D02*
X39857143Y110199171D01*
X39857143Y110199171D02*
X40071429Y110270600D01*
X40071429Y110270600D02*
X40142857Y110342028D01*
X40142857Y110342028D02*
X40142857Y110842028D01*
X40142857Y110842028D02*
X39857143Y110842028D01*
X40714286Y110627742D02*
X41428572Y110627742D01*
X40571429Y110199171D02*
X41071429Y111699171D01*
X41071429Y111699171D02*
X41571429Y110199171D01*
X43071428Y111199171D02*
X43428571Y110199171D01*
X43428571Y110199171D02*
X43785714Y111199171D01*
X45142857Y110199171D02*
X44285714Y110199171D01*
X44714285Y110199171D02*
X44714285Y111699171D01*
X44714285Y111699171D02*
X44571428Y111484885D01*
X44571428Y111484885D02*
X44428571Y111342028D01*
X44428571Y111342028D02*
X44285714Y111270600D01*
D13*
X-26775238Y37956144D02*
X-27156190Y37956144D01*
X-27156190Y37956144D02*
X-27156190Y38756144D01*
X-26508571Y38375192D02*
X-26241905Y38375192D01*
X-26127619Y37956144D02*
X-26508571Y37956144D01*
X-26508571Y37956144D02*
X-26508571Y38756144D01*
X-26508571Y38756144D02*
X-26127619Y38756144D01*
X-25784761Y37956144D02*
X-25784761Y38756144D01*
X-25784761Y38756144D02*
X-25594285Y38756144D01*
X-25594285Y38756144D02*
X-25479999Y38718049D01*
X-25479999Y38718049D02*
X-25403809Y38641859D01*
X-25403809Y38641859D02*
X-25365714Y38565668D01*
X-25365714Y38565668D02*
X-25327618Y38413287D01*
X-25327618Y38413287D02*
X-25327618Y38299001D01*
X-25327618Y38299001D02*
X-25365714Y38146620D01*
X-25365714Y38146620D02*
X-25403809Y38070430D01*
X-25403809Y38070430D02*
X-25479999Y37994240D01*
X-25479999Y37994240D02*
X-25594285Y37956144D01*
X-25594285Y37956144D02*
X-25784761Y37956144D01*
X-24565714Y37956144D02*
X-25022857Y37956144D01*
X-24794285Y37956144D02*
X-24794285Y38756144D01*
X-24794285Y38756144D02*
X-24870476Y38641859D01*
X-24870476Y38641859D02*
X-24946666Y38565668D01*
X-24946666Y38565668D02*
X-25022857Y38527573D01*
X41807664Y35485714D02*
X41845760Y35447618D01*
X41845760Y35447618D02*
X41883855Y35333333D01*
X41883855Y35333333D02*
X41883855Y35257142D01*
X41883855Y35257142D02*
X41845760Y35142856D01*
X41845760Y35142856D02*
X41769569Y35066666D01*
X41769569Y35066666D02*
X41693379Y35028571D01*
X41693379Y35028571D02*
X41540998Y34990475D01*
X41540998Y34990475D02*
X41426712Y34990475D01*
X41426712Y34990475D02*
X41274331Y35028571D01*
X41274331Y35028571D02*
X41198140Y35066666D01*
X41198140Y35066666D02*
X41121950Y35142856D01*
X41121950Y35142856D02*
X41083855Y35257142D01*
X41083855Y35257142D02*
X41083855Y35333333D01*
X41083855Y35333333D02*
X41121950Y35447618D01*
X41121950Y35447618D02*
X41160045Y35485714D01*
X41883855Y36247618D02*
X41883855Y35790475D01*
X41883855Y36019047D02*
X41083855Y36019047D01*
X41083855Y36019047D02*
X41198140Y35942856D01*
X41198140Y35942856D02*
X41274331Y35866666D01*
X41274331Y35866666D02*
X41312426Y35790475D01*
X41083855Y36514285D02*
X41083855Y37047619D01*
X41083855Y37047619D02*
X41883855Y36704761D01*
X56313855Y40485714D02*
X55932902Y40219047D01*
X56313855Y40028571D02*
X55513855Y40028571D01*
X55513855Y40028571D02*
X55513855Y40333333D01*
X55513855Y40333333D02*
X55551950Y40409523D01*
X55551950Y40409523D02*
X55590045Y40447618D01*
X55590045Y40447618D02*
X55666236Y40485714D01*
X55666236Y40485714D02*
X55780521Y40485714D01*
X55780521Y40485714D02*
X55856712Y40447618D01*
X55856712Y40447618D02*
X55894807Y40409523D01*
X55894807Y40409523D02*
X55932902Y40333333D01*
X55932902Y40333333D02*
X55932902Y40028571D01*
X55856712Y40942856D02*
X55818617Y40866666D01*
X55818617Y40866666D02*
X55780521Y40828571D01*
X55780521Y40828571D02*
X55704331Y40790475D01*
X55704331Y40790475D02*
X55666236Y40790475D01*
X55666236Y40790475D02*
X55590045Y40828571D01*
X55590045Y40828571D02*
X55551950Y40866666D01*
X55551950Y40866666D02*
X55513855Y40942856D01*
X55513855Y40942856D02*
X55513855Y41095237D01*
X55513855Y41095237D02*
X55551950Y41171428D01*
X55551950Y41171428D02*
X55590045Y41209523D01*
X55590045Y41209523D02*
X55666236Y41247618D01*
X55666236Y41247618D02*
X55704331Y41247618D01*
X55704331Y41247618D02*
X55780521Y41209523D01*
X55780521Y41209523D02*
X55818617Y41171428D01*
X55818617Y41171428D02*
X55856712Y41095237D01*
X55856712Y41095237D02*
X55856712Y40942856D01*
X55856712Y40942856D02*
X55894807Y40866666D01*
X55894807Y40866666D02*
X55932902Y40828571D01*
X55932902Y40828571D02*
X56009093Y40790475D01*
X56009093Y40790475D02*
X56161474Y40790475D01*
X56161474Y40790475D02*
X56237664Y40828571D01*
X56237664Y40828571D02*
X56275760Y40866666D01*
X56275760Y40866666D02*
X56313855Y40942856D01*
X56313855Y40942856D02*
X56313855Y41095237D01*
X56313855Y41095237D02*
X56275760Y41171428D01*
X56275760Y41171428D02*
X56237664Y41209523D01*
X56237664Y41209523D02*
X56161474Y41247618D01*
X56161474Y41247618D02*
X56009093Y41247618D01*
X56009093Y41247618D02*
X55932902Y41209523D01*
X55932902Y41209523D02*
X55894807Y41171428D01*
X55894807Y41171428D02*
X55856712Y41095237D01*
X56313855Y42009523D02*
X56313855Y41552380D01*
X56313855Y41780952D02*
X55513855Y41780952D01*
X55513855Y41780952D02*
X55628140Y41704761D01*
X55628140Y41704761D02*
X55704331Y41628571D01*
X55704331Y41628571D02*
X55742426Y41552380D01*
X-20226144Y43466667D02*
X-20607097Y43200000D01*
X-20226144Y43009524D02*
X-21026144Y43009524D01*
X-21026144Y43009524D02*
X-21026144Y43314286D01*
X-21026144Y43314286D02*
X-20988049Y43390476D01*
X-20988049Y43390476D02*
X-20949954Y43428571D01*
X-20949954Y43428571D02*
X-20873763Y43466667D01*
X-20873763Y43466667D02*
X-20759478Y43466667D01*
X-20759478Y43466667D02*
X-20683287Y43428571D01*
X-20683287Y43428571D02*
X-20645192Y43390476D01*
X-20645192Y43390476D02*
X-20607097Y43314286D01*
X-20607097Y43314286D02*
X-20607097Y43009524D01*
X-21026144Y43733333D02*
X-21026144Y44228571D01*
X-21026144Y44228571D02*
X-20721382Y43961905D01*
X-20721382Y43961905D02*
X-20721382Y44076190D01*
X-20721382Y44076190D02*
X-20683287Y44152381D01*
X-20683287Y44152381D02*
X-20645192Y44190476D01*
X-20645192Y44190476D02*
X-20569001Y44228571D01*
X-20569001Y44228571D02*
X-20378525Y44228571D01*
X-20378525Y44228571D02*
X-20302335Y44190476D01*
X-20302335Y44190476D02*
X-20264240Y44152381D01*
X-20264240Y44152381D02*
X-20226144Y44076190D01*
X-20226144Y44076190D02*
X-20226144Y43847619D01*
X-20226144Y43847619D02*
X-20264240Y43771428D01*
X-20264240Y43771428D02*
X-20302335Y43733333D01*
X41513855Y30685714D02*
X41132902Y30419047D01*
X41513855Y30228571D02*
X40713855Y30228571D01*
X40713855Y30228571D02*
X40713855Y30533333D01*
X40713855Y30533333D02*
X40751950Y30609523D01*
X40751950Y30609523D02*
X40790045Y30647618D01*
X40790045Y30647618D02*
X40866236Y30685714D01*
X40866236Y30685714D02*
X40980521Y30685714D01*
X40980521Y30685714D02*
X41056712Y30647618D01*
X41056712Y30647618D02*
X41094807Y30609523D01*
X41094807Y30609523D02*
X41132902Y30533333D01*
X41132902Y30533333D02*
X41132902Y30228571D01*
X40713855Y31409523D02*
X40713855Y31028571D01*
X40713855Y31028571D02*
X41094807Y30990475D01*
X41094807Y30990475D02*
X41056712Y31028571D01*
X41056712Y31028571D02*
X41018617Y31104761D01*
X41018617Y31104761D02*
X41018617Y31295237D01*
X41018617Y31295237D02*
X41056712Y31371428D01*
X41056712Y31371428D02*
X41094807Y31409523D01*
X41094807Y31409523D02*
X41170998Y31447618D01*
X41170998Y31447618D02*
X41361474Y31447618D01*
X41361474Y31447618D02*
X41437664Y31409523D01*
X41437664Y31409523D02*
X41475760Y31371428D01*
X41475760Y31371428D02*
X41513855Y31295237D01*
X41513855Y31295237D02*
X41513855Y31104761D01*
X41513855Y31104761D02*
X41475760Y31028571D01*
X41475760Y31028571D02*
X41437664Y30990475D01*
X40713855Y31714285D02*
X40713855Y32247619D01*
X40713855Y32247619D02*
X41513855Y31904761D01*
X43887664Y59466667D02*
X43925760Y59428571D01*
X43925760Y59428571D02*
X43963855Y59314286D01*
X43963855Y59314286D02*
X43963855Y59238095D01*
X43963855Y59238095D02*
X43925760Y59123809D01*
X43925760Y59123809D02*
X43849569Y59047619D01*
X43849569Y59047619D02*
X43773379Y59009524D01*
X43773379Y59009524D02*
X43620998Y58971428D01*
X43620998Y58971428D02*
X43506712Y58971428D01*
X43506712Y58971428D02*
X43354331Y59009524D01*
X43354331Y59009524D02*
X43278140Y59047619D01*
X43278140Y59047619D02*
X43201950Y59123809D01*
X43201950Y59123809D02*
X43163855Y59238095D01*
X43163855Y59238095D02*
X43163855Y59314286D01*
X43163855Y59314286D02*
X43201950Y59428571D01*
X43201950Y59428571D02*
X43240045Y59466667D01*
X43163855Y59733333D02*
X43163855Y60266667D01*
X43163855Y60266667D02*
X43963855Y59923809D01*
X50413855Y30485714D02*
X50032902Y30219047D01*
X50413855Y30028571D02*
X49613855Y30028571D01*
X49613855Y30028571D02*
X49613855Y30333333D01*
X49613855Y30333333D02*
X49651950Y30409523D01*
X49651950Y30409523D02*
X49690045Y30447618D01*
X49690045Y30447618D02*
X49766236Y30485714D01*
X49766236Y30485714D02*
X49880521Y30485714D01*
X49880521Y30485714D02*
X49956712Y30447618D01*
X49956712Y30447618D02*
X49994807Y30409523D01*
X49994807Y30409523D02*
X50032902Y30333333D01*
X50032902Y30333333D02*
X50032902Y30028571D01*
X49613855Y30752380D02*
X49613855Y31285714D01*
X49613855Y31285714D02*
X50413855Y30942856D01*
X50413855Y31628571D02*
X50413855Y31780952D01*
X50413855Y31780952D02*
X50375760Y31857142D01*
X50375760Y31857142D02*
X50337664Y31895238D01*
X50337664Y31895238D02*
X50223379Y31971428D01*
X50223379Y31971428D02*
X50070998Y32009523D01*
X50070998Y32009523D02*
X49766236Y32009523D01*
X49766236Y32009523D02*
X49690045Y31971428D01*
X49690045Y31971428D02*
X49651950Y31933333D01*
X49651950Y31933333D02*
X49613855Y31857142D01*
X49613855Y31857142D02*
X49613855Y31704761D01*
X49613855Y31704761D02*
X49651950Y31628571D01*
X49651950Y31628571D02*
X49690045Y31590476D01*
X49690045Y31590476D02*
X49766236Y31552380D01*
X49766236Y31552380D02*
X49956712Y31552380D01*
X49956712Y31552380D02*
X50032902Y31590476D01*
X50032902Y31590476D02*
X50070998Y31628571D01*
X50070998Y31628571D02*
X50109093Y31704761D01*
X50109093Y31704761D02*
X50109093Y31857142D01*
X50109093Y31857142D02*
X50070998Y31933333D01*
X50070998Y31933333D02*
X50032902Y31971428D01*
X50032902Y31971428D02*
X49956712Y32009523D01*
X-15109523Y71111144D02*
X-15109523Y70463525D01*
X-15109523Y70463525D02*
X-15071428Y70387335D01*
X-15071428Y70387335D02*
X-15033333Y70349240D01*
X-15033333Y70349240D02*
X-14957142Y70311144D01*
X-14957142Y70311144D02*
X-14804761Y70311144D01*
X-14804761Y70311144D02*
X-14728571Y70349240D01*
X-14728571Y70349240D02*
X-14690476Y70387335D01*
X-14690476Y70387335D02*
X-14652380Y70463525D01*
X-14652380Y70463525D02*
X-14652380Y71111144D01*
X-13928571Y70844478D02*
X-13928571Y70311144D01*
X-14119047Y71149240D02*
X-14309524Y70577811D01*
X-14309524Y70577811D02*
X-13814285Y70577811D01*
X-16933332Y39012335D02*
X-16971428Y38974240D01*
X-16971428Y38974240D02*
X-17085713Y38936144D01*
X-17085713Y38936144D02*
X-17161904Y38936144D01*
X-17161904Y38936144D02*
X-17276190Y38974240D01*
X-17276190Y38974240D02*
X-17352380Y39050430D01*
X-17352380Y39050430D02*
X-17390475Y39126620D01*
X-17390475Y39126620D02*
X-17428571Y39279001D01*
X-17428571Y39279001D02*
X-17428571Y39393287D01*
X-17428571Y39393287D02*
X-17390475Y39545668D01*
X-17390475Y39545668D02*
X-17352380Y39621859D01*
X-17352380Y39621859D02*
X-17276190Y39698049D01*
X-17276190Y39698049D02*
X-17161904Y39736144D01*
X-17161904Y39736144D02*
X-17085713Y39736144D01*
X-17085713Y39736144D02*
X-16971428Y39698049D01*
X-16971428Y39698049D02*
X-16933332Y39659954D01*
X-16171428Y38936144D02*
X-16628571Y38936144D01*
X-16399999Y38936144D02*
X-16399999Y39736144D01*
X-16399999Y39736144D02*
X-16476190Y39621859D01*
X-16476190Y39621859D02*
X-16552380Y39545668D01*
X-16552380Y39545668D02*
X-16628571Y39507573D01*
X44013855Y63985714D02*
X43632902Y63719047D01*
X44013855Y63528571D02*
X43213855Y63528571D01*
X43213855Y63528571D02*
X43213855Y63833333D01*
X43213855Y63833333D02*
X43251950Y63909523D01*
X43251950Y63909523D02*
X43290045Y63947618D01*
X43290045Y63947618D02*
X43366236Y63985714D01*
X43366236Y63985714D02*
X43480521Y63985714D01*
X43480521Y63985714D02*
X43556712Y63947618D01*
X43556712Y63947618D02*
X43594807Y63909523D01*
X43594807Y63909523D02*
X43632902Y63833333D01*
X43632902Y63833333D02*
X43632902Y63528571D01*
X43213855Y64252380D02*
X43213855Y64747618D01*
X43213855Y64747618D02*
X43518617Y64480952D01*
X43518617Y64480952D02*
X43518617Y64595237D01*
X43518617Y64595237D02*
X43556712Y64671428D01*
X43556712Y64671428D02*
X43594807Y64709523D01*
X43594807Y64709523D02*
X43670998Y64747618D01*
X43670998Y64747618D02*
X43861474Y64747618D01*
X43861474Y64747618D02*
X43937664Y64709523D01*
X43937664Y64709523D02*
X43975760Y64671428D01*
X43975760Y64671428D02*
X44013855Y64595237D01*
X44013855Y64595237D02*
X44013855Y64366666D01*
X44013855Y64366666D02*
X43975760Y64290475D01*
X43975760Y64290475D02*
X43937664Y64252380D01*
X43556712Y65204761D02*
X43518617Y65128571D01*
X43518617Y65128571D02*
X43480521Y65090476D01*
X43480521Y65090476D02*
X43404331Y65052380D01*
X43404331Y65052380D02*
X43366236Y65052380D01*
X43366236Y65052380D02*
X43290045Y65090476D01*
X43290045Y65090476D02*
X43251950Y65128571D01*
X43251950Y65128571D02*
X43213855Y65204761D01*
X43213855Y65204761D02*
X43213855Y65357142D01*
X43213855Y65357142D02*
X43251950Y65433333D01*
X43251950Y65433333D02*
X43290045Y65471428D01*
X43290045Y65471428D02*
X43366236Y65509523D01*
X43366236Y65509523D02*
X43404331Y65509523D01*
X43404331Y65509523D02*
X43480521Y65471428D01*
X43480521Y65471428D02*
X43518617Y65433333D01*
X43518617Y65433333D02*
X43556712Y65357142D01*
X43556712Y65357142D02*
X43556712Y65204761D01*
X43556712Y65204761D02*
X43594807Y65128571D01*
X43594807Y65128571D02*
X43632902Y65090476D01*
X43632902Y65090476D02*
X43709093Y65052380D01*
X43709093Y65052380D02*
X43861474Y65052380D01*
X43861474Y65052380D02*
X43937664Y65090476D01*
X43937664Y65090476D02*
X43975760Y65128571D01*
X43975760Y65128571D02*
X44013855Y65204761D01*
X44013855Y65204761D02*
X44013855Y65357142D01*
X44013855Y65357142D02*
X43975760Y65433333D01*
X43975760Y65433333D02*
X43937664Y65471428D01*
X43937664Y65471428D02*
X43861474Y65509523D01*
X43861474Y65509523D02*
X43709093Y65509523D01*
X43709093Y65509523D02*
X43632902Y65471428D01*
X43632902Y65471428D02*
X43594807Y65433333D01*
X43594807Y65433333D02*
X43556712Y65357142D01*
X56763855Y23985714D02*
X56382902Y23719047D01*
X56763855Y23528571D02*
X55963855Y23528571D01*
X55963855Y23528571D02*
X55963855Y23833333D01*
X55963855Y23833333D02*
X56001950Y23909523D01*
X56001950Y23909523D02*
X56040045Y23947618D01*
X56040045Y23947618D02*
X56116236Y23985714D01*
X56116236Y23985714D02*
X56230521Y23985714D01*
X56230521Y23985714D02*
X56306712Y23947618D01*
X56306712Y23947618D02*
X56344807Y23909523D01*
X56344807Y23909523D02*
X56382902Y23833333D01*
X56382902Y23833333D02*
X56382902Y23528571D01*
X55963855Y24252380D02*
X55963855Y24785714D01*
X55963855Y24785714D02*
X56763855Y24442856D01*
X55963855Y25433333D02*
X55963855Y25280952D01*
X55963855Y25280952D02*
X56001950Y25204761D01*
X56001950Y25204761D02*
X56040045Y25166666D01*
X56040045Y25166666D02*
X56154331Y25090476D01*
X56154331Y25090476D02*
X56306712Y25052380D01*
X56306712Y25052380D02*
X56611474Y25052380D01*
X56611474Y25052380D02*
X56687664Y25090476D01*
X56687664Y25090476D02*
X56725760Y25128571D01*
X56725760Y25128571D02*
X56763855Y25204761D01*
X56763855Y25204761D02*
X56763855Y25357142D01*
X56763855Y25357142D02*
X56725760Y25433333D01*
X56725760Y25433333D02*
X56687664Y25471428D01*
X56687664Y25471428D02*
X56611474Y25509523D01*
X56611474Y25509523D02*
X56420998Y25509523D01*
X56420998Y25509523D02*
X56344807Y25471428D01*
X56344807Y25471428D02*
X56306712Y25433333D01*
X56306712Y25433333D02*
X56268617Y25357142D01*
X56268617Y25357142D02*
X56268617Y25204761D01*
X56268617Y25204761D02*
X56306712Y25128571D01*
X56306712Y25128571D02*
X56344807Y25090476D01*
X56344807Y25090476D02*
X56420998Y25052380D01*
X50013855Y45385714D02*
X49632902Y45119047D01*
X50013855Y44928571D02*
X49213855Y44928571D01*
X49213855Y44928571D02*
X49213855Y45233333D01*
X49213855Y45233333D02*
X49251950Y45309523D01*
X49251950Y45309523D02*
X49290045Y45347618D01*
X49290045Y45347618D02*
X49366236Y45385714D01*
X49366236Y45385714D02*
X49480521Y45385714D01*
X49480521Y45385714D02*
X49556712Y45347618D01*
X49556712Y45347618D02*
X49594807Y45309523D01*
X49594807Y45309523D02*
X49632902Y45233333D01*
X49632902Y45233333D02*
X49632902Y44928571D01*
X49213855Y46071428D02*
X49213855Y45919047D01*
X49213855Y45919047D02*
X49251950Y45842856D01*
X49251950Y45842856D02*
X49290045Y45804761D01*
X49290045Y45804761D02*
X49404331Y45728571D01*
X49404331Y45728571D02*
X49556712Y45690475D01*
X49556712Y45690475D02*
X49861474Y45690475D01*
X49861474Y45690475D02*
X49937664Y45728571D01*
X49937664Y45728571D02*
X49975760Y45766666D01*
X49975760Y45766666D02*
X50013855Y45842856D01*
X50013855Y45842856D02*
X50013855Y45995237D01*
X50013855Y45995237D02*
X49975760Y46071428D01*
X49975760Y46071428D02*
X49937664Y46109523D01*
X49937664Y46109523D02*
X49861474Y46147618D01*
X49861474Y46147618D02*
X49670998Y46147618D01*
X49670998Y46147618D02*
X49594807Y46109523D01*
X49594807Y46109523D02*
X49556712Y46071428D01*
X49556712Y46071428D02*
X49518617Y45995237D01*
X49518617Y45995237D02*
X49518617Y45842856D01*
X49518617Y45842856D02*
X49556712Y45766666D01*
X49556712Y45766666D02*
X49594807Y45728571D01*
X49594807Y45728571D02*
X49670998Y45690475D01*
X49213855Y46414285D02*
X49213855Y46947619D01*
X49213855Y46947619D02*
X50013855Y46604761D01*
X50707664Y35485714D02*
X50745760Y35447618D01*
X50745760Y35447618D02*
X50783855Y35333333D01*
X50783855Y35333333D02*
X50783855Y35257142D01*
X50783855Y35257142D02*
X50745760Y35142856D01*
X50745760Y35142856D02*
X50669569Y35066666D01*
X50669569Y35066666D02*
X50593379Y35028571D01*
X50593379Y35028571D02*
X50440998Y34990475D01*
X50440998Y34990475D02*
X50326712Y34990475D01*
X50326712Y34990475D02*
X50174331Y35028571D01*
X50174331Y35028571D02*
X50098140Y35066666D01*
X50098140Y35066666D02*
X50021950Y35142856D01*
X50021950Y35142856D02*
X49983855Y35257142D01*
X49983855Y35257142D02*
X49983855Y35333333D01*
X49983855Y35333333D02*
X50021950Y35447618D01*
X50021950Y35447618D02*
X50060045Y35485714D01*
X50060045Y35790475D02*
X50021950Y35828571D01*
X50021950Y35828571D02*
X49983855Y35904761D01*
X49983855Y35904761D02*
X49983855Y36095237D01*
X49983855Y36095237D02*
X50021950Y36171428D01*
X50021950Y36171428D02*
X50060045Y36209523D01*
X50060045Y36209523D02*
X50136236Y36247618D01*
X50136236Y36247618D02*
X50212426Y36247618D01*
X50212426Y36247618D02*
X50326712Y36209523D01*
X50326712Y36209523D02*
X50783855Y35752380D01*
X50783855Y35752380D02*
X50783855Y36247618D01*
X50060045Y36552380D02*
X50021950Y36590476D01*
X50021950Y36590476D02*
X49983855Y36666666D01*
X49983855Y36666666D02*
X49983855Y36857142D01*
X49983855Y36857142D02*
X50021950Y36933333D01*
X50021950Y36933333D02*
X50060045Y36971428D01*
X50060045Y36971428D02*
X50136236Y37009523D01*
X50136236Y37009523D02*
X50212426Y37009523D01*
X50212426Y37009523D02*
X50326712Y36971428D01*
X50326712Y36971428D02*
X50783855Y36514285D01*
X50783855Y36514285D02*
X50783855Y37009523D01*
X47238855Y45410714D02*
X46857902Y45144047D01*
X47238855Y44953571D02*
X46438855Y44953571D01*
X46438855Y44953571D02*
X46438855Y45258333D01*
X46438855Y45258333D02*
X46476950Y45334523D01*
X46476950Y45334523D02*
X46515045Y45372618D01*
X46515045Y45372618D02*
X46591236Y45410714D01*
X46591236Y45410714D02*
X46705521Y45410714D01*
X46705521Y45410714D02*
X46781712Y45372618D01*
X46781712Y45372618D02*
X46819807Y45334523D01*
X46819807Y45334523D02*
X46857902Y45258333D01*
X46857902Y45258333D02*
X46857902Y44953571D01*
X46438855Y46096428D02*
X46438855Y45944047D01*
X46438855Y45944047D02*
X46476950Y45867856D01*
X46476950Y45867856D02*
X46515045Y45829761D01*
X46515045Y45829761D02*
X46629331Y45753571D01*
X46629331Y45753571D02*
X46781712Y45715475D01*
X46781712Y45715475D02*
X47086474Y45715475D01*
X47086474Y45715475D02*
X47162664Y45753571D01*
X47162664Y45753571D02*
X47200760Y45791666D01*
X47200760Y45791666D02*
X47238855Y45867856D01*
X47238855Y45867856D02*
X47238855Y46020237D01*
X47238855Y46020237D02*
X47200760Y46096428D01*
X47200760Y46096428D02*
X47162664Y46134523D01*
X47162664Y46134523D02*
X47086474Y46172618D01*
X47086474Y46172618D02*
X46895998Y46172618D01*
X46895998Y46172618D02*
X46819807Y46134523D01*
X46819807Y46134523D02*
X46781712Y46096428D01*
X46781712Y46096428D02*
X46743617Y46020237D01*
X46743617Y46020237D02*
X46743617Y45867856D01*
X46743617Y45867856D02*
X46781712Y45791666D01*
X46781712Y45791666D02*
X46819807Y45753571D01*
X46819807Y45753571D02*
X46895998Y45715475D01*
X46438855Y46858333D02*
X46438855Y46705952D01*
X46438855Y46705952D02*
X46476950Y46629761D01*
X46476950Y46629761D02*
X46515045Y46591666D01*
X46515045Y46591666D02*
X46629331Y46515476D01*
X46629331Y46515476D02*
X46781712Y46477380D01*
X46781712Y46477380D02*
X47086474Y46477380D01*
X47086474Y46477380D02*
X47162664Y46515476D01*
X47162664Y46515476D02*
X47200760Y46553571D01*
X47200760Y46553571D02*
X47238855Y46629761D01*
X47238855Y46629761D02*
X47238855Y46782142D01*
X47238855Y46782142D02*
X47200760Y46858333D01*
X47200760Y46858333D02*
X47162664Y46896428D01*
X47162664Y46896428D02*
X47086474Y46934523D01*
X47086474Y46934523D02*
X46895998Y46934523D01*
X46895998Y46934523D02*
X46819807Y46896428D01*
X46819807Y46896428D02*
X46781712Y46858333D01*
X46781712Y46858333D02*
X46743617Y46782142D01*
X46743617Y46782142D02*
X46743617Y46629761D01*
X46743617Y46629761D02*
X46781712Y46553571D01*
X46781712Y46553571D02*
X46819807Y46515476D01*
X46819807Y46515476D02*
X46895998Y46477380D01*
X50887664Y59085714D02*
X50925760Y59047618D01*
X50925760Y59047618D02*
X50963855Y58933333D01*
X50963855Y58933333D02*
X50963855Y58857142D01*
X50963855Y58857142D02*
X50925760Y58742856D01*
X50925760Y58742856D02*
X50849569Y58666666D01*
X50849569Y58666666D02*
X50773379Y58628571D01*
X50773379Y58628571D02*
X50620998Y58590475D01*
X50620998Y58590475D02*
X50506712Y58590475D01*
X50506712Y58590475D02*
X50354331Y58628571D01*
X50354331Y58628571D02*
X50278140Y58666666D01*
X50278140Y58666666D02*
X50201950Y58742856D01*
X50201950Y58742856D02*
X50163855Y58857142D01*
X50163855Y58857142D02*
X50163855Y58933333D01*
X50163855Y58933333D02*
X50201950Y59047618D01*
X50201950Y59047618D02*
X50240045Y59085714D01*
X50240045Y59390475D02*
X50201950Y59428571D01*
X50201950Y59428571D02*
X50163855Y59504761D01*
X50163855Y59504761D02*
X50163855Y59695237D01*
X50163855Y59695237D02*
X50201950Y59771428D01*
X50201950Y59771428D02*
X50240045Y59809523D01*
X50240045Y59809523D02*
X50316236Y59847618D01*
X50316236Y59847618D02*
X50392426Y59847618D01*
X50392426Y59847618D02*
X50506712Y59809523D01*
X50506712Y59809523D02*
X50963855Y59352380D01*
X50963855Y59352380D02*
X50963855Y59847618D01*
X50963855Y60609523D02*
X50963855Y60152380D01*
X50963855Y60380952D02*
X50163855Y60380952D01*
X50163855Y60380952D02*
X50278140Y60304761D01*
X50278140Y60304761D02*
X50354331Y60228571D01*
X50354331Y60228571D02*
X50392426Y60152380D01*
X56788855Y30585714D02*
X56407902Y30319047D01*
X56788855Y30128571D02*
X55988855Y30128571D01*
X55988855Y30128571D02*
X55988855Y30433333D01*
X55988855Y30433333D02*
X56026950Y30509523D01*
X56026950Y30509523D02*
X56065045Y30547618D01*
X56065045Y30547618D02*
X56141236Y30585714D01*
X56141236Y30585714D02*
X56255521Y30585714D01*
X56255521Y30585714D02*
X56331712Y30547618D01*
X56331712Y30547618D02*
X56369807Y30509523D01*
X56369807Y30509523D02*
X56407902Y30433333D01*
X56407902Y30433333D02*
X56407902Y30128571D01*
X55988855Y30852380D02*
X55988855Y31385714D01*
X55988855Y31385714D02*
X56788855Y31042856D01*
X56331712Y31804761D02*
X56293617Y31728571D01*
X56293617Y31728571D02*
X56255521Y31690476D01*
X56255521Y31690476D02*
X56179331Y31652380D01*
X56179331Y31652380D02*
X56141236Y31652380D01*
X56141236Y31652380D02*
X56065045Y31690476D01*
X56065045Y31690476D02*
X56026950Y31728571D01*
X56026950Y31728571D02*
X55988855Y31804761D01*
X55988855Y31804761D02*
X55988855Y31957142D01*
X55988855Y31957142D02*
X56026950Y32033333D01*
X56026950Y32033333D02*
X56065045Y32071428D01*
X56065045Y32071428D02*
X56141236Y32109523D01*
X56141236Y32109523D02*
X56179331Y32109523D01*
X56179331Y32109523D02*
X56255521Y32071428D01*
X56255521Y32071428D02*
X56293617Y32033333D01*
X56293617Y32033333D02*
X56331712Y31957142D01*
X56331712Y31957142D02*
X56331712Y31804761D01*
X56331712Y31804761D02*
X56369807Y31728571D01*
X56369807Y31728571D02*
X56407902Y31690476D01*
X56407902Y31690476D02*
X56484093Y31652380D01*
X56484093Y31652380D02*
X56636474Y31652380D01*
X56636474Y31652380D02*
X56712664Y31690476D01*
X56712664Y31690476D02*
X56750760Y31728571D01*
X56750760Y31728571D02*
X56788855Y31804761D01*
X56788855Y31804761D02*
X56788855Y31957142D01*
X56788855Y31957142D02*
X56750760Y32033333D01*
X56750760Y32033333D02*
X56712664Y32071428D01*
X56712664Y32071428D02*
X56636474Y32109523D01*
X56636474Y32109523D02*
X56484093Y32109523D01*
X56484093Y32109523D02*
X56407902Y32071428D01*
X56407902Y32071428D02*
X56369807Y32033333D01*
X56369807Y32033333D02*
X56331712Y31957142D01*
X-14849523Y54870244D02*
X-14849523Y54222625D01*
X-14849523Y54222625D02*
X-14811428Y54146435D01*
X-14811428Y54146435D02*
X-14773333Y54108340D01*
X-14773333Y54108340D02*
X-14697142Y54070244D01*
X-14697142Y54070244D02*
X-14544761Y54070244D01*
X-14544761Y54070244D02*
X-14468571Y54108340D01*
X-14468571Y54108340D02*
X-14430476Y54146435D01*
X-14430476Y54146435D02*
X-14392380Y54222625D01*
X-14392380Y54222625D02*
X-14392380Y54870244D01*
X-13592381Y54070244D02*
X-14049524Y54070244D01*
X-13820952Y54070244D02*
X-13820952Y54870244D01*
X-13820952Y54870244D02*
X-13897143Y54755959D01*
X-13897143Y54755959D02*
X-13973333Y54679768D01*
X-13973333Y54679768D02*
X-14049524Y54641673D01*
D14*
X-19319999Y48845180D02*
X-19319999Y48607085D01*
X-19558094Y48702323D02*
X-19319999Y48607085D01*
X-19319999Y48607085D02*
X-19081904Y48702323D01*
X-19462856Y48416609D02*
X-19319999Y48607085D01*
X-19319999Y48607085D02*
X-19177142Y48416609D01*
X-19319999Y48845180D02*
X-19319999Y48607085D01*
X-19558094Y48702323D02*
X-19319999Y48607085D01*
X-19319999Y48607085D02*
X-19081904Y48702323D01*
X-19462856Y48416609D02*
X-19319999Y48607085D01*
X-19319999Y48607085D02*
X-19177142Y48416609D01*
D13*
X56187664Y35585714D02*
X56225760Y35547618D01*
X56225760Y35547618D02*
X56263855Y35433333D01*
X56263855Y35433333D02*
X56263855Y35357142D01*
X56263855Y35357142D02*
X56225760Y35242856D01*
X56225760Y35242856D02*
X56149569Y35166666D01*
X56149569Y35166666D02*
X56073379Y35128571D01*
X56073379Y35128571D02*
X55920998Y35090475D01*
X55920998Y35090475D02*
X55806712Y35090475D01*
X55806712Y35090475D02*
X55654331Y35128571D01*
X55654331Y35128571D02*
X55578140Y35166666D01*
X55578140Y35166666D02*
X55501950Y35242856D01*
X55501950Y35242856D02*
X55463855Y35357142D01*
X55463855Y35357142D02*
X55463855Y35433333D01*
X55463855Y35433333D02*
X55501950Y35547618D01*
X55501950Y35547618D02*
X55540045Y35585714D01*
X55540045Y35890475D02*
X55501950Y35928571D01*
X55501950Y35928571D02*
X55463855Y36004761D01*
X55463855Y36004761D02*
X55463855Y36195237D01*
X55463855Y36195237D02*
X55501950Y36271428D01*
X55501950Y36271428D02*
X55540045Y36309523D01*
X55540045Y36309523D02*
X55616236Y36347618D01*
X55616236Y36347618D02*
X55692426Y36347618D01*
X55692426Y36347618D02*
X55806712Y36309523D01*
X55806712Y36309523D02*
X56263855Y35852380D01*
X56263855Y35852380D02*
X56263855Y36347618D01*
X55463855Y36614285D02*
X55463855Y37109523D01*
X55463855Y37109523D02*
X55768617Y36842857D01*
X55768617Y36842857D02*
X55768617Y36957142D01*
X55768617Y36957142D02*
X55806712Y37033333D01*
X55806712Y37033333D02*
X55844807Y37071428D01*
X55844807Y37071428D02*
X55920998Y37109523D01*
X55920998Y37109523D02*
X56111474Y37109523D01*
X56111474Y37109523D02*
X56187664Y37071428D01*
X56187664Y37071428D02*
X56225760Y37033333D01*
X56225760Y37033333D02*
X56263855Y36957142D01*
X56263855Y36957142D02*
X56263855Y36728571D01*
X56263855Y36728571D02*
X56225760Y36652380D01*
X56225760Y36652380D02*
X56187664Y36614285D01*
X-17014285Y35736144D02*
X-17280952Y36117097D01*
X-17471428Y35736144D02*
X-17471428Y36536144D01*
X-17471428Y36536144D02*
X-17166666Y36536144D01*
X-17166666Y36536144D02*
X-17090476Y36498049D01*
X-17090476Y36498049D02*
X-17052381Y36459954D01*
X-17052381Y36459954D02*
X-17014285Y36383763D01*
X-17014285Y36383763D02*
X-17014285Y36269478D01*
X-17014285Y36269478D02*
X-17052381Y36193287D01*
X-17052381Y36193287D02*
X-17090476Y36155192D01*
X-17090476Y36155192D02*
X-17166666Y36117097D01*
X-17166666Y36117097D02*
X-17471428Y36117097D01*
X-16709524Y36459954D02*
X-16671428Y36498049D01*
X-16671428Y36498049D02*
X-16595238Y36536144D01*
X-16595238Y36536144D02*
X-16404762Y36536144D01*
X-16404762Y36536144D02*
X-16328571Y36498049D01*
X-16328571Y36498049D02*
X-16290476Y36459954D01*
X-16290476Y36459954D02*
X-16252381Y36383763D01*
X-16252381Y36383763D02*
X-16252381Y36307573D01*
X-16252381Y36307573D02*
X-16290476Y36193287D01*
X-16290476Y36193287D02*
X-16747619Y35736144D01*
X-16747619Y35736144D02*
X-16252381Y35736144D01*
X-15528571Y36536144D02*
X-15909523Y36536144D01*
X-15909523Y36536144D02*
X-15947619Y36155192D01*
X-15947619Y36155192D02*
X-15909523Y36193287D01*
X-15909523Y36193287D02*
X-15833333Y36231382D01*
X-15833333Y36231382D02*
X-15642857Y36231382D01*
X-15642857Y36231382D02*
X-15566666Y36193287D01*
X-15566666Y36193287D02*
X-15528571Y36155192D01*
X-15528571Y36155192D02*
X-15490476Y36079001D01*
X-15490476Y36079001D02*
X-15490476Y35888525D01*
X-15490476Y35888525D02*
X-15528571Y35812335D01*
X-15528571Y35812335D02*
X-15566666Y35774240D01*
X-15566666Y35774240D02*
X-15642857Y35736144D01*
X-15642857Y35736144D02*
X-15833333Y35736144D01*
X-15833333Y35736144D02*
X-15909523Y35774240D01*
X-15909523Y35774240D02*
X-15947619Y35812335D01*
X3570476Y49158144D02*
X4027619Y49158144D01*
X3799047Y48358144D02*
X3799047Y49158144D01*
X4294286Y48358144D02*
X4294286Y49158144D01*
X4294286Y49158144D02*
X4599048Y49158144D01*
X4599048Y49158144D02*
X4675238Y49120049D01*
X4675238Y49120049D02*
X4713333Y49081954D01*
X4713333Y49081954D02*
X4751429Y49005763D01*
X4751429Y49005763D02*
X4751429Y48891478D01*
X4751429Y48891478D02*
X4713333Y48815287D01*
X4713333Y48815287D02*
X4675238Y48777192D01*
X4675238Y48777192D02*
X4599048Y48739097D01*
X4599048Y48739097D02*
X4294286Y48739097D01*
X5437143Y48891478D02*
X5437143Y48358144D01*
X5246667Y49196240D02*
X5056190Y48624811D01*
X5056190Y48624811D02*
X5551429Y48624811D01*
X-27709523Y49334144D02*
X-27252380Y49334144D01*
X-27480952Y48534144D02*
X-27480952Y49334144D01*
X-26985713Y48534144D02*
X-26985713Y49334144D01*
X-26985713Y49334144D02*
X-26680951Y49334144D01*
X-26680951Y49334144D02*
X-26604761Y49296049D01*
X-26604761Y49296049D02*
X-26566666Y49257954D01*
X-26566666Y49257954D02*
X-26528570Y49181763D01*
X-26528570Y49181763D02*
X-26528570Y49067478D01*
X-26528570Y49067478D02*
X-26566666Y48991287D01*
X-26566666Y48991287D02*
X-26604761Y48953192D01*
X-26604761Y48953192D02*
X-26680951Y48915097D01*
X-26680951Y48915097D02*
X-26985713Y48915097D01*
X-25766666Y48534144D02*
X-26223809Y48534144D01*
X-25995237Y48534144D02*
X-25995237Y49334144D01*
X-25995237Y49334144D02*
X-26071428Y49219859D01*
X-26071428Y49219859D02*
X-26147618Y49143668D01*
X-26147618Y49143668D02*
X-26223809Y49105573D01*
X41363855Y24185714D02*
X40982902Y23919047D01*
X41363855Y23728571D02*
X40563855Y23728571D01*
X40563855Y23728571D02*
X40563855Y24033333D01*
X40563855Y24033333D02*
X40601950Y24109523D01*
X40601950Y24109523D02*
X40640045Y24147618D01*
X40640045Y24147618D02*
X40716236Y24185714D01*
X40716236Y24185714D02*
X40830521Y24185714D01*
X40830521Y24185714D02*
X40906712Y24147618D01*
X40906712Y24147618D02*
X40944807Y24109523D01*
X40944807Y24109523D02*
X40982902Y24033333D01*
X40982902Y24033333D02*
X40982902Y23728571D01*
X40563855Y24909523D02*
X40563855Y24528571D01*
X40563855Y24528571D02*
X40944807Y24490475D01*
X40944807Y24490475D02*
X40906712Y24528571D01*
X40906712Y24528571D02*
X40868617Y24604761D01*
X40868617Y24604761D02*
X40868617Y24795237D01*
X40868617Y24795237D02*
X40906712Y24871428D01*
X40906712Y24871428D02*
X40944807Y24909523D01*
X40944807Y24909523D02*
X41020998Y24947618D01*
X41020998Y24947618D02*
X41211474Y24947618D01*
X41211474Y24947618D02*
X41287664Y24909523D01*
X41287664Y24909523D02*
X41325760Y24871428D01*
X41325760Y24871428D02*
X41363855Y24795237D01*
X41363855Y24795237D02*
X41363855Y24604761D01*
X41363855Y24604761D02*
X41325760Y24528571D01*
X41325760Y24528571D02*
X41287664Y24490475D01*
X40563855Y25214285D02*
X40563855Y25709523D01*
X40563855Y25709523D02*
X40868617Y25442857D01*
X40868617Y25442857D02*
X40868617Y25557142D01*
X40868617Y25557142D02*
X40906712Y25633333D01*
X40906712Y25633333D02*
X40944807Y25671428D01*
X40944807Y25671428D02*
X41020998Y25709523D01*
X41020998Y25709523D02*
X41211474Y25709523D01*
X41211474Y25709523D02*
X41287664Y25671428D01*
X41287664Y25671428D02*
X41325760Y25633333D01*
X41325760Y25633333D02*
X41363855Y25557142D01*
X41363855Y25557142D02*
X41363855Y25328571D01*
X41363855Y25328571D02*
X41325760Y25252380D01*
X41325760Y25252380D02*
X41287664Y25214285D01*
X35733333Y72580144D02*
X35733333Y72008716D01*
X35733333Y72008716D02*
X35695238Y71894430D01*
X35695238Y71894430D02*
X35619047Y71818240D01*
X35619047Y71818240D02*
X35504762Y71780144D01*
X35504762Y71780144D02*
X35428571Y71780144D01*
X36495238Y72580144D02*
X36114286Y72580144D01*
X36114286Y72580144D02*
X36076190Y72199192D01*
X36076190Y72199192D02*
X36114286Y72237287D01*
X36114286Y72237287D02*
X36190476Y72275382D01*
X36190476Y72275382D02*
X36380952Y72275382D01*
X36380952Y72275382D02*
X36457143Y72237287D01*
X36457143Y72237287D02*
X36495238Y72199192D01*
X36495238Y72199192D02*
X36533333Y72123001D01*
X36533333Y72123001D02*
X36533333Y71932525D01*
X36533333Y71932525D02*
X36495238Y71856335D01*
X36495238Y71856335D02*
X36457143Y71818240D01*
X36457143Y71818240D02*
X36380952Y71780144D01*
X36380952Y71780144D02*
X36190476Y71780144D01*
X36190476Y71780144D02*
X36114286Y71818240D01*
X36114286Y71818240D02*
X36076190Y71856335D01*
X39363855Y45360714D02*
X38982902Y45094047D01*
X39363855Y44903571D02*
X38563855Y44903571D01*
X38563855Y44903571D02*
X38563855Y45208333D01*
X38563855Y45208333D02*
X38601950Y45284523D01*
X38601950Y45284523D02*
X38640045Y45322618D01*
X38640045Y45322618D02*
X38716236Y45360714D01*
X38716236Y45360714D02*
X38830521Y45360714D01*
X38830521Y45360714D02*
X38906712Y45322618D01*
X38906712Y45322618D02*
X38944807Y45284523D01*
X38944807Y45284523D02*
X38982902Y45208333D01*
X38982902Y45208333D02*
X38982902Y44903571D01*
X38640045Y45665475D02*
X38601950Y45703571D01*
X38601950Y45703571D02*
X38563855Y45779761D01*
X38563855Y45779761D02*
X38563855Y45970237D01*
X38563855Y45970237D02*
X38601950Y46046428D01*
X38601950Y46046428D02*
X38640045Y46084523D01*
X38640045Y46084523D02*
X38716236Y46122618D01*
X38716236Y46122618D02*
X38792426Y46122618D01*
X38792426Y46122618D02*
X38906712Y46084523D01*
X38906712Y46084523D02*
X39363855Y45627380D01*
X39363855Y45627380D02*
X39363855Y46122618D01*
X38563855Y46808333D02*
X38563855Y46655952D01*
X38563855Y46655952D02*
X38601950Y46579761D01*
X38601950Y46579761D02*
X38640045Y46541666D01*
X38640045Y46541666D02*
X38754331Y46465476D01*
X38754331Y46465476D02*
X38906712Y46427380D01*
X38906712Y46427380D02*
X39211474Y46427380D01*
X39211474Y46427380D02*
X39287664Y46465476D01*
X39287664Y46465476D02*
X39325760Y46503571D01*
X39325760Y46503571D02*
X39363855Y46579761D01*
X39363855Y46579761D02*
X39363855Y46732142D01*
X39363855Y46732142D02*
X39325760Y46808333D01*
X39325760Y46808333D02*
X39287664Y46846428D01*
X39287664Y46846428D02*
X39211474Y46884523D01*
X39211474Y46884523D02*
X39020998Y46884523D01*
X39020998Y46884523D02*
X38944807Y46846428D01*
X38944807Y46846428D02*
X38906712Y46808333D01*
X38906712Y46808333D02*
X38868617Y46732142D01*
X38868617Y46732142D02*
X38868617Y46579761D01*
X38868617Y46579761D02*
X38906712Y46503571D01*
X38906712Y46503571D02*
X38944807Y46465476D01*
X38944807Y46465476D02*
X39020998Y46427380D01*
X47863855Y24285714D02*
X47482902Y24019047D01*
X47863855Y23828571D02*
X47063855Y23828571D01*
X47063855Y23828571D02*
X47063855Y24133333D01*
X47063855Y24133333D02*
X47101950Y24209523D01*
X47101950Y24209523D02*
X47140045Y24247618D01*
X47140045Y24247618D02*
X47216236Y24285714D01*
X47216236Y24285714D02*
X47330521Y24285714D01*
X47330521Y24285714D02*
X47406712Y24247618D01*
X47406712Y24247618D02*
X47444807Y24209523D01*
X47444807Y24209523D02*
X47482902Y24133333D01*
X47482902Y24133333D02*
X47482902Y23828571D01*
X47063855Y25009523D02*
X47063855Y24628571D01*
X47063855Y24628571D02*
X47444807Y24590475D01*
X47444807Y24590475D02*
X47406712Y24628571D01*
X47406712Y24628571D02*
X47368617Y24704761D01*
X47368617Y24704761D02*
X47368617Y24895237D01*
X47368617Y24895237D02*
X47406712Y24971428D01*
X47406712Y24971428D02*
X47444807Y25009523D01*
X47444807Y25009523D02*
X47520998Y25047618D01*
X47520998Y25047618D02*
X47711474Y25047618D01*
X47711474Y25047618D02*
X47787664Y25009523D01*
X47787664Y25009523D02*
X47825760Y24971428D01*
X47825760Y24971428D02*
X47863855Y24895237D01*
X47863855Y24895237D02*
X47863855Y24704761D01*
X47863855Y24704761D02*
X47825760Y24628571D01*
X47825760Y24628571D02*
X47787664Y24590475D01*
X47330521Y25733333D02*
X47863855Y25733333D01*
X47025760Y25542857D02*
X47597188Y25352380D01*
X47597188Y25352380D02*
X47597188Y25847619D01*
X38407664Y59366667D02*
X38445760Y59328571D01*
X38445760Y59328571D02*
X38483855Y59214286D01*
X38483855Y59214286D02*
X38483855Y59138095D01*
X38483855Y59138095D02*
X38445760Y59023809D01*
X38445760Y59023809D02*
X38369569Y58947619D01*
X38369569Y58947619D02*
X38293379Y58909524D01*
X38293379Y58909524D02*
X38140998Y58871428D01*
X38140998Y58871428D02*
X38026712Y58871428D01*
X38026712Y58871428D02*
X37874331Y58909524D01*
X37874331Y58909524D02*
X37798140Y58947619D01*
X37798140Y58947619D02*
X37721950Y59023809D01*
X37721950Y59023809D02*
X37683855Y59138095D01*
X37683855Y59138095D02*
X37683855Y59214286D01*
X37683855Y59214286D02*
X37721950Y59328571D01*
X37721950Y59328571D02*
X37760045Y59366667D01*
X37683855Y60052381D02*
X37683855Y59900000D01*
X37683855Y59900000D02*
X37721950Y59823809D01*
X37721950Y59823809D02*
X37760045Y59785714D01*
X37760045Y59785714D02*
X37874331Y59709524D01*
X37874331Y59709524D02*
X38026712Y59671428D01*
X38026712Y59671428D02*
X38331474Y59671428D01*
X38331474Y59671428D02*
X38407664Y59709524D01*
X38407664Y59709524D02*
X38445760Y59747619D01*
X38445760Y59747619D02*
X38483855Y59823809D01*
X38483855Y59823809D02*
X38483855Y59976190D01*
X38483855Y59976190D02*
X38445760Y60052381D01*
X38445760Y60052381D02*
X38407664Y60090476D01*
X38407664Y60090476D02*
X38331474Y60128571D01*
X38331474Y60128571D02*
X38140998Y60128571D01*
X38140998Y60128571D02*
X38064807Y60090476D01*
X38064807Y60090476D02*
X38026712Y60052381D01*
X38026712Y60052381D02*
X37988617Y59976190D01*
X37988617Y59976190D02*
X37988617Y59823809D01*
X37988617Y59823809D02*
X38026712Y59747619D01*
X38026712Y59747619D02*
X38064807Y59709524D01*
X38064807Y59709524D02*
X38140998Y59671428D01*
X-26476666Y107476144D02*
X-26476666Y106904716D01*
X-26476666Y106904716D02*
X-26514761Y106790430D01*
X-26514761Y106790430D02*
X-26590952Y106714240D01*
X-26590952Y106714240D02*
X-26705237Y106676144D01*
X-26705237Y106676144D02*
X-26781428Y106676144D01*
X-25676666Y106676144D02*
X-26133809Y106676144D01*
X-25905237Y106676144D02*
X-25905237Y107476144D01*
X-25905237Y107476144D02*
X-25981428Y107361859D01*
X-25981428Y107361859D02*
X-26057618Y107285668D01*
X-26057618Y107285668D02*
X-26133809Y107247573D01*
X35733333Y104580144D02*
X35733333Y104008716D01*
X35733333Y104008716D02*
X35695238Y103894430D01*
X35695238Y103894430D02*
X35619047Y103818240D01*
X35619047Y103818240D02*
X35504762Y103780144D01*
X35504762Y103780144D02*
X35428571Y103780144D01*
X36457143Y104580144D02*
X36304762Y104580144D01*
X36304762Y104580144D02*
X36228571Y104542049D01*
X36228571Y104542049D02*
X36190476Y104503954D01*
X36190476Y104503954D02*
X36114286Y104389668D01*
X36114286Y104389668D02*
X36076190Y104237287D01*
X36076190Y104237287D02*
X36076190Y103932525D01*
X36076190Y103932525D02*
X36114286Y103856335D01*
X36114286Y103856335D02*
X36152381Y103818240D01*
X36152381Y103818240D02*
X36228571Y103780144D01*
X36228571Y103780144D02*
X36380952Y103780144D01*
X36380952Y103780144D02*
X36457143Y103818240D01*
X36457143Y103818240D02*
X36495238Y103856335D01*
X36495238Y103856335D02*
X36533333Y103932525D01*
X36533333Y103932525D02*
X36533333Y104123001D01*
X36533333Y104123001D02*
X36495238Y104199192D01*
X36495238Y104199192D02*
X36457143Y104237287D01*
X36457143Y104237287D02*
X36380952Y104275382D01*
X36380952Y104275382D02*
X36228571Y104275382D01*
X36228571Y104275382D02*
X36152381Y104237287D01*
X36152381Y104237287D02*
X36114286Y104199192D01*
X36114286Y104199192D02*
X36076190Y104123001D01*
X47763855Y30685714D02*
X47382902Y30419047D01*
X47763855Y30228571D02*
X46963855Y30228571D01*
X46963855Y30228571D02*
X46963855Y30533333D01*
X46963855Y30533333D02*
X47001950Y30609523D01*
X47001950Y30609523D02*
X47040045Y30647618D01*
X47040045Y30647618D02*
X47116236Y30685714D01*
X47116236Y30685714D02*
X47230521Y30685714D01*
X47230521Y30685714D02*
X47306712Y30647618D01*
X47306712Y30647618D02*
X47344807Y30609523D01*
X47344807Y30609523D02*
X47382902Y30533333D01*
X47382902Y30533333D02*
X47382902Y30228571D01*
X46963855Y31409523D02*
X46963855Y31028571D01*
X46963855Y31028571D02*
X47344807Y30990475D01*
X47344807Y30990475D02*
X47306712Y31028571D01*
X47306712Y31028571D02*
X47268617Y31104761D01*
X47268617Y31104761D02*
X47268617Y31295237D01*
X47268617Y31295237D02*
X47306712Y31371428D01*
X47306712Y31371428D02*
X47344807Y31409523D01*
X47344807Y31409523D02*
X47420998Y31447618D01*
X47420998Y31447618D02*
X47611474Y31447618D01*
X47611474Y31447618D02*
X47687664Y31409523D01*
X47687664Y31409523D02*
X47725760Y31371428D01*
X47725760Y31371428D02*
X47763855Y31295237D01*
X47763855Y31295237D02*
X47763855Y31104761D01*
X47763855Y31104761D02*
X47725760Y31028571D01*
X47725760Y31028571D02*
X47687664Y30990475D01*
X46963855Y32133333D02*
X46963855Y31980952D01*
X46963855Y31980952D02*
X47001950Y31904761D01*
X47001950Y31904761D02*
X47040045Y31866666D01*
X47040045Y31866666D02*
X47154331Y31790476D01*
X47154331Y31790476D02*
X47306712Y31752380D01*
X47306712Y31752380D02*
X47611474Y31752380D01*
X47611474Y31752380D02*
X47687664Y31790476D01*
X47687664Y31790476D02*
X47725760Y31828571D01*
X47725760Y31828571D02*
X47763855Y31904761D01*
X47763855Y31904761D02*
X47763855Y32057142D01*
X47763855Y32057142D02*
X47725760Y32133333D01*
X47725760Y32133333D02*
X47687664Y32171428D01*
X47687664Y32171428D02*
X47611474Y32209523D01*
X47611474Y32209523D02*
X47420998Y32209523D01*
X47420998Y32209523D02*
X47344807Y32171428D01*
X47344807Y32171428D02*
X47306712Y32133333D01*
X47306712Y32133333D02*
X47268617Y32057142D01*
X47268617Y32057142D02*
X47268617Y31904761D01*
X47268617Y31904761D02*
X47306712Y31828571D01*
X47306712Y31828571D02*
X47344807Y31790476D01*
X47344807Y31790476D02*
X47420998Y31752380D01*
X38363855Y63985714D02*
X37982902Y63719047D01*
X38363855Y63528571D02*
X37563855Y63528571D01*
X37563855Y63528571D02*
X37563855Y63833333D01*
X37563855Y63833333D02*
X37601950Y63909523D01*
X37601950Y63909523D02*
X37640045Y63947618D01*
X37640045Y63947618D02*
X37716236Y63985714D01*
X37716236Y63985714D02*
X37830521Y63985714D01*
X37830521Y63985714D02*
X37906712Y63947618D01*
X37906712Y63947618D02*
X37944807Y63909523D01*
X37944807Y63909523D02*
X37982902Y63833333D01*
X37982902Y63833333D02*
X37982902Y63528571D01*
X37563855Y64252380D02*
X37563855Y64747618D01*
X37563855Y64747618D02*
X37868617Y64480952D01*
X37868617Y64480952D02*
X37868617Y64595237D01*
X37868617Y64595237D02*
X37906712Y64671428D01*
X37906712Y64671428D02*
X37944807Y64709523D01*
X37944807Y64709523D02*
X38020998Y64747618D01*
X38020998Y64747618D02*
X38211474Y64747618D01*
X38211474Y64747618D02*
X38287664Y64709523D01*
X38287664Y64709523D02*
X38325760Y64671428D01*
X38325760Y64671428D02*
X38363855Y64595237D01*
X38363855Y64595237D02*
X38363855Y64366666D01*
X38363855Y64366666D02*
X38325760Y64290475D01*
X38325760Y64290475D02*
X38287664Y64252380D01*
X37563855Y65014285D02*
X37563855Y65547619D01*
X37563855Y65547619D02*
X38363855Y65204761D01*
X-516144Y28283333D02*
X55283Y28283333D01*
X55283Y28283333D02*
X169569Y28245238D01*
X169569Y28245238D02*
X245760Y28169047D01*
X245760Y28169047D02*
X283855Y28054762D01*
X283855Y28054762D02*
X283855Y27978571D01*
X-249478Y29007143D02*
X283855Y29007143D01*
X-554240Y28816667D02*
X17188Y28626190D01*
X17188Y28626190D02*
X17188Y29121429D01*
X50863855Y63985714D02*
X50482902Y63719047D01*
X50863855Y63528571D02*
X50063855Y63528571D01*
X50063855Y63528571D02*
X50063855Y63833333D01*
X50063855Y63833333D02*
X50101950Y63909523D01*
X50101950Y63909523D02*
X50140045Y63947618D01*
X50140045Y63947618D02*
X50216236Y63985714D01*
X50216236Y63985714D02*
X50330521Y63985714D01*
X50330521Y63985714D02*
X50406712Y63947618D01*
X50406712Y63947618D02*
X50444807Y63909523D01*
X50444807Y63909523D02*
X50482902Y63833333D01*
X50482902Y63833333D02*
X50482902Y63528571D01*
X50063855Y64252380D02*
X50063855Y64785714D01*
X50063855Y64785714D02*
X50863855Y64442856D01*
X50140045Y65052380D02*
X50101950Y65090476D01*
X50101950Y65090476D02*
X50063855Y65166666D01*
X50063855Y65166666D02*
X50063855Y65357142D01*
X50063855Y65357142D02*
X50101950Y65433333D01*
X50101950Y65433333D02*
X50140045Y65471428D01*
X50140045Y65471428D02*
X50216236Y65509523D01*
X50216236Y65509523D02*
X50292426Y65509523D01*
X50292426Y65509523D02*
X50406712Y65471428D01*
X50406712Y65471428D02*
X50863855Y65014285D01*
X50863855Y65014285D02*
X50863855Y65509523D01*
X-8136144Y42885714D02*
X-8517097Y42619047D01*
X-8136144Y42428571D02*
X-8936144Y42428571D01*
X-8936144Y42428571D02*
X-8936144Y42733333D01*
X-8936144Y42733333D02*
X-8898049Y42809523D01*
X-8898049Y42809523D02*
X-8859954Y42847618D01*
X-8859954Y42847618D02*
X-8783763Y42885714D01*
X-8783763Y42885714D02*
X-8669478Y42885714D01*
X-8669478Y42885714D02*
X-8593287Y42847618D01*
X-8593287Y42847618D02*
X-8555192Y42809523D01*
X-8555192Y42809523D02*
X-8517097Y42733333D01*
X-8517097Y42733333D02*
X-8517097Y42428571D01*
X-8136144Y43647618D02*
X-8136144Y43190475D01*
X-8136144Y43419047D02*
X-8936144Y43419047D01*
X-8936144Y43419047D02*
X-8821859Y43342856D01*
X-8821859Y43342856D02*
X-8745668Y43266666D01*
X-8745668Y43266666D02*
X-8707573Y43190475D01*
X-8136144Y44409523D02*
X-8136144Y43952380D01*
X-8136144Y44180952D02*
X-8936144Y44180952D01*
X-8936144Y44180952D02*
X-8821859Y44104761D01*
X-8821859Y44104761D02*
X-8745668Y44028571D01*
X-8745668Y44028571D02*
X-8707573Y43952380D01*
X50463855Y23985714D02*
X50082902Y23719047D01*
X50463855Y23528571D02*
X49663855Y23528571D01*
X49663855Y23528571D02*
X49663855Y23833333D01*
X49663855Y23833333D02*
X49701950Y23909523D01*
X49701950Y23909523D02*
X49740045Y23947618D01*
X49740045Y23947618D02*
X49816236Y23985714D01*
X49816236Y23985714D02*
X49930521Y23985714D01*
X49930521Y23985714D02*
X50006712Y23947618D01*
X50006712Y23947618D02*
X50044807Y23909523D01*
X50044807Y23909523D02*
X50082902Y23833333D01*
X50082902Y23833333D02*
X50082902Y23528571D01*
X49663855Y24252380D02*
X49663855Y24785714D01*
X49663855Y24785714D02*
X50463855Y24442856D01*
X49663855Y25471428D02*
X49663855Y25090476D01*
X49663855Y25090476D02*
X50044807Y25052380D01*
X50044807Y25052380D02*
X50006712Y25090476D01*
X50006712Y25090476D02*
X49968617Y25166666D01*
X49968617Y25166666D02*
X49968617Y25357142D01*
X49968617Y25357142D02*
X50006712Y25433333D01*
X50006712Y25433333D02*
X50044807Y25471428D01*
X50044807Y25471428D02*
X50120998Y25509523D01*
X50120998Y25509523D02*
X50311474Y25509523D01*
X50311474Y25509523D02*
X50387664Y25471428D01*
X50387664Y25471428D02*
X50425760Y25433333D01*
X50425760Y25433333D02*
X50463855Y25357142D01*
X50463855Y25357142D02*
X50463855Y25166666D01*
X50463855Y25166666D02*
X50425760Y25090476D01*
X50425760Y25090476D02*
X50387664Y25052380D01*
X50863855Y40485714D02*
X50482902Y40219047D01*
X50863855Y40028571D02*
X50063855Y40028571D01*
X50063855Y40028571D02*
X50063855Y40333333D01*
X50063855Y40333333D02*
X50101950Y40409523D01*
X50101950Y40409523D02*
X50140045Y40447618D01*
X50140045Y40447618D02*
X50216236Y40485714D01*
X50216236Y40485714D02*
X50330521Y40485714D01*
X50330521Y40485714D02*
X50406712Y40447618D01*
X50406712Y40447618D02*
X50444807Y40409523D01*
X50444807Y40409523D02*
X50482902Y40333333D01*
X50482902Y40333333D02*
X50482902Y40028571D01*
X50406712Y40942856D02*
X50368617Y40866666D01*
X50368617Y40866666D02*
X50330521Y40828571D01*
X50330521Y40828571D02*
X50254331Y40790475D01*
X50254331Y40790475D02*
X50216236Y40790475D01*
X50216236Y40790475D02*
X50140045Y40828571D01*
X50140045Y40828571D02*
X50101950Y40866666D01*
X50101950Y40866666D02*
X50063855Y40942856D01*
X50063855Y40942856D02*
X50063855Y41095237D01*
X50063855Y41095237D02*
X50101950Y41171428D01*
X50101950Y41171428D02*
X50140045Y41209523D01*
X50140045Y41209523D02*
X50216236Y41247618D01*
X50216236Y41247618D02*
X50254331Y41247618D01*
X50254331Y41247618D02*
X50330521Y41209523D01*
X50330521Y41209523D02*
X50368617Y41171428D01*
X50368617Y41171428D02*
X50406712Y41095237D01*
X50406712Y41095237D02*
X50406712Y40942856D01*
X50406712Y40942856D02*
X50444807Y40866666D01*
X50444807Y40866666D02*
X50482902Y40828571D01*
X50482902Y40828571D02*
X50559093Y40790475D01*
X50559093Y40790475D02*
X50711474Y40790475D01*
X50711474Y40790475D02*
X50787664Y40828571D01*
X50787664Y40828571D02*
X50825760Y40866666D01*
X50825760Y40866666D02*
X50863855Y40942856D01*
X50863855Y40942856D02*
X50863855Y41095237D01*
X50863855Y41095237D02*
X50825760Y41171428D01*
X50825760Y41171428D02*
X50787664Y41209523D01*
X50787664Y41209523D02*
X50711474Y41247618D01*
X50711474Y41247618D02*
X50559093Y41247618D01*
X50559093Y41247618D02*
X50482902Y41209523D01*
X50482902Y41209523D02*
X50444807Y41171428D01*
X50444807Y41171428D02*
X50406712Y41095237D01*
X50063855Y41742857D02*
X50063855Y41819047D01*
X50063855Y41819047D02*
X50101950Y41895238D01*
X50101950Y41895238D02*
X50140045Y41933333D01*
X50140045Y41933333D02*
X50216236Y41971428D01*
X50216236Y41971428D02*
X50368617Y42009523D01*
X50368617Y42009523D02*
X50559093Y42009523D01*
X50559093Y42009523D02*
X50711474Y41971428D01*
X50711474Y41971428D02*
X50787664Y41933333D01*
X50787664Y41933333D02*
X50825760Y41895238D01*
X50825760Y41895238D02*
X50863855Y41819047D01*
X50863855Y41819047D02*
X50863855Y41742857D01*
X50863855Y41742857D02*
X50825760Y41666666D01*
X50825760Y41666666D02*
X50787664Y41628571D01*
X50787664Y41628571D02*
X50711474Y41590476D01*
X50711474Y41590476D02*
X50559093Y41552380D01*
X50559093Y41552380D02*
X50368617Y41552380D01*
X50368617Y41552380D02*
X50216236Y41590476D01*
X50216236Y41590476D02*
X50140045Y41628571D01*
X50140045Y41628571D02*
X50101950Y41666666D01*
X50101950Y41666666D02*
X50063855Y41742857D01*
X38113855Y53985714D02*
X37732902Y53719047D01*
X38113855Y53528571D02*
X37313855Y53528571D01*
X37313855Y53528571D02*
X37313855Y53833333D01*
X37313855Y53833333D02*
X37351950Y53909523D01*
X37351950Y53909523D02*
X37390045Y53947618D01*
X37390045Y53947618D02*
X37466236Y53985714D01*
X37466236Y53985714D02*
X37580521Y53985714D01*
X37580521Y53985714D02*
X37656712Y53947618D01*
X37656712Y53947618D02*
X37694807Y53909523D01*
X37694807Y53909523D02*
X37732902Y53833333D01*
X37732902Y53833333D02*
X37732902Y53528571D01*
X37313855Y54252380D02*
X37313855Y54747618D01*
X37313855Y54747618D02*
X37618617Y54480952D01*
X37618617Y54480952D02*
X37618617Y54595237D01*
X37618617Y54595237D02*
X37656712Y54671428D01*
X37656712Y54671428D02*
X37694807Y54709523D01*
X37694807Y54709523D02*
X37770998Y54747618D01*
X37770998Y54747618D02*
X37961474Y54747618D01*
X37961474Y54747618D02*
X38037664Y54709523D01*
X38037664Y54709523D02*
X38075760Y54671428D01*
X38075760Y54671428D02*
X38113855Y54595237D01*
X38113855Y54595237D02*
X38113855Y54366666D01*
X38113855Y54366666D02*
X38075760Y54290475D01*
X38075760Y54290475D02*
X38037664Y54252380D01*
X37580521Y55433333D02*
X38113855Y55433333D01*
X37275760Y55242857D02*
X37847188Y55052380D01*
X37847188Y55052380D02*
X37847188Y55547619D01*
X-14323332Y41122335D02*
X-14361428Y41084240D01*
X-14361428Y41084240D02*
X-14475713Y41046144D01*
X-14475713Y41046144D02*
X-14551904Y41046144D01*
X-14551904Y41046144D02*
X-14666190Y41084240D01*
X-14666190Y41084240D02*
X-14742380Y41160430D01*
X-14742380Y41160430D02*
X-14780475Y41236620D01*
X-14780475Y41236620D02*
X-14818571Y41389001D01*
X-14818571Y41389001D02*
X-14818571Y41503287D01*
X-14818571Y41503287D02*
X-14780475Y41655668D01*
X-14780475Y41655668D02*
X-14742380Y41731859D01*
X-14742380Y41731859D02*
X-14666190Y41808049D01*
X-14666190Y41808049D02*
X-14551904Y41846144D01*
X-14551904Y41846144D02*
X-14475713Y41846144D01*
X-14475713Y41846144D02*
X-14361428Y41808049D01*
X-14361428Y41808049D02*
X-14323332Y41769954D01*
X-13637618Y41579478D02*
X-13637618Y41046144D01*
X-13828094Y41884240D02*
X-14018571Y41312811D01*
X-14018571Y41312811D02*
X-13523332Y41312811D01*
X-13236144Y28233333D02*
X-12664716Y28233333D01*
X-12664716Y28233333D02*
X-12550430Y28195238D01*
X-12550430Y28195238D02*
X-12474240Y28119047D01*
X-12474240Y28119047D02*
X-12436144Y28004762D01*
X-12436144Y28004762D02*
X-12436144Y27928571D01*
X-13159954Y28576190D02*
X-13198049Y28614286D01*
X-13198049Y28614286D02*
X-13236144Y28690476D01*
X-13236144Y28690476D02*
X-13236144Y28880952D01*
X-13236144Y28880952D02*
X-13198049Y28957143D01*
X-13198049Y28957143D02*
X-13159954Y28995238D01*
X-13159954Y28995238D02*
X-13083763Y29033333D01*
X-13083763Y29033333D02*
X-13007573Y29033333D01*
X-13007573Y29033333D02*
X-12893287Y28995238D01*
X-12893287Y28995238D02*
X-12436144Y28538095D01*
X-12436144Y28538095D02*
X-12436144Y29033333D01*
X45257664Y58985714D02*
X45295760Y58947618D01*
X45295760Y58947618D02*
X45333855Y58833333D01*
X45333855Y58833333D02*
X45333855Y58757142D01*
X45333855Y58757142D02*
X45295760Y58642856D01*
X45295760Y58642856D02*
X45219569Y58566666D01*
X45219569Y58566666D02*
X45143379Y58528571D01*
X45143379Y58528571D02*
X44990998Y58490475D01*
X44990998Y58490475D02*
X44876712Y58490475D01*
X44876712Y58490475D02*
X44724331Y58528571D01*
X44724331Y58528571D02*
X44648140Y58566666D01*
X44648140Y58566666D02*
X44571950Y58642856D01*
X44571950Y58642856D02*
X44533855Y58757142D01*
X44533855Y58757142D02*
X44533855Y58833333D01*
X44533855Y58833333D02*
X44571950Y58947618D01*
X44571950Y58947618D02*
X44610045Y58985714D01*
X44610045Y59290475D02*
X44571950Y59328571D01*
X44571950Y59328571D02*
X44533855Y59404761D01*
X44533855Y59404761D02*
X44533855Y59595237D01*
X44533855Y59595237D02*
X44571950Y59671428D01*
X44571950Y59671428D02*
X44610045Y59709523D01*
X44610045Y59709523D02*
X44686236Y59747618D01*
X44686236Y59747618D02*
X44762426Y59747618D01*
X44762426Y59747618D02*
X44876712Y59709523D01*
X44876712Y59709523D02*
X45333855Y59252380D01*
X45333855Y59252380D02*
X45333855Y59747618D01*
X44533855Y60242857D02*
X44533855Y60319047D01*
X44533855Y60319047D02*
X44571950Y60395238D01*
X44571950Y60395238D02*
X44610045Y60433333D01*
X44610045Y60433333D02*
X44686236Y60471428D01*
X44686236Y60471428D02*
X44838617Y60509523D01*
X44838617Y60509523D02*
X45029093Y60509523D01*
X45029093Y60509523D02*
X45181474Y60471428D01*
X45181474Y60471428D02*
X45257664Y60433333D01*
X45257664Y60433333D02*
X45295760Y60395238D01*
X45295760Y60395238D02*
X45333855Y60319047D01*
X45333855Y60319047D02*
X45333855Y60242857D01*
X45333855Y60242857D02*
X45295760Y60166666D01*
X45295760Y60166666D02*
X45257664Y60128571D01*
X45257664Y60128571D02*
X45181474Y60090476D01*
X45181474Y60090476D02*
X45029093Y60052380D01*
X45029093Y60052380D02*
X44838617Y60052380D01*
X44838617Y60052380D02*
X44686236Y60090476D01*
X44686236Y60090476D02*
X44610045Y60128571D01*
X44610045Y60128571D02*
X44571950Y60166666D01*
X44571950Y60166666D02*
X44533855Y60242857D01*
X41963855Y40485714D02*
X41582902Y40219047D01*
X41963855Y40028571D02*
X41163855Y40028571D01*
X41163855Y40028571D02*
X41163855Y40333333D01*
X41163855Y40333333D02*
X41201950Y40409523D01*
X41201950Y40409523D02*
X41240045Y40447618D01*
X41240045Y40447618D02*
X41316236Y40485714D01*
X41316236Y40485714D02*
X41430521Y40485714D01*
X41430521Y40485714D02*
X41506712Y40447618D01*
X41506712Y40447618D02*
X41544807Y40409523D01*
X41544807Y40409523D02*
X41582902Y40333333D01*
X41582902Y40333333D02*
X41582902Y40028571D01*
X41163855Y41171428D02*
X41163855Y41019047D01*
X41163855Y41019047D02*
X41201950Y40942856D01*
X41201950Y40942856D02*
X41240045Y40904761D01*
X41240045Y40904761D02*
X41354331Y40828571D01*
X41354331Y40828571D02*
X41506712Y40790475D01*
X41506712Y40790475D02*
X41811474Y40790475D01*
X41811474Y40790475D02*
X41887664Y40828571D01*
X41887664Y40828571D02*
X41925760Y40866666D01*
X41925760Y40866666D02*
X41963855Y40942856D01*
X41963855Y40942856D02*
X41963855Y41095237D01*
X41963855Y41095237D02*
X41925760Y41171428D01*
X41925760Y41171428D02*
X41887664Y41209523D01*
X41887664Y41209523D02*
X41811474Y41247618D01*
X41811474Y41247618D02*
X41620998Y41247618D01*
X41620998Y41247618D02*
X41544807Y41209523D01*
X41544807Y41209523D02*
X41506712Y41171428D01*
X41506712Y41171428D02*
X41468617Y41095237D01*
X41468617Y41095237D02*
X41468617Y40942856D01*
X41468617Y40942856D02*
X41506712Y40866666D01*
X41506712Y40866666D02*
X41544807Y40828571D01*
X41544807Y40828571D02*
X41620998Y40790475D01*
X41240045Y41552380D02*
X41201950Y41590476D01*
X41201950Y41590476D02*
X41163855Y41666666D01*
X41163855Y41666666D02*
X41163855Y41857142D01*
X41163855Y41857142D02*
X41201950Y41933333D01*
X41201950Y41933333D02*
X41240045Y41971428D01*
X41240045Y41971428D02*
X41316236Y42009523D01*
X41316236Y42009523D02*
X41392426Y42009523D01*
X41392426Y42009523D02*
X41506712Y41971428D01*
X41506712Y41971428D02*
X41963855Y41514285D01*
X41963855Y41514285D02*
X41963855Y42009523D01*
X47413855Y40485714D02*
X47032902Y40219047D01*
X47413855Y40028571D02*
X46613855Y40028571D01*
X46613855Y40028571D02*
X46613855Y40333333D01*
X46613855Y40333333D02*
X46651950Y40409523D01*
X46651950Y40409523D02*
X46690045Y40447618D01*
X46690045Y40447618D02*
X46766236Y40485714D01*
X46766236Y40485714D02*
X46880521Y40485714D01*
X46880521Y40485714D02*
X46956712Y40447618D01*
X46956712Y40447618D02*
X46994807Y40409523D01*
X46994807Y40409523D02*
X47032902Y40333333D01*
X47032902Y40333333D02*
X47032902Y40028571D01*
X46613855Y41171428D02*
X46613855Y41019047D01*
X46613855Y41019047D02*
X46651950Y40942856D01*
X46651950Y40942856D02*
X46690045Y40904761D01*
X46690045Y40904761D02*
X46804331Y40828571D01*
X46804331Y40828571D02*
X46956712Y40790475D01*
X46956712Y40790475D02*
X47261474Y40790475D01*
X47261474Y40790475D02*
X47337664Y40828571D01*
X47337664Y40828571D02*
X47375760Y40866666D01*
X47375760Y40866666D02*
X47413855Y40942856D01*
X47413855Y40942856D02*
X47413855Y41095237D01*
X47413855Y41095237D02*
X47375760Y41171428D01*
X47375760Y41171428D02*
X47337664Y41209523D01*
X47337664Y41209523D02*
X47261474Y41247618D01*
X47261474Y41247618D02*
X47070998Y41247618D01*
X47070998Y41247618D02*
X46994807Y41209523D01*
X46994807Y41209523D02*
X46956712Y41171428D01*
X46956712Y41171428D02*
X46918617Y41095237D01*
X46918617Y41095237D02*
X46918617Y40942856D01*
X46918617Y40942856D02*
X46956712Y40866666D01*
X46956712Y40866666D02*
X46994807Y40828571D01*
X46994807Y40828571D02*
X47070998Y40790475D01*
X46613855Y41514285D02*
X46613855Y42009523D01*
X46613855Y42009523D02*
X46918617Y41742857D01*
X46918617Y41742857D02*
X46918617Y41857142D01*
X46918617Y41857142D02*
X46956712Y41933333D01*
X46956712Y41933333D02*
X46994807Y41971428D01*
X46994807Y41971428D02*
X47070998Y42009523D01*
X47070998Y42009523D02*
X47261474Y42009523D01*
X47261474Y42009523D02*
X47337664Y41971428D01*
X47337664Y41971428D02*
X47375760Y41933333D01*
X47375760Y41933333D02*
X47413855Y41857142D01*
X47413855Y41857142D02*
X47413855Y41628571D01*
X47413855Y41628571D02*
X47375760Y41552380D01*
X47375760Y41552380D02*
X47337664Y41514285D01*
X55965714Y63532335D02*
X55927618Y63494240D01*
X55927618Y63494240D02*
X55813333Y63456144D01*
X55813333Y63456144D02*
X55737142Y63456144D01*
X55737142Y63456144D02*
X55622856Y63494240D01*
X55622856Y63494240D02*
X55546666Y63570430D01*
X55546666Y63570430D02*
X55508571Y63646620D01*
X55508571Y63646620D02*
X55470475Y63799001D01*
X55470475Y63799001D02*
X55470475Y63913287D01*
X55470475Y63913287D02*
X55508571Y64065668D01*
X55508571Y64065668D02*
X55546666Y64141859D01*
X55546666Y64141859D02*
X55622856Y64218049D01*
X55622856Y64218049D02*
X55737142Y64256144D01*
X55737142Y64256144D02*
X55813333Y64256144D01*
X55813333Y64256144D02*
X55927618Y64218049D01*
X55927618Y64218049D02*
X55965714Y64179954D01*
X56727618Y63456144D02*
X56270475Y63456144D01*
X56499047Y63456144D02*
X56499047Y64256144D01*
X56499047Y64256144D02*
X56422856Y64141859D01*
X56422856Y64141859D02*
X56346666Y64065668D01*
X56346666Y64065668D02*
X56270475Y64027573D01*
X57108571Y63456144D02*
X57260952Y63456144D01*
X57260952Y63456144D02*
X57337142Y63494240D01*
X57337142Y63494240D02*
X57375238Y63532335D01*
X57375238Y63532335D02*
X57451428Y63646620D01*
X57451428Y63646620D02*
X57489523Y63799001D01*
X57489523Y63799001D02*
X57489523Y64103763D01*
X57489523Y64103763D02*
X57451428Y64179954D01*
X57451428Y64179954D02*
X57413333Y64218049D01*
X57413333Y64218049D02*
X57337142Y64256144D01*
X57337142Y64256144D02*
X57184761Y64256144D01*
X57184761Y64256144D02*
X57108571Y64218049D01*
X57108571Y64218049D02*
X57070476Y64179954D01*
X57070476Y64179954D02*
X57032380Y64103763D01*
X57032380Y64103763D02*
X57032380Y63913287D01*
X57032380Y63913287D02*
X57070476Y63837097D01*
X57070476Y63837097D02*
X57108571Y63799001D01*
X57108571Y63799001D02*
X57184761Y63760906D01*
X57184761Y63760906D02*
X57337142Y63760906D01*
X57337142Y63760906D02*
X57413333Y63799001D01*
X57413333Y63799001D02*
X57451428Y63837097D01*
X57451428Y63837097D02*
X57489523Y63913287D01*
X45163855Y54885714D02*
X44782902Y54619047D01*
X45163855Y54428571D02*
X44363855Y54428571D01*
X44363855Y54428571D02*
X44363855Y54733333D01*
X44363855Y54733333D02*
X44401950Y54809523D01*
X44401950Y54809523D02*
X44440045Y54847618D01*
X44440045Y54847618D02*
X44516236Y54885714D01*
X44516236Y54885714D02*
X44630521Y54885714D01*
X44630521Y54885714D02*
X44706712Y54847618D01*
X44706712Y54847618D02*
X44744807Y54809523D01*
X44744807Y54809523D02*
X44782902Y54733333D01*
X44782902Y54733333D02*
X44782902Y54428571D01*
X44363855Y55152380D02*
X44363855Y55685714D01*
X44363855Y55685714D02*
X45163855Y55342856D01*
X44363855Y56142857D02*
X44363855Y56219047D01*
X44363855Y56219047D02*
X44401950Y56295238D01*
X44401950Y56295238D02*
X44440045Y56333333D01*
X44440045Y56333333D02*
X44516236Y56371428D01*
X44516236Y56371428D02*
X44668617Y56409523D01*
X44668617Y56409523D02*
X44859093Y56409523D01*
X44859093Y56409523D02*
X45011474Y56371428D01*
X45011474Y56371428D02*
X45087664Y56333333D01*
X45087664Y56333333D02*
X45125760Y56295238D01*
X45125760Y56295238D02*
X45163855Y56219047D01*
X45163855Y56219047D02*
X45163855Y56142857D01*
X45163855Y56142857D02*
X45125760Y56066666D01*
X45125760Y56066666D02*
X45087664Y56028571D01*
X45087664Y56028571D02*
X45011474Y55990476D01*
X45011474Y55990476D02*
X44859093Y55952380D01*
X44859093Y55952380D02*
X44668617Y55952380D01*
X44668617Y55952380D02*
X44516236Y55990476D01*
X44516236Y55990476D02*
X44440045Y56028571D01*
X44440045Y56028571D02*
X44401950Y56066666D01*
X44401950Y56066666D02*
X44363855Y56142857D01*
X2463855Y97493333D02*
X3035283Y97493333D01*
X3035283Y97493333D02*
X3149569Y97455238D01*
X3149569Y97455238D02*
X3225760Y97379047D01*
X3225760Y97379047D02*
X3263855Y97264762D01*
X3263855Y97264762D02*
X3263855Y97188571D01*
X3263855Y97874286D02*
X2463855Y97874286D01*
X2463855Y97874286D02*
X2463855Y98179048D01*
X2463855Y98179048D02*
X2501950Y98255238D01*
X2501950Y98255238D02*
X2540045Y98293333D01*
X2540045Y98293333D02*
X2616236Y98331429D01*
X2616236Y98331429D02*
X2730521Y98331429D01*
X2730521Y98331429D02*
X2806712Y98293333D01*
X2806712Y98293333D02*
X2844807Y98255238D01*
X2844807Y98255238D02*
X2882902Y98179048D01*
X2882902Y98179048D02*
X2882902Y97874286D01*
X3263855Y99093333D02*
X3263855Y98636190D01*
X3263855Y98864762D02*
X2463855Y98864762D01*
X2463855Y98864762D02*
X2578140Y98788571D01*
X2578140Y98788571D02*
X2654331Y98712381D01*
X2654331Y98712381D02*
X2692426Y98636190D01*
X45563855Y63885714D02*
X45182902Y63619047D01*
X45563855Y63428571D02*
X44763855Y63428571D01*
X44763855Y63428571D02*
X44763855Y63733333D01*
X44763855Y63733333D02*
X44801950Y63809523D01*
X44801950Y63809523D02*
X44840045Y63847618D01*
X44840045Y63847618D02*
X44916236Y63885714D01*
X44916236Y63885714D02*
X45030521Y63885714D01*
X45030521Y63885714D02*
X45106712Y63847618D01*
X45106712Y63847618D02*
X45144807Y63809523D01*
X45144807Y63809523D02*
X45182902Y63733333D01*
X45182902Y63733333D02*
X45182902Y63428571D01*
X44763855Y64152380D02*
X44763855Y64685714D01*
X44763855Y64685714D02*
X45563855Y64342856D01*
X45563855Y65409523D02*
X45563855Y64952380D01*
X45563855Y65180952D02*
X44763855Y65180952D01*
X44763855Y65180952D02*
X44878140Y65104761D01*
X44878140Y65104761D02*
X44954331Y65028571D01*
X44954331Y65028571D02*
X44992426Y64952380D01*
X51163855Y54685714D02*
X50782902Y54419047D01*
X51163855Y54228571D02*
X50363855Y54228571D01*
X50363855Y54228571D02*
X50363855Y54533333D01*
X50363855Y54533333D02*
X50401950Y54609523D01*
X50401950Y54609523D02*
X50440045Y54647618D01*
X50440045Y54647618D02*
X50516236Y54685714D01*
X50516236Y54685714D02*
X50630521Y54685714D01*
X50630521Y54685714D02*
X50706712Y54647618D01*
X50706712Y54647618D02*
X50744807Y54609523D01*
X50744807Y54609523D02*
X50782902Y54533333D01*
X50782902Y54533333D02*
X50782902Y54228571D01*
X50363855Y55371428D02*
X50363855Y55219047D01*
X50363855Y55219047D02*
X50401950Y55142856D01*
X50401950Y55142856D02*
X50440045Y55104761D01*
X50440045Y55104761D02*
X50554331Y55028571D01*
X50554331Y55028571D02*
X50706712Y54990475D01*
X50706712Y54990475D02*
X51011474Y54990475D01*
X51011474Y54990475D02*
X51087664Y55028571D01*
X51087664Y55028571D02*
X51125760Y55066666D01*
X51125760Y55066666D02*
X51163855Y55142856D01*
X51163855Y55142856D02*
X51163855Y55295237D01*
X51163855Y55295237D02*
X51125760Y55371428D01*
X51125760Y55371428D02*
X51087664Y55409523D01*
X51087664Y55409523D02*
X51011474Y55447618D01*
X51011474Y55447618D02*
X50820998Y55447618D01*
X50820998Y55447618D02*
X50744807Y55409523D01*
X50744807Y55409523D02*
X50706712Y55371428D01*
X50706712Y55371428D02*
X50668617Y55295237D01*
X50668617Y55295237D02*
X50668617Y55142856D01*
X50668617Y55142856D02*
X50706712Y55066666D01*
X50706712Y55066666D02*
X50744807Y55028571D01*
X50744807Y55028571D02*
X50820998Y54990475D01*
X51163855Y55828571D02*
X51163855Y55980952D01*
X51163855Y55980952D02*
X51125760Y56057142D01*
X51125760Y56057142D02*
X51087664Y56095238D01*
X51087664Y56095238D02*
X50973379Y56171428D01*
X50973379Y56171428D02*
X50820998Y56209523D01*
X50820998Y56209523D02*
X50516236Y56209523D01*
X50516236Y56209523D02*
X50440045Y56171428D01*
X50440045Y56171428D02*
X50401950Y56133333D01*
X50401950Y56133333D02*
X50363855Y56057142D01*
X50363855Y56057142D02*
X50363855Y55904761D01*
X50363855Y55904761D02*
X50401950Y55828571D01*
X50401950Y55828571D02*
X50440045Y55790476D01*
X50440045Y55790476D02*
X50516236Y55752380D01*
X50516236Y55752380D02*
X50706712Y55752380D01*
X50706712Y55752380D02*
X50782902Y55790476D01*
X50782902Y55790476D02*
X50820998Y55828571D01*
X50820998Y55828571D02*
X50859093Y55904761D01*
X50859093Y55904761D02*
X50859093Y56057142D01*
X50859093Y56057142D02*
X50820998Y56133333D01*
X50820998Y56133333D02*
X50782902Y56171428D01*
X50782902Y56171428D02*
X50706712Y56209523D01*
X-8089523Y36614144D02*
X-7632380Y36614144D01*
X-7860952Y35814144D02*
X-7860952Y36614144D01*
X-7365713Y35814144D02*
X-7365713Y36614144D01*
X-7365713Y36614144D02*
X-7060951Y36614144D01*
X-7060951Y36614144D02*
X-6984761Y36576049D01*
X-6984761Y36576049D02*
X-6946666Y36537954D01*
X-6946666Y36537954D02*
X-6908570Y36461763D01*
X-6908570Y36461763D02*
X-6908570Y36347478D01*
X-6908570Y36347478D02*
X-6946666Y36271287D01*
X-6946666Y36271287D02*
X-6984761Y36233192D01*
X-6984761Y36233192D02*
X-7060951Y36195097D01*
X-7060951Y36195097D02*
X-7365713Y36195097D01*
X-6641904Y36614144D02*
X-6146666Y36614144D01*
X-6146666Y36614144D02*
X-6413332Y36309382D01*
X-6413332Y36309382D02*
X-6299047Y36309382D01*
X-6299047Y36309382D02*
X-6222856Y36271287D01*
X-6222856Y36271287D02*
X-6184761Y36233192D01*
X-6184761Y36233192D02*
X-6146666Y36157001D01*
X-6146666Y36157001D02*
X-6146666Y35966525D01*
X-6146666Y35966525D02*
X-6184761Y35890335D01*
X-6184761Y35890335D02*
X-6222856Y35852240D01*
X-6222856Y35852240D02*
X-6299047Y35814144D01*
X-6299047Y35814144D02*
X-6527618Y35814144D01*
X-6527618Y35814144D02*
X-6603809Y35852240D01*
X-6603809Y35852240D02*
X-6641904Y35890335D01*
X-6924285Y46926144D02*
X-7190952Y47307097D01*
X-7381428Y46926144D02*
X-7381428Y47726144D01*
X-7381428Y47726144D02*
X-7076666Y47726144D01*
X-7076666Y47726144D02*
X-7000476Y47688049D01*
X-7000476Y47688049D02*
X-6962381Y47649954D01*
X-6962381Y47649954D02*
X-6924285Y47573763D01*
X-6924285Y47573763D02*
X-6924285Y47459478D01*
X-6924285Y47459478D02*
X-6962381Y47383287D01*
X-6962381Y47383287D02*
X-7000476Y47345192D01*
X-7000476Y47345192D02*
X-7076666Y47307097D01*
X-7076666Y47307097D02*
X-7381428Y47307097D01*
X-6162381Y46926144D02*
X-6619524Y46926144D01*
X-6390952Y46926144D02*
X-6390952Y47726144D01*
X-6390952Y47726144D02*
X-6467143Y47611859D01*
X-6467143Y47611859D02*
X-6543333Y47535668D01*
X-6543333Y47535668D02*
X-6619524Y47497573D01*
X-5667142Y47726144D02*
X-5590952Y47726144D01*
X-5590952Y47726144D02*
X-5514761Y47688049D01*
X-5514761Y47688049D02*
X-5476666Y47649954D01*
X-5476666Y47649954D02*
X-5438571Y47573763D01*
X-5438571Y47573763D02*
X-5400476Y47421382D01*
X-5400476Y47421382D02*
X-5400476Y47230906D01*
X-5400476Y47230906D02*
X-5438571Y47078525D01*
X-5438571Y47078525D02*
X-5476666Y47002335D01*
X-5476666Y47002335D02*
X-5514761Y46964240D01*
X-5514761Y46964240D02*
X-5590952Y46926144D01*
X-5590952Y46926144D02*
X-5667142Y46926144D01*
X-5667142Y46926144D02*
X-5743333Y46964240D01*
X-5743333Y46964240D02*
X-5781428Y47002335D01*
X-5781428Y47002335D02*
X-5819523Y47078525D01*
X-5819523Y47078525D02*
X-5857619Y47230906D01*
X-5857619Y47230906D02*
X-5857619Y47421382D01*
X-5857619Y47421382D02*
X-5819523Y47573763D01*
X-5819523Y47573763D02*
X-5781428Y47649954D01*
X-5781428Y47649954D02*
X-5743333Y47688049D01*
X-5743333Y47688049D02*
X-5667142Y47726144D01*
X-7009523Y42494144D02*
X-6552380Y42494144D01*
X-6780952Y41694144D02*
X-6780952Y42494144D01*
X-6285713Y41694144D02*
X-6285713Y42494144D01*
X-6285713Y42494144D02*
X-5980951Y42494144D01*
X-5980951Y42494144D02*
X-5904761Y42456049D01*
X-5904761Y42456049D02*
X-5866666Y42417954D01*
X-5866666Y42417954D02*
X-5828570Y42341763D01*
X-5828570Y42341763D02*
X-5828570Y42227478D01*
X-5828570Y42227478D02*
X-5866666Y42151287D01*
X-5866666Y42151287D02*
X-5904761Y42113192D01*
X-5904761Y42113192D02*
X-5980951Y42075097D01*
X-5980951Y42075097D02*
X-6285713Y42075097D01*
X-5523809Y42417954D02*
X-5485713Y42456049D01*
X-5485713Y42456049D02*
X-5409523Y42494144D01*
X-5409523Y42494144D02*
X-5219047Y42494144D01*
X-5219047Y42494144D02*
X-5142856Y42456049D01*
X-5142856Y42456049D02*
X-5104761Y42417954D01*
X-5104761Y42417954D02*
X-5066666Y42341763D01*
X-5066666Y42341763D02*
X-5066666Y42265573D01*
X-5066666Y42265573D02*
X-5104761Y42151287D01*
X-5104761Y42151287D02*
X-5561904Y41694144D01*
X-5561904Y41694144D02*
X-5066666Y41694144D01*
X41113855Y53985714D02*
X40732902Y53719047D01*
X41113855Y53528571D02*
X40313855Y53528571D01*
X40313855Y53528571D02*
X40313855Y53833333D01*
X40313855Y53833333D02*
X40351950Y53909523D01*
X40351950Y53909523D02*
X40390045Y53947618D01*
X40390045Y53947618D02*
X40466236Y53985714D01*
X40466236Y53985714D02*
X40580521Y53985714D01*
X40580521Y53985714D02*
X40656712Y53947618D01*
X40656712Y53947618D02*
X40694807Y53909523D01*
X40694807Y53909523D02*
X40732902Y53833333D01*
X40732902Y53833333D02*
X40732902Y53528571D01*
X40313855Y54252380D02*
X40313855Y54747618D01*
X40313855Y54747618D02*
X40618617Y54480952D01*
X40618617Y54480952D02*
X40618617Y54595237D01*
X40618617Y54595237D02*
X40656712Y54671428D01*
X40656712Y54671428D02*
X40694807Y54709523D01*
X40694807Y54709523D02*
X40770998Y54747618D01*
X40770998Y54747618D02*
X40961474Y54747618D01*
X40961474Y54747618D02*
X41037664Y54709523D01*
X41037664Y54709523D02*
X41075760Y54671428D01*
X41075760Y54671428D02*
X41113855Y54595237D01*
X41113855Y54595237D02*
X41113855Y54366666D01*
X41113855Y54366666D02*
X41075760Y54290475D01*
X41075760Y54290475D02*
X41037664Y54252380D01*
X40313855Y55014285D02*
X40313855Y55509523D01*
X40313855Y55509523D02*
X40618617Y55242857D01*
X40618617Y55242857D02*
X40618617Y55357142D01*
X40618617Y55357142D02*
X40656712Y55433333D01*
X40656712Y55433333D02*
X40694807Y55471428D01*
X40694807Y55471428D02*
X40770998Y55509523D01*
X40770998Y55509523D02*
X40961474Y55509523D01*
X40961474Y55509523D02*
X41037664Y55471428D01*
X41037664Y55471428D02*
X41075760Y55433333D01*
X41075760Y55433333D02*
X41113855Y55357142D01*
X41113855Y55357142D02*
X41113855Y55128571D01*
X41113855Y55128571D02*
X41075760Y55052380D01*
X41075760Y55052380D02*
X41037664Y55014285D01*
X42288855Y45385714D02*
X41907902Y45119047D01*
X42288855Y44928571D02*
X41488855Y44928571D01*
X41488855Y44928571D02*
X41488855Y45233333D01*
X41488855Y45233333D02*
X41526950Y45309523D01*
X41526950Y45309523D02*
X41565045Y45347618D01*
X41565045Y45347618D02*
X41641236Y45385714D01*
X41641236Y45385714D02*
X41755521Y45385714D01*
X41755521Y45385714D02*
X41831712Y45347618D01*
X41831712Y45347618D02*
X41869807Y45309523D01*
X41869807Y45309523D02*
X41907902Y45233333D01*
X41907902Y45233333D02*
X41907902Y44928571D01*
X41565045Y45690475D02*
X41526950Y45728571D01*
X41526950Y45728571D02*
X41488855Y45804761D01*
X41488855Y45804761D02*
X41488855Y45995237D01*
X41488855Y45995237D02*
X41526950Y46071428D01*
X41526950Y46071428D02*
X41565045Y46109523D01*
X41565045Y46109523D02*
X41641236Y46147618D01*
X41641236Y46147618D02*
X41717426Y46147618D01*
X41717426Y46147618D02*
X41831712Y46109523D01*
X41831712Y46109523D02*
X42288855Y45652380D01*
X42288855Y45652380D02*
X42288855Y46147618D01*
X41488855Y46414285D02*
X41488855Y46947619D01*
X41488855Y46947619D02*
X42288855Y46604761D01*
X47387664Y35585714D02*
X47425760Y35547618D01*
X47425760Y35547618D02*
X47463855Y35433333D01*
X47463855Y35433333D02*
X47463855Y35357142D01*
X47463855Y35357142D02*
X47425760Y35242856D01*
X47425760Y35242856D02*
X47349569Y35166666D01*
X47349569Y35166666D02*
X47273379Y35128571D01*
X47273379Y35128571D02*
X47120998Y35090475D01*
X47120998Y35090475D02*
X47006712Y35090475D01*
X47006712Y35090475D02*
X46854331Y35128571D01*
X46854331Y35128571D02*
X46778140Y35166666D01*
X46778140Y35166666D02*
X46701950Y35242856D01*
X46701950Y35242856D02*
X46663855Y35357142D01*
X46663855Y35357142D02*
X46663855Y35433333D01*
X46663855Y35433333D02*
X46701950Y35547618D01*
X46701950Y35547618D02*
X46740045Y35585714D01*
X47463855Y36347618D02*
X47463855Y35890475D01*
X47463855Y36119047D02*
X46663855Y36119047D01*
X46663855Y36119047D02*
X46778140Y36042856D01*
X46778140Y36042856D02*
X46854331Y35966666D01*
X46854331Y35966666D02*
X46892426Y35890475D01*
X47006712Y36804761D02*
X46968617Y36728571D01*
X46968617Y36728571D02*
X46930521Y36690476D01*
X46930521Y36690476D02*
X46854331Y36652380D01*
X46854331Y36652380D02*
X46816236Y36652380D01*
X46816236Y36652380D02*
X46740045Y36690476D01*
X46740045Y36690476D02*
X46701950Y36728571D01*
X46701950Y36728571D02*
X46663855Y36804761D01*
X46663855Y36804761D02*
X46663855Y36957142D01*
X46663855Y36957142D02*
X46701950Y37033333D01*
X46701950Y37033333D02*
X46740045Y37071428D01*
X46740045Y37071428D02*
X46816236Y37109523D01*
X46816236Y37109523D02*
X46854331Y37109523D01*
X46854331Y37109523D02*
X46930521Y37071428D01*
X46930521Y37071428D02*
X46968617Y37033333D01*
X46968617Y37033333D02*
X47006712Y36957142D01*
X47006712Y36957142D02*
X47006712Y36804761D01*
X47006712Y36804761D02*
X47044807Y36728571D01*
X47044807Y36728571D02*
X47082902Y36690476D01*
X47082902Y36690476D02*
X47159093Y36652380D01*
X47159093Y36652380D02*
X47311474Y36652380D01*
X47311474Y36652380D02*
X47387664Y36690476D01*
X47387664Y36690476D02*
X47425760Y36728571D01*
X47425760Y36728571D02*
X47463855Y36804761D01*
X47463855Y36804761D02*
X47463855Y36957142D01*
X47463855Y36957142D02*
X47425760Y37033333D01*
X47425760Y37033333D02*
X47387664Y37071428D01*
X47387664Y37071428D02*
X47311474Y37109523D01*
X47311474Y37109523D02*
X47159093Y37109523D01*
X47159093Y37109523D02*
X47082902Y37071428D01*
X47082902Y37071428D02*
X47044807Y37033333D01*
X47044807Y37033333D02*
X47006712Y36957142D01*
%TO.C,LED1*%
D11*
X-27322500Y37455000D02*
X-27322500Y35805000D01*
X-27322500Y35805000D02*
X-24922500Y35805000D01*
X-24922500Y37455000D02*
X-27322500Y37455000D01*
%TO.C,C17*%
D13*
X42465000Y35738748D02*
X42465000Y36261252D01*
X43935000Y35738748D02*
X43935000Y36261252D01*
%TO.C,R81*%
X53565000Y41227064D02*
X53565000Y40772936D01*
X55035000Y41227064D02*
X55035000Y40772936D01*
%TO.C,R3*%
X-19675000Y43372936D02*
X-19675000Y43827064D01*
X-18205000Y43372936D02*
X-18205000Y43827064D01*
%TO.C,R57*%
X42065000Y30772936D02*
X42065000Y31227064D01*
X43535000Y30772936D02*
X43535000Y31227064D01*
%TO.C,C7*%
X41265000Y59238748D02*
X41265000Y59761252D01*
X42735000Y59238748D02*
X42735000Y59761252D01*
%TO.C,R79*%
X50965000Y30772936D02*
X50965000Y31227064D01*
X52435000Y30772936D02*
X52435000Y31227064D01*
%TO.C,U4*%
D10*
X-24390000Y78898300D02*
X-4590000Y78898300D01*
X-24390000Y61098300D02*
X-24390000Y78898300D01*
D11*
X-14490000Y60638300D02*
X-14490000Y60638300D01*
X-14390000Y60638300D02*
X-14390000Y60638300D01*
X-14390000Y60638300D02*
X-14390000Y60638300D01*
D10*
X-4590000Y78898300D02*
X-4590000Y61098300D01*
X-4590000Y61098300D02*
X-24390000Y61098300D01*
D11*
X-14490000Y60638300D02*
G75*
G02*
X-14390000Y60638300I50000J0D01*
G01*
X-14490000Y60638300D02*
G75*
G02*
X-14390000Y60638300I50000J0D01*
G01*
X-14390000Y60638300D02*
G75*
G02*
X-14490000Y60638300I-50000J0D01*
G01*
%TO.C,C1*%
D13*
X-19435798Y40665000D02*
X-19958302Y40665000D01*
X-19435798Y39195000D02*
X-19958302Y39195000D01*
%TO.C,R38*%
X41265000Y64727064D02*
X41265000Y64272936D01*
X42735000Y64727064D02*
X42735000Y64272936D01*
%TO.C,R76*%
X53965000Y25272936D02*
X53965000Y25727064D01*
X55435000Y25272936D02*
X55435000Y25727064D01*
%TO.C,R67*%
X48515000Y48772936D02*
X48515000Y49227064D01*
X49985000Y48772936D02*
X49985000Y49227064D01*
%TO.C,C22*%
X51365000Y35738748D02*
X51365000Y36261252D01*
X52835000Y35738748D02*
X52835000Y36261252D01*
%TO.C,R66*%
X45515000Y48772936D02*
X45515000Y49227064D01*
X46985000Y48772936D02*
X46985000Y49227064D01*
%TO.C,C21*%
X48115000Y59238748D02*
X48115000Y59761252D01*
X49585000Y59238748D02*
X49585000Y59761252D01*
%TO.C,R78*%
X53965000Y30772936D02*
X53965000Y31227064D01*
X55435000Y30772936D02*
X55435000Y31227064D01*
%TO.C,C23*%
X53565000Y35738748D02*
X53565000Y36261252D01*
X55035000Y35738748D02*
X55035000Y36261252D01*
%TO.C,R25*%
X-19460436Y37375000D02*
X-19914564Y37375000D01*
X-19460436Y35905000D02*
X-19914564Y35905000D01*
%TO.C,TP4*%
X3380000Y51920000D02*
X5780000Y51920000D01*
X3380000Y49520000D02*
X3380000Y51920000D01*
X5780000Y51920000D02*
X5780000Y49520000D01*
X5780000Y49520000D02*
X3380000Y49520000D01*
%TO.C,TP1*%
X-27900000Y48100000D02*
X-25500000Y48100000D01*
X-27900000Y45700000D02*
X-27900000Y48100000D01*
X-25500000Y48100000D02*
X-25500000Y45700000D01*
X-25500000Y45700000D02*
X-27900000Y45700000D01*
%TO.C,R53*%
X42065000Y25272936D02*
X42065000Y25727064D01*
X43535000Y25272936D02*
X43535000Y25727064D01*
%TO.C,J5*%
D10*
X13560000Y75488000D02*
X58440000Y75488000D01*
D11*
X16250000Y69000000D02*
X16250000Y69000000D01*
X16250000Y68800000D02*
X16250000Y68800000D01*
X16250000Y69000000D02*
G75*
G02*
X16250000Y68800000I0J-100000D01*
G01*
X16250000Y68800000D02*
G75*
G02*
X16250000Y69000000I0J100000D01*
G01*
%TO.C,R26*%
D13*
X38665000Y48772936D02*
X38665000Y49227064D01*
X40135000Y48772936D02*
X40135000Y49227064D01*
%TO.C,R54*%
X45065000Y25272936D02*
X45065000Y25727064D01*
X46535000Y25272936D02*
X46535000Y25727064D01*
%TO.C,C6*%
X39065000Y59238748D02*
X39065000Y59761252D01*
X40535000Y59238748D02*
X40535000Y59761252D01*
%TO.C,J1*%
D11*
X-27150000Y103210000D02*
X-27100000Y93210000D01*
X-27100000Y93210000D02*
X-15400000Y93210000D01*
X-15400000Y103210000D02*
X-27150000Y103210000D01*
X-14000000Y101510000D02*
X-14000000Y94910000D01*
X-11800000Y103710000D02*
X-5200000Y103710000D01*
X-11800000Y92710000D02*
X-5200000Y92710000D01*
D10*
X-8500000Y91810000D02*
X-8500000Y91810000D01*
X-8500000Y91710000D02*
X-8500000Y91710000D01*
D11*
X-5200000Y103710000D02*
X-5200000Y103710000D01*
X-3000000Y101510000D02*
X-3000000Y94910000D01*
D10*
X-8500000Y91810000D02*
G75*
G02*
X-8500000Y91710000I0J-50000D01*
G01*
X-8500000Y91710000D02*
G75*
G02*
X-8500000Y91810000I0J50000D01*
G01*
%TO.C,J6*%
X13560000Y107488000D02*
X58440000Y107488000D01*
D11*
X16250000Y101000000D02*
X16250000Y101000000D01*
X16250000Y100800000D02*
X16250000Y100800000D01*
X16250000Y101000000D02*
G75*
G02*
X16250000Y100800000I0J-100000D01*
G01*
X16250000Y100800000D02*
G75*
G02*
X16250000Y101000000I0J100000D01*
G01*
%TO.C,R56*%
D13*
X45065000Y30772936D02*
X45065000Y31227064D01*
X46535000Y30772936D02*
X46535000Y31227064D01*
%TO.C,R37*%
X39065000Y64727064D02*
X39065000Y64272936D01*
X40535000Y64727064D02*
X40535000Y64272936D01*
%TO.C,J4*%
X-8920000Y29930000D02*
X-8920000Y27170000D01*
X-3730000Y29930000D02*
X-8920000Y29930000D01*
X-3730000Y29930000D02*
X-3730000Y27170000D01*
X-3730000Y27170000D02*
X-8920000Y27170000D01*
X-2460000Y29930000D02*
X-1080000Y29930000D01*
X-1080000Y29930000D02*
X-1080000Y28550000D01*
%TO.C,R72*%
X48115000Y64727064D02*
X48115000Y64272936D01*
X49585000Y64727064D02*
X49585000Y64272936D01*
%TO.C,R11*%
X-10735000Y44977064D02*
X-10735000Y44522936D01*
X-9265000Y44977064D02*
X-9265000Y44522936D01*
%TO.C,R75*%
X50965000Y25272936D02*
X50965000Y25727064D01*
X52435000Y25272936D02*
X52435000Y25727064D01*
%TO.C,R80*%
X51365000Y41227064D02*
X51365000Y40772936D01*
X52835000Y41227064D02*
X52835000Y40772936D01*
%TO.C,R34*%
X38665000Y54272936D02*
X38665000Y54727064D01*
X40135000Y54272936D02*
X40135000Y54727064D01*
%TO.C,C4*%
X-13928748Y43825000D02*
X-14451252Y43825000D01*
X-13928748Y42355000D02*
X-14451252Y42355000D01*
%TO.C,J2*%
X-27210000Y33610000D02*
X-24150000Y33610000D01*
X-27210000Y23390000D02*
X-27210000Y33610000D01*
X-24150000Y23390000D02*
X-27210000Y23390000D01*
X-20050000Y33610000D02*
X-13990000Y33610000D01*
X-13990000Y33610000D02*
X-13990000Y30800000D01*
X-13990000Y26200000D02*
X-13990000Y23390000D01*
X-13990000Y23390000D02*
X-20050000Y23390000D01*
X-13800000Y29500000D02*
X-13800000Y27500000D01*
%TO.C,C20*%
X45915000Y59238748D02*
X45915000Y59761252D01*
X47385000Y59238748D02*
X47385000Y59761252D01*
%TO.C,R62*%
X42465000Y41227064D02*
X42465000Y40772936D01*
X43935000Y41227064D02*
X43935000Y40772936D01*
%TO.C,R63*%
X44665000Y41227064D02*
X44665000Y40772936D01*
X46135000Y41227064D02*
X46135000Y40772936D01*
%TO.C,C19*%
X56741252Y66235000D02*
X56218748Y66235000D01*
X56741252Y64765000D02*
X56218748Y64765000D01*
%TO.C,R70*%
X45515000Y54272936D02*
X45515000Y54727064D01*
X46985000Y54272936D02*
X46985000Y54727064D01*
%TO.C,JP1*%
X3900000Y96780000D02*
X3900000Y98160000D01*
X5280000Y96780000D02*
X3900000Y96780000D01*
X6550000Y99540000D02*
X9200000Y99540000D01*
X6550000Y96780000D02*
X6550000Y99540000D01*
X6550000Y96780000D02*
X9200000Y96780000D01*
X9200000Y96780000D02*
X9200000Y99540000D01*
%TO.C,R71*%
X45915000Y64727064D02*
X45915000Y64272936D01*
X47385000Y64727064D02*
X47385000Y64272936D01*
%TO.C,R69*%
X48515000Y54272936D02*
X48515000Y54727064D01*
X49985000Y54272936D02*
X49985000Y54727064D01*
%TO.C,TP3*%
X-8280000Y35380000D02*
X-5880000Y35380000D01*
X-8280000Y32980000D02*
X-8280000Y35380000D01*
X-5880000Y35380000D02*
X-5880000Y32980000D01*
X-5880000Y32980000D02*
X-8280000Y32980000D01*
%TO.C,R10*%
X-6637064Y46375000D02*
X-6182936Y46375000D01*
X-6637064Y44905000D02*
X-6182936Y44905000D01*
%TO.C,TP2*%
X-7200000Y41260000D02*
X-4800000Y41260000D01*
X-7200000Y38860000D02*
X-7200000Y41260000D01*
X-4800000Y41260000D02*
X-4800000Y38860000D01*
X-4800000Y38860000D02*
X-7200000Y38860000D01*
%TO.C,R33*%
X41665000Y54272936D02*
X41665000Y54727064D01*
X43135000Y54272936D02*
X43135000Y54727064D01*
%TO.C,R27*%
X41665000Y48772936D02*
X41665000Y49227064D01*
X43135000Y48772936D02*
X43135000Y49227064D01*
%TO.C,C18*%
X44665000Y35738748D02*
X44665000Y36261252D01*
X46135000Y35738748D02*
X46135000Y36261252D01*
%TD*%
M02*
